<svg id="Flamenco-6" xmlns="http://www.w3.org/2000/svg" viewBox="0 0 281.36 355.95">
<g id="Calque_4"><g>
<path class="cls-1" d="M146.65,81.03c.53,3.43-1.55,6.93-4.75,8.24-.31,.13-.63,.23-.95,.32-.62,.17-.74,.24-.32,.82,.49,.69,1.5,1.17,2.27,1.43,1.72,.58,3.55,.37,5.08-.58,.17-2.12,.33-4.26,.86-6.32,.81-3.18,2.68-6.23,5.67-7.62,.09-.28,.28-.52,.65-.62,4.8-1.31,7.92-6.11,13.02-6.7,1.85-.21,3.83,.18,5.3,1.36,1.46,1.18,1.99,2.9,2.31,4.68,.82-1.24,1.58-2.53,2-3.95,.63-2.12,.17-4.13-.64-6.13-.77-1.89-1.66-3.69-2.16-5.68-.53-2.14-.76-4.34-1.34-6.47-.92-3.42-3-6.69-6.35-8.16-3.29-1.44-6.5-.53-9.21,1.59-2.24,1.75-4.2,3.96-6.79,5.23-1.3,.64-2.66,.95-4.11,1.01-1.76,.07-3.48-.1-5.15,.59-2.72,1.12-4.72,3.5-6.82,5.47-2.2,2.07-4.48,3.59-7.37,4.49-1.6,.5-3.34,.91-4.67,2-1.33,1.1-1.97,2.79-2.11,4.47-.27,3.29,1.11,6.91,4.17,8.43-.28-.92-.59-1.83-.92-2.73-.09-.01-.19-.02-.28-.06-.12-.04-.23-.11-.32-.21-.1-.09-.17-.2-.21-.32-.06-.12-.09-.25-.09-.39v-.18c0-.15,.04-.28,.1-.41-.06-.06-.12-.1-.16-.18-.06-.12-.12-.24-.18-.37-.09-.16-.14-.32-.14-.5l.04-.27c.05-.17,.13-.32,.26-.44,.07-.05,.13-.1,.2-.16,.11-.07,.24-.11,.37-.12,.04,0,.07,0,.11,0,.18-.08,.41-.1,.67,.01,4.2,1.74,8.77,1.62,13.2,2.25,3.82,.54,8.09,1.75,8.77,6.15Z"/>
<path class="cls-1" d="M179.97,146.24c.66-6.46-1.74-13.05-3.96-19.01-2.58-6.94-5.78-13.64-9.51-20.03-.02-.04-.02-.08-.04-.12-.51,.07-1.01,.11-1.52,.12-1.89,.04-3.78-.45-5.32-1.57-1.33-.97-2.33-2.27-3.37-3.53-1.11-1.33-2.26-2.57-3.98-3.05-1.41-.39-3.09-.53-4.03-1.8-.73-.98-.71-2.34-.56-3.65-2.38,.91-5.17,.65-7.3-.79-.99-.67-2.25-1.79-2.21-3.11,.05-1.38,1.29-1.77,2.39-2.09,2.99-.87,5.01-4.32,3.83-7.31-1.35-3.44-6.7-3.51-9.78-3.79-2.87-.27-5.77-.49-8.54-1.29,1.7,4.52,2.78,9.24,3.22,14.04,.09,1.02-.11,2.49,.36,3.39,.32,.61,1.14,1,1.66,1.5,1.08,1.04,1.88,2.33,2.74,3.55,.85,1.22,1.83,2.55,3.27,3.08,1.9,.7,3.96-.16,5.55-1.2,1.29-.84,2.68-1.93,4.21-.89,1.28,.87,1.68,2.68,1.92,4.11,.62,3.64-.06,7.35-1.9,10.55-.11,.18-.25,.29-.4,.37-.08,.14-.18,.27-.35,.38l-.59,.35c16.04,4.2,26.86,17.61,34.2,31.79Z"/>
<path class="cls-1" d="M173.54,75.13c-1.08-3.87-5.44-3.62-8.35-2.04-2.81,1.52-5.13,3.79-8.07,5.03-.08,.28-.28,.52-.65,.61-4.36,1.11-5.79,5.84-6.25,9.8-.25,2.14-.55,4.38-.56,6.54-.01,1.91,2.38,1.76,3.76,2.25,2.74,.98,4.18,3.53,6.09,5.54,2.62,2.77,6.09,2.72,9.51,1.52,6.05-2.13,12.61-7.27,12.3-14.3-.06-1.45-.43-2.9-1.14-4.17-.82-1.45-1.98-2.25-3.32-3.17-2.72-1.88-2.5-4.72-3.31-7.6Z"/>
<path class="cls-1" d="M201.06,97.3c3.54-8.52,7.08-17.04,10.63-25.57,.77-1.86,2-3.98,1.98-6.04-.02-2.15-2.1-3.7-3.47-5.11-2.91-2.99-5.7-6.09-8.36-9.29-2.67-3.21-5.22-6.53-7.64-9.93-2.36-3.32-4.98-6.76-6.6-10.51-1.43-3.3-1.45-6.65,.72-9.6,1.18-1.61,3.02-3.14,4.04-4.98-1.27,.75-2.64,1.33-4.12,1.67-.85,.2-1.56-.69-1.13-1.47,2.56-4.67,5.11-9.35,7.67-14.02,0-.02-.01-.04-.02-.06-6.58,5.48-13.88,11.94-14.67,21-.73,8.35,4.81,15.98,9.43,22.41,2.55,3.55,5.27,6.97,8.15,10.26,1.37,1.56,2.85,3.03,4.19,4.62,1.16,1.38,2.02,2.94,1.98,4.79-.05,1.99-.99,3.84-1.87,5.58-.98,1.95-1.99,3.89-3.01,5.81-2.05,3.85-4.17,7.67-6.38,11.43-4.3,7.35-8.9,14.52-13.78,21.5,3.98,4.64,7.54,9.64,10.97,14.7,3.77-9.06,7.53-18.13,11.3-27.19Z"/>
<path class="cls-1" d="M154.42,134.6c-2.39-7.44-8.68-12.52-15.37-16.04-.08,.28-.28,.53-.65,.63-5.55,1.56-10.26,4.98-14.64,8.61-4.89,4.04-9.68,8.22-14.48,12.37-4.42,3.83-8.82,7.69-13.2,11.58-1.09,.97-2.19,1.94-3.28,2.92-.81,.73-1.74,1.53-2.1,2.6-.88,2.62,2.9,3.93,4.78,4.33,5.56,1.18,11.56,1.16,17.22,1.15,5.81-.01,11.62-.33,17.42-.69,3.96-.25,11.45-.03,10.25-6.07-.26-1.33-.81-2.58-1.36-3.81-.29-.66-.58-1.32-.88-1.98-.22-.51-.44-1.43-.83-1.85-1.44-1.53-3.33,2.97-3.67,3.81-.68,1.67-1.37,3.43-2.78,4.64-1.72,1.47-4.02,1.72-6.2,1.79-5.73,.18-11.47-.44-17.06-1.7-.68-.15-1.03-1.21-.44-1.67,3.4-2.68,6.89-5.25,10.49-7.67,3.2-2.16,6.48-4.2,9.83-6.13,2.92-1.68,6.43-4.26,9.97-4.02,3.37,.23,5.41,3.33,7.18,5.83,1.92,2.72,3.55,5.63,4.92,8.66,5.32-3.82,6.86-11.1,4.87-17.31Z"/>
<path class="cls-1" d="M235.57,261.31c-.23-.06-.49-.24-.6-.46-.24-.48-.48-.95-.72-1.43-11.63,1.46-22.99,4.59-34.36,7.36-11.41,2.78-22.9,5.07-34.67,5.33-12.4,.28-24.75-1.16-37.07-2.32-20.79-1.96-43.16-3.09-62.37,6.35,13.44,2.38,26.68,5.79,39.78,9.65,24.78,7.3,49.09,16.17,74.11,22.62,12.5,3.22,25.19,5.84,38.04,7.26,6.38,.7,12.8,1.16,19.22,1.17,5.95,0,11.92-.51,17.59-2.32,.08-.11,.18-.21,.33-.29l7.74-4.35c.65-.37,1.33-.53,.84-1.33-.31-.5-.71-.96-1.06-1.43-.68-.94-1.33-1.9-1.96-2.88-8.95-13.88-12.93-30.94-24.76-42.92-.02,0-.05,0-.07,0Z"/>
<path class="cls-1" d="M263.92,333.95c-17.14,3.49-34.62,5.52-52.12,5.54-17.46,.01-34.66-2.25-51.62-6.31-16.65-3.99-33.04-9.14-49.95-12-8.55-1.45-17.09-1.9-25.73-2.33-8.28-.41-16.54-1.33-24.14-4.85-7.35-3.4-13.69-8.59-20.01-13.57-5.92-4.65-11.83-9.31-17.75-13.96-.62,.36-1.3,.65-2,.81-.05,.01-.09,0-.14,0-.08,.06-.17,.13-.28,.17-7.79,2.77-14.28,8.74-17.7,16.27,1.57,.18,3.12,.47,4.64,.88,17.47,4.71,27.53,21.14,41.61,31.13,15.34,10.89,34.37,10.3,52.33,9.71,20.56-.68,41.14-.43,61.68,.85,10.41,.65,20.79,1.55,31.16,2.71,9.7,1.08,19.37,2.46,29.08,3.49,18.53,1.96,37.61,2.64,55.55-3.07-4.81-5.05-9.61-10.11-14.42-15.16-.09-.1-.15-.21-.2-.31Z"/>
<path class="cls-1" d="M119.76,203.2c1.02,.82,2.26,1.45,3.36,2.16,2.52,1.62,5.03,3.24,7.55,4.86,4.58,2.95,9.1,6.13,13.96,8.62,9.82,5.01,21.31,4.92,31.96,3.19,5.3-.86,10.54-2.21,15.57-4.07,4.4-1.63,8.63-3.79,12.16-6.9-6.2-5.9-12-12.29-17.1-19.16-2.3-3.1-3.82-6.37-3.88-10.28-.06-3.95,.89-7.96,1.8-11.78,1.91-8.06,4.81-15.74,7.87-23.42,1.56-3.92,2.68-7.95,.76-11.96-1.65-3.43-4.12-6.59-6.26-9.73-4.51-6.62-9.28-13.09-14.97-18.76-.24-.24-.31-.51-.28-.77-1.21,.6-2.48,1.1-3.77,1.45,3.78,6.54,7,13.4,9.61,20.48,2.62,7.1,5.24,14.92,3.29,22.52-.2,.8-1.45,1.02-1.83,.24-7.14-14.71-17.87-29.28-34.51-33.56-.04,.02-.08,.04-.12,.05-.09,.01-.18,.02-.27,.04-.18,0-.35-.05-.5-.14-.07-.05-.13-.1-.2-.16-.1-.09-.17-.2-.21-.32-.02-.04-.01-.08-.03-.13-.92,.55-1.84,1.1-2.76,1.65,7.04,3.88,13.4,9.56,15.62,17.54,1.96,7.07-.3,15.34-6.69,19.24,1.42,2.28,2.72,4.63,3.87,7.06,1.22,2.59,2.54,5.37,2.52,8.3-.02,2.68-1.39,4.91-3.13,6.84-1.92,2.12-4.05,4.08-6.21,5.96-3.94,3.43-8.17,6.54-12.63,9.27-4.52,2.77-9.31,5.19-13.44,8.55-.49,.4-1,.79-1.39,1.29-.64,.8-.49,1.22,.26,1.82Z"/>
<path class="cls-1" d="M46.35,302.62c6.41,4.95,13.19,9.66,21.06,11.9,8.12,2.31,16.63,2.27,24.99,2.69,8.34,.43,16.61,1.59,24.79,3.24,16.65,3.36,32.87,8.53,49.46,12.17,16.88,3.71,34.09,5.26,51.37,4.78,16.92-.47,33.73-2.79,50.25-6.43-4.01-4.91-7.84-9.96-11.47-15.16-6.85,2.55-14.24,3.11-21.5,3-7.28-.11-14.56-.72-21.78-1.65-25.84-3.36-50.79-11.15-75.52-19.1-24.85-7.98-49.76-16.21-75.57-20.49-.87-.14-.94-1.44-.24-1.83,10.71-5.9,22.82-8.42,34.94-9.1,24.01-1.35,47.75,4.58,71.76,3.33,23.11-1.2,44.81-10.43,67.74-12.82-3.5-4.05-7.01-8.09-10.51-12.14-.12-.05-.22-.12-.29-.2-.53-.64-1.09-1.25-1.69-1.83-.3-.29-.62-.57-.94-.84-.16-.13-.31-.26-.47-.39-.04-.03-.08-.07-.12-.1-.07-.05-.14-.11-.21-.16-.18-.13-.3-.28-.39-.47-7.37,4.49-15.64,7.37-24.11,8.98-19.92,3.78-40.12,.69-60.01-1.64-19.94-2.34-39.93-2.68-59.97-2.68-3.22,3.96-6.7,7.72-10.43,11.21-12.98,12.16-28.77,21.24-45.81,26.33,1.29,1.01,2.57,2.02,3.86,3.03,6.94,5.45,13.84,10.96,20.82,16.36Z"/>
<path class="cls-1" d="M77.63,243.69c10.68-.01,21.36,.01,32.04,.44,10.51,.42,20.96,1.37,31.4,2.63,10.41,1.25,20.84,2.61,31.33,2.98,17.67,.61,36.22-1.92,51.12-12.05-7.89-6.66-14.78-14.45-20.45-23.09-3.4,2.41-7.22,4.17-11.16,5.58-5.92,2.11-12.07,3.51-18.3,4.29-5.51,.68-11.12,.89-16.64,.18-5.37-.69-10.4-2.38-15.12-5.02-5.05-2.83-9.84-6.15-14.7-9.28-2.52-1.62-5.03-3.24-7.55-4.86-.06-.04-.12-.08-.18-.11-.55,.47-1.1,.94-1.65,1.42-.02,.01-.04,.02-.05,.03-.06,.06-.12,.11-.18,.17-.07,.07-.14,.14-.21,.22-.03,.03-.07,.04-.1,.07-13.28,12.42-26.82,24.57-40.6,36.43,.18,0,.36,0,.54,0,.16-.05,.32-.05,.47,0Z"/>
<path d="M266.13,333.48c1.4-.3,2.81-.59,4.21-.91,.79-.18,.89-1.13,.44-1.67-4.38-5.27-8.52-10.73-12.43-16.36,1.61-.9,3.22-1.81,4.83-2.71,.81-.45,1.89-.88,2.32-1.77,.5-1.02,0-2.04-.59-2.88-2.6-3.66-4.95-7.39-7.02-11.38-4.16-8.01-7.46-16.45-12.04-24.24-2.51-4.27-5.42-8.3-8.92-11.81-.12-.12-.25-.2-.39-.24-.06-.11-.11-.22-.17-.34,.76-.08,1.52-.16,2.28-.22,.88-.08,1.29-1.03,.71-1.71-4.15-4.79-8.29-9.58-12.44-14.37-.11-.13-.23-.21-.36-.26-.88-.96-1.85-1.84-2.89-2.64,.67-.44,1.35-.87,2-1.33,.47-.34,.74-1.13,.2-1.57-8.23-6.78-15.38-14.76-21.21-23.69,.63-.51,1.25-1.04,1.84-1.6,.38-.36,.39-1.05,0-1.41-5.85-5.51-11.3-11.44-16.24-17.78-2.48-3.17-4.73-6.36-4.91-10.53-.17-4.15,.9-8.39,1.88-12.4,1.96-8.06,4.98-15.66,7.96-23.37,1.36-3.52,2.32-7.35,1.06-11.04-1.09-3.19-3.22-6.03-5.15-8.81l21.27-51.19c.87-2.1,1.81-4.19,2.61-6.32,.66-1.77,.99-3.67,.2-5.45-.77-1.72-2.29-3-3.58-4.32-1.48-1.52-2.93-3.07-4.35-4.65-5.67-6.31-10.83-13.07-15.42-20.2-1.27-1.97-2.58-4.01-3.12-6.32-.52-2.21,.09-4.15,1.44-5.91,2-2.6,4.8-4.76,4.93-8.3,.03-.91-1.09-1.26-1.71-.71-1,.9-2.11,1.58-3.3,2.11,2.26-4.12,4.51-8.24,6.77-12.37,.21-.39,.14-.76-.07-1.04,0-.03,0-.07,0-.1-.02-.14-.03-.28-.06-.42-.03-.13-.09-.26-.15-.38-.02-.05-.05-.1-.08-.15-.07-.12-.16-.23-.25-.33-.04-.04-.08-.08-.13-.12-.09-.1-.2-.17-.32-.21-.12-.06-.25-.09-.39-.09-.07,0-.13,.03-.2,.04-.31-.1-.66-.08-.97,.18-6.11,5.07-12.46,10.5-15.12,18.25-2.71,7.9,.35,15.6,4.59,22.31,4.53,7.18,9.85,13.88,15.63,20.09,1.53,1.64,2.86,3.23,2.34,5.62-.46,2.12-1.74,4.12-2.73,6.03-2.04,3.95-4.16,7.85-6.36,11.71-4.69,8.22-9.76,16.22-15.17,24-1.13-1.26-2.27-2.5-3.48-3.7-.07-.07-.15-.11-.23-.15,.75-.44,1.48-.9,2.17-1.38,3.08-2.16,5.81-5.11,6.9-8.78,.95-3.19,.65-6.93-1.16-9.77-.94-1.48-2.2-2.39-3.62-3.36-.93-.63-1.4-1.46-1.69-2.38,.03-.04,.07-.07,.09-.11,2.27-3.22,4.33-6.69,3.42-10.78-.45-2.02-1.47-3.84-2.2-5.75-.79-2.05-1.13-4.2-1.53-6.35-.73-3.84-2.14-7.6-5.23-10.16-2.81-2.33-6.79-3.38-10.29-2.08-3.02,1.12-5.21,3.54-7.66,5.52-1.28,1.03-2.73,1.99-4.37,2.32-1.98,.4-4.01-.04-5.99,.46-3.15,.79-5.53,3.19-7.78,5.38-1.19,1.16-2.4,2.34-3.79,3.26-1.54,1.02-3.24,1.51-4.98,2.06-1.9,.6-3.79,1.38-5.08,2.96-1.25,1.53-1.82,3.47-1.89,5.43-.15,3.85,1.65,8.07,5.24,9.81,.56,.27,1.07,0,1.34-.4,.69,2.48,1.23,5,1.54,7.56,.12,1.01,.21,2.03,.27,3.04,.05,.84-.07,1.83,.28,2.62,.29,.66,.86,.99,1.42,1.4,.62,.45,1.16,1,1.64,1.6,1.72,2.14,2.94,4.9,5.62,6.03,1.49,.63,3.15,.6,4.67,.12,.8-.25,1.58-.61,2.31-1.03,.6-.35,1.88-1.66,2.6-1.31,.7,.35,.91,1.96,1.04,2.6,.2,1,.27,2.01,.23,3.03-.08,2.26-.73,4.43-1.86,6.38,0,0,0,.01,0,.02,0,0-.02,0-.03,0-2.31,1.38-4.62,2.76-6.92,4.14-.27,.16-.43,.45-.47,.75-.03,0-.05,0-.09,0-5.34,1.5-9.93,4.61-14.22,8.05-4.88,3.92-9.58,8.08-14.32,12.17-4.92,4.25-9.81,8.54-14.67,12.85-1.95,1.74-4.73,3.53-5.76,6.03-.93,2.26,.33,4.38,2.22,5.65,2.16,1.45,4.88,1.73,7.4,2.01,3.25,.36,6.51,.57,9.77,.65,6.46,.17,12.93-.11,19.38-.49,2.81-.17,5.68-.19,8.46-.66,2.01-.34,4.09-1.12,5.32-2.83,1.57-2.18,1.13-4.94,.24-7.3-.51-1.36-1.14-2.67-1.72-4-.47-1.07-.84-2.59-1.98-3.15-2.23-1.09-4.39,1.39-5.29,3.12-1.05,2.02-1.5,4.82-3.49,6.18-1.31,.9-3.01,.98-4.55,1.03-1.77,.06-3.55,.03-5.32-.06-3.08-.16-6.13-.55-9.15-1.14,6.55-5.04,13.48-9.59,20.71-13.6,1.83-1.02,3.95-2.42,6.13-2.39,2.21,.03,3.6,1.83,4.83,3.44,2.33,3.06,4.27,6.4,5.86,9.9-.19,.13-.33,.31-.39,.52-.73,.55-.15,1.71,.73,1.7,1.34,2.13,2.57,4.33,3.67,6.59,1.24,2.55,2.75,5.44,2.54,8.36-.19,2.77-2.31,4.83-4.16,6.68-1.9,1.9-3.88,3.71-5.94,5.43-4.29,3.59-8.91,6.68-13.72,9.5-2.3,1.35-4.61,2.67-6.84,4.14-1.99,1.31-4.49,2.78-5.9,4.75-.53,.74-.88,1.66-.65,2.58,.12,.45,.36,.82,.66,1.14-.53,.39-1.02,.82-1.48,1.29-14.06,13.16-28.4,26.02-43.02,38.56-.68,.58-.12,1.71,.71,1.71,.46,0,.92,0,1.38,0-11.23,13.36-25.51,24.02-41.5,31-4.72,2.06-9.58,3.77-14.54,5.15-.66,.18-1.06,1.19-.44,1.67,.67,.53,1.35,1.06,2.02,1.59-.26,.1-.52,.19-.79,.25-.11,.03-.22,.09-.32,.16-.04,0-.06,0-.1,.01-8.9,3.16-16.05,10.04-19.59,18.79-.26,.65,.39,1.22,.96,1.27,18.54,1.38,29.99,18.6,43.3,29.3,6.88,5.53,14.63,9.29,23.29,11.09,8.84,1.83,17.93,1.9,26.92,1.68,10.02-.25,20.02-.6,30.04-.58,10.43,.02,20.85,.3,31.26,.84s20.81,1.32,31.18,2.37c9.86,.99,19.68,2.32,29.52,3.49,18.95,2.25,38.52,3.83,57.25-.88,2.31-.58,4.59-1.26,6.84-2.03,.71-.24,.98-1.1,.44-1.67-4.98-5.24-9.96-10.48-14.94-15.71Zm-5.72-29.26c.63,.98,1.28,1.94,1.96,2.88,.34,.48,.75,.93,1.06,1.43,.49,.8-.19,.96-.84,1.33l-7.74,4.35c-.15,.08-.25,.18-.33,.29-5.67,1.81-11.64,2.32-17.59,2.32-6.42,0-12.84-.46-19.22-1.17-12.84-1.42-25.53-4.04-38.04-7.26-25.03-6.45-49.34-15.31-74.11-22.62-13.09-3.86-26.33-7.26-39.78-9.65,19.21-9.44,41.58-8.3,62.37-6.35,12.33,1.16,24.67,2.6,37.07,2.32,11.77-.27,23.26-2.55,34.67-5.33,11.38-2.78,22.73-5.91,34.36-7.36,.24,.48,.48,.95,.72,1.43,.11,.22,.37,.4,.6,.46,.02,0,.05,0,.07,0,11.83,11.98,15.82,29.04,24.76,42.92ZM192.57,88.29c2.2-3.77,4.33-7.58,6.38-11.43,1.02-1.93,2.03-3.86,3.01-5.81,.88-1.74,1.82-3.59,1.87-5.58,.04-1.85-.82-3.41-1.98-4.79-1.33-1.59-2.82-3.06-4.19-4.62-2.88-3.29-5.6-6.71-8.15-10.26-4.62-6.43-10.15-14.06-9.43-22.41,.79-9.05,8.09-15.52,14.67-21,0,.02,.01,.04,.02,.06-2.56,4.67-5.11,9.35-7.67,14.02-.43,.78,.28,1.67,1.13,1.47,1.48-.34,2.84-.92,4.12-1.67-1.02,1.84-2.86,3.37-4.04,4.98-2.17,2.96-2.15,6.31-.72,9.6,1.63,3.75,4.25,7.19,6.6,10.51,2.42,3.41,4.97,6.72,7.64,9.93,2.67,3.21,5.46,6.31,8.36,9.29,1.37,1.41,3.45,2.96,3.47,5.11,.02,2.06-1.2,4.18-1.98,6.04-3.54,8.52-7.08,17.04-10.63,25.57-3.77,9.06-7.53,18.13-11.3,27.19-3.43-5.06-6.99-10.06-10.97-14.7,4.87-6.98,9.48-14.15,13.78-21.5Zm-15.72-5.57c1.34,.92,2.5,1.72,3.32,3.17,.71,1.27,1.08,2.72,1.14,4.17,.31,7.03-6.25,12.18-12.3,14.3-3.41,1.2-6.88,1.25-9.51-1.52-1.9-2.01-3.35-4.56-6.09-5.54-1.38-.49-3.77-.34-3.76-2.25,.01-2.16,.31-4.4,.56-6.54,.46-3.95,1.89-8.69,6.25-9.8,.37-.09,.57-.33,.65-.61,2.94-1.24,5.26-3.51,8.07-5.03,2.91-1.58,7.26-1.83,8.35,2.04,.8,2.88,.59,5.72,3.31,7.6Zm-52.17-10.1c-.26-.11-.48-.09-.67-.01-.04,0-.07-.01-.11,0-.13,0-.26,.05-.37,.12-.07,.05-.13,.1-.2,.16-.12,.12-.21,.27-.26,.44l-.04,.27c0,.18,.05,.35,.14,.5,.06,.12,.12,.24,.18,.37,.04,.07,.1,.12,.16,.18-.06,.13-.1,.27-.1,.41v.18c0,.14,.02,.27,.09,.39,.04,.12,.11,.23,.21,.32,.09,.1,.2,.17,.32,.21,.09,.04,.18,.05,.28,.06,.33,.9,.64,1.81,.92,2.73-3.06-1.52-4.44-5.14-4.17-8.43,.14-1.68,.78-3.38,2.11-4.47,1.32-1.09,3.06-1.5,4.67-2,2.89-.91,5.18-2.43,7.37-4.49,2.09-1.97,4.1-4.35,6.82-5.47,1.67-.69,3.39-.52,5.15-.59,1.45-.05,2.81-.37,4.11-1.01,2.59-1.26,4.55-3.48,6.79-5.23,2.71-2.12,5.92-3.03,9.21-1.59,3.34,1.46,5.43,4.74,6.35,8.16,.57,2.13,.8,4.33,1.34,6.47,.5,1.99,1.39,3.79,2.16,5.68,.81,2,1.27,4.01,.64,6.13-.42,1.42-1.17,2.71-2,3.95-.31-1.78-.85-3.5-2.31-4.68-1.47-1.18-3.46-1.58-5.3-1.36-5.09,.59-8.22,5.38-13.02,6.7-.36,.1-.56,.34-.65,.62-2.99,1.39-4.86,4.44-5.67,7.62-.52,2.06-.69,4.21-.86,6.32-1.53,.95-3.37,1.15-5.08,.58-.77-.26-1.78-.74-2.27-1.43-.41-.58-.3-.65,.32-.82,.32-.09,.64-.19,.95-.32,3.2-1.3,5.28-4.8,4.75-8.24-.68-4.4-4.95-5.61-8.77-6.15-4.43-.63-9-.51-13.2-2.25Zm21.68,41.48c.17-.1,.28-.24,.35-.38,.15-.08,.29-.19,.4-.37,1.84-3.2,2.52-6.91,1.9-10.55-.24-1.43-.64-3.24-1.92-4.11-1.53-1.04-2.92,.05-4.21,.89-1.59,1.04-3.65,1.9-5.55,1.2-1.45-.54-2.42-1.87-3.27-3.08-.85-1.22-1.66-2.51-2.74-3.55-.51-.49-1.33-.89-1.66-1.5-.48-.9-.27-2.38-.36-3.39-.44-4.81-1.52-9.53-3.22-14.04,2.77,.8,5.67,1.03,8.54,1.29,3.07,.28,8.42,.36,9.78,3.79,1.18,2.99-.84,6.45-3.83,7.31-1.1,.32-2.35,.71-2.39,2.09-.04,1.32,1.22,2.43,2.21,3.11,2.13,1.45,4.92,1.7,7.3,.79-.15,1.31-.16,2.67,.56,3.65,.94,1.27,2.62,1.41,4.03,1.8,1.72,.48,2.87,1.72,3.98,3.05,1.04,1.25,2.04,2.56,3.37,3.53,1.54,1.12,3.43,1.61,5.32,1.57,.51-.01,1.01-.05,1.52-.12,.02,.04,.02,.08,.04,.12,3.73,6.4,6.93,13.09,9.51,20.03,2.22,5.96,4.62,12.55,3.96,19.01-7.34-14.18-18.16-27.58-34.2-31.79l.59-.35Zm-1.72,29.14c-1.77-2.51-3.82-5.61-7.18-5.83-3.54-.24-7.05,2.33-9.97,4.02-3.34,1.93-6.62,3.97-9.83,6.13-3.59,2.42-7.09,4.98-10.49,7.67-.59,.47-.24,1.52,.44,1.67,5.58,1.26,11.33,1.88,17.06,1.7,2.18-.07,4.48-.32,6.2-1.79,1.41-1.2,2.1-2.97,2.78-4.64,.34-.84,2.24-5.34,3.67-3.81,.39,.42,.6,1.34,.83,1.85,.29,.66,.58,1.32,.88,1.98,.54,1.23,1.09,2.48,1.36,3.81,1.19,6.04-6.29,5.83-10.25,6.07-5.8,.36-11.6,.68-17.42,.69-5.66,.01-11.66,.03-17.22-1.15-1.89-.4-5.66-1.71-4.78-4.33,.36-1.06,1.29-1.87,2.1-2.6,1.08-.98,2.18-1.95,3.28-2.92,4.38-3.88,8.77-7.74,13.2-11.58,4.8-4.16,9.59-8.33,14.48-12.37,4.39-3.63,9.09-7.04,14.64-8.61,.37-.1,.56-.35,.65-.63,6.69,3.51,12.98,8.6,15.37,16.04,1.99,6.21,.46,13.49-4.87,17.31-1.37-3.03-3-5.94-4.92-8.66Zm-25.14,58.13c.4-.49,.91-.89,1.39-1.29,4.13-3.36,8.91-5.78,13.44-8.55,4.46-2.73,8.69-5.83,12.63-9.27,2.16-1.88,4.29-3.84,6.21-5.96,1.75-1.93,3.12-4.16,3.13-6.84,.02-2.93-1.3-5.71-2.52-8.3-1.15-2.43-2.45-4.78-3.87-7.06,6.39-3.9,8.65-12.17,6.69-19.24-2.22-7.98-8.58-13.66-15.62-17.54,.92-.55,1.84-1.1,2.76-1.65,.01,.04,0,.09,.03,.13,.04,.12,.11,.23,.21,.32,.07,.05,.13,.1,.2,.16,.16,.09,.32,.14,.5,.14,.09-.01,.18-.02,.27-.04,.04-.01,.08-.03,.12-.05,16.64,4.28,27.37,18.84,34.51,33.56,.38,.79,1.62,.56,1.83-.24,1.95-7.6-.68-15.41-3.29-22.52-2.61-7.09-5.83-13.94-9.61-20.48,1.29-.35,2.56-.85,3.77-1.45-.03,.26,.04,.53,.28,.77,5.69,5.67,10.46,12.13,14.97,18.76,2.14,3.14,4.61,6.29,6.26,9.73,1.92,4.01,.8,8.04-.76,11.96-3.06,7.68-5.96,15.36-7.87,23.42-.9,3.82-1.86,7.83-1.8,11.78,.06,3.91,1.58,7.18,3.88,10.28,5.1,6.88,10.9,13.26,17.1,19.16-3.53,3.11-7.76,5.28-12.16,6.9-5.04,1.86-10.28,3.21-15.57,4.07-10.64,1.73-22.14,1.82-31.96-3.19-4.86-2.48-9.38-5.66-13.96-8.62-2.52-1.62-5.03-3.24-7.55-4.86-1.1-.71-2.34-1.34-3.36-2.16-.75-.61-.9-1.02-.26-1.82Zm-2.28,5.88s.07-.04,.1-.07c.07-.08,.14-.14,.21-.22,.06-.06,.12-.11,.18-.17,.02-.01,.04-.02,.05-.03,.55-.47,1.1-.94,1.65-1.42,.06,.04,.12,.08,.18,.11,2.52,1.62,5.03,3.24,7.55,4.86,4.86,3.13,9.65,6.46,14.7,9.28,4.72,2.64,9.75,4.33,15.12,5.02,5.52,.71,11.13,.5,16.64-.18,6.23-.77,12.39-2.18,18.3-4.29,3.94-1.4,7.76-3.17,11.16-5.58,5.67,8.64,12.55,16.42,20.45,23.09-14.9,10.13-33.44,12.66-51.12,12.05-10.49-.36-20.91-1.72-31.33-2.98-10.44-1.26-20.89-2.21-31.4-2.63-10.67-.42-21.36-.45-32.04-.44-.15-.05-.31-.05-.47,0-.18,0-.36,0-.54,0,13.78-11.87,27.32-24.01,40.6-36.43Zm-49.73,49.65c3.73-3.49,7.2-7.24,10.43-11.21,20.05,0,40.03,.34,59.97,2.68,19.89,2.33,40.09,5.42,60.01,1.64,8.47-1.61,16.74-4.49,24.11-8.98,.09,.19,.21,.33,.39,.47,.07,.05,.14,.11,.21,.16,.04,.03,.08,.07,.12,.1,.16,.13,.32,.26,.47,.39,.32,.27,.63,.55,.94,.84,.6,.57,1.16,1.19,1.69,1.83,.07,.09,.18,.15,.29,.2,3.5,4.05,7.01,8.09,10.51,12.14-22.93,2.38-44.63,11.62-67.74,12.82-24.01,1.25-47.75-4.68-71.76-3.33-12.12,.68-24.23,3.21-34.94,9.1-.7,.39-.63,1.68,.24,1.83,25.81,4.28,50.72,12.51,75.57,20.49,24.73,7.94,49.68,15.74,75.52,19.1,7.22,.94,14.5,1.54,21.78,1.65,7.26,.11,14.65-.45,21.5-3,3.62,5.2,7.45,10.25,11.47,15.16-16.52,3.64-33.33,5.96-50.25,6.43-17.28,.48-34.48-1.08-51.37-4.78-16.59-3.64-32.81-8.81-49.46-12.17-8.18-1.65-16.45-2.81-24.79-3.24-8.36-.43-16.88-.38-24.99-2.69-7.88-2.24-14.66-6.95-21.06-11.9-6.98-5.4-13.88-10.9-20.82-16.36-1.29-1.01-2.57-2.02-3.86-3.03,17.04-5.09,32.83-14.16,45.81-26.33Zm155.5,95.6c-9.71-1.03-19.38-2.4-29.08-3.49-10.36-1.16-20.75-2.06-31.16-2.71-20.54-1.28-41.12-1.52-61.68-.85-17.97,.59-36.99,1.18-52.33-9.71-14.08-9.99-24.14-26.42-41.61-31.13-1.53-.41-3.08-.7-4.64-.88,3.42-7.52,9.9-13.5,17.7-16.27,.11-.04,.2-.1,.28-.17,.05,0,.09,0,.14,0,.7-.16,1.38-.45,2-.81,5.92,4.65,11.83,9.31,17.75,13.96,6.32,4.97,12.66,10.17,20.01,13.57,7.6,3.52,15.86,4.44,24.14,4.85,8.64,.43,17.18,.88,25.73,2.33,16.91,2.86,33.3,8.01,49.95,12,16.96,4.07,34.16,6.33,51.62,6.31,17.5-.01,34.98-2.04,52.12-5.54,.05,.11,.1,.21,.2,.31,4.81,5.05,9.61,10.11,14.42,15.16-17.94,5.71-37.03,5.04-55.55,3.07Z"/></g></g></svg>
