<svg id="Calque_2" xmlns="http://www.w3.org/2000/svg" viewBox="0 0 423.97 360.55">
<g id="Calque_4"><g>
<path class="cls-1" d="M188.36,144.15c-.22,0-.39-.08-.53-.17-9.24,.55-18.53-.45-27.44-2.93,.02,7.22-1.24,14.97-6.14,20.53-4.71,5.35-12.05,7.03-18.9,6.02-6.59-.97-14.4-4.56-16.84-11.24-2.25-6.17,1.63-13.37,7.38-15.99,3.34-1.52,7.5-1.81,10.73,.16,2.49,1.53,4.23,4.29,4.24,7.22,2.02-.15,3.85-1.26,5.01-2.96,1.43-2.1,1.52-4.72,.73-7.08-1.66-4.99-6.77-7.58-11.64-8.45-4.94-.88-9.44,.39-13.42,3.35-3.65,2.71-6.63,6.26-9.86,9.43-6.8,6.67-14.32,12.63-22.36,17.74-8.26,5.25-17.07,9.17-25.99,13.14-4.47,1.99-8.9,4.09-13.05,6.69-3.41,2.14-7.12,4.76-8.35,8.75,3.52,.78,7.1-.58,10.37-1.9,3.42-1.38,6.76-2.95,10.01-4.7,6.52-3.5,12.65-7.69,18.27-12.5,.97-.83,2.39,.56,1.41,1.41-4.85,4.24-9.83,8.59-13.32,14.08-1.46,2.3-2.89,4.95-3.36,7.66-.26,1.46-.02,3.21,1.59,3.72,1.15,.36,2.43,.04,3.53-.34,2.58-.89,5.03-2.51,7.29-4.01,2.37-1.57,4.61-3.32,6.74-5.2,8.67-7.63,15.43-17.13,21.93-26.6,.73-1.06,2.31-.15,1.73,1.01-3.63,7.13-6.97,14.41-10,21.81-1.5,3.67-2.92,7.37-4.27,11.1-.99,2.74-2.58,6.25-1.23,9.09,2.63-.89,4.69-2.78,6.49-4.87,2.02-2.34,3.82-4.89,5.52-7.48,3.52-5.38,6.44-11.14,8.71-17.16,.45-1.18,2.3-.72,1.93,.53-1.8,6.02-2.78,12.25-2.87,18.54-.04,2.79,.09,5.59,.38,8.37,.16,1.45,.36,2.9,.62,4.34,.21,1.19,.35,2.49,.82,3.61,1.18,2.81,4.32,0,5.45-1.35,1.46-1.74,2.64-3.72,3.56-5.8,3.72-8.42,3.21-18.18,2.68-27.16-.07-1.17,1.64-1.3,1.96-.27,1.35,4.31,3.07,8.48,5.2,12.46,1.04,1.96,2.17,3.88,3.4,5.74,1.11,1.68,2.47,3.63,4.58,4.07,1.96,.4,3.47-.79,3.55-2.75,.06-1.66-.61-3.37-1.37-4.81-2.12-3.99-4.8-7.77-7.49-11.4-.53-.71,.35-1.71,1.13-1.47,4.68,1.46,9.52,2.3,14.42,2.44,4.28,.12,8.56-.27,12.75-1.19,3.04-.67,6.48-1.81,8.44-4.39,2.61-3.44-.41-7.06-2.75-9.67-2.62-2.91-5.65-5.39-9-7.4-.99-.6-.32-2.09,.77-1.83,7.36,1.74,15.19,3.24,22.6,.91,3.11-.98,6.05-2.63,8.29-5.02,1.13-1.21,2.5-2.79,1.17-4.37-1.24-1.47-3.43-1.43-5.18-1.46Z"/>
<path class="cls-1" d="M114.01,32.89c.35-1.59-.4-3.21-1.55-4.28-.68-.63-1.41-.91-2.26-1.22-.74-.27-1.28-.79-1.34-1.61-.06-.72,.2-1.52,.44-2.26-2.95,4.04-3.77,9.25-2.16,14.01,.13-1.54,.39-3.06,.79-4.57,.2-.74,1.14-.96,1.67-.44,1.16,1.11,3.81,3.11,4.43,.36Z"/>
<path class="cls-1" d="M97.88,27.27c1.45-5.59,3.83-10.76,7.33-15.09-.11,0-.22-.02-.32-.05-.12-.04-.26-.09-.36-.16-.13-.07-.22-.18-.3-.3-.04,0-.07,0-.1-.01-5.19-1.81-10.97-1.49-15.9,.99-3.76,1.9-6.92,4.89-9.05,8.53-2.27,3.88-3.28,8.32-4.06,12.7-.8,4.47-1.36,9.02-2.75,13.36-1.2,3.74-3.22,7.17-4.51,10.87,5.99-2.73,11.29-6.81,15.47-11.91,.4-.49,1.29-.33,1.57,.2,1.07,2,.32,4.14-.36,6.15-.74,2.17-1.62,4.3-2.64,6.35-1.07,2.17-2.34,4.21-3.65,6.24-1.11,1.72-2.15,3.46-2.69,5.42,2.29,.63,4.88-.99,6.78-2.08,2.33-1.33,4.56-2.84,6.66-4.51,.62-.49,1.38-.3,1.67,.44,.53,1.35,.45,2.73,.2,4.13-.25,1.44-.85,3.07-.48,4.53,.63,2.52,5.39-.61,7.47-2.1-3.36-14.32-3.64-29.56,.02-43.7Z"/>
<path class="cls-1" d="M259.17,191.59c-1.14-10.62-5.18-20.72-9.11-30.56-.46-1.14,1.22-1.6,1.83-.77,6.21,8.47,12.39,16.97,18.65,25.41,5.35,7.21,10.77,14.45,16.8,21.13,1.36,1.51,2.8,2.99,4.46,4.17,1.5,1.07,3.53,2.31,5.44,2.26,4-.11,2.27-7.54,1.81-9.72-3.6-17.22-17.14-29.76-26.71-43.76-.58-.85,.54-1.85,1.37-1.37,7.63,4.43,15.25,8.86,22.88,13.29,3.45,2.01,6.91,4.01,10.36,6.02,1.66,.96,3.3,1.99,4.99,2.88,1.2,.63,2.9,1.45,4.27,.91,2.93-1.15,.99-6.27,.32-8.29-.91-2.77-2.16-5.41-3.65-7.91-6.33-10.58-16.62-18.22-26.77-24.84-.74-.48-.56-2.01,.5-1.86,6.82,.91,13.7,1.24,20.58,1.01,.01-.95-1.58-1.96-2.18-2.4-1.13-.83-2.28-1.63-3.45-2.4-2.4-1.59-4.87-3.07-7.4-4.45-.83-.45-.5-1.97,.5-1.86,6.21,.66,12.34,1.93,18.28,3.88,2.93,.96,5.78,2.12,8.61,3.34,2.74,1.18,5.68,2.37,8.71,2.18-.21-2.3-1.89-4.13-3.55-5.68-1.93-1.8-3.98-3.48-6.11-5.05-4.24-3.11-8.81-5.73-13.62-7.86-.89-.4-.46-1.96,.5-1.86,16.34,1.63,30.45,10.52,45.46,16.38,.4-1.4-.58-2.96-1.39-4.1-1.11-1.57-2.34-3.06-3.61-4.5-2.6-2.95-5.49-5.64-8.6-8.04-1-.77-.17-2.34,1.01-1.73l32.02,16.66c1.79,.93,3.74,1.94,5.8,1.95,2.2,0,3.48-1.67,3.24-3.79-.23-2.03-1.39-3.82-2.57-5.44-1.26-1.71-2.7-3.29-4.24-4.75-6.21-5.88-14.14-9.65-22.1-12.55-19.04-6.92-39.33-9.8-59.52-9.98-.24,0-.42-.09-.57-.2-.03,0-.06,0-.09,0-.34,.02-.68,.04-1.02,.08-.03,0-.05,0-.08,0-.09,0-.18,.03-.26,.04-.17,.03-.35,.06-.52,.1-.23,.05-.44,.01-.63-.06-.35,.33-.89,.42-1.3-.05-9.55-11.24-20.76-21.01-33.22-28.89-23.13-14.64-52.15-24.5-79.64-18.79-12.34,2.57-24.18,8.24-33.2,17.14-.66,.65-1.31,1.32-1.94,2.01-.43,.47-.7,.89-1.38,.87-1.38-.04-2.97-.69-4.27-1.11-2.8-.9-5.51-2.1-8.06-3.56-5.35-3.06-9.96-7.27-13.53-12.29-.06-.09-.1-.17-.13-.26-.05-.04-.11-.07-.16-.11-.15-.09-.27-.21-.36-.36-.03-.08-.07-.16-.1-.24,0-.02,0-.03,0-.05-.64-.3-.94-1.31-.15-1.78,6.22-3.67,10.19-10.52,10.79-17.67,.29-3.51-.19-7.09-1.6-10.32-1.87-4.27-5.02-7.81-8.08-11.26-.69-.78,0-1.84,.97-1.67,3.58,.6,6.99,1.89,10.09,3.77,2.66-4.04,5.87-7.64,9.57-10.74-8.37-.85-17.03,1.92-23.47,7.33-7.16,6.01-10.36,14.73-11.95,23.7-1.55,8.79-1.74,17.82-.72,26.68,.42,3.62,1.05,7.21,1.88,10.76,.17,.24,.26,.56,.21,.87,3.3,13.54,9.53,26.39,18.32,37.2,.32,.39,.28,.84,.09,1.19,1.38,.19,2.55,2.35,.91,3.56-1.21,.89-2.83,.52-4.22,.56-1.94,.06-3.86,.54-5.64,1.28-7.29,3.02-11.87,9.82-16.59,15.78-15.53,19.62-38.39,31.89-62.43,37.77-5.97,1.46-12.03,2.53-18.14,3.26-1.6,.19-3.2,.33-4.81,.5-1.31,.14-2.77,.33-3.92,1.03-3.13,1.9-.9,6.34,.28,8.81,5.08,10.6,15.42,18.27,27.04,20.02,.51,.08,.87,.76,.7,1.23-1.89,5.21-1.2,10.95,1.34,15.82,5.02,9.63,15.84,13.67,26.26,12.99,11.52-.74,21.8-7.05,30.5-14.2,.59-.48,1.81-.25,1.71,.71-.65,5.89-1.07,13.94,5.68,16.47,3.04,1.14,6.5,.9,9.64,.32,3.37-.63,6.68-1.62,9.91-2.75,12.19-4.3,23.17-11.52,33.19-19.58,10.37-8.34,20.09-17.56,29.35-27.12,9.6-9.9,18.66-20.33,27.11-31.23,2.14-2.76,4.21-5.57,6.31-8.36,1.66-2.22,3.44-4.44,5.84-5.9,3.86-2.35,10.08-1.76,11.65,3.09,.04,.12,.04,.23,.04,.33,4.89,9.25,7.69,19.4,9.18,29.72,1.39,9.58,1.76,19.26,1.88,28.93,.06,5.09-.23,10.38,1.17,15.33,.64,2.28,1.64,4.98,4.52,4.45,1.16-.21,2.21-.78,3.16-1.5,.07-.08,.16-.15,.26-.21,.78-.63,1.49-1.35,2.13-2.05,6.57-7.25,7.74-18.01,6.74-27.34ZM109.05,41.38c.06,1.01-1.14,1.21-1.71,.64-.21-.06-.4-.19-.55-.42-4.41-7.32-2.84-16.91,3.77-22.35,.74-.61,1.94-.05,1.67,.97-.36,1.39-.72,2.77-1.08,4.16-.04,.17-.34,.82-.26,.99,.12,.26,.44,.28,.68,.37,.45,.17,.88,.39,1.28,.65,1.59,1.05,2.8,2.74,3.14,4.64,.34,1.91-.22,4.34-2.24,5.06-1.58,.57-3.03-.07-4.27-1.01-.41,2.07-.56,4.17-.43,6.29Zm86.94,106.7c-.48,1.7-2.01,3.22-3.3,4.37-1.49,1.33-3.17,2.42-4.98,3.26-6.91,3.23-14.48,2.78-21.78,1.38,2.58,2.01,4.92,4.32,6.94,6.9,2.36,3.02,3.76,6.73,1.24,10.11-2.12,2.85-5.75,4.33-9.12,5.11-8.51,1.96-17.44,1.79-25.88-.36,2.3,3.13,4.57,6.42,6.19,9.89,1.15,2.45,2.11,5.87,.21,8.22-2.23,2.76-6.18,1.75-8.42-.41-1.4-1.34-2.43-3.08-3.44-4.72-1.09-1.77-2.1-3.58-3.04-5.43-.88-1.74-1.68-3.51-2.42-5.32,.1,3.8,.01,7.6-.48,11.37-.64,4.87-2,9.72-4.69,13.87-1.3,2.01-2.89,4.17-5.12,5.21-2.13,.99-4.46,.5-5.47-1.76-.55-1.23-.72-2.66-.96-3.98-.26-1.46-.47-2.94-.64-4.41-.35-3.08-.49-6.19-.43-9.3,.06-2.93,.32-5.85,.75-8.74-1.58,3.11-3.34,6.13-5.29,9.04-3.31,4.94-7.31,11.2-13.45,12.76-.45,.11-.87-.08-1.13-.46-1.98-2.88-1.06-6.48,0-9.53,1.41-4.04,2.95-8.04,4.55-12.01,1.69-4.18,3.49-8.32,5.37-12.42-1.88,2.53-3.8,5.02-5.83,7.43-4.11,4.88-8.62,9.43-13.72,13.27-2.45,1.84-5.03,3.51-7.74,4.94-2.31,1.22-5.21,2.56-7.85,1.58-6.19-2.3-.94-11.53,1.31-14.88,.83-1.24,1.73-2.42,2.68-3.56-2.44,1.56-4.95,3.02-7.52,4.37-3.48,1.83-7.07,3.47-10.73,4.89-3.61,1.4-7.56,2.53-11.37,1.24-.55-.18-.81-.68-.7-1.23,1.04-5.35,5.92-8.73,10.27-11.38,5.21-3.16,10.81-5.58,16.38-8.02,9.77-4.27,19.13-9.13,27.82-15.33,4.34-3.09,8.48-6.44,12.42-10.02,3.73-3.4,7.08-7.2,10.8-10.61,3.45-3.17,7.45-5.85,12.21-6.37,4.88-.54,10.4,.83,14.31,3.85,3.52,2.71,5.78,7.17,4.94,11.66-.79,4.18-4.79,7.6-9.11,7.19-.48-.05-1.08-.43-1-1,.49-3.64-2.23-6.76-5.72-7.45-3.63-.72-7.46,.86-9.95,3.5-1.85,1.96-3.1,4.59-3.24,7.3-.16,3.09,1.24,5.84,3.44,7.94,4.41,4.21,11.18,6.17,17.18,5.84,6.06-.34,11.43-3.39,14.44-8.71,2.96-5.23,3.55-11.51,3.42-17.42-.01-.64,.65-1.15,1.27-.96,9.5,2.81,19.41,3.88,29.29,3.16,.33-.02,.57,.09,.73,.27,1.63,.08,3.26,.35,4.58,1.36,1.38,1.05,2.25,2.8,1.76,4.54Z"/>
<path class="cls-1" d="M262.84,281.49c-.06,.11-.11,.22-.17,.32,.35,.26,.73,.46,1.15,.56,1.92,.45,3.4-1.57,4.24-2.99,2.17-3.63,3.74-7.72,5.08-11.72,5.4-16.16,5.65-33.53,4.43-50.36-.08-1.15,1.69-1.33,1.96-.27,1.71,6.52,3.41,13.03,5.12,19.55,1.42,5.42,2.67,10.92,4.46,16.22,.86,2.55,1.83,5.19,3.26,7.48,.65,1.04,1.61,1.86,2.87,1.31,.98-.43,1.75-1.39,2.31-2.27,1.43-2.21,2.32-4.87,3.2-7.34,.9-2.51,1.67-5.06,2.3-7.65,1.32-5.4,2.02-10.91,2.13-16.46,.02-.96,1.38-1.4,1.86-.5,2.91,5.33,5.65,10.8,8.75,16.03,.49,.83,1.14,1.87,2.14,2.12,1.08,.28,1.97-.59,2.54-1.39,1.35-1.9,1.97-4.44,2.41-6.69,.97-5.02,.7-10.29,.27-15.36-.93-10.8-3.5-21.37-6.05-31.88-.26-1.07,1.31-1.81,1.83-.77,2.27,4.52,4.6,9.02,6.99,13.48,4.18,7.79,8.55,15.47,13.12,23.03,3.23,5.36,7.3,13.65,14.44,14.14,3.61-4.18,2.48-10.48,1.13-15.37-6.39-23.09-18.97-43.85-31.23-64.21-.63-1.04,.74-1.88,1.57-1.21,4.16,3.35,8,7.07,11.6,11.02,6.38,7,12.03,14.62,17.88,22.06,2.93,3.72,5.9,7.41,9.05,10.95,2.92,3.29,6.14,6.54,10.24,8.29,1.51-4.13,0-8.75-1.69-12.62-6.72-15.28-17.31-28.53-27.59-41.53-.78-.98,.53-2.39,1.41-1.41,6.28,6.88,12.57,13.76,18.85,20.64,5.27,5.77,10.35,11.84,15.98,17.27,1.41,1.36,2.9,2.67,4.51,3.79,1.25,.87,3.23,2.12,4.36,.43,.74-1.12,.75-2.67,.67-3.96-.11-1.75-.36-3.5-.69-5.22-2.67-14.1-11-26.29-18.97-37.9-.74-1.08,.97-2.01,1.73-1.01l21.68,28.72c3.21,4.25,6.42,8.51,9.63,12.76,2.57,3.4,5.16,7.42,9.1,9.35,1.06,.52,2.51,1.11,3.69,.71,.91-.31,1.29-1.18,1.45-2.07,.4-2.16-.18-4.62-.69-6.71-1.12-4.63-3.09-9.04-5.16-13.32-7.8-16.1-19.04-30.42-32.78-41.87-.11-.09-.18-.19-.23-.29-.41-.29-.83-.57-1.24-.86-.15-.09-.27-.21-.36-.36l-.06-.15c-2.48-.29-5.06-1.73-7.05-2.77-7.87-4.09-15.74-8.19-23.61-12.28,1.33,1.32,2.62,2.69,3.83,4.13,2.11,2.52,6.39,7.01,3.83,10.48-.25,.34-.69,.63-1.13,.46-13.13-5.02-25.61-12.64-39.43-15.61,3.22,1.78,6.31,3.79,9.23,6.04,2.24,1.72,4.52,3.53,6.43,5.62,1.69,1.85,3.06,4.1,2.85,6.7-.03,.4-.28,.9-.73,.96-3.17,.44-6.13-.33-9.06-1.51-2.92-1.18-5.78-2.47-8.75-3.5-4.62-1.6-9.37-2.8-14.19-3.6,1.82,1.11,3.61,2.28,5.35,3.51,1.68,1.19,5.73,3.68,3.97,6.3-.49,.73-1.11,.63-1.92,.66-.97,.03-1.94,.05-2.91,.06-1.94,.02-3.88,0-5.82-.08-2.54-.1-5.08-.29-7.61-.54,5.08,3.46,9.99,7.17,14.41,11.44,4.68,4.51,8.85,9.68,11.62,15.59,1.69,3.6,6.42,14.58-.7,15.52-3.39,.45-6.81-2.33-9.56-3.92-3.74-2.17-7.48-4.35-11.22-6.52-6.15-3.57-12.3-7.15-18.45-10.72,5.49,7.47,11.63,14.47,16.53,22.35,4.43,7.11,8.43,15.62,8.53,24.17,.04,3.52-1.78,6.91-5.79,6.15-3.98-.76-7.27-3.84-9.9-6.73-6.47-7.12-12.24-14.91-17.95-22.64-4.47-6.04-8.91-12.11-13.34-18.17,3.6,9.45,6.66,19.23,6.73,29.39,.06,8.95-2.39,19.5-9.7,25.39-.33,10.49,.1,21,1.33,31.42,.98,8.34,2.36,17.01,6.73,24.33,.4,.66,.86,1.49,1.41,2.24,.69-.83,2.18,.1,1.6,1.16Z"/>
<path class="cls-1" d="M421,228.17c-2.18-9.71-6.58-18.88-12.81-26.64-.36-.44-.27-.97,0-1.33-2.44-2.21-4.37-5.03-6.32-7.61-3.51-4.65-7.02-9.31-10.54-13.96l-6.79-9c.51,.98,1.01,1.97,1.49,2.97,3.23,6.73,5.62,13.94,6.17,21.42,.18,2.42-.19,5.83-2.85,6.81-1.7,.62-3.39-.14-4.81-1.08-1.59-1.06-3.08-2.3-4.48-3.6-2.97-2.75-5.64-5.83-8.36-8.81-3.03-3.32-6.06-6.63-9.09-9.95-.98-1.07-1.96-2.14-2.93-3.21,3.67,5.15,7.14,10.45,10.18,16.01,2.04,3.74,4.08,7.62,5.4,11.68,1.23,3.81,1.61,7.86-.14,11.58-.18,.37-.75,.6-1.13,.46-5.05-1.86-8.85-5.66-12.33-9.62-11.35-12.89-20.67-27.67-33.3-39.38,5.16,8.6,10.23,17.26,14.81,26.19,4.85,9.47,9.15,19.27,12.31,29.44,1.36,4.37,2.74,8.99,2.37,13.63-.16,2.03-.67,4.06-1.75,5.8-.42,.68-1.1,1.87-1.91,2.12-.77,.24-2.03-.1-2.78-.29-4.06-1.02-7.09-4.3-9.46-7.56-3.09-4.26-5.65-8.97-8.3-13.51-4.41-7.54-8.62-15.19-12.65-22.94,.91,3.94,1.78,7.89,2.49,11.87,1.05,5.84,1.82,11.75,2.01,17.69,.18,5.52-.12,11.3-2.48,16.38-.82,1.76-2.24,3.64-4.33,3.82-2.12,.18-3.6-1.49-4.59-3.15-2.49-4.19-4.75-8.55-7.05-12.87-.37,5.55-1.31,11.07-2.86,16.42-.85,2.93-1.87,5.8-3.06,8.6-.96,2.27-1.96,4.68-4,6.21-1.8,1.36-4.11,1.34-5.67-.39-1.76-1.96-2.75-4.9-3.65-7.33-2.19-5.89-3.54-12.1-5.13-18.18-.86-3.3-1.73-6.6-2.59-9.89,.22,7.16,.06,14.33-.76,21.45-1.02,8.88-3.04,17.63-6.56,25.86-.86,2.01-1.76,4.04-2.86,5.93-.9,1.55-2.12,3.12-3.82,3.84-1.65,.69-3.08,.33-4.31-.52-3.6,6.92-6.47,14.21-8.51,21.75-1.11,4.1-2.07,8.29-2.61,12.51-.39,3.07-.48,6.66,1.7,9.05,3.64-1.36,6.72-3.77,9.4-6.55,5.28-5.49,9.67-12.02,13.64-18.5,4.09-6.67,7.64-13.66,10.6-20.9,.47-1.16,2.35-.71,1.93,.53-3.55,10.51-6.73,21.15-9.49,31.89-2.43,9.46-4.84,19.06-6.32,28.73-.66,4.28-1.31,9.61,.69,13.64,.84,1.7,2.32,3.02,4.31,2.94,2.22-.08,4.17-1.74,5.64-3.25,2.97-3.06,5.45-6.76,7.7-10.37,2.26-3.62,4.25-7.41,5.95-11.32,3.47-7.98,5.7-16.52,6.59-25.17,.11-1.03,1.77-1.46,1.96-.27,1.31,8.19,2.55,16.85,6.43,24.3,1.41,2.69,3.59,5.67,6.64,6.58,3.29,.98,5.98-1.29,7.61-3.94,3.73-6.07,4.7-13.86,4.87-20.84,.39-16.12-3.07-32.14-6.3-47.84-.21-1.04,1.36-1.86,1.83-.77,3.66,8.55,7.61,16.98,11.86,25.25,2.14,4.17,4.36,8.31,6.66,12.39,1.55,2.77,3.56,6.39,6.92,7.13,9.17-17.73,3.11-38.27-2.42-56.13-.33-1.08,1.31-1.78,1.83-.77,6.1,12.01,12.21,24.03,19.08,35.63,3,5.06,6.1,10.1,9.52,14.89,3.1,4.35,7.1,9.34,12.41,10.99,5.02,1.56,8.93-1.52,11.02-5.88,2.2-4.58,2.61-10,2.57-15-.17-23.92-14.76-44.19-25.24-64.65-.59-1.14,1.04-2.11,1.73-1.01,5.07,8.1,10.15,16.22,15.83,23.91,2.56,3.46,5.25,6.84,8.1,10.06,1.38,1.56,2.8,3.09,4.26,4.58,1.34,1.37,2.82,2.77,4.7,3.33,4.7,1.38,3.38-5.86,3.1-8.39-.44-4-1.25-7.96-2.34-11.83-4.37-15.58-13.18-29.57-23.14-42.16-.79-1,.61-2.42,1.41-1.41,3.96,4.99,7.96,9.94,12.03,14.84,3.51,4.23,6.95,8.61,10.69,12.63,1.08,1.16,4.59,3.99,5.34,1.04,.29-1.15-.09-2.53-.28-3.67-.19-1.11-.41-2.21-.65-3.31Z"/><g>
<path d="M419.23,216.18c-2.06-4.85-4.68-9.42-7.79-13.66,1.71,.92,3.86,1.67,5.72,.97,1.82-.68,2.57-2.52,2.73-4.32,.21-2.26-.29-4.66-.81-6.84-.6-2.5-1.47-4.93-2.45-7.3-3.66-8.88-8.41-17.32-14.01-25.11-6.22-8.66-13.5-16.52-21.67-23.37-.05-.14-.11-.27-.23-.36-.19-.16-.37-.31-.56-.46,.51-.19,1-.46,1.46-.84,3.48-2.83,1.26-7.84-.84-10.76-5.31-7.4-13.2-12.41-21.44-16.01-9.51-4.16-19.64-7-29.8-9-11.41-2.25-23.02-3.34-34.63-3.54-.15-.09-.32-.17-.52-.18-1.5-.14-3.02-.05-4.5,.25-.09,.02-.16,.07-.23,.11-14.28-16.72-32.31-30.19-52.42-39.08-21.38-9.45-45.94-14.1-68.76-7.14-11.21,3.42-21.63,9.5-29.58,18.17-9.52-2.17-18.09-7.77-23.8-15.7,0-.07-.01-.15-.03-.22-.03-.08-.07-.16-.1-.24-.09-.15-.21-.27-.36-.36-.05-.04-.1-.07-.16-.11,9.85-6.61,13.67-20.54,8.24-31.19-1.52-2.98-3.59-5.61-5.76-8.14,2.6,.75,5.07,1.87,7.36,3.37,.46,.3,1.09,.08,1.37-.36,3.01-4.77,6.84-8.99,11.33-12.41,.6-.46,.71-1.66-.24-1.83-8.28-1.47-16.93,.37-23.99,4.91-2.24,1.44-4.22,3.12-5.97,4.98-.02-.05-.02-.1-.05-.14-.06-.12-.15-.21-.26-.28-.1-.09-.21-.15-.34-.18-.09-.01-.18-.02-.27-.04-.18,0-.35,.05-.5,.14-.07,.05-.13,.1-.2,.16-.02,.02-.03,.04-.05,.06-.11-.16-.26-.29-.48-.37-9.08-3.16-19.25,.07-25.19,7.53-6.09,7.64-6.01,17.56-8.23,26.63-.66,2.7-1.63,5.25-2.79,7.77-1.2,2.59-2.43,5.17-3.13,7.95-.17,.67,.49,1.53,1.23,1.23,6.49-2.58,12.28-6.59,16.93-11.78-.1,1.64-1.05,3.55-1.53,4.82-.79,2.05-1.73,4.04-2.79,5.96-2,3.61-4.92,6.91-5.73,11.06-.08,.41,.05,.92,.46,1.13,2.81,1.4,5.72,.2,8.29-1.18,2.39-1.28,4.66-2.77,6.83-4.39,.04,3.02-2.09,6.85,.56,8.97,1.34,1.07,3.1,.6,4.52-.01,1.5-.65,2.93-1.46,4.28-2.37,.87,3.37,1.91,6.69,3.11,9.92,3.66,9.82,8.87,18.99,15.48,27.13,.09,.11,.18,.17,.28,.23-.08,.08-.17,.17-.24,.27-.46,.64,0,1.26,.61,1.41-.35,.03-.7,.02-.91,.02-.79-.02-1.57-.05-2.36,.02-1.57,.14-3.12,.48-4.6,1.01-2.89,1.04-5.5,2.69-7.84,4.66-5.2,4.4-8.84,10.3-13.27,15.41-7.96,9.17-17.73,16.62-28.41,22.35-10.93,5.86-22.77,9.93-34.88,12.47-5.95,1.25-11.92,1.99-17.95,2.65-2.49,.27-5.36,.84-6.69,3.22-1.46,2.61-.18,5.78,.9,8.28,4.88,11.35,15.68,19.88,27.82,22.08-2.94,9.78,2.25,20.59,10.71,25.88,10.14,6.34,23.05,5.36,33.64,.77,5.6-2.43,10.71-5.81,15.49-9.58-.38,4.69-.21,9.79,3.12,13.38,3.78,4.08,9.89,4.02,14.95,3.08,12.44-2.32,24.13-8.52,34.43-15.68,10.78-7.49,20.61-16.35,30.05-25.46,9.92-9.58,19.32-19.71,28.13-30.31,4.88-5.87,9.55-11.9,14.09-18.04,1.91-2.59,4.2-5.67,7.48-6.55,2.24-.6,5.21-.02,6.39,2.1-.03,.2-.02,.4,.1,.62,10.06,18.42,11.07,39.95,11.26,60.48,.05,5.28-.1,10.82,1.86,15.83,.76,1.94,2,3.66,4.18,4.01,1.54,.25,3.11-.21,4.49-.96-.24,9.61,.16,19.24,1.23,28.79,.99,8.82,2.3,17.97,6.72,25.82,.67,1.18,1.51,2.62,2.55,3.8-3.99,7.59-7.12,15.62-9.27,23.92-1.08,4.18-2.07,8.51-2.45,12.82-.31,3.5,.1,7.36,2.86,9.83,.26,.23,.63,.37,.97,.26,7.15-2.42,12.12-8.34,16.54-14.16,4.66-6.14,8.82-12.65,12.46-19.44-1.62,5.39-3.15,10.8-4.57,16.25-1.34,5.13-2.58,10.29-3.73,15.47-1.17,5.24-2.39,10.52-3.1,15.85-.58,4.35-.95,9.34,.95,13.44,1.71,3.7,5.54,5.21,9.26,3.43,3.97-1.9,6.74-6.13,9.2-9.61,2.67-3.77,5.03-7.75,7.07-11.89,3.62-7.39,6.17-15.25,7.6-23.33,1.07,5.93,2.45,11.8,4.98,17.3,2.47,5.37,8.56,12.07,14.87,7.72,2.72-1.87,4.25-4.96,5.43-7.94,1.45-3.67,2.28-7.55,2.74-11.46,.99-8.4,.32-17-.73-25.35-.85-6.79-2.06-13.52-3.38-20.23,2.87,6.3,5.88,12.54,9.08,18.68,2.19,4.21,4.35,8.48,6.84,12.52,1.89,3.08,4.37,5.95,8.15,6.39,.33,.04,.71-.22,.86-.5,7.44-13.83,5.86-30.08,2.05-44.74-.26-1.01-.54-2.01-.82-3.01,4.2,8.18,8.5,16.3,13.14,24.24,3.14,5.38,6.41,10.71,9.98,15.82,3.14,4.49,6.87,9.25,11.9,11.72,4.47,2.19,9.49,1.75,12.92-2.04,3.19-3.52,4.41-8.31,4.99-12.9,1.53-12.09-1.37-24.34-5.94-35.49-2.21-5.4-4.82-10.61-7.57-15.75,.66,.93,1.3,1.88,1.98,2.8,2.69,3.67,5.5,7.26,8.5,10.69,1.47,1.68,2.98,3.32,4.55,4.92,1.43,1.46,2.93,2.84,4.83,3.66,1.42,.61,3.11,.88,4.53,.11,1.58-.86,2.21-2.53,2.34-4.24,.16-2.06-.14-4.22-.38-6.26-.24-2.1-.57-4.19-.99-6.26-1.69-8.4-4.81-16.47-8.73-24.06-.83-1.62-1.72-3.2-2.62-4.78,1.05,1.26,2.1,2.52,3.17,3.77,1.84,2.17,3.59,4.7,5.83,6.47,1.56,1.23,3.85,2.35,5.76,1.17,2.13-1.32,1.75-4.06,1.42-6.16-.84-5.36-2.37-10.6-4.48-15.59ZM90.39,73.08c-.36-1.47,.23-3.1,.48-4.53,.24-1.4,.33-2.79-.2-4.13-.29-.74-1.05-.93-1.67-.44-2.1,1.67-4.33,3.18-6.66,4.51-1.9,1.08-4.49,2.71-6.78,2.08,.55-1.96,1.59-3.7,2.69-5.42,1.31-2.03,2.57-4.07,3.65-6.24,1.02-2.06,1.9-4.18,2.64-6.35,.68-2.01,1.43-4.15,.36-6.15-.28-.53-1.17-.69-1.57-.2-4.19,5.1-9.48,9.19-15.47,11.91,1.29-3.7,3.31-7.12,4.51-10.87,1.39-4.34,1.96-8.89,2.75-13.36,.78-4.38,1.78-8.82,4.06-12.7,2.13-3.63,5.29-6.63,9.05-8.53,4.92-2.49,10.71-2.8,15.9-.99,.04,.01,.07,0,.1,.01,.08,.12,.18,.23,.3,.3,.11,.08,.24,.12,.36,.16,.1,.03,.21,.04,.32,.05-3.51,4.33-5.89,9.5-7.33,15.09-3.66,14.14-3.39,29.39-.02,43.7-2.08,1.49-6.84,4.62-7.47,2.1ZM250.29,220.98c-.1,.05-.18,.12-.26,.21-.95,.72-2,1.29-3.16,1.5-2.88,.53-3.87-2.18-4.52-4.45-1.4-4.95-1.11-10.23-1.17-15.33-.12-9.67-.49-19.35-1.88-28.93-1.49-10.32-4.3-20.48-9.18-29.72,0-.11,0-.21-.04-.33-1.57-4.85-7.78-5.44-11.65-3.09-2.4,1.46-4.18,3.68-5.84,5.9-2.09,2.8-4.16,5.6-6.31,8.36-8.46,10.9-17.51,21.33-27.11,31.23-9.26,9.55-18.98,18.77-29.35,27.12-10.02,8.06-21,15.28-33.19,19.58-3.23,1.14-6.54,2.13-9.91,2.75-3.14,.59-6.59,.82-9.64-.32-6.75-2.53-6.33-10.58-5.68-16.47,.1-.96-1.12-1.19-1.71-.71-8.7,7.16-18.99,13.46-30.5,14.2-10.42,.67-21.24-3.36-26.26-12.99-2.54-4.87-3.23-10.61-1.34-15.82,.17-.47-.19-1.15-.7-1.23-11.62-1.76-21.96-9.43-27.04-20.02-1.18-2.46-3.41-6.91-.28-8.81,1.15-.7,2.6-.89,3.92-1.03,1.6-.17,3.21-.31,4.81-.5,6.1-.72,12.17-1.8,18.14-3.26,24.04-5.88,46.9-18.14,62.43-37.77,4.72-5.96,9.3-12.76,16.59-15.78,1.79-.74,3.71-1.22,5.64-1.28,1.4-.05,3.01,.33,4.22-.56,1.64-1.21,.47-3.37-.91-3.56,.2-.35,.23-.8-.09-1.19-8.79-10.82-15.03-23.66-18.32-37.2,.05-.31-.04-.63-.21-.87-.83-3.55-1.47-7.14-1.88-10.76-1.02-8.86-.83-17.89,.72-26.68,1.59-8.98,4.79-17.7,11.95-23.7,6.44-5.41,15.1-8.18,23.47-7.33-3.69,3.1-6.9,6.7-9.57,10.74-3.09-1.89-6.5-3.17-10.09-3.77-.98-.16-1.67,.89-.97,1.67,3.06,3.45,6.21,6.99,8.08,11.26,1.41,3.24,1.9,6.81,1.6,10.32-.6,7.15-4.57,14.01-10.79,17.67-.8,.47-.5,1.48,.15,1.78,0,.02,0,.03,0,.05,.03,.08,.07,.16,.1,.24,.09,.15,.21,.27,.36,.36,.05,.04,.11,.07,.16,.11,.03,.08,.07,.17,.13,.26,3.57,5.02,8.18,9.23,13.53,12.29,2.55,1.46,5.26,2.66,8.06,3.56,1.3,.42,2.89,1.07,4.27,1.11,.68,.02,.95-.4,1.38-.87,.63-.69,1.28-1.36,1.94-2.01,9.03-8.9,20.86-14.57,33.2-17.14,27.49-5.71,56.51,4.15,79.64,18.79,12.46,7.88,23.68,17.66,33.22,28.89,.4,.48,.94,.38,1.3,.05,.19,.08,.4,.11,.63,.06,.17-.03,.35-.07,.52-.1,.09-.01,.18-.03,.26-.04,.03,0,.05,0,.08,0,.34-.04,.68-.07,1.02-.08,.03,0,.06,0,.09,0,.15,.11,.33,.2,.57,.2,20.2,.18,40.49,3.06,59.52,9.98,7.96,2.89,15.89,6.67,22.1,12.55,1.54,1.46,2.98,3.04,4.24,4.75,1.18,1.61,2.34,3.4,2.57,5.44,.24,2.12-1.03,3.8-3.24,3.79-2.07,0-4.02-1.02-5.8-1.95l-32.02-16.66c-1.17-.61-2.01,.96-1.01,1.73,3.11,2.4,6,5.1,8.6,8.04,1.27,1.44,2.5,2.93,3.61,4.5,.81,1.14,1.79,2.7,1.39,4.1-15.01-5.86-29.12-14.75-45.46-16.38-.96-.1-1.4,1.47-.5,1.86,4.8,2.13,9.38,4.76,13.62,7.86,2.13,1.56,4.18,3.24,6.11,5.05,1.65,1.55,3.34,3.38,3.55,5.68-3.03,.19-5.97-1.01-8.71-2.18-2.83-1.22-5.68-2.37-8.61-3.34-5.94-1.95-12.07-3.22-18.28-3.88-1.01-.11-1.33,1.41-.5,1.86,2.53,1.37,5,2.85,7.4,4.45,1.17,.78,2.32,1.58,3.45,2.4,.6,.44,2.19,1.45,2.18,2.4-6.88,.24-13.76-.1-20.58-1.01-1.06-.14-1.25,1.38-.5,1.86,10.16,6.62,20.45,14.27,26.77,24.84,1.49,2.5,2.74,5.14,3.65,7.91,.66,2.02,2.61,7.15-.32,8.29-1.38,.54-3.08-.28-4.27-.91-1.69-.9-3.33-1.92-4.99-2.88-3.45-2.01-6.91-4.01-10.36-6.02-7.63-4.43-15.25-8.86-22.88-13.29-.83-.48-1.95,.52-1.37,1.37,9.58,14.01,23.12,26.54,26.71,43.76,.46,2.19,2.19,9.61-1.81,9.72-1.91,.05-3.94-1.19-5.44-2.26-1.66-1.18-3.1-2.66-4.46-4.17-6.02-6.67-11.45-13.91-16.8-21.13-6.26-8.44-12.44-16.93-18.65-25.41-.61-.83-2.29-.37-1.83,.77,3.94,9.84,7.97,19.94,9.11,30.56,1,9.33-.17,20.09-6.74,27.34-.64,.71-1.35,1.43-2.13,2.05Zm9.54,57.09c-4.36-7.32-5.74-15.99-6.73-24.33-1.23-10.42-1.66-20.93-1.33-31.42,7.31-5.9,9.76-16.45,9.7-25.39-.07-10.16-3.13-19.93-6.73-29.39,4.44,6.06,8.88,12.13,13.34,18.17,5.71,7.73,11.48,15.52,17.95,22.64,2.62,2.89,5.92,5.97,9.9,6.73,4.01,.76,5.83-2.63,5.79-6.15-.1-8.55-4.1-17.06-8.53-24.17-4.91-7.88-11.04-14.89-16.53-22.35,6.15,3.57,12.3,7.15,18.45,10.72,3.74,2.17,7.48,4.35,11.22,6.52,2.75,1.6,6.17,4.37,9.56,3.92,7.12-.94,2.39-11.92,.7-15.52-2.77-5.91-6.94-11.08-11.62-15.59-4.42-4.26-9.34-7.98-14.41-11.44,2.53,.26,5.07,.45,7.61,.54,1.94,.07,3.88,.1,5.82,.08,.97,0,1.94-.03,2.91-.06,.82-.03,1.43,.07,1.92-.66,1.77-2.62-2.29-5.11-3.97-6.3-1.74-1.23-3.53-2.4-5.35-3.51,4.82,.79,9.57,2,14.19,3.6,2.98,1.03,5.83,2.33,8.75,3.5,2.93,1.18,5.9,1.96,9.06,1.51,.45-.06,.7-.57,.73-.96,.21-2.6-1.15-4.85-2.85-6.7-1.91-2.09-4.19-3.9-6.43-5.62-2.92-2.25-6.01-4.26-9.23-6.04,13.81,2.97,26.3,10.59,39.43,15.61,.44,.17,.88-.12,1.13-.46,2.56-3.47-1.72-7.96-3.83-10.48-1.21-1.44-2.5-2.81-3.83-4.13,7.87,4.09,15.74,8.19,23.61,12.28,2,1.04,4.57,2.48,7.05,2.77l.06,.15c.09,.15,.21,.27,.36,.36,.41,.29,.83,.57,1.24,.86,.05,.1,.12,.2,.23,.29,13.74,11.45,24.97,25.77,32.78,41.87,2.07,4.27,4.05,8.68,5.16,13.32,.5,2.09,1.08,4.55,.69,6.71-.16,.89-.54,1.76-1.45,2.07-1.18,.4-2.63-.19-3.69-.71-3.95-1.93-6.54-5.95-9.1-9.35-3.21-4.25-6.42-8.51-9.63-12.76l-21.68-28.72c-.76-1-2.47-.07-1.73,1.01,7.97,11.61,16.3,23.81,18.97,37.9,.33,1.72,.58,3.47,.69,5.22,.08,1.29,.08,2.84-.67,3.96-1.13,1.7-3.1,.45-4.36-.43-1.61-1.12-3.1-2.43-4.51-3.79-5.63-5.43-10.71-11.5-15.98-17.27-6.28-6.88-12.57-13.76-18.85-20.64-.89-.97-2.19,.43-1.41,1.41,10.28,13,20.87,26.25,27.59,41.53,1.7,3.86,3.2,8.49,1.69,12.62-4.1-1.76-7.31-5-10.24-8.29-3.15-3.54-6.12-7.23-9.05-10.95-5.85-7.44-11.5-15.06-17.88-22.06-3.6-3.95-7.43-7.67-11.6-11.02-.83-.67-2.2,.17-1.57,1.21,12.27,20.35,24.85,41.12,31.23,64.21,1.35,4.88,2.48,11.19-1.13,15.37-7.14-.49-11.2-8.78-14.44-14.14-4.56-7.57-8.94-15.25-13.12-23.03-2.39-4.46-4.72-8.95-6.99-13.48-.52-1.04-2.09-.3-1.83,.77,2.55,10.51,5.12,21.08,6.05,31.88,.44,5.07,.7,10.33-.27,15.36-.44,2.25-1.06,4.79-2.41,6.69-.57,.81-1.46,1.67-2.54,1.39-1-.26-1.65-1.3-2.14-2.12-3.1-5.22-5.84-10.69-8.75-16.03-.49-.89-1.84-.46-1.86,.5-.11,5.55-.82,11.07-2.13,16.46-.63,2.59-1.4,5.14-2.3,7.65-.88,2.47-1.78,5.13-3.2,7.34-.57,.88-1.33,1.84-2.31,2.27-1.26,.55-2.22-.27-2.87-1.31-1.44-2.29-2.4-4.93-3.26-7.48-1.79-5.31-3.05-10.81-4.46-16.22-1.71-6.52-3.41-13.03-5.12-19.55-.28-1.06-2.05-.88-1.96,.27,1.22,16.83,.97,34.2-4.43,50.36-1.34,4-2.91,8.09-5.08,11.72-.85,1.42-2.33,3.44-4.24,2.99-.41-.1-.79-.3-1.15-.56,.06-.11,.11-.22,.17-.32,.58-1.06-.9-2-1.6-1.16-.55-.76-1.01-1.58-1.41-2.24Zm162.09-42.93c-.75,2.95-4.26,.12-5.34-1.04-3.75-4.02-7.18-8.4-10.69-12.63-4.06-4.9-8.07-9.85-12.03-14.84-.8-1.01-2.2,.42-1.41,1.41,9.96,12.59,18.77,26.58,23.14,42.16,1.09,3.87,1.9,7.83,2.34,11.83,.28,2.53,1.61,9.77-3.1,8.39-1.89-.55-3.36-1.96-4.7-3.33-1.46-1.49-2.88-3.01-4.26-4.58-2.85-3.23-5.54-6.6-8.1-10.06-5.68-7.69-10.76-15.81-15.83-23.91-.69-1.1-2.31-.13-1.73,1.01,10.48,20.46,25.07,40.73,25.24,64.65,.03,5-.37,10.43-2.57,15-2.1,4.36-6,7.44-11.02,5.88-5.31-1.65-9.31-6.64-12.41-10.99-3.42-4.79-6.52-9.83-9.52-14.89-6.87-11.59-12.98-23.62-19.08-35.63-.51-1.01-2.16-.31-1.83,.77,5.53,17.86,11.59,38.4,2.42,56.13-3.36-.74-5.37-4.36-6.92-7.13-2.3-4.09-4.51-8.22-6.66-12.39-4.25-8.27-8.2-16.7-11.86-25.25-.47-1.09-2.04-.27-1.83,.77,3.23,15.7,6.69,31.72,6.3,47.84-.17,6.98-1.14,14.77-4.87,20.84-1.63,2.65-4.32,4.92-7.61,3.94-3.05-.91-5.23-3.88-6.64-6.58-3.89-7.45-5.12-16.11-6.43-24.3-.19-1.2-1.86-.76-1.96,.27-.89,8.65-3.12,17.19-6.59,25.17-1.7,3.91-3.69,7.7-5.95,11.32-2.25,3.61-4.73,7.31-7.7,10.37-1.47,1.51-3.42,3.17-5.64,3.25-1.99,.08-3.47-1.24-4.31-2.94-2-4.03-1.35-9.36-.69-13.64,1.49-9.66,3.89-19.27,6.32-28.73,2.76-10.74,5.93-21.38,9.49-31.89,.42-1.24-1.45-1.69-1.93-.53-2.96,7.24-6.51,14.23-10.6,20.9-3.97,6.48-8.35,13.01-13.64,18.5-2.68,2.78-5.76,5.2-9.4,6.55-2.18-2.4-2.1-5.99-1.7-9.05,.54-4.21,1.5-8.41,2.61-12.51,2.04-7.54,4.91-14.82,8.51-21.75,1.23,.85,2.66,1.21,4.31,.52,1.7-.71,2.92-2.28,3.82-3.84,1.1-1.89,2.01-3.92,2.86-5.93,3.51-8.23,5.54-16.99,6.56-25.86,.82-7.12,.98-14.29,.76-21.45,.86,3.3,1.73,6.6,2.59,9.89,1.59,6.07,2.94,12.28,5.13,18.18,.9,2.43,1.89,5.38,3.65,7.33,1.56,1.73,3.86,1.75,5.67,.39,2.04-1.53,3.04-3.94,4-6.21,1.19-2.81,2.21-5.68,3.06-8.6,1.55-5.35,2.49-10.86,2.86-16.42,2.3,4.32,4.56,8.68,7.05,12.87,.99,1.66,2.47,3.34,4.59,3.15,2.09-.18,3.51-2.05,4.33-3.82,2.36-5.08,2.66-10.87,2.48-16.38-.19-5.94-.96-11.84-2.01-17.69-.72-3.98-1.58-7.93-2.49-11.87,4.03,7.75,8.25,15.4,12.65,22.94,2.65,4.54,5.22,9.24,8.3,13.51,2.37,3.27,5.4,6.55,9.46,7.56,.75,.19,2.01,.53,2.78,.29,.81-.25,1.48-1.44,1.91-2.12,1.08-1.75,1.59-3.77,1.75-5.8,.38-4.64-1.01-9.26-2.37-13.63-3.16-10.18-7.46-19.97-12.31-29.44-4.57-8.93-9.65-17.59-14.81-26.19,12.62,11.7,21.94,26.49,33.3,39.38,3.49,3.96,7.29,7.76,12.33,9.62,.38,.14,.95-.09,1.13-.46,1.75-3.71,1.38-7.76,.14-11.58-1.31-4.07-3.35-7.94-5.4-11.68-3.04-5.55-6.5-10.86-10.18-16.01,.98,1.07,1.96,2.14,2.93,3.21,3.03,3.32,6.06,6.63,9.09,9.95,2.73,2.99,5.39,6.06,8.36,8.81,1.4,1.3,2.89,2.54,4.48,3.6,1.41,.94,3.11,1.7,4.81,1.08,2.66-.97,3.03-4.39,2.85-6.81-.56-7.48-2.95-14.69-6.17-21.42-.48-1-.98-1.99-1.49-2.97l6.79,9c3.51,4.65,7.02,9.31,10.54,13.96,1.95,2.58,3.88,5.41,6.32,7.61-.27,.36-.36,.89,0,1.33,6.23,7.76,10.63,16.93,12.81,26.64,.25,1.1,.46,2.2,.65,3.31,.19,1.14,.57,2.52,.28,3.67Z"/>
<path d="M194.23,143.54c-1.32-1.01-2.96-1.27-4.58-1.36-.16-.18-.4-.29-.73-.27-9.88,.72-19.79-.34-29.29-3.16-.61-.18-1.28,.32-1.27,.96,.13,5.91-.46,12.18-3.42,17.42-3.01,5.32-8.39,8.37-14.44,8.71-6,.34-12.77-1.63-17.18-5.84-2.2-2.1-3.6-4.85-3.44-7.94,.14-2.71,1.4-5.34,3.24-7.3,2.49-2.64,6.32-4.22,9.95-3.5,3.49,.69,6.21,3.81,5.72,7.45-.08,.57,.52,.95,1,1,4.32,.41,8.32-3,9.11-7.19,.84-4.49-1.42-8.95-4.94-11.66-3.91-3.02-9.43-4.39-14.31-3.85-4.76,.53-8.76,3.21-12.21,6.37-3.72,3.41-7.07,7.2-10.8,10.61-3.93,3.59-8.08,6.94-12.42,10.02-8.7,6.19-18.06,11.06-27.82,15.33-5.57,2.43-11.18,4.85-16.38,8.02-4.36,2.65-9.23,6.03-10.27,11.38-.11,.55,.15,1.05,.7,1.23,3.81,1.29,7.76,.16,11.37-1.24,3.67-1.42,7.25-3.06,10.73-4.89,2.57-1.35,5.07-2.81,7.52-4.37-.95,1.14-1.85,2.32-2.68,3.56-2.24,3.35-7.49,12.57-1.31,14.88,2.63,.98,5.54-.36,7.85-1.58,2.71-1.43,5.29-3.09,7.74-4.94,5.1-3.84,9.61-8.39,13.72-13.27,2.03-2.41,3.95-4.9,5.83-7.43-1.88,4.1-3.68,8.24-5.37,12.42-1.6,3.97-3.14,7.97-4.55,12.01-1.06,3.05-1.97,6.65,0,9.53,.26,.38,.68,.57,1.13,.46,6.14-1.55,10.14-7.82,13.45-12.76,1.95-2.91,3.71-5.93,5.29-9.04-.43,2.89-.69,5.81-.75,8.74-.07,3.1,.07,6.21,.43,9.3,.17,1.48,.38,2.95,.64,4.41,.23,1.31,.41,2.75,.96,3.98,1.01,2.26,3.34,2.75,5.47,1.76,2.23-1.04,3.82-3.19,5.12-5.21,2.69-4.16,4.05-9.01,4.69-13.87,.5-3.77,.58-7.57,.48-11.37,.74,1.8,1.54,3.58,2.42,5.32,.94,1.85,1.95,3.66,3.04,5.43,1.01,1.64,2.04,3.38,3.44,4.72,2.25,2.16,6.19,3.17,8.42,.41,1.9-2.35,.93-5.77-.21-8.22-1.62-3.46-3.9-6.75-6.19-9.89,8.45,2.16,17.37,2.32,25.88,.36,3.36-.77,6.99-2.25,9.12-5.11,2.52-3.38,1.12-7.09-1.24-10.11-2.02-2.58-4.36-4.89-6.94-6.9,7.31,1.4,14.87,1.84,21.78-1.38,1.8-.84,3.49-1.94,4.98-3.26,1.29-1.15,2.82-2.66,3.3-4.37,.49-1.74-.38-3.48-1.76-4.54Zm-1.87,6.43c-2.24,2.4-5.18,4.05-8.29,5.02-7.41,2.33-15.24,.83-22.6-.91-1.09-.26-1.76,1.23-.77,1.83,3.35,2.02,6.39,4.49,9,7.4,2.34,2.61,5.37,6.23,2.75,9.67-1.96,2.58-5.41,3.73-8.44,4.39-4.18,.92-8.47,1.31-12.75,1.19-4.9-.14-9.74-.97-14.42-2.44-.78-.24-1.66,.76-1.13,1.47,2.69,3.62,5.37,7.41,7.49,11.4,.77,1.44,1.44,3.15,1.37,4.81-.07,1.97-1.58,3.16-3.55,2.75-2.11-.43-3.47-2.39-4.58-4.07-1.22-1.86-2.35-3.77-3.4-5.74-2.12-3.98-3.85-8.16-5.2-12.46-.32-1.03-2.03-.91-1.96,.27,.54,8.98,1.05,18.74-2.68,27.16-.92,2.08-2.1,4.06-3.56,5.8-1.13,1.34-4.27,4.16-5.45,1.35-.47-1.12-.61-2.42-.82-3.61-.26-1.44-.46-2.89-.62-4.34-.3-2.78-.42-5.57-.38-8.37,.09-6.29,1.07-12.52,2.87-18.54,.37-1.25-1.48-1.72-1.93-.53-2.27,6.02-5.19,11.78-8.71,17.16-1.69,2.59-3.5,5.14-5.52,7.48-1.8,2.09-3.86,3.98-6.49,4.87-1.35-2.84,.24-6.35,1.23-9.09,1.35-3.73,2.77-7.43,4.27-11.1,3.03-7.41,6.37-14.68,10-21.81,.59-1.16-1-2.07-1.73-1.01-6.5,9.47-13.26,18.97-21.93,26.6-2.13,1.88-4.37,3.62-6.74,5.2-2.26,1.5-4.71,3.12-7.29,4.01-1.1,.38-2.39,.7-3.53,.34-1.62-.51-1.85-2.26-1.59-3.72,.48-2.72,1.9-5.36,3.36-7.66,3.48-5.48,8.47-9.84,13.32-14.08,.97-.85-.44-2.24-1.41-1.41-5.62,4.8-11.75,9-18.27,12.5-3.25,1.74-6.59,3.32-10.01,4.7-3.27,1.32-6.85,2.68-10.37,1.9,1.23-3.98,4.94-6.61,8.35-8.75,4.15-2.6,8.58-4.7,13.05-6.69,8.92-3.97,17.73-7.88,25.99-13.14,8.04-5.11,15.56-11.07,22.36-17.74,3.23-3.17,6.21-6.72,9.86-9.43,3.98-2.96,8.48-4.23,13.42-3.35,4.87,.87,9.98,3.46,11.64,8.45,.79,2.36,.7,4.98-.73,7.08-1.16,1.71-2.99,2.82-5.01,2.96-.01-2.93-1.75-5.69-4.24-7.22-3.23-1.97-7.39-1.69-10.73-.16-5.75,2.63-9.62,9.83-7.38,15.99,2.44,6.68,10.24,10.28,16.84,11.24,6.85,1,14.19-.67,18.9-6.02,4.9-5.56,6.15-13.31,6.14-20.53,8.92,2.49,18.2,3.49,27.44,2.93,.14,.1,.31,.17,.53,.17,1.75,.02,3.94-.01,5.18,1.46,1.33,1.57-.04,3.16-1.17,4.37Z"/>
<path d="M113.76,36.09c2.02-.72,2.57-3.15,2.24-5.06-.33-1.89-1.55-3.58-3.14-4.64-.4-.26-.83-.48-1.28-.65-.24-.1-.56-.12-.68-.37-.08-.17,.21-.82,.26-.99,.36-1.39,.72-2.77,1.08-4.16,.27-1.03-.93-1.58-1.67-.97-6.61,5.44-8.18,15.03-3.77,22.35,.14,.24,.34,.36,.55,.42,.57,.57,1.77,.36,1.71-.64-.12-2.13,.03-4.22,.43-6.29,1.24,.94,2.69,1.58,4.27,1.01Zm-5.85-3.12c-.4,1.5-.65,3.03-.79,4.57-1.61-4.76-.78-9.98,2.16-14.01-.23,.74-.5,1.54-.44,2.26,.07,.81,.61,1.34,1.34,1.61,.85,.31,1.58,.59,2.26,1.22,1.15,1.07,1.91,2.7,1.55,4.28-.61,2.75-3.27,.75-4.43-.36-.54-.51-1.48-.3-1.67,.44Z"/></g></g></g></svg>
