<svg id="Flamenco-1" xmlns="http://www.w3.org/2000/svg" viewBox="0 0 246.14 367.31">
<g id="Calque_4"><g>
<path class="cls-1" d="M139.21,75.32c-.15-.04-.3-.1-.44-.22-1.84-1.58-4.51-3.79-7.06-2.48-1.67,.86-2.67,2.73-3.82,4.14-.58,.71-1.2,1.35-1.94,1.89-.84,.61-2,1.06-2.26,2.17-.53,2.18,1.75,4.26,2.68,6.01,.97,1.81,1.56,3.9,2.88,5.51,1.35,1.65,3.68,2.52,5.68,1.52,1.98-.99,1.86-3.14,3.18-4.64,1.29-1.47,3.48-1.17,4.76-2.77,1.67-2.1,.85-4.52-.77-6.31-1.31-1.45-2.3-3-2.9-4.83Z"/>
<path class="cls-1" d="M117.04,78.46c-.58,.93-1.2,1.9-1.34,3.01-.17,1.31,.36,2.58,1.02,3.69,1.18,2,2.85,3.67,3.65,5.88,.68,1.86,.69,3.92,.14,5.81,3.76,1.41,6.26,4.68,7.87,8.27,.7,1.55,1.11,3.45,2.15,4.81,1.27,1.67,3.72,1.09,5.42,.48,1.78-.64,3.61-2.14,3.57-4.21-.03-1.63-1.39-2.93-.34-4.55,.46-.7,1.2-1.15,1.77-1.74,.8-.82,.8-1.51,.59-2.59-.32-1.6-.06-2.96,1.4-3.86,1.49-.93,3.18-1.3,4.54-2.5,.87-.76,1.51-1.73,1.81-2.79-1.61,1.38-3.82,1.97-6,1.38-.25-.07-.42-.21-.53-.38-1.02,.62-2.68,.62-3.34,1.65-.61,.94-.77,2.09-1.43,3.02-1.36,1.89-3.76,2.76-6.03,2.34-2.49-.45-4.28-2.25-5.43-4.41-.63-1.18-1.1-2.43-1.7-3.61-.59-1.15-1.37-2.16-2.04-3.26-1.24-2.03-1.77-4.76,.16-6.56,.92-.86,2.07-1.36,2.94-2.3,.75-.8,1.36-1.71,2.04-2.57,1.33-1.7,2.94-3.14,5.2-3.25,2.51-.12,4.7,1.46,6.56,3.02,.48-.13,1.04,.05,1.19,.67,.34,1.4,.93,2.62,1.77,3.74,.07-.07,.15-.15,.26-.2,3.89-1.98,5.92-6,7.17-10,.38-1.23,2.31-.7,1.93,.53-.11,.37-.25,.74-.38,1.11,.1,.08,.19,.17,.25,.28,.11,.2,.2,.4,.3,.6,1.96-5.29-2.17-10.67-7.87-10.6-5.32,.07-10.09,3.43-15.05,4.98-2.84,.89-6.37,1.93-8.46,4.14-.04,.05-.08,.1-.13,.14-.91,1.01-1.52,2.26-1.66,3.83-.1,1.13-.09,2.22-.5,3.29-.36,.96-.91,1.82-1.44,2.69Z"/>
<path class="cls-1" d="M89.04,71.6c.05,.38-.1,.68-.32,.9,1.49,1.48,3.18,2.85,5.22,3.43,2.16,.61,4.65,.25,6.09-1.6,1.25-1.61,1.54-3.78,1.62-5.78-.02-.05-.04-.08-.05-.14-.57-3.34-2.04-6.45-3.12-9.64-1.07-3.16-1.97-6.36-2.78-9.59-1.43-5.7-2.71-11.49-3.68-17.28-.41-2.43-.58-4.98,.58-7.24,1.08-2.12,3.2-3.44,5.25-4.49,2.32-1.2,5.32-2.4,6.14-5.16,.75-2.5-1.68-4.19-2.05-6.51-.29-1.82,.7-3.27,2.08-4.33,.86-.66,2.02-1.23,2.91-2-4.61,.82-8.59,4.61-11.61,7.91-3.28,3.58-6.12,7.92-7.46,12.62-.73,2.54-.79,5.15-.79,7.77,0,2.76,.02,5.52,.05,8.29,.1,10.97,.43,21.97,1.93,32.85Z"/>
<path class="cls-1" d="M153.47,71.91c-.11,.21-.26,.32-.42,.4,0,.01,.01,.02,.02,.04,.62,2.26,1.32,4.72,2.75,6.63,.06-.06,.11-.12,.19-.17,2.99-1.75,5.86,.91,7.52,3.22,.76,1.06,1.62,2.44,2.86,3.03,.16-.04,.32-.05,.49-.01,.17,.04,.31,.14,.43,.27,1.82,.21,3.99-1.27,5.53-1.99,1.65-.77,3.94-1.42,5.01-3,.75-1.12,.94-2.56,1.18-3.86,.63-3.43,2.22-6.39,3.35-9.65,.98-2.83,1.5-6.41-.65-8.86-1.96-2.23-5.22-2.97-7.69-4.48-1.48-.9-2.85-1.99-4.41-2.75-.81-.4-1.7-.71-2.6-.82-.49-.06-2.01-.16-2.43,.29-.02,.04-.05,.07-.08,.1-.19,.41,.21,1.44,.25,1.89,.06,.7,0,1.4-.14,2.09-.25,1.24-.84,2.43-1.67,3.39-1.84,2.13-4.97,2.95-7.65,2.12-1.46-.45-2.53-1.43-3.79-2.23-.04-.02-.08-.05-.12-.07-.19-.01-.35-.09-.49-.23-1.01-.4-2.6-.68-2.6,.66,0,.03-.01,.05-.02,.07,.63,.24,1.25,.54,1.86,.94,4.35,2.82,5.67,8.41,3.33,12.97Z"/>
<path class="cls-1" d="M153.3,56.39c1.67,1.2,3.31,2.08,5.43,1.57,1.99-.47,3.46-2.04,3.9-4.03,.19-.87,.14-1.69-.06-2.55-.13-.55-.23-1.07-.1-1.6-2.59-3.62-4.62-7.59-6.46-11.63-3.34-7.33-6.16-15.14-11.26-21.49-1.31-1.64-2.77-3.34-4.66-4.33-2.13-1.12-4.77-1.24-7.11-1.52-4.38-.52-8.79-.82-13.2-.94,.74,.72,1.57,1.33,2.54,1.75,.96,.42,2.02,.52,2.72,1.39,.62,.77,.91,1.8,1.47,2.63,.57,.84,1.28,1.59,2.06,2.23,1.56,1.28,3.49,2.08,5.5,2.3,1.92,.2,3.85,.04,5.76,.34,4.04,.65,5.79,3.84,6.84,7.47,2.65,9.13,4.56,18.47,5.84,27.89,.26,.16,.53,.34,.78,.52Z"/>
<path class="cls-1" d="M157.44,83.22c.01-.13,.03-.22,.05-.28-.07-.03-.13-.06-.2-.09-.48-.24-.91-.53-1.33-.86-.85-.67-1.56-1.5-2.15-2.41-1.27-1.94-1.97-4.21-2.59-6.43-.14-.13-.26-.3-.29-.47-.07-.39-.18-.76-.3-1.13-1.45,3.16-3.55,6.01-6.73,7.63,.73,.86,1.38,1.76,1.69,2.9,.54,1.99,.05,4.09-1.2,5.65,2,.27,4.11-.81,4.88-2.75,.35-.89,1.61-1,1.93,0,.68,2.16,.14,4.46-1.23,6.24-1.37,1.77-3.23,2.69-5.22,3.58-.39,.17-.98,.37-1.23,.77-.33,.53-.02,1.28,.09,1.83,.15,.82,.19,1.6-.13,2.38-.34,.83-.99,1.46-1.65,2.05-.29,.26-.86,.6-1.01,.97-.19,.49,.14,1.08,.31,1.52,.7,1.88,.34,3.6-.62,5.01,.08,.08,.15,.17,.22,.26,.1,.03,.21,.07,.31,.14,11.3,7.81,20.17,18.73,25.55,31.35,1.84-6.38,.59-13.23-2.91-18.87-1.54-2.48-3.45-4.69-5.62-6.64-1.97-1.76-4.38-3.14-5.94-5.32-1.58-2.21-2.04-5-1.97-7.66,.03-1.18,0-2.74,.57-3.81,.57-1.05,1.67-1.23,2.74-1.42,1.3-.22,2.7-.54,3.7-1.46,1.08-.99,1.23-2.43,1.1-3.81-.25-2.73-1.58-5.31-1.03-8.1,.05-.26,.12-.52,.21-.78Z"/>
<path class="cls-1" d="M118.41,96.2c.07-.06,.15-.09,.22-.13,.73-2.99-.5-5.49-2.34-8.01-1.63-2.24-3.22-4.87-2.4-7.74,.72-2.52,2.85-4.28,3.05-6.99,.15-2.11,.57-3.87,1.78-5.48-2.68-6-9.4-9.08-15.71-7.5,.53,2.83,.79,5.72,.62,8.59-.15,2.54-.7,5.25-2.51,7.16-1.91,2-4.85,2.46-7.46,1.82-2.88-.71-5.2-2.75-7.19-4.85-.02-.02-.02-.04-.03-.05-1.26,1.91-2.33,3.95-3.09,6.12-.82,2.32-1.58,4.95-1.4,7.43,.31,4.47,5.15,5.13,7.43,8.28,2.52,3.48,1.38,8.45,5.18,11.18,1.87,1.34,4.27,1.72,6.46,1.05,2.06-.63,3.46-2.36,5.43-3.15,1.03-.41,1.82-.19,2.86-.26,1.15-.08,2.4-1.68,3.24-2.41l5.85-5.08Z"/>
<path class="cls-1" d="M109.85,321.19c13.06,5.02,26.86,7.9,40.82,8.78,14.08,.89,27.96-.41,41.82-2.85,12.44-2.19,25.64-4.5,37.75,.19-.11-1.46-1.28-3.01-1.92-4.17-.87-1.59-1.73-3.18-2.6-4.77-1.81-3.33-3.63-6.65-5.44-9.98-3.59-6.59-7.19-13.18-10.78-19.77-12.25-2.26-24.75-4-37.13-2.04-12.36,1.96-23.94,7.07-36.06,9.99-12.27,2.96-24.98,4.31-37.6,3.64-19.7-1.05-39.14-7.2-55.26-18.55-.83,.72-1.69,1.41-2.56,2.07-.07,.19-.19,.36-.39,.5-5.28,3.64-10.12,7.85-14.49,12.54,15.31,.73,30.67,2.72,45.18,7.86,13.24,4.69,25.57,11.53,38.67,16.56Z"/>
<path class="cls-1" d="M185.5,330.32c-27.23,4.19-55.18,1.62-80.68-9.01-12.8-5.34-25.08-12.01-38.36-16.15-12.43-3.88-25.4-5.56-38.37-6.28,0,.01-.01,.02-.02,.04l-1.68,2.08c.05,.21,.01,.45-.16,.7-6.1,8.42-14.33,15-23.85,19.14,.65,1.2,1.39,2.36,2.22,3.45,9.83,12.93,27.32,14.94,42.3,16.3,17.29,1.57,34.67,2.6,51.81,5.51,8.33,1.42,16.54,3.38,24.64,5.79,7.96,2.37,15.82,5.03,23.78,7.38,7.92,2.34,15.98,4.39,24.2,5.4,8.32,1.02,16.65,.79,24.92-.46,15.99-2.43,31.42-7.74,47.53-9.48-3.58-9.02-14.49-15.14-14.15-25.54-14.09-5.61-29.78-1.06-44.11,1.14Z"/>
<path class="cls-1" d="M102.11,254.53c4.44-.36,8.89-.89,13.35-.5,4.02,.35,7.96,1.29,11.8,2.51,7.92,2.52,15.45,6.15,23.5,8.25,16.57,4.33,34,2.47,50.49-1.36-4.23-3.92-7.86-8.45-10.79-13.42-2.7,.59-5.47,.84-8.23,1.02-4.25,.27-8.5,.53-12.76,.64-7.26,.19-14.45-.26-21.61-1.49-6.89-1.19-13.66-2.96-20.37-4.88-12.3-3.51-24.56-7.55-37.24-9.45-.21,.39-.42,.77-.63,1.16-.04,.07-.1,.12-.15,.17-.04,.07-.08,.15-.14,.22-3.73,4.63-8.23,8.59-13.26,11.74,3.6,2.13,7.49,3.71,11.58,4.65,4.78,1.1,9.59,1.14,14.46,.74Z"/>
<path class="cls-1" d="M149.5,248.44c7.28,1.18,14.59,1.44,21.95,1.17,3.74-.14,7.49-.36,11.22-.61,2.45-.16,4.88-.41,7.26-.93,.3-.44,.93-.67,1.4-.34,.46-.12,.92-.26,1.38-.41-7.57-9.42-14.73-19.47-18.82-30.93-1.85-5.19-2.98-10.62-3.18-16.13-.23-6.46,.69-12.96-.32-19.38-.91-5.77-2.98-11.29-3.68-17.1-.7-5.84,.5-11.56,2.36-17.08,.95-2.81,2.03-5.57,3.06-8.34,1.04-2.79,2.28-5.82,1.72-8.85-.82-4.48-4.92-7.54-7.74-10.79-3.36-3.87-5.03-8.4-4.91-13.54,.13-5.48,1.86-10.79,3.68-15.9,.04-.12,.11-.21,.18-.3-.14-.24-.2-.53-.13-.79,.14-.48,.28-.97,.42-1.45-.31-.16-.61-.34-.91-.58-1.8-1.45-4.29-7.07-7.2-5.73,.33,.25,.68,.48,1.05,.68,.5,.26,.99,.45,1.24,1,.24,.52,.07,.93-.1,1.44-.26,.77-.39,1.49-.35,2.31,.14,2.79,1.55,5.38,1.1,8.23-.4,2.59-2.34,4.18-4.77,4.88-.71,.2-1.47,.22-2.16,.43-.95,.28-.92,.69-1.01,1.58-.14,1.33-.19,2.69-.02,4.01,.42,3.27,2.31,5.25,4.82,7.19,4.42,3.42,8.14,7.67,10.33,12.86,2.36,5.57,2.78,11.91,.79,17.65-.06,.18-.17,.31-.28,.42-.16,.26-.34,.51-.55,.73-.19,.19-.45,.28-.71,.29-.27,.01-.52-.12-.71-.29-.08-.07-.14-.17-.18-.28-.2-.11-.38-.27-.48-.52-5.1-12.71-13.97-23.8-25.23-31.59-.13-.09-.23-.2-.3-.32-.02,0-.04,0-.06,0-.13-.03-.24-.09-.34-.18-.07-.04-.11-.11-.16-.17,0,0,0,0,0,0,.01,.02,.03,.04,.04,.05-.01-.02-.03-.03-.05-.05-.93,.78-2.06,1.37-3.24,1.72-1.72,.51-3.84,.84-5.49-.06-1.52-.84-2.23-2.47-2.83-4.01-1.58-4.06-3.68-8.49-8.16-9.9-.17-.05-.3-.14-.4-.24-2.29,1.99-4.58,3.99-6.88,5.97-.47,.41-.89,.74-1.34,.98,3.27,3.58,6.76,6.94,10.19,10.36,6.35,6.32,12.54,13,16.28,21.26,3.98,8.79,5.38,18.41,6.71,27.89,.08,.56-.14,1.04-.7,1.23-6.34,2.15-12.4,5.53-16.9,10.56-4.3,4.8-6.3,10.84-8.03,16.93-1.71,6.01-3.45,11.96-6.86,17.26-3.26,5.06-7.58,9.3-12.63,12.56-4.51,2.91-9.7,5.35-12.85,9.84h.04c.13,.05,.24,.12,.34,.2,7.61,.86,15.09,2.52,22.48,4.52,13.51,3.65,26.78,8.32,40.63,10.57Z"/>
<path class="cls-1" d="M142.61,292.81c11.79-3.46,23.29-8.05,35.68-8.89,12.04-.82,24.03,1.28,35.83,3.54-5.18-7.55-11.1-14.56-17.69-20.92-7.41,1.5-14.92,2.51-22.48,2.71-8.81,.24-17.69-.67-26.15-3.2-8.14-2.43-15.82-6.21-24.03-8.45-4.16-1.14-8.4-1.8-12.72-1.71-4.61,.1-9.18,.83-13.79,.9-7.33,.11-14.59-1.72-21-5.24-.53,.52-1.06,1.04-1.59,1.57-.07,.17-.18,.32-.38,.44-.06,.04-.13,.08-.19,.12-.04,.04-.09,.09-.13,.13-.14,.14-.31,.21-.48,.24-11.62,7.13-23.24,14.27-34.86,21.4,9.3,7.78,20.12,13.65,31.62,17.45,23.41,7.74,48.86,6.78,72.35-.1Z"/>
<path d="M237.62,342.17c-2.99-3.7-6.01-7.78-6.02-12.68,.17-.12,.32-.28,.42-.52,.63-1.55,.03-3.08-.7-4.48-.91-1.74-1.88-3.45-2.82-5.17-1.93-3.54-3.86-7.09-5.8-10.63-3.56-6.53-7.12-13.06-10.68-19.59,1.34,.25,2.68,.51,4.01,.77,.79,.15,1.65-.69,1.13-1.47-5.34-8.07-11.5-15.56-18.39-22.35,1.61-.35,3.22-.71,4.82-1.1,.7-.17,1.01-1.18,.44-1.67-4.56-3.97-8.44-8.6-11.56-13.76,.51-.15,1.02-.32,1.53-.5,.66-.24,.79-.93,.58-1.43,.2-.35,.23-.81-.09-1.2-6.88-8.53-13.46-17.59-17.63-27.78-2.04-4.99-3.5-10.26-3.99-15.64-.56-6.18,.28-12.38-.11-18.56-.37-5.78-2.21-11.24-3.4-16.87-.62-2.94-1-5.91-.84-8.92,.16-2.98,.81-5.91,1.65-8.77,.82-2.77,1.83-5.47,2.85-8.17,1.02-2.7,2.24-5.43,2.74-8.28,.85-4.84-1.36-8.63-4.52-12.09-1.71-1.87-3.59-3.62-5.07-5.69-1.69-2.37-2.66-5.12-2.89-8.01-.5-6.09,1.53-12.12,3.55-17.78,.12-.33,.05-.6-.1-.8,.06-.09,.12-.18,.15-.28,.14-.49,.28-.98,.42-1.47,2.29,.1,4.64-1.32,6.77-2.31,1.68-.78,3.65-1.43,4.92-2.85,1-1.11,1.46-2.58,1.76-4.01,.37-1.79,.68-3.52,1.33-5.24,.7-1.85,1.58-3.63,2.22-5.5,1.05-3.04,1.47-6.68-.24-9.56-1.71-2.88-4.98-3.88-7.79-5.33-3.17-1.65-5.89-4.41-9.66-4.57-.8-.03-1.85,.06-2.7,.44-4.69-6.74-7.45-14.54-10.97-21.91-1.79-3.76-3.82-7.4-6.39-10.69-1.32-1.69-2.75-3.34-4.53-4.56-1.9-1.29-4.1-1.7-6.34-2-5.81-.79-11.66-1.23-17.52-1.33-1.16-.02-1.26,1.59-.33,1.93-.18,.34-.19,.77,.15,1.14,1.34,1.45,2.88,2.25,4.68,2.98,1.04,.42,1.21,1.25,1.74,2.16,.44,.76,.98,1.47,1.57,2.12,2.48,2.72,5.86,3.98,9.48,4.11,1.89,.07,3.95-.1,5.71,.71,1.87,.86,2.72,2.79,3.31,4.64,1.39,4.38,2.44,8.91,3.41,13.4,1,4.64,1.83,9.31,2.5,14-.51-.09-1.03-.09-1.59,.04-1.27,.31-2.27,1.2-2.47,2.46-4.07-.64-8.42,1.16-12.13,2.81-2.76,1.23-5.59,2.06-8.43,3.04-2.01,.69-3.98,1.58-5.6,2.97-1.45-2.79-3.67-5.13-6.47-6.62-3.47-1.84-7.56-2.24-11.34-1.23-.62-.38-1.65,.1-1.53,1.01-.94-2.65-1.76-5.34-2.49-8.06-1.54-5.67-2.71-11.44-3.85-17.2-.52-2.64-1.43-5.77-.26-8.36,1.05-2.33,3.61-3.44,5.75-4.53,2.15-1.1,4.34-2.4,5.46-4.63,1.07-2.13,.75-4.13-.41-6.13-.58-.99-1.48-2.16-1.04-3.37,.31-.87,1.21-1.46,1.94-1.95,1.63-1.1,3.26-2.07,4.01-3.97,.25-.63-.38-1.25-.96-1.27-5.05-.13-9.34,3.1-12.85,6.4-3.67,3.44-6.8,7.58-8.87,12.18-1.1,2.45-1.84,4.99-2.07,7.67-.25,2.85-.12,5.74-.11,8.6,.03,5.86,.1,11.73,.34,17.58,.25,6.12,.73,12.22,1.51,18.29-.43-.3-1.1-.32-1.5,.23-2.93,4.08-5.11,9.11-5.47,14.17-.16,2.26,.33,4.5,1.91,6.19,1.41,1.51,3.36,2.32,4.9,3.66,1.95,1.71,2.2,4.18,2.78,6.56,.53,2.17,1.49,4.16,3.22,5.63,1.7,1.45,3.84,2.26,6.07,2.26,2.49,0,4.48-1.04,6.45-2.45,1.09-.79,2.02-1.36,3.35-1.33,.03,.17,.09,.34,.23,.49,5.89,6.54,12.61,12.3,18.33,18.99,2.89,3.38,5.48,7.01,7.49,10.98,2.15,4.25,3.59,8.83,4.67,13.45,1.14,4.89,1.87,9.85,2.57,14.82-5.4,1.92-10.54,4.68-14.78,8.58-4.62,4.24-7.45,9.62-9.38,15.52-2.02,6.2-3.26,12.69-6.37,18.49-3.03,5.65-7.44,10.54-12.77,14.11-5.27,3.53-11.41,6.23-14.86,11.84-.43,.69,.11,1.35,.73,1.46,.02,.05,.03,.1,.06,.15,.05,.07,.1,.13,.16,.2,.12,.12,.27,.21,.44,.26,.12,.04,.24,.08,.36,.12,.02,0,.03,0,.05,0,.14,.1,.3,.19,.51,.21,.69,.08,1.37,.16,2.06,.25-.08,.15-.16,.3-.24,.45,0,0,0,.02,0,.02-3.97,4.92-8.77,9.06-14.23,12.25-.67,.39-.62,1.33,0,1.73,.27,.17,.55,.34,.82,.51-.38,.38-.77,.76-1.15,1.14-.15,.11-.29,.22-.44,.33-.12,.06-.21,.15-.28,.26,0,.01-.01,.03-.02,.04l-36.18,22.21c-.51,.32-.7,1.14-.2,1.57,1.8,1.55,3.66,3.01,5.57,4.41-.4,.34-.8,.69-1.21,1.02-.15,.12-.3,.23-.44,.35,0,0-.02,.01-.03,.02,.08-.06-.03,.02-.05,.04-.08,.06-.17,.13-.25,.19-.32,.24-.64,.48-.97,.71-.17,.12-.29,.27-.38,.45-5.61,3.98-10.76,8.57-15.32,13.73-.58,.65-.18,1.67,.71,1.71,.6,.02,1.21,.05,1.81,.08-.44,.54-.87,1.08-1.31,1.62-.17,.21-.29,.42-.29,.71,0,.05,.02,.11,.03,.17-5.96,8.01-14.1,14.34-23.34,18.13-.62,.25-.91,.84-.6,1.47,7.01,14.13,23.26,19,37.76,20.8,17.44,2.17,35.05,2.74,52.47,5.17,8.64,1.2,17.22,2.81,25.65,5.06,8.16,2.18,16.18,4.86,24.25,7.38,15.81,4.94,32.03,9.15,48.73,7.79,16.85-1.37,32.91-7.09,49.55-9.67,2.19-.34,4.39-.61,6.59-.82,.61-.06,1.18-.6,.96-1.27-1.61-5.07-5.19-9.08-8.47-13.13ZM117.66,9.18v0Zm29.02,18.8c-1.05-3.63-2.8-6.82-6.84-7.47-1.91-.31-3.84-.14-5.76-.34-2.01-.21-3.94-1.02-5.5-2.3-.78-.64-1.49-1.39-2.06-2.23-.56-.82-.85-1.86-1.47-2.63-.7-.86-1.75-.97-2.72-1.39-.96-.42-1.79-1.03-2.54-1.75,4.41,.13,8.81,.43,13.2,.94,2.35,.28,4.98,.41,7.11,1.52,1.89,.99,3.34,2.69,4.66,4.33,5.1,6.35,7.92,14.16,11.26,21.49,1.84,4.05,3.87,8.01,6.46,11.63-.14,.52-.03,1.04,.1,1.6,.2,.86,.25,1.68,.06,2.55-.44,1.99-1.91,3.55-3.9,4.03-2.12,.51-3.76-.37-5.43-1.57-.25-.18-.52-.36-.78-.52-1.28-9.41-3.19-18.76-5.84-27.89Zm1.61,29.95c0-1.34,1.59-1.06,2.6-.66,.13,.13,.3,.22,.49,.23,.04,.02,.09,.05,.12,.07,1.26,.79,2.33,1.78,3.79,2.23,2.68,.83,5.81,0,7.65-2.12,.83-.96,1.42-2.14,1.67-3.39,.14-.69,.19-1.39,.14-2.09-.04-.45-.44-1.48-.25-1.89,.03-.03,.06-.07,.08-.1,.42-.45,1.94-.35,2.43-.29,.9,.11,1.79,.42,2.6,.82,1.56,.76,2.94,1.85,4.41,2.75,2.48,1.51,5.73,2.24,7.69,4.48,2.15,2.44,1.63,6.03,.65,8.86-1.13,3.26-2.72,6.23-3.35,9.65-.24,1.3-.43,2.74-1.18,3.86-1.06,1.58-3.35,2.23-5.01,3-1.54,.72-3.71,2.2-5.53,1.99-.12-.12-.26-.23-.43-.27-.17-.04-.33-.02-.49,.01-1.24-.6-2.1-1.97-2.86-3.03-1.65-2.31-4.53-4.97-7.52-3.22-.08,.05-.13,.11-.19,.17-1.43-1.91-2.13-4.37-2.75-6.63,0-.01-.01-.02-.02-.04,.16-.08,.31-.19,.42-.4,2.34-4.56,1.02-10.15-3.33-12.97-.61-.39-1.23-.7-1.86-.94,0-.03,.02-.05,.02-.07Zm9.96,34.16c.13,1.38-.02,2.82-1.1,3.81-1,.92-2.4,1.24-3.7,1.46-1.07,.18-2.17,.36-2.74,1.42-.58,1.07-.54,2.63-.57,3.81-.08,2.66,.39,5.45,1.97,7.66,1.56,2.18,3.97,3.56,5.94,5.32,2.17,1.94,4.09,4.16,5.62,6.64,3.49,5.64,4.75,12.49,2.91,18.87-5.38-12.62-14.25-23.54-25.55-31.35-.11-.07-.21-.12-.31-.14-.07-.09-.14-.18-.22-.26,.96-1.41,1.32-3.13,.62-5.01-.17-.45-.5-1.04-.31-1.52,.15-.37,.72-.72,1.01-.97,.66-.59,1.31-1.22,1.65-2.05,.32-.78,.28-1.56,.13-2.38-.1-.55-.41-1.31-.09-1.83,.24-.39,.83-.59,1.23-.77,1.99-.88,3.86-1.81,5.22-3.58,1.37-1.77,1.91-4.08,1.23-6.24-.32-1-1.57-.89-1.93,0-.77,1.94-2.87,3.02-4.88,2.75,1.25-1.56,1.74-3.66,1.2-5.65-.31-1.14-.95-2.04-1.69-2.9,3.18-1.62,5.28-4.47,6.73-7.63,.12,.37,.23,.75,.3,1.13,.03,.17,.15,.34,.29,.47,.62,2.22,1.32,4.49,2.59,6.43,.59,.91,1.3,1.74,2.15,2.41,.42,.33,.86,.62,1.33,.86,.07,.03,.13,.06,.2,.09-.02,.06-.04,.15-.05,.28-.09,.25-.16,.51-.21,.78-.55,2.79,.77,5.37,1.03,8.1Zm-37.61-23.45s.09-.09,.13-.14c2.1-2.22,5.62-3.26,8.46-4.14,4.96-1.55,9.73-4.91,15.05-4.98,5.7-.07,9.83,5.31,7.87,10.6-.09-.2-.19-.4-.3-.6-.06-.11-.15-.2-.25-.28,.13-.37,.26-.74,.38-1.11,.38-1.23-1.55-1.76-1.93-.53-1.24,4-3.27,8.03-7.17,10-.11,.06-.18,.13-.26,.2-.84-1.12-1.43-2.34-1.77-3.74-.15-.62-.71-.8-1.19-.67-1.85-1.56-4.05-3.15-6.56-3.02-2.26,.11-3.87,1.56-5.2,3.25-.68,.86-1.29,1.77-2.04,2.57-.87,.94-2.02,1.44-2.94,2.3-1.93,1.8-1.4,4.53-.16,6.56,.67,1.1,1.46,2.11,2.04,3.26,.6,1.19,1.08,2.44,1.7,3.61,1.15,2.16,2.94,3.96,5.43,4.41,2.27,.41,4.67-.45,6.03-2.34,.66-.92,.83-2.07,1.43-3.02,.66-1.03,2.32-1.03,3.34-1.65,.11,.17,.28,.31,.53,.38,2.18,.59,4.39,0,6-1.38-.3,1.06-.94,2.02-1.81,2.79-1.36,1.2-3.04,1.57-4.54,2.5-1.45,.9-1.72,2.27-1.4,3.86,.22,1.08,.21,1.77-.59,2.59-.58,.59-1.32,1.04-1.77,1.74-1.05,1.61,.31,2.91,.34,4.55,.04,2.07-1.78,3.57-3.57,4.21-1.7,.61-4.15,1.19-5.42-.48-1.04-1.37-1.45-3.26-2.15-4.81-1.61-3.59-4.11-6.86-7.87-8.27,.55-1.89,.54-3.94-.14-5.81-.81-2.22-2.47-3.88-3.65-5.88-.65-1.11-1.19-2.37-1.02-3.69,.14-1.11,.76-2.07,1.34-3.01,.54-.87,1.08-1.73,1.44-2.69,.41-1.07,.41-2.16,.5-3.29,.13-1.58,.75-2.82,1.66-3.83Zm22.23,17.81c-1.28,1.6-3.46,1.3-4.76,2.77-1.32,1.5-1.2,3.65-3.18,4.64-2,1-4.33,.13-5.68-1.52-1.32-1.61-1.91-3.7-2.88-5.51-.94-1.75-3.21-3.83-2.68-6.01,.27-1.1,1.43-1.56,2.26-2.17,.74-.54,1.36-1.19,1.94-1.89,1.15-1.41,2.14-3.28,3.82-4.14,2.55-1.31,5.22,.9,7.06,2.48,.14,.12,.29,.18,.44,.22,.6,1.82,1.59,3.38,2.9,4.83,1.62,1.79,2.44,4.21,.77,6.31ZM87.85,22.7c1.34-4.7,4.19-9.04,7.46-12.62,3.02-3.3,7.01-7.09,11.61-7.91-.89,.77-2.06,1.34-2.91,2-1.38,1.06-2.38,2.52-2.08,4.33,.38,2.32,2.8,4.01,2.05,6.51-.82,2.75-3.82,3.96-6.14,5.16-2.05,1.06-4.16,2.37-5.25,4.49-1.15,2.26-.98,4.81-.58,7.24,.97,5.79,2.25,11.59,3.68,17.28,.81,3.23,1.72,6.44,2.78,9.59,1.08,3.19,2.55,6.3,3.12,9.64,0,.05,.04,.09,.05,.14-.08,2-.37,4.17-1.62,5.78-1.44,1.86-3.93,2.21-6.09,1.6-2.05-.58-3.73-1.94-5.22-3.43,.22-.22,.37-.52,.32-.9-1.5-10.88-1.83-21.88-1.93-32.85-.03-2.76-.04-5.52-.05-8.29,0-2.62,.06-5.23,.79-7.77Zm18.61,81.24c-1.97,.78-3.37,2.52-5.43,3.15-2.2,.67-4.6,.29-6.46-1.05-3.8-2.73-2.67-7.7-5.18-11.18-2.28-3.15-7.12-3.81-7.43-8.28-.17-2.49,.58-5.11,1.4-7.43,.77-2.17,1.83-4.2,3.09-6.12,.01,.02,.02,.04,.03,.05,1.99,2.1,4.31,4.14,7.19,4.85,2.6,.64,5.55,.18,7.46-1.82,1.81-1.9,2.36-4.62,2.51-7.16,.16-2.87-.09-5.77-.62-8.59,6.3-1.59,13.02,1.5,15.71,7.5-1.21,1.61-1.63,3.37-1.78,5.48-.2,2.71-2.33,4.46-3.05,6.99-.82,2.88,.77,5.5,2.4,7.74,1.84,2.52,3.08,5.02,2.34,8.01-.07,.04-.15,.06-.22,.13l-5.85,5.08c-.84,.73-2.09,2.33-3.24,2.41-1.04,.07-1.83-.15-2.86,.26Zm-20.07,129.41c-.1-.08-.21-.15-.34-.18h-.04c3.15-4.51,8.34-6.95,12.85-9.86,5.05-3.26,9.38-7.5,12.63-12.56,3.41-5.3,5.15-11.26,6.86-17.26,1.74-6.09,3.74-12.13,8.03-16.93,4.51-5.03,10.56-8.41,16.9-10.56,.56-.19,.78-.67,.7-1.23-1.33-9.48-2.73-19.1-6.71-27.89-3.74-8.25-9.93-14.94-16.28-21.26-3.44-3.42-6.92-6.78-10.19-10.36,.45-.24,.87-.58,1.34-.98,2.3-1.98,4.59-3.98,6.88-5.97,.11,.1,.23,.19,.4,.24,4.48,1.41,6.58,5.84,8.16,9.9,.6,1.54,1.31,3.17,2.83,4.01,1.65,.91,3.77,.57,5.49,.06,1.18-.35,2.31-.94,3.24-1.72,.01,.02,.03,.03,.05,.05-.01-.02-.03-.04-.04-.05,0,0,0,0,0,0,.05,.06,.09,.13,.16,.17,.1,.09,.21,.15,.34,.18,.02,0,.04,0,.06,0,.07,.12,.17,.22,.3,.32,11.26,7.79,20.13,18.88,25.23,31.59,.1,.25,.28,.42,.48,.52,.05,.1,.11,.21,.18,.28,.19,.17,.44,.3,.71,.29,.26-.01,.52-.1,.71-.29,.21-.22,.39-.47,.55-.73,.12-.11,.22-.24,.28-.42,2-5.74,1.57-12.08-.79-17.65-2.19-5.19-5.91-9.44-10.33-12.86-2.51-1.94-4.4-3.91-4.82-7.19-.17-1.33-.13-2.69,.02-4.01,.1-.89,.07-1.3,1.01-1.58,.7-.21,1.46-.22,2.16-.43,2.43-.69,4.37-2.28,4.77-4.88,.44-2.85-.96-5.43-1.1-8.23-.04-.82,.09-1.54,.35-2.31,.17-.51,.33-.92,.1-1.44-.25-.56-.74-.74-1.24-1-.38-.19-.72-.42-1.05-.68,2.91-1.35,5.41,4.28,7.2,5.73,.3,.24,.6,.43,.91,.58-.14,.48-.28,.97-.42,1.45-.08,.26-.02,.55,.13,.79-.07,.09-.13,.18-.18,.3-1.82,5.11-3.55,10.43-3.68,15.9-.12,5.14,1.55,9.67,4.91,13.54,2.82,3.25,6.93,6.31,7.74,10.79,.55,3.03-.69,6.06-1.72,8.85-1.03,2.78-2.12,5.53-3.06,8.34-1.86,5.52-3.06,11.24-2.36,17.08,.7,5.81,2.77,11.33,3.68,17.1,1.01,6.42,.09,12.92,.32,19.38,.2,5.51,1.33,10.95,3.18,16.13,4.09,11.47,11.25,21.51,18.82,30.93-.46,.15-.92,.29-1.38,.41-.46-.33-1.1-.1-1.4,.34-2.38,.52-4.81,.76-7.26,.93-3.74,.25-7.48,.47-11.22,.61-7.36,.27-14.68,.01-21.95-1.17-13.85-2.25-27.12-6.93-40.63-10.57-7.39-2-14.87-3.66-22.48-4.52Zm2.94,4.05c.06-.07,.1-.14,.14-.22,.05-.05,.11-.1,.15-.17,.21-.39,.42-.77,.63-1.16,12.68,1.9,24.93,5.94,37.24,9.45,6.72,1.92,13.49,3.69,20.37,4.88,7.16,1.23,14.35,1.68,21.61,1.49,4.26-.11,8.51-.37,12.76-.64,2.76-.18,5.53-.43,8.23-1.02,2.93,4.97,6.56,9.5,10.79,13.42-16.49,3.83-33.92,5.69-50.49,1.36-8.05-2.1-15.59-5.74-23.5-8.25-3.84-1.22-7.78-2.16-11.8-2.51-4.46-.39-8.9,.14-13.35,.5-4.87,.4-9.68,.36-14.46-.74-4.09-.94-7.98-2.52-11.58-4.65,5.04-3.15,9.53-7.11,13.26-11.74Zm-50.7,38.06c11.62-7.13,23.24-14.27,34.86-21.4,.17-.04,.34-.11,.48-.24,.04-.04,.09-.09,.13-.13,.06-.04,.13-.08,.19-.12,.19-.12,.3-.28,.38-.44,.53-.52,1.06-1.04,1.59-1.57,6.41,3.51,13.67,5.35,21,5.24,4.61-.07,9.18-.81,13.79-.9,4.32-.09,8.56,.57,12.72,1.71,8.21,2.24,15.89,6.02,24.03,8.45,8.46,2.53,17.34,3.44,26.15,3.2,7.56-.2,15.07-1.22,22.48-2.71,6.58,6.37,12.51,13.37,17.69,20.92-11.8-2.26-23.78-4.36-35.83-3.54-12.38,.84-23.88,5.44-35.68,8.89-23.49,6.88-48.95,7.85-72.35,.1-11.5-3.81-22.32-9.67-31.62-17.45Zm1.85,8.77c.2-.14,.32-.31,.39-.5,.88-.66,1.73-1.35,2.56-2.07,16.12,11.34,35.56,17.5,55.26,18.55,12.62,.67,25.33-.68,37.6-3.64,12.12-2.92,23.7-8.03,36.06-9.99,12.38-1.97,24.88-.22,37.13,2.04,3.59,6.59,7.19,13.18,10.78,19.77,1.81,3.33,3.63,6.65,5.44,9.98,.87,1.59,1.73,3.18,2.6,4.77,.64,1.17,1.81,2.72,1.92,4.17-12.11-4.69-25.3-2.38-37.75-.19-13.86,2.44-27.75,3.74-41.82,2.85-13.95-.89-27.76-3.77-40.82-8.78-13.1-5.03-25.43-11.88-38.67-16.56-14.51-5.14-29.87-7.12-45.18-7.86,4.36-4.69,9.21-8.9,14.49-12.54Zm155.75,79.97c-8.28,1.26-16.61,1.48-24.92,.46-8.21-1.01-16.27-3.06-24.2-5.4-7.96-2.35-15.82-5.02-23.78-7.38-8.1-2.41-16.3-4.37-24.64-5.79-17.14-2.92-34.51-3.94-51.81-5.51-14.99-1.36-32.47-3.37-42.3-16.3-.83-1.09-1.56-2.25-2.22-3.45,9.52-4.13,17.75-10.72,23.85-19.14,.18-.24,.21-.48,.16-.7l1.68-2.08s.01-.02,.02-.04c12.97,.72,25.94,2.4,38.37,6.28,13.28,4.14,25.56,10.81,38.36,16.15,25.51,10.64,53.46,13.2,80.68,9.01,14.34-2.21,30.03-6.76,44.11-1.14-.34,10.4,10.58,16.52,14.15,25.54-16.11,1.74-31.54,7.06-47.53,9.48Z"/></g></g></svg>
