<svg id="Calque_2" xmlns="http://www.w3.org/2000/svg" viewBox="0 0 284.33 349.14">
<g id="Calque_4"><g>
<path class="cls-1" d="M94.62,246.57c1.08-.8,2.15-1.62,3.19-2.47,1.78-1.46,3.48-3.03,4.95-4.81,.44-.53,.88-1.09,1.25-1.67,.66-1.04,.45-1.46-.08-2.46-.53-1-.71-2.1-.56-3.23,.35-2.72,2.24-4.66,4.26-6.33,2.08-1.72,3.94-3.43,5.28-5.8,2.57-4.54,3.02-10.07,1.18-14.94-.18-.48,.2-1.13,.7-1.23,1.85-.37,3.7-.74,5.55-1.12-3.11-1.52-5.93-3.56-8.29-6.12-1.03-1.12-2.48-2.6-2.2-4.27,.3-1.8,2.45-2.19,3.9-2.66,4.19-1.37,8.5-2.39,12.87-3.03,3.82-.56,7.84-1.12,11.27,1.07,2.91,1.86,4.86,4.85,6.65,7.72,.68,1.1-1.05,2.1-1.73,1.01-1.89-3.03-4.1-6.61-7.65-7.87-2.06-.73-4.28-.49-6.4-.23-2.26,.28-4.5,.66-6.72,1.14-2.16,.47-4.29,1.02-6.4,1.67-.99,.3-2.24,.52-3.14,1.04-.79,.46-.66,.95-.17,1.64,.26,.37,.57,.7,.87,1.04,2.7,3.03,6.1,5.4,9.88,6.89,.18,.07,.31,.18,.42,.31,2.2-.44,4.41-.89,6.61-1.33,3.69-.74,8.47-2.58,11.9-.19,2.23,1.55,3.48,4.11,4.8,6.41,1.08,1.87,2.38,4.19,4.72,4.36,.32-1.34,.64-2.68,1-4.01-.38,.08-.81-.01-1.1-.39-1.73-2.3-2.46-5.04-2.84-7.85-.39-2.94-.41-5.93-1.01-8.85-.66-3.25-2.29-6.02-4.21-8.68-4.33-6-8.84-11.87-13.27-17.8-1.15-1.54-2.22-3.3-3.73-4.51-1.28-1.03-2.89-1.45-4.5-1.68-3.31-.48-6.56-.64-9.81-1.53-6.31-1.72-11.52-5.15-16.75-8.95-4.72-3.42-9.92-7.09-16.03-6.79-1.79,.09-3.52,.47-5.22,.98-.29,.42-.83,.63-1.24,.4-4.44,1.49-8.73,3.66-13.53,3.67-3.21,.01-5.92-1.11-8.45-3.02-2.18-1.64-5.82-4.7-8.57-2.42-1.16,.96-1.77,2.47-2.86,3.52-.88,.85-1.93,1.54-3.03,2.07-2.5,1.22-5.24,1.81-7.83,2.79-3.03,1.15-5.49,3.16-7.65,5.54-2.17,2.39-4.45,5.04-6.01,7.87-.9,1.62-1.23,3.42-1.87,5.14-.46,1.23-1.06,2.39-1.81,3.48-1.56,2.28-3.55,4.21-5.34,6.3-1.85,2.16-3.46,4.59-3.79,7.48-.32,2.81,.45,5.72,2.06,8.04,.87,1.26,2,2.14,3.2,3.07,.89,.69,1.82,1.5,2.16,2.61,.8,2.63-1.69,3.58-3.02,5.25-1.04,1.3-.11,3.75,.12,5.21,.29,1.77,.57,3.53,.86,5.3,.51,3.17,.86,6.44,1.92,9.48,1,2.88,2.79,4.79,5.33,6.39,2.03,1.28,4.29,2.48,5.62,4.56,.77,1.21,1.02,2.56,1.08,3.97,.07,1.5-.13,3.19,1,4.36,1.02,1.07,2.55,1.58,3.67,2.55,.94,.82,1.73,1.85,2.29,2.96,1.21,2.37,1.52,5.11,.78,7.67-.48,1.65-1.6,3.52-1.16,5.29,.37,1.48,1.77,2.7,2.78,3.77,2.35,2.49,4.88,4.81,7.56,6.93,2.68,2.12,5.75,4.3,9.34,4.12,6.05-.3,10.34-6.31,13.96-10.45,8.42-9.64,19.48-18.97,33.03-18.4Z"/>
<path class="cls-1" d="M158.04,196.49c-1.85,4.97-3.39,10.05-4.61,15.22,1.17,.29,2.28-.22,3.17-1.04,.08-.29,.28-.49,.55-.57,.14-.17,.27-.34,.39-.51,0-.15,.03-.3,.11-.45,.28-.53,.58-1.04,.9-1.53,.82-1.97,1.33-4.12,1.93-6.13,1.52-5.07,2.95-10.16,4.27-15.28,4.74-18.33,8.06-36.94,9.83-55.79,1.3-13.79,2.5-28.5,9.89-40.47-1.49,.94-2.97,1.89-4.46,2.83-.62,.39-1.56-.11-1.5-.86,.06-.86,.1-1.72,.13-2.58-.2,.64-.41,1.28-.65,1.92-.27,.71-1.44,1.1-1.83,.24-.72-1.6-1.44-3.21-2.16-4.81,0,6.93-.16,13.86-.51,20.78-1.52,29.87-6.34,59.56-14.31,88.38-.16,.59-.68,.77-1.15,.67Z"/>
<path class="cls-1" d="M231.69,292.57c-1.66-7.15-5.5-13.54-9.29-19.74-1.73-2.83-3.64-5.22-6.58-6.86-2.61-1.46-5.31-2.6-7.62-4.54-4.28-3.61-6.95-8.71-9.48-13.61-6.02-11.69-12.69-23.02-20.08-33.9-3.34,3.64-7.5,7.41-12.77,6.73-4.25-.55-7.82-3.73-8.96-7.77-1.47,.93-3.21,1.23-5.01,.37-1.96,.95-4.11,1.23-6.26,1.45-2.21,.23-4.86,.31-6.68,1.77-2.05,1.64-2.11,4.73-2.49,7.11-.5,3.18-1,6.37-1.51,9.55-.27,1.71-.55,3.43-.81,5.14-.22,1.43-.41,2.72,1.07,3.47,2.49,1.26,5.8,1.6,8.54,1.72,5.2,.23,11.58-.65,15.53-4.39,1.63-1.55,2.65-3.54,2.63-5.81-.02-2.16-.94-4.21-2.9-5.24-1.14-.6-.13-2.33,1.01-1.73,2.48,1.3,3.76,3.92,3.88,6.65,.13,2.89-1.13,5.57-3.21,7.54-4.45,4.21-11.52,5.3-17.4,4.95-1.78-.11-3.57-.36-5.31-.76-1.36-.31-2.87-.64-4.08-1.38-3.04-1.84-1.66-5.67-1.22-8.5,.59-3.75,1.19-7.51,1.78-11.26,.45-2.85,.6-6.19,2.86-8.29,3.08-2.85,7.52-2.14,11.39-3-3.09-1.98-4.4-6.83-6.84-9.38-1.16-1.21-2.5-1.77-4.2-1.69-2.43,.11-4.92,.86-7.29,1.34l-14.04,2.82c.6,1.93,.91,3.94,.87,5.97-.09,4.83-1.96,9.67-5.31,13.17-1.87,1.96-4.54,3.33-5.9,5.74-.8,1.42-.92,2.84-.14,4.28,.61,1.12,.92,2.01,.36,3.25-.92,2.04-2.76,3.88-4.34,5.41-1.61,1.56-3.36,2.95-5.15,4.31-.2,.15-.41,.3-.61,.46-.09,.39-.39,.7-.9,.67-3.24,2.39-6.56,4.7-9.37,7.6-1.54,1.59-2.88,3.36-3.88,5.35-1.28,2.55-1.83,5.38-2.24,8.18-.81,5.43-1.31,10.76-4.53,15.4-1.5,2.15-3.34,4.18-4.33,6.64-1.18,2.94-.59,6.03,.28,8.97,1.85,6.24,4.25,12.37,6.91,18.31,1.01,2.25,2.03,4.95,4.1,6.46,1.3,.94,2.87,.98,4.38,1.36,1.18,.3,2.22,.82,3.13,1.63,1.83,1.62,2.78,3.97,4.34,5.81,1.63,1.93,3.71,3.46,6.01,4.49,2.45,1.1,5.16,1.6,7.83,1.43,3-.19,5.86-1.28,8.72-2.1,5.64-1.61,11.54-1.75,17.26-.45,2.76,.63,5.44,1.59,7.99,2.82,2.61,1.27,5.07,2.83,7.65,4.16,1.36,.7,2.74,1.33,4.2,1.8,1.21,.39,3.3,1.22,4.35,.17,.82-.82,1.12-2.13,1.85-3.05,.63-.79,1.4-1.44,2.27-1.95,4.47-2.65,9.76-1.4,14.64-1.97,1.51-.17,3.02-.56,4.33-1.36,.96-.59,1.76-1.41,2.58-2.18,1.56-1.46,3.44-3.17,5.75-2.78,1.03,.17,2.32,1.39,3.34,1.02,.95-.34,1.47-1.66,1.8-2.51,.9-2.32,1.47-4.66,2.69-6.86,2.45-4.42,6.25-8.09,10.78-10.34,2.24-1.11,4.69-1.94,6.69-3.48,1.11-.86,1.83-1.89,2.46-3.13,.53-1.05,1.11-2.03,2.07-2.75,3.66-2.73,8.47-.04,12.48-1.38-.06-3.55-.11-7.09-.17-10.64,0-.23,.07-.41,.18-.56-.03-.05-.07-.1-.08-.16Z"/>
<path class="cls-1" d="M280.91,247.23c-.84-5.43-.35-10.92-.53-16.39-.18-5.44-1.2-10.82-3.02-15.95-.91-2.59-2.03-5.11-3.35-7.51-1.2-2.2-2.58-4.15-5.15-4.76-1.2-.28-2.43-.38-3.61-.76-1.12-.36-2.17-.9-3.18-1.5-2.14-1.28-4.11-2.73-6.5-3.53-4.59-1.52-9.52-1.26-14.29-1.42-4.62-.15-9.36-.69-13.36-3.2-3.76-2.35-8.51-7.89-13.44-5.24-.53,.29-1.03,.05-1.3-.34-1.33,1.58-2.81,3.04-4.3,4.33-3.51,3.05-7.62,4.54-12.15,5.35-4.61,.82-9.22,1.28-13.61,3.02-1.13,.45-2.23,.95-3.32,1.47,6.77-.79,14.03,.04,18.76,5.45,2.22,2.55,3.44,5.8,3.06,9.2-.35,3.18-1.97,6.11-4.74,7.79-1.11,.67-2.11-1.06-1.01-1.73,2.44-1.47,3.74-4.21,3.82-7.01,.08-2.91-1.2-5.57-3.25-7.59-5.2-5.13-13.05-4.94-19.72-3.62-.43,.09-.77-.09-.99-.37-5.31,2.92-10.48,6.12-16.43,7.53-.22,.32-.45,.64-.71,.93,.56,3.96,4.27,7.25,8.27,7.34,4.71,.11,8.29-3.92,11.17-7.13,.46-.51,1.23-.3,1.57,.2,4.42,6.45,8.61,13.05,12.55,19.81,3.33,5.73,6.35,11.6,9.46,17.45,2.71,5.09,5.86,10.16,11.05,13.03,2.68,1.48,5.55,2.6,7.77,4.79,2.19,2.16,3.7,4.94,5.26,7.56,3.12,5.25,6.1,10.67,7.66,16.61,3.56-1.01,7.39-1.02,10.94,.07,1.97,.61,3.84,1.97,5.91,2.17,2.13,.2,4.36-.83,6.23-1.74,1.76-.86,3.53-2.05,2.77-4.27-.7-2.05-2.11-4.05-3.18-5.92-2.19-3.81-4.51-7.55-6.94-11.22-.51-.77,.33-1.64,1.13-1.47,4.98,1.07,11.23,2.15,14.94-2.29,1.64-1.96,2.62-4.37,4.17-6.39,1.52-1.98,3.56-3.47,5.89-4.37,1.98-.77,4.23-.53,6.15-1.36,1.5-.65,.77-2.05,.4-3.27-.38-1.24-.66-2.5-.85-3.78Z"/>
<path class="cls-1" d="M78.39,138.14c3.06-.31,6.08,.3,8.89,1.48,5.69,2.4,10.23,6.74,15.43,9.96,3.07,1.9,6.4,3.35,9.88,4.3,3.37,.92,6.79,1.01,10.21,1.59,1.53,.26,3.06,.74,4.34,1.64,1.31,.92,2.26,2.19,3.21,3.45,1.86,2.48,3.71,4.97,5.56,7.45,.18-3.03,.57-6.28,2.92-8.45,2.57-2.38,5.9-1.57,8.96-.77,1.59,.42,3.28,.85,4.74,1.61,1.35,.7,2.08,1.81,2.42,3.26,.89,3.78,1.61,7.6,2.41,11.4,.27,1.26-1.66,1.79-1.93,.53-.65-3.08-1.3-6.17-1.95-9.25-.27-1.29-.31-3.11-1.48-3.94-1.04-.74-2.46-1.04-3.67-1.39-2.47-.72-5.92-2.03-8.09-.04-2.08,1.91-2.23,4.93-2.37,7.55-.03,.57-.44,.87-.88,.94,.12,.17,.25,.33,.37,.5,2.32,3.1,4.64,6.2,6.95,9.31,1.98,2.68,3.89,5.47,4.82,8.71,1.63,5.7,.24,12.44,3.85,17.47,1.16-4.08,2.5-8.1,4.07-12.05,.17-.42,.52-.62,.88-.65,1.95-7.21,3.71-14.47,5.26-21.77,4.26-20.1,6.98-40.51,8.16-61.02-.03,0-.05,.01-.08,0-4.39-.52-8.67,.98-11.75,4.16-1.38,1.43-2.62,3.01-4.3,4.11-1.65,1.08-3.62,1.55-5.58,1.57-3.83,.03-7.48-1.46-11.03-2.73-3.98-1.42-8.04-2.64-12.21-3.33-4.2-.7-8.56-.83-12.73,.07-3.96,.85-7.53,2.78-11.39,3.93-3.88,1.15-7.52,.88-11.39-.18-3.93-1.08-7.69-2.23-11.77-1.19-7.5,1.91-12.29,8.43-15.28,15.19,4.24,.93,7.94,3.66,9.92,7.55,1.51-.46,3.04-.82,4.63-.99Z"/>
<path class="cls-1" d="M181.03,102.53c-1,3.26-1.75,6.61-2.32,9.97-1.46,8.46-1.93,17.04-2.89,25.56-1.1,9.72-2.64,19.39-4.58,28.98-1.96,9.66-4.31,19.24-7,28.73-.68,2.39-1.38,4.77-2.09,7.15-.05,.17-.1,.34-.15,.51,1.77-1.72,3.77-3.21,5.89-4.5,4.27-2.59,8.97-4.35,13.53-6.33,3.97-1.72,8.52-3.65,10.97-7.42,.7-1.08,1.34-2.36,1.23-3.68-.11-1.27-.88-2.46-1.45-3.57-1.17-2.26-2.3-4.54-3.5-6.77-1.02-1.89-2.35-3.9-4.7-4.07-2.45-.19-4.79,1.28-6.78,2.53-1.1,.69-2.1-1.05-1.01-1.73,2.3-1.44,4.98-2.97,7.79-2.8,2.6,.16,4.47,1.83,5.79,3.95,1.48,2.38,2.64,4.98,3.92,7.46,1.14,2.2,2.4,4.35,1.73,6.91-1.21,4.67-5.92,7.63-9.98,9.57-8.58,4.11-19.06,6.9-24.72,15.04,8.49-2.61,15.55-8.6,24.01-11.37,4.28-1.4,8.79-1.65,13.17-2.58,4.62-.98,8.32-3.02,11.61-6.41,3.29-3.39,6.44-7.26,6.63-12.19,.19-5.02-1.36-10.18-2.46-15.04-1.08-4.81-2.14-9.64-2.61-14.56-.48-5.02-.18-10.05,.61-15.02,.79-4.97,2.13-9.78,3.44-14.63,1-3.71,1.93-7.94,.15-11.49-4.8,4.09-10.55,6.92-16.75,8.15-.23,.04-.42,0-.59-.07-1.07,3.29-3.24,6.34-3.29,9.89-.04,2.73,.68,5.39,.95,8.1,.24,2.46-.03,4.91-.8,7.26-1.55,4.71-4.67,8.69-7.73,12.52-.8,1.01-2.21-.42-1.41-1.41,3.03-3.8,6.21-7.83,7.5-12.6,1.23-4.56-.44-8.85-.5-13.42-.07-4.39,2.56-7.68,3.6-11.77,.21-.82,.63-2.45,.02-3.18-.51-.6-1.53-.17-2.18,0-1.51,.39-3.09,.72-4.45-.26-1.43-1.03-1.85-2.84-2.14-4.48-.16-.92-.3-2.2-1.04-2.87-.26-.23-.91-.5-1.37-.4,.04,.39-.14,.81-.49,.99-.85,.45-1.7,.91-2.56,1.36-.32,.17-.68,.15-.97,0Z"/>
<path d="M282.62,244.93c-.29-2.99-.24-5.99-.21-8.99,.05-5.86-.31-11.61-1.8-17.31-.7-2.68-1.62-5.3-2.72-7.84-1.07-2.48-2.24-5.08-3.94-7.2-1.64-2.03-3.66-2.76-6.16-3.21-2.81-.5-4.93-1.94-7.31-3.41-4.43-2.75-9.44-3.32-14.55-3.46-5.74-.15-11.92,.14-16.98-3.03-4.26-2.67-8.88-7.65-14.25-5.77,1.04-1.46,1.92-3.02,2.53-4.64,1.76-4.68,.56-9.87-.42-14.59-1.08-5.22-2.42-10.38-3.26-15.65-.84-5.28-.96-10.58-.33-15.89,.7-5.87,2.27-11.52,3.8-17.21,1.24-4.58,2.23-9.88-.65-14.06-.38-.54-1.07-.66-1.57-.2-4.63,4.23-10.3,7.08-16.42,8.37,.1-.67,.14-1.35,.08-2.06-.16-1.93-1.53-3.09-3.45-2.86-.89,.11-1.73,.44-2.61,.59-1.36,.23-2.14-.43-2.59-1.7-.72-2.03-.43-4.76-2.49-6.08-1.59-1.02-3.79-.67-4.56,1.12-.34,.18-.69,.37-1.03,.55,1.66-4.76,3.92-9.28,7.1-13.27,.14-.17,.2-.38,.22-.58,.87,.63,1.96,.94,3.06,.81,1.83-.22,3.43-1.36,4.12-3.08,.38-.95,.38-2.02-.07-2.94-.39-.8-1.11-1.44-1.92-1.79-.69-.3-1.43-.4-2.14-.33-1.38-.33-2.87,.1-3.86,1.17-1.22,1.32-1.32,3.24-.45,4.78,.05,.09,.11,.17,.17,.25-.11,.03-.23,.07-.35,.14-2.33,1.48-4.66,2.96-6.99,4.44,.03-.73,.06-1.46,.08-2.19,.02-.04,.05-.07,.06-.11,.37-.96,.63-1.95,.82-2.96,.05-.13,.09-.27,.14-.4,.03-.08,.06-.15,.09-.23,.02-.04,.03-.07,.05-.11,0-.01,0-.01,.01-.03,.08-.18,.16-.35,.24-.53,.16-.34,.16-.77-.04-1.07,.15-.07,.29-.19,.41-.37,1.81-2.83,2.97-5.89,3.84-9.06,.14,.69,.54,1.31,1.12,1.71,.91,.62,2.19,.4,3.04-.2,.74-.51,1.33-1.3,1.51-2.19,.19-.93,0-1.97-.78-2.59-.74-.6-1.71-.73-2.59-.41-.3-.05-.61,.03-.87,.25-.31,.26-.57,.56-.8,.89,.71-3.1,1.22-6.27,1.83-9.37,.74-3.75,1.66-7.48,3.25-10.97,1.58-3.47,3.64-6.69,5.93-9.72,.24,.25,.5,.47,.82,.64,1.45,.77,3.34,.52,4.39-.8,1.08-1.36,1.48-3.27,.75-4.89-.71-1.57-2.89-2.43-4.38-1.41-.01,0-.02,.02-.03,.03-1.21,.52-2.22,1.58-2.5,2.88-.11,.5-.11,1.03-.02,1.54-2.45,3.17-4.69,6.49-6.4,10.12-1.64,3.46-2.7,7.1-3.48,10.83-.18,.86-.35,1.73-.51,2.6-.76-4.81-2.69-9.29-5.26-13.49,.2-.16,.34-.4,.36-.72,.73-11.68,6.32-22.75,15.21-30.35,.02-.02,.03-.04,.05-.06,.35,.26,.74,.46,1.16,.55,1.13,.22,2.19-.25,2.85-1.19,.02-.03,.04-.06,.05-.09,.18-.04,.35-.12,.47-.26,.73-.81,.93-1.97,.57-3-.35-1-1.07-1.91-1.85-2.62-.82-.76-1.97-1.12-2.99-.51-.82,.49-1.33,1.42-1.56,2.32-.27,1.09-.29,2.23,.12,3.28-.1,.04-.2,.08-.3,.16-8.17,6.98-13.59,16.81-15.3,27.37-2.21-6.03-4.44-12.24-4.39-18.75,.02-3.21,.62-6.41,2.01-9.31,1.23-2.56,2.9-4.85,4.67-7.06,.55,.41,1.2,.69,1.9,.74,.89,.06,1.75-.34,2.41-.9,1.28-1.08,1.82-2.92,1.42-4.53-.38-1.52-1.75-3.09-3.39-3.23-.03,0-.06,0-.09,0-.24-.21-.58-.3-.91-.23-1.54,.3-2.83,1.63-3.17,3.16-.26,1.16-.05,2.41,.51,3.46-1.87,2.32-3.67,4.71-4.99,7.4-1.48,3.01-2.23,6.28-2.36,9.63-.06,1.62,.02,3.21,.2,4.8-5.13-6.52-11.65-11.87-19.11-15.56,.28-.79,.39-1.61-.02-2.39-.51-.97-1.66-1.19-2.62-.84-1.53,.56-2.71,1.88-2.86,3.53-.07,.76,.17,1.53,.67,2.1,.6,.68,1.6,.88,2.45,.65,.67-.18,1.24-.63,1.63-1.19,7.91,3.97,14.79,9.82,19.91,17.06,.16,.22,.36,.35,.58,.41,.86,4.01,2.26,7.92,3.66,11.75,0,0,0,0,0,0-3.58-4.79-7.83-9.17-11.86-13.23-.03-.03-.07-.04-.11-.07,.19-.18,.31-.43,.33-.72,.03-.33-.02-.64-.11-.93-.11-.86-.56-1.69-1.23-2.25-.25-.21-.52-.41-.82-.56-.42-.21-.96-.14-1.26,.23-.68,.08-1.33,.42-1.77,.96-.16,.2-.29,.4-.41,.61-.49,.59-.79,1.39-.61,2.15,0,.16,.03,.32,.12,.46,.03,.06,.1,.11,.15,.16,.3,.52,.74,.91,1.27,1.16,.38,.28,.85,.46,1.31,.53,.63,.08,1.21-.05,1.72-.33,0,0,0,.01,.01,.02,9.19,9.24,19.64,20.18,19.9,33.85-4.12-8.17-12.11-13.86-19.61-18.95,.07-.09,.12-.19,.16-.31,.52-1.93-1.08-3.9-3.05-3.92-1.97-.02-3.67,1.72-3.62,3.67,.02,1.04,.51,2.01,1.39,2.59,.8,.52,1.93,.62,2.83,.3,.43-.15,.82-.39,1.16-.69,8.4,5.69,17.59,12.14,20.58,22.32-.86,3.49-2.05,6.88-4.02,9.97-.08,.13-.13,.26-.15,.38-.06-1.11-.13-2.22-.23-3.33,0-3.79-.55-7.58-1.68-11.22,0-.01-.01-.02-.01-.03,.11-.12,.21-.24,.3-.38,.41-.6,.57-1.34,.43-2.04-.11-.59-.5-1.08-.97-1.43-.4-.29-.87-.44-1.36-.49-.21-.12-.44-.22-.67-.28-.67-.16-1.32-.05-1.93,.24-1.17,.57-1.83,1.9-1.6,3.17,.22,1.21,1.35,2.22,2.55,2.4,.5,.07,.99,.04,1.45-.09,.7,3.35,1.2,6.73,1.5,10.13,0,3.43-.49,6.86-1.47,10.18-1.01-2.25-2.02-4.51-3.03-6.76-.09-.21-.24-.34-.41-.41,.4-.24,.76-.54,1.04-.93,.75-1.08,.6-2.61-.09-3.67-.64-.97-1.68-1.71-2.83-1.93-2.51-.49-4.79,1.23-5.62,3.54-.25,.7-.37,1.53-.12,2.25,.24,.71,.72,1.27,1.33,1.68,1.39,.94,3.12,.66,4.66,.35,.07-.01,.12-.06,.18-.09,.09,8.61-.09,17.22-.55,25.81-.06-.02-.11-.05-.17-.06-3.66-.43-7.46,.46-10.53,2.52-3.18,2.14-5.09,6.17-9.03,7.08-3.93,.91-8.08-.8-11.71-2.12-4.11-1.49-8.31-2.81-12.62-3.56-4.13-.73-8.32-.95-12.47-.33-4.21,.63-7.95,2.49-11.94,3.85-1.95,.67-3.96,1.18-6.03,1.17-2.18,0-4.3-.6-6.38-1.19-3.86-1.09-7.6-1.96-11.59-1.05-8.8,2.01-14.25,9.83-17.51,17.7-.28,.67,.4,1.2,.96,1.27,3.99,.49,7.45,2.97,9.38,6.43-1.21,.42-2.41,.88-3.62,1.33-3.23,1.19-6.67,2.3-10.16,1.98-3.66-.33-5.88-2.76-8.83-4.61-2.36-1.48-5.67-2.29-8.06-.44-1.14,.89-1.75,2.2-2.68,3.27-1.01,1.16-2.34,1.95-3.73,2.56-2.64,1.14-5.49,1.7-8.12,2.87-2.9,1.3-5.32,3.43-7.41,5.78-2.17,2.44-4.47,5.11-6.05,7.97-1.57,2.83-1.9,6.06-3.79,8.76-3.23,4.62-8.36,8.06-9.22,14.02-.39,2.73,.08,5.52,1.28,7.99,.6,1.24,1.4,2.39,2.36,3.38,.96,1,2.21,1.66,3.17,2.65,1.16,1.21,.47,2.07-.6,2.98-.86,.72-1.77,1.45-2.14,2.56-.5,1.52,.05,3.29,.29,4.8,.31,1.93,.62,3.85,.93,5.78,.98,6.05,1.47,12.79,6.88,16.65,2.04,1.46,4.73,2.5,6.19,4.63,1.74,2.52,.14,5.9,2.06,8.39,.86,1.11,2.13,1.69,3.28,2.44,1.29,.84,2.29,2.06,2.93,3.46,.56,1.22,.82,2.58,.76,3.93-.09,1.84-1.02,3.45-1.44,5.21-.82,3.47,1.3,5.66,3.54,8,2.47,2.58,5.13,4.97,7.96,7.15,2.53,1.96,5.31,3.79,8.57,4.12,2.87,.29,5.67-.71,8.03-2.29,5.35-3.58,9.03-9.29,13.54-13.79,4.93-4.92,10.63-9.24,17.33-11.39,2.22-.71,4.5-1.15,6.81-1.3-1.79,1.32-3.57,2.66-5.25,4.13-3.5,3.07-6.37,6.73-7.72,11.24-1.66,5.52-1.19,11.6-3.56,16.93-2.14,4.83-6.82,8.21-7.13,13.82-.18,3.15,.9,6.26,1.87,9.2,1.04,3.15,2.17,6.26,3.4,9.35,1.12,2.83,2.31,5.65,3.6,8.4,1.02,2.18,2.27,4.43,4.37,5.75,1.14,.71,2.42,.94,3.71,1.19,1.56,.3,2.79,.83,3.84,2.05,1.65,1.9,2.69,4.21,4.48,6.02,3.54,3.57,8.6,5.67,13.63,5.58,3-.06,5.86-.96,8.7-1.82,2.87-.87,5.74-1.51,8.74-1.64,6.2-.26,12.31,1.3,17.77,4.2,2.56,1.36,5.02,2.91,7.66,4.13,2.21,1.03,5.26,2.46,7.76,1.88,2.52-.58,2.75-3.57,4.54-5.05,1.87-1.55,4.5-1.99,6.85-2.12,2.68-.14,5.37,.12,8.05-.22,2.65-.34,4.88-1.3,6.86-3.08,.9-.82,1.74-1.73,2.74-2.44,1.28-.91,2.18-.94,3.58-.26,1.97,.96,3.75,.62,5.04-1.21,1.41-1.99,1.7-4.55,2.67-6.74,1.1-2.48,2.63-4.76,4.5-6.72,1.83-1.92,3.96-3.5,6.33-4.7,2.23-1.12,4.63-1.96,6.67-3.42,.91-.65,1.73-1.4,2.38-2.31,.84-1.15,1.2-2.71,2.3-3.66,1.73-1.5,4.5-1.02,6.58-.87,2.21,.15,4.36,.17,6.43-.72,.31-.13,.5-.55,.5-.86-.06-3.77-.12-7.55-.18-11.32,0-.08-.03-.13-.04-.2,2.08-.63,4.23-.92,6.42-.76,2.54,.18,4.75,1.04,7.04,2.06,2.13,.95,4.17,1.16,6.43,.51,1.88-.54,3.94-1.37,5.55-2.5,1.38-.97,2.47-2.32,2.45-4.09-.03-2.23-1.69-4.45-2.74-6.32-2.08-3.71-4.29-7.34-6.6-10.9,3.94,.72,8.19,1.04,11.74-.98,4.47-2.55,5.33-8.23,9.41-11.16,2.15-1.55,4.43-1.92,6.97-2.33,1.79-.29,3.85-1.05,4.1-3.11,.15-1.27-.47-2.49-.8-3.69-.44-1.6-.72-3.24-.88-4.89ZM193.05,81.26s-.06-.02-.09-.03c.03,0,.06,.02,.09,.03Zm-3.66-9.22s0,0,0,0c.01,0,.02,0,.04,.02-.01,0-.03,0-.05-.01Zm.02-.01s.02,0,.03,0c0,0-.02,0-.03,0,0,0,0,0,0,0Zm-.07-.01s.04,0,.06,0c0,0,0,0-.01,0,0,0,0,0,0,0,0,0,0,0,0,0,0,0,0,0-.01,0,0,0,0,0,0,0,0,0,0,0,0,0,0,0,0,0,0,0,0,0,0,0,0,0,0,0,0,0,0,0,0,0-.02,0-.03,0,0,0,0,0-.01,0,0,0,0,0,0,0,0,0,0,0,.01,0-.01,0-.02,0-.03,0,.01,0,.03,0,.05,0Zm-.17-.09s0,0,0-.01c-.02-.02-.03-.04-.04-.07,0,0,.03,.04,.05,.08Zm-.08-.61s0,0,0,0c0,0,0,0,0,0,0,0,0,0,0,.01,0,0,0,0,0-.01Zm-.32,1.7s.02,0,.02,0c0,0-.02,0-.02,0,0,0-.02,0-.03,0,0,0,.01,0,.03,0Zm-.46-.33s.01,.04,.02,.06c0,0,0,0,0-.01,0-.02-.01-.05-.02-.07,0,0,.01,.02,.02,.02ZM151.52,12.82s0,.02-.01,.03c0-.01,.01-.03,.02-.04,0,0,0,.01,0,.02Zm11.52,16.64s0,0,0,0c0,0,0,0,0,0,0,0,0,0,0,0Zm.6,.58s-.03,.01-.05,.02c0,0-.01,0-.02,0,.04-.03,.07-.04,.09-.04,0,0,0,0-.01,0Zm-.99,16.2s0-.02,0-.03c0,0,0,0,0,0,0,0,0,0,0,0,0,0,0,.01,0,.02Zm.02-.05s0-.01,0-.02c0,0,0,0,0,0,0,0,0,.02,0,.02Zm.01-.08s0,0,0-.02c0,0,0,.02,0,.03,0,0,0,0,0,0,0,0,0,0,0,0Zm0,.11s0,0,0,0c0,0,.01,.01,.01,.02,0,0,0-.01-.01-.02Zm.79-.67h0s0,0,0,.01c0,.01,0,.02,0,.03,0-.01,0-.03-.01-.04Zm17.32,36.52c-.05,.02-.11,.03-.15,.07,0-.14-.02-.27-.02-.41,.03,.12,.09,.24,.18,.34Zm-5.33-17.1c.02,.08,.04,.16,.08,.24-.04-.08-.06-.16-.08-.24Zm6.53,37.56c.85-.45,1.7-.91,2.56-1.36,.34-.18,.53-.61,.49-.99,.45-.1,1.11,.17,1.37,.4,.74,.67,.88,1.94,1.04,2.87,.29,1.64,.71,3.44,2.14,4.48,1.36,.98,2.94,.65,4.45,.26,.66-.17,1.67-.6,2.18,0,.61,.73,.19,2.36-.02,3.18-1.03,4.09-3.66,7.39-3.6,11.77,.07,4.57,1.74,8.85,.5,13.42-1.29,4.77-4.47,8.81-7.5,12.6-.8,1,.61,2.42,1.41,1.41,3.06-3.83,6.17-7.81,7.73-12.52,.77-2.35,1.04-4.8,.8-7.26-.26-2.7-.99-5.37-.95-8.1,.05-3.55,2.23-6.6,3.29-9.89,.17,.07,.37,.12,.59,.07,6.2-1.23,11.95-4.06,16.75-8.15,1.78,3.55,.86,7.78-.15,11.49-1.31,4.85-2.65,9.66-3.44,14.63-.79,4.97-1.09,10-.61,15.02,.47,4.92,1.53,9.75,2.61,14.56,1.09,4.86,2.65,10.02,2.46,15.04-.19,4.93-3.34,8.8-6.63,12.19-3.29,3.39-6.99,5.43-11.61,6.41-4.38,.93-8.89,1.18-13.17,2.58-8.46,2.77-15.52,8.76-24.01,11.37,5.65-8.14,16.13-10.93,24.72-15.04,4.06-1.94,8.77-4.9,9.98-9.57,.67-2.56-.6-4.7-1.73-6.91-1.28-2.48-2.45-5.08-3.92-7.46-1.32-2.12-3.19-3.79-5.79-3.95-2.82-.17-5.49,1.36-7.79,2.8-1.09,.68-.09,2.41,1.01,1.73,1.99-1.25,4.33-2.71,6.78-2.53,2.35,.18,3.68,2.19,4.7,4.07,1.21,2.23,2.34,4.51,3.5,6.77,.57,1.11,1.34,2.29,1.45,3.57,.11,1.32-.52,2.6-1.23,3.68-2.45,3.77-7,5.7-10.97,7.42-4.57,1.98-9.26,3.74-13.53,6.33-2.11,1.28-4.12,2.77-5.89,4.5,.05-.17,.1-.34,.15-.51,.72-2.38,1.42-4.76,2.09-7.15,2.69-9.48,5.04-19.06,7-28.73,1.94-9.59,3.49-19.26,4.58-28.98,.96-8.52,1.44-17.11,2.89-25.56,.58-3.35,1.32-6.71,2.32-9.97,.29,.16,.64,.18,.97,0Zm-8.5,4.89c.35-6.92,.52-13.85,.51-20.78,.72,1.6,1.44,3.21,2.16,4.81,.39,.86,1.56,.48,1.83-.24,.24-.63,.45-1.27,.65-1.92-.03,.86-.07,1.72-.13,2.58-.05,.75,.89,1.25,1.5,.86,1.49-.94,2.97-1.89,4.46-2.83-7.39,11.97-8.59,26.68-9.89,40.47-1.78,18.85-5.09,37.46-9.83,55.79-1.33,5.12-2.75,10.22-4.27,15.28-.6,2.01-1.12,4.16-1.93,6.13-.32,.5-.62,1.01-.9,1.53-.08,.15-.11,.3-.11,.45-.12,.17-.25,.35-.39,.51-.26,.08-.47,.28-.55,.57-.89,.82-2,1.33-3.17,1.04,1.22-5.17,2.76-10.24,4.61-15.22,.47,.1,.99-.08,1.15-.67,7.98-28.82,12.79-58.51,14.31-88.38Zm-109.66,24.14c2.98-6.76,7.78-13.28,15.28-15.19,4.08-1.04,7.84,.11,11.77,1.19,3.86,1.07,7.51,1.33,11.39,.18,3.86-1.15,7.44-3.08,11.39-3.93,4.18-.9,8.54-.77,12.73-.07,4.17,.7,8.24,1.91,12.21,3.33,3.55,1.26,7.19,2.76,11.03,2.73,1.96-.02,3.93-.49,5.58-1.57,1.68-1.1,2.92-2.68,4.3-4.11,3.08-3.18,7.36-4.68,11.75-4.16,.03,0,.05,0,.08,0-1.17,20.51-3.9,40.92-8.16,61.02-1.55,7.31-3.31,14.56-5.26,21.77-.36,.04-.71,.23-.88,.65-1.56,3.95-2.91,7.97-4.07,12.05-3.61-5.03-2.22-11.77-3.85-17.47-.93-3.24-2.83-6.03-4.82-8.71-2.3-3.11-4.63-6.21-6.95-9.31-.12-.17-.25-.33-.37-.5,.44-.07,.85-.37,.88-.94,.14-2.63,.29-5.65,2.37-7.55,2.18-1.99,5.62-.68,8.09,.04,1.2,.35,2.63,.65,3.67,1.39,1.17,.83,1.21,2.65,1.48,3.94,.65,3.08,1.3,6.17,1.95,9.25,.27,1.26,2.19,.73,1.93-.53-.8-3.8-1.52-7.62-2.41-11.4-.34-1.45-1.08-2.56-2.42-3.26-1.46-.76-3.16-1.2-4.74-1.61-3.07-.8-6.39-1.6-8.96,.77-2.35,2.17-2.74,5.42-2.92,8.45-1.85-2.49-3.7-4.97-5.56-7.45-.95-1.26-1.9-2.54-3.21-3.45-1.28-.9-2.81-1.38-4.34-1.64-3.42-.58-6.83-.67-10.21-1.59-3.48-.95-6.81-2.4-9.88-4.3-5.2-3.21-9.75-7.55-15.43-9.96-2.81-1.19-5.83-1.8-8.89-1.48-1.59,.16-3.12,.53-4.63,.99-1.98-3.89-5.68-6.62-9.92-7.55Zm-2.26,133.39c-3.62,4.14-7.91,10.15-13.96,10.45-3.59,.18-6.66-2-9.34-4.12-2.68-2.12-5.21-4.44-7.56-6.93-1.01-1.07-2.41-2.29-2.78-3.77-.44-1.78,.68-3.64,1.16-5.29,.74-2.56,.43-5.3-.78-7.67-.57-1.11-1.35-2.14-2.29-2.96-1.12-.97-2.64-1.48-3.67-2.55-1.13-1.18-.93-2.86-1-4.36-.06-1.41-.31-2.77-1.08-3.97-1.33-2.08-3.59-3.29-5.62-4.56-2.54-1.6-4.33-3.51-5.33-6.39-1.06-3.04-1.41-6.32-1.92-9.48-.29-1.77-.57-3.53-.86-5.3-.24-1.46-1.16-3.91-.12-5.21,1.33-1.67,3.82-2.62,3.02-5.25-.34-1.12-1.27-1.93-2.16-2.61-1.19-.93-2.33-1.81-3.2-3.07-1.61-2.32-2.38-5.23-2.06-8.04,.33-2.89,1.94-5.32,3.79-7.48,1.79-2.09,3.78-4.02,5.34-6.3,.74-1.09,1.35-2.24,1.81-3.48,.64-1.72,.98-3.52,1.87-5.14,1.57-2.83,3.85-5.48,6.01-7.87,2.16-2.38,4.62-4.39,7.65-5.54,2.59-.98,5.33-1.57,7.83-2.79,1.1-.54,2.14-1.22,3.03-2.07,1.09-1.05,1.7-2.56,2.86-3.52,2.75-2.27,6.39,.78,8.57,2.42,2.53,1.91,5.25,3.03,8.45,3.02,4.8-.02,9.09-2.18,13.53-3.67,.41,.23,.95,.03,1.24-.4,1.7-.51,3.43-.89,5.22-.98,6.11-.3,11.31,3.37,16.03,6.79,5.23,3.79,10.44,7.22,16.75,8.95,3.25,.89,6.5,1.05,9.81,1.53,1.6,.23,3.21,.65,4.5,1.68,1.51,1.21,2.58,2.97,3.73,4.51,4.42,5.93,8.94,11.8,13.27,17.8,1.92,2.66,3.55,5.43,4.21,8.68,.59,2.91,.61,5.91,1.01,8.85,.38,2.81,1.11,5.55,2.84,7.85,.29,.38,.72,.48,1.1,.39-.36,1.33-.69,2.67-1,4.01-2.34-.18-3.64-2.49-4.72-4.36-1.32-2.29-2.57-4.85-4.8-6.41-3.43-2.39-8.2-.55-11.9,.19-2.2,.44-4.41,.89-6.61,1.33-.11-.13-.23-.24-.42-.31-3.78-1.49-7.18-3.86-9.88-6.89-.3-.34-.61-.67-.87-1.04-.49-.69-.62-1.18,.17-1.64,.9-.52,2.16-.74,3.14-1.04,2.11-.65,4.25-1.21,6.4-1.67,2.22-.48,4.47-.87,6.72-1.14,2.12-.26,4.34-.5,6.4,.23,3.55,1.25,5.76,4.84,7.65,7.87,.68,1.09,2.41,.09,1.73-1.01-1.79-2.87-3.74-5.86-6.65-7.72-3.43-2.2-7.45-1.63-11.27-1.07-4.37,.64-8.68,1.66-12.87,3.03-1.45,.47-3.6,.86-3.9,2.66-.28,1.68,1.17,3.15,2.2,4.27,2.35,2.56,5.18,4.6,8.29,6.12-1.85,.37-3.7,.74-5.55,1.12-.5,.1-.88,.75-.7,1.23,1.84,4.88,1.39,10.4-1.18,14.94-1.34,2.37-3.21,4.09-5.28,5.8-2.02,1.67-3.91,3.61-4.26,6.33-.15,1.12,.03,2.22,.56,3.23,.53,1,.74,1.43,.08,2.46-.37,.58-.81,1.14-1.25,1.67-1.47,1.78-3.17,3.35-4.95,4.81-1.04,.85-2.11,1.67-3.19,2.47-13.56-.56-24.61,8.76-33.03,18.4Zm170.17,38.96c-4,1.34-8.82-1.35-12.48,1.38-.96,.72-1.54,1.69-2.07,2.75-.63,1.24-1.35,2.27-2.46,3.13-2,1.54-4.45,2.36-6.69,3.48-4.53,2.25-8.32,5.92-10.78,10.34-1.22,2.2-1.8,4.53-2.69,6.86-.33,.85-.86,2.17-1.8,2.51-1.02,.37-2.32-.85-3.34-1.02-2.31-.38-4.19,1.33-5.75,2.78-.82,.77-1.62,1.58-2.58,2.18-1.3,.8-2.82,1.19-4.33,1.36-4.89,.57-10.17-.68-14.64,1.97-.87,.51-1.64,1.17-2.27,1.95-.73,.92-1.03,2.23-1.85,3.05-1.05,1.05-3.14,.22-4.35-.17-1.45-.47-2.84-1.1-4.2-1.8-2.58-1.33-5.04-2.89-7.65-4.16-2.55-1.23-5.23-2.19-7.99-2.82-5.72-1.3-11.62-1.17-17.26,.45-2.86,.82-5.72,1.91-8.72,2.1-2.68,.17-5.39-.34-7.83-1.43-2.3-1.03-4.38-2.56-6.01-4.49-1.56-1.84-2.51-4.19-4.34-5.81-.91-.81-1.95-1.33-3.13-1.63-1.5-.38-3.08-.42-4.38-1.36-2.07-1.5-3.09-4.21-4.1-6.46-2.66-5.94-5.06-12.07-6.91-18.31-.87-2.93-1.46-6.03-.28-8.97,.99-2.46,2.83-4.49,4.33-6.64,3.22-4.64,3.72-9.97,4.53-15.4,.42-2.8,.97-5.63,2.24-8.18,1-1.99,2.34-3.75,3.88-5.35,2.81-2.9,6.13-5.22,9.37-7.6,.52,.02,.81-.29,.9-.67,.2-.15,.41-.3,.61-.46,1.78-1.35,3.53-2.75,5.15-4.31,1.59-1.53,3.42-3.38,4.34-5.41,.56-1.24,.25-2.12-.36-3.25-.78-1.43-.66-2.86,.14-4.28,1.36-2.41,4.03-3.78,5.9-5.74,3.35-3.51,5.22-8.34,5.31-13.17,.04-2.02-.27-4.04-.87-5.97l14.04-2.82c2.37-.48,4.87-1.23,7.29-1.34,1.7-.08,3.04,.49,4.2,1.69,2.44,2.55,3.75,7.39,6.84,9.38-3.87,.87-8.31,.15-11.39,3-2.26,2.09-2.41,5.44-2.86,8.29-.59,3.75-1.19,7.51-1.78,11.26-.45,2.83-1.82,6.66,1.22,8.5,1.21,.74,2.72,1.07,4.08,1.38,1.74,.4,3.53,.65,5.31,.76,5.88,.35,12.96-.74,17.4-4.95,2.08-1.97,3.34-4.65,3.21-7.54-.12-2.73-1.4-5.35-3.88-6.65-1.14-.6-2.15,1.13-1.01,1.73,1.96,1.03,2.88,3.09,2.9,5.24,.02,2.27-1,4.27-2.63,5.81-3.95,3.74-10.33,4.62-15.53,4.39-2.75-.12-6.05-.46-8.54-1.72-1.48-.75-1.28-2.05-1.07-3.47,.26-1.71,.54-3.43,.81-5.14,.5-3.18,1-6.37,1.51-9.55,.38-2.38,.45-5.47,2.49-7.11,1.82-1.46,4.46-1.54,6.68-1.77,2.15-.23,4.31-.51,6.26-1.45,1.8,.87,3.54,.56,5.01-.37,1.15,4.04,4.72,7.23,8.96,7.77,5.27,.68,9.43-3.09,12.77-6.73,7.39,10.88,14.06,22.21,20.08,33.9,2.52,4.89,5.2,10,9.48,13.61,2.31,1.95,5.01,3.09,7.62,4.54,2.94,1.64,4.85,4.03,6.58,6.86,3.79,6.2,7.63,12.59,9.29,19.74,.01,.06,.05,.11,.08,.16-.11,.15-.18,.33-.18,.56,.06,3.55,.11,7.09,.17,10.64Zm49.6-49.66c-1.92,.83-4.17,.59-6.15,1.36-2.33,.9-4.36,2.39-5.89,4.37-1.56,2.02-2.54,4.43-4.17,6.39-3.71,4.44-9.95,3.35-14.94,2.29-.79-.17-1.64,.7-1.13,1.47,2.43,3.66,4.75,7.4,6.94,11.22,1.07,1.87,2.49,3.87,3.18,5.92,.75,2.21-1.02,3.41-2.77,4.27-1.87,.91-4.1,1.95-6.23,1.74-2.07-.2-3.94-1.56-5.91-2.17-3.55-1.1-7.38-1.09-10.94-.07-1.56-5.94-4.54-11.36-7.66-16.61-1.56-2.62-3.07-5.4-5.26-7.56-2.22-2.19-5.09-3.3-7.77-4.79-5.18-2.87-8.34-7.93-11.05-13.03-3.11-5.85-6.13-11.72-9.46-17.45-3.93-6.76-8.12-13.37-12.55-19.81-.34-.5-1.11-.71-1.57-.2-2.88,3.22-6.45,7.25-11.17,7.13-4-.1-7.71-3.39-8.27-7.34,.25-.29,.49-.61,.71-.93,5.96-1.42,11.13-4.61,16.43-7.53,.22,.27,.56,.45,.99,.37,6.67-1.32,14.51-1.51,19.72,3.62,2.05,2.02,3.34,4.67,3.25,7.59-.08,2.8-1.38,5.54-3.82,7.01-1.1,.66-.1,2.39,1.01,1.73,2.77-1.67,4.39-4.61,4.74-7.79,.38-3.39-.84-6.65-3.06-9.2-4.72-5.41-11.99-6.24-18.76-5.45,1.09-.53,2.19-1.03,3.32-1.47,4.39-1.74,9-2.2,13.61-3.02,4.53-.8,8.64-2.3,12.15-5.35,1.49-1.29,2.96-2.75,4.3-4.33,.27,.39,.77,.63,1.3,.34,4.93-2.65,9.68,2.89,13.44,5.24,4,2.5,8.74,3.04,13.36,3.2,4.76,.16,9.7-.1,14.29,1.42,2.39,.79,4.36,2.25,6.5,3.53,1,.6,2.06,1.14,3.18,1.5,1.18,.38,2.41,.47,3.61,.76,2.57,.61,3.95,2.56,5.15,4.76,1.32,2.41,2.43,4.93,3.35,7.51,1.81,5.13,2.84,10.52,3.02,15.95,.18,5.47-.32,10.96,.53,16.39,.2,1.28,.48,2.54,.85,3.78,.37,1.21,1.11,2.62-.4,3.27Z"/></g></g></svg>
