<svg id="Calque_2" xmlns="http://www.w3.org/2000/svg" viewBox="0 0 193.8 370.86">
<g id="Calque_4"><g>
<path class="cls-1" d="M39.33,174.33c3.49-1.94,7.77-2.38,10.88-4.97,3.15-2.62,2.41-7.2,5.17-10.08,.48-.49,1.21-.31,1.57,.2,1.86,2.69,3.8,5.63,3.7,9.04-.04,1.45-.43,2.92-1.29,4.11-.42,.59-1.32,1.18-1.97,1.83,4.45-1.17,7.55-5.39,7.16-10.13-.22-2.71-1.7-5.01-3.62-6.86-.96-.92-2.02-1.74-3.11-2.5-.66-.46-2.35-1.9-3.19-1.18-.24,.2-.5,.27-.75,.25-.07,.09-.14,.17-.24,.22-.09,.06-.2,.08-.31,.1,.33,1.56-.01,3.28-.58,4.84-1.05,2.86-2.53,5.55-4.38,7.96-1.58,2.05-3.71,3.95-6.46,3.85-1.11-.04-2.75-.5-3.25-1.62-.52-1.16,.47-2.21,1.08-3.11,1.79-2.61,3.58-5.21,5.37-7.82-.35-.07-.72-.07-1.1-.01-1.26,.2-1.8-1.72-.53-1.93,1.32-.21,2.49-.05,3.68,.59,.45,.24,.66,.93,.36,1.37-1.62,2.36-3.24,4.72-4.86,7.09-.39,.57-.79,1.15-1.18,1.72-.32,.47-1.04,1.07-.54,1.49,.86,.72,2.64,.04,3.43-.44,1.88-1.16,3.19-3.27,4.29-5.13,1.16-1.95,2.27-4.12,2.73-6.35,.46-2.25-.62-4.32-2.99-4.7-2.3-.38-4.02,1.04-5.68,2.38-.76,.61-1.54,1.14-2.46,1.49-.93,.35-2.03,.48-2.73,1.26-1.3,1.45-1.36,4.3-1.62,6.13-.35,2.43-.58,4.89-.7,7.34-.05,1.03-.18,2.15,.89,2.69,.75,.38,1.66,.42,2.48,.46,.36,.02,.61,.19,.77,.43Z"/>
<path class="cls-1" d="M86.62,197.05c-1.46,6.44-3.54,12.73-6.21,18.77-1.32,3-2.8,5.93-4.41,8.79-.88,1.56-1.8,3.09-2.76,4.6-.61,.95-1.31,2.02-2.55,2.12-2.52,.19-4.24-3.61-4.99-5.5-1.09-2.73-1.46-5.73-1.34-8.65,.15-3.61,1.01-7.15,1.95-10.62,.72-2.68,1.46-5.35,2.19-8.03-5.79,13.29-15.11,24.86-27.04,33.25-.52,.37-1.33,0-1.47-.6-3.6-15.11-1.33-31.37,6.14-44.93-3.44,2.72-7,5.3-10.66,7.71,.07,.29,.02,.6-.22,.88-3.01,3.4-6.02,6.81-8.75,10.44-4.8,6.4-8.07,13.45-10.67,20.99-2.16,6.25-4.23,12.59-5.6,19.07,4.64-6.04,9.94-11.54,15.84-16.39,0-.1,.02-.2,.06-.29,.04-.12,.11-.23,.21-.32,.12-.13,.25-.26,.39-.37,.2-.17,.4-.33,.62-.47,.16-.09,.32-.14,.5-.14,.05,0,.11,.01,.16,.02,.78-.31,1.81,.5,1.25,1.39-1.81,2.88-3.59,5.78-5.16,8.8-1.63,3.16-2.84,6.43-3.96,9.79-.61,1.82-1.21,3.63-1.82,5.45-.57,1.72-.91,3.52-1.38,5.27-.74,2.81-1.53,5.62-1.84,8.5,9.79-7.9,15.97-19.3,24.94-28.04,.31-.3,.76-.34,1.12-.18,.37,.1,.65,.38,.58,.89-.1,2.38-.07,5.15-.92,7.43-.72,6.07-1.41,12.14-2.3,18.19-.63,4.26-1.36,8.5-2.28,12.71-.46,2.09-.43,4.3-.69,6.42-.24,1.94-.48,3.88-.56,5.84,3.02,.16,4.82-2.11,6.41-4.56,8.27-12.73,15.49-26.57,19.93-41.12,.31-1.01,1.58-.89,1.93,0,1.63,4.11,3.4,8.17,5.31,12.16,6.31,13.17,14.11,25.62,23.21,37.04,.41-4,.57-8.01,.48-12.03-.41-17.03-5.06-33.66-10.97-49.53-.37-.99,1-1.61,1.67-.97,11.97,11.35,18.32,26.82,27.3,40.38,1.72-5.47,2.55-11.16,2.48-16.92-.15-11.46-3.71-22.65-8.63-32.92-4.64-9.66-10.5-18.68-16.83-27.32-.22,1-.43,2-.66,2.98Z"/>
<path class="cls-1" d="M111.54,273.73c-.3,.83-1.33,.97-1.83,.24-8.64-12.55-14.63-27.05-24.92-38.39,1.11,3.13,2.16,6.29,3.12,9.47,4.98,16.41,7.82,33.71,5.6,50.84-.1,.75-1.09,1.47-1.71,.71-2.81-3.45-5.52-6.98-8.09-10.61-8.54-12.03-15.65-25.03-21.29-38.67-1.2,3.62-2.56,7.19-4.06,10.7-3.33,7.77-7.35,15.22-11.67,22.48-1.7,2.86-3.33,5.95-5.5,8.5-1.96,2.3-4.52,3.22-7.49,2.69-.42-.07-.74-.56-.73-.96,.02-2.26,.32-4.48,.59-6.72,.24-1.98,.15-4.08,.55-6.02,.87-4.22,1.71-8.44,2.35-12.71,.87-5.78,1.54-11.58,2.22-17.38-.16-.11-.31-.25-.44-.47-.62-1-.47-2.52-.33-3.62,0-.06,.03-.12,.03-.18-5.02,5.61-9.35,11.84-14.34,17.45,.01,.16,0,.33-.09,.51-6.15,12.83-8.41,27.4-6.47,41.48,5.17-6.93,8.16-15.21,11.05-23.29,.36-1.01,2.03-.92,1.96,.27-.29,4.86-.29,9.74,.03,14.6,1.04,16.19,5.47,32.13,12.91,46.54,3.61-16.11,4.56-32.73,2.84-49.16-.12-1.12,1.79-1.37,1.96-.27,.86,5.35,1.93,10.66,3.2,15.93,4.36,17.98,11.15,35.33,20.12,51.51,1.62-4.35,2.32-8.98,2.35-13.62,.03-4.75-.57-9.38-1.51-13.95-2-6.46-3.76-13-5.28-19.59-2.23-7.76-4.2-15.56-4.4-23.69-.03-1.11,1.8-1.39,1.96-.27,.89,6.22,1.98,12.42,3.28,18.57,.4,1.87,.82,3.72,1.25,5.58,1.74,6.04,3.64,12.21,4.97,18.41,3.89,12.64,8.69,24.99,14.34,36.95,1.82-3.87,3.11-7.97,3.9-12.18,3.48-18.4-2.37-36.8-8.8-53.86-.4-1.07,1.33-1.77,1.83-.77,6.96,14.18,14.48,28.07,22.52,41.67,2.74-7.51,1.88-15.87,.25-23.56-1.91-9.03-4.92-17.78-7.93-26.5-.35-1.01,.98-1.59,1.67-.97,4.22,3.73,7.47,8.37,10.31,13.2,2.82,4.79,5.41,9.73,8.04,14.62,5.79-11.81-.92-25.17-6.59-35.78-.5-.94,.48-1.77,1.37-1.37,6.85,3.07,9.62,10.56,14.99,15.32,1.13-4.7,.76-9.59-.09-14.34-2.93-16.3-9.06-32.08-17.54-46.31,3.34,12.08,3.9,24.68-.49,36.97Z"/>
<path class="cls-1" d="M50.96,182.2c-9.33,13.61-12.76,30.85-9.34,46.98,3.47-2.54,6.73-5.35,9.72-8.44,5.83-6.02,10.67-12.98,14.27-20.55,3.98-8.37,5.48-17.65,9.57-25.95,.51-1.04,2.12-.29,1.83,.77-2.14,7.83-4.28,15.66-6.42,23.48-1.06,3.86-2.19,7.71-3.12,11.61-.88,3.68-1.49,7.53-.89,11.31,.24,1.5,.64,2.99,1.28,4.37,.38,.81,1.82,3.94,2.97,3.39,.58-.28,1.09-1.58,1.41-2.1,.39-.63,.78-1.27,1.16-1.91,.76-1.28,1.48-2.59,2.18-3.9,3.1-5.85,5.61-12.01,7.48-18.36,1.07-3.64,1.78-7.38,2.67-11.06-.07-.27,0-.52,.18-.71,.43-1.72,.9-3.42,1.47-5.1,.89-2.57,2.06-5.05,3.72-7.21,.16-.21,.35-.39,.51-.59-2.95,.75-6.14,.56-8.99-.67-2.94-1.27-4.91-3.87-7.63-5.46-2.81-1.65-6.15-2.05-9.33-2.42-1.67,3.9-5.43,6.77-10,7.11-.51,.04-1.04-.49-1-1,.11-1.3,.81-2.15,1.77-2.98,1.13-.98,1.93-1.95,2.17-3.47,.44-2.8-1-5.34-2.53-7.62-.83,1.4-1.08,3.11-1.58,4.65-.6,1.86-1.6,3.44-3.14,4.66-3.14,2.49-7.2,3.03-10.66,4.88,.02,.25-.07,.5-.34,.72-6.18,4.95-10.46,11.86-12.18,19.54,7.51-4.42,14.63-9.48,21.24-15.17,.81-.7,2.25,.22,1.57,1.21Z"/>
<path class="cls-1" d="M36.31,154.39c1.15-1.25,2.31-2.5,3.45-3.76,11.33-12.52,21.98-25.66,31.86-39.36,4.94-6.85,9.7-13.84,14.26-20.95,4.49-7,8.99-14.09,12.9-21.44,1.82-3.43,3.38-7.31,2.68-11.26-.63-3.57-3.08-6.51-6.81-6.95-3.67-.43-7.42,1.15-10.5,2.98-3.54,2.09-6.82,4.66-9.89,7.38-6.13,5.43-11.53,11.67-16.68,18.03-5.34,6.6-10.32,13.48-14.94,20.6-4.54,7-8.72,14.24-12.52,21.67-3.68,7.21-7.02,14.63-8.89,22.53,.76-.08,1.52-.16,2.28-.25,.6-.07,1.19,.7,.96,1.27-3.03,7.5-5.78,15.11-8.21,22.82-8.2,25.95-12.94,52.95-14.09,80.14,1.73-6.75,3.59-13.47,5.58-20.15,7.44-24.9,16.71-49.24,27.67-72.79,.2-.43,.55-.56,.9-.5Z"/>
<path class="cls-1" d="M164.95,90.99c-.26,.75-.52,1.5-.77,2.25,.05,.22,.04,.46-.1,.71-1.88,3.33-3.76,6.65-5.64,9.98-1.71,3.02-3.57,6-5,9.17-1.31,2.9-2.2,6.21-1.47,9.38,.6,2.59,2.28,4.83,4.42,6.36,2.28,1.63,5.06,2.48,7.84,2.76,2.2-6.74,4.36-13.53,5.42-20.56,.56-3.7,.77-7.46,.51-11.2-.22-3.07-.85-7.27-4.52-7.87-.57-.09-.76-.53-.7-.97Z"/>
<path class="cls-1" d="M38.88,246.27c-.12,0-.06,.15,0,0h0Z"/>
<path class="cls-1" d="M134.16,32.34c1.95-1.48,2.93-4.22,2.49-6.61-.46-2.52-2.64-4.31-5.12-2.82-2.76,1.65-2.96,5.25-3.12,8.12,0,.07-.03,.12-.05,.19,.78,2.25,4.09,2.42,5.8,1.12Zm-3.57-4.15c-.05-.32-.05-.64-.01-.96-.04-.39,.03-.79,.22-1.14,.3-.55,.94-.94,1.57-.9,.58,.03,1.12,.32,1.48,.77,.32,.4,.58,.85,.66,1.36,.08,.48,.11,.99-.07,1.45-.11,.29-.26,.57-.5,.78-.23,.2-.51,.37-.81,.44-.6,.12-1.2-.03-1.69-.4-.45-.35-.76-.84-.85-1.41Z"/>
<path class="cls-1" d="M190.61,127.6c-.64-.49-1.69-.63-2.44-.84-1.73-.47-3.45-.99-5.19-1.42-1.93-.47-3.58-.3-5.39,.52-2.63,1.2-5.1,2.81-7.28,4.7-.94,.82-1.78,1.93-2.83,2.6-1.1,.7-2.47,.52-3.7,.38-4.99-.58-9.96-2.93-12.5-7.45-2.93-5.2-1.12-11.12,1.46-16.04,2.92-5.57,6.16-11,9.27-16.47,0-.05,0-.09,.02-.15,2.47-7.51,5.55-14.8,7.85-22.37,2-6.6,3.4-13.47,3.11-20.4-.28-6.67-2.96-12.87-3.25-19.55-.14-3.06-.05-6.18-.66-9.2-.3-1.49-.76-2.95-1.52-4.27-.36-.64-.82-1.48-1.61-1.65-.83-.17-1.67,.46-2.28,.94-1.08,.85-2.02,1.83-3.19,2.57-1.14,.72-2.42,1.26-3.72,1.6-2.64,.7-5.45,.6-8.03-.3-.88-.31-1.01-1.68,0-1.93,3.89-.96,7.45-2.67,10.67-5.06,2.13-1.58,4.42-3.36,7.04-3.59-4.15-5.88-11.61-8.67-18.71-8.27-.59,.03-1.18,.1-1.77,.18,.12,.38,.02,.79-.47,1-2.23,.95-2.23,3.54-2.11,5.61,.07,1.24,.16,2.46,.05,3.71-.1,1.03-.3,2.08-.19,3.11,.12,1.18,.72,2.15,1.4,3.09,.53,.74,1.3,1.48,1.51,2.4,.18,.76-.1,1.37-.51,1.99-.63,.93-1.02,1.78-1.28,2.89-.43,1.88-.71,3.72-1.72,5.39-1.03,1.69-2.48,3.06-3.93,4.38-3.26,2.96-5.97,6.09-7.48,10.31-.34,.95-1.59,.95-1.93,0-1.77-4.96-2.79-10.12-3.07-15.38-.02-.34,.09-.58,.27-.74,.27-3.38,.98-7,4.19-8.79,2.44-1.36,5.35-.76,6.9,1.59,1.49,2.24,1.45,5.26,.45,7.68-1.1,2.63-3.54,5.01-6.56,4.86-1.08-.05-2.08-.39-2.92-.95,.36,2.92,.98,5.79,1.83,8.61,1.29-2.64,3.04-5.02,5.21-7.07,2.29-2.16,5.15-4.19,6.14-7.32,.51-1.64,.6-3.37,1.28-4.96,.27-.62,1.09-1.43,1.06-2.06-.04-.67-.9-1.43-1.28-1.98-.93-1.33-1.54-2.74-1.58-4.38-.04-1.91,.34-3.75,.22-5.68-.15-2.2-.14-4.87,1.22-6.64-4.71,1.32-8.97,4.04-12.27,7.74-4.94,5.53-6.84,12.5-7.72,19.71-.87,7.11-1.17,14.44-4.18,21.07-2.51,5.54-8.43,10.42-14.61,11.47-.23,.04-.42,0-.59-.09-.66,3.23-2.22,6.25-3.84,9.1-8.72,15.33-18.43,30.12-28.89,44.31-9.79,13.27-20.29,26.01-31.44,38.17,.35-.11,.69-.23,1.02-.4,.58-.3,1.08-.72,1.58-1.13,.98-.8,1.93-1.58,3.11-2.07,2.35-.98,5.15-.76,7.05,1.05,.25,.24,.46,.49,.65,.75,0,0,.02,0,.02-.01,.1-.05,.19-.1,.28-.17,.12-.11,.26-.19,.42-.24,.09-.01,.18-.02,.27-.04,.06,0,.12,.01,.18,.02,2.48-1.46,5.63,1.42,7.46,2.94,2.59,2.14,4.73,4.9,5.28,8.3,.25,1.53,.17,3.03-.15,4.44,2.72,.32,5.46,.71,8,1.77,2.78,1.17,4.7,3.33,7.11,5.04,4.44,3.16,10.81,2.72,14.8-.99,.4-.37,.88-.32,1.24-.08,.04-.03,.08-.05,.13-.08,2.54-1.48,5.21-2.71,7.69-4.29,2.48-1.58,4.78-3.44,6.94-5.43,4.4-4.07,8.24-8.69,12.2-13.18,1.89-2.15,3.81-4.27,5.84-6.29,2.13-2.12,4.44-4.16,7.25-5.32,6.07-2.51,12.78-.45,18.68,1.54,.19,.06,.32,.17,.43,.29h.42c.06,0,.11,.02,.17,.03,.05-.03,.09-.07,.15-.09,3.12-1.01,4.5,2.35,5.12,4.72,.47,1.79,.93,3.59,1.4,5.38,.39,1.51,.65,3.27,1.43,4.64,1.65,2.9,5.89,1.87,8.53,1.26,2.26-.52,4.8-1.71,5.79-3.77-2.4,2.01-5.25,3.85-8.35,3.56-1.93-.18-1.97-2.09-2.13-3.62-.24-2.24-.32-4.5-.25-6.76,.07-2.17,.25-4.37,.63-6.52,.37-2.1,1.6-2.84,3.41-3.73,4.11-2.02,8.23-4.03,12.34-6.05,1.3-.64,3.11-1.98,4.33-.52,.59,.71,.98,1.66,1.43,2.47l.59,1.06c.28-1.06,.32-2.18,.05-3.28-.17-.69-.42-1.47-1.02-1.92Z"/>
<path class="cls-1" d="M157.84,142.6c-.17,.06-.32,.06-.46,.03,0,0,0,0,0,0-.12,.06-.25,.09-.39,.09h-.97c-.27,0-.51-.11-.71-.29-.07-.07-.12-.15-.17-.23-3.5-1.18-7.11-2.32-10.82-2.46-3.94-.14-7.36,1.14-10.35,3.68-5.22,4.44-9.45,10.03-14.01,15.1-3.98,4.43-8.22,8.69-13.21,11.98-5.08,3.35-11.3,5.21-14.81,10.51-2.09,3.16-3.2,6.8-4.08,10.48,3.62,4.87,7.08,9.85,10.29,15,5.66-2.9,11.11-6.19,16.29-9.88,18.82-13.37,34.04-31.65,43.76-52.59,.06-.14,.15-.24,.24-.32,.04-.14,.09-.27,.11-.41,.01-.14,.05-.28,.12-.4,.05-.07,.1-.14,.16-.2,.02-.02,.04-.02,.06-.04-.3-.15-.64-.19-1.06-.06Z"/><g>
<path d="M133.13,30c.31-.06,.58-.23,.81-.44,.24-.21,.38-.49,.5-.78,.18-.46,.16-.97,.07-1.45-.09-.51-.34-.97-.66-1.36-.36-.45-.9-.74-1.48-.77-.63-.04-1.27,.34-1.57,.9-.19,.34-.26,.75-.22,1.14-.03,.32-.04,.63,.01,.96,.09,.57,.4,1.06,.85,1.41,.48,.37,1.08,.53,1.69,.4Z"/>
<path d="M187.26,124.44c-2.84-.78-5.78-1.95-8.74-1.07-2.67,.8-5.22,2.39-7.44,4.03-.98,.72-1.93,1.49-2.82,2.31-.5,.46-.95,1-1.47,1.43-.13,.11-.26,.19-.39,.26,2.39-7.33,4.67-14.75,5.54-22.44,.44-3.9,.56-7.94-.06-11.83-.5-3.17-2.23-6.54-5.7-7.11-.47-.08-.84,.14-1.05,.46,4.41-12.51,10.01-24.96,9.88-38.45-.03-3.5-.52-6.95-1.39-10.34-.86-3.39-1.7-6.67-1.88-10.18-.16-3.19-.1-6.4-.64-9.55-.44-2.53-1.48-6.5-4.05-7.7-3.11-1.46-5.61,2.35-7.92,3.69-1.84,1.08-3.92,1.59-6,1.57,2.06-.8,4.04-1.79,5.88-3.02,2.58-1.73,5.62-5.08,9.05-4.21,.86,.22,1.55-.7,1.13-1.47-6.96-12.7-24.98-13.76-35.82-5.72-5.33,3.95-9.13,9.6-10.99,15.95-2.21,7.57-1.9,15.57-3.67,23.22-1.7,7.33-7.15,15.04-15.16,16.52,.01-.14,.04-.28,.05-.42,.19-3.33-.82-6.96-3.34-9.27-5.95-5.45-14.68-1.03-20.18,2.77-7.01,4.85-13.02,10.97-18.59,17.38-5.72,6.58-11.08,13.48-16.06,20.63-5.03,7.22-9.66,14.71-13.88,22.43-4.21,7.7-8.25,15.63-10.91,24.01-.67,2.1-1.23,4.23-1.69,6.38-.12,.57,.28,1.34,.96,1.27,.68-.07,1.37-.15,2.05-.22C11.47,172.11,4.61,199.85,1.61,228.05,.76,236.09,.22,244.16,0,252.24c-.04,1.29,1.96,1.29,2,0,.02-.78,.06-1.56,.09-2.34,.48,.5,1.47,.5,1.69-.37,6.37-25.02,14.54-49.58,24.45-73.42,1.83-4.41,3.75-8.78,5.7-13.13-.48,2.96-.91,6.06-.76,8.99,.14,2.84,2.53,3.7,4.95,3.89-6.55,5.58-11,13.47-12.33,21.99-.13,.83,.65,1.59,1.47,1.13,1.18-.67,2.35-1.36,3.5-2.06-4.21,4.85-8.25,9.87-11.29,15.54-3.84,7.18-6.33,15.1-8.69,22.86-1.38,4.53-2.56,9.12-3.29,13.81-.17,1.11,1.15,1.73,1.83,.77,4.33-6.17,9.38-11.8,14.99-16.82-.74,1.27-1.45,2.55-2.11,3.85-1.62,3.19-2.84,6.5-3.97,9.89-.63,1.89-1.26,3.79-1.89,5.68-.6,1.79-.93,3.67-1.42,5.49-.93,3.52-1.89,7.05-1.93,10.72,0,.7,.88,1.32,1.5,.86,1.92-1.41,3.7-2.96,5.39-4.59-5.19,12.88-6.74,27.04-4.42,40.77,.12,.72,1.21,.99,1.67,.44,4.91-5.91,8.05-12.86,10.74-19.98-.11,15.37,2.76,30.75,8.43,45.04,1.8,4.54,3.88,8.97,6.22,13.26,.41,.75,1.63,.59,1.83-.24,3.01-12.4,4.46-25.15,4.32-37.89,3.29,14.1,8.04,27.84,14.18,40.97,2.32,4.98,4.85,9.86,7.56,14.63,.34,.6,1.42,.7,1.73,0,2.9-6.56,3.67-13.28,3.26-20.02,1.34,3.8,2.76,7.58,4.27,11.32,2.32,5.77,4.84,11.46,7.54,17.06,.32,.67,1.39,.63,1.73,0,8.72-16.6,6.83-36.09,1.66-53.47-.19-.64-.4-1.27-.6-1.91,5.33,10.23,10.93,20.31,16.84,30.22,.35,.59,1.41,.71,1.73,0,3.63-8.05,3.11-17.03,1.44-25.5-1.61-8.13-4.16-16.03-6.83-23.86,2.77,3.07,5.08,6.55,7.17,10.14,3.04,5.21,5.82,10.57,8.7,15.87,.36,.67,1.35,.63,1.73,0,7-11.73,1.73-25.01-4.03-36.17,5.06,3.89,7.88,10.44,12.99,14.35,.54,.41,1.3-.05,1.47-.6,2.8-8.93,.23-18.84-2.13-27.59-2.43-8.98-5.73-17.72-9.84-26.06-2.36-4.8-5-9.46-7.88-13.97-.25-.39-.63-.5-.98-.45-2.81-8.11-6.75-15.92-11.14-23.16,20.56-10.55,38.24-26.48,50.99-45.74,3.52-5.32,6.64-10.89,9.36-16.66,0,0,.01,0,.01-.01,.15-.18,.29-.37,.41-.57,.08-.15,.15-.3,.21-.46,.18,.61,.31,1.22,.41,1.63,.53,2.03,1.05,4.05,1.58,6.08,.79,3.06,1.78,6.09,5.3,6.71,1.51,.27,3.04,.09,4.54-.15,1.75-.28,3.49-.63,5.11-1.36,2.83-1.27,5.25-4.05,4.81-7.33-.11-.84-1.02-1.34-1.71-.71-1.4,1.29-2.83,2.57-4.49,3.54-.76,.44-1.56,.81-2.41,1.04-.46,.13-.95,.24-1.44,.24-.63,0-.61,.04-.71-.66-.61-4.35-.53-8.89,.12-13.22,.2-1.29,.46-1.95,1.68-2.58,.87-.45,1.76-.86,2.64-1.3,2.06-1.01,4.11-2.02,6.17-3.03,1.87-.92,3.77-2.1,5.73-2.81,.69-.25,.55-.19,.91,.46,.26,.47,.53,.95,.79,1.42,.53,.95,1.06,1.89,1.59,2.84,.37,.66,1.36,.64,1.73,0,1.28-2.22,1.63-4.93,.75-7.36-.99-2.74-3.53-3.08-6.06-3.77Zm-21.61-32.48c3.68,.61,4.3,4.81,4.52,7.87,.27,3.73,.05,7.5-.51,11.2-1.06,7.03-3.22,13.82-5.42,20.56-2.77-.27-5.55-1.13-7.84-2.76-2.15-1.53-3.83-3.77-4.42-6.36-.73-3.17,.16-6.48,1.47-9.38,1.43-3.17,3.29-6.15,5-9.17,1.88-3.33,3.76-6.65,5.64-9.98,.14-.25,.15-.49,.1-.71,.25-.75,.51-1.5,.77-2.25-.06,.44,.13,.88,.7,.97ZM7.74,227.68c-2,6.68-3.85,13.4-5.58,20.15,1.15-27.19,5.88-54.19,14.09-80.14,2.44-7.71,5.18-15.32,8.21-22.82,.23-.57-.36-1.33-.96-1.27-.76,.08-1.52,.16-2.28,.25,1.87-7.89,5.21-15.32,8.89-22.53,3.8-7.43,7.98-14.67,12.52-21.67,4.62-7.12,9.6-14,14.94-20.6,5.15-6.36,10.55-12.6,16.68-18.03,3.07-2.72,6.35-5.28,9.89-7.38,3.09-1.83,6.84-3.41,10.5-2.98,3.74,.44,6.18,3.37,6.81,6.95,.7,3.95-.86,7.84-2.68,11.26-3.91,7.35-8.41,14.44-12.9,21.44-4.56,7.11-9.31,14.1-14.26,20.95-9.88,13.7-20.52,26.84-31.86,39.36-1.14,1.26-2.29,2.51-3.45,3.76-.35-.06-.7,.07-.9,.5-10.96,23.56-20.23,47.9-27.67,72.79Zm28.34-54.24c-1.07-.54-.94-1.66-.89-2.69,.12-2.46,.35-4.91,.7-7.34,.26-1.82,.32-4.67,1.62-6.13,.7-.78,1.79-.91,2.73-1.26,.92-.35,1.7-.88,2.46-1.49,1.67-1.34,3.39-2.75,5.68-2.38,2.37,.39,3.45,2.45,2.99,4.7-.46,2.23-1.57,4.41-2.73,6.35-1.1,1.86-2.42,3.97-4.29,5.13-.78,.48-2.57,1.16-3.43,.44-.5-.42,.22-1.01,.54-1.49,.39-.57,.79-1.15,1.18-1.72,1.62-2.36,3.24-4.72,4.86-7.09,.3-.43,.09-1.13-.36-1.37-1.18-.64-2.35-.8-3.68-.59-1.27,.2-.73,2.13,.53,1.93,.38-.06,.74-.06,1.1,.01-1.79,2.61-3.58,5.21-5.37,7.82-.61,.9-1.61,1.95-1.08,3.11,.51,1.12,2.15,1.58,3.25,1.62,2.76,.11,4.89-1.8,6.46-3.85,1.85-2.41,3.34-5.1,4.38-7.96,.57-1.56,.91-3.28,.58-4.84,.11-.01,.21-.04,.31-.1,.1-.05,.18-.13,.24-.22,.25,.02,.51-.04,.75-.25,.84-.72,2.53,.72,3.19,1.18,1.09,.76,2.15,1.58,3.11,2.5,1.92,1.84,3.4,4.15,3.62,6.86,.38,4.74-2.72,8.96-7.16,10.13,.65-.65,1.55-1.24,1.97-1.83,.85-1.19,1.25-2.65,1.29-4.11,.1-3.41-1.84-6.36-3.7-9.04-.36-.51-1.1-.7-1.57-.2-2.77,2.88-2.03,7.45-5.17,10.08-3.11,2.59-7.39,3.02-10.88,4.97-.16-.24-.41-.41-.77-.43-.82-.04-1.73-.08-2.48-.46Zm-7.93,22.71c1.72-7.68,6.01-14.59,12.18-19.54,.27-.21,.36-.47,.34-.72,3.46-1.84,7.52-2.39,10.66-4.88,1.54-1.22,2.54-2.8,3.14-4.66,.5-1.54,.76-3.25,1.58-4.65,1.53,2.27,2.97,4.82,2.53,7.62-.24,1.52-1.04,2.49-2.17,3.47-.96,.83-1.66,1.68-1.77,2.98-.04,.51,.49,1.04,1,1,4.57-.34,8.34-3.21,10-7.11,3.18,.36,6.52,.77,9.33,2.42,2.72,1.59,4.69,4.19,7.63,5.46,2.85,1.24,6.04,1.43,8.99,.67-.17,.2-.35,.38-.51,.59-1.67,2.16-2.84,4.64-3.72,7.21-.58,1.67-1.05,3.38-1.47,5.1-.17,.19-.24,.44-.18,.71-.89,3.69-1.6,7.43-2.67,11.06-1.87,6.35-4.38,12.51-7.48,18.36-.7,1.32-1.43,2.62-2.18,3.9-.38,.64-.76,1.28-1.16,1.91-.33,.53-.83,1.82-1.41,2.1-1.15,.56-2.6-2.57-2.97-3.39-.64-1.38-1.04-2.87-1.28-4.37-.6-3.78,.02-7.63,.89-11.31,.93-3.89,2.07-7.74,3.12-11.61,2.14-7.83,4.28-15.66,6.42-23.48,.29-1.06-1.32-1.81-1.83-.77-4.09,8.31-5.59,17.59-9.57,25.95-3.6,7.57-8.44,14.53-14.27,20.55-2.99,3.09-6.25,5.9-9.72,8.44-3.42-16.13,0-33.38,9.34-46.98,.68-.99-.76-1.91-1.57-1.21-6.61,5.68-13.73,10.75-21.24,15.17Zm101.42,86.92c.85,4.75,1.22,9.64,.09,14.34-5.37-4.77-8.14-12.25-14.99-15.32-.89-.4-1.87,.43-1.37,1.37,5.68,10.6,12.38,23.96,6.59,35.78-2.64-4.9-5.23-9.83-8.04-14.62-2.84-4.83-6.09-9.47-10.31-13.2-.69-.61-2.02-.04-1.67,.97,3,8.72,6.01,17.47,7.93,26.5,1.63,7.69,2.49,16.05-.25,23.56-8.04-13.6-15.56-27.49-22.52-41.67-.49-1-2.23-.3-1.83,.77,6.44,17.06,12.28,35.46,8.8,53.86-.8,4.21-2.08,8.31-3.9,12.18-5.66-11.95-10.46-24.31-14.34-36.95-1.34-6.2-3.23-12.37-4.97-18.41-.43-1.86-.86-3.72-1.25-5.58-1.3-6.15-2.39-12.34-3.28-18.57-.16-1.12-1.99-.84-1.96,.27,.21,8.12,2.17,15.93,4.4,23.69,1.52,6.59,3.29,13.13,5.28,19.59,.94,4.58,1.54,9.21,1.51,13.95-.03,4.64-.73,9.28-2.35,13.62-8.97-16.18-15.76-33.53-20.12-51.51-1.28-5.27-2.34-10.58-3.2-15.93-.18-1.1-2.08-.86-1.96,.27,1.72,16.42,.77,33.05-2.84,49.16-7.44-14.41-11.88-30.35-12.91-46.54-.31-4.86-.31-9.74-.03-14.6,.07-1.19-1.6-1.27-1.96-.27-2.89,8.09-5.87,16.36-11.05,23.29-1.94-14.08,.32-28.65,6.47-41.48,.09-.18,.1-.35,.09-.51,4.99-5.6,9.32-11.84,14.34-17.45,0,.06-.03,.12-.03,.18-.14,1.1-.29,2.62,.33,3.62,.13,.22,.29,.36,.44,.47-.69,5.8-1.35,11.6-2.22,17.38-.64,4.27-1.48,8.48-2.35,12.71-.4,1.93-.31,4.04-.55,6.02-.27,2.24-.57,4.46-.59,6.72,0,.4,.31,.89,.73,.96,2.97,.53,5.54-.39,7.49-2.69,2.17-2.55,3.8-5.63,5.5-8.5,4.31-7.26,8.33-14.71,11.67-22.48,1.51-3.51,2.86-7.08,4.06-10.7,5.63,13.63,12.74,26.64,21.29,38.67,2.58,3.63,5.28,7.16,8.09,10.61,.62,.76,1.61,.04,1.71-.71,2.22-17.13-.63-34.43-5.6-50.84-.96-3.18-2.02-6.33-3.12-9.47,10.29,11.34,16.28,25.84,24.92,38.39,.5,.73,1.53,.59,1.83-.24,4.39-12.29,3.82-24.89,.49-36.97,8.48,14.23,14.62,30.01,17.54,46.31Zm-25.45-61.69c4.92,10.26,8.48,21.45,8.63,32.92,.08,5.75-.76,11.44-2.48,16.92-8.97-13.56-15.32-29.02-27.3-40.38-.67-.64-2.04-.01-1.67,.97,5.91,15.87,10.56,32.5,10.97,49.53,.1,4.02-.07,8.04-.48,12.03-9.1-11.43-16.9-23.87-23.21-37.04-1.91-3.99-3.68-8.05-5.31-12.16-.35-.89-1.62-1.01-1.93,0-4.45,14.55-11.66,28.39-19.93,41.12-1.59,2.44-3.38,4.71-6.41,4.56,.08-1.96,.32-3.9,.56-5.84,.26-2.13,.23-4.33,.69-6.42,.93-4.2,1.66-8.45,2.28-12.71,.89-6.05,1.57-12.12,2.3-18.19,.85-2.28,.82-5.05,.92-7.43,.07-.51-.21-.79-.58-.89-.36-.16-.81-.12-1.12,.18-8.97,8.74-15.15,20.14-24.94,28.04,.31-2.88,1.1-5.69,1.84-8.5,.46-1.76,.8-3.55,1.38-5.27,.61-1.82,1.21-3.63,1.82-5.45,1.12-3.37,2.33-6.64,3.96-9.79,1.56-3.02,3.35-5.92,5.16-8.8,.56-.89-.48-1.7-1.25-1.39-.05,0-.11-.01-.16-.02-.18,0-.35,.05-.5,.14-.22,.14-.43,.3-.62,.47-.14,.12-.27,.24-.39,.37-.1,.09-.17,.2-.21,.32-.05,.09-.06,.19-.06,.29-5.89,4.85-11.19,10.35-15.84,16.39,1.37-6.48,3.45-12.82,5.6-19.07,2.6-7.53,5.87-14.59,10.67-20.99,2.73-3.64,5.74-7.04,8.75-10.44,.25-.28,.29-.59,.22-.88,3.66-2.41,7.22-4.98,10.66-7.71-7.48,13.57-9.75,29.82-6.14,44.93,.14,.59,.95,.97,1.47,.6,11.93-8.39,21.25-19.96,27.04-33.25-.73,2.68-1.47,5.35-2.19,8.03-.94,3.47-1.79,7.01-1.95,10.62-.13,2.92,.25,5.92,1.34,8.65,.76,1.89,2.47,5.7,4.99,5.5,1.25-.09,1.94-1.17,2.55-2.12,.97-1.5,1.88-3.04,2.76-4.6,1.61-2.85,3.08-5.79,4.41-8.79,2.67-6.04,4.75-12.33,6.21-18.77,.22-.98,.44-1.98,.66-2.98,6.33,8.63,12.2,17.65,16.83,27.32Zm-65.23,24.88c-.06,.15-.12,0,0,0h0Zm119.95-103.56c-.05,.07-.1,.14-.16,.2-.07,.13-.11,.26-.12,.4-.02,.14-.07,.27-.11,.41-.09,.08-.18,.18-.24,.32-9.71,20.94-24.94,39.22-43.76,52.59-5.18,3.68-10.64,6.98-16.29,9.88-3.21-5.15-6.67-10.14-10.29-15,.88-3.68,1.98-7.32,4.08-10.48,3.51-5.3,9.72-7.17,14.81-10.51,4.99-3.29,9.23-7.55,13.21-11.98,4.56-5.08,8.8-10.67,14.01-15.1,2.99-2.54,6.42-3.83,10.35-3.68,3.72,.14,7.32,1.28,10.82,2.46,.04,.08,.1,.16,.17,.23,.2,.18,.44,.29,.71,.29h.97c.14,0,.27-.02,.39-.09,0,0,0,0,0,0,.14,.02,.29,.02,.46-.03,.42-.14,.77-.09,1.06,.06-.02,.02-.05,.02-.06,.04Zm32.74-9.91l-.59-1.06c-.45-.81-.84-1.76-1.43-2.47-1.22-1.45-3.03-.11-4.33,.52-4.11,2.02-8.23,4.03-12.34,6.05-1.81,.89-3.04,1.62-3.41,3.73-.38,2.14-.56,4.34-.63,6.52-.07,2.25,.01,4.51,.25,6.76,.16,1.53,.21,3.44,2.13,3.62,3.1,.29,5.95-1.55,8.35-3.56-.99,2.06-3.53,3.25-5.79,3.77-2.64,.61-6.88,1.64-8.53-1.26-.78-1.37-1.03-3.13-1.43-4.64-.47-1.79-.93-3.59-1.4-5.38-.62-2.37-1.99-5.73-5.12-4.72-.06,.02-.1,.06-.15,.09-.06-.01-.11-.03-.17-.03h-.42c-.11-.12-.24-.23-.43-.29-5.9-1.99-12.61-4.05-18.68-1.54-2.81,1.16-5.12,3.2-7.25,5.32-2.03,2.02-3.95,4.14-5.84,6.29-3.96,4.49-7.79,9.11-12.2,13.18-2.16,2-4.46,3.85-6.94,5.43-2.48,1.58-5.15,2.81-7.69,4.29-.04,.02-.08,.05-.13,.08-.35-.24-.83-.29-1.24,.08-3.99,3.71-10.36,4.15-14.8,.99-2.41-1.71-4.33-3.88-7.11-5.04-2.54-1.07-5.28-1.46-8-1.77,.32-1.41,.4-2.9,.15-4.44-.55-3.4-2.69-6.15-5.28-8.3-1.83-1.52-4.98-4.4-7.46-2.94-.06-.01-.11-.02-.18-.02-.09,.01-.18,.02-.27,.04-.16,.04-.3,.13-.42,.24-.09,.06-.19,.11-.28,.17,0,0-.02,0-.02,.01-.19-.26-.4-.51-.65-.75-1.9-1.81-4.7-2.03-7.05-1.05-1.18,.49-2.13,1.27-3.11,2.07-.5,.41-1,.83-1.58,1.13-.33,.17-.67,.29-1.02,.4,11.15-12.16,21.65-24.9,31.44-38.17,10.46-14.19,20.18-28.98,28.89-44.31,1.62-2.85,3.18-5.87,3.84-9.1,.17,.08,.37,.12,.59,.09,6.18-1.05,12.1-5.93,14.61-11.47,3.01-6.62,3.31-13.96,4.18-21.07,.88-7.22,2.78-14.18,7.72-19.71,3.3-3.69,7.55-6.42,12.27-7.74-1.36,1.77-1.37,4.44-1.22,6.64,.13,1.92-.25,3.77-.22,5.68,.03,1.64,.64,3.06,1.58,4.38,.38,.54,1.24,1.3,1.28,1.98,.03,.63-.79,1.44-1.06,2.06-.68,1.59-.76,3.32-1.28,4.96-.99,3.14-3.85,5.16-6.14,7.32-2.17,2.05-3.91,4.42-5.21,7.07-.85-2.82-1.47-5.69-1.83-8.61,.84,.55,1.85,.9,2.92,.95,3.03,.15,5.47-2.24,6.56-4.86,1.01-2.42,1.04-5.44-.45-7.68-1.56-2.35-4.47-2.95-6.9-1.59-3.21,1.79-3.93,5.41-4.19,8.79-.18,.16-.29,.4-.27,.74,.28,5.25,1.3,10.42,3.07,15.38,.34,.95,1.59,.95,1.93,0,1.51-4.22,4.22-7.34,7.48-10.31,1.45-1.32,2.9-2.69,3.93-4.38,1.02-1.67,1.29-3.51,1.72-5.39,.25-1.1,.65-1.95,1.28-2.89,.41-.62,.69-1.23,.51-1.99-.21-.92-.98-1.66-1.51-2.4-.67-.94-1.28-1.92-1.4-3.09-.1-1.04,.1-2.08,.19-3.11,.12-1.25,.03-2.46-.05-3.71-.12-2.07-.12-4.66,2.11-5.61,.49-.21,.59-.62,.47-1,.58-.08,1.17-.14,1.77-.18,7.1-.4,14.56,2.39,18.71,8.27-2.62,.24-4.91,2.02-7.04,3.59-3.22,2.39-6.78,4.1-10.67,5.06-1.01,.25-.88,1.62,0,1.93,2.58,.9,5.38,1,8.03,.3,1.3-.34,2.58-.89,3.72-1.6,1.17-.73,2.11-1.72,3.19-2.57,.61-.48,1.45-1.11,2.28-.94,.79,.17,1.25,1.01,1.61,1.65,.75,1.33,1.21,2.79,1.52,4.27,.61,3.02,.53,6.13,.66,9.2,.29,6.67,2.97,12.87,3.25,19.55,.29,6.93-1.11,13.8-3.11,20.4-2.3,7.57-5.38,14.86-7.85,22.37-.02,.05,0,.1-.02,.15-3.11,5.47-6.34,10.9-9.27,16.47-2.58,4.92-4.39,10.85-1.46,16.04,2.55,4.52,7.51,6.87,12.5,7.45,1.23,.14,2.6,.32,3.7-.38,1.05-.67,1.89-1.78,2.83-2.6,2.18-1.89,4.65-3.51,7.28-4.7,1.81-.82,3.46-.99,5.39-.52,1.74,.43,3.46,.94,5.19,1.42,.75,.21,1.8,.35,2.44,.84,.59,.45,.85,1.22,1.02,1.92,.27,1.1,.23,2.22-.05,3.28ZM128.37,31.21c.02-.06,.05-.12,.05-.19,.17-2.87,.36-6.46,3.12-8.12,2.48-1.49,4.66,.3,5.12,2.82,.44,2.39-.55,5.13-2.49,6.61-1.71,1.3-5.02,1.13-5.8-1.12Z"/></g></g></g></svg>
