<svg id="Calque_2" xmlns="http://www.w3.org/2000/svg" viewBox="0 0 237.5 338.96">
<g id="Calque_4"><g>
<path class="cls-1" d="M180.95,105.84c2.58-1.35,5.4-2.44,8.37-2.04,2.75,.37,4.57,2.06,6.17,4.2,.81,1.09,1.57,2.26,2.63,3.15,1.02,.85,2.26,1.28,3.54,1.57,2.26,.51,4.58,.64,6.72,1.51,.91-3.98-.8-8.05-4.29-10.3-1.98-1.27-3.81-2.51-5.56-4.1-1.27-1.16-2.54-2.3-4.12-2.91-2.24,.35-4.48,.65-6.71,1.03-9.7,1.65-18.37,6.09-27.66,9.1-4.39,1.42-9.34,2.86-13.94,1.61-2.11-.57-4-1.71-5.76-3.06-.38,3.71-.07,7.44,1,11.02,.79,2.64,2.25,7.32,5.48,7.85,1.71,.28,3.43-.73,4.91-1.46,1.43-.71,2.84-1.45,4.23-2.22,2.79-1.54,5.53-3.18,8.24-4.86,5.54-3.42,10.98-7.06,16.75-10.09Z"/>
<path class="cls-1" d="M203.95,99.39c.68-1.79,1.36-3.58,2.04-5.37-1.42,.59-2.87,1.1-4.41,1.49-1.34,.34-2.69,.62-4.05,.87,.79,.58,1.54,1.23,2.26,1.9,.97,.89,1.93,1.79,3.04,2.52,.12,.08,.24,.15,.36,.23,.02-.08,.04-.16,.07-.24,.02-.04,.05-.08,.07-.12-.1-.57,.18-1.05,.61-1.27Z"/>
<path class="cls-1" d="M172.93,81.89c4.61-.86,9.09-2.43,13.21-4.67,4.21-2.3,7.81-5.47,11.81-8.08,3.96-2.58,8.39-4.22,12.94-5.41,2.32-.61,4.67-1.11,7.01-1.59,.22-.05,.44-.09,.65-.13-.54-1.01-1.03-2.07-1.76-2.94-1.15-1.39-2.86-1.75-4.58-1.43-3.22,.58-5.76,2.94-8.88,3.82-5.94,1.66-11.96-1.73-15.93-5.96-.33-.35-.34-.76-.18-1.1-.23-.07-.46-.12-.69-.2-.43-.14-.9-.36-1.37-.28-.41,.07-.81,.35-1.19,.51-1.33,.57-2.74,.43-3.94-.39-2.27-1.54-2.55-4.08-2.21-6.55-.51,.39-1.03,.75-1.56,1.07-.61,.37-1.57-.1-1.5-.86,.17-1.91,1.02-3.59,1.49-5.43,.56-2.18-.54-3.32-2.67-3.8-1.83-.41-3.33-.95-4.07-2.83-.62-1.55-.68-3.01-2.09-4.09-1.89-1.45-4.39-1.99-6.63-2.66-2.19-.66-4.57-1.4-6.24-3.04-.48-.47-.85-.99-1.13-1.54-1,6.4,.85,13.33-2.32,19.2,3.2,1.95,4.43,5.94,6.38,8.97,1,1.55,2.36,2.96,4.29,3.15,2.99,.28,5.22-2.01,7.96-2.64,2.8-.64,2.96,3.16,3.07,5.04,.16,2.72-.24,5.65-1.36,8.14-1.04,2.31-3.04,2.86-5.16,1.49-2.5-1.6-4.92-3.22-7.59-4.54-1.38-.69-2.8-1.32-4.24-1.88-1.33-.52-2.52-1.11-3.64,.1-2.01,2.18-3.48,5.2-4.58,7.92-.16,.41-.5,.6-.85,.64,.35,1.91,1.08,3.68,2.21,5.27,5.54,7.86,16.75,8.32,25.35,6.72Z"/>
<path class="cls-1" d="M152.33,20.4c.09-.25,.26-.41,.44-.52,.04-.35,.09-.71,.16-1.06,.25-1.26,2.18-.73,1.93,.53-.58,2.87,.31,5.01,2.94,6.32,3.92,1.95,10.38,1.95,12.62,6.36,.44,.87,.55,1.85,.88,2.76,.41,1.11,1.22,1.41,2.3,1.65,1.62,.35,3.31,.91,4.24,2.4,1.29,2.06,.26,4.29-.5,6.46,1.93-1.7,3.37-3.97,3.12-6.65-.29-3.2-3.24-4.42-5.67-5.86-1.11-.66-.1-2.38,1.01-1.73,.7,.42,1.41,.82,2.08,1.24-.1-.19-.16-.4-.11-.66,.65-3.69,1.41-7.54,3.86-10.5,1.91-2.3,5.09-3.67,8.08-3.2,1.27,.2,2.46,.77,3.37,1.67,1.19,1.17,1.7,2.91,3.02,3.94,.31,.25,.64,.45,.99,.64,.18-2.25-1.02-4.22-2.98-5.47-1.01-.65-1.73-1.35-2.1-2.52-.38-1.19-.51-2.45-.86-3.65-1.24-4.3-3.78-8.73-8.33-10.1-5.26-1.59-10.33,1.03-14.85,3.44-2.32,1.24-4.61,1.67-7.22,1.74-2.59,.06-5.28,.08-7.29,1.96-3.93,3.67-3.16,9.4-2.01,14.17,.19-1.14,.46-2.26,.86-3.36Z"/>
<path class="cls-1" d="M214.34,316.78c-9.06-3-18.09-6.17-27.27-8.8-9.24-2.64-18.62-4.35-28.21-4.98-19.27-1.27-38.51,1.01-57.73,1.93-18.01,.86-36.39,.49-53.73-4.99-7.77-2.45-15.27-5.9-21.96-10.55-.32-.22-.64-.46-.95-.69,.1,.31,.07,.65-.24,.95-6.76,6.6-13.99,12.68-21.61,18.25,2.75,1.97,6.34,2.61,9.58,3.33,3.88,.86,7.8,1.57,11.73,2.14,8.1,1.19,16.27,1.8,24.44,2.13,28.79,1.15,57.78-1.45,86.42,2.69,7.09,1.03,14.13,2.48,21.01,4.5,7.19,2.11,14.18,4.82,21.24,7.32,13.62,4.83,28.36,9.02,42.82,5.8-2.01-5.95-3.21-12.13-3.6-18.39-.65-.21-1.29-.43-1.94-.64Z"/>
<path class="cls-1" d="M200.86,39.36c-.71,1.57,0,3.29,.28,4.92,.54,3.06-.6,6.11-2.95,8.15-2.37,2.06-5.53,2.76-8.6,2.43,2.09,2.04,4.57,3.72,7.39,4.54,3.4,.98,6.33,.19,9.37-1.45,.07-.04,.15-.08,.22-.12-.1-.05-.2-.12-.3-.22-2.44-2.71-1.26-6.13-1.29-9.37-.03-3.37-2.18-6.23-4.1-8.81-.01-.02-.02-.04-.03-.06Z"/>
<path class="cls-1" d="M193.61,23.8c-.84-1.13-1.37-2.53-2.6-3.3-.93-.58-2.08-.73-3.16-.61-5.85,.67-7.25,7.24-8.1,12.05,.09,.09,.16,.19,.19,.3,.06,.12,.09,.25,.09,.39v.35c0,.18-.05,.35-.14,.5-.04,.05-.08,.11-.12,.16,1.46,1.22,2.53,2.74,2.71,5.01,.2,2.48-.76,4.7-2.26,6.53,.04,.15,.05,.32,0,.5-.46,1.77-1.07,4-.03,5.69,.39,.64,1.07,1.26,1.83,1.39,.78,.13,1.42-.34,2.11-.61,1.48-.58,2.7,.12,4.13,.47,1.66,.41,3.43,.48,5.1,.07,2.7-.65,5.07-2.64,5.75-5.4,.67-2.75-1.24-5.39-.38-8.13,.75-2.38,3.31-3.51,4.14-5.79,.97-2.7-.77-5.03-3.18-6.03-2.25-.93-4.57-1.48-6.1-3.54Z"/>
<path class="cls-1" d="M214.42,89.49c-.15,.1-.31,.19-.46,.29-1.78,1.12-3.56,2.15-5.4,3.07-.97,2.54-1.93,5.09-2.9,7.63,0,.02,0,.04,0,.06-.01,.28-.12,.5-.27,.73-.02,.03-.04,.04-.06,.07-.06,.15-.12,.31-.18,.46-.05,.13-.13,.24-.21,.34,.51,.32,1.02,.66,1.49,1.04,3.71,2.97,5.13,8.27,3.52,12.73-.22,.61-.87,.94-1.47,.6-2.81-1.59-6.2-1.23-9.16-2.37-3.02-1.15-4.32-3.74-6.32-6.05-2.25-2.6-5.4-2.8-8.5-1.67-3.18,1.16-6.15,3.15-9.03,4.89-4.36,2.63-8.64,5.41-13.01,8.04-.08,6.64-2.99,12.76-6.35,18.36-3.17,5.28-6.88,10.38-8.96,16.23-1.92,5.39-2.01,11.09-2.06,16.75-.04,5.49-.02,11.18-1.82,16.45-1.76,5.13-5.3,8.87-9.24,12.38,15.59,6.99,33.06,11.12,50.08,7.96-1.12-7.11-1.52-14.37,.71-21.32,1.74-5.44,4.64-10.4,7.32-15.42,2.65-4.98,5.27-10.24,5.84-15.93,.67-6.76-1.99-13.2-2.79-19.83-.83-6.83-.03-13.82,2.21-20.32,.42-1.21,2.35-.69,1.93,.53-2.09,6.06-2.84,12.48-2.21,18.83,2.92-2.97,5.98-5.81,9.19-8.45,1.6-1.32,3.23-2.59,4.9-3.82,1.62-1.2,3.47-2.35,4.61-4.06,1.3-1.95,.91-4.23,.69-6.43-.23-2.28-.45-4.56-.68-6.83-.48-4.88-.97-9.76-1.45-14.64,0-.09,.01-.16,.03-.24Z"/>
<path class="cls-1" d="M233.17,74.46c-1.81-.53-3.54-1.36-5.07-2.45-1.46-1.04-2.76-2.27-3.85-3.69-.56-.73-1.04-1.5-1.49-2.3-.41-.73-.85-1.68-1.64-2.06-1.03-.5-2.52,.07-3.57,.29-1.03,.22-2.05,.44-3.08,.67-2.19,.5-4.37,1.05-6.5,1.74-4.37,1.41-8.23,3.54-11.92,6.24-3.62,2.65-7.15,5.3-11.23,7.23-7.61,3.6-16.48,5.36-24.87,4.1-7.6-1.14-15.29-6-16.58-14.11-.09-.57,.26-.98,.69-1.16-1.25-1.03-3.27,.36-4.31,1.22-3.77,3.09-7.28,6.57-10.89,9.84-1.84,1.66-3.67,3.32-5.51,4.97-.43,.39-1.17,.86-1.47,1.37-.3,.51,.1,.83,.48,1.23,.75,.79,1.69,1.46,2.52,2.17,3.78,3.23,7.55,6.47,11.33,9.7,3.28,2.81,6.68,6.52,11.07,7.43,4.6,.95,9.62-.85,13.92-2.34,4.26-1.48,8.4-3.26,12.63-4.84,4.2-1.57,8.47-2.84,12.89-3.61,1.95-.34,3.91-.62,5.86-.91,.2-.37,.58-.65,1.1-.56,.32,.06,.63,.14,.94,.23,1.72-.27,3.44-.57,5.14-.96,2.55-.58,4.92-1.43,7.21-2.5,.03-.09,.07-.17,.1-.26,.19-.51,.67-.85,1.23-.7,.11,.03,.2,.09,.3,.16,1.09-.57,2.17-1.18,3.24-1.85,3.81-2.38,7.49-4.44,11.86-5.61,3.86-1.04,8.41-1.99,10.79-5.56,.31-.46,1.32-2.11,.95-2.57-.25-.31-1.88-.42-2.29-.54Z"/>
<path class="cls-1" d="M183.34,279.66c-5.03-.16-10.05,.04-15.06,.4-5.01,.36-10.04,.78-15.06,.58-9.71-.39-19.02-3.38-27.95-7.04-9.19-3.77-18.23-7.95-27.32-11.96-8.43-3.73-16.87-7.45-25.3-11.18-.04,.06-.06,.11-.11,.17-1.43,1.45-2.89,2.87-4.39,4.26-11.8,10.9-25.63,19.53-40.59,25.36-1.86,.73-3.8,1.29-5.64,2.05-.56,.23-1.08,.48-.73,1.14,.21,.4,.66,.7,1,.99,.79,.66,1.6,1.29,2.42,1.91,3.22,2.41,6.66,4.52,10.24,6.36,7.2,3.69,14.95,6.22,22.86,7.88,18,3.79,36.55,2.9,54.77,1.7,18.54-1.22,37.25-2.81,55.76-.35,9.14,1.21,18.01,3.59,26.77,6.38,8.45,2.69,16.86,5.54,25.28,8.34-2.03-11.29-5.16-22.35-9.36-33.02-9.02-2.32-18.26-3.67-27.58-3.96Z"/>
<path class="cls-1" d="M134.39,201.82c-.2,.4-.45,.77-.75,1.1,0,.15-.04,.32-.14,.48-6.37,10.43-16.04,18.57-27.34,23.17,3.91,5.66,8.24,11.08,13.47,15.59,5.12,4.42,11.04,7.65,17.61,9.31,7.17,1.81,14.67,2.09,22.02,2.29,14.35,.4,28.86-.52,42.6-4.9-9.59-11.17-16.26-24.69-19.21-39.12-16.45,2.53-33.12-1.32-48.26-7.9Z"/>
<path class="cls-1" d="M178.75,255.3c-7.71,.65-15.47,.64-23.2,.32-7.5-.32-15.16-.83-22.33-3.26-11.42-3.87-19.98-12.61-26.94-22.16-.08,.06-.16,.12-.27,.14l-.41,.16c-8.23,10.63-22.74,10.98-33.66,17.48,10.06,4.44,20.12,8.89,30.18,13.33,9.21,4.07,18.35,8.41,27.77,11.98,9.19,3.48,18.54,5.64,28.42,5.36,5.03-.14,10.04-.67,15.07-.91,4.97-.24,9.96-.18,14.93,.17,8.94,.63,17.8,2.2,26.41,4.66-5.38-10.39-11.3-20.49-17.74-30.26-5.97,1.51-12.08,2.46-18.23,2.98Z"/>
<path d="M236.55,73.33c-.69-.41-1.55-.45-2.32-.65-1.12-.29-2.2-.7-3.23-1.23-1.8-.94-3.4-2.22-4.72-3.77-1.23-1.45-1.86-3.37-3.19-4.71-.7-.71-1.49-1.01-2.33-1.1-1.47-2.4-2.46-5.24-5.44-6.1-2.58-.74-5.11,.19-7.42,1.35,.09-.3,.06-.64-.21-.94-1.07-1.2-1.1-2.89-.98-4.4,.13-1.71,.41-3.36,.15-5.07-.48-3.14-2.4-5.81-4.25-8.31-.22-.3-.52-.42-.82-.42,.69-.78,1.49-1.48,2.1-2.32,1.69-2.31,1.62-5.59-.13-7.85-1.23-1.58-3.01-2.13-4.75-2.77,.34-2.05-.15-4.18-1.4-5.87-.68-.93-1.53-1.55-2.49-2.16-1.42-.91-1.39-2.4-1.76-3.91-1.16-4.73-3.65-9.69-8.25-11.88-5.08-2.42-10.92-.86-15.67,1.59-1.35,.69-2.63,1.55-4.04,2.11-1.56,.61-3.21,.68-4.86,.72-2.76,.07-5.52,.21-7.79,1.96-5.17,3.98-4.58,10.87-3.24,16.57-.04,.17-.06,.34-.02,.52,.1,.42,.26,.82,.45,1.21,.19,.39,.44,.73,.71,1.07,.07,.05,.13,.1,.2,.16,.08,.05,.18,.07,.27,.09-.07,1.6-.05,3.21-.04,4.8,.03,3.93-.03,7.99-2.23,11.41-.27,.42-.12,1.16,.36,1.37,3.28,1.44,4.46,5.26,6.17,8.12,2.02,3.37,5.03,5.53,9.12,4.41,1.2-.33,2.34-.87,3.47-1.4,.53-.25,1.28-.8,1.85-.85,.54-.05,.45,.05,.65,.58,.17,.45,.2,1.03,.25,1.49,.31,2.66,.04,5.58-1.03,8.06-.33,.77-.73,1.53-1.71,1.14-.5-.2-.94-.59-1.38-.89-1.22-.84-2.47-1.64-3.76-2.38-2.39-1.38-4.88-2.58-7.44-3.6-1.16-.46-2.44-1.07-3.72-.88-1.25,.18-2.08,1.04-2.81,2-1.55,2.02-2.81,4.22-3.86,6.53-2.75-1.98-6.6,1.58-8.56,3.35-3.92,3.54-7.83,7.08-11.75,10.61l-2.75,2.49c-.74,.67-1.76,1.35-2.09,2.34-.72,2.18,1.88,3.76,3.26,4.95,3.96,3.39,7.93,6.79,11.89,10.18,1.35,1.15,2.71,2.42,4.14,3.61-.4,.1-.75,.4-.8,.91-.35,3.37-.13,6.78,.66,10.08,.68,2.82,1.71,5.85,3.5,8.17,1.73,2.24,4.19,3.22,6.95,2.37,3.04-.94,5.95-2.76,8.71-4.32,.76-.43,1.51-.89,2.27-1.33-.73,11.52-9.91,20.36-14.31,30.6-2.23,5.2-2.87,10.65-2.98,16.27-.11,5.39,.17,10.89-.97,16.19-.65,3.03-1.81,5.92-3.65,8.44-1.96,2.68-4.51,4.88-7,7.05-.46,.4-.36,1.31,.2,1.57,.24,.11,.48,.21,.72,.32-.16,.2-.31,.41-.47,.61-.07,.1-.1,.22-.11,.34-.15,.17-.25,.42-.25,.64,0,.02,.01,.05,.02,.08-6.33,10.24-16,18.26-27.27,22.53-.56,.21-.99,.89-.6,1.47,.44,.65,.88,1.29,1.34,1.93-.26,.11-.53,.23-.79,.34-.12,.06-.21,.15-.28,.26-.09,.1-.15,.21-.18,.34,0,.01,0,.03,0,.04-3.89,4.96-9.86,7.72-15.67,9.78-6.43,2.29-13.14,4.08-18.85,7.96-.55,.38-.74,1.4,0,1.73,.46,.2,.92,.41,1.38,.61-11.69,11.76-25.66,21.21-40.96,27.61-1.94,.81-3.91,1.57-5.89,2.29-1.4,.5-3.48,.83-4.4,2.13-1.06,1.49-.04,3.05,1.13,4.07,.92,.8,1.89,1.55,2.87,2.28-.21,0-.43,.08-.63,.27-6.97,6.81-14.43,13.09-22.33,18.78-.49,.35-.72,1.1-.2,1.57,2.34,2.12,5.3,3.1,8.31,3.85,3.55,.88,7.13,1.6,10.73,2.22,7.18,1.23,14.43,2,21.69,2.47,14.78,.96,29.59,.69,44.39,.62,14.72-.07,29.5,.04,44.14,1.76,7.17,.85,14.3,2.1,21.3,3.9,7.36,1.89,14.48,4.5,21.62,7.08,15.57,5.64,32.32,11.16,48.96,7.03,.5-.12,.88-.73,.7-1.23-2.08-5.88-3.37-11.98-3.82-18.19,.99,.33,1.98,.66,2.97,.99,.79,.26,1.35-.53,1.23-1.23-1.94-11.49-5.04-22.74-9.24-33.61,1.05,.29,2.09,.58,3.13,.9,.88,.27,1.51-.73,1.13-1.47-5.59-10.97-11.78-21.61-18.53-31.9,1.63-.45,3.25-.93,4.86-1.48,.73-.25,.96-1.09,.44-1.67-9.88-11.09-16.68-24.71-19.69-39.25,.3-.06,.61-.1,.91-.16,.57-.11,.78-.73,.7-1.23-1.15-6.83-1.69-13.88,.31-20.61,1.61-5.43,4.5-10.36,7.16-15.33,2.56-4.78,5.07-9.77,6-15.16,1.12-6.53-.81-12.64-2.03-19-.09-.49-.15-.98-.23-1.46,.07-.04,.15-.08,.21-.15,3.28-3.42,6.76-6.64,10.43-9.64,1.89-1.55,3.86-2.98,5.81-4.45,1.46-1.09,2.92-2.27,3.86-3.87,1.04-1.77,1.08-3.73,.91-5.72-.23-2.59-.51-5.17-.77-7.75-.5-5.04-1-10.09-1.5-15.13-.05-.54-.45-.84-.88-.92,1.49-.91,3.01-1.77,4.63-2.44,2.25-.93,4.64-1.42,6.97-2.08,3.76-1.07,7.84-2.9,9.64-6.62,.64-1.33,1.39-3.39-.2-4.34Zm-31.56-25.1c.03,3.25-1.15,6.66,1.29,9.37,.09,.1,.19,.17,.3,.22-.07,.04-.15,.08-.22,.12-3.04,1.64-5.97,2.43-9.37,1.45-2.82-.81-5.3-2.5-7.39-4.54,3.07,.33,6.23-.36,8.6-2.43,2.35-2.04,3.49-5.09,2.95-8.15-.29-1.63-1-3.35-.28-4.92,.01,.02,.02,.04,.03,.06,1.92,2.59,4.07,5.45,4.1,8.81Zm-5.28-20.89c2.42,1,4.15,3.33,3.18,6.03-.82,2.29-3.38,3.42-4.14,5.79-.87,2.74,1.05,5.38,.38,8.13-.68,2.77-3.05,4.75-5.75,5.4-1.67,.4-3.44,.33-5.1-.07-1.43-.35-2.65-1.05-4.13-.47-.69,.27-1.33,.74-2.11,.61-.76-.13-1.44-.75-1.83-1.39-1.04-1.69-.43-3.92,.03-5.69,.05-.19,.03-.35,0-.5,1.5-1.84,2.46-4.06,2.26-6.53-.18-2.27-1.25-3.79-2.71-5.01,.04-.05,.08-.11,.12-.16,.09-.16,.14-.32,.14-.5v-.35c0-.14-.02-.27-.09-.39-.04-.12-.11-.22-.19-.3,.85-4.81,2.25-11.38,8.1-12.05,1.08-.12,2.23,.03,3.16,.61,1.23,.77,1.77,2.18,2.6,3.3,1.53,2.06,3.85,2.61,6.1,3.54Zm-46.23-17.76c2.02-1.88,4.7-1.89,7.29-1.96,2.61-.07,4.9-.5,7.22-1.74,4.52-2.41,9.59-5.02,14.85-3.44,4.55,1.37,7.09,5.8,8.33,10.1,.35,1.2,.48,2.47,.86,3.65,.37,1.17,1.09,1.88,2.1,2.52,1.96,1.25,3.16,3.22,2.98,5.47-.34-.19-.67-.4-.99-.64-1.32-1.04-1.84-2.77-3.02-3.94-.92-.91-2.11-1.47-3.37-1.67-2.99-.47-6.17,.89-8.08,3.2-2.45,2.96-3.21,6.81-3.86,10.5-.04,.26,.01,.47,.11,.66-.67-.42-1.38-.83-2.08-1.24-1.11-.66-2.12,1.07-1.01,1.73,2.44,1.44,5.39,2.66,5.67,5.86,.24,2.67-1.19,4.95-3.12,6.65,.75-2.17,1.78-4.4,.5-6.46-.93-1.49-2.62-2.05-4.24-2.4-1.08-.24-1.89-.53-2.3-1.65-.33-.91-.44-1.88-.88-2.76-2.24-4.41-8.7-4.4-12.62-6.36-2.63-1.31-3.52-3.45-2.94-6.32,.25-1.26-1.68-1.79-1.93-.53-.07,.35-.12,.71-.16,1.06-.19,.11-.35,.27-.44,.52-.41,1.1-.67,2.22-.86,3.36-1.15-4.77-1.93-10.5,2.01-14.17Zm-7.25,59.67c1.1-2.72,2.57-5.74,4.58-7.92,1.11-1.2,2.31-.62,3.64-.1,1.44,.56,2.85,1.19,4.24,1.88,2.67,1.32,5.09,2.94,7.59,4.54,2.12,1.36,4.13,.82,5.16-1.49,1.12-2.5,1.52-5.43,1.36-8.14-.11-1.88-.27-5.68-3.07-5.04-2.74,.63-4.97,2.92-7.96,2.64-1.94-.18-3.29-1.6-4.29-3.15-1.95-3.03-3.18-7.02-6.38-8.97,3.17-5.88,1.32-12.81,2.32-19.2,.28,.55,.65,1.07,1.13,1.54,1.67,1.64,4.05,2.38,6.24,3.04,2.23,.68,4.74,1.21,6.63,2.66,1.41,1.08,1.47,2.54,2.09,4.09,.75,1.87,2.24,2.42,4.07,2.83,2.13,.47,3.23,1.62,2.67,3.8-.47,1.83-1.32,3.52-1.49,5.43-.07,.77,.9,1.23,1.5,.86,.53-.32,1.06-.68,1.56-1.07-.34,2.47-.06,5.01,2.21,6.55,1.21,.82,2.61,.96,3.94,.39,.38-.16,.78-.44,1.19-.51,.47-.07,.94,.14,1.37,.28,.23,.07,.46,.13,.69,.2-.16,.33-.15,.75,.18,1.1,3.96,4.22,9.99,7.61,15.93,5.96,3.13-.87,5.67-3.23,8.88-3.82,1.72-.31,3.43,.04,4.58,1.43,.72,.88,1.22,1.93,1.76,2.94-.22,.04-.44,.08-.65,.13-2.35,.49-4.69,.99-7.01,1.59-4.55,1.19-8.98,2.83-12.94,5.41-4,2.61-7.6,5.78-11.81,8.08-4.12,2.25-8.59,3.82-13.21,4.67-8.6,1.6-19.8,1.14-25.35-6.72-1.12-1.59-1.86-3.36-2.21-5.27,.35-.05,.69-.24,.85-.64Zm9.73,51.53c-1.4,.77-2.81,1.51-4.23,2.22-1.48,.73-3.2,1.74-4.91,1.46-3.23-.53-4.69-5.21-5.48-7.85-1.07-3.58-1.38-7.3-1-11.02,1.77,1.35,3.65,2.49,5.76,3.06,4.6,1.24,9.55-.19,13.94-1.61,9.28-3.01,17.95-7.45,27.66-9.1,2.23-.38,4.47-.69,6.71-1.03,1.57,.61,2.85,1.75,4.12,2.91,1.75,1.59,3.57,2.83,5.56,4.1,3.5,2.24,5.21,6.32,4.29,10.3-2.14-.87-4.46-1-6.72-1.51-1.28-.29-2.52-.72-3.54-1.57-1.05-.88-1.81-2.06-2.63-3.15-1.6-2.14-3.41-3.83-6.17-4.2-2.96-.4-5.79,.69-8.37,2.04-5.77,3.02-11.21,6.67-16.75,10.09-2.71,1.68-5.45,3.32-8.24,4.86Zm47.38-20.12s-.05,.08-.07,.12c-.03,.08-.05,.16-.07,.24-.12-.08-.24-.15-.36-.23-1.1-.73-2.06-1.63-3.04-2.52-.73-.66-1.47-1.32-2.26-1.9,1.36-.25,2.71-.53,4.05-.87,1.53-.39,2.99-.9,4.41-1.49-.68,1.79-1.36,3.58-2.04,5.37-.43,.22-.72,.7-.61,1.27Zm16.53,235.16c-14.46,3.22-29.19-.97-42.82-5.8-7.06-2.5-14.05-5.22-21.24-7.32-6.88-2.02-13.92-3.47-21.01-4.5-28.63-4.14-57.62-1.55-86.42-2.69-8.17-.33-16.35-.94-24.44-2.13-3.93-.58-7.85-1.28-11.73-2.14-3.24-.72-6.83-1.36-9.58-3.33,7.62-5.57,14.86-11.65,21.61-18.25,.3-.3,.34-.64,.24-.95,.32,.23,.63,.46,.95,.69,6.7,4.66,14.2,8.1,21.96,10.55,17.34,5.48,35.72,5.85,53.73,4.99,19.23-.92,38.47-3.2,57.73-1.93,9.59,.63,18.97,2.34,28.21,4.98,9.18,2.63,18.21,5.79,27.27,8.8,.65,.21,1.29,.43,1.94,.64,.39,6.27,1.59,12.45,3.6,18.39Zm.41-19.17c-8.42-2.8-16.83-5.65-25.28-8.34-8.77-2.79-17.64-5.17-26.77-6.38-18.52-2.46-37.22-.87-55.76,.35-18.22,1.2-36.78,2.09-54.77-1.7-7.9-1.67-15.66-4.19-22.86-7.88-3.58-1.84-7.02-3.95-10.24-6.36-.82-.62-1.64-1.25-2.42-1.91-.34-.28-.78-.59-1-.99-.35-.66,.18-.91,.73-1.14,1.85-.76,3.78-1.32,5.64-2.05,14.96-5.83,28.8-14.47,40.59-25.36,1.5-1.38,2.96-2.8,4.39-4.26,.05-.05,.07-.11,.11-.17,8.43,3.73,16.87,7.45,25.3,11.18,9.09,4.02,18.13,8.19,27.32,11.96,8.93,3.66,18.24,6.66,27.95,7.04,5.03,.2,10.05-.22,15.06-.58,5.02-.36,10.03-.56,15.06-.4,9.31,.29,18.56,1.64,27.58,3.96,4.21,10.67,7.34,21.73,9.36,33.02Zm-5.56-34.07c-8.62-2.46-17.47-4.04-26.41-4.66-4.97-.35-9.96-.4-14.93-.17-5.03,.24-10.04,.77-15.07,.91-9.87,.28-19.23-1.88-28.42-5.36-9.42-3.57-18.56-7.91-27.77-11.98-10.06-4.44-20.12-8.89-30.18-13.33,10.92-6.5,25.43-6.84,33.66-17.48l.41-.16c.1-.02,.18-.08,.27-.14,6.96,9.56,15.51,18.29,26.94,22.16,7.16,2.43,14.82,2.94,22.33,3.26,7.73,.33,15.48,.33,23.2-.32,6.15-.52,12.26-1.47,18.23-2.98,6.44,9.77,12.36,19.87,17.74,30.26Zm-12.86-33.73c-13.74,4.38-28.26,5.3-42.6,4.9-7.36-.2-14.86-.48-22.02-2.29-6.57-1.66-12.49-4.89-17.61-9.31-5.22-4.51-9.56-9.92-13.47-15.59,11.31-4.59,20.97-12.73,27.34-23.17,.1-.17,.13-.33,.14-.48,.3-.33,.55-.7,.75-1.1,15.14,6.59,31.81,10.44,48.26,7.9,2.95,14.43,9.62,27.96,19.21,39.12Zm13.98-144.47c.23,2.28,.45,4.56,.68,6.83,.22,2.2,.61,4.48-.69,6.43-1.14,1.71-2.99,2.86-4.61,4.06-1.67,1.23-3.3,2.51-4.9,3.82-3.22,2.65-6.28,5.48-9.19,8.45-.63-6.35,.12-12.77,2.21-18.83,.42-1.22-1.51-1.74-1.93-.53-2.24,6.5-3.04,13.49-2.21,20.32,.8,6.63,3.46,13.07,2.79,19.83-.57,5.7-3.18,10.96-5.84,15.93-2.67,5.02-5.57,9.98-7.32,15.42-2.23,6.95-1.83,14.22-.71,21.32-17.02,3.16-34.49-.97-50.08-7.96,3.93-3.51,7.48-7.25,9.24-12.38,1.8-5.26,1.78-10.95,1.82-16.45,.05-5.66,.14-11.36,2.06-16.75,2.08-5.85,5.79-10.95,8.96-16.23,3.36-5.59,6.28-11.72,6.35-18.36,4.37-2.63,8.64-5.41,13.01-8.04,2.88-1.74,5.85-3.73,9.03-4.89,3.1-1.13,6.25-.93,8.5,1.67,2,2.31,3.31,4.89,6.32,6.05,2.97,1.14,6.36,.78,9.16,2.37,.6,.34,1.25,0,1.47-.6,1.61-4.45,.19-9.76-3.52-12.73-.47-.38-.98-.71-1.49-1.04,.09-.1,.16-.21,.21-.34,.06-.15,.12-.31,.18-.46,.02-.02,.04-.04,.06-.07,.15-.22,.26-.45,.27-.73,0-.02,0-.04,0-.06,.97-2.54,1.93-5.09,2.9-7.63,1.83-.91,3.61-1.95,5.4-3.07,.15-.1,.31-.19,.46-.29-.01,.08-.03,.15-.03,.24,.48,4.88,.97,9.76,1.45,14.64Zm18.66-26.81c-2.38,3.57-6.93,4.53-10.79,5.56-4.37,1.17-8.05,3.23-11.86,5.61-1.07,.67-2.15,1.28-3.24,1.85-.09-.07-.19-.13-.3-.16-.56-.15-1.04,.19-1.23,.7-.03,.09-.07,.17-.1,.26-2.29,1.07-4.66,1.92-7.21,2.5-1.7,.39-3.42,.69-5.14,.96-.3-.1-.62-.18-.94-.23-.52-.09-.91,.19-1.1,.56-1.96,.29-3.92,.57-5.86,.91-4.42,.77-8.69,2.04-12.89,3.61-4.22,1.58-8.37,3.36-12.63,4.84-4.3,1.5-9.32,3.3-13.92,2.34-4.39-.91-7.79-4.62-11.07-7.43-3.78-3.23-7.55-6.47-11.33-9.7-.83-.71-1.77-1.38-2.52-2.17-.38-.4-.78-.72-.48-1.23,.3-.51,1.04-.98,1.47-1.37,1.84-1.66,3.67-3.32,5.51-4.97,3.62-3.27,7.13-6.74,10.89-9.84,1.04-.85,3.06-2.25,4.31-1.22-.43,.17-.78,.58-.69,1.16,1.29,8.11,8.98,12.98,16.58,14.11,8.39,1.25,17.25-.5,24.87-4.1,4.08-1.93,7.61-4.58,11.23-7.23,3.69-2.71,7.55-4.84,11.92-6.24,2.14-.69,4.32-1.24,6.5-1.74,1.02-.23,2.05-.45,3.08-.67,1.05-.22,2.53-.79,3.57-.29,.8,.38,1.24,1.33,1.64,2.06,.45,.8,.93,1.57,1.49,2.3,1.09,1.43,2.38,2.66,3.85,3.69,1.54,1.09,3.27,1.92,5.07,2.45,.41,.12,2.04,.22,2.29,.54,.37,.46-.64,2.11-.95,2.57Z"/></g></g></svg>
