<svg id="Oeillet" xmlns="http://www.w3.org/2000/svg" viewBox="0 0 231.39 326.2">
<g id="Calque_4"><g>
<path class="cls-1" d="M119.16,162.48c-.18,.42-.58,.76-1.15,.66-.39-.06-.77-.16-1.16-.24,.12,.31,.08,.67-.26,.96-4.62,4.01-4.73,11.67-.49,15.95,.07,.02,.13,.03,.2,.07,2.33,1.38,5.01,1.97,7.71,1.74,.39-.03,.73,.24,.9,.59,.02,.01,.04,.02,.05,.04,.31,.34,.62,.68,.94,1.02,.12,.12,.21,.27,.26,.44,.01,.09,.02,.18,.04,.27,0,.02-.01,.04-.01,.06,2.9,4.82,4.58,10.3,4.96,15.92,.36,5.21-.41,10.56-2.34,15.42-.88,2.22-1.9,4.76-3.82,6.28-1.79,1.43-4.24,1.71-6.07,.19-2.01-1.67-3-4.43-3.63-6.88-.72-2.79-1.1-5.69-1.2-8.57-.2-5.89,.88-11.79,3.14-17.23,.49-1.17,2.42-.66,1.93,.53-2.22,5.36-3.29,11.12-3.06,16.92,.1,2.57,.45,5.12,1.07,7.62,.52,2.09,1.35,5.02,3.28,6.27,2.44,1.57,4.48-1.55,5.4-3.37,1.03-2.05,1.81-4.22,2.37-6.44,2.24-8.88,.76-18.53-4.13-26.29-.06-.09-.08-.18-.1-.27,0,0-.01-.02-.02-.02-.02-.02-.03-.04-.05-.07-.12-.13-.24-.26-.36-.39,0,0,0,0-.01-.01-2.17,.11-4.35-.27-6.36-1.1-.04,.08-.07,.17-.13,.25-4.86,5.88-7.44,13.23-8.81,20.64-1.49,8.06-1.58,16.48,1.04,24.32,.41,1.23-1.52,1.75-1.93,.53-2.73-8.18-2.59-16.97-1.04-25.38,1.35-7.3,3.93-14.42,8.44-20.35-6.96,1.9-12.35,7.25-16.8,12.74-8.95,11.02-15.84,25.14-14.79,39.67,.23,3.15,.98,6.61,3.21,8.99,2.3,2.45,5.75,3.06,8.94,2.35,7.18-1.58,10.98-8.46,14.23-14.41,.43-.79,1.57-.55,1.83,.24,1.49,4.56,4.59,8.4,8.71,10.85,.59,.35,.61,1.08,.2,1.57-2.53,3.05-4.43,6.92-4.13,10.98,.26,3.43,2.35,6.87,5.67,8.09,.68,.25,1.02,1.11,.44,1.67-3.02,2.91-5.07,6.6-6.25,10.61-2.35,8.02-1.08,16.5,.84,24.47,1.84,7.62,4.23,15.1,7.12,22.39,2-4.06,3.99-8.12,5.99-12.18,3.75-7.62,7.95-15.49,8.41-24.15,.22-4.21-.48-8.44-2.5-12.17-1.9-3.5-4.66-6.42-7.37-9.3-.34-.36-.43-1.07,0-1.41,2.96-2.34,4.67-6.11,4.12-9.9-.53-3.65-3.12-6.87-6.54-8.23-.82-.33-.98-1.3-.24-1.83,3.36-2.38,6.31-5.27,8.75-8.59,.46-.62,1.28-.66,1.73,0,2.33,3.42,5.26,6.44,8.65,8.81,3.24,2.26,7.65,4.97,11.77,4.41,7.08-.96,7.44-11.55,7.46-16.9,.03-7.52-1.64-15.07-4.88-21.87-5.69-11.93-16.17-21.2-28.59-25.59,8.7,12.5,9.3,28.52,6.23,43.04-.27,1.26-2.19,.72-1.93-.53,3.07-14.51,2.34-30.47-6.87-42.71-.21-.27-.23-.55-.15-.78-.41-.37-.53-1.04-.07-1.46,3.13-2.84,4.86-7.05,4.4-11.28-.42-3.88-2.7-7.36-5.92-9.5-2.25,1.03-4.69,1.67-7.25,1.84Z"/>
<path class="cls-1" d="M101.73,152.2c-.22,.17-.45,.33-.67,.5-.09,.07-.18,.13-.26,.2-.04,.03-.08,.06-.12,.09,0,0,0,0,0,0-.18,.14-.35,.27-.52,.41-.72,.57-1.42,1.15-2.12,1.75-.16,.14-.35,.21-.53,.25-4.12,3.03-8.22,6.1-12.28,9.21-7.67,5.89-15.22,11.94-22.65,18.14-3.72,3.1-7.4,6.24-11.05,9.42-1.8,1.56-3.58,3.13-5.36,4.71-.88,.78-1.77,1.54-2.63,2.35-.55,.52-1.2,1.16-1.31,1.9,4.94-.35,9.88-.7,14.82-1.05,.6-.04,1.19,.68,.96,1.27-1.39,3.53-3.07,6.94-5.1,10.16-1.02,1.62-2.16,3.15-3.28,4.7-.94,1.3-1.96,2.79-1.82,4.41,1.25-.2,2.5-.4,3.75-.6,1.35-.22,2.82-.63,4.2-.52,2.64,.22,2.89,2.78,3.19,4.88,.45,3.16,.9,6.31,1.35,9.47,.28,1.92,.57,4.28,2.11,5.61,4.83-4.21,8.48-9.48,11.8-14.92,12.84-21.04,21.97-44.05,34.23-65.4-2.65-1.86-4.94-4.23-6.69-6.95Z"/>
<path class="cls-1" d="M107.29,121.66c2.94-2.27,6.41-3.72,9.99-4.26,0-.01,0-.03-.01-.04-.13-.12-.23-.27-.27-.5-1.3-8.11-2.14-16.28-2.64-24.48-.89-14.63-.74-29.29-.53-43.94,.11-7.42,.23-14.85,.24-22.27,0-3.67-.02-7.34-.08-11-.03-1.95-.08-3.91-.14-5.86-.03-.89,.02-1.89-.19-2.81-1.48,2.81-2.9,5.66-4.21,8.56-.81,1.8-1.58,3.62-2.32,5.46-.59,1.48-1.06,3.11-1.93,4.45-1.68,2.58-4.58,2.93-7.28,1.79-2.68-1.13-4.85-3.9-7.77-4.4-1.08,4.77-1.94,9.58-2.54,14.44-.08,.63-.58,1.16-1.27,.96-3.42-.95-6.56-2.55-9.34-4.72,.29,5.44,3.69,10.76,1.55,16.18-.15,.38-.5,.79-.96,.73-5.02-.55-9.95-1.59-14.74-3.14,1.27,4.47,2.34,9.03,1.93,13.7-.04,.43-.28,.85-.73,.96-9.7,2.33-18.9-3.35-28.54-2.86,3.74,5.35,8.58,9.96,13.06,14.65,17.46,18.28,35.54,35.95,54.2,53,1.29-1.72,2.81-3.28,4.52-4.61Z"/>
<path class="cls-1" d="M55.37,103.13c-4.67-3.14-9.34-6.29-14-9.43-3.67-2.47-7.33-5.2-11.51-6.72,.78,1.97,1.34,4.02,1.65,6.13,.32,2.22,.7,5.05-1.04,6.81-1.77,1.79-4.77,1.67-7.09,1.9-2.71,.27-5.41,.54-8.12,.81,2.45,4.48,4.23,9.65,.69,14.12-1.76,2.23-4.19,3.96-6.44,5.67-1.98,1.51-4.05,2.91-6.14,4.25,3.43,.99,6.87,1.96,10.27,3.05,2.79,.9,5.8,2.3,6.8,5.3,1.19,3.56-1.15,7.14-3.22,9.85-2.24,2.94-4.5,5.86-6.75,8.79,3.44-.12,6.88-.24,10.32-.35,2.5-.09,5.73-.18,7.51,1.93,2.42,2.85-.47,6.33-2.08,8.75-2.12,3.18-4.24,6.35-6.36,9.53,1.88,1.06,4.31,.84,5.72,2.84,1.4,1.98,.96,4.66,.29,6.83-1.8,5.8-4.36,11.44-7.26,16.79,1.33-.17,2.58-.88,3.73-1.59,1.43-.88,2.84-1.8,4.25-2.71,3-1.93,5.99-3.89,8.97-5.85,21.14-13.96,41.76-28.68,62.38-43.39,.08-.05,.15-.09,.23-.12,.02-.02,.05-.04,.07-.05,.16-.09,.32-.14,.5-.14,.06,0,.12,.02,.18,.02-.18-.61-.34-1.22-.46-1.85-.79-3.9-.41-7.87,.87-11.54-5.25-3.54-10.5-7.07-15.75-10.61-9.4-6.33-18.81-12.67-28.21-19Z"/>
<path class="cls-1" d="M123.58,117.39c2.76,.41,5.44,1.38,7.87,2.96,2.58,1.68,4.54,3.92,5.94,6.48,4.3-4.71,8.59-9.44,12.84-14.2,8.2-9.19,16.3-18.46,24.31-27.82,4-4.68,7.97-9.38,11.92-14.11,1.94-2.32,3.93-4.62,5.81-7,1.52-1.94,3.11-4.33,2.64-6.85l-10.7-.3c-2.93-.08-6.46,.22-9.01-1.52-5.32-3.65-1.61-10.32-1.08-15.43-4.39,.93-8.78,1.86-13.17,2.79-.53,.11-1.09-.15-1.23-.7-1.33-5.01-2.65-10.02-3.98-15.02-5,3.47-10.19,6.66-15.57,9.53-.59,.32-1.26,.03-1.47-.6-2.18-6.46-4.35-12.92-6.53-19.39-1.02-3.04-1.96-6.12-3.09-9.12-.7-1.86-1.84-4.31-3.9-4.94-1.2,3.49-1.22,7.18-1.24,10.85-.02,4.16-.04,8.32-.05,12.48-.13,29.76-.26,59.52-.39,89.28,.07,.14,.11,.28,.11,.43-.01,.74-.02,1.47-.03,2.21Z"/>
<path class="cls-1" d="M217.02,132.52c.58-7.53,7.56-11.68,11.05-17.76-5.54-2.06-12.32-.36-16.9-4.84-.33-.32-.36-.82-.16-1.21,1.92-3.82,4.35-7.33,7.18-10.52-1.5-.78-3.45-.56-5.08-.71-1.86-.17-3.63-.68-4.93-2.09-3.26-3.51-2.07-8.44-1.52-12.69,.31-2.43,.47-4.87,.49-7.32,0-1.1,.11-2.34-.1-3.42-.11-.57-.22-.98-.93-.76-.43,.13-.87,.57-1.25,.82-3.52,2.38-6.94,4.93-10.25,7.6-6.49,5.23-12.61,10.9-18.58,16.71-12.04,11.72-23.52,24.03-36.44,34.8-.13,.11-.26,.17-.4,.21,.64,2.32,.93,4.75,.9,7.19,.01,0,.02,0,.03,0,9.05,3.35,18.03,6.89,26.92,10.63,7.73,3.25,15.39,6.63,22.99,10.17,7.69,3.58,15.23,7.42,22.85,11.14,1.9,.93,3.83,1.81,5.83,2.5,.85,.3,1.8,.71,2.72,.69,1.29-.02,.87-1.27,.63-2.13-1-3.64-3.17-6.8-4.77-10.18-.7-1.47-1.68-3.3-1.39-4.98,.24-1.36,1.26-2.27,2.49-2.79,1.69-.72,3.61-.96,5.4-1.36,1.61-.35,3.21-.71,4.82-1.06-2.54-3.09-5.09-6.17-7.62-9.26-2.23-2.73-4.26-5.69-3.97-9.38Z"/>
<path class="cls-1" d="M136.61,129.77c-.48-.21-.81-.79-.58-1.34-1.84-3.74-4.99-6.56-8.88-8.05-7.53-2.89-15.82-.59-21.25,5.23-5.38,5.77-7.37,14.06-4.53,21.51,1.62,4.26,4.61,7.92,8.35,10.48,.49-.06,1,.26,1.14,.73,1.85,1.11,3.86,1.96,5.96,2.5,.16-.19,.4-.32,.73-.31,2.84,.04,5.5-.57,7.9-1.66,.2-.36,.6-.59,1.04-.49,2.66-1.4,4.97-3.41,6.81-5.82-.08-.49,.28-.9,.74-1.04,1.87-2.75,3.18-5.94,3.74-9.31,.68-4.09,.38-8.55-1.17-12.44Z"/>
<path class="cls-1" d="M138.83,146.35c-.73,2.29-1.8,4.45-3.14,6.4,3.65,5.68,7.14,11.46,10.51,17.3,6.21,10.75,12.04,21.72,17.84,32.7,2.87,5.42,5.73,10.85,8.63,16.25,1.49,2.77,2.98,5.54,4.5,8.29,.76,1.38,1.52,2.75,2.28,4.13,.39,.69,1.1,2.46,2.06,2.9,.45-3.33,1.11-6.61,2.02-9.84,.15-.54,.7-.81,1.23-.7,4.15,.91,7.96,2.82,11.21,5.54,.62-.6,.61-1.87,.59-2.62-.03-1.57-.15-3.14-.22-4.71-.12-2.45-.84-5.73,.76-7.85,3.2-4.24,8.44-.03,12.52-.24-.83-2.15-1.54-4.33-2.08-6.57-.3-1.23-.69-2.55-.78-3.82-.07-.88,.57-1.34,1.29-1.73,2.84-1.55,6.48,.38,9.29-.79-.84-1.16-1.68-2.31-2.51-3.48-.97-1.37-2.1-2.74-2.86-4.24-.74-1.46-.81-3.53,.25-4.73-4.77-3.15-9.56-6.28-14.37-9.37-18.58-11.92-37.48-23.34-56.66-34.25-.08-.05-.13-.11-.19-.17-.3-.15-.59-.34-.85-.56-.22-.11-.44-.22-.66-.34-.18,.84-.39,1.68-.65,2.49Z"/>
<path d="M223.29,141.56c-2.3-2.79-4.79-5.7-4.21-9.58,1.05-7.07,8.27-11.09,11.26-17.22,.22-.45,.16-1.13-.36-1.37-2.81-1.3-5.85-1.58-8.89-1.91-2.79-.3-5.72-.71-7.94-2.51,1.96-3.73,4.36-7.18,7.24-10.28,.35-.38,.41-1.04,0-1.41-1.3-1.17-2.87-1.54-4.59-1.67-1.76-.13-3.79,.08-5.35-.92-4.02-2.58-2.19-8.7-1.74-12.49,.3-2.51,.44-5.04,.43-7.57,0-1.57,.22-3.82-1.05-5.02-1.55-1.47-3.42,.1-4.77,1.02-1.76,1.2-3.5,2.45-5.21,3.73-13.91,10.42-25.97,22.99-38.26,35.21-6.88,6.84-13.86,13.58-21.3,19.81-.08-.21-.15-.42-.24-.62,17.04-18.64,33.67-37.66,49.86-57.04,2.16-2.58,4.46-5.11,6.42-7.84,1.72-2.4,3.07-5.33,2.04-8.29-.15-.43-.5-.72-.96-.73-3.26-.09-6.52-.18-9.77-.27-1.6-.04-3.19-.08-4.79-.13-1.43-.05-2.95-.12-4.26-.77-2.46-1.22-2.75-4.21-2.35-6.64,.49-2.94,1.72-5.68,1.66-8.7-.01-.68-.63-1.1-1.27-.96-4.5,.95-9.01,1.91-13.51,2.86-1.37-5.16-2.73-10.31-4.1-15.47-.15-.58-.94-.97-1.47-.6-5.01,3.54-10.22,6.77-15.61,9.69-2.3-6.84-4.61-13.69-6.92-20.53-1.02-3.02-1.82-6.24-3.3-9.07-1.16-2.22-2.89-4-5.48-4.26-.47-.05-.81,.35-.96,.73-1.29,3.16-1.55,6.57-1.61,9.95-.06,3.76-.04,7.52-.06,11.29-.03,7.49-.07,14.97-.1,22.46-.07,15.14-.13,30.28-.2,45.41-.04,8.42-.07,16.84-.11,25.26-.19,.4-.29,.84-.32,1.28-.02,.26,0,.52,.05,.78-.63-.02-1.26-.02-1.89,.01-.15-.39-.28-.79-.36-1.2-.02-.09-.07-.18-.12-.27-4.65-29.54-2.82-59.54-2.77-89.31,0-4.24-.02-8.48-.11-12.71-.04-2.03-.04-4.07-.18-6.09-.1-1.49-.42-2.84-1.41-4-.42-.48-1.28-.33-1.57,.2-3.29,6.06-5.93,12.32-8.57,18.66-.61,1.46-1.49,2.87-3.23,2.95-1.48,.07-2.94-.72-4.13-1.52-2.38-1.59-4.47-3.56-7.5-3.64-.42-.01-.87,.32-.96,.73-1.11,4.79-1.97,9.62-2.62,14.49-3.35-1.09-6.41-2.86-9.03-5.25-.69-.63-1.61-.14-1.71,.71-.35,3.02,.48,5.96,1.24,8.86,.7,2.66,1.34,5.39,.6,8.06-5.2-.63-10.32-1.83-15.26-3.57-.73-.26-1.43,.53-1.23,1.23,1.35,4.62,2.66,9.31,2.42,14.16-9.78,1.96-19.24-4.23-29.1-2.91-.69,.09-1.32,.8-.86,1.5,3.38,5.23,7.88,9.65,12.15,14.14,4.47,4.71,8.98,9.38,13.54,14.01,8.99,9.14,18.15,18.13,27.45,26.96,5.17,4.9,10.39,9.75,15.65,14.56-.58,.93-1.1,1.9-1.55,2.9-18.83-12.68-37.65-25.36-56.48-38.04-4.79-3.22-9.57-6.96-15.27-8.4-.89-.22-1.5,.7-1.13,1.47,1.05,2.19,1.8,4.5,2.22,6.88,.33,1.89,1.05,5.17-1.1,6.24-.92,.46-2,.52-3.01,.62-1.3,.13-2.6,.26-3.9,.39-2.6,.26-5.19,.52-7.79,.78-.73,.07-1.28,.8-.86,1.5,1.3,2.22,2.62,4.55,3.1,7.11,.52,2.77-.44,5.15-2.39,7.11-3.75,3.79-8.47,6.87-13.01,9.63-.74,.45-.59,1.58,.24,1.83,3.72,1.1,7.44,2.19,11.15,3.29,2.55,.76,5.99,1.73,6.75,4.67,.85,3.31-2.17,6.67-4.02,9.07-2.36,3.07-4.72,6.14-7.08,9.21-.47,.61,.17,1.53,.86,1.5,3.47-.12,6.94-.24,10.41-.36,2.23-.08,5.78-.73,7.68,.87,1.28,1.07,.57,2.74-.15,3.93-.88,1.45-1.88,2.84-2.82,4.25l-5.91,8.85c-.23,.34-.17,.94,.16,1.21,.8,.67,1.68,1.07,2.67,1.37,1.04,.31,2.28,.48,3.11,1.23,1.83,1.64,.65,4.81-.01,6.73-1.98,5.74-4.49,11.28-7.45,16.59-.29,.52-.06,1.35,.6,1.47,2.86,.53,5.28-.88,7.61-2.37,2.74-1.74,5.46-3.51,8.18-5.29,5.5-3.6,10.97-7.25,16.41-10.94,10.82-7.34,21.52-14.85,32.18-22.41,5.56-3.94,11.11-7.91,16.66-11.87,.08-.02,.16-.05,.23-.1,.42-.31,.84-.62,1.26-.93,.09-.05,.16-.13,.22-.21,.35,.94,.78,1.84,1.26,2.72-1.1,.82-2.18,1.67-3.24,2.54-.11,.03-.22,.08-.34,.16-16.39,12.01-32.28,24.7-47.59,38.06-2.15,1.88-4.29,3.77-6.43,5.67-1.53,1.37-3.71,3.26-2.76,5.56,.16,.39,.49,.77,.96,.73,4.71-.33,9.43-.67,14.14-1-1.45,3.42-3.2,6.71-5.28,9.79-1.93,2.87-5.51,6.23-4.16,10.03,.2,.55,.66,.79,1.23,.7,1.44-.23,2.88-.46,4.33-.69,.72-.12,1.44-.23,2.16-.35,.62-.1,1.47-.36,2.09-.15,1.09,.36,1.03,2.48,1.16,3.39,.21,1.46,.42,2.91,.62,4.37,.36,2.5,.56,5.08,1.17,7.54,.48,1.94,1.38,3.74,3.15,4.79,.41,.24,.87,.13,1.21-.16,4.5-3.74,8.03-8.44,11.17-13.34,3.37-5.26,6.42-10.73,9.35-16.24,5.96-11.19,11.31-22.69,17.01-34.01,3-5.96,6.11-11.86,9.43-17.65,1.6,.94,3.3,1.69,5.07,2.22-5.16,4.5-5.48,13.12-1.03,18.18-6.59,1.8-11.95,6.56-16.32,11.68-5.16,6.04-9.54,12.79-12.59,20.14-2.98,7.15-4.71,15.1-4.05,22.87,.29,3.36,1.11,6.83,3.3,9.49,2.17,2.65,5.51,3.91,8.89,3.74,8.26-.41,13.13-7.22,16.87-13.83,1.68,3.8,4.4,7.03,7.87,9.34-2.61,3.46-4.45,7.7-3.9,12.1,.45,3.62,2.47,6.95,5.63,8.71-11.48,12.33-6.63,31.58-2.2,45.94,1.53,4.96,3.29,9.84,5.27,14.64,.29,.71,1.41,1.1,1.83,.24,2.17-4.41,4.33-8.82,6.5-13.22,2.02-4.1,4.1-8.18,5.81-12.43,3.22-7.97,4.92-17.15,1.29-25.29-1.78-3.98-4.74-7.28-7.71-10.44,3.05-2.83,4.57-7.13,3.89-11.26-.62-3.77-3.06-6.96-6.32-8.81,2.69-2.08,5.1-4.46,7.2-7.13,2.03,2.77,4.41,5.26,7.14,7.37,3.05,2.35,6.63,4.53,10.41,5.43,3.64,.87,7.25,0,9.59-3.03,2.04-2.63,2.8-6,3.22-9.24,2.07-16-3.64-32.54-15.21-43.79-5.67-5.52-12.58-9.69-20.08-12.19,2.86-3.22,4.34-7.61,3.81-11.92-.5-4.05-2.69-7.72-5.89-10.18,2.27-1.34,4.3-3.09,6-5.14,13.73,21.51,25.14,44.36,37.21,66.81,1.71,3.18,3.44,6.36,5.19,9.53,1.23,2.22,2.64,6.11,5.82,5.56,.47-.08,.68-.55,.73-.96,.39-3.18,1.02-6.33,1.85-9.42,3.69,.96,7.08,2.74,9.94,5.29,.25,.22,.64,.39,.97,.26,2-.77,2.47-2.82,2.43-4.79-.05-3.05-.44-6.11-.42-9.16,0-1.33,.38-2.54,1.73-3.02,1.05-.38,2.29-.26,3.36-.02,2.71,.63,5.19,1.99,8.03,1.15,.47-.14,.91-.72,.7-1.23-1.42-3.47-2.46-7.06-3.13-10.74,1.46-.94,3.53-.53,5.17-.42,1.84,.13,3.78,.09,5.31-1.08,.39-.3,.71-.89,.36-1.37-1.43-1.95-2.83-3.91-4.22-5.89-.71-1.02-3.74-4.87-1.04-5.35,.91-.16,.89-1.4,.24-1.83-18.4-12.19-37.12-23.9-56.14-35.1-5.11-3.01-10.24-5.98-15.39-8.91-.08-.19-.2-.36-.39-.45-.96-.49-1.92-.98-2.88-1.47,.05-.4,.1-.79,.14-1.19,16.16,5.99,32.09,12.61,47.74,19.85,7.78,3.6,15.46,7.41,23.13,11.24,1.78,.89,3.57,1.74,5.42,2.49,1.6,.65,3.41,1.48,5.16,1.49,4.33,0,2.61-5,1.59-7.41-.8-1.89-1.8-3.67-2.75-5.48-.49-.93-.98-1.86-1.41-2.82-.41-.89-1.29-2.45-.92-3.47,.59-1.64,4.08-1.82,5.46-2.13,2.43-.54,4.86-1.07,7.3-1.61,.8-.18,.89-1.13,.44-1.67-2.61-3.17-5.22-6.35-7.83-9.52Zm-124.84,2.71c.13,.62,.28,1.24,.46,1.85-.06,0-.12-.02-.18-.02-.18,0-.35,.05-.5,.14-.02,.02-.05,.03-.07,.05-.07,.03-.15,.07-.23,.12-20.62,14.72-41.24,29.44-62.38,43.39-2.98,1.97-5.97,3.92-8.97,5.85-1.41,.91-2.82,1.83-4.25,2.71-1.14,.7-2.39,1.41-3.73,1.59,2.9-5.35,5.46-10.98,7.26-16.79,.67-2.17,1.11-4.85-.29-6.83-1.41-2-3.85-1.78-5.72-2.84,2.12-3.18,4.24-6.35,6.36-9.53,1.61-2.42,4.5-5.9,2.08-8.75-1.78-2.11-5.01-2.01-7.51-1.93-3.44,.12-6.88,.24-10.32,.35,2.25-2.93,4.51-5.85,6.75-8.79,2.06-2.71,4.41-6.28,3.22-9.85-1-2.99-4.01-4.4-6.8-5.3-3.39-1.09-6.84-2.06-10.27-3.05,2.1-1.34,4.16-2.74,6.14-4.25,2.24-1.71,4.67-3.45,6.44-5.67,3.54-4.47,1.76-9.64-.69-14.12,2.71-.27,5.41-.54,8.12-.81,2.32-.23,5.32-.11,7.09-1.9,1.74-1.76,1.36-4.59,1.04-6.81-.31-2.11-.87-4.16-1.65-6.13,4.18,1.52,7.84,4.26,11.51,6.72,4.67,3.14,9.34,6.29,14,9.43,9.4,6.33,18.81,12.67,28.21,19,5.25,3.54,10.5,7.07,15.75,10.61-1.28,3.67-1.66,7.64-.87,11.54ZM123.88,25.47c.02-4.16,.04-8.32,.05-12.48,.02-3.67,.04-7.36,1.24-10.85,2.06,.63,3.19,3.08,3.9,4.94,1.13,3,2.07,6.08,3.09,9.12,2.18,6.46,4.35,12.92,6.53,19.39,.21,.63,.88,.91,1.47,.6,5.38-2.86,10.56-6.05,15.57-9.53,1.33,5.01,2.65,10.02,3.98,15.02,.14,.54,.7,.81,1.23,.7,4.39-.93,8.78-1.86,13.17-2.79-.53,5.11-4.24,11.79,1.08,15.43,2.55,1.75,6.07,1.44,9.01,1.52l10.7,.3c.47,2.52-1.11,4.91-2.64,6.85-1.87,2.38-3.86,4.67-5.81,7-3.95,4.72-7.92,9.43-11.92,14.11-8,9.36-16.1,18.64-24.31,27.82-4.25,4.76-8.54,9.49-12.84,14.2-1.4-2.56-3.36-4.8-5.94-6.48-2.43-1.58-5.12-2.55-7.87-2.96,.01-.74,.02-1.47,.03-2.21,0-.15-.05-.29-.11-.43,.13-29.76,.26-59.52,.39-89.28ZM48.57,73.26c-4.48-4.69-9.33-9.31-13.06-14.65,9.64-.48,18.84,5.2,28.54,2.86,.46-.11,.7-.53,.73-.96,.41-4.67-.66-9.24-1.93-13.7,4.8,1.55,9.73,2.59,14.74,3.14,.47,.05,.81-.35,.96-.73,2.14-5.41-1.26-10.74-1.55-16.18,2.78,2.16,5.92,3.77,9.34,4.72,.69,.19,1.19-.33,1.27-.96,.61-4.85,1.47-9.67,2.54-14.44,2.92,.51,5.09,3.27,7.77,4.4,2.7,1.14,5.6,.79,7.28-1.79,.87-1.34,1.34-2.97,1.93-4.45,.73-1.84,1.51-3.66,2.32-5.46,1.3-2.9,2.72-5.75,4.21-8.56,.21,.91,.16,1.92,.19,2.81,.06,1.95,.11,3.91,.14,5.86,.06,3.67,.09,7.33,.08,11-.01,7.42-.13,14.85-.24,22.27-.21,14.65-.36,29.31,.53,43.94,.5,8.2,1.34,16.37,2.64,24.48,.04,.23,.14,.38,.27,.5,0,.01,0,.03,.01,.04-3.59,.54-7.05,1.99-9.99,4.26-1.71,1.33-3.23,2.89-4.52,4.61-18.66-17.05-36.74-34.73-54.2-53Zm25.62,151.29c-3.32,5.44-6.98,10.72-11.8,14.92-1.54-1.34-1.83-3.69-2.11-5.61-.45-3.15-.9-6.31-1.35-9.47-.3-2.1-.54-4.66-3.19-4.88-1.38-.12-2.85,.3-4.2,.52-1.25,.2-2.5,.4-3.75,.6-.14-1.61,.89-3.1,1.82-4.41,1.12-1.55,2.26-3.08,3.28-4.7,2.02-3.22,3.71-6.62,5.1-10.16,.23-.58-.36-1.31-.96-1.27-4.94,.35-9.88,.7-14.82,1.05,.11-.74,.76-1.38,1.31-1.9,.85-.81,1.75-1.57,2.63-2.35,1.78-1.58,3.57-3.15,5.36-4.71,3.65-3.18,7.33-6.32,11.05-9.42,7.43-6.2,14.98-12.25,22.65-18.14,4.06-3.12,8.16-6.18,12.28-9.21,.19-.04,.37-.11,.53-.25,.7-.6,1.4-1.18,2.12-1.75,.17-.14,.35-.27,.52-.41,0,0,0,0,0,0,.04-.03,.08-.06,.12-.09,.09-.07,.18-.14,.26-.2,.22-.17,.45-.33,.67-.5,1.75,2.72,4.04,5.09,6.69,6.95-12.26,21.35-21.4,44.37-34.23,65.4Zm58.14-54.42c.46,4.23-1.27,8.45-4.4,11.28-.46,.41-.34,1.09,.07,1.46-.08,.23-.06,.5,.15,.78,9.21,12.25,9.95,28.2,6.87,42.71-.27,1.26,1.66,1.79,1.93,.53,3.07-14.52,2.47-30.54-6.23-43.04,12.42,4.39,22.9,13.66,28.59,25.59,3.24,6.79,4.91,14.34,4.88,21.87-.02,5.35-.38,15.94-7.46,16.9-4.12,.56-8.53-2.15-11.77-4.41-3.4-2.37-6.33-5.39-8.65-8.81-.45-.66-1.27-.62-1.73,0-2.43,3.32-5.39,6.22-8.75,8.59-.74,.52-.58,1.5,.24,1.83,3.41,1.36,6,4.59,6.54,8.23,.55,3.79-1.15,7.56-4.12,9.9-.43,.34-.34,1.06,0,1.41,2.71,2.88,5.47,5.79,7.37,9.3,2.03,3.73,2.72,7.96,2.5,12.17-.45,8.66-4.66,16.53-8.41,24.15-2,4.06-3.99,8.12-5.99,12.18-2.89-7.29-5.28-14.77-7.12-22.39-1.92-7.97-3.19-16.44-.84-24.47,1.17-4.01,3.22-7.7,6.25-10.61,.58-.56,.24-1.42-.44-1.67-3.31-1.22-5.41-4.66-5.67-8.09-.31-4.06,1.59-7.93,4.13-10.98,.41-.49,.39-1.22-.2-1.57-4.12-2.45-7.22-6.29-8.71-10.85-.26-.78-1.4-1.03-1.83-.24-3.25,5.95-7.05,12.83-14.23,14.41-3.19,.7-6.64,.1-8.94-2.35-2.23-2.38-2.98-5.84-3.21-8.99-1.05-14.53,5.84-28.65,14.79-39.67,4.45-5.49,9.85-10.84,16.8-12.74-4.51,5.93-7.08,13.05-8.44,20.35-1.56,8.4-1.7,17.2,1.04,25.38,.41,1.21,2.34,.69,1.93-.53-2.62-7.84-2.53-16.26-1.04-24.32,1.38-7.41,3.96-14.77,8.81-20.64,.07-.08,.1-.17,.13-.25,2.01,.83,4.19,1.21,6.36,1.1,0,0,0,0,.01,.01,.12,.13,.24,.26,.36,.39,.02,.02,.03,.05,.05,.07,0,0,.01,.02,.02,.02,.03,.09,.04,.18,.1,.27,4.88,7.75,6.36,17.41,4.13,26.29-.56,2.22-1.34,4.39-2.37,6.44-.92,1.82-2.96,4.95-5.4,3.37-1.93-1.25-2.76-4.18-3.28-6.27-.62-2.49-.97-5.05-1.07-7.62-.23-5.8,.83-11.56,3.06-16.92,.49-1.19-1.44-1.71-1.93-.53-2.25,5.44-3.34,11.34-3.14,17.23,.1,2.88,.48,5.78,1.2,8.57,.63,2.45,1.63,5.21,3.63,6.88,1.83,1.52,4.28,1.24,6.07-.19,1.92-1.53,2.94-4.07,3.82-6.28,1.93-4.86,2.7-10.21,2.34-15.42-.38-5.62-2.07-11.09-4.96-15.92,0-.02,.01-.04,.01-.06-.01-.09-.02-.18-.04-.27-.05-.17-.13-.32-.26-.44-.31-.34-.62-.68-.94-1.02-.02-.02-.04-.02-.05-.04-.16-.34-.5-.62-.9-.59-2.7,.23-5.38-.35-7.71-1.74-.07-.04-.13-.05-.2-.07-4.24-4.28-4.13-11.94,.49-15.95,.34-.29,.37-.65,.26-.96,.39,.09,.77,.18,1.16,.24,.56,.09,.97-.25,1.15-.66,2.56-.17,5-.81,7.25-1.84,3.22,2.14,5.49,5.62,5.92,9.5Zm1.71-18.61c-.45,.14-.82,.55-.74,1.04-1.84,2.41-4.15,4.42-6.81,5.82-.44-.1-.83,.13-1.04,.49-2.41,1.08-5.06,1.69-7.9,1.66-.33,0-.57,.12-.73,.31-2.1-.53-4.11-1.38-5.96-2.5-.14-.47-.66-.8-1.14-.73-3.74-2.56-6.73-6.22-8.35-10.48-2.83-7.44-.85-15.73,4.53-21.51,5.43-5.82,13.72-8.13,21.25-5.23,3.88,1.49,7.04,4.31,8.88,8.05-.23,.54,.1,1.13,.58,1.34,1.55,3.89,1.85,8.35,1.17,12.44-.56,3.37-1.87,6.56-3.74,9.31Zm6.1-7.32c.26,.22,.54,.41,.85,.56,.06,.06,.11,.12,.19,.17,19.18,10.92,38.08,22.34,56.66,34.25,4.81,3.09,9.6,6.21,14.37,9.37-1.05,1.2-.98,3.26-.25,4.73,.76,1.5,1.89,2.87,2.86,4.24,.83,1.17,1.67,2.32,2.51,3.48-2.81,1.16-6.44-.76-9.29,.79-.72,.39-1.35,.85-1.29,1.73,.09,1.27,.48,2.59,.78,3.82,.54,2.24,1.25,4.43,2.08,6.57-4.09,.21-9.32-4.01-12.52,.24-1.6,2.12-.88,5.41-.76,7.85,.08,1.57,.2,3.14,.22,4.71,.01,.75,.03,2.02-.59,2.62-3.24-2.72-7.05-4.64-11.21-5.54-.53-.12-1.08,.16-1.23,.7-.91,3.23-1.57,6.52-2.02,9.84-.95-.44-1.67-2.21-2.06-2.9-.76-1.37-1.52-2.75-2.28-4.13-1.51-2.76-3.01-5.52-4.5-8.29-2.9-5.4-5.76-10.83-8.63-16.25-5.8-10.98-11.63-21.94-17.84-32.7-3.37-5.84-6.87-11.62-10.51-17.3,1.34-1.95,2.41-4.1,3.14-6.4,.26-.81,.46-1.64,.65-2.49,.22,.11,.44,.22,.66,.34Zm83.66,8.03c-1.79,.4-3.71,.64-5.4,1.36-1.23,.52-2.25,1.43-2.49,2.79-.29,1.68,.69,3.51,1.39,4.98,1.6,3.38,3.77,6.54,4.77,10.18,.24,.86,.65,2.11-.63,2.13-.92,.01-1.86-.4-2.72-.69-2-.7-3.93-1.57-5.83-2.5-7.61-3.72-15.16-7.57-22.85-11.14-7.6-3.53-15.26-6.92-22.99-10.17-8.9-3.74-17.87-7.28-26.92-10.63-.01,0-.02,0-.03,0,.04-2.44-.25-4.87-.9-7.19,.14-.04,.27-.1,.4-.21,12.92-10.77,24.4-23.09,36.44-34.8,5.97-5.81,12.09-11.48,18.58-16.71,3.31-2.67,6.73-5.22,10.25-7.6,.38-.25,.82-.69,1.25-.82,.71-.22,.82,.19,.93,.76,.22,1.08,.11,2.32,.1,3.42-.02,2.45-.18,4.89-.49,7.32-.55,4.25-1.73,9.17,1.52,12.69,1.31,1.41,3.07,1.92,4.93,2.09,1.63,.15,3.58-.07,5.08,.71-2.83,3.19-5.26,6.71-7.18,10.52-.2,.4-.17,.89,.16,1.21,4.57,4.48,11.35,2.78,16.9,4.84-3.49,6.07-10.47,10.23-11.05,17.76-.29,3.69,1.74,6.65,3.97,9.38,2.53,3.1,5.08,6.18,7.62,9.26-1.61,.35-3.21,.71-4.82,1.06Z"/></g></g></svg>
