<svg id="Calque_2" xmlns="http://www.w3.org/2000/svg" viewBox="0 0 236.04 360.37">
<g id="Calque_4"><g>
<path class="cls-1" d="M34,126.34c2.69,.26,5.31,1.58,6.6,4.03,0,0,0,0,0,0,.1,.02,.2,.05,.27,.09,.19,.11,.43,.37,.46,.6,.06,.41,.12,.82,.17,1.22,.13-.01,.26,0,.38,.03,.15-.11,.32-.2,.55-.22,5.51-.3,11.09-.38,16.64-.16,.09-.17,.2-.33,.37-.45,.31-.23,.32-.87,.36-1.22,.06-.6,.12-1.19,.26-1.78,.27-1.1,.74-2.15,1.24-3.16,.98-1.97,2.27-3.95,2.28-6.23,0-.38,.18-.63,.42-.78-1.15-3.52-1.96-7.15-2.4-10.83-.43-3.53-.57-7.16-.21-10.7,.14-1.43,.6-3.04,1.44-4.28-2.08-2.09-4.32-4-7.45-2.98-2.56,.83-4.8,2.73-6.81,4.47-3.38,2.94-6.6,6.15-10.81,7.88-2.5,1.03-5.16,1.62-7.55,2.91-2.23,1.21-4.21,2.8-6.24,4.32-2.19,1.64-4.45,3.19-6.77,4.63-.67,.41-1.34,.82-2.02,1.21-.47,.28-1.24,.55-1.64,.93-.39,.37-.51,.06-.2,.77,.1,.23,.21,.46,.33,.69,.22,.46,.46,.91,.72,1.35,2.28,3.97,5.7,7.16,9.77,9.23,.34,.17,.47,.44,.49,.72,.03-.07,.06-.14,.1-.21,.78-1.2,2.59-1.36,3.86-1.63,1.76-.38,3.58-.66,5.38-.49Z"/>
<path class="cls-1" d="M73.18,119.37c3.2,7.4,7.95,14.12,13.98,19.49,3.11,2.77,7.13,6.28,11.59,4.71,3.98-1.4,7.24-5.16,9.42-8.63,5.07-8.06,5.9-17.8,6.03-27.1,.13-9.37-.52-18.85-3.82-27.69-1.66,.27-3.38,.21-5.04-.18-3.78-.87-7.01-3.27-9.74-5.94-3.06-.66-5.82-2.61-8.09-4.76-3.22-3.03-6.04-6.57-8.59-10.2-2.3,4.95-8.64,6.99-13.46,3.82-.65-.43-.67-1.68,.24-1.83,2.75-.45,4.61-2.95,4.74-5.67,.14-3.15-1.62-6.02-3.77-8.18-1.12-1.13-2.36-2.12-3.63-3.07-.5-.37-1.4-1.32-2-1.16-.6,.17-.93,1.81-1.15,2.4-.57,1.55-1.15,3.09-1.72,4.64-.44,1.18-1.28,3.02-.33,4.14,0,0,0,0,.01,.01,.02,.02,.03,.06,.04,.09,.1,.14,.16,.28,.19,.42,.06,.19,.13,.38,.19,.57,.02,.07,.02,.14,.03,.2,.07,.04,.14,.07,.2,.14,2.35,2.38,4.34,5.11,5.83,8.1,.76,1.53,1.41,3.13,1.91,4.77,.22,.71,.33,1.48,.58,2.18,.23,.63,.38,.65,.99,.83,.25,.07,.49,.16,.73,.27,2.28,1,3.27,3.44,5.29,4.75,1.31,.86,2.78,.49,3.85-.59,1.29-1.3,1.67-3.23,2.07-4.94,.29-1.26,2.22-.72,1.93,.53-.3,1.29-.73,2.75-1.39,4.03,.97,1.01,1.42,2.38,1.29,3.81-.17,1.89-1.27,3.5-2.52,4.86-2.64,2.84-5.89,5.15-9.37,6.85,0,0,0,.02,0,.03-.13,.19-.25,.38-.38,.57-.05,.09-.14,.14-.21,.21-.07,.11-.14,.23-.2,.34,0,.02-.03,.02-.04,.04,0,.07,.03,.14,.02,.22-.84,9.16,.68,18.48,4.34,26.93Z"/>
<path class="cls-1" d="M56.79,56.39s0,0-.01,0c-.12-.06-.21-.15-.28-.26-.09-.1-.15-.21-.18-.34-.06-.18-.12-.37-.18-.55-.95-1.36-.83-3-.33-4.59,.73-2.35,1.71-4.64,2.56-6.95,.59-1.58,1.27-3.6,3.38-2.81,.96,.36,1.82,1.17,2.62,1.78,.82,.62,1.64,1.26,2.42,1.94,3.14,2.74,5.92,6.62,5.62,10.99-.18,2.63-1.61,5.18-3.84,6.52,3.91,1.11,8.12-1.2,9.07-5.51,.2-.9,1.38-.9,1.83-.24,2.84,4.18,6.02,8.33,9.75,11.76,1.88,1.73,4.13,3.29,6.57,3.87,.22-.05,.45,0,.67,.13,1.27,.21,2.58,.14,3.93-.3,3.72-1.23,6.9-4.52,8.95-7.77,4.18-6.66,4.13-15.56-1.26-21.53-.5,.42-1.02,.83-1.51,1.26-1.04,.91-1.82,1.97-2.67,3.05-1.47,1.86-3.5,3.09-5.85,3.45-2.45,.38-4.6-.25-6.69-1.49-.66-.39-1.52-1.02-2.34-.87-.66,.12-1.09,.8-1.63,1.15-.89,.59-2.08,.8-2.96,.07-.94-.77-1.14-2.39-1.48-3.48-.35-1.11-.74-2.25-1.58-3.09-.89-.89-1.71-1.49-1.33-2.89,.35-1.27,1.14-2.49,1.82-3.6,.77-1.26,1.6-2.5,2.23-3.85,.63-1.33,1.03-2.76,1.6-4.12,.95-2.27,2.43-4.3,4.86-5.08,.01,0,.02,0,.03,0-1.5-5.77-8.04-7.6-13.37-6.69-9.52,1.63-17.01,9.03-21.78,17.04-2.71,4.55-5.05,9.87-4.43,15.29,.5,4.39,3.26,8.75,7.64,10.04,.02,0,.03,.02,.04,.02-.51-.61-1.04-1.2-1.6-1.76-.19-.19-.26-.41-.27-.62Z"/>
<path class="cls-1" d="M148.83,58.97c.18,1.03,.02,2.09-.69,3.07-.75,1.03-1.95,1.58-2.8,2.51-.87,.96-1.41,2.17-1.73,3.42-.63,2.51-.4,5.31,.54,7.71,.9,2.31,2.69,4.56,5.35,4.66,3.04,.12,5.59-2.49,7.56-4.49,.35-.35,.79-.35,1.14-.16,.46-.51,.92-1.03,1.36-1.56,1.1-1.29,2.34-2.62,3.21-4.08,.96-1.6-.11-3.38-.68-4.96-.6-1.63-1.19-3.27-1.78-4.91-4.15-11.59-7.89-23.4-9.45-35.66-.33-2.57-1.05-5.25,1.51-6.81,2.29-1.4,4.42-2.73,6.34-4.63,3.23-3.19,5.75-6.99,8.13-10.84-2.05,.27-4.1,.54-6.15,.8-1.34,.18-2.73,.3-4.02,.76-1.26,.45-2.35,1.26-3.36,2.12-3.43,2.94-6.68,6.35-9.31,10.03-.68,.96-1.3,1.97-1.41,3.17-.09,1,.05,2.04,.13,3.04,.2,2.4,.45,4.8,.75,7.19,1.18,9.64,3.12,19.19,5.72,28.55,.13,.47-.06,.83-.37,1.04Z"/>
<path class="cls-1" d="M116.38,77.38c.4,0,.8,.2,.99,.66,2.72,6.65,4.55,13.64,5.5,20.74,3.52,1.29,5.3,5.08,8.98,6.15,4.01,1.17,8.56,.53,12.62,0,2.34-.31,4.68-.66,7.02-.99,1.13-.16,2.26-.32,3.39-.48,.74-.1,2.26-.01,2.8-.55,.55-.56,.2-2.39,.19-3.16-.01-1.06-.03-2.12-.05-3.18-.04-2.2-.11-4.4-.2-6.6-.14-3.41-.36-6.82-.62-10.23-.33,.1-.67,0-.92-.24-1.53,1.29-3.23,2.37-5.19,2.71-2.58,.45-5.06-.6-6.72-2.59-2.94-3.52-3.74-9.13-2.13-13.39,.43-1.14,1.04-2.21,1.87-3.11,.75-.82,1.89-1.33,2.56-2.22,1.09-1.45-.1-3.2-1.11-4.3-.47-.51-.97-1.35-1.78-1.07-.55,.19-1.21,.99-1.7,1.37-4.76,3.69-10.01,6.06-15.57,8.27-4.8,1.91-11.49,5.78-9.95,12.02,.02,.06,0,.11,0,.17Z"/>
<path class="cls-1" d="M86.5,31.61c-.96,2.51-2.51,4.63-3.78,6.98-.23,.43-.85,1.33-.74,1.81,.09,.38,.76,.76,1.03,1.06,.6,.67,1.02,1.47,1.35,2.3,.42,1.04,.59,2.19,1.05,3.21,.38,.85,.7,.59,1.33,.08,.36-.29,.7-.6,1.12-.8,2.08-1.01,3.9,.68,5.68,1.53,1.88,.9,4.16,.86,6.05,.03,2.25-1,3.19-3.16,4.88-4.8,1.45-1.4,3.4-2.48,4.4-4.29,1.35-2.43-.06-5.36-.95-7.7-.83-2.19-1.66-4.38-2.5-6.57-1.54,1.04-3.38,1.6-5.27,1.44-2.25-.2-4.25-1.37-6.43-1.79-.11,.04-.22,.08-.36,.08-.54,0-1.09,.01-1.63,.02-.05,.34-.25,.67-.67,.8-2.83,.9-3.62,4.16-4.56,6.61Z"/>
<path class="cls-1" d="M199.23,257.41c-10.86,7.87-20.17,17.68-30.48,26.23-19.57,16.24-43,29.16-69.04,29.19-14.02,.02-27.87-2.91-41.9-2.83-6.96,.04-13.83,.94-20.43,3.21-3.56,1.22-7.16,2.69-10.84,3.48-.19,1.08-.52,2.13-.93,3.14,0,.14-.04,.28-.12,.43-.12,.22-.25,.43-.37,.65-.09,.18-.17,.36-.27,.54-.03,.06-.08,.09-.12,.14-3.48,6.09-8.39,11.28-14.27,15.08,.89,0,1.78-.03,2.67-.03,17.26,.06,34.42,2.07,51.59,3.47,17.03,1.38,34.3,2.21,51.27-.29,8.53-1.26,16.75-3.61,25-6.04,8.16-2.4,16.27-4.38,24.75-5.16,.69-.06,1.37-.13,2.05-.19,.18-.06,.34-.07,.5-.05,7.27-.7,14.35-1.66,20.97-5.09,6.48-3.36,12.05-8.24,16.9-13.65,10.42-11.63,17.45-25.8,27.34-37.84-10.82-5.89-22.21-10.66-34.01-14.23-.11-.03-.19-.09-.27-.14Z"/>
<path class="cls-1" d="M65.63,151.82c.88,.6,2.31,.02,3.2-.25,.86-.27,1.72-.57,2.56-.9,1.6-.64,3.15-1.4,4.63-2.27,.93-.55,1.69-.85,1.41-2.03-.21-.89-.73-1.8-1.1-2.63-.68-1.53-1.41-3.04-2.18-4.52-.69-1.32-1.51-3.8-3.09-4.22-1.8-.48-3.88-.45-5.73-.6-7.61-.6-15.26-.68-22.89-.27-.1,0-.17-.02-.25-.04-.1,.07-.2,.13-.31,.16-.16,.04-.3,.1-.45,.15-.04,.04-.08,.08-.12,.11-.22,.13-.42,.28-.63,.44-.46,.36-.88,.77-1.25,1.22-.17,.2-.46,.28-.71,.29-.27,.01-.52-.12-.71-.29-.18-.17-.29-.46-.29-.71,0-.28,.12-.5,.29-.71,.3-.36,.64-.69,.99-1,0,0,0-.02,0-.03,.02-.08,.07-.15,.11-.22-.09-.15-.15-.33-.14-.49,.03-.41,.02-.82-.03-1.23,0-.04-.01-.09-.02-.13-.02-.07-.02-.13-.03-.2-.01-.02-.03-.03-.04-.05-1.17-2.23-3.64-3.1-6.04-3.1-1.48,0-2.94,.29-4.37,.63-.47,.11-1.47,.17-1.85,.5-.43,.37-.25,1.3-.23,1.78,.2,5.3,1.58,10.5,3.92,15.24,8.4-1.39,16.79-2.79,25.19-4.18,1.96-.33,3.93-.65,5.89-.98,1.37-.23,3.23-.91,4.61-.5,2.13,.62,3.42,4.36,3.26,6.37-.08,1.1-.62,2.1-1.59,2.66-.69,.4-3.79,.82-2.03,2.02Z"/>
<path class="cls-1" d="M135.62,337.44c-8.19,2.37-16.47,4.14-24.95,5.05-17.26,1.85-34.65,.62-51.89-.88-14.18-1.24-28.39-2.67-42.63-2.91-.03,.04-.07,.08-.1,.13-.16,.21-.31,.43-.46,.65-.17,.34-.36,.67-.59,.98-.09,.15-.21,.27-.36,.36-.08,.03-.16,.07-.24,.1,0,0,0,0-.01,0-3.93,4.28-7.86,8.56-11.79,12.85,2.41,1.15,5.03,1.7,7.67,2.08,3.23,.46,6.49,.78,9.74,1.09,6.55,.62,13.12,1.02,19.7,1.24,11.93,.4,23.87,.2,35.79-.43,11.66-.62,23.36-1.49,34.89-3.47,10.78-1.85,21.45-4.7,31.41-9.28,4.68-2.16,9.2-4.68,13.45-7.62,2.17-1.5,4.22-3.14,6.26-4.82,.73-.6,1.47-1.18,2.23-1.74-.91,.1-1.82,.2-2.72,.32-8.67,1.13-17.02,3.89-25.39,6.32Z"/>
<path class="cls-1" d="M63.23,308.11c13.69,.6,27.29,3.32,41.03,2.6,12.77-.67,25.15-4.66,36.46-10.52,11.29-5.85,21.6-13.45,31.13-21.82,9.37-8.23,18.23-17.12,28.54-24.18-14.06-.65-28.15,.24-42.01,2.72-2.94,3.7-6.83,6.65-11.11,8.79-6.93,3.46-14.63,4.71-22.29,5.3-4.3,.33-8.61,.46-12.92,.69-4.11,.22-8.28,.46-12.25,1.64-3.93,1.17-6.99,3.65-10.5,5.63-3.33,1.87-7.03,2.8-10.83,3.05-3.82,.25-7.65-.17-11.42-.78-4.4-.72-8.76-1.82-13.26-1.33-.46,.05-.75-.18-.88-.51-.07,.08-.13,.16-.2,.23-.17,.18-.35,.26-.54,.29,.02,.41-.18,.82-.69,.96-7.94,2.18-13.51,8.83-17.81,15.48-4.18,6.45-7.79,13.43-13.31,18.85,7,.59,13.75-3.35,20.35-5.12,7.32-1.96,14.96-2.3,22.5-1.97Z"/>
<path class="cls-1" d="M67.81,279.34c4.25,.69,8.66,1.08,12.94,.44,3.93-.59,7.22-2.24,10.52-4.38,3.19-2.07,6.39-3.71,10.13-4.53,7.76-1.69,15.93-1.26,23.82-1.88,10.8-.85,23.47-3.81,30.81-12.21-.42-.52-.37-1.4,.46-1.55,.3-.06,.6-.1,.91-.15,.6-.83,1.15-1.71,1.65-2.63-5.17,2.29-11.31,2.15-16.62,.29-7.15-2.51-13.05-7.68-18.17-13.11-4.44-4.71-8.45-9.99-11.05-15.94-2.71-6.2-3.58-12.76-2.38-19.44,1.31-7.28,4.58-13.98,6.76-21,2.12-6.82,3.46-14.58,.4-21.34-1.41-3.1-3.45-5.91-4-9.34-.55-3.51,.27-7.03,1.36-10.35,1.17-3.57,2.54-7.06,3.51-10.7,.92-3.45,1.63-6.96,2.09-10.5,1.87-14.33-.03-29.04-5.5-42.4-.02-.05-.03-.09-.04-.14-.17,0-.33,0-.48-.07-.82,.56-1.69,1-2.61,1.31,3.96,10.62,4.32,22.39,3.7,33.59-.52,9.43-2.57,19.22-8.97,26.51-2.74,3.12-6.8,6.56-11.24,6.19-4.33-.36-8.04-3.76-11.06-6.6-12.63-11.84-19.46-29.57-17.91-46.82-4.44-.43-3.68,7.74-3.58,10.46,.15,3.95,.74,7.86,1.75,11.68,2.03,7.71,5.75,14.95,10.9,21.04,.53,.62,.14,1.42-.42,1.67,.46,.87,.89,1.76,1.32,2.63,.84,1.72,1.63,3.46,2.34,5.24,.56,1.4,.68,2.74-.54,3.82-1.32,1.17-3.19,1.97-4.78,2.7-1.7,.78-3.48,1.49-5.3,1.96-.75,.19-1.56,.32-2.34,.26-.01,.02-.02,.05-.04,.07-5.01,7.7-8,17.9-8.09,26.99-.19,18.08,6.77,35.15,9.19,52.88,1.18,8.63,.98,17.3-2.02,25.55-2.46,6.76-6.34,12.89-10.98,18.36,4.58-.4,9.06,.74,13.56,1.47Z"/>
<path d="M235.55,270.61c-10.91-6.03-22.42-10.92-34.33-14.61,.89-.61,1.79-1.22,2.7-1.8,.86-.55,.48-1.8-.5-1.86-14.51-.91-29.08-.12-43.41,2.28,.78-1.22,1.45-2.52,2.01-3.88,.1-.07,.21-.14,.31-.21,1.03-.75,.03-2.49-1.01-1.73,0,0-.01,0-.02,.01-.35,.02-.68,.21-.86,.59-5.07,3.24-11.49,3.4-17.13,1.51-6.34-2.12-11.61-6.57-16.24-11.26-4.63-4.68-8.82-9.92-11.66-15.9-2.9-6.12-3.87-12.77-2.6-19.44,2.55-13.31,12.05-26.35,8.02-40.38-.92-3.22-2.88-5.91-4.12-8.98-1.45-3.58-.95-7.31,.12-10.91,1.04-3.49,2.44-6.85,3.46-10.34,.94-3.24,1.68-6.53,2.22-9.85,1.22-7.52,1.42-15.19,.62-22.75,1.21,.7,2.18,1.77,3.2,2.74,1.35,1.29,2.8,2.32,4.59,2.91,4.19,1.38,9.01,.77,13.29,.22,2.36-.31,4.72-.66,7.07-.99,1.13-.16,2.26-.32,3.39-.48,1.14-.16,2.48-.17,3.56-.59,1.87-.73,1.65-2.74,1.64-4.41-.02-2.45-.07-4.89-.14-7.33-.16-5.09-.46-10.18-.87-15.26,1.59-1.75,3.13-3.53,4.58-5.4,.74-.96,1.53-1.92,1.72-3.16,.23-1.5-.49-2.96-.99-4.33-2.13-5.79-4.21-11.6-6.04-17.49-1.87-6.02-3.48-12.13-4.57-18.34-.26-1.46-.49-2.93-.68-4.4-.16-1.24-.95-4.03,.02-4.99,.81-.8,2.16-1.25,3.11-1.89,1.04-.7,2.03-1.48,2.97-2.32,4.42-3.94,7.6-9.07,10.67-14.07,.36-.59-.09-1.61-.86-1.5-2.62,.34-5.24,.68-7.86,1.03-2.36,.31-4.69,.53-6.76,1.8-1.94,1.18-3.62,2.87-5.22,4.46-1.78,1.76-3.46,3.63-5.04,5.58-1.35,1.67-2.87,3.42-3.23,5.6-.38,2.27,.14,4.81,.37,7.07,.53,5.2,1.27,10.39,2.21,15.54,.83,4.54,1.83,9.06,2.98,13.53-.65-.69-1.44-1.36-2.4-1.31-1.31,.08-2.54,1.57-3.51,2.31-2.44,1.84-5.05,3.46-7.78,4.81-2.79,1.38-5.74,2.36-8.59,3.59-4.99,2.17-10.34,6.52-9.74,12.4-2.47,1.99-5.94,2.31-8.93,1.48-2.45-.68-4.6-2.05-6.53-3.68,.19-.02,.38-.04,.58-.07,4.39-.71,8.14-4.15,10.71-7.6,2.64-3.55,4.26-7.9,4.32-12.34,.07-4.77-1.65-9.48-4.84-13.02,2.12-2.35,2.2-5.2,1.28-8.11-1.13-3.56-2.63-7.03-3.96-10.52-.27-.7-1.09-.99-1.67-.44-1.76,1.66-4.06,2.12-6.37,1.49-2.11-.58-4.02-1.57-6.24-1.66-.08,0-.14,.02-.21,.03-1.52-4.82-6.46-7.6-11.37-7.84-5.55-.27-11.15,2.03-15.61,5.21-4.44,3.16-8.08,7.32-10.98,11.91-3.15,4.98-5.89,10.88-5.46,16.92,.39,5.47,3.71,10.89,9.16,12.5,.08,.02,.15,.01,.23,.02,.14,.07,.28,.11,.43,.11,.33-.04,.65-.08,.98-.12,.13,0,.25-.03,.37-.08,1.4,1.94,2.57,4.04,3.45,6.27,.37,.93,.69,1.88,.96,2.85,.23,.82,.31,1.8,.75,2.53,.38,.63,1,.88,1.67,1.07,.73,.21,1.31,.46,1.89,.97,2.01,1.75,3.43,4.67,6.46,4.71,1.66,.02,2.91-.7,3.85-1.78,.54,.81,.54,1.97,.25,2.85-.49,1.5-1.68,2.68-2.79,3.75-2.42,2.33-5.22,4.21-8.25,5.65-.3,.14-.45,.37-.5,.61-.04,.05-.11,.08-.14,.14-.1,.17-.21,.34-.31,.52-.14-.1-.29-.17-.49-.2-1.05-.12-1.92,.11-2.64,.57-1.73-1.75-3.68-3.56-6.23-3.86-2.7-.32-5.27,1.09-7.41,2.59-4.31,3.02-7.7,7.32-12.46,9.69-2.55,1.27-5.38,1.82-7.96,3.04-2.63,1.24-4.91,3.09-7.23,4.82-2.5,1.88-5.1,3.63-7.78,5.24-1.11,.66-2.61,1.2-3.52,2.11-.85,.86-.47,1.96-.04,2.92,2.33,5.17,6.5,9.43,11.54,11.99,.49,.25,.95,.07,1.23-.26-.24,1.15,0,2.55,.1,3.58,.15,1.73,.4,3.45,.77,5.14,.75,3.45,1.98,6.78,3.6,9.92,.22,.42,.7,.53,1.13,.46,8.43-1.4,16.86-2.8,25.29-4.2,2.05-.34,4.09-.68,6.14-1.02,.98-.16,1.96-.38,2.95-.49,.78-.09,1.21-.12,1.66,.54,.21,.31,.39,.65,.55,.98,.46,.95,1.23,2.82,.2,3.65-.56,.45-1.46,.44-2.1,.73-.59,.27-1.1,.67-1.37,1.28-.52,1.16,.02,2.52,.96,3.3,0,0,0,0,.01,0-8.84,13.8-9.16,32.1-6.11,47.54,1.77,8.97,4.26,17.78,6,26.75,1.74,8.97,2.76,18.27,.42,27.23-2.29,8.8-7.24,16.68-13.28,23.38-.21,.23-.28,.49-.26,.73-.03,0-.06,0-.09,0-17.39,4.77-21.18,25.49-33.51,36.24-.55,.48-.27,1.52,.44,1.67,2.17,.46,4.29,.47,6.39,.21-.18,.57-.34,1.15-.46,1.75,0,.05,0,.1,0,.15-.03,.07-.06,.15-.09,.22-.01,.03-.04,.09-.05,.12-.09,.2-.2,.4-.3,.59-3.95,7.2-9.9,13.09-17.17,16.94-.88,.46-.47,1.89,.5,1.86,2.34-.06,4.69-.07,7.03-.06-.03,.06-.07,.11-.1,.17-.06,.04-.11,.06-.17,.12L.28,353.33c-.43,.47-.38,1.24,.2,1.57,4.7,2.7,10.32,3.06,15.6,3.62,6.05,.65,12.12,1.12,18.2,1.42,12.08,.6,24.2,.55,36.28,.03,22.89-.98,46.63-2.65,68.05-11.44,5.39-2.21,10.6-4.84,15.5-8.01,2.48-1.6,4.87-3.34,7.16-5.2,2.24-1.82,4.41-3.73,7.05-4.95,5.92-.55,11.82-1.14,17.42-3.31,6.65-2.58,12.54-6.76,17.66-11.68,11.57-11.09,18.89-25.56,28.43-38.26,1.26-1.68,2.57-3.33,3.93-4.93,.4-.48,.4-1.24-.2-1.57ZM143.48,29.38c-.29-2.39-.54-4.79-.75-7.19-.09-1-.23-2.03-.13-3.04,.11-1.2,.73-2.21,1.41-3.17,2.63-3.68,5.88-7.09,9.31-10.03,1.01-.86,2.1-1.67,3.36-2.12,1.28-.46,2.67-.59,4.02-.76,2.05-.27,4.1-.54,6.15-.8-2.38,3.85-4.9,7.65-8.13,10.84-1.93,1.9-4.05,3.24-6.34,4.63-2.56,1.56-1.84,4.24-1.51,6.81,1.56,12.25,5.3,24.06,9.45,35.66,.59,1.64,1.18,3.27,1.78,4.91,.58,1.57,1.64,3.36,.68,4.96-.87,1.46-2.11,2.78-3.21,4.08-.45,.53-.9,1.04-1.36,1.56-.35-.2-.79-.2-1.14,.16-1.97,2-4.51,4.6-7.56,4.49-2.66-.1-4.45-2.36-5.35-4.66-.94-2.4-1.17-5.21-.54-7.71,.31-1.25,.85-2.46,1.73-3.42,.85-.93,2.06-1.48,2.8-2.51,.71-.98,.87-2.04,.69-3.07,.31-.21,.5-.57,.37-1.04-2.6-9.36-4.54-18.91-5.72-28.55Zm-17.15,35.81c5.56-2.21,10.8-4.58,15.57-8.27,.49-.38,1.15-1.18,1.7-1.37,.81-.28,1.32,.56,1.78,1.07,1,1.1,2.2,2.86,1.11,4.3-.67,.89-1.8,1.39-2.56,2.22-.83,.91-1.44,1.97-1.87,3.11-1.61,4.26-.81,9.88,2.13,13.39,1.66,1.99,4.14,3.04,6.72,2.59,1.96-.34,3.67-1.42,5.19-2.71,.25,.23,.59,.34,.92,.24,.26,3.41,.47,6.81,.62,10.23,.09,2.2,.16,4.4,.2,6.6,.02,1.06,.04,2.12,.05,3.18,0,.77,.36,2.6-.19,3.16-.53,.54-2.06,.45-2.8,.55-1.13,.16-2.26,.32-3.39,.48-2.34,.33-4.68,.68-7.02,.99-4.06,.54-8.61,1.17-12.62,0-3.68-1.07-5.47-4.87-8.98-6.15-.95-7.1-2.77-14.09-5.5-20.74-.19-.46-.59-.66-.99-.66,0-.06,0-.11,0-.17-1.54-6.24,5.16-10.11,9.95-12.02ZM91.73,24.2c.54,0,1.09-.01,1.63-.02,.14,0,.25-.04,.36-.08,2.18,.42,4.19,1.6,6.43,1.79,1.89,.16,3.73-.39,5.27-1.44,.83,2.19,1.66,4.38,2.5,6.57,.89,2.34,2.3,5.27,.95,7.7-1,1.8-2.95,2.89-4.4,4.29-1.69,1.63-2.63,3.8-4.88,4.8-1.89,.84-4.17,.87-6.05-.03-1.77-.85-3.59-2.54-5.68-1.53-.42,.2-.76,.51-1.12,.8-.63,.5-.95,.77-1.33-.08-.45-1.02-.63-2.17-1.05-3.21-.33-.83-.75-1.63-1.35-2.3-.27-.31-.95-.68-1.03-1.06-.11-.48,.51-1.38,.74-1.81,1.27-2.35,2.83-4.47,3.78-6.98,.94-2.45,1.73-5.71,4.56-6.61,.42-.13,.63-.46,.67-.8ZM58.62,58.75c-4.38-1.29-7.15-5.65-7.64-10.04-.61-5.42,1.72-10.74,4.43-15.29,4.77-8.01,12.26-15.41,21.78-17.04,5.33-.91,11.87,.91,13.37,6.69-.01,0-.02,0-.03,0-2.43,.77-3.91,2.81-4.86,5.08-.57,1.36-.97,2.79-1.6,4.12-.63,1.34-1.46,2.58-2.23,3.85-.68,1.11-1.48,2.33-1.82,3.6-.38,1.4,.45,2.01,1.33,2.89,.84,.84,1.23,1.98,1.58,3.09,.34,1.09,.54,2.71,1.48,3.48,.88,.73,2.07,.51,2.96-.07,.54-.35,.97-1.03,1.63-1.15,.82-.15,1.68,.48,2.34,.87,2.09,1.24,4.25,1.87,6.69,1.49,2.35-.37,4.39-1.59,5.85-3.45,.85-1.08,1.62-2.14,2.67-3.05,.49-.43,1.01-.84,1.51-1.26,5.39,5.97,5.44,14.87,1.26,21.53-2.04,3.25-5.22,6.53-8.95,7.77-1.34,.44-2.66,.51-3.93,.3-.22-.14-.45-.18-.67-.13-2.44-.59-4.69-2.14-6.57-3.87-3.73-3.43-6.91-7.58-9.75-11.76-.45-.66-1.63-.66-1.83,.24-.94,4.3-5.15,6.61-9.07,5.51,2.23-1.34,3.67-3.89,3.84-6.52,.29-4.37-2.48-8.25-5.62-10.99-.78-.68-1.59-1.31-2.42-1.94-.81-.61-1.67-1.42-2.62-1.78-2.11-.79-2.79,1.23-3.38,2.81-.86,2.31-1.83,4.6-2.56,6.95-.49,1.58-.62,3.22,.33,4.59,.06,.18,.12,.37,.18,.55,.03,.13,.09,.24,.18,.34,.07,.11,.16,.19,.28,.26,0,0,0,0,.01,0,.01,.21,.08,.43,.27,.62,.56,.57,1.09,1.16,1.6,1.76-.02,0-.03-.02-.04-.02Zm10.2,33.47s.03-.02,.04-.04c.07-.11,.14-.23,.2-.34,.07-.07,.16-.12,.21-.21,.13-.19,.25-.38,.38-.57,0,0,0-.02,0-.03,3.48-1.69,6.73-4.01,9.37-6.85,1.26-1.36,2.36-2.96,2.52-4.86,.13-1.44-.33-2.8-1.29-3.81,.66-1.29,1.09-2.74,1.39-4.03,.29-1.25-1.64-1.79-1.93-.53-.39,1.71-.78,3.65-2.07,4.94-1.08,1.08-2.54,1.45-3.85,.59-2.01-1.32-3-3.75-5.29-4.75-.24-.1-.48-.19-.73-.27-.61-.18-.76-.2-.99-.83-.25-.7-.36-1.47-.58-2.18-.5-1.64-1.15-3.24-1.91-4.77-1.49-3-3.48-5.73-5.83-8.1-.06-.06-.13-.09-.2-.14,0-.07,0-.14-.03-.2-.06-.19-.13-.38-.19-.57-.03-.14-.09-.28-.19-.42-.02-.03-.02-.06-.04-.09,0,0,0,0-.01-.01-.95-1.12-.11-2.96,.33-4.14,.57-1.55,1.15-3.09,1.72-4.64,.22-.6,.54-2.24,1.15-2.4,.6-.17,1.5,.79,2,1.16,1.27,.95,2.51,1.95,3.63,3.07,2.15,2.16,3.91,5.03,3.77,8.18-.12,2.72-1.99,5.22-4.74,5.67-.91,.15-.89,1.4-.24,1.83,4.82,3.17,11.16,1.13,13.46-3.82,2.56,3.63,5.38,7.16,8.59,10.2,2.28,2.15,5.04,4.09,8.09,4.76,2.74,2.67,5.96,5.07,9.74,5.94,1.67,.38,3.39,.44,5.04,.18,3.31,8.84,3.96,18.33,3.82,27.69-.13,9.29-.96,19.03-6.03,27.1-2.18,3.47-5.44,7.23-9.42,8.63-4.46,1.57-8.48-1.94-11.59-4.71-6.03-5.37-10.77-12.09-13.98-19.49-3.65-8.45-5.18-17.76-4.34-26.93,0-.08-.02-.15-.02-.22Zm-44.06,36.24c-.04,.06-.07,.14-.1,.21-.02-.28-.15-.55-.49-.72-4.07-2.08-7.49-5.26-9.77-9.23-.25-.44-.49-.89-.72-1.35-.11-.23-.23-.46-.33-.69-.31-.71-.19-.4,.2-.77,.4-.38,1.16-.65,1.64-.93,.68-.39,1.35-.8,2.02-1.21,2.33-1.44,4.59-2.99,6.77-4.63,2.02-1.52,4.01-3.11,6.24-4.32,2.39-1.3,5.05-1.89,7.55-2.91,4.21-1.73,7.43-4.94,10.81-7.88,2-1.74,4.24-3.64,6.81-4.47,3.13-1.02,5.38,.89,7.45,2.98-.84,1.23-1.29,2.84-1.44,4.28-.35,3.54-.21,7.17,.21,10.7,.45,3.68,1.26,7.31,2.4,10.83-.24,.16-.42,.41-.42,.78-.01,2.28-1.3,4.25-2.28,6.23-.5,1.01-.97,2.06-1.24,3.16-.14,.58-.2,1.18-.26,1.78-.04,.35-.05,.99-.36,1.22-.16,.12-.28,.28-.37,.45-5.55-.22-11.13-.14-16.64,.16-.23,.01-.41,.1-.55,.22-.12-.03-.25-.05-.38-.03-.06-.41-.12-.82-.17-1.22-.03-.23-.27-.49-.46-.6-.08-.05-.18-.07-.27-.09,0,0,0,0,0,0-1.29-2.46-3.91-3.77-6.6-4.03-1.8-.18-3.62,.11-5.38,.49-1.26,.27-3.08,.43-3.86,1.63Zm40.43-6.87c.76,1.94,1.62,3.84,2.6,5.68,1.06,2,2.25,3.91,3.55,5.75-.25-.06-.5-.11-.77-.14-3.04-.39-6.1-.65-9.17-.82,.3-.67,.37-1.43,.47-2.25,.15-1.22,.64-2.37,1.18-3.47,.77-1.56,1.65-3.11,2.15-4.76Zm2.48,28.21c.97-.56,1.5-1.56,1.59-2.66,.15-2-1.13-5.75-3.26-6.37-1.38-.4-3.24,.28-4.61,.5-1.96,.33-3.93,.65-5.89,.98-8.4,1.39-16.79,2.79-25.19,4.18-2.34-4.75-3.72-9.95-3.92-15.24-.02-.49-.19-1.41,.23-1.78,.37-.33,1.38-.39,1.85-.5,1.44-.33,2.89-.62,4.37-.63,2.4,0,4.87,.87,6.04,3.1,.01,.02,.03,.03,.04,.05,0,.07,0,.13,.03,.2,0,.04,.01,.09,.02,.13,.05,.41,.06,.82,.03,1.23-.01,.16,.05,.34,.14,.49-.04,.07-.09,.14-.11,.22,0,0,0,.02,0,.03-.35,.31-.69,.64-.99,1-.17,.21-.29,.43-.29,.71,0,.25,.11,.54,.29,.71,.19,.18,.44,.3,.71,.29,.25-.01,.54-.09,.71-.29,.37-.45,.8-.85,1.25-1.22,.2-.15,.41-.3,.63-.44,.05-.03,.08-.07,.12-.11,.15-.05,.3-.11,.45-.15,.11-.03,.21-.09,.31-.16,.08,.02,.16,.04,.25,.04,7.63-.41,15.27-.33,22.89,.27,1.86,.15,3.93,.12,5.73,.6,1.58,.42,2.4,2.9,3.09,4.22,.77,1.48,1.5,2.99,2.18,4.52,.37,.83,.9,1.74,1.1,2.63,.27,1.18-.48,1.49-1.41,2.03-1.49,.87-3.03,1.64-4.63,2.27-.84,.33-1.69,.64-2.56,.9-.89,.28-2.33,.85-3.2,.25-1.75-1.2,1.35-1.62,2.03-2.02Zm-2.44,109.7c3-8.26,3.2-16.92,2.02-25.55-2.42-17.73-9.38-34.8-9.19-52.88,.1-9.09,3.09-19.29,8.09-26.99,.02-.02,.02-.05,.04-.07,.78,.06,1.6-.07,2.34-.26,1.82-.47,3.59-1.18,5.3-1.96,1.59-.73,3.46-1.53,4.78-2.7,1.22-1.08,1.1-2.42,.54-3.82-.71-1.77-1.5-3.52-2.34-5.24-.43-.87-.86-1.76-1.32-2.63,.56-.25,.94-1.04,.42-1.67-5.15-6.1-8.87-13.33-10.9-21.04-1.01-3.82-1.6-7.73-1.75-11.68-.1-2.72-.86-10.88,3.58-10.46-1.55,17.25,5.28,34.98,17.91,46.82,3.03,2.84,6.73,6.24,11.06,6.6,4.44,.37,8.5-3.07,11.24-6.19,6.4-7.29,8.45-17.08,8.97-26.51,.62-11.2,.27-22.97-3.7-33.59,.92-.31,1.79-.76,2.61-1.31,.15,.07,.31,.08,.48,.07,.01,.04,.02,.09,.04,.14,5.48,13.37,7.37,28.08,5.5,42.4-.46,3.54-1.17,7.05-2.09,10.5-.97,3.64-2.34,7.13-3.51,10.7-1.09,3.32-1.92,6.84-1.36,10.35,.54,3.44,2.59,6.24,4,9.34,3.06,6.76,1.73,14.52-.4,21.34-2.19,7.02-5.45,13.72-6.76,21-1.2,6.67-.33,13.23,2.38,19.44,2.6,5.96,6.62,11.24,11.05,15.94,5.12,5.43,11.02,10.6,18.17,13.11,5.32,1.87,11.46,2.01,16.62-.29-.5,.93-1.05,1.8-1.65,2.63-.3,.05-.6,.1-.91,.15-.83,.15-.87,1.03-.46,1.55-7.34,8.4-20.01,11.36-30.81,12.21-7.89,.62-16.06,.19-23.82,1.88-3.74,.81-6.94,2.45-10.13,4.53-3.29,2.14-6.59,3.8-10.52,4.38-4.28,.64-8.69,.25-12.94-.44-4.49-.73-8.98-1.87-13.56-1.47,4.64-5.47,8.52-11.6,10.98-18.36Zm-44.86,55.7c5.52-5.42,9.14-12.39,13.31-18.85,4.31-6.65,9.87-13.31,17.81-15.48,.51-.14,.71-.55,.69-.96,.19-.03,.37-.1,.54-.29,.07-.08,.13-.16,.2-.23,.13,.32,.41,.56,.88,.51,4.49-.49,8.85,.61,13.26,1.33,3.77,.62,7.6,1.03,11.42,.78,3.79-.25,7.5-1.18,10.83-3.05,3.51-1.98,6.58-4.46,10.5-5.63,3.97-1.18,8.14-1.42,12.25-1.64,4.31-.23,8.62-.36,12.92-.69,7.66-.59,15.36-1.84,22.29-5.3,4.28-2.14,8.16-5.08,11.11-8.79,13.85-2.48,27.95-3.38,42.01-2.72-10.3,7.07-19.17,15.95-28.54,24.18-9.54,8.38-19.84,15.97-31.13,21.82-11.31,5.86-23.68,9.85-36.46,10.52-13.74,.72-27.34-2.01-41.03-2.6-7.54-.33-15.18,.02-22.5,1.97-6.6,1.77-13.35,5.71-20.35,5.12Zm141.13,17.34c-2.04,1.67-4.09,3.31-6.26,4.82-4.24,2.94-8.76,5.46-13.45,7.62-9.95,4.58-20.63,7.44-31.41,9.28-11.52,1.98-23.22,2.85-34.89,3.47-11.92,.63-23.86,.83-35.79,.43-6.58-.22-13.15-.63-19.7-1.24-3.25-.31-6.51-.63-9.74-1.09-2.64-.38-5.26-.93-7.67-2.08,3.93-4.28,7.86-8.56,11.79-12.85,0,0,0,0,.01,0,.08-.03,.16-.07,.24-.1,.15-.09,.27-.21,.36-.36,.23-.31,.42-.64,.59-.98,.15-.22,.3-.44,.46-.65,.03-.04,.07-.08,.1-.13,14.24,.24,28.44,1.67,42.63,2.91,17.23,1.5,34.63,2.73,51.89,.88,8.48-.91,16.76-2.67,24.95-5.05,8.37-2.42,16.71-5.19,25.39-6.32,.91-.12,1.81-.22,2.72-.32-.76,.56-1.5,1.14-2.23,1.74Zm44.67-22.92c-4.85,5.41-10.42,10.29-16.9,13.65-6.61,3.43-13.7,4.39-20.97,5.09-.16-.02-.33-.01-.5,.05-.68,.06-1.37,.13-2.05,.19-8.48,.78-16.6,2.75-24.75,5.16-8.25,2.43-16.47,4.78-25,6.04-16.97,2.51-34.24,1.68-51.27,.29-17.18-1.39-34.34-3.4-51.59-3.47-.89,0-1.78,.02-2.67,.03,5.88-3.8,10.79-8.99,14.27-15.08,.04-.05,.09-.08,.12-.14,.1-.18,.18-.36,.27-.54,.12-.22,.26-.43,.37-.65,.08-.15,.11-.29,.12-.43,.42-1.01,.74-2.07,.93-3.14,3.68-.78,7.28-2.25,10.84-3.48,6.6-2.27,13.47-3.17,20.43-3.21,14.03-.08,27.87,2.85,41.9,2.83,26.04-.04,49.46-12.95,69.04-29.19,10.31-8.55,19.62-18.37,30.48-26.23,.08,.05,.16,.11,.27,.14,11.8,3.57,23.18,8.35,34.01,14.23-9.89,12.05-16.92,26.21-27.34,37.84Z"/></g></g></svg>
