<svg id="Calque_2" xmlns="http://www.w3.org/2000/svg" viewBox="0 0 253.53 297.78">
<g id="Calque_4"><g>
<path class="cls-1" d="M77.38,146.66c.68-.58,1.36-1.16,2.05-1.73,0,0,0,0,.01,0-6.08-7.59-12.1-15.23-18.09-22.89-.01,.03-.02,.07-.04,.1-.02,.06-.04,.12-.06,.18,.06,.17,.08,.36,0,.57-5.31,16.46-10.63,32.92-15.94,49.38,10.36-8.84,21.02-17.34,31.95-25.47,.03-.05,.07-.1,.11-.13Z"/>
<path class="cls-1" d="M69.75,199.6c7.03,4.56,14.45,8.38,21.95,12.1,5.1-11.43,10.09-22.91,14.97-34.44-.42-.48-.83-.97-1.25-1.45-.09-.09-.16-.2-.21-.32-8.22-9.06-16.07-18.45-23.73-27.98-.27-.34-.54-.69-.82-1.03-.2,.17-.41,.34-.61,.52-.03,.05-.04,.11-.08,.15-.07,.11-.16,.19-.28,.26-.15,.11-.3,.22-.44,.33-.06,.07-.12,.13-.2,.19-14.05,10.41-27.63,21.44-40.72,33.03,2.81,2.64,6.44,4.12,9.92,5.71,7.64,3.49,14.47,8.38,21.49,12.93Z"/>
<path class="cls-1" d="M87,222.18c1.31-2.88,2.6-5.76,3.89-8.65-4.31-2.14-8.63-4.28-12.84-6.61-7.53-4.15-14.45-9.23-21.79-13.69-3.24-1.97-6.59-3.68-10.02-5.28,1.95,4.17,3.93,8.32,5.95,12.45,7.49,15.25,15.55,30.22,24.14,44.89,3.61-7.68,7.17-15.38,10.67-23.11Z"/>
<path class="cls-1" d="M125.61,202.95c.1-.2,.24-.33,.4-.4-.4-.09-.75-.39-.73-.93,.41-14.44,.82-28.88,1.06-43.33,.43-25.72,.33-51.47-1.25-77.15-.78-12.71-1.88-25.42-1.8-38.17,.06-10.76,1.16-21.46,2.44-32.14-1.86,4.92-3.59,9.89-5.2,14.89-7.92,24.61-13.25,49.94-20.68,74.69-.18,.59-.71,.77-1.18,.67,5.85,13.57,12.05,26.98,18.6,40.23,.57,1.15-1.16,2.16-1.73,1.01-.1-.21-.2-.42-.3-.62-.3,.1-.64,.05-.92-.27-5.54-6.38-11.08-12.76-16.63-19.13-19.8-22.74-39.7-45.39-59.68-67.97-.57-.65-.12-1.48,.5-1.68-.03-.26,.03-.54,.24-.79,5.55-6.67,11.11-13.33,16.66-20-.17-.04-.34-.14-.48-.32-7.67-9.48-13.82-20.25-22.69-28.71C22.07,15.41,12.17,28.21,2.55,41.23c6.75,10.18,14.01,20.01,21.45,29.69,13.62,17.73,27.52,35.26,41.3,52.86,13.44,17.17,26.86,34.38,41.53,50.52,.09,.09,.13,.19,.18,.3,.04,.04,.07,.08,.11,.13,.07,.04,.14,.09,.19,.15,.35,.43,.71,.87,1.06,1.3,.12,.12,.21,.27,.26,.44,0,.05,.01,.1,.02,.15,.12,.25,.16,.56,.02,.87-3.64,8.61-7.34,17.19-11.1,25.74-6.53,14.84-13.25,29.59-20.16,44.26-.03,.16-.1,.31-.2,.43-.12,.26-.24,.52-.36,.77-7.06,14.97-14.32,29.84-21.76,44.62,.4,.21,.66,.66,.6,1.07,0,0,0,0,0,0,.33-.01,.66-.02,.99-.03,.49-.02,.99-.03,1.48-.05,1.15-.04,2.31-.09,3.46-.13,2.14-.09,4.29-.18,6.43-.29,4.28-.21,8.57-.45,12.85-.74,.74-.05,1.47-.1,2.2-.15-.06-.08-.12-.16-.14-.27-.04-.13-.05-.27-.02-.4,0-.1,.05-.19,.09-.28-.01-.03-.04-.05-.05-.09-.04-.13-.05-.27-.02-.4,0-.13,.05-.26,.12-.37,.05-.1,.1-.2,.15-.3,.02-.08,.02-.16,.06-.24,3.11-6.46,6.22-12.91,9.33-19.37,10.99-22.82,21.98-45.65,32.98-68.47Z"/>
<path class="cls-1" d="M164.43,80.18c3.81-7.99,7.66-15.96,11.58-23.9-.13,0-.25-.02-.37-.08-.12-.04-.23-.11-.32-.21-.05-.05-.1-.1-.15-.15-.09-.04-.17-.08-.26-.16-3.82-3.59-7.61-7.22-11.35-10.89-11.94-11.71-23.47-23.84-34.6-36.33,2.66,5.14,5.31,10.3,7.93,15.46,9.45,18.62,18.62,37.37,27.53,56.25Z"/>
<path class="cls-1" d="M125.37,6.3c-2.97,3.21-5.94,6.41-8.91,9.62-11.88,12.82-23.79,25.61-35.72,38.39v.75c0,.2-.08,.38-.19,.55,.07,.09,.14,.19,.19,.31,2.33,6.39,4.73,12.76,7.21,19.1,3.23,8.24,6.58,16.42,10.07,24.55,2.07-6.89,3.98-13.83,5.82-20.78,6.46-24.36,12.22-49.01,21.53-72.49Z"/>
<path class="cls-1" d="M165.35,212.42c-.06,.06-.12,.12-.18,.18-.12,.12-.27,.21-.44,.26-.06,0-.13,.02-.19,.03,4.93,10.45,9.67,20.98,14.46,31.49,1.32-3.77,3.12-7.35,5.07-10.83,4.05-7.21,8.21-14.32,11.95-21.69,3.43-6.76,6.68-13.62,9.9-20.48-12.97,7.88-26.69,14.46-40.38,21-.07,.03-.13,.03-.2,.05Z"/>
<path class="cls-1" d="M248.29,34.58c-1.08-1.47-2.17-2.93-3.25-4.4-2.37-3.2-4.74-6.39-7.12-9.58-4.49-6.02-9-12.03-13.52-18.02-7.61,8.69-15.23,17.39-22.84,26.08,0,.06,0,.12,0,.17,.02,.09,.04,.18,.07,.26,.04,.07,.07,.14,.12,.21,.19,.21,.41,.38,.56,.64,.03,.05,.05,.11,.07,.16,.12,.07,.23,.17,.33,.3,4.99,6.93,9.98,13.85,14.97,20.78,.26,.36,.13,.92-.16,1.21-6,6.17-11.93,12.4-17.81,18.69-20.88,22.36-40.94,45.49-60.14,69.31-.81,1-2.21-.42-1.41-1.41,.02-.03,.04-.05,.06-.08,0,0,0,0,0,0-.14-.23-.16-.51-.1-.77,.19-.86,.38-1.72,.58-2.57,.06-.25,.25-.46,.46-.6,.06-.04,.14-.05,.2-.07,2.42-5.5,4.85-10.99,7.32-16.47,5.43-12.06,11-24.05,16.68-36-.07-.07-.14-.14-.19-.25-2.58-5.47-5.18-10.93-7.8-16.37-8.93-18.56-18.14-36.99-27.59-55.29-1.46,12.27-2.64,24.54-2.47,36.92,.18,12.83,1.36,25.62,2.06,38.43,.7,12.84,1.04,25.7,1.15,38.56,.22,25.74-.51,51.47-1.24,77.19-.01,.47-.29,.76-.62,.89,.27,.07,.52,.23,.68,.44,4.43,5.81,7.9,12.26,10.88,18.91,5.41,12.07,9.45,24.68,15.33,36.55,6.32,12.77,13.98,24.82,21.62,36.83,.11,.18,.16,.35,.16,.52,7.44-.1,14.88-.64,22.27-1.64,.06,0,.11,0,.17,.01,.19-.05,.39-.1,.58-.15,.06-.02,.12,0,.19-.01,.14-.08,.28-.17,.42-.25-.04-.07-.08-.13-.11-.2-.09-.21-.19-.42-.25-.65-.06-.22-.09-.45-.11-.68,0-.09,.01-.18,.03-.26-3.81-8.35-7.62-16.7-11.43-25.05-6.82-14.94-13.59-29.91-20.47-44.82-6.68-14.48-13.6-28.86-21.51-42.72-.34-.59-.01-1.14,.46-1.37,8.95-12.97,18.63-25.41,28.61-37.6,17.97-21.97,36.89-43.18,54.15-65.74,4.31-5.64,8.52-11.36,12.58-17.19,1.94-2.79,3.85-5.61,5.72-8.46,1.06-1.61,2.1-3.23,3.13-4.85,.81-1.29,2.05-2.85,1.77-4.47-.31-1.84-2.16-3.62-3.23-5.07Z"/>
<path class="cls-1" d="M172.83,145.17c3.05,2.24,5.95,4.68,8.74,7.25,5.58,5.14,10.78,10.68,16.4,15.78,4.19,3.8,8.57,7.4,13.09,10.8-.01-.13-.03-.26-.04-.39-6.31-18.98-12.5-38-18.56-57.06-6.6,7.83-13.19,15.68-19.63,23.64Z"/>
<path class="cls-1" d="M187.72,161.15c-5.13-5.07-10.3-10.16-16.14-14.42-8.47,10.51-16.68,21.21-24.35,32.33,4.27,7.53,8.26,15.2,12.08,22.97,1.5,3.05,2.97,6.12,4.43,9.2,0,0,.01-.02,.02-.03,.09-.09,.17-.17,.26-.26,.12-.12,.27-.21,.44-.26,.02,0,.04,0,.06,0,0,0,.01-.01,.02-.02,16.98-8.11,34.04-16.29,49.61-26.94-3.15-2.23-6.24-4.54-9.25-6.96-6.04-4.86-11.67-10.15-17.18-15.59Z"/>
<path class="cls-1" d="M150.7,257.11c-2.85-5.95-5.3-12.07-7.69-18.22-4.51-11.6-9.01-23.38-16.35-33.52-2.88,5.98-5.76,11.97-8.64,17.95-10.94,22.71-21.87,45.42-32.81,68.13,0,.1-.05,.18-.09,.27,.01,.03,.04,.05,.05,.09,.04,.13,.05,.27,.02,.4,0,.13-.05,.26-.12,.37-.07,.14-.14,.28-.21,.42,7.29-.52,14.57-1.13,21.84-1.86-.04-.07-.1-.13-.11-.22-.04-.13-.05-.27-.02-.4,0-.13,.05-.26,.12-.37,.08-.13,.17-.25,.25-.38,0,0,0,0,0,0,7.23-13.2,13.66-26.83,19.24-40.81,.44-1.09,2.09-.73,1.97,.28,.11,.06,.2,.14,.26,.24,.09,.1,.15,.21,.18,.34,0,.02,.01,.03,.02,.05,.11,.08,.2,.19,.27,.35,6.9,14.87,14.18,29.56,21.83,44.05,.04,.08,.05,.15,.07,.22,7.43,.88,14.9,1.31,22.38,1.29-4.21-6.62-8.41-13.24-12.39-19.99-3.59-6.1-7.01-12.3-10.06-18.69Z"/>
<path d="M249.73,33.17c-2.66-3.6-5.33-7.19-8-10.78-5.44-7.31-10.91-14.61-16.4-21.89-.36-.47-1.1-.74-1.57-.2-7.7,8.79-15.39,17.58-23.09,26.37-.01,0-.03,0-.05,0-.26,.08-.44,.24-.6,.46-.45,.63-.53,1.44-.41,2.18,.05,.32,.19,.65,.36,.93,.06,.1,.14,.19,.21,.28-.02,.22,.02,.44,.14,.64,.19,.32,.53,.54,.9,.59,4.76,6.61,9.53,13.22,14.29,19.84-21.11,21.75-41.45,44.24-60.95,67.45-4.37,5.2-8.69,10.45-12.98,15.73,8.89-20.21,18.12-40.26,27.7-60.15,2.83-5.88,5.69-11.74,8.59-17.59,.37-.75-.24-1.44-.87-1.5,.02-.08,.03-.16,.03-.24-.01-.09-.02-.18-.04-.27-.05-.17-.13-.32-.26-.44-.12-.12-.24-.24-.36-.36-.08-.09-.19-.15-.3-.19-13.34-12.55-26.22-25.59-38.6-39.09-3.04-3.31-6.04-6.66-9.02-10.03,0-.04,.01-.09,.02-.13,.08-.67-.44-.98-.97-.94-.18-.2-.36-.4-.54-.61-.44-.51-1.03-.36-1.38,.03-.13,.05-.26,.13-.37,.25-11.97,12.93-23.96,25.84-35.97,38.73-3.26,3.5-6.52,6.99-9.78,10.48-.16,.04-.31,.11-.43,.24-.18,.2-.29,.44-.29,.71v1.37c0,.2,.08,.39,.2,.56-.17,.21-.25,.49-.12,.83,8.3,22.8,17.57,45.25,27.8,67.25,2,4.31,4.06,8.6,6.13,12.87-18.76-21.62-37.6-43.18-56.53-64.67-5.42-6.15-10.85-12.3-16.29-18.45,.08-.05,.17-.1,.24-.19,5.72-6.87,11.44-13.73,17.16-20.6,.62-.75-.04-1.74-.76-1.74,.04-.26-.02-.55-.23-.81-7.94-9.82-14.24-21.02-23.64-29.6-.71-.65-1.68-.02-1.73,.7C20.43,14.27,10.16,27.56,.19,41.07c-.52,.71,.12,1.39,.81,1.44,12.02,18.12,25.65,35.11,39.04,52.22,6.62,8.46,13.21,16.94,19.82,25.41-.05,.05-.11,.1-.14,.16-.18,.38-.31,.77-.42,1.17-.09,.33-.16,.66-.28,.97-.01,.09-.02,.18-.04,.27,0,.14,.02,.27,.09,.39,0,0,0,.01,.01,.02-5.55,17.19-11.1,34.38-16.65,51.57,0,.02,0,.04,0,.07-2.1,1.81-4.18,3.63-6.26,5.47-.42,.37-.35,1.04,0,1.41,1.9,2.06,4.26,3.51,6.73,4.75,0,.03,.02,.07,.03,.1,0,0,0,.02-.01,.03-.01,.09-.02,.18-.04,.27,0,0,0,0,0,.01,0,.09,.01,.19,.04,.28,.05,.18,.14,.34,.27,.47,0,0,.01,.01,.02,.02,.07,.05,.14,.1,.2,.16,0,0,0,0,.01,0,.18,.11,.36,.15,.56,.16,7.43,15.97,15.45,31.66,24.06,47.03,2.36,4.22,4.78,8.41,7.23,12.58-3.14,6.66-6.31,13.3-9.53,19.92-4.08,8.4-8.23,16.78-12.43,25.12-.27,.53-.04,1.01,.33,1.29-.78,.87-.05,2.4,1.14,2.66,.9,.2,1.96,.02,2.87,0,1.32-.05,2.64-.1,3.96-.15,5.03-.2,10.06-.46,15.08-.76,10.13-.61,20.25-1.42,30.34-2.43,.83-.08,1.11-.96,.85-1.53,.04-.02,.09-.04,.13-.06,.15-.09,.27-.21,.36-.36,.14-.21,.28-.41,.41-.62,.03-.05,.03-.1,.05-.15,6.88-12.59,13.01-25.58,18.41-38.88,.01,0,.02,.02,.03,.02,6.85,14.76,14.08,29.34,21.68,43.73,0,0,.01,.01,.02,.02,0,.5,.32,1.03,.95,1.11,15.64,1.91,31.44,1.81,47.06-.22,.19,.07,.4,.1,.61,.05,.42-.11,.84-.21,1.26-.32,.02,0,.03-.02,.04-.02,.17,0,.35-.02,.5-.12,.53-.32,1.05-.63,1.58-.95,.22-.13,.39-.35,.46-.6,.07-.24,.04-.56-.1-.77-.08-.12-.18-.22-.29-.31-.04-.14-.09-.27-.15-.4-.04-.09-.08-.17-.12-.25,0-.11,.01-.22-.02-.32-.03-.08-.07-.16-.1-.24-.05-.08-.13-.13-.19-.19,0-.16,0-.32-.09-.49-6.78-14.85-13.55-29.7-20.33-44.55,.2-.11,.37-.28,.45-.56,2.42-7.58,6.93-14.25,10.79-21.14,4.05-7.22,7.76-14.62,11.35-22.08,2.06-4.27,4.08-8.57,6.09-12.86,.08-.17,.1-.33,.09-.49,2.55-1.6,5.07-3.25,7.54-4.98,.64-.45,.64-1.28,0-1.73-.91-.64-1.81-1.3-2.71-1.95,0-.1,0-.19-.03-.29-.09-.27-.18-.55-.27-.82-.03-.13-.09-.24-.18-.34-.02-.04-.06-.05-.09-.08-.01-.12-.03-.23-.04-.35,.06-.17,.08-.36,0-.58-6.5-19.53-12.86-39.1-19.09-58.71,2.35-2.78,4.69-5.56,7.04-8.34,9.26-11,18.45-22.06,27.25-33.44,4.39-5.69,8.69-11.45,12.83-17.33,2.05-2.9,4.06-5.83,6.03-8.79,1.91-2.88,4.11-5.77,5.65-8.87,.79-1.58,1.06-3.22,.34-4.88-.79-1.8-2.22-3.36-3.38-4.93Zm-86.15,11.62c3.74,3.67,7.53,7.3,11.35,10.89,.08,.08,.17,.11,.26,.16,.05,.05,.1,.1,.15,.15,.09,.1,.2,.17,.32,.21,.11,.06,.24,.08,.37,.08-3.92,7.94-7.77,15.91-11.58,23.9-8.91-18.88-18.08-37.64-27.53-56.25-2.62-5.16-5.27-10.32-7.93-15.46,11.13,12.48,22.65,24.62,34.6,36.33Zm-75.62,30.22c-2.48-6.34-4.88-12.7-7.21-19.1-.05-.13-.12-.22-.19-.31,.11-.16,.19-.34,.19-.55v-.75c11.93-12.77,23.84-25.57,35.72-38.39,2.97-3.2,5.94-6.41,8.91-9.62-9.31,23.48-15.06,48.13-21.53,72.49-1.84,6.95-3.76,13.89-5.82,20.78-3.49-8.13-6.84-16.31-10.07-24.55Zm-26.7,47.87c.07-.22,.05-.41,0-.57,.02-.06,.04-.12,.06-.18,.01-.03,.02-.07,.04-.1,5.99,7.66,12.01,15.3,18.09,22.89,0,0,0,0-.01,0-.68,.58-1.36,1.15-2.05,1.73-.04,.03-.08,.08-.11,.13-10.93,8.13-21.59,16.63-31.95,25.47,5.31-16.46,10.63-32.92,15.94-49.38Zm-22.91,58.08c13.09-11.59,26.67-22.62,40.72-33.03,.08-.06,.14-.12,.2-.19,.15-.11,.3-.22,.44-.33,.12-.06,.21-.15,.28-.26,.04-.04,.05-.1,.08-.15,.2-.17,.41-.34,.61-.52,.27,.34,.54,.69,.82,1.03,7.66,9.53,15.5,18.93,23.73,27.98,.05,.12,.11,.23,.21,.32,.42,.48,.83,.97,1.25,1.45-4.88,11.53-9.87,23.01-14.97,34.44-7.5-3.72-14.92-7.54-21.95-12.1-7.02-4.55-13.85-9.43-21.49-12.93-3.48-1.59-7.11-3.07-9.92-5.71Zm13.84,19.44c-2.03-4.13-4.01-8.28-5.95-12.45,3.43,1.59,6.78,3.3,10.02,5.28,7.34,4.46,14.26,9.54,21.79,13.69,4.22,2.33,8.53,4.47,12.84,6.61-1.29,2.89-2.58,5.77-3.89,8.65-3.51,7.73-7.06,15.43-10.67,23.11-8.59-14.66-16.65-29.63-24.14-44.89Zm31.06,90.64c-.05,.1-.1,.2-.15,.3-.07,.11-.11,.24-.12,.37-.03,.13-.02,.27,.02,.4,0,.03,.03,.06,.05,.09-.04,.09-.08,.18-.09,.28-.03,.13-.02,.27,.02,.4,.02,.1,.08,.19,.14,.27-.73,.05-1.47,.11-2.2,.15-4.28,.28-8.56,.53-12.85,.74-2.14,.1-4.29,.2-6.43,.29-1.15,.05-2.31,.09-3.46,.13-.49,.02-.99,.04-1.48,.05-.33,.01-.66,.02-.99,.03,0,0,0,0,0,0,.06-.41-.2-.85-.6-1.07,7.45-14.78,14.7-29.65,21.76-44.62,.12-.26,.24-.52,.36-.77,.11-.12,.17-.27,.2-.43,6.91-14.67,13.63-29.42,20.16-44.26,3.76-8.55,7.46-17.13,11.1-25.74,.13-.32,.1-.62-.02-.87,0-.05-.01-.1-.02-.15-.05-.17-.13-.32-.26-.44-.35-.43-.71-.87-1.06-1.3-.05-.06-.11-.11-.19-.15-.04-.04-.07-.08-.11-.13-.04-.1-.09-.2-.18-.3-14.68-16.14-28.1-33.35-41.53-50.52-13.78-17.61-27.68-35.13-41.3-52.86-7.44-9.68-14.7-19.51-21.45-29.69C12.17,28.21,22.07,15.41,32.24,2.82c8.87,8.46,15.03,19.23,22.69,28.71,.15,.18,.31,.28,.48,.32-5.55,6.67-11.11,13.33-16.66,20-.21,.25-.27,.53-.24,.79-.61,.2-1.07,1.03-.5,1.68,19.98,22.58,39.87,45.24,59.68,67.97,5.55,6.37,11.09,12.75,16.63,19.13,.28,.32,.61,.37,.92,.27,.1,.21,.2,.42,.3,.62,.57,1.15,2.3,.14,1.73-1.01-6.55-13.24-12.75-26.66-18.6-40.23,.47,.1,1-.08,1.18-.67,7.44-24.74,12.77-50.08,20.68-74.69,1.61-5.01,3.34-9.97,5.2-14.89-1.28,10.67-2.38,21.37-2.44,32.14-.08,12.75,1.02,25.46,1.8,38.17,1.57,25.68,1.68,51.43,1.25,77.15-.24,14.44-.65,28.89-1.06,43.33-.02,.54,.33,.84,.73,.93-.16,.07-.3,.2-.4,.4-10.99,22.82-21.98,45.65-32.98,68.47-3.11,6.46-6.22,12.91-9.33,19.37-.04,.08-.05,.16-.06,.24Zm67.52,3.46c-.02-.07-.03-.15-.07-.22-7.65-14.49-14.93-29.18-21.83-44.05-.07-.15-.17-.27-.27-.35,0-.02-.01-.03-.02-.05-.03-.13-.09-.24-.18-.34-.07-.1-.16-.18-.26-.24,.12-1-1.54-1.37-1.97-.28-5.58,13.98-12.01,27.61-19.24,40.81,0,0,0,0,0,0-.08,.13-.17,.25-.25,.38-.07,.11-.11,.24-.12,.37-.03,.13-.02,.27,.02,.4,.02,.08,.07,.15,.11,.22-7.27,.72-14.55,1.34-21.84,1.86,.07-.14,.14-.28,.21-.42,.07-.11,.11-.24,.12-.37,.03-.13,.02-.27-.02-.4,0-.03-.03-.06-.05-.09,.04-.09,.08-.17,.09-.27,10.94-22.71,21.87-45.42,32.81-68.13,2.88-5.98,5.76-11.97,8.64-17.95,7.34,10.14,11.83,21.92,16.35,33.52,2.39,6.15,4.84,12.27,7.69,18.22,3.06,6.38,6.47,12.59,10.06,18.69,3.98,6.75,8.18,13.37,12.39,19.99-7.48,.02-14.95-.42-22.38-1.29Zm45.26-82.64c-3.74,7.38-7.9,14.49-11.95,21.69-1.96,3.48-3.75,7.06-5.07,10.83-4.79-10.51-9.53-21.05-14.46-31.49,.06,0,.13-.02,.19-.03,.17-.05,.32-.13,.44-.26,.06-.06,.12-.12,.18-.18,.07-.02,.13-.02,.2-.05,13.69-6.54,27.41-13.12,40.38-21-3.23,6.86-6.47,13.72-9.9,20.48Zm18.13-28.15c-15.57,10.65-32.62,18.83-49.61,26.94,0,0-.01,.01-.02,.02-.02,0-.04,0-.06,0-.17,.05-.32,.13-.44,.26-.09,.09-.17,.17-.26,.26-.01,0-.01,.02-.02,.03-1.46-3.07-2.92-6.14-4.43-9.2-3.82-7.76-7.81-15.44-12.08-22.97,7.67-11.12,15.88-21.82,24.35-32.33,5.84,4.27,11,9.35,16.14,14.42,5.51,5.45,11.14,10.74,17.18,15.59,3.01,2.42,6.1,4.73,9.25,6.96Zm-3.13-5.1c.01,.13,.03,.26,.04,.39-4.53-3.4-8.9-6.99-13.09-10.8-5.62-5.1-10.82-10.63-16.4-15.78-2.79-2.57-5.68-5.01-8.74-7.25,6.45-7.96,13.03-15.81,19.63-23.64,6.06,19.06,12.25,38.08,18.56,57.06ZM249.75,44.13c-1.03,1.63-2.07,3.24-3.13,4.85-1.87,2.84-3.78,5.66-5.72,8.46-4.06,5.83-8.27,11.55-12.58,17.19-17.25,22.56-36.17,43.76-54.15,65.74-9.97,12.19-19.66,24.63-28.61,37.6-.47,.23-.79,.78-.46,1.37,7.9,13.86,14.82,28.24,21.51,42.72,6.88,14.91,13.65,29.88,20.47,44.82,3.81,8.35,7.62,16.7,11.43,25.05-.02,.08-.03,.17-.03,.26,.03,.23,.05,.46,.11,.68,.06,.22,.15,.44,.25,.65,.03,.07,.08,.13,.11,.2-.14,.08-.28,.17-.42,.25-.06,0-.12,0-.19,.01-.19,.05-.39,.1-.58,.15-.06,0-.11-.02-.17-.01-7.38,1-14.82,1.54-22.27,1.64,0-.17-.04-.34-.16-.52-7.64-12.01-15.29-24.06-21.62-36.83-5.88-11.87-9.92-24.48-15.33-36.55-2.98-6.66-6.45-13.1-10.88-18.91-.16-.21-.42-.37-.68-.44,.34-.13,.61-.42,.62-.89,.73-25.72,1.46-51.46,1.24-77.19-.11-12.86-.45-25.72-1.15-38.56-.7-12.81-1.88-25.59-2.06-38.43-.17-12.38,1.01-24.65,2.47-36.92,9.46,18.3,18.66,36.73,27.59,55.29,2.62,5.45,5.22,10.91,7.8,16.37,.05,.11,.12,.18,.19,.25-5.68,11.94-11.25,23.94-16.68,36-2.47,5.48-4.9,10.97-7.32,16.47-.07,.02-.14,.03-.2,.07-.21,.14-.4,.34-.46,.6-.19,.86-.38,1.72-.58,2.57-.06,.26-.04,.54,.1,.77,0,0,0,0,0,0-.02,.03-.04,.05-.06,.08-.8,.99,.61,2.42,1.41,1.41,19.2-23.82,39.26-46.94,60.14-69.31,5.87-6.29,11.81-12.52,17.81-18.69,.29-.29,.41-.85,.16-1.21-4.99-6.93-9.98-13.85-14.97-20.78-.09-.13-.21-.23-.33-.3-.02-.06-.04-.11-.07-.16-.14-.26-.36-.43-.56-.64-.04-.07-.08-.14-.12-.21-.03-.09-.05-.17-.07-.26,0-.06,0-.12,0-.17,7.61-8.69,15.23-17.39,22.84-26.08,4.52,6,9.03,12,13.52,18.02,2.38,3.19,4.75,6.38,7.12,9.58,1.09,1.46,2.17,2.93,3.25,4.4,1.07,1.45,2.92,3.23,3.23,5.07,.27,1.62-.96,3.19-1.77,4.47Z"/></g></g></svg>
