<svg id="Calque_2" xmlns="http://www.w3.org/2000/svg" viewBox="0 0 308.48 209.53">
<g id="Calque_4"><g>
<path class="cls-1" d="M28.6,43.74c2.88,1.12,5.5,2.88,7.4,5.33,1.66,2.15,2.72,4.92,4.85,6.67,.48-.7,.86-1.45,1.15-2.27,.22-.63,1.16-1.08,1.67-.44,2.13,2.69,3.91,5.58,5.37,8.66,.42-.88,.92-1.72,1.58-2.44,.53-.58,1.18-1.07,1.91-1.36,.89-.36,1.87-.08,2.72-.39,.84-.31,.96-1.89,1.29-2.67,.35-.84,.83-1.61,1.41-2.31,.77-.93,1.73-1.66,2.79-2.21-1.23-1.29-1.82-3.15-1.46-4.94,.42-2.1,2.3-3.36,3.33-5.08-3.82,.44-8.32,1.4-9.8,5.31-.48,1.27-.56,2.81-1.73,3.7-1.19,.9-2.74,.44-3.88-.31-2.42-1.59-3.38-4.41-5.07-6.62-2.45-3.2-6.59-2.74-10.21-2.83-4.04-.1-8.08-.21-12.12-.31-.19,.17-.42,.25-.67,.27-.64,.05-1.36-.16-1.88-.53-.34-.25-.6-.5-.85-.85,0,0-.01-.02-.02-.03-1.7,1.85-3.3,3.78-4.77,5.81,5.55-1.68,11.49-2.27,16.99-.13Z"/>
<path class="cls-1" d="M140.09,2.87l.04,.27s-.02,.06-.02,.09c4.27,5.97,2.55,14.97-3.22,19.28,3.89,1.76,7.62,3.88,11.01,6.49,6.48,4.96,11.74,11.8,13.19,19.98,1.29,7.26-.23,15.09-5.33,20.57,.51,.97,.76,2.02,.78,3.1,15.42-8.58,30.95-17.01,46.92-24.53-1.37-3.02-4.87-4.8-7.73-6.12-3.52-1.62-7.33-2.58-11.19-2.87-1.01-.08-1.33-1.28-.5-1.86,2.51-1.76,5.03-3.53,7.54-5.29,2.2-1.54,4.43-3.06,6.43-4.88,3.67-3.35,6.9-8.65,4.77-13.71-.45-.84-.9-1.67-1.35-2.51-.11-.21-.13-.43-.1-.64-9.77-2.61-19.76-4.46-29.71-5.83-10.67-1.47-21.43-2.26-32.2-2.4,.14,.14,.27,.29,.41,.43,.12,.12,.21,.27,.26,.44Z"/>
<path class="cls-1" d="M99.3,24.4s.07-.09,.07-.1c.05-.07,.1-.14,.14-.22,.08-.13,.15-.27,.22-.41,.08-.16,.17-.42,.24-.72,.02-.07,.03-.15,.04-.22,0-.02,0-.04,0-.06,.01-.17,.01-.33,0-.5,0-.03,0-.05,0-.07-.01-.07-.03-.14-.04-.21-.04-.15-.08-.29-.14-.43-.09-.22-.05-.46,.05-.67-.03-.03-.06-.06-.09-.09-1.27,.14-2.54,.81-3.32,1.84-.52,.69-.83,1.54-.83,2.41,0,.66,.21,1.26,.58,1.73,1.18-.63,2.25-1.23,3.06-2.27Z"/>
<path class="cls-1" d="M104.73,32.77c1.95-.91,3.67-2.23,4.66-4.17,.85-1.66,1.14-3.66,.76-5.49-.78-3.8-4.34-6.49-8.17-6.48-.26,0-.45-.09-.61-.22-3.86,.46-7.8,2.28-9.69,5.81-1.58,2.95-1.5,7.1,.94,9.57,3.08,3.12,8.43,2.7,12.1,.99Zm-9.5-11.83c1.54-1.75,3.95-2.52,6.22-2.15,.27,.04,.47,.23,.6,.47,.81,.19,1.56,.56,2.11,1.2,.96,1.15,1.01,2.71,.66,4.1-.56,2.24-2.18,4.28-4.42,5.01-2.08,.67-4.56-.04-5.87-1.81-1.54-2.07-.91-5,.7-6.83Z"/>
<path class="cls-1" d="M148.74,87.82c-.09-.05-.19-.11-.27-.19-.74-.76-1.6-1.36-2.54-1.8-1.22,3.51-1.25,7.22,1.24,10.37,2.75,3.49,6.93,5.94,10.45,8.55,4.02,2.98,8.04,5.97,12.06,8.95,3.57,2.65,7.4,6.27,11.93,7.04,4.58,.78,8.86-1.84,12.52-4.25,3.91-2.57,7.79-5.2,11.63-7.89,7.63-5.35,15.04-11.07,21.59-17.73,5.97-6.06,11.19-12.92,14.94-20.58,3.86-7.87,6.73-17.37,5-26.17-.8-4.08-2.71-9.39-7.84-8.5-2.29,.4-4.51,1.4-6.68,2.2-2.2,.82-4.4,1.66-6.58,2.53-9.09,3.6-18.01,7.62-26.81,11.89-16.87,8.19-33.27,17.31-49.63,26.46-.93,1.41-1.83,2.84-2.61,4.34,1.03-.2,2.04-.45,3.05-.74,.08-.11,.18-.2,.3-.27,1.77-.88,3.54-1.77,5.3-2.65,.28-.14,.58-.15,.84-.05,8.88-5.07,18.13-9.47,27.32-13.96,10.17-4.96,20.35-9.91,30.61-14.69,5.17-2.41,10.35-4.77,15.56-7.08,1.77-.78,3.68-1.89,5.69-1.64,1.94,.24,2.66,1.84,2.39,3.64-.71,4.6-4.96,7.34-8.98,8.83-5.05,1.87-10.27,3.28-15.33,5.17-5.33,1.99-10.58,4.16-15.81,6.4-2.58,1.11-5.15,2.23-7.72,3.35-1.66,.72-3.4,1.39-4.94,2.36,1.33,.09,2.67-.16,4.01-.44,2.2-.45,4.39-.95,6.57-1.49,4.28-1.07,8.52-2.31,12.73-3.64,8.58-2.71,17.07-5.75,25.57-8.7,.41-.14,.92,.1,1.13,.46,2.35,4.19-.75,8.92-4.56,10.86-2.07,1.05-4.34,1.6-6.57,2.2-2.52,.67-4.95,1.54-7.34,2.58-4.58,2-9,4.4-13.78,5.9-5.07,1.6-10.43,1.95-15.72,1.92-2.68-.01-5.35-.12-8.03-.2-1.8-.05-4.39-.14-5.62,1.33,16.8,.43,33.61-1.09,50.06-4.6,.5-.11,1.11,.15,1.23,.7,.72,3.39-.59,6.92-3.49,8.88-2.99,2.03-7.03,2.17-10.5,2.58-4.23,.5-8.48,.85-12.73,1.05-7.38,.35-14.77,.24-22.14-.31,.81,.43,1.67,.8,2.54,1.15,2.12,.85,4.25,1.68,6.37,2.51,4.47,1.76,8.93,3.52,13.4,5.28,.84,.33,.95,1.28,.24,1.83-3.12,2.39-6.76,4.37-10.82,3.87-3.95-.49-7.26-2.93-10.16-5.49-1.44-1.27-2.83-2.6-4.34-3.8-.45-.36-.91-.71-1.4-1.03-.35-.23-.49-.48-.49-.04,0,.64,.8,1.35,1.17,1.79,2.14,2.55,4.41,5.06,6.13,7.93,1.43,2.38,3.06,5.92,2.42,8.78-.73,3.27-5.5,1.88-7.49,.87-3.22-1.64-5.8-4.49-8.42-6.92-3.05-2.83-6.1-5.66-9.16-8.49-2.52-2.34-5.56-4.67-6.91-7.93-.43-1.04-.64-2.18-.6-3.3Z"/>
<path class="cls-1" d="M204.46,12.23c.02,.05,.04,.1,.06,.15,.02,.04,.04,.08,.06,.12,.05,.09,.07,.19,.09,.28,1.98,5.2-.33,10.71-4.04,14.56-2.05,2.13-4.48,3.86-6.89,5.56-2.16,1.52-4.31,3.03-6.47,4.54,3.42,.52,6.74,1.51,9.89,3.02,3.18,1.52,6.58,3.54,8.12,6.83,1.25-.58,2.49-1.17,3.75-1.74,4.64-2.11,9.32-4.13,14.04-6.04,4.72-1.92,9.5-3.97,14.39-5.41,2.01-.59,4.2-.86,6.16,.05,1.8,.83,3.08,2.48,3.93,4.23,2.06,4.22,2.5,9.2,2.12,13.83-1.51,18.46-13.9,34.49-27.4,46.23-5.12,4.45-10.57,8.5-16.13,12.38,.46,.06,.93,.11,1.39,.17,.28,.03,.5,.1,.71,.29,.01,0,.01,.02,.02,.03,7.21,.39,14.4,1.14,21.53,2.29,11.66,1.88,23.16,4.78,34.32,8.64,3.71-5.03,4.98-11.7,1.33-17.13-3.61-5.37-9.65-9.38-15.44-12.03-.69-.32-.61-1.39,0-1.73,3.31-1.83,6.63-3.66,9.94-5.49,2.81-1.55,5.66-3.13,8.14-5.19,4.49-3.74,8.12-10.37,4.61-15.98-.35-.55-.08-1.08,.36-1.33-4.45-7.52-9.46-14.69-15.31-21.19-10.38-11.52-23.19-20.02-37.57-25.74-5.36-2.13-10.86-3.95-16.44-5.52,.22,.4,.43,.81,.65,1.21,.03,.05,.07,.08,.09,.13Z"/>
<path class="cls-1" d="M189.13,67.75c2.64-1.16,5.29-2.31,7.94-3.45,5.31-2.28,10.65-4.49,16.06-6.51,4.79-1.79,9.67-3.26,14.52-4.89,2.26-.76,4.53-1.73,6.26-3.42,.81-.8,1.53-1.74,1.95-2.8,.27-.69,.89-2.28-.05-2.66-.79-.31-1.93,.15-2.66,.45-1.13,.47-2.25,.99-3.37,1.49-2.45,1.09-4.9,2.2-7.35,3.31-4.81,2.2-9.61,4.44-14.39,6.7-9.63,4.57-19.21,9.25-28.78,13.93-9.12,4.46-18.23,8.96-26.88,14.28-.02,.2-.1,.39-.29,.57-3.05,2.74-.6,6.91,1.65,9.21,2.84,2.91,5.96,5.59,8.94,8.35,2.69,2.5,5.34,5.04,8.08,7.48,1.25,1.12,2.56,2.19,4.06,2.95,.74,.37,1.52,.66,2.34,.8,.49,.08,1.77,.31,2.12-.18,.38-.54,.01-1.99-.11-2.59-.15-.73-.36-1.44-.62-2.14-.51-1.33-1.22-2.58-2.01-3.77-1.68-2.55-3.77-4.78-5.7-7.14-.73-.89-1.41-1.96-1.28-3.16,.12-1.09,1.02-1.8,2.1-1.71,1.48,.12,2.99,1.72,4.07,2.63,1.24,1.05,2.43,2.17,3.65,3.24,2.55,2.23,5.52,4.45,9,4.8,2.89,.29,5.5-.94,7.83-2.52-4.18-1.65-8.35-3.29-12.53-4.94-3.85-1.52-8.63-2.69-11.55-5.8-.55-.58-.2-1.79,.71-1.71,9.79,.91,19.65,1.04,29.46,.36,4.75-.33,9.65-.64,14.33-1.61,1.96-.41,3.97-1.1,5.27-2.71,1.02-1.27,1.5-2.9,1.39-4.51-16.77,3.48-33.92,4.99-51.04,4.42-.67-.02-1.11-.62-.96-1.27,1.25-5.49,9.09-3.99,13.1-3.88,5.22,.13,10.52,.11,15.63-1.08,4.83-1.12,9.25-3.36,13.72-5.42,2.21-1.02,4.44-2,6.74-2.79,2.21-.76,4.5-1.23,6.73-1.94,2.14-.68,4.34-1.64,5.71-3.5,1.06-1.42,1.66-3.25,1.11-4.93-8.54,2.96-17.06,6.01-25.69,8.7-4.37,1.36-8.77,2.62-13.21,3.69-2.14,.52-4.3,1.02-6.47,1.4-1.97,.34-3.96,.5-5.84-.28-.64-.27-1.06-1.11-.44-1.67,1.95-1.77,4.36-2.74,6.75-3.78Z"/>
<path class="cls-1" d="M224.6,145.44c-10.26,.13-20.53,.28-30.78-.27-10.58-.58-21.11-1.82-31.56-3.56-4.2-.7-8.38-1.5-12.55-2.35,9.74,9.05,21.32,15.99,33.9,20.29-.25-1.46-.24-2.94,.04-4.45,.1-.51,.75-.86,1.23-.7,1.47,.49,3.3,.94,4.83,.42,1.91-.66,.92-2.84,1.77-4.25,2.03-3.34,7.43-.15,9.72,1.15,6.85,3.9,12.34,9.85,19.53,13.19,3.65,1.69,7.83,2.72,11.84,1.88,3.84-.81,7.04-3.33,10.83-4.3,2.06-.53,4.19-.51,6.3-.49,2.29,.03,4.51-.1,6.75-.58,2.07-.45,4.09-1.09,6.08-1.8,1.98-.71,4.07-1.37,5.94-2.35,1.79-.94,2.82-2.47,4.11-3.96,1.11-1.27,2.48-2.31,4.01-3.03,.67-.32,1.36-.56,2.07-.76-17.58-4.49-36.04-4.31-54.08-4.09Z"/>
<path class="cls-1" d="M285.92,133.4c-6.92-3.37-14.05-6.33-21.31-8.89-.3,.07-.61-.06-.84-.3-18.36-6.37-37.62-10.12-57.04-11.02-.07,0-.11-.03-.17-.04-1.1-.04-2.19-.15-3.27-.33-.02,0-.04-.02-.06-.03-1.57,1.07-3.14,2.14-4.72,3.2-3.86,2.59-7.86,5.65-12.5,6.61-4.73,.97-8.81-.94-12.58-3.65-4.33-3.11-8.58-6.35-12.86-9.53-4.03-2.99-8.24-5.83-12.08-9.07-3.27-2.76-5.71-6.34-5.43-10.79,.08-1.31,.36-2.57,.76-3.8-7.77,.65-15.55,1.28-23.34,1.6-14.39,.59-28.92,.1-42.99-3.2-12.97-3.04-25.39-8.32-36.61-15.5-.22,.21-.54,.31-.92,.23-11.57-2.52-23.58-2.37-35.08,.4,.44,1.92,1.01,3.81,1.75,5.63,1.01,2.46,2.23,4.75,3.64,6.88,.29-.27,.58-.53,.88-.8,.12-.12,.27-.21,.44-.26,.06,0,.12-.02,.18-.02,.82-.79,1.7-1.52,2.77-1.96,1.36-.56,2.72-.4,4.13-.14,2.96,.55,5.58,.05,8.39-.98,2.76-1.02,5.43-2.34,8.32-2.96,1.25-.27,2.7-.56,3.91,0,1.13,.52,1.72,1.57,2.36,2.57,2.8,4.42,7.77,6.76,12.64,8.17,2.97,.86,6.01,1.43,9.02,2.14,1.96,.46,4.9,.88,4.46,3.57-.21,1.26-.94,2.58-1.53,3.69-.49,.92-1.06,1.83-1.93,2.42-2.32,1.56-4.82-.15-6.87-1.31-2.48-1.4-5.13-2.52-7.93-3.11-1.31-.28-2.79-.56-4.13-.33-.4,.07-.89,.18-1.21,.45-.6,.51-.36,1.24-.41,1.93-.13,1.98-1.9,3.34-3.85,3.14-2.18-.23-3.58-2.33-3.81-4.37-.32-2.81,1.26-5.21,1.63-7.91,.11-.8,.1-1.74-.47-2.37-.61-.67-1.33-.44-2.09-.21-1.32,.4-2.63,.84-3.94,1.28-.77,.26-1.81,.55-2.13,1.39-.23,.62-.04,1.36,.05,1.99,.13,1,.22,1.99-.19,2.95-.85,2.02-3.21,2.14-4.61,.6-.85-.93-1.03-2.14-1.35-3.31-.34-1.25-1.07-2.17-2.27-2.7-2.31-1.03-4.75-.05-6.71,1.3,9.36,10.57,23.54,16.69,36.67,21.25,20.02,6.95,40.18,13.65,60.52,19.6,20.39,5.96,41.11,11,62.2,13.75,10.41,1.36,20.88,2.12,31.38,2.27,10.11,.14,20.22-.16,30.32-.18,16.81-.02,33.87,.84,49.91,5.95,.45,.1,.89,.21,1.33,.36,.11,.04,.19,.1,.28,.16,2.19,.74,4.35,1.55,6.5,2.46,.14,.06,.24,.18,.32,.32,.2-.03,.41-.03,.63,.09,4.59,2.37,9.81,5.37,12.44,9.89,.3-6.18-.26-12.38-1.38-18.5-6.2-3.9-12.6-7.48-19.19-10.69Z"/>
<path class="cls-1" d="M270.69,80.96c-2.6,2.49-5.73,4.35-8.86,6.09-3.06,1.71-6.13,3.39-9.2,5.08,2.84,1.44,5.52,3.15,8,5.15,2.73,2.2,5.4,4.75,7.16,7.82,3.3,5.78,1.83,12.56-1.76,17.79,13.45,4.8,26.4,11.01,38.55,18.52-1.44-6.86-3.51-13.61-5.8-20.11-5.12-14.54-10.96-29-17.69-42.87-1.62-3.34-3.31-6.65-5.1-9.91,.37,4.56-1.99,9.27-5.31,12.44Z"/>
<path class="cls-1" d="M293.18,154.49c-1.27,3.1-3.88,5.23-6.68,7.03-3,1.93-6.34,3.58-8.7,6.34-3,3.5-3.36,8.36-2.76,12.74,1.23,8.87,6.54,17.17,5.28,26.25,2.38-1.08,4.66-2.41,6.76-3.97,10.58-7.82,16.65-20.66,18.7-33.41,.12-.73,.21-1.47,.3-2.2-.95-6.4-7.62-10.05-12.91-12.78Z"/>
<path class="cls-1" d="M19.66,83.02c2.19,.32,4.18,1.65,4.99,3.76,.34,.9,.51,3.67,1.85,3.63,1.29-.04,.57-2.61,.51-3.38-.23-2.92,1.91-3.93,4.32-4.72,1.98-.65,4.71-2.18,6.7-.89,1.9,1.23,1.91,3.71,1.43,5.67-.58,2.38-2.39,5.45-.91,7.83,.56,.9,1.97,1.66,2.86,.68,.71-.77,.14-2.19,.62-3.15,.82-1.64,2.84-2.06,4.52-2.01,2.54,.08,5.1,.75,7.46,1.67,2.35,.92,4.39,2.34,6.67,3.37,1.67,.75,2.75,.24,3.62-1.3,.32-.56,.6-1.14,.87-1.73,.2-.43,.68-1.18,.63-1.66-.11-1.07-3.14-1.31-3.97-1.5-1.31-.3-2.63-.58-3.95-.88-2.66-.61-5.32-1.28-7.85-2.3-4.1-1.66-7.85-4.18-10.23-7.98-.36-.58-.68-1.23-1.31-1.55-.68-.34-1.5-.16-2.22-.03-1.05,.19-2.07,.5-3.07,.85-2.28,.79-4.47,1.83-6.76,2.58-2.18,.72-4.46,1.15-6.76,.86-1.31-.17-2.7-.71-4.02-.35-1.25,.34-2.2,1.36-3.08,2.24-.17,.17-.36,.24-.54,.26-.14,.16-.29,.31-.43,.47-.04,.04-.1,.06-.14,.09,.4,.54,.81,1.08,1.23,1.6,2.02-1.45,4.44-2.49,6.96-2.12Z"/>
<path class="cls-1" d="M40.65,66.92c.28-.25,.68-.34,1.09-.07,6.26,4.02,12.89,7.46,19.81,10.21,12.88,5.12,26.49,7.71,40.31,8.34,14.18,.65,28.35-.5,42.47-1.68,.1-.09,.22-.17,.36-.22,.67-1.48,1.49-2.91,2.36-4.29-.31-.44-.34-1.08,.27-1.42,.35-.19,.69-.39,1.04-.58,.04-.06,.08-.12,.12-.18,.25-.37,.63-.49,.98-.44,1.48-.83,2.95-1.65,4.43-2.47,.18-.1,.37-.2,.55-.31,.28-1.38,.01-2.69-.78-3.9-.24-.37-.14-.91,.16-1.21,2.88-2.87,4.65-6.55,5.37-10.54,1.35-7.46-1.04-15.1-5.69-20.97-4.96-6.26-11.94-10.57-19.2-13.65-.7-.3-.61-1.4,0-1.73,6.16-3.27,8.13-11.99,4.06-17.62-.15-.21-.2-.41-.18-.6-.14-.14-.27-.28-.41-.42-.09-.08-.17-.16-.26-.23-.29-.22-.6-.42-.93-.59-.15-.08-.25-.21-.34-.35-22.82-.03-45.65,2.86-67.71,8.59-15.43,4.01-30.91,9.64-43.58,19.57-2.5,1.96-4.87,4.09-7.1,6.37,.02,.05,.06,.09,.07,.14,0,.04,.02,.07,.04,.11,.04,.09,.09,.17,.15,.25,.06,.07,.13,.14,.21,.21,0,0,0,0,0,0,.11-.04,.22-.07,.35-.06,5.07,.13,10.14,.26,15.22,.39,3.34,.09,6.82,.17,9.23,2.84,1.87,2.08,2.74,5.24,5.11,6.84,.82,.55,1.66,.81,2.1-.27,.28-.67,.38-1.42,.64-2.1,.58-1.51,1.61-2.76,2.89-3.75,2.95-2.28,6.73-2.68,10.32-3.01,.69-.06,1.08,.69,.96,1.27-.44,2.09-2.12,3.29-3.25,4.98-1.26,1.87-.69,4.29,1.34,5.33,.8,.41,.54,1.59-.24,1.83-1.74,.53-3.22,1.65-4.16,3.22-.77,1.3-.79,3.15-1.97,4.19-1.32,1.17-3.14,.2-4.49,1.41-1.18,1.05-1.8,2.71-2.3,4.16-.34,.99-1.56,.9-1.93,0-1.27-3.13-2.96-6.08-4.95-8.8-.4,.75-.87,1.46-1.43,2.14-.27,.33-.87,.37-1.21,.16-2.47-1.57-3.73-4.13-5.28-6.51-1.64-2.53-3.95-4.44-6.73-5.63-6.07-2.6-12.77-1.44-18.79,.74-3.41,5.27-5.98,11.04-7.4,17.22,6.94-2.36,14.16-4.62,21.56-4.2,6.24,.35,12.5,2.59,16.75,7.3ZM90.45,20.4c2.72-4.04,7.59-5.95,12.31-6.11,.41-.01,.68,.19,.83,.47,4.58,.72,8.33,4.49,8.69,9.24,.18,2.29-.45,4.72-1.76,6.62-1.45,2.11-3.65,3.5-6.01,4.41-4.51,1.74-10.67,1.58-13.9-2.52-2.68-3.41-2.55-8.57-.16-12.1Z"/><g>
<path d="M307.14,144.34c.33-.43,.36-1.12-.23-1.49-.02-.01-.03-.02-.05-.03-.44-2.34-.94-4.66-1.52-6.96-2.15-8.54-5.15-16.84-8.33-25.05-2.83-7.3-5.75-14.58-8.87-21.77-5.94-13.69-12.7-27.16-21.59-39.2-8.97-12.15-20.07-22.43-33.41-29.61-14.91-8.02-31.57-12.51-48.12-15.65-34.94-6.63-71.17-5.99-105.93,1.45C52.82,11.65,23.49,21.76,8.31,45.01c-.23,.09-.45,.17-.68,.26-.71,.28-.8,1.1-.5,1.6-1.48,2.46-2.82,5.07-3.97,7.82-1.4,3.35-2.46,6.82-3.14,10.38-.13,.69,.45,1.5,1.23,1.23,11.1-3.8,25.97-8.27,35.9,.01-11.35-1.98-23.03-1.52-34.2,1.39-1.02,.27-.84,1.6-.05,1.89,4.03,18.18,20.45,29.54,36.65,36.27,9.61,3.99,19.62,7.04,29.49,10.34,10.22,3.41,20.46,6.78,30.75,9.96,15.64,4.83,31.44,9.22,47.46,12.6-.18,.34-.17,.76,.19,1.1,10.59,10.1,23.39,17.71,37.33,22.18,.7,.23,1.47-.52,1.23-1.23-.46-1.37-.64-2.75-.52-4.15,2.2,.56,4.92,.73,6.54-.95,.39-.41,.67-.92,.83-1.46,.22-.76-.1-2.27,.51-2.81,1.17-1.07,3.93,.5,5.01,1.03,7.1,3.47,12.54,9.45,19.46,13.2,3.37,1.82,7.07,3.19,10.93,3.39,3.96,.21,7.34-1.2,10.82-2.89,1.75-.85,3.53-1.66,5.46-1.98,2.26-.37,4.57-.12,6.84-.19,4.34-.13,8.51-1.43,12.56-2.93,2-.74,4.17-1.4,5.97-2.58,1.78-1.17,2.8-2.98,4.29-4.45,2.79-2.74,6.96-3.63,10.67-2.57,2.02,.67,4.02,1.42,5.99,2.23-1.21,3.01-3.96,4.92-6.67,6.6-2.95,1.84-6.14,3.57-8.4,6.27-5.79,6.92-3.13,16.57-.6,24.24,1.85,5.59,3.81,11.5,2.37,17.42-.16,.67,.48,1.53,1.23,1.23,12.48-4.97,21.12-15.95,25.6-28.36,1.37-3.8,2.31-7.67,2.89-11.58,.27-.15,.47-.41,.47-.82,0-.58-.06-1.13-.14-1.68,.83-7.53,.37-15.18-.92-22.7Zm-26.04-65.91c6.72,13.88,12.57,28.33,17.69,42.87,2.29,6.5,4.37,13.25,5.8,20.11-12.16-7.5-25.1-13.71-38.55-18.52,3.59-5.23,5.06-12,1.76-17.79-1.75-3.07-4.43-5.61-7.16-7.82-2.48-2-5.16-3.72-8-5.15,3.07-1.69,6.14-3.38,9.2-5.08,3.13-1.75,6.25-3.6,8.86-6.09,3.31-3.17,5.68-7.88,5.31-12.44,1.79,3.26,3.48,6.57,5.1,9.91Zm-60.95-62.03c14.38,5.72,27.19,14.22,37.57,25.74,5.85,6.49,10.87,13.67,15.31,21.19-.44,.25-.71,.78-.36,1.33,3.51,5.61-.13,12.24-4.61,15.98-2.47,2.07-5.33,3.64-8.14,5.19-3.31,1.83-6.63,3.66-9.94,5.49-.61,.34-.69,1.41,0,1.73,5.79,2.65,11.83,6.66,15.44,12.03,3.65,5.44,2.38,12.11-1.33,17.13-11.16-3.86-22.65-6.77-34.32-8.64-7.13-1.15-14.32-1.9-21.53-2.29,0,0-.01-.02-.02-.03-.21-.19-.43-.26-.71-.29-.46-.06-.93-.11-1.39-.17,5.56-3.88,11.01-7.93,16.13-12.38,13.49-11.74,25.88-27.77,27.4-46.23,.38-4.63-.07-9.6-2.12-13.83-.85-1.75-2.13-3.4-3.93-4.23-1.96-.91-4.15-.64-6.16-.05-4.89,1.44-9.67,3.5-14.39,5.41-4.72,1.92-9.4,3.94-14.04,6.04-1.25,.57-2.5,1.16-3.75,1.74-1.54-3.28-4.93-5.3-8.12-6.83-3.14-1.5-6.46-2.5-9.89-3.02,2.16-1.51,4.32-3.03,6.47-4.54,2.41-1.7,4.84-3.43,6.89-5.56,3.71-3.85,6.02-9.36,4.04-14.56-.02-.09-.04-.19-.09-.28-.02-.04-.04-.08-.06-.12-.02-.05-.04-.1-.06-.15-.03-.06-.06-.09-.09-.13-.22-.4-.43-.81-.65-1.21,5.58,1.57,11.08,3.38,16.44,5.52Zm-37.32,56.8c1.88,.78,3.88,.62,5.84,.28,2.17-.38,4.32-.89,6.47-1.4,4.45-1.07,8.85-2.33,13.21-3.69,8.63-2.69,17.15-5.74,25.69-8.7,.55,1.68-.05,3.51-1.11,4.93-1.38,1.86-3.57,2.82-5.71,3.5-2.23,.7-4.52,1.17-6.73,1.94-2.3,.79-4.53,1.78-6.74,2.79-4.47,2.06-8.9,4.3-13.72,5.42-5.11,1.19-10.41,1.22-15.63,1.08-4.01-.1-11.85-1.61-13.1,3.88-.15,.65,.29,1.24,.96,1.27,17.12,.57,34.27-.94,51.04-4.42,.11,1.61-.37,3.24-1.39,4.51-1.3,1.62-3.3,2.31-5.27,2.71-4.67,.96-9.57,1.28-14.33,1.61-9.81,.67-19.67,.54-29.46-.36-.91-.08-1.26,1.12-.71,1.71,2.92,3.1,7.71,4.28,11.55,5.8,4.18,1.65,8.35,3.29,12.53,4.94-2.33,1.58-4.95,2.81-7.83,2.52-3.48-.35-6.45-2.58-9-4.8-1.23-1.07-2.41-2.19-3.65-3.24-1.08-.91-2.59-2.51-4.07-2.63-1.09-.09-1.99,.62-2.1,1.71-.13,1.21,.55,2.27,1.28,3.16,1.93,2.36,4.01,4.6,5.7,7.14,.78,1.19,1.5,2.44,2.01,3.77,.26,.69,.48,1.41,.62,2.14,.12,.6,.49,2.05,.11,2.59-.34,.49-1.63,.26-2.12,.18-.82-.14-1.6-.43-2.34-.8-1.5-.76-2.82-1.84-4.06-2.95-2.73-2.45-5.39-4.99-8.08-7.48-2.98-2.77-6.1-5.44-8.94-8.35-2.24-2.3-4.7-6.46-1.65-9.21,.19-.17,.27-.37,.29-.57,8.65-5.32,17.76-9.82,26.88-14.28,9.58-4.68,19.15-9.36,28.78-13.93,4.78-2.27,9.57-4.51,14.39-6.7,2.44-1.12,4.89-2.22,7.35-3.31,1.12-.5,2.24-1.02,3.37-1.49,.73-.3,1.87-.77,2.66-.45,.93,.37,.32,1.97,.05,2.66-.42,1.07-1.14,2.01-1.95,2.8-1.73,1.69-4,2.66-6.26,3.42-4.85,1.63-9.73,3.1-14.52,4.89-5.41,2.03-10.75,4.24-16.06,6.51-2.65,1.14-5.3,2.29-7.94,3.45-2.38,1.04-4.8,2.01-6.75,3.78-.62,.56-.2,1.4,.44,1.67Zm-26.57,25.85c3.05,2.83,6.1,5.66,9.16,8.49,2.61,2.42,5.2,5.28,8.42,6.92,1.99,1.01,6.76,2.41,7.49-.87,.63-2.86-1-6.39-2.42-8.78-1.72-2.87-3.98-5.37-6.13-7.93-.37-.44-1.17-1.16-1.17-1.79,0-.44,.14-.19,.49,.04,.48,.32,.94,.67,1.4,1.03,1.51,1.19,2.9,2.53,4.34,3.8,2.91,2.56,6.21,5,10.16,5.49,4.05,.5,7.7-1.48,10.82-3.87,.71-.54,.6-1.5-.24-1.83-4.47-1.76-8.93-3.52-13.4-5.28-2.12-.84-4.25-1.67-6.37-2.51-.87-.35-1.72-.71-2.54-1.15,7.37,.55,14.76,.66,22.14,.31,4.26-.2,8.5-.55,12.73-1.05,3.47-.41,7.51-.55,10.5-2.58,2.89-1.96,4.2-5.49,3.49-8.88-.12-.55-.73-.81-1.23-.7-16.44,3.51-33.25,5.03-50.06,4.6,1.23-1.47,3.81-1.38,5.62-1.33,2.67,.08,5.35,.19,8.03,.2,5.29,.03,10.65-.33,15.72-1.92,4.78-1.5,9.2-3.9,13.78-5.9,2.39-1.04,4.82-1.91,7.34-2.58,2.23-.59,4.5-1.15,6.57-2.2,3.82-1.94,6.92-6.67,4.56-10.86-.2-.36-.72-.6-1.13-.46-8.51,2.95-16.99,5.98-25.57,8.7-4.21,1.33-8.45,2.57-12.73,3.64-2.18,.54-4.37,1.05-6.57,1.49-1.34,.27-2.68,.52-4.01,.44,1.54-.96,3.29-1.63,4.94-2.36,2.57-1.12,5.14-2.25,7.72-3.35,5.22-2.24,10.48-4.41,15.81-6.4,5.06-1.89,10.27-3.3,15.33-5.17,4.02-1.49,8.27-4.23,8.98-8.83,.28-1.8-.44-3.4-2.39-3.64-2.01-.25-3.92,.86-5.69,1.64-5.21,2.3-10.4,4.67-15.56,7.08-10.26,4.78-20.44,9.72-30.61,14.69-9.18,4.48-18.43,8.89-27.32,13.96-.26-.1-.56-.09-.84,.05-1.77,.88-3.54,1.77-5.3,2.65-.12,.06-.22,.15-.3,.27-1,.29-2.02,.54-3.05,.74,.78-1.5,1.67-2.93,2.61-4.34,16.37-9.15,32.76-18.27,49.63-26.46,8.8-4.27,17.72-8.28,26.81-11.89,2.18-.87,4.38-1.71,6.58-2.53,2.17-.8,4.39-1.8,6.68-2.2,5.13-.89,7.04,4.42,7.84,8.5,1.73,8.8-1.14,18.3-5,26.17-3.75,7.66-8.98,14.51-14.94,20.58-6.55,6.65-13.96,12.38-21.59,17.73-3.83,2.69-7.72,5.31-11.63,7.89-3.66,2.41-7.95,5.03-12.52,4.25-4.53-.77-8.37-4.4-11.93-7.04-4.02-2.98-8.04-5.97-12.06-8.95-3.52-2.61-7.7-5.07-10.45-8.55-2.49-3.15-2.46-6.86-1.24-10.37,.94,.44,1.8,1.04,2.54,1.8,.08,.09,.18,.15,.27,.19-.03,1.12,.17,2.26,.6,3.3,1.35,3.27,4.39,5.59,6.91,7.93ZM171.62,4.41c9.95,1.37,19.94,3.22,29.71,5.83-.03,.21,0,.43,.1,.64,.45,.84,.9,1.67,1.35,2.51,2.13,5.05-1.1,10.36-4.77,13.71-1.99,1.82-4.22,3.34-6.43,4.88-2.51,1.76-5.03,3.53-7.54,5.29-.82,.58-.51,1.79,.5,1.86,3.86,.29,7.67,1.25,11.19,2.87,2.85,1.32,6.36,3.1,7.73,6.12-15.97,7.52-31.5,15.95-46.92,24.53-.02-1.07-.28-2.13-.78-3.1,5.1-5.48,6.62-13.31,5.33-20.57-1.45-8.18-6.71-15.01-13.19-19.98-3.4-2.6-7.12-4.72-11.01-6.49,5.77-4.31,7.48-13.32,3.22-19.28,0-.03,.02-.06,.02-.09l-.04-.27c-.05-.17-.13-.32-.26-.44-.14-.14-.27-.29-.41-.43,10.77,.14,21.53,.94,32.2,2.4ZM16.37,38.07s.01,.02,.02,.03c.25,.34,.51,.6,.85,.85,.52,.38,1.24,.59,1.88,.53,.25-.02,.48-.1,.67-.27,4.04,.1,8.08,.21,12.12,.31,3.62,.09,7.76-.37,10.21,2.83,1.7,2.21,2.66,5.03,5.07,6.62,1.14,.75,2.69,1.21,3.88,.31,1.17-.89,1.25-2.42,1.73-3.7,1.47-3.91,5.98-4.87,9.8-5.31-1.02,1.72-2.91,2.98-3.33,5.08-.36,1.79,.24,3.65,1.46,4.94-1.05,.55-2.01,1.28-2.79,2.21-.58,.7-1.06,1.47-1.41,2.31-.33,.78-.46,2.37-1.29,2.67-.85,.31-1.83,.03-2.72,.39-.74,.3-1.38,.78-1.91,1.36-.66,.72-1.16,1.56-1.58,2.44-1.46-3.08-3.23-5.97-5.37-8.66-.51-.64-1.45-.19-1.67,.44-.29,.81-.67,1.57-1.15,2.27-2.13-1.75-3.18-4.52-4.85-6.67-1.9-2.46-4.52-4.22-7.4-5.33-5.51-2.13-11.45-1.54-16.99,.13,1.47-2.03,3.07-3.96,4.77-5.81Zm7.53,21.55c-7.4-.41-14.62,1.84-21.56,4.2,1.42-6.17,3.99-11.95,7.4-17.22,6.02-2.18,12.72-3.34,18.79-.74,2.77,1.19,5.08,3.09,6.73,5.63,1.54,2.38,2.81,4.94,5.28,6.51,.34,.22,.94,.17,1.21-.16,.56-.68,1.03-1.39,1.43-2.14,2,2.72,3.68,5.67,4.95,8.8,.37,.9,1.59,.99,1.93,0,.5-1.46,1.12-3.11,2.3-4.16,1.35-1.21,3.17-.24,4.49-1.41,1.18-1.04,1.19-2.89,1.97-4.19,.94-1.57,2.42-2.69,4.16-3.22,.78-.24,1.04-1.42,.24-1.83-2.03-1.04-2.6-3.46-1.34-5.33,1.13-1.68,2.81-2.89,3.25-4.98,.12-.58-.28-1.33-.96-1.27-3.59,.34-7.37,.74-10.32,3.01-1.28,.98-2.31,2.24-2.89,3.75-.26,.68-.36,1.42-.64,2.1-.44,1.07-1.28,.82-2.1,.27-2.37-1.6-3.24-4.76-5.11-6.84-2.4-2.67-5.88-2.75-9.23-2.84-5.07-.13-10.14-.26-15.22-.39-.13,0-.24,.03-.35,.06,0,0,0,0,0,0-.07-.06-.14-.13-.21-.21-.05-.08-.1-.17-.15-.25-.01-.04-.03-.07-.04-.11-.01-.05-.05-.09-.07-.14,2.23-2.28,4.6-4.41,7.1-6.37,12.67-9.93,28.16-15.57,43.58-19.57C90.59,4.85,113.42,1.97,136.24,2c.08,.14,.19,.28,.34,.35,.33,.17,.64,.37,.93,.59,.09,.07,.18,.15,.26,.23,.14,.14,.27,.28,.41,.42-.02,.19,.03,.39,.18,.6,4.07,5.63,2.1,14.35-4.06,17.62-.61,.32-.7,1.43,0,1.73,7.27,3.08,14.25,7.39,19.2,13.65,4.65,5.87,7.04,13.51,5.69,20.97-.72,3.98-2.49,7.67-5.37,10.54-.3,.3-.4,.85-.16,1.21,.8,1.21,1.07,2.52,.78,3.9-.18,.1-.37,.2-.55,.31-1.48,.82-2.95,1.65-4.43,2.47-.35-.05-.73,.06-.98,.44-.04,.06-.08,.12-.12,.18-.35,.19-.69,.39-1.04,.58-.6,.34-.58,.98-.27,1.42-.87,1.37-1.69,2.8-2.36,4.29-.14,.05-.26,.13-.36,.22-14.12,1.18-28.3,2.32-42.47,1.68-13.82-.63-27.43-3.22-40.31-8.34-6.92-2.75-13.55-6.19-19.81-10.21-.41-.27-.81-.18-1.09,.07-4.25-4.71-10.51-6.95-16.75-7.3Zm-12.43,23.92s.1-.05,.14-.09c.14-.16,.29-.31,.43-.47,.19-.03,.37-.1,.54-.26,.88-.88,1.84-1.9,3.08-2.24,1.32-.36,2.71,.18,4.02,.35,2.29,.29,4.58-.14,6.76-.86,2.29-.75,4.48-1.8,6.76-2.58,1-.35,2.03-.65,3.07-.85,.71-.13,1.54-.31,2.22,.03,.63,.32,.95,.97,1.31,1.55,2.38,3.8,6.13,6.32,10.23,7.98,2.53,1.03,5.19,1.7,7.85,2.3,1.31,.3,2.63,.58,3.95,.88,.83,.19,3.85,.43,3.97,1.5,.05,.49-.43,1.23-.63,1.66-.27,.59-.55,1.17-.87,1.73-.87,1.54-1.95,2.05-3.62,1.3-2.28-1.02-4.33-2.45-6.67-3.37-2.36-.92-4.92-1.59-7.46-1.67-1.68-.05-3.7,.37-4.52,2.01-.48,.96,.09,2.37-.62,3.15-.89,.98-2.3,.22-2.86-.68-1.48-2.38,.33-5.44,.91-7.83,.48-1.96,.47-4.44-1.43-5.67-1.99-1.29-4.72,.24-6.7,.89-2.41,.79-4.54,1.8-4.32,4.72,.06,.77,.78,3.34-.51,3.38-1.34,.04-1.51-2.73-1.85-3.63-.81-2.11-2.8-3.44-4.99-3.76-2.52-.37-4.94,.67-6.96,2.12-.42-.52-.83-1.06-1.23-1.6Zm265.14,66.75c-1.52,.72-2.9,1.76-4.01,3.03-1.3,1.49-2.32,3.01-4.11,3.96-1.87,.98-3.96,1.64-5.94,2.35-1.99,.71-4.01,1.35-6.08,1.8-2.24,.48-4.47,.61-6.75,.58-2.11-.02-4.24-.04-6.3,.49-3.79,.97-6.99,3.49-10.83,4.3-4.01,.84-8.19-.19-11.84-1.88-7.2-3.34-12.68-9.29-19.53-13.19-2.29-1.3-7.69-4.49-9.72-1.15-.86,1.41,.13,3.6-1.77,4.25-1.52,.52-3.36,.08-4.83-.42-.48-.16-1.13,.19-1.23,.7-.28,1.5-.3,2.98-.04,4.45-12.58-4.3-24.16-11.23-33.9-20.29,4.17,.85,8.35,1.65,12.55,2.35,10.45,1.74,20.98,2.98,31.56,3.56,10.25,.56,20.52,.4,30.78,.27,18.04-.22,36.5-.41,54.08,4.09-.7,.2-1.4,.45-2.07,.76Zm29.18,19.18c-2.05,12.75-8.13,25.58-18.7,33.41-2.11,1.56-4.38,2.88-6.76,3.97,1.26-9.08-4.05-17.38-5.28-26.25-.61-4.39-.24-9.24,2.76-12.74,2.36-2.75,5.7-4.4,8.7-6.34,2.8-1.8,5.42-3.93,6.68-7.03,5.29,2.73,11.96,6.38,12.91,12.78-.09,.73-.18,1.47-.3,2.2Zm.7-6.89c-2.63-4.52-7.85-7.53-12.44-9.89-.22-.11-.43-.12-.63-.09-.08-.14-.18-.26-.32-.32-2.14-.91-4.31-1.72-6.5-2.46-.08-.06-.17-.12-.28-.16-.44-.15-.88-.26-1.33-.36-16.04-5.11-33.1-5.98-49.91-5.95-10.11,.01-20.22,.32-30.32,.18-10.5-.15-20.97-.91-31.38-2.27-21.08-2.75-41.81-7.79-62.2-13.75-20.34-5.95-40.5-12.65-60.52-19.6-13.13-4.56-27.32-10.68-36.67-21.25,1.96-1.35,4.4-2.33,6.71-1.3,1.2,.53,1.93,1.45,2.27,2.7,.32,1.17,.51,2.38,1.35,3.31,1.4,1.54,3.76,1.43,4.61-.6,.4-.96,.32-1.95,.19-2.95-.08-.63-.28-1.37-.05-1.99,.32-.85,1.36-1.13,2.13-1.39,1.31-.44,2.62-.88,3.94-1.28,.76-.23,1.48-.46,2.09,.21,.57,.63,.58,1.57,.47,2.37-.37,2.7-1.95,5.1-1.63,7.91,.23,2.03,1.63,4.13,3.81,4.37,1.96,.21,3.73-1.16,3.85-3.14,.04-.69-.19-1.42,.41-1.93,.32-.27,.81-.38,1.21-.45,1.34-.23,2.82,.06,4.13,.33,2.8,.59,5.45,1.71,7.93,3.11,2.05,1.16,4.56,2.87,6.87,1.31,.88-.59,1.45-1.51,1.93-2.42,.59-1.11,1.32-2.43,1.53-3.69,.44-2.7-2.5-3.11-4.46-3.57-3.01-.71-6.05-1.28-9.02-2.14-4.87-1.4-9.83-3.75-12.64-8.17-.64-1.01-1.23-2.05-2.36-2.57-1.21-.56-2.66-.27-3.91,0-2.89,.62-5.56,1.94-8.32,2.96-2.8,1.03-5.42,1.53-8.39,.98-1.41-.26-2.77-.41-4.13,.14-1.06,.44-1.94,1.17-2.77,1.96-.06,0-.12,.02-.18,.02-.17,.05-.32,.13-.44,.26-.29,.27-.58,.53-.88,.8-1.4-2.13-2.63-4.42-3.64-6.88-.75-1.83-1.32-3.71-1.75-5.63,11.5-2.77,23.51-2.93,35.08-.4,.37,.08,.7-.03,.92-.23,11.22,7.17,23.64,12.46,36.61,15.5,14.07,3.3,28.6,3.79,42.99,3.2,7.79-.32,15.57-.95,23.34-1.6-.4,1.23-.68,2.5-.76,3.8-.28,4.44,2.16,8.03,5.43,10.79,3.84,3.24,8.05,6.08,12.08,9.07,4.28,3.18,8.52,6.42,12.86,9.53,3.77,2.7,7.86,4.62,12.58,3.65,4.65-.96,8.65-4.02,12.5-6.61,1.58-1.06,3.15-2.12,4.72-3.2,.02,0,.04,.02,.06,.03,1.08,.18,2.18,.29,3.27,.33,.06,.01,.11,.04,.17,.04,19.42,.9,38.68,4.65,57.04,11.02,.23,.24,.54,.37,.84,.3,7.26,2.56,14.39,5.51,21.31,8.89,6.59,3.21,12.99,6.79,19.19,10.69,1.12,6.12,1.68,12.32,1.38,18.5Z"/>
<path d="M104.52,35.02c2.36-.91,4.56-2.3,6.01-4.41,1.31-1.9,1.94-4.32,1.76-6.62-.37-4.75-4.12-8.52-8.69-9.24-.15-.28-.41-.48-.83-.47-4.73,.17-9.59,2.08-12.31,6.11-2.38,3.53-2.52,8.7,.16,12.1,3.23,4.1,9.39,4.26,13.9,2.52Zm-12.82-12.81c1.89-3.53,5.82-5.36,9.69-5.81,.15,.13,.35,.22,.61,.22,3.83,0,7.39,2.68,8.17,6.48,.38,1.83,.09,3.83-.76,5.49-.99,1.94-2.72,3.26-4.66,4.17-3.67,1.71-9.01,2.13-12.1-.99-2.45-2.48-2.53-6.62-.94-9.57Z"/>
<path d="M100.41,29.57c2.24-.72,3.86-2.77,4.42-5.01,.35-1.4,.3-2.96-.66-4.1-.54-.65-1.3-1.01-2.11-1.2-.12-.24-.33-.42-.6-.47-2.28-.37-4.68,.39-6.22,2.15-1.61,1.82-2.23,4.76-.7,6.83,1.31,1.76,3.78,2.48,5.87,1.81Zm1.61-3.59s-.02,.02-.03,.04c0-.01,.02-.02,.03-.04Zm-5.52-3.44c.78-1.03,2.05-1.7,3.32-1.84,.03,.03,.06,.06,.09,.09-.11,.21-.14,.45-.05,.67,.06,.14,.1,.28,.14,.43,.02,.07,.03,.14,.04,.21,0,.02,0,.04,0,.07,0,.17,0,.33,0,.5,0,.02,0,.04,0,.06-.01,.07-.03,.15-.04,.22-.07,.31-.16,.56-.24,.72-.07,.14-.14,.27-.22,.41-.04,.07-.09,.14-.14,.22,0,.01-.05,.08-.07,.1-.81,1.04-1.89,1.64-3.06,2.27-.37-.47-.58-1.07-.58-1.73,0-.87,.31-1.72,.83-2.41Z"/></g></g></g></svg>
