<svg id="Calque_2" xmlns="http://www.w3.org/2000/svg" viewBox="0 0 239.12 373.97">
<g id="Calque_4"><g>
<path class="cls-1" d="M141.37,66.64c.18-.05,.35-.05,.53,0,.03,.01,.05,.02,.08,.03,.1-.04,.2-.08,.32-.08,3.84-.2,8,.32,10.62,3.45,2.4,2.86,2.91,6.74,2.08,10.3-.73,3.12-2.65,7.34-6.23,7.88-2.54,.39-4.17-1.33-5.02-3.42-.66,1.37-1.17,2.82-1.09,4.32,.11,2.31,1.81,3.83,3.67,4.92,.54,.31,.57,.88,.35,1.31,.24-.06,.44-.44,.59-.61,.86-.98,1.96-1.67,3.2-2.07,2.74-.9,5.75-.13,8.2,1.23,1.9,1.05,3.54,2.62,4.16,4.7,1.98-1.05,3.15-2.75,3.81-4.95,.68-2.26,1.46-4.23,2.64-6.28,.82-1.42,1.46-2.83,1.64-4.4,0-.03,0-.07,0-.1,.05-.45,.06-.92,.02-1.4-.18-2.16-1.15-4.23-2.39-5.98-2.51-3.53-6.32-5.9-9.57-8.68-2.99-2.57-5.83-5.8-10.12-5.57-3.4,.19-6.73,2.32-8,5.53,.03,0,.05,0,.08,.01,.15-.05,.29-.1,.44-.15Z"/>
<path class="cls-1" d="M155.09,94.57c-2.02-.55-4.35-.37-5.96,1.09-.63,.58-1.04,1.4-1.94,1.62-.34,.09-.72,.06-1.07,0-.17-.03-.56-.23-.82-.25-3.75,1.7-5.64,6.24-3.88,10.06,1.16,2.53,3.32,3.9,5.78,4.4,.02-.03,.03-.06,.05-.09,.54-.82,1.68-.42,1.86,.3,.81,.02,1.64-.04,2.46-.17,1.91-.31,3.84-.9,5.44-2.02,1.76-1.23,2.73-3.05,3.34-5.07,.63-2.08,1.28-4.57-.02-6.52-1.15-1.72-3.3-2.82-5.25-3.35Z"/>
<path class="cls-1" d="M96.06,100.28c3.11,.97,6.64,.12,8.85-2.34,1.79-1.99,2.35-4.82,1.76-7.39h0c-5.14-4.13-10.12-9.89-12.12-16.28-.95-3.05-.71-6.12,.2-9.14,.97-3.27,2.26-6.46,3.34-9.69,2.19-6.52,4.17-13.11,5.93-19.76,.85-3.21,2.46-7.03,.86-10.23-1.41-2.84-3.69-5.41-5.6-7.92-3.82-5.02-7.87-9.85-12.11-14.52,1.32,3.6,2.3,7.12,2.41,11.02,.05,1.86,.06,3.92,1.27,5.45,1.04,1.31,2.61,2.08,3.59,3.46,.89,1.24,.91,3.02,2.21,3.92,1.15,.8,2.01,1.45,2.31,2.91,.32,1.61-.28,3.15-1.01,4.55-.88,1.66-1.84,3.29-2.74,4.94-3.74,6.86-7.26,13.84-10.54,20.93-.87,1.88-1.73,3.77-2.56,5.66-.79,1.81-1.59,3.74-1.21,5.75,.33,1.75,1.31,3.29,2.26,4.77,.97,1.51,1.94,3.02,2.85,4.57,3.68,6.2,6.72,12.76,9.15,19.55,.21-.2,.51-.31,.89-.2Z"/>
<path class="cls-1" d="M126.59,121.85c1.98,5.75,3.25,11.73,4.65,17.64,1.12,4.7,2.23,9.4,3.35,14.1,1.43-6.74,3.16-13.41,5.04-20.03,1.13-3.99,2.31-7.96,3.5-11.93,.85-2.83,1.68-5.69,3.03-8.32-3.64-.99-6.58-3.74-7.28-7.71-.72-4.13,1.47-8.15,5.04-10.09,.06-.06,.11-.13,.2-.19,.09-.06,.19-.09,.28-.13-1.85-1.27-3.36-3-3.69-5.32-.41-2.97,1.07-5.8,2.49-8.29,.53-.93,1.77-.42,1.86,.5,.24,2.44,2.08,5.54,4.8,3.54,2.22-1.63,3.3-5.04,3.48-7.67,.19-2.72-.64-5.58-2.75-7.42-2.26-1.97-5.46-2.09-8.31-1.94-.13,0-.24-.02-.34-.05-.02,0-.03,.02-.06,.03-.16,.05-.33,.11-.49,.17-.13,.03-.26,.04-.39,.02-.09,.03-.18,.06-.28,.09-.04,.03-.06,.06-.1,.09-2.2,1.19-4.6,1.63-7.05,1.34-1.56,3.36-4.84,5.19-7.04,8.13-1.13,1.51-2.15,3.56-1.43,5.46,.62,1.64,2.29,2.53,3.65,3.5,2.68,1.9,4.32,4.51,4.72,7.79,.87,7.16-4.52,12.86-10.6,15.7-.05,.02-.1,.02-.15,.04,.14,.92,.37,1.83,.66,2.72,.91,2.8,2.23,5.46,3.19,8.25Z"/>
<path class="cls-1" d="M158.1,144.21c-.49,1.8-.39,3.65-1.07,5.42-1.21,3.14-3.59,5.59-5.64,8.19-4.32,5.46-6.28,13.5-2.13,19.64,2.76,4.09,7.45,6.84,9.73,11.19,1.73-3.99,3.46-7.98,5.19-11.97,.98-2.27,1.97-4.53,2.95-6.8,.96-2.24,1.9-4.57,1.33-7.04-.51-2.22-1.64-4.23-2.14-6.46-.48-2.16-.6-4.39-.45-6.6,.32-4.72,1.74-9.26,3.21-13.73-2.45,1.5-5.09,2.68-7.53,4.21-1.52,.95-2.97,2.16-3.45,3.96Z"/>
<path class="cls-1" d="M167.54,69.91c.08,.04,.16,.08,.22,.15,.76,.83,1.31,1.86,1.51,2.97,.01,.07,0,.14,0,.21,.73,.87,1.4,1.78,1.95,2.8,1.1,2.01,1.82,4.3,1.72,6.61,0,.09-.02,.17-.02,.26,.65,1.75,1.3,3.5,1.94,5.25,.63,1.7,.74,2.96-.04,4.63-1.58,3.33-3.34,6.59-5,9.87-.03,.06-.07,.09-.11,.14,.7,1.84,1.73,3.53,3.27,4.84,1.4,1.19,4.44,2.44,6.39,1.58-.04-.2-.04-.41,.06-.64,1.3-2.92,2.49-5.88,3.57-8.88,.53-1.47,1.03-2.95,1.5-4.44,.47-1.48,1.12-3.09,1.07-4.66-.08-2.69-2.28-5.16-3.7-7.31-1.59-2.4-3.17-4.8-4.76-7.21-1.59-2.4-3.17-4.8-4.76-7.21-1.53-2.32-3.36-4.61-4.49-7.15-.95-2.13-.87-4.25,.37-6.23,.59-.94,1.34-1.76,1.89-2.73,.57-1.01,.76-2.13,.9-3.27,.25-2.1,.48-4.16,1.94-5.8,.8-.89,1.78-1.6,2.59-2.48,.4-.44,.77-.91,1.1-1.39-2.43,.4-4.88,.95-7.03,2.13-2.92,1.6-4.43,4.24-5.36,7.34-.45,1.49-.79,3.02-1.22,4.51-.22,.75-.45,1.49-.73,2.21-.42,1.08-.86,1.74-.31,2.89,1.74,3.59,3.62,7.12,5.43,10.68,.06,.12,.08,.23,.09,.34Z"/>
<path class="cls-1" d="M229.04,322.07l-10.25-12.33c-5.48,4.65-11.14,9.08-17.12,13.07-13,8.68-27.61,15.21-43.25,17.02-17.12,1.99-33.82-4.4-49.86-9.39-4.16-1.29-8.35-2.58-12.6-3.54-4.26-.96-8.74-1.16-13.09-.97-8.57,.36-16.93,2.45-25.24,4.43-4.09,.97-8.19,1.93-12.34,2.64-2.06,.36-4.19,.77-6.28,.88-1.88,.1-3.81,0-5.69-.05-5.18-.14-10.48-.72-15.21-2.72-.05,.09-.09,.18-.17,.26-.84,.87-1.78,1.65-2.79,2.33-.07,.16-.18,.31-.36,.42-2,1.25-3.91,2.62-5.71,4.15-1.75,1.49-3.39,3.1-4.91,4.82-.77,.88-1.71,1.82-2.06,2.96-.43,1.44,.91,1.7,1.99,2.01,4.91,1.39,9.99,2.02,15.07,2.36,9.99,.68,19.95,.62,29.85,2.38,20.07,3.56,38.91,11.76,58.77,16.2,10.05,2.24,20.38,3.55,30.68,2.7,10.02-.83,19.25-4.42,28.79-7.3,4.5-1.36,9.08-2.49,13.76-2.95,4.4-.43,8.83-.12,13.24-.24,4.25-.12,8.64-.68,12.27-3.07,3.66-2.41,5.84-6.4,8.85-9.49,3.05-3.13,6.95-5.16,10.82-7.1,1.91-.96,3.83-1.91,5.67-3.01,1.69-1.01,3.99-2.25,4.92-4.08,1.16-2.3-1.19-4.51-2.54-6.13-1.74-2.09-3.47-4.18-5.21-6.27Z"/>
<path class="cls-1" d="M38.04,331.89c3.65,0,7.42-.89,10.98-1.63,3.7-.77,7.37-1.66,11.04-2.53,7.22-1.71,14.5-3.34,21.93-3.75,3.71-.21,7.43-.09,11.12,.42,3.85,.53,7.6,1.62,11.33,2.71,14.4,4.21,28.61,10.03,43.75,10.92,14.37,.85,28.63-3.57,41.25-10.22,12.29-6.48,23.24-15.16,33.58-24.37v-2.2c-4.39-5.28-8.71-10.64-13.31-15.74-.14-.15-.2-.31-.23-.48-.25,.18-.49,.37-.72,.56-.05,.15-.13,.29-.28,.41-9.48,7.73-19.33,15.27-30.76,19.89-10.46,4.23-22,5.44-33.16,3.92-11.65-1.58-22.66-5.88-34.04-8.59-21.88-5.22-43.8,1.54-65.74,2.75-.01,.03-.01,.06-.03,.09-.41,.87-1.02,1.63-1.73,2.28-.01,.21-.1,.42-.32,.61-8.78,7.41-21.15,10.43-28.28,19.77,1.13,.87,2.35,1.62,3.64,2.24,6.16,2.94,13.32,2.93,20,2.94Z"/>
<path class="cls-1" d="M110.19,251.38c11.01,.33,22.18,.76,33.01,2.87,8.77,1.71,19.91,4.61,27.33-1.97-3.43-2.08-6.31-4.93-8.55-8.27-4.71-7-6.38-15.5-6.26-23.82,.07-4.88,.69-9.73,1.5-14.53,.71-4.23,1.89-8.6,1.43-12.91-.24-.1-.44-.3-.51-.64-.74-3.46-3.29-5.91-5.75-8.27-2.42-2.33-4.87-4.71-6.2-7.86-2.65-6.32-.77-13.65,3.27-18.92,2.02-2.64,4.63-5.11,5.77-8.31,.61-1.71,.47-3.55,.99-5.28,.47-1.55,1.49-2.82,2.74-3.82,2.59-2.08,5.78-3.33,8.61-5.02,.28-.17,.55-.34,.82-.51,0,0,0-.02,0-.02,.03-.14,.09-.28,.16-.41,.01-.03,.03-.05,.05-.08,.06-.09,.13-.18,.2-.26,.09-.1,.21-.19,.32-.26,.12-.08,.26-.13,.38-.18,.06-.02,.11-.04,.17-.05,.14-.03,.29-.05,.43-.05,.04,0,.08,.01,.12,.01,.52-.41,1.03-.83,1.51-1.3,1.37-1.36,2.24-2.97,3.12-4.67,.8-1.56,1.75-2.95,2.92-4.26,1.19-1.33,2.52-2.56,3.53-4.04,1.8-2.64,2.03-6.07,.5-8.82-2.13,2.36-6.14,2.03-8.81,.37-4.17-2.59-5.81-7.35-6.41-11.98-.91,1.09-2.07,1.95-3.39,2.52-.04,.02-.07,.01-.11,.02,.01,2.24-.74,4.63-1.65,6.58-2.16,4.62-7.56,6.54-12.39,6.48-.28,0-.55-.02-.83-.04-1.58,2.87-2.44,6.05-3.37,9.18-1.16,3.89-2.32,7.79-3.42,11.7-2.23,7.89-4.27,15.85-5.8,23.91-.19,.98-1.71,.93-1.93,0-1.56-6.55-3.11-13.11-4.67-19.66-1.31-5.51-2.52-11.07-4.37-16.43-1.68-4.87-4.85-9.84-3.82-15.19,.28-1.48,1-3.06,.3-4.53-.45-.96-1.31-1.69-1.84-2.6-1.16-1.96-.74-4.12-.63-6.28,.07-1.25,.02-2.54-.9-3.49-.69-.73-1.68-1.09-2.63-1.32-2.21-.54-4.65-.48-6.93-.2,1.28,3.44,.74,7.45-1.66,10.32-2.63,3.15-7.15,4.34-11.03,3.13-.09-.03-.15-.08-.22-.12-.25,.3-.7,.42-1.1,.31-2.07,2.27-4.5,5.23-3.46,8.49,.9,2.83,4.18,3.05,6.63,3.65,2.51,.61,4.65,1.77,5.64,4.29,.57,1.46,.72,3.06,.97,4.59,.26,1.55,.56,3.1,.96,4.63,.77,2.97,1.93,5.76,3.75,8.25,1.74,2.39,3.7,4.54,4.73,7.37,1.02,2.81,1.19,5.86,1.25,8.82,.07,3.39,.09,6.77,.14,10.16,.04,3.1,.3,6.32-.32,9.38-.52,2.57-1.92,4.75-3.77,6.56-1.84,1.81-4.01,3.24-6,4.89-2.17,1.8-3.99,3.91-5.37,6.38-2.98,5.34-3.3,11.31-1.96,17.19,1.36,5.96,3.91,11.61,4.86,17.68,1.54,9.78-1.42,19.95-7.82,27.45,5.2-.87,10.49-.97,15.76-.81Z"/>
<path class="cls-1" d="M113.09,299.8c11.28,2.88,22.33,7.15,33.98,8.31,11.16,1.12,22.48-.6,32.7-5.28,9.81-4.49,18.44-11.07,26.77-17.84,.03-.06,.06-.12,.1-.17,.55-.64,1.26-1.11,1.93-1.61,.53-.39,.97-.81,1.27-1.35,.48-.87,.54-1.94,.22-2.87-.18-.07-.36-.2-.49-.4-3.89-6.01-9.37-10.87-15.8-14.03-.09-.05-.15-.11-.22-.17-6.43,3.51-11.93,8.59-18.31,12.2-7.29,4.13-15.56,5.69-23.82,6.44-9.1,.82-18.25,.73-27.36,.06-18.27-1.35-36.26-4.97-54.26-8.21-.43,.24-.85,.48-1.28,.72,0,.21-.08,.43-.27,.63-8.24,8.59-16.47,17.19-24.71,25.78,12.05-.55,23.94-2.83,35.93-4.05,11.32-1.15,22.54-.99,33.61,1.84Z"/>
<path class="cls-1" d="M154.4,280.73c4.29-.5,8.57-1.3,12.67-2.67,3.81-1.27,7.32-3.13,10.66-5.35,5.64-3.73,10.83-8.14,16.93-11.09-3.45-1.57-6.89-3.13-10.34-4.7-3.67-1.67-7.45-3.71-11.54-4.04-3.5,3.6-8.44,5.21-13.37,5.49-5.34,.31-10.62-.97-15.82-2.01-5.7-1.14-11.45-1.8-17.24-2.19-5.62-.38-11.26-.67-16.89-.81-5.72-.15-11.46,.01-17.07,1.25-.32,.07-.59,0-.79-.15-.08-.03-.15-.05-.22-.1-.05,.12-.13,.25-.24,.36-6.39,6.18-12.78,12.35-19.17,18.53,9.49,1.72,18.96,3.51,28.48,5,17.78,2.79,35.98,4.57,53.94,2.47Z"/>
<path d="M225.56,314.77c-1.75-2.1-3.5-4.21-5.25-6.31,.03-.03,.07-.06,.1-.08,.72-.62,1.44-1.25,2.16-1.88,.69-.6,1.71-1.24,2.22-2,.49-.73,.21-2.01,.21-2.86,0-1.24-.46-1.66-1.24-2.59-2.84-3.42-5.64-6.86-8.52-10.24-1.36-1.59-2.74-3.17-4.14-4.72-.09-.1-.19-.16-.29-.21,.36-.39,.68-.81,.9-1.3,.76-1.62,.74-3.51-.11-5.09-.14-.26-.4-.41-.69-.46-3.86-5.76-9.1-10.5-15.24-13.72,.54-.25,1.09-.5,1.64-.73,.69-.28,1.11-1.43,.24-1.83-4.37-1.99-8.75-3.97-13.12-5.96-3.95-1.79-7.92-3.84-12.35-3.97-.04,0-.06,.01-.09,.02-6.52-3.77-10.74-10.43-12.75-17.57-2.53-8.96-1.57-18.5-.03-27.55,.85-5,2.17-10.07,1.09-15.13,1.86-4.3,3.73-8.59,5.59-12.89,1.04-2.4,2.09-4.8,3.12-7.21,.84-1.97,1.67-4.03,1.62-6.21-.05-2.22-1.04-4.2-1.77-6.25-.81-2.29-1.13-4.68-1.07-7.1,.13-4.97,1.7-9.79,3.24-14.48,.06-.18,.06-.35,.02-.5,.07-.05,.14-.1,.21-.15,.1-.09,.17-.2,.21-.32,.06-.12,.09-.25,.09-.39,0-.07-.03-.15-.04-.22,.11-.11,.19-.24,.23-.39,.01-.09,.02-.18,.04-.27,0-.02,0-.04,0-.06,.86-.7,1.67-1.46,2.38-2.32,1.19-1.46,1.94-3.12,2.84-4.75,1.89-3.46,5.47-5.7,7.05-9.36,1.51-3.51,.79-7.54-1.55-10.49-.07-.09-.16-.16-.24-.21,1.77-4.18,3.36-8.44,4.66-12.79,.73-2.41,.91-4.63-.19-6.96-1.18-2.49-2.97-4.76-4.48-7.05-3.22-4.87-6.43-9.75-9.65-14.62-1.33-2.01-3.83-4.77-3.37-7.37,.38-2.15,2.47-3.67,3.21-5.7,.87-2.38,.21-5.41,1.96-7.44,.83-.96,1.88-1.69,2.72-2.64,.93-1.05,1.72-2.2,2.37-3.44,.44-.84-.28-1.59-1.13-1.47-3.44,.49-7.01,1.07-10.05,2.85-3.07,1.79-4.81,4.67-5.85,7.99-.54,1.73-.92,3.52-1.45,5.26-.46,1.54-1.74,3.39-1.27,5.04,.27,.96,.87,1.87,1.32,2.75,.52,1.02,1.03,2.03,1.55,3.05,.79,1.55,1.58,3.1,2.37,4.65-1.53-1.25-3.11-2.45-4.59-3.72-3.37-2.89-6.56-6.33-11.37-6.16-4.42,.15-8.47,2.89-10.09,7.01-.21,.52,.06,.9,.45,1.08-1.9,.96-4,1.28-6.11,.87-.56-.11-1.04,.15-1.23,.7-1.15,3.32-4.45,5.1-6.59,7.7-2.02,2.44-3.56,5.97-1.69,8.95,1.68,2.67,5.06,3.52,6.65,6.31,1.61,2.83,1.54,6.48,.17,9.39-1.6,3.39-4.6,5.8-7.88,7.47,.12-1.31,.54-2.56,.71-3.87,.14-1.11,.02-2.19-.51-3.19-.6-1.14-1.69-1.99-2.15-3.21-.84-2.26,.34-4.83-.21-7.17-1.35-5.68-9.76-4.94-14.01-4.27-.23,.04-.41,.17-.53,.34-3.95-3.57-7.53-8.04-9.29-12.99-1.19-3.35-.75-6.51,.35-9.81,1.11-3.32,2.34-6.6,3.44-9.93,2.16-6.53,4.11-13.13,5.84-19.78,.77-2.95,1.91-6.19,.81-9.2-1.04-2.86-3.32-5.38-5.12-7.79-4.56-6.08-9.42-11.93-14.57-17.52-.78-.85-1.98,.19-1.6,1.1-.61,0-1.2,.47-.93,1.2,1.37,3.61,2.56,7.13,2.68,11.02,.09,3.19,.37,6.07,2.91,8.28,1.21,1.06,2.37,1.87,2.95,3.43,.51,1.36,.94,2.43,2.21,3.24,.75,.48,1.27,.84,1.4,1.79,.11,.89-.24,1.76-.62,2.54-.88,1.82-1.97,3.55-2.94,5.32-3.74,6.86-7.26,13.84-10.54,20.93-.8,1.74-1.59,3.48-2.37,5.23-.75,1.7-1.55,3.42-1.74,5.29-.35,3.48,1.77,6.38,3.55,9.16,4.37,6.85,7.95,14.17,10.71,21.8,0,0-.02,.01-.03,.02-1.84,1.99-3.79,4.19-4.36,6.92-.49,2.35-.03,4.97,1.87,6.59,1.71,1.46,3.99,1.76,6.09,2.26,1.03,.24,2.1,.52,2.97,1.13,1.21,.85,1.66,2.23,1.94,3.62,.59,2.89,.91,5.8,1.76,8.64,.84,2.82,2.09,5.47,3.86,7.83,1.85,2.47,3.82,4.73,4.66,7.78,.83,3.04,.79,6.23,.83,9.35,.05,3.44,.09,6.89,.14,10.33,.04,3.08,.26,6.41-1.29,9.2-2.55,4.6-7.96,6.79-11.29,10.74-3.53,4.19-5.6,9.53-5.69,15.01-.1,6.08,2.09,11.85,3.86,17.57,1.93,6.24,2.93,12.46,1.54,18.93-1.32,6.14-4.36,11.81-8.83,16.23-.12,.11-.19,.24-.24,.36-.35-.21-.8-.23-1.17,.13-6.7,6.48-13.4,12.96-20.1,19.44-.08,.02-.16,.03-.23,.08-.64,.36-1.27,.72-1.91,1.08-.22,.12-.39,.36-.46,.6-.02,.06-.01,.14-.01,.21-.06,.04-.11,.06-.17,.11-8.82,9.2-17.63,18.4-26.45,27.6-.58,.61-.18,1.73,.71,1.71,.17,0,.34-.01,.52-.02-1.35,1.1-2.7,2.21-4.05,3.31-.29,.24-.34,.67-.23,1.03-8.63,5.77-18.96,9.15-25.2,17.93-.24,.33-.16,.95,.16,1.21,1.24,1.04,2.56,1.9,3.95,2.63-.45,.44-.92,.87-1.42,1.26-.43,.33-.88,.64-1.34,.93-.16,.1-.28,.26-.37,.43-3.89,2.51-7.45,5.51-10.5,9-1.24,1.42-2.88,3.21-2.58,5.26,.33,2.26,2.83,2.72,4.66,3.19,10.21,2.65,20.86,2.24,31.3,2.92,21.65,1.42,41.76,9.85,62.48,15.51,10.36,2.83,21.02,5,31.79,5.21,5.34,.11,10.69-.29,15.93-1.3,5.02-.96,9.9-2.54,14.75-4.13,4.89-1.6,9.79-3.23,14.85-4.26,4.8-.98,9.57-1.06,14.44-1.02,4.44,.03,9.06,.03,13.31-1.43,4.35-1.5,7.3-4.53,10.12-8.05,1.43-1.78,2.86-3.57,4.61-5.06,1.75-1.49,3.73-2.68,5.75-3.77,4.02-2.17,8.3-3.94,11.96-6.73,1.6-1.22,3.15-2.84,3.16-4.99,0-2.18-1.51-3.94-2.82-5.53-3.58-4.31-7.16-8.61-10.74-12.92Zm-59.69-165c-.15,2.2-.03,4.44,.45,6.6,.5,2.23,1.62,4.25,2.14,6.46,.57,2.47-.37,4.8-1.33,7.04-.98,2.27-1.97,4.53-2.95,6.8-1.73,3.99-3.46,7.98-5.19,11.97-2.28-4.35-6.97-7.1-9.73-11.19-4.15-6.14-2.19-14.18,2.13-19.64,2.05-2.6,4.43-5.05,5.64-8.19,.68-1.77,.58-3.62,1.07-5.42,.48-1.8,1.93-3,3.45-3.96,2.44-1.53,5.08-2.7,7.53-4.21-1.47,4.46-2.89,9.01-3.21,13.73Zm-3.85-90.89c-.56-1.15-.11-1.81,.31-2.89,.28-.72,.52-1.46,.73-2.21,.43-1.5,.78-3.02,1.22-4.51,.93-3.11,2.44-5.75,5.36-7.34,2.16-1.18,4.6-1.73,7.03-2.13-.34,.48-.7,.95-1.1,1.39-.81,.88-1.79,1.59-2.59,2.48-1.47,1.65-1.69,3.7-1.94,5.8-.14,1.14-.32,2.26-.9,3.27-.55,.96-1.3,1.79-1.89,2.73-1.25,1.98-1.32,4.1-.37,6.23,1.13,2.54,2.96,4.84,4.49,7.15,1.59,2.4,3.17,4.8,4.76,7.21,1.59,2.4,3.17,4.8,4.76,7.21,1.42,2.14,3.62,4.62,3.7,7.31,.05,1.57-.6,3.18-1.07,4.66-.47,1.49-.98,2.97-1.5,4.44-1.08,3-2.27,5.97-3.57,8.88-.1,.22-.1,.44-.06,.64-1.95,.86-4.99-.39-6.39-1.58-1.54-1.31-2.57-3-3.27-4.84,.04-.05,.08-.08,.11-.14,1.67-3.29,3.42-6.54,5-9.87,.79-1.66,.67-2.92,.04-4.63-.65-1.75-1.3-3.5-1.94-5.25,0-.09,.02-.17,.02-.26,.1-2.31-.62-4.6-1.72-6.61-.56-1.02-1.23-1.93-1.95-2.8,0-.07,0-.14,0-.21-.2-1.11-.75-2.15-1.51-2.97-.06-.07-.14-.1-.22-.15-.02-.11-.04-.22-.09-.34-1.81-3.56-3.69-7.09-5.43-10.68Zm6.9,41.14c-.15-.73-.28-1.46-.37-2.18-.08-.62-.6-.94-1.1-.95,.13-.23,.26-.46,.37-.71,.51-1.1,.8-2.26,1.14-3.42,.39-1.32,.94-2.5,1.63-3.69,.54-.93,1.05-1.85,1.46-2.81,.25,.69,.51,1.37,.76,2.06,.24,.64,.58,1.33,.65,2.02,.08,.84-.48,1.66-.84,2.38-1.23,2.43-2.46,4.86-3.7,7.29Zm-20.07-38.78c4.29-.23,7.13,3,10.12,5.57,3.24,2.78,7.06,5.15,9.57,8.68,1.25,1.75,2.21,3.81,2.39,5.98,.04,.48,.03,.95-.02,1.4,0,.03,0,.06,0,.1-.18,1.57-.82,2.98-1.64,4.4-1.18,2.05-1.96,4.02-2.64,6.28-.66,2.2-1.83,3.9-3.81,4.95-.62-2.08-2.26-3.64-4.16-4.7-2.45-1.36-5.46-2.12-8.2-1.23-1.23,.4-2.34,1.09-3.2,2.07-.15,.17-.36,.55-.59,.61,.23-.43,.19-.99-.35-1.31-1.87-1.09-3.56-2.61-3.67-4.92-.07-1.5,.43-2.95,1.09-4.32,.85,2.09,2.48,3.81,5.02,3.42,3.58-.55,5.5-4.76,6.23-7.88,.83-3.56,.32-7.43-2.08-10.3-2.62-3.13-6.78-3.65-10.62-3.45-.12,0-.22,.04-.32,.08-.03-.01-.05-.02-.08-.03-.18-.05-.35-.05-.53,0-.15,.05-.29,.1-.44,.15-.03,0-.05-.01-.08-.01,1.27-3.21,4.6-5.34,8-5.53Zm11.51,43.2c-.61,2.02-1.58,3.84-3.34,5.07-1.6,1.12-3.53,1.7-5.44,2.02-.82,.13-1.65,.19-2.46,.17-.18-.72-1.32-1.12-1.86-.3-.02,.03-.03,.06-.05,.09-2.46-.49-4.61-1.87-5.78-4.4-1.76-3.82,.13-8.37,3.88-10.06,.26,.02,.65,.22,.82,.25,.34,.07,.72,.09,1.07,0,.89-.23,1.31-1.05,1.94-1.62,1.6-1.47,3.94-1.64,5.96-1.09,1.95,.53,4.1,1.63,5.25,3.35,1.3,1.95,.65,4.45,.02,6.52Zm-37.47,6.39c6.07-2.83,11.47-8.53,10.6-15.7-.4-3.28-2.04-5.89-4.72-7.79-1.35-.96-3.03-1.86-3.65-3.5-.72-1.89,.3-3.95,1.43-5.46,2.19-2.93,5.48-4.76,7.04-8.13,2.45,.3,4.85-.14,7.05-1.34,.04-.02,.07-.06,.1-.09,.09-.03,.18-.06,.28-.09,.13,.02,.26,.02,.39-.02,.17-.06,.33-.11,.49-.17,.02,0,.04-.02,.06-.03,.1,.03,.21,.06,.34,.05,2.85-.15,6.05-.03,8.31,1.94,2.11,1.84,2.94,4.69,2.75,7.42-.18,2.63-1.26,6.04-3.48,7.67-2.72,2-4.56-1.1-4.8-3.54-.09-.93-1.33-1.43-1.86-.5-1.42,2.49-2.91,5.33-2.49,8.29,.32,2.32,1.84,4.04,3.69,5.32-.09,.04-.18,.07-.28,.13-.09,.05-.14,.12-.2,.19-3.57,1.95-5.77,5.96-5.04,10.09,.69,3.97,3.64,6.72,7.28,7.71-1.34,2.63-2.18,5.49-3.03,8.32-1.19,3.97-2.37,7.94-3.5,11.93-1.88,6.62-3.61,13.29-5.04,20.03-1.12-4.7-2.23-9.4-3.35-14.1-1.4-5.91-2.67-11.89-4.65-17.64-.96-2.79-2.27-5.45-3.19-8.25-.29-.89-.52-1.8-.66-2.72,.05-.02,.1-.01,.15-.04Zm-36.87-29.92c-.92-1.55-1.88-3.05-2.85-4.57-.95-1.47-1.93-3.02-2.26-4.77-.38-2.02,.42-3.94,1.21-5.75,.83-1.9,1.69-3.78,2.56-5.66,3.28-7.09,6.8-14.07,10.54-20.93,.9-1.65,1.86-3.27,2.74-4.94,.74-1.4,1.34-2.94,1.01-4.55-.29-1.46-1.16-2.11-2.31-2.91-1.3-.9-1.32-2.68-2.21-3.92-.99-1.37-2.55-2.15-3.59-3.46-1.21-1.53-1.22-3.59-1.27-5.45-.11-3.9-1.1-7.41-2.41-11.02,4.23,4.67,8.29,9.5,12.11,14.52,1.91,2.51,4.19,5.09,5.6,7.92,1.59,3.2-.01,7.02-.86,10.23-1.76,6.65-3.74,13.24-5.93,19.76-1.09,3.23-2.37,6.42-3.34,9.69-.9,3.03-1.15,6.1-.2,9.14,2,6.39,6.98,12.15,12.12,16.28h0c.59,2.56,.03,5.39-1.76,7.39-2.2,2.46-5.73,3.31-8.85,2.34-.37-.12-.67,0-.89,.2-2.43-6.79-5.47-13.35-9.15-19.55Zm16.22,143.81c-.96-6.06-3.5-11.71-4.86-17.68-1.34-5.88-1.02-11.85,1.96-17.19,1.38-2.46,3.2-4.58,5.37-6.38,1.98-1.65,4.15-3.08,6-4.89,1.85-1.82,3.25-4,3.77-6.56,.62-3.06,.36-6.28,.32-9.38-.05-3.39-.07-6.77-.14-10.16-.06-2.96-.23-6.01-1.25-8.82-1.03-2.83-2.98-4.98-4.73-7.37-1.81-2.49-2.98-5.28-3.75-8.25-.4-1.53-.7-3.08-.96-4.63-.26-1.54-.4-3.13-.97-4.59-.98-2.52-3.13-3.68-5.64-4.29-2.45-.6-5.72-.82-6.63-3.65-1.04-3.26,1.39-6.22,3.46-8.49,.4,.11,.85-.02,1.1-.31,.07,.04,.13,.09,.22,.12,3.88,1.21,8.39,.02,11.03-3.13,2.4-2.87,2.94-6.88,1.66-10.32,2.29-.28,4.72-.34,6.93,.2,.96,.23,1.94,.6,2.63,1.32,.91,.96,.96,2.24,.9,3.49-.12,2.15-.53,4.31,.63,6.28,.54,.91,1.39,1.64,1.84,2.6,.69,1.47-.02,3.05-.3,4.53-1.02,5.35,2.15,10.31,3.82,15.19,1.85,5.36,3.06,10.92,4.37,16.43,1.56,6.55,3.11,13.11,4.67,19.66,.22,.93,1.74,.98,1.93,0,1.54-8.06,3.57-16.01,5.8-23.91,1.11-3.91,2.26-7.81,3.42-11.7,.93-3.13,1.79-6.32,3.37-9.18,.27,.02,.55,.04,.83,.04,4.82,.06,10.23-1.86,12.39-6.48,.91-1.95,1.66-4.35,1.65-6.58,.04-.01,.07,0,.11-.02,1.32-.56,2.48-1.43,3.39-2.52,.6,4.63,2.24,9.39,6.41,11.98,2.66,1.65,6.68,1.98,8.81-.37,1.53,2.76,1.3,6.18-.5,8.82-1.01,1.48-2.34,2.71-3.53,4.04-1.17,1.31-2.11,2.7-2.92,4.26-.88,1.7-1.75,3.31-3.12,4.67-.47,.47-.98,.9-1.51,1.3-.04,0-.08-.01-.12-.01-.14,0-.29,.03-.43,.05-.06,.01-.12,.03-.17,.05-.13,.05-.27,.1-.38,.18-.11,.08-.23,.16-.32,.26-.07,.08-.14,.17-.2,.26-.02,.02-.03,.05-.05,.08-.06,.13-.13,.27-.16,.41,0,0,0,.02,0,.02-.27,.17-.54,.34-.82,.51-2.84,1.69-6.02,2.94-8.61,5.02-1.25,1-2.27,2.27-2.74,3.82-.53,1.72-.39,3.57-.99,5.28-1.14,3.2-3.74,5.67-5.77,8.31-4.04,5.27-5.92,12.6-3.27,18.92,1.32,3.15,3.78,5.53,6.2,7.86,2.46,2.36,5.01,4.81,5.75,8.27,.07,.34,.27,.54,.51,.64,.47,4.31-.72,8.68-1.43,12.91-.81,4.8-1.44,9.66-1.5,14.53-.11,8.32,1.55,16.82,6.26,23.82,2.24,3.33,5.12,6.18,8.55,8.27-7.42,6.58-18.56,3.68-27.33,1.97-10.83-2.11-22-2.54-33.01-2.87-5.27-.16-10.56-.06-15.76,.81,6.4-7.49,9.36-17.67,7.82-27.45Zm-11.1,29.98c.12-.11,.2-.23,.24-.36,.07,.04,.15,.07,.22,.1,.21,.15,.48,.22,.79,.15,5.61-1.23,11.35-1.4,17.07-1.25,5.63,.15,11.27,.43,16.89,.81,5.79,.4,11.55,1.05,17.24,2.19,5.19,1.04,10.48,2.32,15.82,2.01,4.93-.29,9.87-1.89,13.37-5.49,4.09,.33,7.86,2.37,11.54,4.04,3.45,1.57,6.89,3.13,10.34,4.7-6.1,2.95-11.29,7.35-16.93,11.09-3.34,2.21-6.85,4.07-10.66,5.35-4.1,1.37-8.38,2.17-12.67,2.67-17.96,2.1-36.16,.32-53.94-2.47-9.52-1.49-19-3.29-28.48-5,6.39-6.18,12.78-12.35,19.17-18.53Zm-22.88,21.51c.19-.2,.26-.42,.27-.63,.43-.24,.85-.48,1.28-.72,18,3.24,36,6.85,54.26,8.21,9.1,.67,18.26,.77,27.36-.06,8.26-.75,16.53-2.31,23.82-6.44,6.38-3.62,11.88-8.69,18.31-12.2,.07,.06,.12,.12,.22,.17,6.43,3.16,11.9,8.01,15.8,14.03,.13,.21,.3,.33,.49,.4,.32,.93,.26,2-.22,2.87-.3,.54-.75,.96-1.27,1.35-.67,.5-1.38,.98-1.93,1.61-.05,.05-.07,.11-.1,.17-8.33,6.77-16.96,13.35-26.77,17.84-10.22,4.68-21.54,6.4-32.7,5.28-11.66-1.17-22.7-5.43-33.98-8.31-11.07-2.83-22.29-2.99-33.61-1.84-11.99,1.22-23.87,3.51-35.93,4.05,8.24-8.59,16.47-17.19,24.71-25.78Zm-53.86,50.49c7.13-9.34,19.5-12.36,28.28-19.77,.22-.18,.3-.4,.32-.61,.71-.64,1.32-1.41,1.73-2.28,.01-.03,.02-.06,.03-.09,21.94-1.21,43.86-7.97,65.74-2.75,11.39,2.72,22.4,7.01,34.04,8.59,11.16,1.51,22.7,.31,33.16-3.92,11.42-4.62,21.28-12.16,30.76-19.89,.16-.13,.24-.27,.28-.41,.23-.2,.48-.38,.72-.56,.03,.16,.1,.32,.23,.48,4.6,5.11,8.92,10.46,13.31,15.74v2.2c-10.33,9.22-21.29,17.89-33.58,24.37-12.61,6.65-26.87,11.06-41.25,10.22-15.14-.89-29.35-6.71-43.75-10.92-3.73-1.09-7.48-2.18-11.33-2.71-3.68-.51-7.41-.63-11.12-.42-7.43,.41-14.71,2.04-21.93,3.75-3.67,.87-7.34,1.77-11.04,2.53-3.57,.74-7.33,1.63-10.98,1.63-6.68,0-13.84,0-20-2.94-1.29-.62-2.51-1.37-3.64-2.24Zm222.39,7.76c-.92,1.83-3.22,3.07-4.92,4.08-1.84,1.1-3.76,2.05-5.67,3.01-3.86,1.94-7.76,3.97-10.82,7.1-3.01,3.08-5.19,7.08-8.85,9.49-3.63,2.39-8.02,2.95-12.27,3.07-4.41,.13-8.84-.19-13.24,.24-4.68,.46-9.26,1.59-13.76,2.95-9.53,2.88-18.77,6.47-28.79,7.3-10.3,.85-20.63-.46-30.68-2.7-19.85-4.44-38.7-12.63-58.77-16.2-9.9-1.76-19.85-1.7-29.85-2.38-5.08-.34-10.16-.97-15.07-2.36-1.08-.31-2.43-.57-1.99-2.01,.35-1.14,1.29-2.08,2.06-2.96,1.52-1.72,3.16-3.34,4.91-4.82,1.79-1.53,3.71-2.9,5.71-4.15,.18-.11,.29-.26,.36-.42,1-.69,1.94-1.46,2.79-2.33,.07-.07,.12-.17,.17-.26,4.73,2,10.03,2.58,15.21,2.72,1.88,.05,3.81,.15,5.69,.05,2.09-.11,4.22-.53,6.28-.88,4.15-.72,8.25-1.67,12.34-2.64,8.31-1.97,16.67-4.07,25.24-4.43,4.35-.18,8.83,0,13.09,.97,4.25,.96,8.44,2.25,12.6,3.54,16.04,4.99,32.74,11.38,49.86,9.39,15.64-1.82,30.25-8.34,43.25-17.02,5.97-3.99,11.64-8.43,17.12-13.07l10.25,12.33c1.74,2.09,3.47,4.18,5.21,6.27,1.35,1.62,3.69,3.84,2.54,6.13Z"/></g></g></svg>
