<svg id="Carré" xmlns="http://www.w3.org/2000/svg" viewBox="0 0 279.35 283.51">
<g id="Calque_4"><g>
<path class="cls-1" d="M236.89,206.31c12.8-22.37,25.25-44.94,37.33-67.7,.18-.34,.46-.47,.75-.48,0,0,0-.01,0-.02-.22-.05-.43-.19-.58-.46-3.44-6.28-6.95-12.52-10.52-18.73-12.6-21.89-26.04-43.3-40.24-64.18-.05,0-.09,.01-.14,.02,.24,.22,.4,.53,.33,.93l-3.13,18.95c-3.7,22.39-7.4,44.78-11.09,67.18-.02,.1-.06,.16-.09,.24,.06,.09,.11,.19,.14,.31,1.36,6.06,2.7,12.12,4.03,18.19,4.59,21.02,8.97,42.08,13.14,63.18,3.38-5.79,6.74-11.6,10.08-17.42Z"/>
<path class="cls-1" d="M269.22,9.44c-15.14,14.13-29.93,28.65-44.48,43.38,0,0,0,0,0,.01,4.03,5.92,8.01,11.87,11.92,17.87,13.54,20.79,26.3,42.08,38.27,63.81-.08-8.17-.15-16.34-.19-24.51-.18-35.57,.07-71.16,1.12-106.72-2.22,2.04-4.44,4.1-6.64,6.16Z"/>
<path class="cls-1" d="M55.93,53.38c5.42,1,10.84,2.01,16.26,3.04,22.11,4.2,44.17,8.64,66.18,13.3,.07-.04,.13-.08,.21-.1,6.2-1.53,12.41-3,18.64-4.4,21.35-4.81,42.86-8.87,64.48-12.2,.25-.26,.51-.51,.76-.76-5.5-3.61-11.03-7.19-16.58-10.73-20.55-13.09-41.45-25.62-62.66-37.6-.27-.15-.41-.37-.46-.6-6.33,4.02-12.7,7.99-19.1,11.89-22.14,13.48-44.74,26.2-67.74,38.16Z"/>
<path class="cls-1" d="M162.29,12.57c20.87,12.2,41.42,24.96,61.62,38.25,16.4-16.58,33.09-32.88,50.25-48.67-18.91-.08-37.82-.14-56.73-.14-24.41-.01-48.82,.07-73.22,.19,.01,0,.03,0,.04,.01,6.04,3.41,12.06,6.87,18.05,10.37Z"/>
<path class="cls-1" d="M116.18,164.79c7.5-8.01,14.98-16.05,22.45-24.09-9.56-9.26-19.12-18.52-28.66-27.8-18.04-17.54-35.99-35.16-53.67-53.05-.7-.71-1.39-1.43-2.09-2.13,.56,5.76,1.2,11.51,1.94,17.25,2.9,22.31,7.27,44.43,13.01,66.18,.12,.45-.06,.8-.35,1.02-1.77,6.05-3.4,12.14-4.88,18.27-5.49,22.76-8.93,45.98-10.3,69.35,3.37-3.36,6.73-6.73,10.07-10.12,17.77-18.03,35.19-36.39,52.48-54.87Z"/>
<path class="cls-1" d="M6.32,143.24c-.09,.15-.21,.27-.36,.36-.08,.03-.16,.07-.24,.1-.18,.05-.35,.05-.53,0-.04-.02-.09-.04-.13-.06,3.67,6.06,7.29,12.15,10.86,18.27,12.6,21.61,24.54,43.6,35.83,65.92,.38-5.98,.88-11.96,1.53-17.92,2.55-23.32,7.16-46.4,13.78-68.91-1.58-6.02-3.06-12.06-4.43-18.14-4.83-21.44-8.29-43.17-10.41-65.04-3.13,5.76-6.25,11.52-9.38,17.28-12.02,22.15-24.05,44.3-36.07,66.45,.02,.04,.05,.07,.06,.11,.04,.13,.05,.27,.02,.4,0,.13-.05,.26-.12,.37l-.4,.81Z"/>
<path class="cls-1" d="M224.7,223.31c-1.06-5.35-2.13-10.7-3.22-16.05-4.37-21.5-8.96-42.96-13.76-64.37-.07-.32,0-.59,.16-.8-.17-.21-.26-.49-.21-.81,1.04-6.32,2.09-12.63,3.13-18.95,3.66-22.17,7.32-44.34,10.98-66.51-2.23,2.27-4.47,4.53-6.7,6.81-17.67,18.13-35.03,36.56-52.3,55.07-7.12,7.64-14.23,15.29-21.34,22.93,10.12,9.81,20.23,19.63,30.3,29.5,17.86,17.52,35.59,35.18,52.96,53.18Z"/>
<path class="cls-1" d="M167.81,109.39c17-18.17,34.11-36.23,51.55-53.98-4.65,.73-9.29,1.48-13.93,2.28-22.02,3.79-43.9,8.36-65.6,13.7-.21,.34-.58,.57-1.07,.47-6.31-1.34-12.62-2.66-18.93-3.96-21.73-4.47-43.51-8.72-65.33-12.75,3.22,3.27,6.44,6.55,9.68,9.8,17.74,17.84,35.74,35.41,53.8,52.94,7.34,7.12,14.69,14.24,22.03,21.36,9.26-9.96,18.52-19.91,27.81-29.84Z"/>
<path class="cls-1" d="M143.32,2.19s-.06,0-.09,0c0,.01,0,.03,.01,.04,.03-.02,.05-.03,.08-.05Z"/>
<path class="cls-1" d="M277.28,276.75c-.37-19.85-.73-39.7-1.1-59.55-.46-25.27-.9-50.55-1.18-75.83-3.11,5.84-6.23,11.68-9.39,17.5-12.29,22.65-24.94,45.11-37.94,67.36-.03,.04-.06,.07-.09,.1,16.54,17.21,32.76,34.73,48.45,52.71,.11,.12,.18,.25,.22,.38,.22,0,.44,0,.65,0-.06-.19-.08-.39-.04-.59,.14-.7,.28-1.39,.42-2.09Z"/>
<path class="cls-1" d="M226.06,227.64c-6.24,4.23-12.51,8.41-18.82,12.53-21.49,14.02-43.42,27.36-65.74,40.02,9.53-.05,19.06-.11,28.6-.16,34.54-.19,69.09-.39,103.63-.58-1.71-1.96-3.43-3.92-5.16-5.87-13.83-15.63-28.05-30.9-42.51-45.94Z"/>
<path class="cls-1" d="M53.41,232.83c-16.17,16.11-32.65,31.9-49.6,47.19-.14,.13-.29,.19-.44,.23-.02,0-.03,.02-.05,.02l-.27,.04c-.18,0-.35-.05-.5-.14-.07-.05-.13-.1-.2-.16-.1-.09-.17-.2-.21-.32-.06-.12-.09-.25-.09-.39,0-.14,.02-.27,.09-.39,.04-.12,.11-.23,.21-.32,.17-.17,.35-.35,.52-.52,.1-.1,.22-.17,.35-.22,1.99-1.8,3.98-3.6,5.96-5.42,14.5-13.29,28.67-26.93,42.6-40.81-.01-.06-.03-.13-.03-.19-.26-.03-.51-.17-.67-.49-3.26-6.48-6.58-12.93-9.95-19.36-11.46-21.83-23.57-43.3-36.29-64.42-.1,8.2-.2,16.39-.33,24.59-.55,36.06-1.39,72.12-2.51,108.16,0,.06-.03,.1-.04,.15,.11,.05,.21,.11,.29,.19,.25,.25,.51,.5,.76,.74,.06-.01,.12-.04,.19-.04,20.06-.11,40.12-.23,60.19-.34,23.28-.13,46.55-.26,69.83-.39-5.02-2.77-10.02-5.55-15-8.38-21.94-12.44-43.55-25.46-64.81-39.02Z"/>
<path class="cls-1" d="M223.58,226.89c-6.02-.98-12.03-1.98-18.04-3.01-21.85-3.74-43.64-7.8-65.38-12.16-1.26-.25-.73-2.18,.53-1.93,6.16,1.24,12.33,2.45,18.5,3.64,21.33,4.1,42.72,7.9,64.15,11.41-2.07-2.14-4.12-4.29-6.2-6.43-17.54-18.02-35.41-35.71-53.4-53.29-7.88-7.7-15.78-15.36-23.69-23.03-9.62,10.35-19.25,20.68-28.93,30.98-17.27,18.38-34.69,36.63-52.48,54.51-.61,.62-1.23,1.23-1.85,1.84,5.04-1.87,10.18-3.47,15.38-4.84,21.82-5.74,44.46-7.95,66-14.84,1.23-.39,1.75,1.54,.53,1.93-6.1,1.95-12.3,3.54-18.54,4.93-21.54,4.79-43.73,7.36-64.43,15.34,5.41,3.45,10.84,6.86,16.3,10.24,21.42,13.24,43.18,25.91,65.26,38.02,.03,0,.05,0,.08,0,6.51-3.67,12.99-7.39,19.44-11.18,22.69-13.33,44.95-27.39,66.74-42.14Z"/>
<path class="cls-1" d="M4.91,140.79c3.34-6.15,6.68-12.3,10.02-18.46,12.18-22.44,24.36-44.88,36.54-67.32,.01-.02,.03-.03,.05-.06C35.64,38.78,19.99,22.37,4.76,5.58c.62,19.32,.57,38.66,.57,57.99,0,25.74-.14,51.48-.42,77.22Z"/>
<path class="cls-1" d="M11.96,10.51c13.22,14.4,26.73,28.53,40.42,42.48,.01,0,.02-.02,.03-.03,6.68-3.45,13.32-6.96,19.93-10.54,23.28-12.61,46.11-26.03,68.47-40.22-9.86,.05-19.72,.09-29.58,.16-35.24,.26-70.48,.65-105.72,1.17,.09,.05,.18,.1,.27,.19,2.05,2.27,4.11,4.53,6.18,6.78Z"/>
<path d="M277.38,169.92c-.54-35.73-.87-71.47-.6-107.21,.15-20.16,.5-40.31,1.11-60.46,0-.1-.03-.17-.04-.26,.72-.45,.56-1.84-.52-1.85C241.75-.01,206.17-.04,170.59,.06c-35.4,.1-70.8,.35-106.2,.72-19.97,.21-39.94,.47-59.9,.77-.52,0-.82,.34-.92,.73-.47,.03-.9,.34-.88,.95,.63,17.9,.62,35.81,.64,53.71,.02,18.03-.03,36.06-.15,54.1-.24,36.06-.76,72.13-1.56,108.18C1.17,239.45,.63,259.69,0,279.92c-.01,.47,.25,.77,.58,.89,0,.05-.03,.1-.03,.16,.01,.26,.1,.52,.29,.71,.52,.51,1.05,1.03,1.57,1.54,.18,.18,.45,.29,.71,.29,.25,0,.54-.11,.71-.29,.07-.07,.12-.16,.17-.26,35.48-.2,70.96-.4,106.45-.6,8.79-.05,17.57-.1,26.36-.15,.02,.01,.04,.02,.06,.03,.05,.03,.1,.03,.16,.05,.05,.02,.1,.04,.16,.05,.06,.01,.11,.02,.17,.02,.09,0,.17-.01,.26-.04,.03,0,.05-.01,.07-.02,.06-.02,.12-.02,.19-.06,.02-.01,.04-.02,.06-.04l79.2-.45c20.06-.11,40.12-.23,60.19-.34,.82,0,1.12-.82,.88-1.41,.04-.02,.08-.02,.12-.04,.21-.14,.41-.34,.46-.6,.08-.4,.16-.79,.24-1.19,.16-.16,.27-.38,.27-.68,0-.2,0-.39-.01-.59,.01-.07,.03-.13,.04-.2,.04-.22,.02-.43-.06-.63-.65-35.39-1.35-70.77-1.89-106.16ZM6.83,141.66s-.04-.07-.06-.11c12.02-22.15,24.05-44.3,36.07-66.45,3.13-5.76,6.25-11.52,9.38-17.28,2.12,21.87,5.58,43.61,10.41,65.04,1.37,6.07,2.85,12.12,4.43,18.14-6.62,22.51-11.23,45.59-13.78,68.91-.65,5.96-1.15,11.94-1.53,17.92-11.29-22.32-23.23-44.31-35.83-65.92-3.57-6.12-7.19-12.21-10.86-18.27,.04,.02,.09,.04,.13,.06,.18,.05,.35,.05,.53,0,.08-.03,.16-.07,.24-.1,.15-.09,.27-.21,.36-.36l.4-.81c.07-.11,.11-.24,.12-.37,.03-.13,.02-.27-.02-.4Zm57.1,18.76c1.48-6.13,3.11-12.22,4.88-18.27,.29-.21,.47-.56,.35-1.02-5.74-21.75-10.11-43.87-13.01-66.18-.75-5.74-1.38-11.49-1.94-17.25,.7,.71,1.39,1.43,2.09,2.13,17.68,17.9,35.64,35.52,53.67,53.05,9.54,9.28,19.11,18.54,28.66,27.8-7.48,8.04-14.95,16.07-22.45,24.09-17.3,18.48-34.72,36.84-52.48,54.87-3.34,3.39-6.71,6.75-10.07,10.12,1.37-23.37,4.81-46.6,10.3-69.35Zm54.04-42.55c-18.05-17.52-36.05-35.1-53.8-52.94-3.24-3.26-6.46-6.53-9.68-9.8,21.82,4.03,43.6,8.28,65.33,12.75,6.32,1.3,12.63,2.62,18.93,3.96,.49,.1,.87-.13,1.07-.47,21.7-5.33,43.58-9.91,65.6-13.7,4.64-.8,9.28-1.55,13.93-2.28-17.44,17.75-34.55,35.82-51.55,53.98-9.29,9.93-18.55,19.89-27.81,29.84-7.34-7.12-14.69-14.23-22.03-21.36Zm44.81-.18c17.27-18.51,34.63-36.94,52.3-55.07,2.22-2.28,4.46-4.54,6.7-6.81-3.66,22.17-7.32,44.34-10.98,66.51-1.04,6.32-2.09,12.63-3.13,18.95-.05,.33,.04,.6,.21,.81-.15,.21-.23,.48-.16,.8,4.8,21.41,9.39,42.87,13.76,64.37,1.09,5.35,2.16,10.7,3.22,16.05-17.38-18-35.1-35.67-52.96-53.18-10.07-9.87-20.18-19.69-30.3-29.5,7.11-7.65,14.22-15.3,21.34-22.93Zm50.89,42.86c-1.32-6.07-2.67-12.13-4.03-18.19-.03-.13-.08-.22-.14-.31,.03-.08,.08-.14,.09-.24,3.7-22.39,7.4-44.78,11.09-67.18l3.13-18.95c.07-.4-.09-.71-.33-.93,.05,0,.09-.01,.14-.02,14.21,20.88,27.64,42.29,40.24,64.18,3.57,6.21,7.08,12.45,10.52,18.73,.15,.27,.36,.41,.58,.46,0,0,0,.01,0,.02-.29,.01-.57,.14-.75,.48-12.08,22.76-24.53,45.33-37.33,67.7-3.33,5.82-6.7,11.62-10.08,17.42-4.18-21.1-8.56-42.16-13.14-63.18Zm61.07-50.56c.04,8.17,.11,16.34,.19,24.51-11.97-21.73-24.73-43.02-38.27-63.81-3.91-6-7.88-11.96-11.92-17.87,0,0,0,0,0-.01,14.56-14.74,29.34-29.25,44.48-43.38,2.21-2.06,4.42-4.11,6.64-6.16-1.05,35.56-1.3,71.14-1.12,106.72ZM217.42,2c18.91,0,37.82,.06,56.73,.14-17.16,15.8-33.85,32.09-50.25,48.67-20.2-13.28-40.75-26.04-61.62-38.25-5.99-3.5-12-6.96-18.05-10.37-.01,0-.03,0-.04-.01,24.41-.12,48.82-.2,73.22-.19Zm-74.1,.19s-.05,.03-.08,.05c0-.02,0-.03-.01-.04,.03,0,.06,0,.09,0Zm-.09,1.74c21.21,11.98,42.11,24.52,62.66,37.6,5.55,3.54,11.08,7.12,16.58,10.73-.25,.26-.51,.51-.76,.76-21.63,3.32-43.14,7.38-64.48,12.2-6.23,1.4-12.44,2.87-18.64,4.4-.09,.02-.14,.07-.21,.1-22.01-4.66-44.08-9.1-66.18-13.3-5.42-1.03-10.84-2.04-16.26-3.04,23-11.96,45.6-24.68,67.74-38.16,6.41-3.9,12.77-7.87,19.1-11.89,.05,.23,.19,.45,.46,.6Zm-32.01-1.56c9.86-.07,19.72-.11,29.58-.16-22.35,14.18-45.19,27.61-68.47,40.22-6.61,3.58-13.25,7.09-19.93,10.54-.01,0-.02,.02-.03,.03C38.69,39.04,25.17,24.91,11.96,10.51c-2.07-2.25-4.13-4.51-6.18-6.78-.08-.09-.17-.14-.27-.19,35.24-.52,70.48-.92,105.72-1.17ZM51.52,54.96s-.03,.03-.05,.06c-12.18,22.44-24.36,44.88-36.54,67.32-3.34,6.15-6.68,12.3-10.02,18.46,.28-25.74,.43-51.48,.42-77.22,0-19.33,.05-38.67-.57-57.99,15.23,16.79,30.88,33.2,46.76,49.38Zm11.88,225.67c-20.06,.11-40.12,.23-60.19,.34-.07,0-.12,.03-.19,.04-.25-.25-.51-.5-.76-.74-.08-.08-.19-.14-.29-.19,0-.05,.03-.09,.04-.15,1.12-36.05,1.95-72.1,2.51-108.16,.13-8.2,.23-16.39,.33-24.59,12.72,21.12,24.83,42.59,36.29,64.42,3.37,6.42,6.69,12.88,9.95,19.36,.16,.32,.41,.46,.67,.49,0,.06,.01,.13,.03,.19-13.93,13.88-28.1,27.53-42.6,40.81-1.98,1.81-3.97,3.62-5.96,5.42-.13,.05-.25,.12-.35,.22-.17,.17-.35,.35-.52,.52-.1,.09-.17,.2-.21,.32-.06,.12-.09,.25-.09,.39,0,.14,.02,.27,.09,.39,.04,.12,.11,.23,.21,.32,.07,.05,.13,.1,.2,.16,.16,.09,.32,.14,.5,.14l.27-.04s.03-.01,.05-.02c.15-.04,.3-.1,.44-.23,16.95-15.29,33.43-31.08,49.6-47.19,21.26,13.57,42.87,26.59,64.81,39.02,4.98,2.82,9.99,5.61,15,8.38-23.28,.13-46.55,.26-69.83,.39Zm74.01-.42s-.05,0-.08,0c-22.08-12.1-43.85-24.78-65.26-38.02-5.46-3.37-10.89-6.79-16.3-10.24,20.7-7.98,42.89-10.55,64.43-15.34,6.24-1.39,12.45-2.98,18.54-4.93,1.22-.39,.7-2.32-.53-1.93-21.54,6.89-44.18,9.1-66,14.84-5.2,1.37-10.34,2.96-15.38,4.84,.61-.62,1.23-1.23,1.85-1.84,17.79-17.88,35.21-36.12,52.48-54.51,9.67-10.3,19.3-20.64,28.93-30.98,7.91,7.67,15.81,15.33,23.69,23.03,17.99,17.57,35.86,35.27,53.4,53.29,2.08,2.13,4.13,4.28,6.2,6.43-21.44-3.51-42.82-7.3-64.15-11.41-6.17-1.19-12.34-2.4-18.5-3.64-1.26-.25-1.79,1.68-.53,1.93,21.73,4.36,43.53,8.42,65.38,12.16,6.01,1.03,12.02,2.03,18.04,3.01-21.8,14.74-44.05,28.81-66.74,42.14-6.45,3.79-12.93,7.51-19.44,11.18Zm32.68-.18c-9.53,.05-19.06,.11-28.6,.16,22.32-12.66,44.25-26,65.74-40.02,6.31-4.12,12.58-8.3,18.82-12.53,14.46,15.04,28.68,30.31,42.51,45.94,1.73,1.95,3.44,3.91,5.16,5.87-34.54,.19-69.09,.39-103.63,.58Zm106.82-.6c-.22,0-.44,0-.65,0-.04-.13-.11-.26-.22-.38-15.69-17.99-31.91-35.51-48.45-52.71,.03-.04,.07-.06,.09-.1,13-22.25,25.65-44.7,37.94-67.36,3.16-5.82,6.28-11.65,9.39-17.5,.28,25.28,.72,50.55,1.18,75.83,.36,19.85,.73,39.7,1.1,59.55-.14,.7-.28,1.39-.42,2.09-.04,.2-.02,.4,.04,.59Z"/></g></g></svg>
