<svg id="Calque_2" xmlns="http://www.w3.org/2000/svg" viewBox="0 0 113.77 318.13">
  <g id="Calque_4"><g>
    <path class="cls-1" d="M96.58,117.41c3.71-19.85,6.44-40.75-.02-60.34-2.74-8.31-7.09-16.18-13.27-22.42-5.9-5.96-13.38-10.02-21.61-11.66-7.9-1.57-16.46-.81-23.6,3.07-6.4,3.48-10.92,9.24-12.96,16.22-1.87,6.39-1.73,13.6,1.1,19.7,2.79,6.01,8.24,10.72,14.98,11.38,11.93,1.17,26.79-9.36,23.77-22.43-.29-.92-.58-1.84-.87-2.76-1.51-2.78-3.46-5.29-5.8-7.44-2.35-.63-4.84-.67-7.21,.08-3.6,1.14-6.65,3.85-8.39,7.18-.85,1.64-1.35,3.5-1.39,5.36,1.73-2.35,3.46-4.69,5.19-7.04,.3-.4,.78-.6,1.25-.4,1.97-1.12,4.31-1.34,6.58-.68,5.97,1.73,11.13,8.77,7.78,14.83-3.21,5.82-11.31,6.37-16.69,3.51-6.95-3.68-7.63-12.39-3.31-18.43,2.29-3.2,5.7-5.69,9.58-6.56,2.28-.51,4.63-.4,6.88,.16,.23-.02,.45,.04,.66,.16,1.43,.42,2.81,1.03,4.09,1.8,7.55,4.54,11.09,13.42,9.6,21.96-.27,1.53-.68,3.02-1.22,4.47,.15,.08,.28,.18,.39,.35,7.4,11.88,6.96,26.67,3.51,39.77-3.22,12.22-9.2,23.45-13.97,35.09-.7,7.79,.88,15.54,3.44,22.89,2.45,7.04,5.77,13.74,8.85,20.52,3.02,6.66,5.69,13.47,8.01,20.41,4.59,13.76,7.87,27.9,10.8,42.09,.09,.12,.15,.25,.2,.39,.02,.07,.01,.14,.01,.22,1.67-7.67,2.95-15.43,3.51-23.27,.94-13.3-.24-26.81-4.89-39.37-2.18-5.89-5.13-11.52-8.85-16.59-3.39-4.61-8.69-8.69-9.71-14.61-.02-.09,0-.17,0-.26,0-.04,0-.08,0-.12,0-.02,0-.05,0-.07,.01-.08,.03-.16,.07-.25,2.79-6.78,5.59-13.56,7.87-20.53,2.06-6.27,3.71-12.7,4.52-19.25,.8-6.55,.82-13.18,.19-19.74-.63-6.56-1.92-13.08-3.78-19.41-1.59-5.4-3.8-10.78-8.14-14.55-.97-.85,.45-2.25,1.41-1.41,4.9,4.25,7.29,10.49,8.99,16.58,3.63,13.03,5,26.77,3.12,40.2-1.7,12.16-6.11,23.68-10.74,34.99,2.07-2.22,4.1-4.46,6.05-6.79,4.75-5.66,9.13-11.69,12.99-18.02-.33-.21-.56-.58-.46-1.07,.51-2.64,1.02-5.28,1.52-7.92Z"/>
    <path class="cls-1" d="M54.97,164.59c-1.1,6.76-1.33,13.68-.76,20.5,2.08,24.83,15.62,47.76,36.15,61.77-1.51-7.24-3.12-14.46-4.97-21.62-1.88-7.3-4-14.55-6.49-21.67-2.46-7.05-5.38-13.89-8.51-20.67-5.12-11.08-10.47-22.77-10.91-35.07-1.98,5.45-3.57,11.02-4.51,16.75Z"/>
    <path class="cls-1" d="M41.27,171.58c.48,10.6,3.35,20.79,8.36,30.13,4.1,7.63,9.32,14.57,15,21.09-.5-.81-.99-1.62-1.46-2.44-6.54-11.36-10.31-24.19-11.1-37.27-.41-6.8,0-13.64,1.2-20.35,1.22-6.82,3.39-13.4,5.96-19.82,.14-.36,.29-.72,.44-1.07,.03-.29,.04-.59,.08-.88,.05-.42,.31-.69,.63-.83,4.88-11.61,10.78-22.89,13.72-35.2,2.12-8.88,2.74-18.47,.26-27.24-5.28,10.53-11.02,20.83-16.28,31.38-9.68,19.39-17.8,40.47-16.81,62.51Z"/>
    <path class="cls-1" d="M90.79,249.82c-.08-.12-.14-.25-.18-.39-7.58-4.97-14.34-11.13-20-18.19-.09,.03-.18,.05-.27,.05-.26,0-.53-.11-.71-.29-.74-.74-1.47-1.47-2.21-2.21-.08-.08-.14-.18-.19-.29-.05-.04-.11-.07-.16-.11-.15-.09-.27-.21-.36-.36-.01-.03-.02-.06-.04-.09-.13-.05-.25-.13-.37-.26-7.82-8.58-15.1-17.86-20.13-28.38-4.62-9.68-6.93-20.16-6.99-30.88-.06-10.96,2.03-21.88,5.35-32.29,6.44-20.24,17.47-38.53,27.06-57.38-.52,.59-1.04,1.19-1.59,1.76-6.83,7.18-14.87,13.08-21.76,20.2-6.76,6.98-12.66,14.78-17.56,23.17-9.54,16.33-15.38,34.99-15.24,54.01,.07,9.2,1.59,18.4,4.87,27.02,3.45,9.06,8.98,16.96,15.65,23.94,6.8,7.12,14.47,13.33,21.77,19.91,7.04,6.35,13.84,12.99,20.12,20.11,11.66,13.21,21.54,28.23,26.81,45.12,1.39-4.01,2.38-8.16,2.88-12.37,2.21-18.33-3.72-37.55-16.52-50.95-.26-.27-.31-.58-.24-.87Z"/>
    <path class="cls-1" d="M106.8,43.96c-5.93-16.05-17.54-29.29-33.13-36.49C59.28,.82,41.7-.36,27.4,7.19,14.23,14.14,4.55,27.71,2.4,42.46c-1.04,7.16-.21,14.76,2.92,21.32,2.86,6.01,7.52,11.03,13.07,14.66,10.86,7.13,25.76,9.56,37.62,3.41,7.15-3.71,12.84-10.49,14.7-18.39,1.82-7.75-1-16.08-7.66-20.55,.98,1.26,1.87,2.59,2.64,3.99,.1,.11,.19,.24,.23,.39,0,.03,.02,.06,.03,.08,.21,.4,.42,.81,.62,1.22,.14,.29,.14,.6,.04,.87,.01,.04,.02,.07,.03,.11,.05,.08,.1,.15,.13,.26,.04,.15,.07,.3,.1,.45,.01,.03,.04,.06,.05,.09,.06,.21,.12,.43,.17,.64,.04,.14,.04,.28,.02,.41,.2,1.14,.3,2.3,.26,3.46-.55,13.8-17.32,23.47-29.93,19.75-14.79-4.36-18.39-23.05-13.24-35.8,2.94-7.27,8.46-12.82,15.69-15.87,7.93-3.35,16.95-3.49,25.19-1.25,18.15,4.93,29.81,21.08,34.55,38.58,5.58,20.61,1.9,42.06-2.07,62.65,4.78-8.41,8.62-17.35,11.12-26.73,4.54-17.08,4.29-35.61-1.86-52.27Z"/>
    <path class="cls-1" d="M49.69,63c2.78,.58,5.88,.25,8.28-1.34,2.44-1.62,3.73-4.58,2.97-7.44-1.37-5.17-8.91-10.15-13.46-5.63-.12,.12-.24,.19-.37,.24l-5.13,6.96c-.09,.13-.21,.23-.34,.31,.2,.73,.47,1.45,.86,2.12,1.52,2.6,4.3,4.18,7.18,4.78Z"/>
    <path d="M110.74,49.66c-4.9-17.76-16.11-33.27-32.44-42.11C63.22-.61,44.38-2.91,28.51,4.41,13.98,11.12,3.06,25.65,.55,41.44c-1.23,7.73-.44,15.8,2.85,22.95,3,6.53,8.11,11.97,14.1,15.87,11.74,7.64,27.87,9.9,40.42,2.84,5.51-3.1,10.18-8.03,12.87-13.82,.89,1.51,1.65,3.07,2.29,4.66-.05,.05-.1,.1-.14,.15-6.22,8.08-14.51,14.18-21.9,21.1-7.01,6.57-13.23,13.99-18.52,22-10.47,15.87-17.43,34.24-18.81,53.27-1.35,18.56,2.93,37.45,14.41,52.36,6.05,7.86,13.5,14.45,20.93,20.96,7.3,6.39,14.51,12.87,21.24,19.86,13.13,13.63,24.83,29.2,31.23,47.18,.77,2.18,1.46,4.38,2.08,6.6,.29,1.03,1.58,.86,1.93,0,7.17-17.7,5.53-38.46-3.58-55.16-2.15-3.94-4.74-7.63-7.69-11.01,.13-.12,.24-.26,.29-.48,5.88-26.27,7.19-55.76-8.12-79.25-1.89-2.9-4.03-5.58-6.31-8.17-2.06-2.35-4.12-4.78-4.96-7.81,13.75-14.12,25.47-30.56,32.38-49.13,6.71-18.06,8.38-38.06,3.22-56.75Zm-36.37,28.03c2.48,8.78,1.86,18.37-.26,27.24-2.94,12.3-8.84,23.59-13.72,35.2-.31,.14-.58,.41-.63,.83-.04,.3-.05,.59-.08,.88-.15,.36-.3,.72-.44,1.07-2.58,6.42-4.74,13-5.96,19.82-1.2,6.7-1.61,13.55-1.2,20.35,.79,13.08,4.56,25.91,11.1,37.27,.47,.82,.96,1.63,1.46,2.44-5.67-6.53-10.9-13.46-15-21.09-5.01-9.34-7.88-19.53-8.36-30.13-.99-22.04,7.13-43.12,16.81-62.51,5.26-10.54,11-20.84,16.28-31.38Zm-3.97,105.23c3.13,6.78,6.05,13.62,8.51,20.67,2.49,7.12,4.61,14.36,6.49,21.67,1.85,7.16,3.45,14.38,4.97,21.62-20.53-14.01-34.07-36.94-36.15-61.77-.57-6.83-.34-13.74,.76-20.5,.93-5.73,2.53-11.3,4.51-16.75,.44,12.3,5.8,23.99,10.91,35.07Zm37.16,118.73c-.51,4.22-1.49,8.37-2.88,12.37-5.27-16.9-15.16-31.91-26.81-45.12-6.28-7.11-13.07-13.76-20.12-20.11-7.3-6.58-14.97-12.79-21.77-19.91-6.67-6.98-12.2-14.88-15.65-23.94-3.28-8.62-4.8-17.82-4.87-27.02-.15-19.01,5.7-37.67,15.24-54.01,4.9-8.39,10.8-16.19,17.56-23.17,6.89-7.12,14.93-13.03,21.76-20.2,.55-.57,1.06-1.17,1.59-1.76-9.59,18.84-20.62,37.14-27.06,57.38-3.32,10.41-5.41,21.34-5.35,32.29,.06,10.72,2.37,21.2,6.99,30.88,5.03,10.52,12.31,19.8,20.13,28.38,.12,.13,.24,.21,.37,.26,.01,.03,.02,.06,.04,.09,.09,.15,.21,.27,.36,.36,.05,.04,.11,.07,.16,.11,.05,.1,.1,.2,.19,.29,.74,.74,1.47,1.47,2.21,2.21,.18,.18,.45,.29,.71,.29,.09,0,.18-.03,.27-.05,5.66,7.06,12.42,13.22,20,18.19,.04,.14,.1,.27,.18,.39-.06,.28-.02,.6,.24,.87,12.8,13.41,18.73,32.63,16.52,50.95Zm-12.04-175.24c-3.86,6.33-8.24,12.35-12.99,18.02-1.95,2.32-3.98,4.57-6.05,6.79,4.63-11.32,9.04-22.83,10.74-34.99,1.88-13.43,.51-27.18-3.12-40.2-1.7-6.1-4.08-12.33-8.99-16.58-.97-.84-2.39,.57-1.41,1.41,4.34,3.77,6.56,9.15,8.14,14.55,1.86,6.33,3.15,12.85,3.78,19.41,.63,6.56,.62,13.2-.19,19.74-.81,6.56-2.46,12.98-4.52,19.25-2.29,6.97-5.08,13.75-7.87,20.53-.04,.09-.06,.17-.07,.25,0,.02,0,.05,0,.07,0,.04,0,.08,0,.12,0,.09-.02,.17,0,.26,1.02,5.92,6.33,10,9.71,14.61,3.72,5.07,6.67,10.69,8.85,16.59,4.64,12.57,5.83,26.08,4.89,39.37-.55,7.84-1.84,15.6-3.51,23.27,0-.07,0-.14-.01-.22-.04-.14-.11-.27-.2-.39-2.93-14.19-6.21-28.33-10.8-42.09-2.31-6.94-4.99-13.74-8.01-20.41-3.08-6.78-6.39-13.48-8.85-20.52-2.56-7.35-4.14-15.1-3.44-22.89,4.78-11.65,10.75-22.88,13.97-35.09,3.45-13.1,3.89-27.89-3.51-39.77-.11-.17-.24-.28-.39-.35,.53-1.45,.95-2.95,1.22-4.47,1.5-8.54-2.05-17.42-9.6-21.96-1.28-.77-2.66-1.38-4.09-1.8-.2-.13-.43-.19-.66-.16-2.25-.57-4.6-.67-6.88-.16-3.87,.87-7.28,3.36-9.58,6.56-4.32,6.04-3.64,14.75,3.31,18.43,5.38,2.85,13.47,2.3,16.69-3.51,3.35-6.06-1.8-13.1-7.78-14.83-2.27-.66-4.61-.44-6.58,.68-.47-.2-.95,0-1.25,.4-1.73,2.35-3.46,4.69-5.19,7.04,.03-1.85,.53-3.72,1.39-5.36,1.74-3.33,4.79-6.04,8.39-7.18,2.37-.75,4.86-.71,7.21-.08,2.34,2.15,4.29,4.66,5.8,7.44,.29,.92,.58,1.84,.87,2.76,3.02,13.07-11.84,23.6-23.77,22.43-6.74-.66-12.19-5.38-14.98-11.38-2.83-6.09-2.96-13.31-1.1-19.7,2.04-6.98,6.55-12.75,12.96-16.22,7.15-3.88,15.7-4.64,23.6-3.07,8.23,1.64,15.71,5.7,21.61,11.66,6.18,6.24,10.54,14.11,13.27,22.42,6.45,19.6,3.72,40.49,.02,60.34-.49,2.64-1.01,5.28-1.52,7.92-.09,.48,.13,.86,.46,1.07ZM41.64,56.1c.13-.08,.24-.18,.34-.31l5.13-6.96c.13-.05,.25-.12,.37-.24,4.55-4.52,12.09,.46,13.46,5.63,.76,2.87-.53,5.82-2.97,7.44-2.4,1.59-5.5,1.92-8.28,1.34-2.88-.61-5.67-2.19-7.18-4.78-.39-.67-.66-1.39-.86-2.12Zm57.97,4.21c-4.73-17.5-16.39-33.65-34.55-38.58-8.24-2.24-17.27-2.1-25.19,1.25-7.23,3.05-12.75,8.6-15.69,15.87-5.15,12.75-1.54,31.44,13.24,35.8,12.61,3.71,29.38-5.95,29.93-19.75,.05-1.16-.05-2.32-.26-3.46,.02-.13,.02-.27-.02-.41-.06-.21-.12-.43-.17-.64,0-.03-.03-.06-.05-.09-.04-.15-.06-.3-.1-.45-.03-.1-.08-.18-.13-.26-.01-.04-.02-.07-.03-.11,.1-.27,.09-.59-.04-.87-.19-.41-.4-.82-.62-1.22,0-.03-.02-.06-.03-.08-.05-.15-.13-.27-.23-.39-.77-1.4-1.66-2.73-2.64-3.99,6.66,4.47,9.48,12.8,7.66,20.55-1.85,7.9-7.55,14.68-14.7,18.39-11.86,6.15-26.76,3.71-37.62-3.41-5.54-3.64-10.2-8.66-13.07-14.66-3.13-6.56-3.96-14.17-2.92-21.32C4.55,27.71,14.23,14.14,27.4,7.19c14.3-7.55,31.88-6.37,46.27,.28,15.59,7.21,27.21,20.45,33.13,36.49,6.15,16.66,6.4,35.19,1.86,52.27-2.49,9.38-6.33,18.31-11.12,26.73,3.97-20.58,7.64-42.04,2.07-62.65Z"/>
  </g></g>
</svg>
