<svg id="Carpe-2" xmlns="http://www.w3.org/2000/svg" viewBox="0 0 357.7 217.88">
<g id="Calque_4"><g>
<path class="cls-1" d="M139.24,192.63c-5.86,2.55-11.72,5.11-17.59,7.66,2.28,.39,9.19,.08,10.08,.07,4.05-.04,8.11-.08,12.16-.12s8.11-.08,12.16-.12c2.8-.03,6.57,.46,9.15-1.05-5.38-1.98-10.21-4.87-14.64-8.68-.94-.81-1.87-1.65-2.79-2.49-.28,.35-.76,.57-1.27,.33-10.29-4.75-20.04-10.55-29.62-16.58-17.3-10.89-34.62-21.86-51.03-34.07-13.49-10.03-26.79-20.95-42.27-27.76,7.33,6.71,14.66,13.42,22,20.13,.54,.5,.28,1.51-.44,1.67-3.42,.76-6.84,1.52-10.26,2.27,2.35,2.64,4.41,5.4,5.45,8.88,.58,1.95,1.16,3.71,2.76,5.07,1.45,1.23,3.28,1.99,5.05,2.65,8.84,3.27,17.93,5.95,27.06,8.24,.9,.22,1.01,1.79,0,1.93-4.63,.64-9.67,1.37-13.33,4.5,3.08,3.87,8.14,5.49,12.84,6.42,5.63,1.11,11.45,1.56,16.58,4.38,.61,.33,.7,1.42,0,1.73-3.37,1.47-6.74,2.95-10.11,4.42,2.24,1.4,4.54,2.68,6.92,3.82,.42,.2,.52,.72,.46,1.13-.68,4.35,3.73,7.32,7.57,7.54,4.05,.23,7.83-1.47,11.44-3.1,3.4-1.53,6.81-2.86,10.5-3.47,7.19-1.2,14.56-.19,21.16,2.88,.64,.3,.67,1.44,0,1.73Z"/>
<path class="cls-1" d="M184.62,77.01c-.1-.04-.19-.06-.28-.09-.04,.02-.08,.05-.13,.07-.14,.05-.28,.11-.41,.18,.03,.06,.07,.11,.09,.18,.49,1.45-.06,2.87-.36,4.28-.02,.08-.03,.16-.05,.24,0,.02,0,.04-.01,.05-.02,.12-.03,.24-.03,.36,0,.13,0,.26,0,.39,0,.06,.04,.39,.01,.21,.02,.12,.05,.24,.08,.36,.01,.05,.03,.1,.05,.14,0,.01,0,.02,.02,.04,.01,.02,.03,.05,.06,.09,.91,.13,1.62-.67,2.08-1.58,.61-1.2,.84-2.78,.08-3.96-.26-.4-.78-.81-1.2-.98Z"/>
<path class="cls-1" d="M254.68,51.12c-4.43-1.91-8.86-3.82-13.29-5.73-1.76-.76-3.71-1.83-5.69-1.78-1.89,.04-2.92,1.48-2.52,3.29,.83,3.75,5.38,4.46,8.36,5.77,3.42,1.51,6.23,4.12,8.06,7.37,.29,.52,.05,1.35-.6,1.47-2.57,.47-5.31,.93-7.52,2.4-1.96,1.3-3.59,3.81-2.88,6.24,.51,1.72,2.09,3.73,1.21,5.59-1.06,2.26-4.38,1.26-6.28,1.06-4.43-.46-8.97-.69-13.3-1.76-3.51-.87-7.02-2.43-9.22-5.41-1.14-1.56-1.56-4.61-4.06-3.98-2.07,.52-3.33,2.55-5.1,3.62-3.39,2.06-6.82,.13-9.85-1.63-1.55-.9-3.22-1.91-5.05-2.07-2.05-.18-3.96,.86-5.79,1.65-1.73,.75-3.55,1.43-5.47,1.15-1.94-.29-3.45-1.54-5.02-2.61-1.44-.98-3.48-1.93-4.64-.01-1.1,1.83-.34,3.97,.68,5.63,2.07,3.35,5.8,7.4,3.1,11.52-.27,.41-.66,.53-1.13,.46-2.7-.41-4.6-2.36-6.63-4-2.19-1.78-4.69-2.7-7.53-2.63-5.46,.14-11.04,3.45-14.28,7.77-2.87,3.83-4.44,9.57,.19,12.74,2.08,1.42,4.57,2,6.74,3.24,2.19,1.25,2.06,3.38,.56,5.17-6.23,7.44-15.07,13.41-17.52,23.35-.57,2.31-.96,5.36,2.15,5.52,2.05,.11,4.09-.47,6.14-.31,1.86,.15,4.09,.96,4.4,3.06,.24,1.61-.99,2.76-2.14,3.66-1.53,1.2-3.35,2.21-2.81,4.44,.32,1.32,.82,2.5,.8,3.9-.02,1.35-.39,2.66-.9,3.9-1.67,4.01-6.92,9.29-4.56,13.9,12.71-2.84,25.74-4.03,38.51-6.59,12.85-2.58,25.34-6.67,37.67-11.07,3.09-1.1,6.17-2.22,9.25-3.35,2.72-.99,5.56-1.91,7.91-3.64,4.36-3.2,6-9.13,8.03-13.9,3.78-8.86,8.65-18.33,18.46-21.53,5.72-1.87,11.84-1.5,17.73-2.39,4.88-.73,11.58-1.85,14.34,3.54,.11,.22,.12,.43,.09,.62,.23,.02,.46,.1,.62,.27,.02,.02,.04,.05,.06,.07-.14-1.06-.31-2.12-.54-3.16-.8-3.69-2.24-7.06-4.04-10.37-1.67-3.09-3.34-6.15-4.26-9.55-1.97-7.27-1.18-14.92-.36-22.3,.03-.28,.16-.49,.34-.65-.52-1.92-1.88-3.42-3.58-4.51-2.13-1.37-4.62-2.01-7.01-2.77-2.4-.77-4.67-1.74-6.76-3.15-.76-.51-1.48-1.06-2.19-1.63,0,0,0,0,0,0-.12,.09-.23,.15-.38,.19-.26,.08-.53,.02-.77-.09-.08,0-.16,0-.24,0-.2,0-.4,0-.6,0-.26,.13-.56,.17-.89,.03Zm-65.73,38.68c-3.47,2.42-8.68,2.77-11.94-.23-3.54-3.27-3.96-9.5-2.14-13.7,1.61-3.75,5.21-6.44,9.24-6.9,.21-.3,.57-.48,1.03-.37,4.69,1.15,8.4,5.29,9,10.09,.54,4.32-1.65,8.66-5.17,11.12Z"/>
<path class="cls-1" d="M185.62,70.84c-.07,.01-.13,.04-.2,.04-4.35-.03-8.12,3.08-9.23,7.23-.93,3.49-.22,8.79,3.21,10.74,3.22,1.84,7.32,.62,9.81-1.86,2.5-2.49,3.64-6.18,2.61-9.6-.91-3.02-3.27-5.47-6.2-6.55Zm1.45,12.79c-.58,.85-1.39,1.63-2.42,1.86-.34,.08-.68,.09-1.01,.06-.27,.1-.58,.1-.81-.07-.07-.05-.12-.1-.18-.15-.41-.16-.79-.38-1.14-.66-1.6-1.27-2.24-3.49-1.77-5.45,.3-1.26,1.06-2.34,2.06-3.12-.02-.46,.28-.84,.71-1.01,2.04-.82,4.47,.5,5.32,2.42,.87,1.97,.44,4.37-.76,6.11Z"/>
<path class="cls-1" d="M276.81,135.19c-8.79-3.04-17.33,2.65-26.07,3.79,5.01,2.62,10.63,4.07,16.32,3.62,5.91-.47,11.56-3.11,15.53-7.51-1.71-3.01-2.87-6.61-5.96-8.49-2.97-1.81-6.75-1.86-10.05-1.09-7.08,1.67-12.78,6.61-17.84,11.64,9.68-.38,18.8-7.28,28.6-3.89,1.21,.42,.69,2.35-.53,1.93Z"/>
<path class="cls-1" d="M277.15,159.22c2.03,1.11,4.54,2.13,6.3,.08,1.41-1.64,2.35-3.57,3.91-5.13,2.8-2.8,6.33-4.76,9.9-6.4,3.03-1.39,9.52-2.98,8.44-7.49-.44-1.83-.79-3.44,.81-4.82,1.58-1.36,3.82-2.16,5.65-3.11,3.9-2.02,7.8-4.05,11.7-6.07-2.54-.97-5.43-.6-8.14-.82-2.87-.24-5.64-1.06-7.42-3.45-.22-.3-.14-.7,0-1.01,2.42-5.45,6.81-9.54,11.48-13.09,2.46-1.87,5.01-3.61,7.52-5.41,2.25-1.62,5.06-3.36,6.36-5.93-1.36-.71-2.66-1.53-3.89-2.47-.45-.34-.63-.85-.36-1.37,1.61-3.05,3.62-5.84,5.74-8.55-7.53,3.7-15.07,7.37-22.52,11.23-8.19,4.24-16.2,8.96-23.01,15.24-.05,.05-.11,.07-.17,.1-.22,.28-.44,.56-.67,.85-.13,.16-.35,.23-.56,.26,.01,.18,.04,.36,.05,.53,.46,7.37-.47,14.88-1.75,22.14-1.28,7.28-3.34,14.51-7.04,20.96-.73,1.27-1.52,2.51-2.34,3.73Z"/>
<path class="cls-1" d="M282.95,109.5c-.2-.17-.28-.46-.29-.71,0-.21,.08-.41,.21-.58-1.74-2.17-4.85-2.52-7.53-2.27-3.32,.31-6.58,.95-9.91,1.21-6.29,.48-12.74,.94-17.86,5.05-7.76,6.21-10.28,16.37-14.43,24.93-1.15,2.36-2.58,4.66-4.63,6.35-2.05,1.69-4.49,2.73-6.95,3.66-5.92,2.22-11.89,4.35-17.87,6.41-12.09,4.15-24.35,7.71-36.96,9.89-12.08,2.09-24.3,3.37-36.21,6.34,3.73,3.06,7.39,6.21,10.96,9.46,3.92,3.58,7.67,7.48,11.82,10.84,.19-.27,.49-.47,.83-.47,.15,0,.29,0,.44,0,0,0,.02,0,.03,0,0,0,.02,0,.03,0,1.06,0,2.12,.01,3.19,.02,.26,0,.49,.11,.66,.27,5.79,.39,11.59,.62,17.4,.65,3.15,.02,6.3-.02,9.45-.11,3.07-.09,6.28,0,9.33-.42,1.41-.19,1.04-1.4,.88-2.44-.12-.77-.24-1.57-.07-2.34,.26-1.15,.79-1.43,1.87-1.72,1.14-.31,2.29-.62,3.42-.95,4.75-1.39,9.63-3.14,13.46-6.38,3.37-2.85,6.09-6.84,6.33-11.36,.1-1.79,.47-3.8,2.76-3.51,1.34,.17,2.67,.7,4.01,.96,1.39,.27,2.79,.44,4.2,.53,.9,.06,2.86,.42,3.53-.39,.49-.6,.14-1.57-.04-2.23-.44-1.61-1.1-3.35-.42-4.99,.68-1.65,2.44-2.52,4.15-2.65,2.36-.18,4.47,1.11,6.65,1.8,5.12,1.62,10.72,.96,16,.72,5.49-.25,10.98-.5,16.47-.75,1-1.73,1.9-3.52,2.67-5.39,1.67-4.06,2.82-8.3,3.68-12.6-4.24,4.81-10.36,7.63-16.71,8.23-7.26,.69-14.55-1.65-20.62-5.54-.27-.18-.41-.45-.45-.74-.43-.34-.63-.97-.13-1.47,5.77-5.83,12.51-11.98,20.88-13.45,3.63-.64,7.66-.38,10.81,1.7,3.37,2.23,4.59,6.06,6.58,9.37,.4-2.26,.74-4.52,1.03-6.79,.65-5.17,1.08-10.47,.7-15.7-.25-.02-.46-.12-.65-.28-.88-.72-1.76-1.45-2.65-2.17Z"/>
<path class="cls-1" d="M311.08,88.2c-8.56,4.37-17.67,8.75-23.89,16.33-.01,.02-.03,.02-.05,.04,.37,1.55,.65,3.13,.84,4.72,.11-.09,.21-.18,.31-.27,.13-.12,.28-.19,.43-.24,6.72-6.07,14.51-10.73,22.51-14.89,8.92-4.64,18.01-8.99,27.02-13.46,1.05-.52,1.93,.7,1.21,1.57-2.86,3.49-5.69,7.01-7.89,10.95,1.23,.87,2.52,1.64,3.89,2.3,.37,.18,.6,.74,.46,1.13-1.09,3.01-3.61,4.9-6.09,6.74-2.48,1.84-5.04,3.57-7.53,5.39-4.77,3.49-9.33,7.46-11.94,12.85,1.84,2.01,5,2.16,7.54,2.19,2.97,.04,6.09,.1,8.61,1.88,.57,.41,.72,1.35,0,1.73-5.25,2.72-10.51,5.45-15.76,8.17-.98,.51-2.3,.96-3.09,1.76-.84,.87-.15,2.04,.05,3.04,.38,1.88-.29,3.7-1.57,5.09-1.43,1.56-3.45,2.35-5.35,3.16-1.95,.83-3.88,1.7-5.74,2.7-1.88,1.02-3.7,2.17-5.3,3.58-1.61,1.42-2.79,3.04-3.97,4.82-1.05,1.57-2.38,2.87-4.36,3.02-1.92,.15-3.76-.7-5.41-1.63-2.16,3.04-4.52,5.95-6.91,8.81,9.54-1.41,18.83-4.41,27.46-8.68,8.05-3.98,15.58-8.99,22.42-14.81,7.17-6.11,14-13.08,19.05-21.06,5.33-8.43,8.25-18.05,10.74-27.63,2.56-9.85,4.75-19.79,6.64-29.78-5.24,1.8-10.33,4.01-15.34,6.37-9.72,4.57-19.42,9.23-28.99,14.11Z"/>
<path class="cls-1" d="M146.06,206.53c1.34-.79,2.8-1.29,4.34-1.5,3.12-.43,6.25,.32,9.24,1.14,1.76,.49,3.52,1.03,5.3,1.46,1.46,.35,3.09,.77,4.6,.64,1.95-.17,3.24-2.18,4.46-3.51,.86-.93,1.72-1.86,2.58-2.8-2.63-.47-5.25-1.02-7.82-1.74-.43-.12-.84-.26-1.26-.39-2.86,2.62-7.09,2.24-10.7,2.27-4.8,.05-9.6,.1-14.4,.15l-14.65,.15c-2.04,.02-4.27,.3-6.29-.01-1.29-.2-2.64-.94-2.55-2.43,.02-.32,.17-.72,.5-.86,5.6-2.44,11.2-4.88,16.8-7.32-3.6-1.39-7.42-2.16-11.29-2.25-4.04-.1-8.07,.52-11.89,1.85-4.04,1.42-7.76,3.7-11.95,4.71-3.49,.84-7.52,.85-10.59-1.25-2.49-1.71-4.06-4.45-3.93-7.44-2.76-1.36-5.43-2.88-7.99-4.58-.56-.37-.74-1.4,0-1.73,3.28-1.44,6.56-2.87,9.85-4.31-9.5-4.06-22.16-1.79-28.74-11.24-.25-.36-.14-.92,.16-1.21,2.83-2.78,6.49-4.06,10.27-4.84-7.83-2.06-15.66-4.39-23.19-7.32-3.39-1.32-6.52-3.16-7.86-6.73-.79-2.11-1.22-4.19-2.43-6.12-1.22-1.94-2.79-3.63-4.35-5.31-.49-.52-.32-1.5,.44-1.67,3.35-.74,6.71-1.49,10.06-2.23-8.23-7.53-16.46-15.06-24.69-22.59-.71-.65,.03-2.02,.97-1.67,9.85,3.62,18.89,9,27.48,14.99,7.76,5.41,15.17,11.28,22.8,16.87,8.36,6.12,16.96,11.9,25.64,17.56,8.58,5.59,17.19,11.14,25.89,16.54,7.8,4.85,15.74,9.48,24.01,13.46-3.56-3.31-7.07-6.67-10.75-9.85-11.51-9.92-23.82-18.81-36.66-26.92-6.4-4.05-12.9-7.94-19.43-11.76-.52,.4-1.38,.34-1.56-.47-.04-.16-.05-.33-.09-.49-.91-.53-1.82-1.06-2.72-1.58-.43,.63-1.58,.7-1.8-.25-.07-.3-.13-.61-.2-.91-4.74-2.74-9.49-5.47-14.24-8.2-13.92-8.03-27.84-16.07-41.76-24.1-2.81-1.62-5.86-3.9-9.18-4.29-1.62-.19-3.23,.3-4.01,1.83-.71,1.39-.58,3.13-.32,4.61,1.24,7.08,4.79,13.69,8.4,19.81,7.52,12.74,16.06,24.92,25.36,36.42,8.8,10.89,18.25,21.46,28.78,30.71,9.85,8.66,21.02,16.25,33.62,20.24,6.79,2.15,13.84,3.1,20.96,3.02,3.9-.05,7.79-.36,11.66-.84,3.71-.46,7.77-.82,11.01-2.84,1.42-.88,2.66-2.02,4.09-2.87Z"/>
<path class="cls-1" d="M264.32,156.94c-4.26,.19-8.55,.57-12.81,.4-1.74-.07-3.48-.25-5.17-.64-1.73-.4-3.31-1.16-4.99-1.71-1.41-.47-3.22-.8-4.45,.31-1.06,.96-.55,2.45-.21,3.62,.6,2.08,1.13,4.8-1.51,5.71-1.5,.52-3.34,.24-4.88,.09-1.82-.17-3.63-.47-5.4-.92-.47-.12-1.29-.54-1.76-.48-.64,.08-.53,.16-.6,.79-.08,.71-.06,1.41-.17,2.12-.19,1.34-.57,2.63-1.1,3.87-1.19,2.79-3.1,5.26-5.38,7.25-5.18,4.53-11.94,6.45-18.45,8.2-.38,1.16,.32,2.65,.2,3.84-.13,1.36-1.06,2.27-2.37,2.54-1.91,.4-4.05,.28-6,.37-2.15,.09-4.31,.16-6.46,.2-8.78,.17-17.57-.09-26.33-.74-.08,0-.13-.04-.2-.06-.31,0-.62-.03-.93-.05,1.02,.75,2.05,1.47,3.14,2.13,6.06,3.68,13.04,5.31,19.97,6.48,.19-.03,.38,0,.55,.09,.27,.05,.55,.1,.82,.14,1.27,.2,.73,2.13-.53,1.93-.12-.02-.23-.04-.35-.06-1.23,1.33-2.45,2.66-3.68,3.99-1.06,1.15-2.1,2.57-3.5,3.32-2.79,1.49-6.78,.08-9.6-.7-3.3-.92-6.68-2.13-10.15-2.07-1.75,.03-3.43,.46-4.94,1.35-1.5,.89-2.78,2.08-4.27,2.98-.42,.26-.86,.48-1.3,.69,8.24,2.41,16.76,3.62,25.35,3.57,.23,0,.4,.08,.55,.18,16.76-1.54,33.56-3.96,49.49-9.57,13.34-4.69,25.96-11.67,36.21-21.5,5.36-5.14,10.1-10.88,14.77-16.65,3.05-3.76,6.11-7.52,8.69-11.59-4.08,.19-8.16,.37-12.24,.56Z"/>
<path class="cls-1" d="M76.04,133.26c-.4-4.56,.56-9.2,2.87-13.2,.61-1.06,1.33-2.01,2.08-2.97,.55-.71,.83-1.28,.46-2.17-.28-.66-.7-1.29-1.03-1.94-1.18-2.33-2.12-4.81-2.61-7.38-.94-4.99-.1-10.07,1.91-14.69,4.19-9.65,12.87-16.05,21.65-21.29-4.04-5.73-4.98-13.11-3.4-19.9,1.57-6.73,5.45-12.71,10.02-17.8,4.6-5.13,10-9.61,16-13,12.17-6.89,27.09-8.89,40.13-3.37,2.85-6.46,9.15-11.12,16.08-12.06-6.13-1.11-12.39-1.54-18.7-1.47-11.02,.12-22.36,1.04-32.92,4.38-9.22,2.92-17.54,8.06-24.62,14.63-14.37,13.34-23.8,31.71-28.92,50.46-5.35,19.6-5.95,40.43-1.6,60.27,.87,.5,1.73,1,2.59,1.51Z"/>
<path class="cls-1" d="M165.61,17.1c-.24,.65-.85,.88-1.47,.6-7.05-3.22-15.03-4.07-22.66-2.9-12.93,1.99-24.48,9.68-32.9,19.47-4.18,4.86-7.65,10.58-8.89,16.94-1.2,6.17-.15,13,3.84,17.99,.4,.5,.4,1.22-.2,1.57-5.05,2.96-10,6.17-14.21,10.27-7.32,7.13-11.98,17.44-8.41,27.57,.48,1.35,1.07,2.66,1.75,3.93,.51,.96,1.19,1.97,1.22,3.11,.03,1.14-.6,2-1.27,2.85-.73,.92-1.39,1.88-1.96,2.91-2.2,3.97-2.97,8.63-2.24,13.09,8.96,5.22,17.85,10.56,26.51,16.26,.24,.16,.49,.33,.73,.49,1.18-3.05,3.09-5.71,5.59-7.79-5.8-2.82-10.65-7.25-14.1-12.73-7.4-11.75-7.1-26.6-1.13-38.88,5.81-11.95,16.72-20.63,28.93-25.46-3.75-6.47-1.43-15.29,1.95-21.44,6.42-11.67,19.41-19.09,32.59-19.6,14.51-.57,28.51,6.33,38.58,16.5,3.83-11.1,15.76-18.48,27.43-16.94,.04-.08,.09-.15,.13-.23-.88-.58-1.76-1.15-2.64-1.72-9.05-5.84-18.32-11.58-28.38-15.52-2.69-1.05-5.42-1.93-8.18-2.65-.08,.41-.37,.73-.91,.66-8.22-1.1-16.75,3.81-19.68,11.63Z"/>
<path class="cls-1" d="M224.74,26.86c-11.16-1.46-22.61,6.31-25.48,17.16-.19,.71-1.16,.99-1.67,.44-5.45-5.82-12.07-10.59-19.47-13.62-6.47-2.65-13.48-3.95-20.46-3.4-6.27,.49-12.36,2.69-17.61,6.13-5.13,3.36-9.47,7.98-12.22,13.48-2.85,5.7-4.72,13.71-.76,19.32,.4,.57-.05,1.26-.6,1.47-6.78,2.52-13.14,6.25-18.48,11.14-9.72,8.9-15.71,21.85-14.58,35.16,1.02,11.99,8.54,23.45,19.78,28.15,.8,.33,1,1.3,.24,1.83-2.93,2.03-5.11,4.92-6.29,8.27,7.37,4.95,14.53,10.21,21.44,15.78,.02,0,.02-.02,.04-.02,.88-.23,1.77-.45,2.66-.66-2.38-5.3,2.98-10.62,4.83-15.29,.68-1.72,.85-3.37,.31-5.15-.39-1.29-.84-2.57-.4-3.91,.64-1.96,2.61-2.94,4.05-4.22,.59-.53,1.29-1.19,.6-1.96-.67-.75-2-.82-2.92-.82-2.15,0-4.32,.63-6.46,.22-5.46-1.04-3.18-8.22-1.71-11.63,1.98-4.6,5.27-8.51,8.67-12.12,1.8-1.91,3.66-3.76,5.49-5.64,.93-.96,2.01-1.91,2.77-3,.6-.86,.41-1.41-.47-1.88-.49-.26-1.01-.48-1.52-.71-2.34-1.02-4.85-1.91-6.68-3.77-1.58-1.6-2.42-3.77-2.39-6.01,.06-4.91,3.43-9.39,7.15-12.27,3.82-2.96,8.8-5.08,13.71-4.57,2.35,.25,4.51,1.1,6.39,2.52,1.85,1.4,3.49,3.26,5.74,3.92,.94-2.26-.58-4.75-1.89-6.6-1.39-1.97-2.95-4.02-3.04-6.54-.06-1.82,.64-3.87,2.25-4.87,1.74-1.08,3.73-.55,5.36,.45,1.63,1.01,3.17,2.62,5.18,2.77,2.05,.16,4.05-1.06,5.87-1.83,1.77-.74,3.58-1.26,5.51-.95,1.81,.29,3.46,1.18,5.03,2.09,1.56,.9,3.15,1.99,4.94,2.36,2.25,.46,3.76-.94,5.33-2.33,1.45-1.28,3.21-2.44,5.24-2.2,2.27,.28,2.84,2.2,3.8,3.94,1.93,3.49,5.89,4.99,9.59,5.8,4.68,1.02,9.56,1.25,14.31,1.74,.51,.05,1.79,.37,2.07-.21,.15-.31-.06-.86-.15-1.16-.26-.87-.69-1.67-1.02-2.52-.72-1.88-.42-3.94,.53-5.69,1.96-3.62,5.93-4.87,9.73-5.64-2.06-2.96-4.94-4.87-8.38-6.13-2.9-1.07-5.94-2.28-7.18-5.36-1.01-2.51-.28-5.58,2.51-6.48,3.22-1.04,6.87,1.17,9.71,2.4,3.79,1.64,7.58,3.27,11.37,4.9,.07-.02,.15-.04,.22-.05-2.28-2.08-4.4-4.36-6.64-6.48-6.61-6.29-13.97-11.7-21.56-16.76-.08,.13-.18,.25-.33,.34,0,0,0,0,0,0-.13,.22-.25,.44-.38,.66-.13,.23-.35,.38-.6,.46-.26,.08-.54,.02-.77-.1-.14-.08-.25-.21-.34-.36Z"/><g>
<path d="M356.45,65.24c-10.27,3.32-19.95,8.31-29.65,12.98-9.67,4.65-19.56,9.18-28.74,14.74-4.25,2.57-8.27,5.57-11.55,9.31-.05-.15-.08-.31-.13-.46-1.16-3.54-3.03-6.71-4.75-10-1.8-3.44-3-7.04-3.46-10.91-.45-3.83-.3-7.71,.01-11.54,.14-1.66,.31-3.32,.49-4.97,.33-.21,.57-.58,.51-1.07-.66-4.75-5.28-7.25-9.39-8.62-2.68-.89-5.38-1.61-7.83-3.06-2.18-1.29-4.11-2.93-5.94-4.66-3.92-3.71-7.64-7.57-11.8-11.04-4.24-3.54-8.7-6.82-13.26-9.94-9.17-6.28-18.65-12.41-28.68-17.25C192.09,3.83,181.39,.9,170.08,.21c-5.86-.36-11.74-.22-17.6,.16-5.59,.36-11.18,.97-16.67,2.09-10.05,2.06-19.42,6.13-27.58,12.37-15.75,12.03-26.4,29.91-32.75,48.45-6.9,20.14-8.69,42.01-5.15,63,.23,1.38,.49,2.75,.77,4.12-2.5-1.44-4.99-2.88-7.49-4.32-14.35-8.28-28.7-16.57-43.05-24.85-3.3-1.9-6.56-4.11-10.05-5.65-2.47-1.09-5.59-1.89-8.01-.25-2.54,1.72-2.76,4.95-2.32,7.71,.56,3.54,1.84,7,3.25,10.27,3.02,6.99,7.17,13.49,11.29,19.86,4.12,6.39,8.48,12.63,13.05,18.7,8.87,11.77,18.5,23.08,29.06,33.37,9.64,9.38,20.4,18,32.73,23.57,6.06,2.74,12.45,4.72,19.05,5.63,7.96,1.1,16,.66,23.94-.4,2-.27,4.06-.55,6.02-1.07,.11,.13,.25,.24,.45,.31,8.21,2.61,16.76,4,25.36,4.19,.15,.26,.41,.45,.82,.41,15.96-1.4,31.99-3.48,47.35-8.23,13.62-4.21,26.72-10.56,37.68-19.77,5.77-4.85,10.81-10.49,15.61-16.28,.51-.61,1.02-1.22,1.53-1.83,.14,.08,.31,.13,.52,.1,18.15-2.41,35.09-10.36,49.38-21.68,7.42-5.88,14.34-12.68,19.96-20.33,5.99-8.16,9.56-17.6,12.27-27.28,3.32-11.89,5.97-23.98,8.2-36.12,.13-.7-.45-1.48-1.23-1.23Zm-69.92,69.28c1.28-7.26,2.2-14.76,1.75-22.14-.01-.18-.03-.36-.05-.53,.21-.03,.43-.1,.56-.26,.22-.28,.44-.56,.67-.85,.06-.04,.11-.05,.17-.1,6.81-6.28,14.83-10.99,23.01-15.24,7.45-3.86,14.99-7.53,22.52-11.23-2.12,2.7-4.13,5.5-5.74,8.55-.28,.52-.09,1.03,.36,1.37,1.23,.94,2.53,1.76,3.89,2.47-1.29,2.58-4.1,4.31-6.36,5.93-2.51,1.8-5.06,3.54-7.52,5.41-4.67,3.55-9.06,7.64-11.48,13.09-.14,.31-.22,.71,0,1.01,1.78,2.4,4.55,3.22,7.42,3.45,2.71,.22,5.6-.15,8.14,.82-3.9,2.02-7.8,4.05-11.7,6.07-1.83,.95-4.07,1.75-5.65,3.11-1.6,1.38-1.24,2.99-.81,4.82,1.08,4.52-5.41,6.11-8.44,7.49-3.58,1.64-7.1,3.6-9.9,6.4-1.56,1.56-2.5,3.48-3.91,5.13-1.76,2.05-4.27,1.03-6.3-.08,.82-1.22,1.61-2.46,2.34-3.73,3.7-6.45,5.76-13.68,7.04-20.96Zm-.98-6.87c-.28,2.26-.62,4.53-1.03,6.79-1.99-3.31-3.2-7.14-6.58-9.37-3.15-2.08-7.19-2.34-10.81-1.7-8.38,1.47-15.11,7.62-20.88,13.45-.49,.5-.29,1.13,.13,1.47,.04,.29,.17,.56,.45,.74,6.07,3.89,13.36,6.23,20.62,5.54,6.35-.6,12.47-3.42,16.71-8.23-.86,4.3-2.02,8.54-3.68,12.6-.77,1.87-1.68,3.66-2.67,5.39-5.49,.25-10.98,.5-16.47,.75-5.27,.24-10.87,.9-16-.72-2.17-.69-4.29-1.98-6.65-1.8-1.7,.13-3.46,1-4.15,2.65-.68,1.64-.02,3.38,.42,4.99,.18,.66,.54,1.63,.04,2.23-.67,.81-2.64,.45-3.53,.39-1.41-.09-2.81-.26-4.2-.53-1.34-.26-2.67-.79-4.01-.96-2.29-.29-2.67,1.71-2.76,3.51-.24,4.52-2.96,8.51-6.33,11.36-3.83,3.24-8.71,4.99-13.46,6.38-1.14,.33-2.28,.64-3.42,.95-1.07,.29-1.61,.56-1.87,1.72-.17,.77-.05,1.57,.07,2.34,.16,1.04,.53,2.25-.88,2.44-3.05,.42-6.26,.34-9.33,.42-3.15,.09-6.3,.12-9.45,.11-5.8-.03-11.61-.26-17.4-.65-.17-.16-.4-.27-.66-.27-1.06,0-2.12-.01-3.19-.02,0,0-.02,0-.03,0,0,0-.02,0-.03,0-.15,0-.29,0-.44,0-.33,0-.64,.2-.83,.47-4.15-3.36-7.9-7.26-11.82-10.84-3.57-3.25-7.23-6.4-10.96-9.46,11.91-2.97,24.14-4.25,36.21-6.34,12.61-2.18,24.87-5.74,36.96-9.89,5.98-2.06,11.95-4.19,17.87-6.41,2.47-.92,4.91-1.97,6.95-3.66,2.04-1.69,3.48-3.99,4.63-6.35,4.15-8.56,6.68-18.72,14.43-24.93,5.12-4.1,11.57-4.57,17.86-5.05,3.33-.25,6.6-.9,9.91-1.21,2.69-.25,5.79,.1,7.53,2.27-.12,.17-.22,.36-.21,.58,.01,.25,.09,.54,.29,.71,.88,.72,1.76,1.45,2.65,2.17,.2,.16,.4,.27,.65,.28,.38,5.23-.05,10.53-.7,15.7Zm-8.21,5.61c-9.8-3.39-18.93,3.51-28.6,3.89,5.06-5.03,10.76-9.96,17.84-11.64,3.3-.78,7.09-.73,10.05,1.09,3.09,1.88,4.25,5.48,5.96,8.49-3.97,4.4-9.62,7.04-15.53,7.51-5.69,.45-11.31-1-16.32-3.62,8.75-1.13,17.29-6.83,26.07-3.79,1.22,.42,1.74-1.51,.53-1.93Zm-138.1,57.65c-6.6-3.07-13.98-4.08-21.16-2.88-3.69,.62-7.1,1.94-10.5,3.47-3.61,1.63-7.39,3.33-11.44,3.1-3.83-.22-8.25-3.19-7.57-7.54,.06-.41-.04-.92-.46-1.13-2.38-1.15-4.68-2.43-6.92-3.82,3.37-1.47,6.74-2.95,10.11-4.42,.7-.31,.61-1.39,0-1.73-5.12-2.83-10.94-3.28-16.58-4.38-4.7-.92-9.76-2.55-12.84-6.42,3.65-3.13,8.7-3.86,13.33-4.5,1.01-.14,.9-1.7,0-1.93-9.14-2.29-18.23-4.97-27.06-8.24-1.77-.66-3.59-1.41-5.05-2.65-1.6-1.36-2.18-3.12-2.76-5.07-1.03-3.48-3.1-6.24-5.45-8.88,3.42-.76,6.84-1.52,10.26-2.27,.72-.16,.98-1.18,.44-1.67-7.33-6.71-14.66-13.42-22-20.13,15.48,6.81,28.77,17.73,42.27,27.76,16.41,12.2,33.74,23.18,51.03,34.07,9.58,6.03,19.33,11.84,29.62,16.58,.52,.24,.99,.02,1.27-.33,.93,.83,1.85,1.68,2.79,2.49,4.42,3.81,9.25,6.7,14.64,8.68-2.58,1.52-6.35,1.02-9.15,1.05-4.05,.04-8.11,.08-12.16,.12s-8.11,.08-12.16,.12c-.9,0-7.8,.31-10.08-.07,5.86-2.55,11.72-5.11,17.59-7.66,.67-.29,.64-1.43,0-1.73ZM256.16,51.09c.08,0,.16,0,.24,0,.24,.12,.51,.17,.77,.09,.15-.04,.26-.1,.38-.19,0,0,0,0,0,0,.71,.57,1.43,1.12,2.19,1.63,2.09,1.41,4.37,2.38,6.76,3.15,2.39,.77,4.87,1.4,7.01,2.77,1.7,1.09,3.05,2.59,3.58,4.51-.17,.16-.3,.37-.34,.65-.81,7.38-1.61,15.03,.36,22.3,.92,3.41,2.59,6.47,4.26,9.55,1.8,3.31,3.24,6.68,4.04,10.37,.23,1.05,.4,2.11,.54,3.16-.02-.02-.04-.05-.06-.07-.16-.17-.38-.25-.62-.27,.03-.19,.02-.4-.09-.62-2.76-5.39-9.45-4.27-14.34-3.54-5.89,.88-12.01,.52-17.73,2.39-9.8,3.2-14.67,12.67-18.46,21.53-2.03,4.76-3.67,10.69-8.03,13.9-2.36,1.73-5.2,2.65-7.91,3.64-3.08,1.12-6.16,2.24-9.25,3.35-12.33,4.4-24.82,8.49-37.67,11.07-12.77,2.56-25.79,3.75-38.51,6.59-2.36-4.61,2.9-9.89,4.56-13.9,.51-1.24,.88-2.55,.9-3.9,.02-1.39-.47-2.57-.8-3.9-.54-2.22,1.28-3.23,2.81-4.44,1.16-.91,2.38-2.05,2.14-3.66-.31-2.1-2.54-2.91-4.4-3.06-2.06-.17-4.09,.41-6.14,.31-3.11-.16-2.71-3.22-2.15-5.52,2.45-9.94,11.29-15.91,17.52-23.35,1.5-1.79,1.63-3.92-.56-5.17-2.17-1.24-4.66-1.82-6.74-3.24-4.63-3.17-3.07-8.91-.19-12.74,3.24-4.32,8.82-7.63,14.28-7.77,2.83-.07,5.34,.86,7.53,2.63,2.03,1.64,3.93,3.59,6.63,4,.47,.07,.86-.05,1.13-.46,2.7-4.12-1.03-8.16-3.1-11.52-1.02-1.66-1.79-3.8-.68-5.63,1.16-1.91,3.19-.96,4.64,.01,1.58,1.07,3.08,2.32,5.02,2.61,1.92,.28,3.74-.4,5.47-1.15,1.82-.79,3.73-1.83,5.79-1.65,1.83,.16,3.49,1.17,5.05,2.07,3.02,1.76,6.45,3.69,9.85,1.63,1.77-1.07,3.03-3.1,5.1-3.62,2.5-.63,2.92,2.42,4.06,3.98,2.2,2.99,5.71,4.54,9.22,5.41,4.33,1.08,8.87,1.31,13.3,1.76,1.9,.2,5.21,1.2,6.28-1.06,.87-1.86-.71-3.87-1.21-5.59-.72-2.43,.91-4.93,2.88-6.24,2.22-1.47,4.95-1.93,7.52-2.4,.65-.12,.89-.95,.6-1.47-1.83-3.24-4.64-5.86-8.06-7.37-2.98-1.31-7.53-2.02-8.36-5.77-.4-1.8,.64-3.24,2.52-3.29,1.98-.05,3.92,1.02,5.69,1.78,4.43,1.91,8.86,3.82,13.29,5.73,.32,.14,.63,.1,.89-.03,.2,0,.4,0,.6,0Zm-30.3-23.76c.25-.08,.46-.23,.6-.46,.13-.22,.25-.44,.38-.66,0,0,0,0,0,0,.14-.09,.24-.21,.33-.34,7.59,5.06,14.95,10.47,21.56,16.76,2.23,2.13,4.36,4.4,6.64,6.48-.08,0-.15,.02-.22,.05-3.79-1.63-7.58-3.27-11.37-4.9-2.84-1.23-6.49-3.44-9.71-2.4-2.79,.91-3.52,3.98-2.51,6.48,1.23,3.08,4.28,4.29,7.18,5.36,3.45,1.27,6.33,3.17,8.38,6.13-3.8,.77-7.77,2.01-9.73,5.64-.95,1.75-1.25,3.8-.53,5.69,.32,.84,.75,1.65,1.02,2.52,.09,.3,.31,.85,.15,1.16-.28,.58-1.56,.26-2.07,.21-4.76-.49-9.63-.72-14.31-1.74-3.7-.81-7.66-2.3-9.59-5.8-.96-1.73-1.53-3.66-3.8-3.94-2.03-.25-3.79,.92-5.24,2.2-1.57,1.39-3.08,2.78-5.33,2.33-1.79-.36-3.38-1.46-4.94-2.36-1.57-.9-3.22-1.8-5.03-2.09-1.93-.31-3.75,.21-5.51,.95-1.82,.77-3.82,1.98-5.87,1.83-2.01-.15-3.55-1.77-5.18-2.77-1.63-1-3.62-1.53-5.36-.45-1.61,1-2.32,3.05-2.25,4.87,.09,2.52,1.64,4.57,3.04,6.54,1.31,1.86,2.84,4.34,1.89,6.6-2.25-.66-3.89-2.53-5.74-3.92-1.88-1.42-4.04-2.28-6.39-2.52-4.91-.52-9.9,1.6-13.71,4.57-3.72,2.89-7.09,7.37-7.15,12.27-.03,2.25,.81,4.41,2.39,6.01,1.83,1.86,4.34,2.75,6.68,3.77,.51,.22,1.03,.45,1.52,.71,.88,.47,1.07,1.02,.47,1.88-.76,1.09-1.84,2.04-2.77,3-1.83,1.88-3.69,3.73-5.49,5.64-3.41,3.62-6.69,7.52-8.67,12.12-1.47,3.41-3.75,10.59,1.71,11.63,2.14,.41,4.31-.22,6.46-.22,.92,0,2.25,.08,2.92,.82,.69,.77-.01,1.43-.6,1.96-1.44,1.28-3.42,2.26-4.05,4.22-.44,1.34,.02,2.62,.4,3.91,.53,1.78,.37,3.43-.31,5.15-1.85,4.68-7.21,9.99-4.83,15.29-.89,.21-1.77,.43-2.66,.66-.02,0-.02,.01-.04,.02-6.91-5.58-14.07-10.83-21.44-15.78,1.18-3.35,3.36-6.25,6.29-8.27,.76-.52,.56-1.49-.24-1.83-11.24-4.71-18.76-16.17-19.78-28.15-1.13-13.31,4.86-26.26,14.58-35.16,5.34-4.89,11.7-8.61,18.48-11.14,.55-.21,1-.9,.6-1.47-3.96-5.61-2.09-13.62,.76-19.32,2.75-5.5,7.09-10.12,12.22-13.48,5.25-3.44,11.34-5.64,17.61-6.13,6.98-.55,14,.75,20.46,3.4,7.4,3.03,14.02,7.8,19.47,13.62,.52,.55,1.48,.27,1.67-.44,2.87-10.85,14.32-18.62,25.48-17.16,.09,.15,.2,.29,.34,.36,.23,.12,.51,.18,.77,.1ZM185.29,5.47c.54,.07,.84-.25,.91-.66,2.76,.72,5.49,1.6,8.18,2.65,10.07,3.94,19.33,9.68,28.38,15.52,.88,.57,1.76,1.14,2.64,1.72-.04,.08-.09,.15-.13,.23-11.67-1.55-23.6,5.84-27.43,16.94-10.07-10.17-24.07-17.07-38.58-16.5-13.18,.52-26.18,7.94-32.59,19.6-3.38,6.15-5.7,14.96-1.95,21.44-12.2,4.83-23.11,13.51-28.93,25.46-5.97,12.28-6.27,27.14,1.13,38.88,3.45,5.47,8.3,9.91,14.1,12.73-2.51,2.08-4.41,4.74-5.59,7.79-.24-.16-.49-.33-.73-.49-8.66-5.71-17.55-11.04-26.51-16.26-.72-4.47,.05-9.12,2.24-13.09,.57-1.03,1.23-1.99,1.96-2.91,.67-.85,1.3-1.71,1.27-2.85-.03-1.13-.71-2.14-1.22-3.11-.67-1.27-1.27-2.58-1.75-3.93-3.57-10.13,1.09-20.44,8.41-27.57,4.21-4.1,9.17-7.3,14.21-10.27,.6-.35,.6-1.08,.2-1.57-3.98-4.99-5.04-11.83-3.84-17.99,1.24-6.36,4.7-12.08,8.89-16.94,8.42-9.8,19.97-17.48,32.9-19.47,7.63-1.17,15.61-.32,22.66,2.9,.62,.28,1.23,.05,1.47-.6,2.93-7.83,11.46-12.74,19.68-11.63ZM75.05,71.48c5.12-18.75,14.55-37.12,28.92-50.46,7.07-6.57,15.39-11.7,24.62-14.63,10.56-3.35,21.89-4.26,32.92-4.38,6.31-.07,12.56,.36,18.7,1.47-6.94,.95-13.23,5.6-16.08,12.06-13.04-5.51-27.96-3.52-40.13,3.37-6,3.4-11.4,7.88-16,13-4.57,5.09-8.45,11.07-10.02,17.8-1.58,6.79-.64,14.17,3.4,19.9-8.78,5.24-17.46,11.64-21.65,21.29-2.01,4.62-2.84,9.71-1.91,14.69,.48,2.57,1.43,5.05,2.61,7.38,.33,.64,.75,1.27,1.03,1.94,.37,.89,.09,1.46-.46,2.17-.75,.96-1.47,1.92-2.08,2.97-2.31,3.99-3.27,8.64-2.87,13.2-.86-.5-1.73-1.01-2.59-1.51-4.34-19.85-3.75-40.68,1.6-60.27Zm55.91,140.77c-3.87,.48-7.76,.8-11.66,.84-7.12,.08-14.17-.87-20.96-3.02-12.6-3.99-23.76-11.58-33.62-20.24-10.53-9.26-19.98-19.82-28.78-30.71-9.3-11.51-17.83-23.68-25.36-36.42-3.62-6.12-7.16-12.73-8.4-19.81-.26-1.49-.39-3.23,.32-4.61,.79-1.53,2.4-2.02,4.01-1.83,3.32,.38,6.37,2.66,9.18,4.29,13.92,8.03,27.84,16.07,41.76,24.1,4.74,2.74,9.49,5.46,14.24,8.2,.07,.3,.13,.61,.2,.91,.22,.94,1.37,.87,1.8,.25,.91,.53,1.82,1.05,2.72,1.58,.03,.16,.05,.33,.09,.49,.18,.81,1.05,.87,1.56,.47,6.54,3.82,13.03,7.71,19.43,11.76,12.83,8.12,25.15,17,36.66,26.92,3.68,3.17,7.19,6.54,10.75,9.85-8.27-3.99-16.21-8.62-24.01-13.46-8.7-5.41-17.31-10.96-25.89-16.54-8.68-5.65-17.28-11.43-25.64-17.56-7.63-5.59-15.04-11.46-22.8-16.87-8.58-5.99-17.62-11.36-27.48-14.99-.94-.35-1.69,1.02-.97,1.67,8.23,7.53,16.46,15.06,24.69,22.59-3.35,.74-6.71,1.49-10.06,2.23-.77,.17-.93,1.15-.44,1.67,1.55,1.68,3.13,3.36,4.35,5.31,1.22,1.93,1.64,4.02,2.43,6.12,1.33,3.57,4.47,5.41,7.86,6.73,7.53,2.93,15.35,5.26,23.19,7.32-3.79,.77-7.44,2.06-10.27,4.84-.29,.29-.41,.85-.16,1.21,6.58,9.45,19.24,7.18,28.74,11.24-3.28,1.44-6.56,2.87-9.85,4.31-.74,.32-.56,1.36,0,1.73,2.57,1.7,5.23,3.22,7.99,4.58-.14,2.99,1.43,5.72,3.93,7.44,3.07,2.11,7.1,2.09,10.59,1.25,4.19-1.01,7.91-3.29,11.95-4.71,3.82-1.34,7.85-1.95,11.89-1.85,3.86,.09,7.69,.86,11.29,2.25-5.6,2.44-11.2,4.88-16.8,7.32-.33,.14-.48,.54-.5,.86-.09,1.48,1.26,2.23,2.55,2.43,2.03,.31,4.25,.03,6.29,.01l14.65-.15c4.8-.05,9.6-.1,14.4-.15,3.61-.04,7.83,.34,10.7-2.27,.42,.13,.83,.27,1.26,.39,2.58,.72,5.19,1.27,7.82,1.74-.86,.93-1.72,1.86-2.58,2.8-1.22,1.33-2.51,3.34-4.46,3.51-1.52,.13-3.14-.29-4.6-.64-1.78-.43-3.53-.97-5.3-1.46-2.99-.83-6.13-1.57-9.24-1.14-1.54,.21-3,.71-4.34,1.5-1.44,.85-2.68,1.99-4.09,2.87-3.25,2.02-7.3,2.38-11.01,2.84Zm136.92-44.28c-4.67,5.76-9.41,11.5-14.77,16.65-10.25,9.83-22.87,16.8-36.21,21.5-15.93,5.6-32.73,8.02-49.49,9.57-.15-.1-.32-.18-.55-.18-8.59,.05-17.11-1.16-25.35-3.57,.44-.21,.88-.43,1.3-.69,1.49-.9,2.78-2.09,4.27-2.98,1.51-.89,3.19-1.32,4.94-1.35,3.47-.06,6.85,1.15,10.15,2.07,2.81,.79,6.81,2.2,9.6,.7,1.4-.75,2.44-2.18,3.5-3.32,1.23-1.33,2.45-2.66,3.68-3.99,.12,.02,.23,.04,.35,.06,1.26,.2,1.8-1.72,.53-1.93-.27-.04-.55-.09-.82-.14-.17-.09-.36-.12-.55-.09-6.93-1.17-13.9-2.8-19.97-6.48-1.08-.66-2.12-1.38-3.14-2.13,.31,.02,.62,.05,.93,.05,.07,.02,.12,.05,.2,.06,8.76,.65,17.55,.91,26.33,.74,2.15-.04,4.31-.11,6.46-.2,1.95-.08,4.09,.03,6-.37,1.32-.28,2.24-1.18,2.37-2.54,.12-1.19-.59-2.68-.2-3.84,6.51-1.75,13.28-3.68,18.45-8.2,2.28-1.99,4.19-4.46,5.38-7.25,.53-1.24,.91-2.53,1.1-3.87,.1-.71,.09-1.41,.17-2.12,.07-.63-.04-.71,.6-.79,.47-.06,1.3,.36,1.76,.48,1.77,.44,3.58,.74,5.4,.92,1.54,.15,3.38,.43,4.88-.09,2.64-.91,2.11-3.63,1.51-5.71-.34-1.18-.85-2.66,.21-3.62,1.23-1.12,3.04-.78,4.45-.31,1.68,.56,3.26,1.32,4.99,1.71,1.69,.39,3.44,.57,5.17,.64,4.26,.17,8.56-.2,12.81-.4,4.08-.19,8.16-.37,12.24-.56-2.58,4.07-5.64,7.83-8.69,11.59Zm80.9-70.47c-2.49,9.58-5.41,19.2-10.74,27.63-5.05,7.99-11.88,14.96-19.05,21.06-6.83,5.82-14.37,10.84-22.42,14.81-8.64,4.27-17.93,7.27-27.46,8.68,2.39-2.86,4.75-5.78,6.91-8.81,1.65,.92,3.49,1.78,5.41,1.63,1.98-.15,3.31-1.45,4.36-3.02,1.18-1.77,2.36-3.4,3.97-4.82,1.61-1.41,3.43-2.56,5.3-3.58,1.86-1.01,3.8-1.88,5.74-2.7,1.9-.81,3.92-1.6,5.35-3.16,1.28-1.4,1.95-3.21,1.57-5.09-.2-1-.89-2.18-.05-3.04,.79-.81,2.11-1.26,3.09-1.76,5.25-2.72,10.51-5.45,15.76-8.17,.72-.37,.57-1.32,0-1.73-2.52-1.78-5.64-1.84-8.61-1.88-2.54-.03-5.71-.18-7.54-2.19,2.61-5.39,7.17-9.36,11.94-12.85,2.49-1.82,5.05-3.56,7.53-5.39,2.48-1.84,5-3.73,6.09-6.74,.14-.38-.09-.95-.46-1.13-1.37-.66-2.66-1.42-3.89-2.3,2.2-3.94,5.03-7.46,7.89-10.95,.71-.87-.16-2.09-1.21-1.57-9.01,4.47-18.1,8.82-27.02,13.46-8,4.16-15.79,8.83-22.51,14.89-.16,.05-.31,.11-.43,.24-.1,.1-.21,.18-.31,.27-.2-1.59-.47-3.17-.84-4.72,.01-.02,.03-.02,.05-.04,6.22-7.58,15.33-11.96,23.89-16.33,9.57-4.88,19.27-9.54,28.99-14.11,5.02-2.36,10.1-4.57,15.34-6.37-1.88,10-4.08,19.94-6.64,29.78Z"/>
<path d="M185.13,68.59c-.46-.11-.81,.08-1.03,.37-4.02,.46-7.62,3.16-9.24,6.9-1.81,4.2-1.4,10.44,2.14,13.7,3.26,3,8.47,2.66,11.94,.23,3.53-2.46,5.71-6.8,5.17-11.12-.6-4.8-4.3-8.94-9-10.09Zm4.08,18.41c-2.49,2.49-6.59,3.7-9.81,1.86-3.43-1.96-4.14-7.26-3.21-10.74,1.11-4.15,4.88-7.26,9.23-7.23,.08,0,.14-.03,.2-.04,2.94,1.08,5.3,3.52,6.2,6.55,1.03,3.42-.12,7.11-2.61,9.6Z"/>
<path d="M182.51,75.09c-.43,.17-.73,.55-.71,1.01-1,.78-1.76,1.86-2.06,3.12-.47,1.96,.17,4.18,1.77,5.45,.35,.28,.74,.5,1.14,.66,.06,.05,.11,.11,.18,.15,.24,.17,.54,.17,.81,.07,.33,.03,.67,.01,1.01-.06,1.03-.23,1.84-1.01,2.42-1.86,1.2-1.74,1.63-4.15,.76-6.11-.85-1.93-3.28-3.25-5.32-2.42Zm3.23,6.86c-.46,.9-1.16,1.7-2.08,1.58-.03-.04-.05-.07-.06-.09-.01-.02-.01-.03-.02-.04-.02-.05-.03-.1-.05-.14-.04-.12-.06-.24-.08-.36,.03,.18,0-.15-.01-.21,0-.13,0-.26,0-.39,0-.12,.02-.24,.03-.36,0-.02,0-.03,.01-.05,.02-.08,.03-.16,.05-.24,.3-1.42,.85-2.84,.36-4.28-.02-.07-.06-.12-.09-.18,.14-.07,.27-.13,.41-.18,.05-.02,.09-.05,.13-.07,.09,.03,.18,.05,.28,.09,.42,.17,.94,.58,1.2,.98,.76,1.18,.53,2.76-.08,3.96Z"/></g></g></g></svg>
