<svg id="Marguerite" xmlns="http://www.w3.org/2000/svg" viewBox="0 0 241.01 288.58">
<g id="Calque_4"><g>
<path class="cls-1" d="M199.57,172.78c-2.7-4.28-7.68-6.85-12.59-7.51-10.81-1.44-20.98,5.95-28.56,12.78-7.88,7.09-14.43,15.57-19.61,24.81-8.58,15.34-13.08,32.48-14.63,49.9,.77-2.01,1.62-3.99,2.57-5.92,7.33-14.87,19.72-26.54,33.51-35.44,6.12-3.95,14.14-9.61,21.67-6.08,6.36,2.99,5.69,10.04,3.83,15.79,.66-.49,1.31-.98,1.95-1.49,11.37-9.03,20.58-21.86,20.12-36.96-.22-7.24-2.87-14.28-8.03-19.44-4.88-4.89-11.57-7.9-18.5-8.11-15.14-.47-28.41,10.62-36.96,22.12-8.87,11.93-14.19,26.15-17.12,40.64-1.21,5.98-2.03,12-2.6,18.06,.53-2.57,1.11-5.13,1.8-7.66,5.93-21.96,18.11-42.62,36.43-56.45,8.47-6.39,19.61-11.44,30.09-6.93,4.16,1.79,7.8,4.95,9.53,9.2,2.41,5.91,.34,12.3-1.67,18-.43,1.21-2.36,.68-1.93-.53,2.11-5.98,4.39-12.91,.7-18.76Z"/>
<path class="cls-1" d="M111.3,74.11c.06,.14,.08,.26,.08,.38,8.87-3.63,18.7-4.53,28.1-2.61,.12-.02,.25-.02,.39,0,.63,.14,1.28,.28,1.92,.43,2.44-4.81,3.54-10.22,3.11-15.61-.44-5.52-2.71-10.47-4.36-15.68-.69-2.17-.74-4.32,.55-6.28,1.23-1.87,2.92-3.46,4.3-5.22,2.86-3.63,5.46-7.92,5.8-12.64,.27-3.7-.78-7.68-3.55-10.23-1.67,3.36-2.79,6.99-4.79,10.17-.93,1.47-2.03,2.87-3.38,3.99-.94,.78-2.78,2.37-4.08,1.8-1.5-.66-1.42-2.7-1.46-4.04-.07-2.26,.03-4.52-.09-6.78-.18-3.39-.98-6.88-3.39-9.33-3.92,5.09-6.94,10.82-8.92,16.93-.28,.86-1.33,.94-1.83,.24-2.22-3.09-3.98-6.45-5.28-10.01-3.34,3.61-5.01,8.73-4.07,13.62,.85,4.46,3.73,8.42,7.65,10.69,1,.58,2.05,.92,3.09,1.39,.33,.15,.64,.34,.89,.58,.14-.03,.3-.02,.47,.03,4.33,1.43,8.97,1.45,13.32,.06,1.23-.39,1.75,1.54,.53,1.93-4.49,1.43-9.36,1.45-13.87,.09-.33,.82-1.09,1.59-1.55,2.23-.75,1.04-1.5,2.08-2.23,3.13-6.13,8.8-11.82,19.93-7.35,30.72Z"/>
<path class="cls-1" d="M146.98,59.29c-.03,4.69-1.16,9.3-3.2,13.5,3.98,1.02,7.92,2.46,10.84,5.38l1.8-1.64c.37-.34,.88-.36,1.28-.09,2.85-2.1,5.01-5.08,6.03-8.5,.66-2.21,.75-4.51,.93-6.8,.18-2.28,.58-4.43,1.26-6.61,.76-2.47,1.16-4.68,.63-7.24-.44-2.15-1.15-4.24-1.35-6.44-.37-3.92,1-7.79,3.51-10.78,.83-.99,2.24,.44,1.41,1.41-3.12,3.7-3.4,8.12-2.28,12.64,.52,2.1,1.13,4.25,.99,6.44-.15,2.33-1.08,4.47-1.62,6.71-1.05,4.34-.45,8.85-2.22,13.05-1.5,3.56-4.08,6.54-7.35,8.58-.1,.06-.2,.09-.3,.11-.03,.13-.08,.26-.14,.39-.15,.27-.41,.46-.7,.54-.11,.03-.25,.04-.38,.03,.49,.69,.92,1.43,1.27,2.21,4.42-2.61,8.85-5.32,12.59-8.87,3.83-3.64,6.12-7.94,7.85-12.88,.87-2.48,1.69-4.99,2.81-7.37,1.12-2.39,2.7-4.64,3.28-7.25,1.16-5.14-2.52-9.83-4.78-14.1-2.22-4.19-3.48-8.77-3.7-13.48-10.9,7.26-24.64,11.23-32.77,22-.07,.09-.15,.16-.23,.22,.26,.87,.61,1.74,.93,2.61,1.92,5.23,3.64,10.59,3.6,16.22Z"/>
<path class="cls-1" d="M96.1,79.47c.15,.17,.21,.34,.23,.52,1.51,.38,2.99,.91,4.44,1.66,.96-1.39,2.23-2.54,3.64-3.53-.61-3.47-3.82-5.88-6.71-7.56-3.06-1.77-6.45-3.28-8.82-6-5.77-6.63-1.73-15.34,1.93-21.86,.63-1.12,2.36-.11,1.73,1.01-2.03,3.61-4.19,7.39-4.52,11.61-.31,4.05,1.26,7.49,4.53,9.88,4.72,3.46,12.03,5.66,13.64,11.81,1.09-.63,2.21-1.18,3.3-1.68,.11-.05,.23-.1,.34-.15-.19-.11-.36-.27-.46-.52-2.4-5.81-1.99-12.38,0-18.25,1.23-3.66,3.05-7.07,5.11-10.33-5.93-1.17-11.64-3.39-16.78-6.56-2.59-1.6-5.05-3.43-7.31-5.46-1.15-1.03-2.25-2.12-3.31-3.26-.78-.85-1.64-1.9-2.76-2.28-.96,4.7-2.22,9.34-3.82,13.87-.75,2.12-1.57,4.22-2.46,6.29-.87,2.04-1.9,4.03-2.64,6.12-1.4,4-.73,7.76,2.01,10.99,5.1,6.03,13.47,7.76,18.68,13.69Z"/>
<path class="cls-1" d="M89.79,223.14c-.15-.16-.26-.35-.27-.61-.45-6.71-1.9-13.46-5.03-19.46-5.31-10.16-16.51-18.01-28.35-15.35-3.17,.71-6.17,1.98-9.21,3.1-3.01,1.11-6.08,1.99-9.26,2.45-6.41,.94-12.94,.45-19.13-1.45-1.23-.38-.7-2.31,.53-1.93,7.46,2.29,15.47,2.48,23,.41,6.32-1.73,12.18-5.17,18.9-5.12,5.71,.04,11.29,2.22,15.83,5.63,6.18,4.64,10.07,11.21,12.32,18.4,0-1.18-.01-2.37-.03-3.55-.07-6.04-.35-12.17-2.2-17.97-1.68-5.26-4.78-9.95-8.92-13.6-9.42-8.3-22.31-8.93-34.01-6.05-12.66,3.11-24.01,9.86-36.25,14.15,.06,.29,.13,.58,.19,.88,.05,.18,.05,.35,0,.53-.02,.06-.05,.11-.07,.17,.13,.11,.25,.24,.32,.43,3.01,8.12,7.59,15.64,13.41,22.05,5.26,5.79,11.67,11.18,18.94,14.2,3.89,1.62,7.96,2.34,12.16,2.06,4.33-.29,8.57-1.35,12.91-1.62,3.73-.23,7.37,.31,10.78,1.88,2.9,1.34,5.47,3.33,7.82,5.47,3.8,3.45,7.16,7.43,11.08,10.73-2.89-4.69-4.63-9.84-5.4-15.29-.03-.19-.04-.37-.07-.56Z"/>
<path class="cls-1" d="M22.71,257.77c6.15,3.93,13.55,4.62,20.67,3.97,7.07-.65,13.9-2.71,20.81-4.22,6.75-1.48,13.58-2.38,20.47-1.41,11.07,1.55,21.02,7.01,30.34,13.05-5.59-6.37-11.35-12.61-17.73-18.2-6.7-5.88-14.35-11.09-23.08-13.34-9.75-2.51-19.81-.54-29.63,.4-9.04,.87-17.9,.44-26.27-3.37-6.32-2.88-11.87-7.34-16.08-12.85,.77,10.76,2.94,21.45,7.04,31.45,3.91,9.53,9.68,18.76,17.56,25.5,3.81,3.26,8.25,5.92,13.15,7.15,5.45,1.36,11.01,.58,16.23-1.31,10.58-3.84,19.2-11.65,29.92-15.18,8.06-2.65,16.67-2.39,24.85-.42-3.5-2.17-7.07-4.2-10.8-5.95-6.15-2.9-12.79-4.99-19.62-5.32-7.24-.34-14.33,1.33-21.31,3.01-12.17,2.92-26.21,6.01-37.54-1.23-1.08-.69-.08-2.42,1.01-1.73Z"/>
<path class="cls-1" d="M237.78,78.83c-.55-.62-1.1-1.23-1.65-1.85-1.1-1.23-2.2-2.47-3.3-3.7-1.88-2.11-3.84-5-6.64-5.93-2.75-.91-5.73,.22-8.28,1.24-2.88,1.15-5.66,2.34-8.76,2.77-2.83,.4-5.72,.3-8.51-.3-2.88-.62-5.47-1.95-8.19-3.01-2.92-1.15-5.78-1.61-8.84-.73-2.92,.84-5.53,2.48-8.08,4.09-.42,.27-.82,.17-1.1-.09-1.31,1.69-2.8,3.26-4.48,4.7-3.63,3.12-7.73,5.62-11.84,8.05,.32,1.17,.47,2.37,.38,3.56,.12-.05,.25-.09,.4-.1,5.17-.25,10.47,2.15,15.58,.66,3.95-1.15,7.09-4.08,10.95-5.46,4.29-1.53,8.86-.74,13.19,.12,4.91,.98,9.58,1.56,14.57,.74,4.82-.79,9.47-2.39,14.07-3.98,1.22-.42,1.74,1.51,.53,1.93-5.21,1.8-10.46,3.57-15.96,4.25-4.86,.6-9.44-.16-14.2-1.1-4.67-.92-9.23-1.41-13.61,.82-3.66,1.87-6.94,4.51-11.14,5.03-4.7,.58-9.29-1.24-13.99-1.01-.29,.01-.51-.09-.67-.24-.06,.23-.14,.47-.22,.7,12.02,4.39,21.17,13.93,32.75,19.21,2.04,.93,4.18,1.72,6.37,2.3,.34-.12,.71-.07,.97,.24,3.29,.75,6.68,.98,10.03,.4,4.95-.87,9.48-3.32,13.22-6.64,3.79-3.37,6.82-7.55,9.04-12.1,2.22-4.56,3.92-9.34,8.01-12.6,.65-.52,.51-.59,.06-1.23-.18-.26-.46-.51-.66-.74Z"/>
<path class="cls-1" d="M188.94,110.57c-11.15-5.31-20.09-14.58-31.81-18.76-1.49,2.39-4,4.11-6.61,5.46,3.54,2.17,2.54,7.17,4.22,10.5,1.59,3.15,5.09,4.79,7.8,6.81,2.85,2.12,4.74,5.15,7.5,7.34,3.8,3.02,8.3,1.17,12.62,.82,4.16-.34,8.3,.51,12.07,2.26,1.17,.54,.15,2.26-1.01,1.73-2.37-1.1-4.93-1.79-7.54-1.99-2.5-.19-4.89,.17-7.35,.57-2.12,.35-4.32,.62-6.43,.06-1.65-.44-3.1-1.39-4.35-2.52-1.33-1.2-2.44-2.6-3.65-3.91-1.21-1.32-2.55-2.43-4.02-3.45-2.7-1.87-5.8-3.66-7.35-6.7-.92-1.8-1.06-3.78-1.44-5.74-.35-1.82-1.01-3.66-2.83-4.44-.18-.08-.29-.18-.38-.3-.65,.29-1.29,.57-1.91,.83-3.22,1.35-6.57,2.33-10,2.96,.05,.3,.11,.6,.16,.9,.05,.18,.05,.35,0,.53-.02,.04-.03,.08-.05,.11,.3,3.11,.19,6.22-.28,9.28,.02,.08,.05,.16,.05,.26,0,5.49,2.67,10.46,6.56,14.22,8.14,7.85,19.8,8.97,30.57,8.87,11.67-.12,23.35-.65,35.01-1.04-6.47-5.32-8.08-14.47-11.74-21.76-2.69-.69-5.32-1.69-7.82-2.88Z"/>
<path class="cls-1" d="M134.63,103.11c-.04-.23-.08-.46-.12-.7-.9,.13-1.79,.24-2.7,.32-4.89,.42-9.86,.09-14.65-.97-3.11-.69-6.34-1.67-9.26-3.14-.02,.03-.03,.06-.05,.09-.26,.26-.53,.51-.79,.77-.06,.06-.14,.1-.21,.14-.06,.06-.11,.13-.2,.18-3.19,1.89-4.43,5.56-4.97,9.05-.54,3.47-.35,7-.93,10.47-.59,3.59-2.12,6.67-4.84,9.13-2.88,2.6-6.02,4.86-8.84,7.55-2.85,2.72-5.49,5.64-7.95,8.72-.8,1.01-2.21-.42-1.41-1.41,2.82-3.54,5.91-6.87,9.25-9.94,1.48-1.36,3-2.66,4.57-3.91,1.49-1.19,3.04-2.34,4.31-3.77,2.59-2.9,3.11-6.82,3.35-10.55,.37-5.77,.53-12.84,5.64-16.53,.03-.08,.06-.16,.12-.22,.07-.11,.16-.19,.28-.26,.26-.19,.52-.37,.78-.56-.71-.44-1.4-.9-2.05-1.42-1.34-1.07-2.53-2.44-3.4-3.96-2.27,.53-4.42,1.44-6.37,2.67-.01,.01-.03,.02-.05,.03-2.67,1.7-4.96,4.01-6.58,6.79-3.01,5.15-3.38,11.35-6.11,16.64-2.58,4.99-6.72,8.9-10.43,13.03-7.27,8.1-13.69,18.33-13.1,29.59,8.29-1.13,16.58-2.31,24.73-4.2,13.34-3.09,26.63-8.25,36.88-17.6,9.85-8.99,16.37-22.04,15.03-35.58-.02-.17,0-.31,.05-.43Z"/>
<path class="cls-1" d="M80.2,116.3c.33-.7,.63-1.41,.89-2.16,1.97-5.56,2.82-11.41,6.61-16.14,.82-1.02,1.73-1.96,2.71-2.82-3.17-.2-6.22-1.32-9.19-2.59-3.98-1.71-8.19-3.8-12.65-3.42-4.17,.36-6.94,3.55-10.1,5.9-3.38,2.51-7.51,3.76-11.71,3.61-1.29-.05-1.29-2.05,0-2,4.42,.16,8.34-1.38,11.73-4.15,2.94-2.4,5.72-4.87,9.65-5.31,8.95-1,16.21,7.34,25.11,5.89,2-1.25,4.19-2.18,6.49-2.75-.76-2.07-.91-4.33-.1-6.5,.06-.15,.12-.29,.18-.44-5.55-2.81-12.06-2.35-18.07-1.53-5.58,.76-11.2,1.83-16.84,1.16-2.66-.32-5.26-1.01-7.63-2.27-1.1-.59-2.71-2.07-4.05-1.77-1.27,.29-2.17,2.59-2.8,3.58-1.56,2.49-2.97,5.21-4.85,7.48-1.88,2.27-4.36,2.91-7.22,2.74-5.67-.34-11.29-1.62-16.6-3.63,1.22,4.2,3.12,8.15,5.55,11.8,4.91,7.38,12.19,14.55,20.76,17.36,9.43,3.09,19.57,.95,28.99-1.15,.07-.08,.14-.15,.23-.2,.79-.45,1.66-.7,2.57-.75,.12,0,.24,.02,.36,.07Z"/>
<path class="cls-1" d="M155.53,90.59c-.02-.39,.16-.78,.48-.97,.15-.36,.28-.73,.36-1.12,.86-3.9-1.59-7.99-4.68-10.2-2.75-1.98-6-3-9.28-3.79-.2,0-.4-.03-.57-.13-.74-.17-1.48-.34-2.21-.5-.1,.01-.21,.02-.33,0-10.26-2.17-21.21-.78-30.55,4.01-.75,.38-1.52,.81-2.28,1.28-.1,.52-.57,.75-1.04,.69-1.39,.99-2.63,2.17-3.43,3.59,0,.01-.01,.02-.02,.03-.53,.96-.87,2.03-.89,3.22-.03,1.29,.25,2.48,.73,3.58,.23,.2,.36,.48,.39,.77,1.39,2.48,3.88,4.39,6.41,5.66,7.78,3.93,17.25,4.97,25.81,3.7,4.41-.65,8.75-1.91,12.79-3.79,2.92-1.37,6.59-3.13,8.32-6.05Z"/>
<path d="M239.85,78.16c-.66-.74-1.32-1.48-1.98-2.22-2.32-2.6-4.54-5.34-7.01-7.8-2.06-2.06-4.59-3.31-7.56-3.08-2.95,.23-5.65,1.51-8.35,2.59-3.53,1.42-7.14,2.18-10.96,1.89-3.67-.28-6.86-1.71-10.21-3.1-3.14-1.3-6.29-2.03-9.67-1.31-2.78,.59-5.33,1.94-7.76,3.42,.88-1.43,1.65-2.94,2.29-4.54,1.03-2.56,1.82-5.22,2.83-7.8,1.03-2.63,2.55-5.01,3.64-7.61,2.1-5,.41-9.62-2.09-14.11-1.49-2.68-3.06-5.29-4.05-8.21-1.08-3.2-1.58-6.54-1.54-9.92,0-.71-.88-1.31-1.5-.86-10.98,7.83-24.94,11.77-33.81,22.31,.07-.8,.34-1.59,.91-2.37,1.49-2.04,3.31-3.83,4.82-5.86,2.82-3.81,5.12-8.22,5.36-13.04,.24-4.72-1.49-9.48-5.38-12.31-.43-.31-1.13-.08-1.37,.36-2.99,5.45-4.35,13.02-10.36,16.03-.3-.56-.18-2.18-.19-2.53-.02-1.13-.01-2.26-.01-3.39,0-1.95-.05-3.91-.36-5.84-.52-3.25-1.88-6.48-4.5-8.57-.38-.31-1.05-.46-1.41,0-4.01,5.02-7.16,10.62-9.34,16.64-1.89-2.93-3.4-6.07-4.47-9.4-.24-.74-1.1-.95-1.67-.44-7.33,6.48-7.97,17.88-1.42,25.12,1.55,1.71,3.45,3.15,5.55,4.13,.46,.22,.93,.41,1.41,.59,.86,.34,.97,.24,.41,1.03-.88,1.23-1.77,2.44-2.64,3.67-.62,.88-1.24,1.78-1.84,2.68-.09-.05-.18-.1-.3-.12-6.28-1.2-12.26-3.59-17.63-7.07-2.64-1.71-5.11-3.68-7.36-5.87-1.95-1.9-3.77-4.82-6.78-4.9-.41-.01-.88,.32-.96,.73-.92,4.7-2.15,9.34-3.7,13.88-1.51,4.4-3.63,8.53-5.25,12.88-1.44,3.86-1.33,7.8,.89,11.34,2.04,3.26,5.18,5.65,8.44,7.59,3.52,2.09,7.28,3.89,10.3,6.67-8.18-.94-16.89,1.91-25.08,1.81-2.82-.04-5.66-.41-8.3-1.46-2.21-.88-4.64-3.37-7.19-2.71-1.12,.29-1.86,1.16-2.48,2.09-.99,1.47-1.89,3.02-2.83,4.52-1.4,2.24-2.87,5.75-5.49,6.79-1.65,.66-3.64,.36-5.36,.18-1.77-.18-3.53-.45-5.28-.8-3.67-.74-7.25-1.85-10.71-3.28-.75-.31-1.39,.57-1.23,1.23,2.19,9.18,7.54,17.34,14.38,23.75,3.47,3.25,7.36,6.13,11.77,7.95,4.78,1.98,10.01,2.55,15.15,2.31,5.88-.27,11.67-1.51,17.41-2.79,.32-.07,.52-.25,.62-.46,.11,0,.22,.01,.33-.02,.01,0,.02,0,.03,0-2.3,3.86-5.47,7.13-8.53,10.47-4.02,4.38-7.71,9.14-10.42,14.45-2.94,5.75-4.66,12.13-4.05,18.62,.07,.71,.58,1.06,1.27,.96,15.26-2.09,30.74-4.28,44.95-10.54,10.73-4.73,20.64-11.91,27.12-21.73,.04,.24,.16,.46,.36,.61,0,.14,0,.28,0,.43,0,.33,.19,.63,.46,.82,2.18,9.59-.76,19.63-5.44,28.09-5.26,9.51-12.68,17.58-18.93,26.41-6.02,8.5-11.15,18.25-11.71,28.84-.56,10.71,4.62,20.29,10.32,28.98,2.02,3.09,4.16,6.13,6.23,9.22-4.11-4.34-8.33-8.59-11.82-13.45-3.35-4.67-5.64-9.79-6.67-15.45-1.11-6.09-.97-12.33-1.02-18.5-.05-6.02-.24-12.12-1.81-17.97-1.44-5.35-4.15-10.26-7.99-14.26-3.89-4.05-8.8-7.06-14.19-8.64-5.98-1.76-12.31-1.77-18.43-.82-14.9,2.31-27.89,10.52-41.98,15.38-.42,.15-.62,.48-.67,.83-.03,.02-.07,.03-.09,.06-.05,.07-.1,.14-.16,.2-.09,.16-.14,.32-.14,.5,.04,.32,.07,.64,.11,.96,0,.14,.02,.27,.09,.39,.02,.07,.08,.12,.12,.18,0,.01,0,.03,0,.04,.03,.13,.09,.24,.18,.34,.03,.04,.07,.06,.1,.09-.1,.19-.13,.43-.03,.7,5.32,14.37,15.56,27.55,28.92,35.27,3.56,2.06,7.45,3.67,11.53,4.28,4.23,.64,8.42,.04,12.61-.61,4.32-.67,8.81-1.37,13.12-.23,3.22,.86,6.1,2.63,8.66,4.74,5.9,4.87,10.47,11.21,16.99,15.34,.17,.11,.33,.14,.49,.14,5.75,7.39,13.08,13.51,18.57,21.11,1.15,2.19,2.17,4.43,3.04,6.76,0,.16-.01,.32-.02,.47-5.96-6.88-11.99-13.71-18.63-19.93-6.45-6.04-13.61-11.55-21.89-14.82-9.03-3.56-18.44-3.12-27.91-2.05-9.36,1.05-18.85,2.26-28-.63-8.95-2.83-16.8-8.83-21.83-16.76-.51-.8-1.91-.53-1.86,.5,.92,20.96,7.06,43.09,21.94,58.55,7.11,7.39,16.66,12.83,27.21,11.49,11.58-1.47,20.79-9.19,30.9-14.27,5.98-3.01,12.32-4.71,19.03-4.66,6.14,.05,12.19,1.37,17.95,3.44,.87,.58,1.73,1.16,2.6,1.74,.07,.05,.14,.08,.22,.11,.22,.25,.43,.5,.65,.75,.56,.65,1.36,.23,1.59-.4,.38,0,.75-.21,.91-.55,.48-.05,1-.45,.95-.99l-.28-2.94c-.01-.16-.06-.3-.12-.44-.05-2.99-.02-5.99,.09-8.99,2.61-10.87,8.24-20.98,15.6-29.41,5-5.73,10.75-10.78,16.93-15.21,3.04-2.18,6.19-4.22,9.41-6.14,3.27-1.95,6.83-4.06,10.74-4.22,3.97-.16,7.78,1.84,8.63,5.95,.78,3.81-.79,7.89-2.21,11.36-.33,.8,.78,1.6,1.47,1.13,12.33-8.53,23.27-20.57,25.29-35.97,.98-7.42-.2-15.24-4.17-21.67-3.7-6-9.66-10.52-16.38-12.63-15.18-4.75-30.47,4.23-40.62,14.98-10.51,11.13-17.26,25.37-21.19,40.05-4.65,17.35-5.48,35.45-5.89,53.32-.3,1.49-.55,2.99-.74,4.5-.09-.19-.18-.39-.27-.58,.14-.26,.15-.58-.06-.91-.45-.69-.92-1.36-1.4-2.02-2.95-5.57-6.6-10.78-10.14-16-5.85-8.6-12.2-18.03-12.62-28.77-.42-10.84,4.68-21.05,10.69-29.74,6.18-8.93,13.61-16.97,19.07-26.4,5.56-9.59,9.02-21.26,5.89-32.22,0-.39,0-.78,0-1.17,.03-.26,.03-.53,0-.79-.03-.28-.09-.5-.29-.71-.07-.07-.16-.12-.25-.17,.37-.67,.74-1.35,1.08-2.04,1.16-2.35,2.12-4.81,2.86-7.32,2.16,7.7,8.88,13.78,16.26,16.71,11.64,4.63,24.95,3.11,37.16,2.72,7.68-.24,15.37-.48,23.05-.73,.96-.03,1.4-1.37,.5-1.86-7.71-4.28-9.46-13.68-12.84-21.25,2.46,.44,4.97,.6,7.49,.34,5.22-.53,10.07-2.7,14.19-5.89,4.19-3.24,7.61-7.44,10.17-12.06,2.73-4.93,4.19-10.52,8.74-14.18,.81-.65,1.46-1.51,1.08-2.6-.2-.56-.65-1-1.04-1.44ZM84.17,228.25c-2.36-2.14-4.92-4.13-7.82-5.47-3.4-1.57-7.05-2.1-10.78-1.88-4.33,.26-8.57,1.33-12.91,1.62-4.2,.28-8.28-.44-12.16-2.06-7.28-3.03-13.68-8.42-18.94-14.2-5.83-6.41-10.4-13.93-13.41-22.05-.07-.19-.19-.33-.32-.43,.02-.06,.05-.11,.07-.17,.05-.18,.05-.35,0-.53-.06-.29-.13-.59-.19-.88,12.24-4.3,23.59-11.04,36.25-14.15,11.71-2.88,24.59-2.25,34.01,6.05,4.14,3.65,7.23,8.34,8.92,13.6,1.86,5.8,2.13,11.93,2.2,17.97,.01,1.18,.02,2.36,.03,3.55-2.25-7.18-6.14-13.76-12.32-18.4-4.54-3.41-10.12-5.59-15.83-5.63-6.72-.05-12.58,3.39-18.9,5.12-7.53,2.07-15.55,1.88-23-.41-1.23-.38-1.76,1.55-.53,1.93,6.19,1.9,12.73,2.39,19.13,1.45,3.18-.47,6.25-1.34,9.26-2.45,3.04-1.12,6.04-2.39,9.21-3.1,11.83-2.66,23.04,5.18,28.35,15.35,3.13,6,4.58,12.75,5.03,19.46,.02,.26,.13,.46,.27,.61,.02,.19,.04,.37,.07,.56,.76,5.45,2.51,10.6,5.4,15.29-3.93-3.3-7.28-7.28-11.08-10.73Zm-62.47,31.24c11.33,7.24,25.37,4.15,37.54,1.23,6.99-1.68,14.07-3.35,21.31-3.01,6.83,.32,13.47,2.42,19.62,5.32,3.72,1.75,7.3,3.79,10.8,5.95-8.18-1.97-16.78-2.22-24.85,.42-10.73,3.52-19.35,11.34-29.92,15.18-5.22,1.89-10.79,2.68-16.23,1.31-4.9-1.23-9.34-3.89-13.15-7.15-7.88-6.74-13.65-15.97-17.56-25.5-4.1-10-6.27-20.69-7.04-31.45,4.21,5.51,9.75,9.97,16.08,12.85,8.37,3.81,17.22,4.24,26.27,3.37,9.82-.94,19.88-2.91,29.63-.4,8.73,2.25,16.38,7.46,23.08,13.34,6.38,5.59,12.14,11.83,17.73,18.2-9.32-6.04-19.27-11.5-30.34-13.05-6.89-.97-13.72-.07-20.47,1.41-6.91,1.51-13.74,3.57-20.81,4.22-7.12,.65-14.52-.04-20.67-3.97-1.09-.69-2.09,1.04-1.01,1.73Zm179.1-67.42c2.01-5.7,4.08-12.09,1.67-18-1.73-4.25-5.37-7.41-9.53-9.2-10.48-4.5-21.62,.54-30.09,6.93-18.32,13.83-30.49,34.49-36.43,56.45-.69,2.53-1.27,5.09-1.8,7.66,.58-6.06,1.4-12.08,2.6-18.06,2.93-14.49,8.25-28.7,17.12-40.64,8.55-11.5,21.82-22.59,36.96-22.12,6.92,.21,13.61,3.23,18.5,8.11,5.16,5.16,7.8,12.2,8.03,19.44,.46,15.1-8.75,27.94-20.12,36.96-.64,.51-1.29,1-1.95,1.49,1.85-5.75,2.53-12.8-3.83-15.79-7.53-3.53-15.55,2.13-21.67,6.08-13.78,8.9-26.18,20.58-33.51,35.44-.95,1.93-1.81,3.91-2.57,5.92,1.56-17.42,6.05-34.56,14.63-49.9,5.17-9.24,11.72-17.72,19.61-24.81,7.58-6.82,17.74-14.22,28.56-12.78,4.92,.66,9.9,3.23,12.59,7.51,3.69,5.85,1.41,12.78-.7,18.76-.43,1.22,1.5,1.74,1.93,.53ZM142.69,40.23c8.12-10.77,21.86-14.74,32.77-22,.22,4.71,1.48,9.29,3.7,13.48,2.27,4.27,5.94,8.96,4.78,14.1-.59,2.61-2.16,4.86-3.28,7.25-1.12,2.38-1.95,4.89-2.81,7.37-1.73,4.95-4.02,9.24-7.85,12.88-3.73,3.55-8.17,6.26-12.59,8.87-.35-.77-.78-1.51-1.27-2.21,.13,.01,.27,0,.38-.03,.29-.09,.55-.28,.7-.54,.07-.12,.11-.25,.14-.39,.1-.02,.2-.05,.3-.11,3.27-2.04,5.85-5.02,7.35-8.58,1.77-4.2,1.18-8.7,2.22-13.05,.54-2.24,1.47-4.38,1.62-6.71,.14-2.19-.46-4.34-.99-6.44-1.12-4.52-.84-8.94,2.28-12.64,.83-.98-.58-2.4-1.41-1.41-2.52,2.99-3.89,6.85-3.51,10.78,.21,2.2,.92,4.29,1.35,6.44,.52,2.56,.12,4.78-.63,7.24-.67,2.18-1.07,4.34-1.26,6.61-.18,2.29-.27,4.59-.93,6.8-1.02,3.42-3.18,6.39-6.03,8.5-.4-.27-.91-.25-1.28,.09l-1.8,1.64c-2.92-2.92-6.86-4.36-10.84-5.38,2.04-4.2,3.17-8.82,3.2-13.5,.04-5.63-1.68-10.99-3.6-16.22-.32-.87-.67-1.74-.93-2.61,.08-.06,.16-.13,.23-.22Zm-24.04,3.16c.73-1.05,1.48-2.09,2.23-3.13,.46-.64,1.22-1.41,1.55-2.23,4.51,1.37,9.38,1.35,13.87-.09,1.22-.39,.7-2.32-.53-1.93-4.35,1.39-8.99,1.37-13.32-.06-.17-.06-.33-.06-.47-.03-.26-.24-.57-.43-.89-.58-1.04-.47-2.09-.81-3.09-1.39-3.91-2.27-6.8-6.24-7.65-10.69-.93-4.89,.73-10.01,4.07-13.62,1.3,3.56,3.06,6.93,5.28,10.01,.5,.7,1.55,.62,1.83-.24,1.98-6.11,5-11.84,8.92-16.93,2.4,2.45,3.21,5.94,3.39,9.33,.12,2.26,.02,4.52,.09,6.78,.04,1.35-.04,3.39,1.46,4.04,1.31,.57,3.15-1.02,4.08-1.8,1.34-1.11,2.45-2.51,3.38-3.99,2-3.18,3.12-6.81,4.79-10.17,2.77,2.56,3.82,6.53,3.55,10.23-.34,4.71-2.95,9.01-5.8,12.64-1.38,1.76-3.07,3.34-4.3,5.22-1.28,1.96-1.24,4.11-.55,6.28,1.65,5.21,3.91,10.15,4.36,15.68,.43,5.39-.67,10.79-3.11,15.61-.65-.15-1.29-.29-1.92-.43-.14-.03-.27-.02-.39,0-9.4-1.92-19.23-1.01-28.1,2.61,0-.12-.02-.25-.08-.38-4.47-10.79,1.22-21.92,7.35-30.72Zm-41.23,22.39c-2.74-3.23-3.42-7-2.01-10.99,.74-2.1,1.77-4.08,2.64-6.12,.88-2.07,1.71-4.17,2.46-6.29,1.6-4.53,2.86-9.16,3.82-13.87,1.12,.38,1.97,1.43,2.76,2.28,1.05,1.14,2.15,2.22,3.31,3.26,2.27,2.03,4.72,3.86,7.31,5.46,5.15,3.17,10.86,5.39,16.78,6.56-2.06,3.26-3.88,6.67-5.11,10.33-1.98,5.87-2.4,12.45,0,18.25,.1,.24,.27,.41,.46,.52-.11,.05-.23,.1-.34,.15-1.09,.5-2.21,1.06-3.3,1.68-1.61-6.14-8.92-8.35-13.64-11.81-3.27-2.39-4.85-5.83-4.53-9.88,.33-4.21,2.49-8,4.52-11.61,.63-1.12-1.1-2.13-1.73-1.01-3.66,6.53-7.7,15.23-1.93,21.86,2.37,2.72,5.76,4.23,8.82,6,2.89,1.67,6.1,4.09,6.71,7.56-1.41,.99-2.68,2.14-3.64,3.53-1.45-.75-2.94-1.28-4.44-1.66-.03-.18-.09-.36-.23-.52-5.2-5.93-13.57-7.66-18.68-13.69Zm-.15,51.21c-.09,.05-.16,.13-.23,.2-9.41,2.1-19.55,4.24-28.99,1.15-8.57-2.81-15.86-9.98-20.76-17.36-2.43-3.65-4.32-7.6-5.55-11.8,5.31,2.01,10.93,3.29,16.6,3.63,2.86,.17,5.34-.47,7.22-2.74,1.88-2.27,3.29-4.99,4.85-7.48,.62-.99,1.53-3.3,2.8-3.58,1.34-.3,2.95,1.18,4.05,1.77,2.37,1.26,4.97,1.96,7.63,2.27,5.65,.67,11.27-.41,16.84-1.16,6.01-.82,12.52-1.28,18.07,1.53-.06,.15-.13,.29-.18,.44-.81,2.18-.66,4.43,.1,6.5-2.29,.57-4.49,1.5-6.49,2.75-8.89,1.45-16.15-6.89-25.11-5.89-3.93,.44-6.71,2.91-9.65,5.31-3.4,2.77-7.31,4.31-11.73,4.15-1.29-.05-1.29,1.95,0,2,4.2,.16,8.33-1.09,11.71-3.61,3.16-2.35,5.94-5.54,10.1-5.9,4.46-.38,8.67,1.71,12.65,3.42,2.98,1.28,6.02,2.39,9.19,2.59-.98,.86-1.9,1.8-2.71,2.82-3.79,4.73-4.64,10.59-6.61,16.14-.26,.74-.56,1.46-.89,2.16-.11-.05-.23-.08-.36-.07-.91,.06-1.78,.3-2.57,.75Zm42.27,22.14c-10.25,9.35-23.54,14.51-36.88,17.6-8.15,1.89-16.44,3.07-24.73,4.2-.59-11.25,5.83-21.48,13.1-29.59,3.71-4.13,7.86-8.04,10.43-13.03,2.73-5.29,3.1-11.49,6.11-16.64,1.62-2.78,3.91-5.09,6.58-6.79,.02-.01,.03-.02,.05-.03,1.95-1.23,4.1-2.14,6.37-2.67,.87,1.52,2.05,2.89,3.4,3.96,.65,.52,1.34,.98,2.05,1.42-.26,.19-.52,.37-.78,.56-.12,.06-.21,.15-.28,.26-.06,.06-.08,.14-.12,.22-5.11,3.69-5.27,10.75-5.64,16.53-.24,3.73-.76,7.65-3.35,10.55-1.28,1.43-2.82,2.58-4.31,3.77-1.57,1.25-3.09,2.55-4.57,3.91-3.34,3.06-6.42,6.39-9.25,9.94-.79,1,.61,2.42,1.41,1.41,2.45-3.08,5.1-6,7.95-8.72,2.81-2.69,5.95-4.95,8.84-7.55,2.72-2.45,4.25-5.53,4.84-9.13,.57-3.47,.39-7,.93-10.47,.54-3.49,1.78-7.16,4.97-9.05,.08-.05,.14-.12,.2-.18,.07-.04,.15-.08,.21-.14,.26-.26,.53-.51,.79-.77,.03-.02,.03-.06,.05-.09,2.92,1.47,6.15,2.45,9.26,3.14,4.79,1.07,9.76,1.4,14.65,.97,.9-.08,1.8-.19,2.7-.32,.04,.23,.08,.46,.12,.7-.05,.12-.07,.27-.05,.43,1.34,13.54-5.17,26.6-15.03,35.58Zm14.87-38.7c-8.56,1.26-18.02,.22-25.81-3.7-2.53-1.28-5.02-3.18-6.41-5.66-.02-.29-.16-.57-.39-.77-.48-1.09-.76-2.28-.73-3.58,.03-1.2,.36-2.26,.89-3.22,0-.01,.01-.02,.02-.03,.8-1.42,2.04-2.6,3.43-3.59,.47,.06,.94-.17,1.04-.69,.76-.47,1.53-.9,2.28-1.28,9.34-4.79,20.29-6.18,30.55-4.01,.12,.03,.22,.01,.33,0,.73,.16,1.47,.32,2.21,.5,.18,.1,.37,.14,.57,.13,3.28,.79,6.52,1.81,9.28,3.79,3.08,2.21,5.53,6.3,4.68,10.2-.09,.39-.21,.76-.36,1.12-.32,.19-.5,.58-.48,.97-1.73,2.92-5.4,4.68-8.32,6.05-4.04,1.89-8.38,3.14-12.79,3.79Zm74.08,34.79c-11.67,.4-23.34,.93-35.01,1.04-10.77,.11-22.43-1.02-30.57-8.87-3.89-3.75-6.56-8.73-6.56-14.22,0-.1-.03-.18-.05-.26,.46-3.06,.57-6.17,.28-9.28,.02-.04,.03-.08,.05-.11,.05-.18,.05-.35,0-.53-.05-.3-.11-.6-.16-.9,3.42-.63,6.78-1.6,10-2.96,.62-.26,1.26-.53,1.91-.83,.08,.12,.2,.23,.38,.3,1.82,.78,2.48,2.62,2.83,4.44,.37,1.95,.51,3.93,1.44,5.74,1.55,3.03,4.65,4.83,7.35,6.7,1.47,1.02,2.81,2.13,4.02,3.45,1.21,1.31,2.32,2.71,3.65,3.91,1.26,1.14,2.7,2.08,4.35,2.52,2.11,.56,4.31,.29,6.43-.06,2.46-.4,4.85-.76,7.35-.57,2.61,.2,5.17,.89,7.54,1.99,1.16,.54,2.18-1.19,1.01-1.73-3.77-1.75-7.91-2.59-12.07-2.26-4.32,.35-8.82,2.2-12.62-.82-2.76-2.19-4.65-5.22-7.5-7.34-2.71-2.02-6.21-3.66-7.8-6.81-1.68-3.33-.68-8.32-4.22-10.5,2.61-1.35,5.13-3.08,6.61-5.46,11.71,4.18,20.66,13.45,31.81,18.76,2.5,1.19,5.13,2.19,7.82,2.88,3.66,7.29,5.27,16.44,11.74,21.76Zm29.87-54.42c-4.09,3.26-5.79,8.04-8.01,12.6-2.22,4.56-5.24,8.73-9.04,12.1-3.74,3.32-8.26,5.77-13.22,6.64-3.34,.58-6.74,.35-10.03-.4-.27-.31-.64-.36-.97-.24-2.19-.57-4.33-1.37-6.37-2.3-11.58-5.28-20.73-14.82-32.75-19.21,.08-.23,.16-.46,.22-.7,.16,.15,.38,.25,.67,.24,4.7-.23,9.29,1.59,13.99,1.01,4.21-.52,7.48-3.16,11.14-5.03,4.38-2.23,8.94-1.74,13.61-.82,4.76,.94,9.33,1.7,14.2,1.1,5.49-.68,10.75-2.45,15.96-4.25,1.21-.42,.69-2.35-.53-1.93-4.61,1.59-9.25,3.18-14.07,3.98-4.99,.82-9.66,.23-14.57-.74-4.34-.86-8.91-1.65-13.19-.12-3.86,1.38-7,4.31-10.95,5.46-5.1,1.48-10.4-.91-15.58-.66-.15,0-.28,.05-.4,.1,.08-1.19-.06-2.4-.38-3.56,4.11-2.43,8.21-4.93,11.84-8.05,1.68-1.44,3.16-3.01,4.48-4.7,.28,.25,.68,.35,1.1,.09,2.55-1.61,5.16-3.25,8.08-4.09,3.06-.88,5.92-.42,8.84,.73,2.72,1.07,5.31,2.39,8.19,3.01,2.8,.6,5.68,.7,8.51,.3,3.1-.44,5.87-1.63,8.76-2.77,2.55-1.01,5.53-2.15,8.28-1.24,2.8,.93,4.76,3.82,6.64,5.93,1.1,1.23,2.2,2.47,3.3,3.7,.55,.62,1.1,1.23,1.65,1.85,.2,.23,.48,.48,.66,.74,.44,.64,.58,.71-.06,1.23Z"/></g></g></svg>
