<svg id="Calque_2" xmlns="http://www.w3.org/2000/svg" viewBox="0 0 312.16 258.03">
<g id="Calque_4"><g>
<path class="cls-1" d="M208.63,35.3c-3.3,.92-6.66,2.38-9.01,4.95-2.31,2.53-3.33,5.95-3.91,9.26-.61,3.49-1.05,7.53,1.22,10.54,2.1,2.79,5.66,4.34,8.99,5.04,3.58,.75,7.37,.46,10.78-.86,3.52-1.36,6.04-3.91,8.07-7.03,2.13-3.27,3.98-6.72,5.86-10.14,1.34-2.44,3.75-6.95,.67-9.02-6.84-3.82-15.1-4.85-22.66-2.75Z"/>
<path class="cls-1" d="M131.59,215.51c6.51-5.43,13.28-10.55,20.26-15.36,7.37-5.08,14.84-9.96,21.53-15.94,6.45-5.76,12.34-12.1,18.61-18.04,5.92-5.61,12.42-10.47,18.67-15.69,5.96-4.98,11.62-10.5,15.22-17.47,3.52-6.82,4.97-14.56,4.79-22.2-.19-7.77-2.01-15.52-5.17-22.62-3.19-7.15-8.23-14.29-7.39-22.48-4.4,2-9.54,2.33-14.36,.89-3.58-1.07-7.27-3.14-9.15-6.5-1.97-3.54-1.42-7.9-.69-11.71,.72-3.71,2.11-7.44,4.87-10.13,2.79-2.7,6.61-4.25,10.33-5.15,7.33-1.76,15.17-.84,21.9,2.52,.02-.08,.02-.15,.05-.23,1.18-2.61,3.03-4.71,5.2-6.47-6.35,.58-12.73-.72-19.08-1.33-6.36-.61-12.61-.23-18.34,2.82-5,2.67-9.16,6.84-11.71,11.91-3.11,6.17-3.24,13.22-2.85,19.97,.4,7.03,1.27,14.05,.3,21.07,0,0,0,.01,0,.02,3.19,2.06,6.28,4.27,9.21,6.71,.32,.26,.37,.58,.29,.87,.03,.07,.06,.15,.09,.23,.34,.21,.58,.58,.49,1.07-1.22,7.05-5.26,13.27-8.71,19.41-3.7,6.59-7.39,13.19-11.09,19.78-3.25,5.79-6.51,11.56-9.15,17.66-2.58,5.95-4.81,12.04-7.63,17.88-5.5,11.39-12.36,22.19-19.61,32.54-7.11,10.15-14.84,19.87-23.13,29.08-4.07,4.51-8.3,8.85-12.58,13.16-3.17,3.2-6.38,6.66-7.94,10.89,.37-.45,.73-.91,1.1-1.36,10.75-13,22.72-24.99,35.68-35.79Z"/>
<path class="cls-1" d="M90.88,48.5c10.63,2.54,21.12,5.68,31.47,9.1,12.82,4.24,25.67,8.64,38.2,13.68,7.66,3.08,15.15,6.61,22.16,10.94,.56-4.61,.31-9.24-.02-13.87-.28-.29-.57-.58-.88-.85-.17-.15-.33-.29-.51-.43-.04-.03-.08-.06-.11-.09,0,0,0,0,0,0-.08-.06-.16-.12-.24-.18-.71-.52-1.47-.97-2.26-1.36-.12-.06-.22-.15-.29-.25-6.69-2.88-13.37-5.76-20.1-8.54-12.93-5.34-26.01-10.34-39.42-14.35-6.65-1.99-13.37-3.73-20.16-5.14-5.51-1.14-11.94-2.84-17.51-1.1,2.27,1.1,4.3,2.67,5.91,4.63,1.1,1.34,2,2.8,2.68,4.4,.19,.45,.6,2.36,1.1,3.39Z"/>
<path class="cls-1" d="M214.96,179.35c1.11,1.93,2.22,3.85,3.33,5.78,.39,.67-.11,1.48-.86,1.5-4.89,.13-7.54,5.22-10.37,8.46-1.09,1.25-2.75,3.18-4.5,3.4-1.67,.21-3.53-1.5-4.69-2.52-3.16-2.79-3.56-7.08-3.88-11.03-.37-4.54,.14-8.94,1.55-13.27,1.07-3.29,2.52-6.43,4.05-9.53-3.34,2.85-6.6,5.78-9.75,8.88-1.95,1.92-3.88,3.86-5.83,5.79,.06,.07,.12,.13,.17,.23,1.96,4.34,3.91,8.68,5.87,13.02,.91,2.02,1.73,4.07,3.24,5.74,1.23,1.37,2.56,2.63,3.71,4.08,3.7,4.67,6.29,10.38,10.37,14.76-1.38-5.16-.7-10.78,2.2-15.4,1.65-2.63,3.91-4.87,6.58-6.47,1.02-.61,1.83-1.19,2.84-.25,.04,.04,.23,.28,.36,.41-.02-.21,.47-.81,.53-.9,.65-.86,1.29-1.71,1.94-2.57,.62-.82,1.75-.51,1.86,.5,.31,2.7,2.6,4.67,4.55,6.32,1.23,1.04,2.45,2.02,4.14,2.04,.74,.01,1.47-.13,2.19-.33-1.47-1.17-2.43-3.02-3.17-4.73-.68-1.58-1.31-3.22-.98-4.97,.32-1.73,1.41-3.22,2.45-4.59,2.18-2.86,4.83-5.63,7.61-7.92,.96-.79,2.29-1.42,3.51-.78,.2,.11,.38,.24,.54,.39,1.22-2.32,.34-5.21-.86-7.58-2.84,1.88-4.95,4.81-7.14,7.36l-8.06,9.4c-.39,.46-1.32,.36-1.57-.2-.75-1.66-1.99-2.95-3.71-3.61-.74-.28-.95-1.06-.44-1.67,2.3-2.78,3.44-6.2,4.25-9.68-3.59,3.69-7.58,6.97-11.89,9.8-.03,.05-.07,.1-.11,.14Z"/>
<path class="cls-1" d="M165.53,144.63c2.85-6.04,6.25-11.81,9.51-17.62,3.29-5.88,6.59-11.75,9.88-17.63,2.92-5.2,6.14-10.43,7.48-16.29-.04-.09-.09-.18-.09-.29-.03-.13-.02-.26,.02-.38,0,.06-.02,.12-.02,.17,.02-.16,.01-.32,0-.47-.03-.14-.06-.27-.11-.4-.02-.03-.03-.07-.05-.1-.07-.12-.1-.24-.12-.36-11.15-9.17-24.35-15.23-37.77-20.28-12.37-4.66-24.88-9.05-37.47-13.08-8.14-2.61-16.35-5.01-24.65-7.05-.16,.16-.36,.29-.63,.32-.86,.1-1.49-.33-1.95-.94-3.72-.88-7.45-1.69-11.2-2.4-25.24-4.79-51.76-5.31-76.45,2.53,1.76,2.42,4.01,4.44,6.63,5.89,1.31,.73,2.75,1.23,4,2.07,1.13,.77,1.98,1.8,2.86,2.83,3.83,4.46,9.39,6.3,14.98,7.46,.66,.14,.88,.93,.6,1.47-1.93,3.71,3.93,7,6.45,8.39,3.76,2.07,7.8,3.53,11.99,4.43,.33,.07,.61,.38,.7,.7,1.6,6.04,8.27,10.02,14.34,8.51,.64-.16,1.26,.3,1.27,.96,.08,4.89,5.7,7.7,9.49,9.55,4.29,2.1,8.89,3.56,13.6,4.37,1.97,.34,4.19,.31,5.7,1.82,1.33,1.33,2.24,2.99,3.67,4.26,5.76,5.16,14.22,6.2,21.63,5.48,.67-.07,1.11,.69,.96,1.27-.65,2.65,1.9,4.78,3.92,5.98,2.11,1.25,4.41,2.13,6.78,2.74,4.92,1.26,10.04,1.41,15.09,1.53,.4,0,.9,.3,.96,.73,1.23,8.69,9.9,12.72,17.11,15.76,.29-.64,.56-1.29,.86-1.92Z"/>
<path class="cls-1" d="M182.54,178.28c-3.82,3.77-7.7,7.47-11.86,10.86-6.89,5.61-14.46,10.29-21.69,15.45-7.04,5.02-13.83,10.38-20.35,16.05-12.07,10.49-23.2,22.06-33.26,34.49,7.16-2.8,14.59-8.54,20.03-13.13,11.65-9.83,24.16-18.64,37.34-26.29,6.43-3.73,13.05-7.04,19.68-10.38,6.19-3.12,12.33-6.59,16.93-11.89,.01-.01,.02-.01,.03-.03-.3-.62-.59-1.24-.88-1.88-1.99-4.42-3.98-8.84-5.97-13.26Z"/>
<path class="cls-1" d="M275.12,12.28c-5.74,2.54-11.46,5.13-17.18,7.73-5.03,2.29-10.18,4.42-15.07,7-4.15,2.19-8.1,4.99-10.09,9.39-.03,.06-.07,.1-.11,.15,1.04,.78,1.63,1.8,1.88,2.92,.03-.03,.06-.05,.1-.08,5.27-3.38,10.6-6.64,16.01-9.8,17.9-10.44,36.53-19.6,55.69-27.47-4.97,.38-9.84,1.61-14.57,3.26-5.68,1.97-11.17,4.47-16.66,6.9Z"/>
<path class="cls-1" d="M236.04,41.03c-.36,.4-.72,.8-1.09,1.19-.1,.11-.23,.18-.37,.23-.25,1.49-.82,2.98-1.47,4.23-2.36,4.49-4.78,9.19-7.82,13.26-1.49,2-3.33,3.6-5.37,4.81,.14,.16,.22,.37,.19,.65-.25,2.08-.13,4.13,.34,6.17,.95,4.13,2.97,7.9,4.85,11.65,1.78,3.54,3.37,7.16,4.56,10.95,2.29,7.32,3.3,15.14,2.59,22.79-.7,7.52-3.05,14.88-7.29,21.17-4.42,6.54-10.46,11.71-16.57,16.61-2.01,1.61-4,3.24-5.98,4.88,.14,.26,.19,.58,.02,.92-2.08,4.13-4.18,8.29-5.5,12.74-1.21,4.08-1.48,8.15-1.09,12.38,.15,1.59,.31,3.21,.74,4.76,.03-.02,.05-.05,.09-.08,3.08-1.7,6.21-3.41,8.79-5.83,1.28-1.2,2.31-2.63,3.59-3.82,1.12-1.04,2.43-1.81,3.79-2.51,.02-.02,.03-.04,.06-.05,5.56-3.51,10.56-7.8,14.9-12.75,.28-.32,.63-.37,.94-.26,5.49-7.2,9.77-15.32,12.64-23.9,5.45-16.25,5.97-33.95,1.18-50.42-2.73-9.37-6.81-18.42-8.23-28.14-1.13-7.73-.62-15.96,3.24-22.85-.52,.33-1.05,.65-1.57,.98-.05,.08-.09,.17-.16,.24Z"/>
<path d="M311.2,.04c-12.23-.55-23.66,4.6-34.6,9.41-5.9,2.6-11.77,5.24-17.64,7.9-5.48,2.49-11.07,4.83-16.43,7.58-.84,.43-1.67,.9-2.5,1.38-.07,0-.13-.01-.2,0-7.19,1.73-14.56,.12-21.77-.64-6.44-.68-12.82-.47-18.79,2.28-5.17,2.38-9.62,6.34-12.64,11.15-3.51,5.6-4.57,12.14-4.52,18.67,.01,2.14,.13,4.28,.28,6.42-.2,0-.4-.03-.59-.05-.59-.09-1.16-.24-1.72-.47-.07-.03-.16-.04-.24-.04-26.01-11.22-52.3-22.47-80.14-28.31-6.96-1.46-14.98-3.55-21.67-.12-.8,.41-.54,1.58,.24,1.83,3.54,1.11,6.58,3.49,8.55,6.64,.85,1.36,1.35,2.77,1.8,4.26-14.62-3.36-29.47-5.53-44.52-5.63-14.68-.1-29.41,1.79-43.39,6.33-.78,.25-.84,1.13-.47,1.63-.25,.27-.32,.67-.04,1.07,1.73,2.39,3.83,4.44,6.33,6.02,1.37,.87,2.88,1.44,4.3,2.24,1.45,.81,2.4,2.06,3.47,3.28,3.72,4.24,9.16,6.22,14.54,7.43-.89,3.7,2.77,6.95,5.7,8.77,4.27,2.64,8.98,4.53,13.88,5.63,2.02,6.39,8.88,10.56,15.46,9.55,.6,3.62,3.63,6.25,6.68,8.1,4.2,2.54,8.85,4.43,13.59,5.66,2.36,.61,4.77,.86,7.15,1.35,2.26,.47,3.22,2.85,4.74,4.39,2.79,2.8,6.4,4.66,10.17,5.73,4.05,1.15,8.32,1.44,12.51,1.14-.08,4.93,6.29,7.94,10.29,9.25,5.39,1.77,11.15,2.01,16.78,2.16,1.68,8.82,10.54,13.13,18.08,16.33-2.03,4.72-3.84,9.54-5.95,14.24-5.2,11.58-11.99,22.49-19.14,32.96-7.06,10.34-14.77,20.24-23.06,29.62-4.53,5.12-9.27,10.04-14.09,14.89-4.25,4.27-8.67,9.06-9.56,15.26-.03,.23,.02,.43,.1,.6-.09,.11-.18,.22-.26,.33-.64,.81,.16,1.9,.92,1.74,.11,0,.23,.01,.36-.03,6.95-1.96,15.14-7.21,20.47-11.85,5.84-5.07,11.88-9.9,18.15-14.44,12.51-9.06,25.8-16.79,39.63-23.64,6.86-3.4,13.8-7.05,18.98-12.81,.36,.58,.74,1.14,1.19,1.67,1.29,1.5,2.75,2.82,3.98,4.38,4.65,5.89,7.55,13.08,13.69,17.72,.86,.65,1.78-.57,1.37-1.37-3.12-6.05-2.52-13.5,1.68-18.88,.94-1.21,2.06-2.31,3.28-3.23,.6-.45,1.23-.86,1.88-1.23,.05-.03,.17-.08,.3-.14,.03,.03,.05,.06,.08,.09,.52,.82,1.7,.98,2.44,.41,.57-.45,1.01-1.24,1.44-1.81l.52-.69c.96,2.33,2.88,4.13,4.85,5.79,1.3,1.09,2.65,2.08,4.38,2.31,2.05,.27,4.05-.44,5.93-1.17,.81-.32,1.08-1.74,0-1.93-1.96-.35-2.99-2.1-3.8-3.76-.51-1.05-1.05-2.16-1.26-3.32-.25-1.41,.31-2.61,1.05-3.76,1.31-2.03,2.97-3.83,4.67-5.54,.84-.84,1.69-1.65,2.55-2.47,.43-.4,.85-.88,1.34-1.21,.12-.08,1.53-.6,1.27-.11-.52,1.01,.72,1.99,1.57,1.21,3.7-3.37,2.18-8.56,.06-12.33-.27-.48-.9-.62-1.37-.36-3.34,1.84-5.67,5.02-8.11,7.86-2.5,2.91-5,5.83-7.5,8.74-.76-1.14-1.77-2.05-2.97-2.71,2.44-3.44,3.56-7.51,4.43-11.62,.03-.03,.06-.06,.09-.09,10.48-13.2,16.77-29.39,18.27-46.16,.76-8.45,.27-17.01-1.51-25.3-2.04-9.56-6.11-18.51-8.5-27.97-2.37-9.39-2.87-20,2.41-28.51,.15-.08,.28-.19,.38-.34,.23-.34,.47-.67,.72-1,.5-.63,1.03-1.23,1.6-1.8,16.29-10.01,33.22-18.99,50.66-26.84,5.7-2.56,11.45-5,17.25-7.33,.24-.09,.39-.26,.5-.44,1.26,.03,1.25-1.94-.02-2ZM87.1,40.7c-1.61-1.96-3.64-3.53-5.91-4.63,5.57-1.74,12.01-.04,17.51,1.1,6.79,1.41,13.51,3.15,20.16,5.14,13.41,4.01,26.49,9.01,39.42,14.35,6.73,2.78,13.42,5.66,20.1,8.54,.08,.1,.17,.19,.29,.25,.79,.39,1.55,.84,2.26,1.36,.08,.06,.16,.12,.24,.18,0,0,0,0,0,0,.04,.03,.08,.06,.11,.09,.17,.14,.34,.28,.51,.43,.31,.27,.6,.55,.88,.85,.33,4.63,.58,9.25,.02,13.87-7.01-4.32-14.49-7.86-22.16-10.94-12.53-5.04-25.38-9.44-38.2-13.68-10.34-3.42-20.84-6.56-31.47-9.1-.5-1.03-.91-2.94-1.1-3.39-.67-1.6-1.58-3.06-2.68-4.4Zm60.47,90.09c-.06-.43-.57-.72-.96-.73-5.05-.13-10.17-.27-15.09-1.53-2.37-.61-4.67-1.48-6.78-2.74-2.02-1.2-4.58-3.33-3.92-5.98,.14-.58-.29-1.33-.96-1.27-7.41,.72-15.88-.32-21.63-5.48-1.42-1.28-2.33-2.93-3.67-4.26-1.51-1.51-3.73-1.48-5.7-1.82-4.71-.81-9.31-2.27-13.6-4.37-3.79-1.85-9.41-4.66-9.49-9.55-.01-.66-.63-1.12-1.27-.96-6.07,1.51-12.74-2.47-14.34-8.51-.08-.32-.37-.63-.7-.7-4.19-.9-8.23-2.36-11.99-4.43-2.52-1.39-8.38-4.68-6.45-8.39,.28-.54,.07-1.33-.6-1.47-5.59-1.16-11.15-3-14.98-7.46-.88-1.03-1.73-2.06-2.86-2.83-1.25-.84-2.69-1.34-4-2.07-2.62-1.45-4.87-3.47-6.63-5.89,24.68-7.84,51.21-7.32,76.45-2.53,3.75,.71,7.48,1.52,11.2,2.4,.46,.61,1.09,1.04,1.95,.94,.27-.03,.47-.16,.63-.32,8.3,2.04,16.51,4.44,24.65,7.05,12.59,4.03,25.1,8.42,37.47,13.08,13.42,5.06,26.62,11.11,37.77,20.28,.02,.12,.05,.25,.12,.36,.02,.03,.03,.07,.05,.1,.05,.13,.08,.26,.11,.4,.01,.16,.02,.32,0,.47,0-.06,.02-.12,.02-.17-.04,.13-.05,.26-.02,.38,0,.1,.05,.19,.09,.29-1.34,5.86-4.57,11.09-7.48,16.29-3.29,5.88-6.59,11.75-9.88,17.63-3.26,5.82-6.67,11.59-9.51,17.62-.3,.64-.57,1.28-.86,1.92-7.2-3.04-15.88-7.07-17.11-15.76Zm-44.82,110.98c4.28-4.31,8.51-8.65,12.58-13.16,8.29-9.21,16.02-18.93,23.13-29.08,7.25-10.35,14.11-21.15,19.61-32.54,2.82-5.84,5.06-11.93,7.63-17.88,2.64-6.1,5.91-11.87,9.15-17.66,3.7-6.59,7.39-13.19,11.09-19.78,3.44-6.14,7.49-12.36,8.71-19.41,.08-.49-.16-.86-.49-1.07-.03-.08-.06-.15-.09-.23,.08-.29,.03-.61-.29-.87-2.94-2.44-6.03-4.65-9.21-6.71,0,0,0-.01,0-.02,.97-7.03,.1-14.04-.3-21.07-.38-6.75-.26-13.8,2.85-19.97,2.56-5.07,6.71-9.24,11.71-11.91,5.73-3.05,11.98-3.43,18.34-2.82,6.35,.61,12.73,1.91,19.08,1.33-2.17,1.76-4.02,3.86-5.2,6.47-.04,.08-.04,.16-.05,.23-6.73-3.36-14.57-4.28-21.9-2.52-3.72,.9-7.55,2.45-10.33,5.15-2.77,2.68-4.16,6.41-4.87,10.13-.74,3.81-1.29,8.17,.69,11.71,1.87,3.36,5.56,5.43,9.15,6.5,4.83,1.44,9.96,1.11,14.36-.89-.84,8.19,4.21,15.33,7.39,22.48,3.16,7.09,4.98,14.85,5.17,22.62,.18,7.64-1.26,15.38-4.79,22.2-3.6,6.97-9.25,12.5-15.22,17.47-6.25,5.22-12.76,10.08-18.67,15.69-6.27,5.95-12.16,12.28-18.61,18.04-6.69,5.98-14.16,10.87-21.53,15.94-6.98,4.81-13.75,9.93-20.26,15.36-12.96,10.8-24.92,22.79-35.68,35.79-.37,.45-.73,.91-1.1,1.36,1.56-4.23,4.77-7.69,7.94-10.89ZM230.62,47.06c-1.88,3.42-3.73,6.87-5.86,10.14-2.03,3.11-4.55,5.67-8.07,7.03-3.41,1.31-7.2,1.6-10.78,.86-3.33-.7-6.89-2.24-8.99-5.04-2.26-3.02-1.83-7.05-1.22-10.54,.58-3.3,1.6-6.72,3.91-9.26,2.35-2.58,5.71-4.04,9.01-4.95,7.56-2.1,15.82-1.07,22.66,2.75,3.08,2.07,.67,6.58-.67,9.02Zm-41.26,146.38c-4.61,5.3-10.74,8.77-16.93,11.89-6.63,3.34-13.25,6.65-19.68,10.38-13.18,7.65-25.69,16.46-37.34,26.29-5.44,4.59-12.87,10.32-20.03,13.13,10.06-12.43,21.19-24,33.26-34.49,6.52-5.67,13.32-11.03,20.35-16.05,7.22-5.15,14.8-9.84,21.69-15.45,4.16-3.39,8.04-7.09,11.86-10.86,1.99,4.42,3.98,8.84,5.97,13.26,.29,.64,.58,1.26,.88,1.88-.01,.01-.02,.01-.03,.03Zm33.35-14.34c-.5,.61-.29,1.39,.44,1.67,1.72,.66,2.96,1.95,3.71,3.61,.25,.57,1.18,.66,1.57,.2l8.06-9.4c2.19-2.55,4.3-5.48,7.14-7.36,1.19,2.37,2.08,5.26,.86,7.58-.16-.15-.33-.28-.54-.39-1.22-.64-2.54-.01-3.51,.78-2.79,2.29-5.43,5.06-7.61,7.92-1.04,1.37-2.13,2.86-2.45,4.59-.33,1.75,.3,3.39,.98,4.97,.74,1.71,1.7,3.56,3.17,4.73-.72,.2-1.45,.34-2.19,.33-1.69-.02-2.91-1-4.14-2.04-1.95-1.66-4.24-3.62-4.55-6.32-.12-1.02-1.25-1.32-1.86-.5-.65,.86-1.29,1.71-1.94,2.57-.07,.09-.56,.69-.53,.9-.12-.13-.32-.37-.36-.41-1.01-.93-1.82-.36-2.84,.25-2.66,1.6-4.93,3.84-6.58,6.47-2.9,4.62-3.58,10.23-2.2,15.4-4.08-4.37-6.67-10.09-10.37-14.76-1.15-1.45-2.48-2.71-3.71-4.08-1.5-1.67-2.33-3.72-3.24-5.74-1.96-4.34-3.91-8.68-5.87-13.02-.05-.1-.11-.16-.17-.23,1.94-1.93,3.88-3.87,5.83-5.79,3.15-3.1,6.42-6.03,9.75-8.88-1.53,3.1-2.98,6.24-4.05,9.53-1.41,4.33-1.92,8.73-1.55,13.27,.32,3.95,.72,8.25,3.88,11.03,1.16,1.02,3.02,2.73,4.69,2.52,1.75-.22,3.41-2.15,4.5-3.4,2.83-3.25,5.48-8.33,10.37-8.46,.76-.02,1.25-.83,.86-1.5-1.11-1.93-2.22-3.85-3.33-5.78,.04-.05,.08-.09,.11-.14,4.31-2.82,8.3-6.1,11.89-9.8-.82,3.48-1.95,6.9-4.25,9.68Zm-25.27,13.09c.14,0,.29-.04,.44-.13,3.06-1.69,6.14-3.41,8.76-5.75,1.28-1.14,2.32-2.48,3.5-3.71,.91-.94,1.96-1.64,3.08-2.26,.87,1.5,1.73,3,2.6,4.51-2.76,.61-5.05,2.52-6.87,4.69-1.18,1.41-2.23,2.92-3.45,4.3-.58,.65-1.19,1.28-1.87,1.84-.28,.23-.74,.68-1.11,.77-.61,.15-1.29-.44-1.75-.75-1.4-.95-2.58-2.04-3.34-3.51ZM234.53,62.65c1.42,9.72,5.5,18.77,8.23,28.14,4.79,16.47,4.27,34.18-1.18,50.42-2.88,8.58-7.15,16.7-12.64,23.9-.31-.11-.66-.06-.94,.26-4.34,4.95-9.34,9.23-14.9,12.75-.02,.01-.04,.04-.06,.05-1.35,.7-2.66,1.46-3.79,2.51-1.28,1.19-2.32,2.62-3.59,3.82-2.58,2.42-5.71,4.14-8.79,5.83-.04,.02-.06,.05-.09,.08-.43-1.55-.59-3.17-.74-4.76-.39-4.23-.12-8.3,1.09-12.38,1.32-4.45,3.41-8.61,5.5-12.74,.17-.34,.13-.66-.02-.92,1.97-1.64,3.96-3.26,5.98-4.88,6.11-4.9,12.15-10.06,16.57-16.61,4.24-6.29,6.6-13.65,7.29-21.17,.71-7.65-.29-15.47-2.59-22.79-1.19-3.79-2.78-7.4-4.56-10.95-1.89-3.76-3.91-7.53-4.85-11.65-.47-2.04-.59-4.09-.34-6.17,.03-.28-.05-.5-.19-.65,2.04-1.21,3.88-2.81,5.37-4.81,3.04-4.07,5.45-8.77,7.82-13.26,.65-1.24,1.23-2.73,1.47-4.23,.14-.05,.27-.11,.37-.23,.36-.4,.72-.79,1.09-1.19,.07-.07,.11-.16,.16-.24,.52-.33,1.05-.65,1.57-.98-3.86,6.9-4.37,15.12-3.24,22.85Zm16.14-33.05c-5.4,3.15-10.74,6.42-16.01,9.8-.04,.02-.06,.05-.1,.08-.25-1.13-.84-2.15-1.88-2.92,.03-.05,.08-.08,.11-.15,1.99-4.4,5.94-7.2,10.09-9.39,4.89-2.58,10.04-4.71,15.07-7,5.72-2.6,11.44-5.18,17.18-7.73,5.49-2.43,10.98-4.93,16.66-6.9,4.73-1.64,9.6-2.88,14.57-3.26-19.16,7.87-37.79,17.03-55.69,27.47Z"/></g></g></svg>
