<svg id="Calque_2" xmlns="http://www.w3.org/2000/svg" viewBox="0 0 319.82 233.66">
<g id="Calque_4"><g>
<path class="cls-1" d="M34.07,101.98c.12-.01,.24-.03,.36-.04,10.17-1.03,20.46-.87,30.54,.89-5.01-5.17-9.57-10.8-13.31-16.97-3.97-6.55-6.97-13.81-8.53-21.33-5.46-1.75-11.14-2.74-16.89-2.85-2.66-.05-5.33,.07-7.98,.38-1.45,.17-2.91,.37-4.34,.69-.86,.19-1.84,.44-2.52,1.03-1.15,.99-.42,2.47,.02,3.65,.43,1.17,.89,2.34,1.37,3.49,.96,2.29,2.03,4.54,3.18,6.74,4.59,8.74,10.64,16.65,17.86,23.39,.31,.29,.35,.64,.25,.94Z"/>
<path class="cls-1" d="M80.73,137.93c1.38-1.4,2.91-2.6,4.79-3.37,2.77-1.13,5.81-1.21,8.63-.37-.48-2.05-.4-4.15,.18-6.09-.03,0-.06,0-.09,0-.08-.03-.16-.07-.24-.1-.73-.52-1.41-1.11-1.99-1.79-.12-.12-.21-.27-.26-.44,0-.05-.01-.1-.02-.14-1.15-1.23-2.26-2.5-3.29-3.83-10.25-13.27-13.66-30.65-12.41-47.11,.46-6.09,1.48-12.11,2.91-18.06,0,0-.01,0-.02,0-.12-.04-.23-.11-.32-.21-.19-.25-.38-.49-.57-.74-.03-.03-.05-.07-.08-.1-.14-.14-.28-.28-.44-.4-.13-.09-.26-.19-.4-.27-.23-.13-.38-.35-.46-.6-.04-.13-.05-.27-.02-.41-5.94-4.65-12.54-8.47-19.55-11.25-3.18-1.26-6.5-2.47-9.85-3.18-1.16-.25-1.4,.2-1.67,1.2-.24,.85-.44,1.72-.62,2.58-.38,1.79-.65,3.6-.81,5.42-.42,4.79-.12,9.6,.75,14.32,0,0,.01,0,.02,0,.85,.29,.84,1.33,.33,1.77,.34,1.58,.75,3.15,1.22,4.71,4.02,13.24,12.45,24.64,22.23,34.22,.75,.73-.03,1.87-.97,1.67-11.62-2.45-23.59-2.56-35.36-1.19-5.26,.61-10.48,1.52-15.65,2.64-2.63,.57-5.25,1.19-7.86,1.86-1.3,.33-2.6,.68-3.89,1.04-.9,.25-3.13,.4-2.87,1.66,.23,1.09,1.62,2.25,2.35,3.05,.8,.87,1.63,1.72,2.48,2.54,1.76,1.7,3.61,3.3,5.52,4.83,3.84,3.11,7.87,6.01,12.07,8.62,16.43,10.18,37.34,15.76,55.82,7.63,.15-.07,.3-.09,.45-.09Z"/>
<path class="cls-1" d="M108.35,140.7c.09,.17,.13,.35,.12,.52,6.26,3.21,11.76,8.46,18.91,9.58,6.76,1.06,13.24-1.48,19.23-4.5-1.22-.27-2.41-.78-3.48-1.48-2.86-1.87-4.74-4.79-6.9-7.37-2.21-2.64-4.91-5.11-8.26-6.14-3.94-1.21-8.09-.16-11.97,.82-.65,.16-1.24-.31-1.27-.96-.21-5.84-5.68-10.32-11.45-9.07-5.88,1.27-9.19,7.73-6.7,13.25,.41,.92-.43,1.83-1.37,1.37-3.46-1.69-7.65-1.43-10.86,.72-3.12,2.09-5.19,5.5-7.6,8.31-4.76,5.54-10.33,10.35-16.46,14.33,2.94,2,7.2,2.41,10.57,2.49,6.96,.16,13.94-2.02,19.51-6.21,5.74-4.32,9.82-10.41,13.79-16.3,.09-.14,.21-.24,.33-.31,0-.12,0-.24,.03-.34,.06-.25,.25-.46,.46-.6,.21-.14,.53-.17,.77-.1,.13,.03,.24,.09,.34,.18,.1,.07,.18,.16,.24,.26-.02-.03-.04-.06-.06-.08,.22,.29,.49,.54,.77,.77,.01,0,.02,.01,.03,.02,.52,.09,1,.37,1.26,.86Z"/>
<path class="cls-1" d="M110.03,72.54c-1.03-9.07-2.68-18.61-7.15-26.69-1.75,4.91-3.29,9.89-4.56,14.94-2.47,9.84-4.15,19.99-4.44,30.14-.28,9.96,.93,20.09,5.05,29.25,.03,.06,.02,.11,.04,.17,.06,.06,.13,.11,.18,.19l.2,.37c.06,.1,.09,.21,.11,.32,.03,.06,.06,.13,.09,.19,.98-.56,2.05-1,3.23-1.26,1.36-.29,2.71-.33,4-.15,1.4-5.48,2.48-11.05,3.15-16.66,1.23-10.22,1.28-20.58,.11-30.81Z"/>
<path class="cls-1" d="M128.64,74.46c-.97,17.55-4.39,35.62-13.78,50.74,.9,1.39,1.53,2.98,1.78,4.71,3.2-.78,6.49-1.44,9.78-.98,.16-.23,.4-.4,.75-.42,12.67-.91,25.41-1.94,37.8-4.94,10.49-2.55,20.51-6.65,29.65-12.42,4.42-2.79,8.82-5.9,12.58-9.55,1.14-1.11,5.44-5.26,3.5-6.83-.96-.77-2.5-1.11-3.64-1.54-1.32-.5-2.64-.99-3.97-1.47-9.31-3.3-19.13-5.71-29-6.59-.3,.16-.62,.11-.88-.07-11.91-.95-23.89,.37-35.17,5.08-1.01,.42-1.55-1-.97-1.67,5.61-6.51,10.43-13.67,14.37-21.31,3.52-6.83,6.31-14.02,8.33-21.43,2.08-7.65,3.8-15.88,3.27-23.84-.08-1.17-.02-5.5-1.76-5.6-.97-.05-2.2,.5-3.14,.74-.97,.25-1.95,.5-2.92,.76-4.1,1.09-8.18,2.29-12.13,3.85-7.04,2.79-13.79,6.92-18.39,13.05,0,0,0,0,0,0,3.67,12.83,4.69,26.39,3.95,39.72Z"/>
<path class="cls-1" d="M161.58,46.72c-4.05,14.65-11.12,28.39-20.63,40.22,10.34-3.66,21.47-4.75,32.4-3.89,3.67-4.4,7.02-9.06,9.98-13.96,2.71-4.48,5.12-9.14,7.19-13.94,1.07-2.49,2.05-5.02,2.94-7.57,.42-1.22,.83-2.45,1.21-3.68,.24-.79,1.22-2.74,.78-3.56-.49-.92-3.35-.31-4.15-.25-1.31,.1-2.62,.22-3.93,.37-2.91,.33-5.81,.8-8.68,1.38-5.54,1.13-10.98,2.73-16.26,4.74-.33,.13-.6,.06-.81-.09-.02,.07-.04,.14-.06,.22Z"/>
<path class="cls-1" d="M93.81,124.93c.11,.12,.19,.24,.23,.37,.02,0,.05,0,.07,0,.13,.03,.24,.09,.34,.18,.11,.07,.19,.16,.26,.28,.12,.15,.23,.31,.35,.46,.68-1.38,1.64-2.62,2.82-3.63,0,0,0,0-.01-.01-.15-.34-.31-.68-.46-1.02-.03-.05-.05-.1-.06-.15-.05-.06-.11-.12-.15-.21-2.33-5.18-3.83-10.65-4.61-16.27-1.4-10.1-.67-20.36,.9-30.4,1.67-10.68,4.43-21.16,8.2-31.29,.3-.8,1.34-1.01,1.83-.24,3,4.78,4.88,10.15,6.17,15.62,4.74,20.21,4.14,41.78-.98,61.86,1.84,.6,3.5,1.66,4.82,3.06,.86-1.41,1.68-2.83,2.44-4.3,7.93-15.31,10.55-33.19,10.88-50.26,.33-17.35-2.55-35-10.75-50.45-1.86-3.51-3.99-6.89-6.37-10.08-1.25-1.66-2.57-3.27-3.96-4.81-.58-.64-1.54-2.13-2.35-1.25-.65,.72-1.08,1.91-1.54,2.76-4.38,7.98-8.32,16.2-11.78,24.61-6.79,16.51-12.44,34.12-12.32,52.15,.1,15.6,4.98,31.64,16.04,43Z"/>
<path class="cls-1" d="M241.46,179.44c6.13-4.6,13.32-7.85,20.71-9.86,4.48-1.22,9.06-2.05,13.68-2.63,4.98-3.89,8.94-8.92,12.18-14.31,1.83-3.04,3.45-6.2,4.97-9.41,.74-1.57,1.46-3.15,2.18-4.73,.61-1.36,1.62-2.99,1.51-4.55-12.94,.85-26.45,1.98-37.62,9.13-.05,.13-.13,.26-.22,.35-.61,.58-1.18,1.21-1.71,1.87-.12,.15-.31,.22-.51,.25-1.19,6.87-3.49,13.44-6.65,19.66-2.51,4.94-5.46,9.62-8.52,14.23Z"/>
<path class="cls-1" d="M218.36,192.74c-2.23,1.83-3.34,4.89-2.6,7.69,.75,2.84,3.07,5.06,5.85,5.9,.03,0,.05-.03,.09-.04,3.64-.65,7.72-2.09,9.21-5.82,2.68-6.7-7.65-11.76-12.56-7.73Z"/>
<path class="cls-1" d="M317.54,168.66c-.28-.2-1.2-.18-1.48-.21-.41-.05-.81-.1-1.22-.14-.81-.09-1.63-.16-2.45-.22-1.63-.12-3.27-.2-4.91-.24-3.35-.09-6.7-.05-10.06,0-6.93,.1-13.95,.3-20.87,1.09-.02,.01-.04,.03-.06,.05-.34,.26-.68,.24-.94,.07-5.81,.71-11.55,1.87-17.11,3.77-10.34,3.53-20.06,9.77-26.08,19.06-.14,.21-.32,.34-.51,.41-.18,.31-.35,.61-.53,.92,.83,.92,1.49,1.98,1.81,3.19,.46,1.72,.2,3.53-.51,5.13,14.43,.87,28.95-.37,43.01-3.78,11.86-2.88,24.07-7.08,33.09-15.64,2.06-1.95,3.94-4.1,5.53-6.45,.78-1.15,1.49-2.35,2.13-3.58,.3-.59,.59-1.19,.86-1.79,.15-.34,.31-.69,.43-1.05,.18-.52,.21-.32-.14-.57Z"/>
<path class="cls-1" d="M203.71,184.32c-8.02-4.77-16.63-8.61-25.77-10.66-4.63-1.04-9.35-1.61-14.1-1.6-2.4,0-4.81,.15-7.19,.47-1.59,.21-3.65,.39-4.82,1.61,3.88,3.38,7.84,6.66,11.92,9.79,7.32,5.63,14.93,11.24,23.1,15.58,8.1,4.31,17.67,6.93,26.62,3.69,.21-.08,.39-.06,.55-.02,.19-.09,.39-.18,.59-.25-.55-1.07-.92-2.24-1.05-3.46-.26-2.51,.65-5.09,2.29-7.02-3.93-2.89-7.96-5.64-12.15-8.13Z"/>
<path class="cls-1" d="M226.63,190.03c2.41-3.8,4.7-7.69,6.74-11.71,7.25-14.29,11.32-31.13,6.06-46.68-2.07,3.34-4.13,6.69-6.08,10.1-8.02,14.02-14.57,30.27-11.06,46.67,.08,.36-.03,.65-.22,.86,1.54-.09,3.1,.19,4.56,.75Z"/>
<path class="cls-1" d="M219.03,188.68s.07,.06,.09,.1c.1,.22,.21,.45,.31,.67,.06,.11,.1,.23,.12,.35,.37-.14,.75-.24,1.14-.33-.15-.12-.27-.28-.33-.52-.99-4.61-1.25-9.33-.86-14.03,1.43-17.03,10.49-31.89,19.3-46.07,.48-.78,1.52-.54,1.83,.24,1.78,4.53,2.79,9.32,3.1,14.17,1.12,17.23-6.29,33.39-15.29,47.63,.44,.26,.86,.54,1.26,.84,.04,.03,.07,.06,.11,.09,.12-.21,.25-.42,.37-.63,.12-.21,.32-.34,.54-.43,1.59-2.43,3.42-4.66,5.43-6.69,0-.18,.04-.37,.17-.56,4.41-6.51,8.84-13.05,12.34-20.11,3.51-7.1,5.8-14.7,6.64-22.59,1.47-13.82-1.01-27.81-5.44-40.89-.53-1.57-1-3.25-1.73-4.74-.22-.45-.61-1.27-1.18-1.35-.74-.11-1.73,1-2.25,1.41-2.41,1.91-4.73,3.93-6.95,6.05-4.47,4.28-8.54,8.99-12.06,14.08-7.18,10.39-12.1,22.38-13.52,34.98-1.47,13.07,.64,26.53,6.82,38.2,.02,.05,.02,.09,.04,.14Z"/>
<path class="cls-1" d="M197.76,177.88c.36,.33,.38,.73,.22,1.05,6.8,3.44,13.26,7.62,19.33,12.11,.18-.14,.37-.26,.55-.38,0,0,0,0,0,0-.11-.09-.21-.19-.32-.28-.12-.12-.21-.27-.26-.44-.01-.09-.02-.18-.04-.27,0-.04,.01-.08,.02-.12,0,0,0,0,0,0-7.02-13.25-8.98-28.71-6.5-43.43-7.48-9.27-18.42-15.5-30.23-17.08,.12,17.61,3.65,36.46,17.22,48.84Z"/>
<path d="M315.58,166.38c-3.58-.42-7.19-.56-10.79-.59-8.39-.07-16.96-.03-25.42,.78,4.23-3.83,7.72-8.4,10.64-13.33,2.01-3.39,3.77-6.93,5.43-10.5,.8-1.72,1.58-3.44,2.34-5.18,.69-1.59,1.3-3.22,.69-4.93-.14-.4-.51-.76-.96-.73-13.81,.9-28.37,1.99-40.21,9.94-.04,.03-.08,.06-.11,.09,1.63-13.58-.53-27.43-4.67-40.4-.55-1.72-1.13-3.43-1.75-5.12-.49-1.35-.95-2.87-2.07-3.86-2.38-2.09-5.17,1.05-6.95,2.52-5.05,4.17-9.69,8.84-13.78,13.95-8.07,10.07-14.09,21.87-16.7,34.55-8.01-9.31-19.49-15.32-31.71-16.67-.54-.06-1,.51-1,1-.03,17.42,3.18,36.18,15.54,49.16-9.71-4.4-20.07-7.15-30.92-7-2.76,.04-5.53,.26-8.26,.72-2.07,.34-4.23,1.05-5.27,3.01-.2,.37-.18,.91,.16,1.21,7.42,6.5,15.2,12.59,23.31,18.2,7.8,5.4,16.1,10.99,25.58,12.83,5.01,.97,10.22,.87,15.06-.82,.03,.01,.06,.03,.09,.04,.18,.05,.35,.05,.53,0,.34-.05,.68-.1,1.03-.15,.13-.03,.24-.09,.34-.18,.05-.04,.09-.09,.13-.14,1.07,1.3,2.45,2.36,4.01,3.04,.05,.12,.14,.24,.27,.35,19,15.86,45.4,20.72,68.72,12.5-5.96,2.67-12.16,4.81-18.49,6.45-15.26,3.95-31.18,5.11-46.89,4.26-17.69-.96-35.01-4.66-50.88-12.71-14.46-7.34-27.33-17.6-37.96-29.84-10.87-12.53-19.4-27.06-25.47-42.48-.41-1.04-.81-2.09-1.2-3.15,6.45,3.42,12.12,8.65,19.6,9.62,8.8,1.14,16.97-3.1,24.47-7.12,1.14-.61,.13-2.3-1.01-1.73-3.28,1.65-6.86-.47-9.14-2.83-2.38-2.46-4.18-5.41-6.71-7.74-1.37-1.26-2.88-2.35-4.54-3.16,10.77-.8,21.55-1.81,32.12-4.13,11.2-2.45,21.96-6.56,31.74-12.56,4.74-2.9,9.39-6.19,13.48-9.97,1.88-1.74,3.82-3.8,4.84-6.19,.99-2.33-.13-4.03-2.3-4.95-10.93-4.63-22.71-7.9-34.52-9.17-.09,0-.18-.02-.27-.03,6.84-8.41,12.52-17.72,16.77-27.7,1.1-2.59,2.12-5.21,3.03-7.87,.47-1.36,.91-2.72,1.32-4.09,.33-1.09,.82-2.32,.6-3.48-.52-2.79-3.85-2.21-5.91-2.06-3.02,.22-6.04,.57-9.03,1.05-6.96,1.11-13.78,2.95-20.37,5.45,.84-3.28,1.53-6.61,2.05-9.96,.72-4.57,1.21-9.24,.75-13.86-.17-1.71-.24-3.92-1.35-5.32-1.27-1.6-3.16-1.01-4.86-.58-4.41,1.12-8.83,2.27-13.13,3.77-8.18,2.85-16.02,7.08-21.6,13.8-1.23-3.93-2.71-7.78-4.48-11.53-1.79-3.79-3.87-7.44-6.24-10.9-1.19-1.74-2.46-3.43-3.79-5.07-1.2-1.48-2.47-3.3-4.04-4.4-1.49-1.04-2.95-.46-3.84,1-1.25,2.05-2.35,4.22-3.47,6.35-2.19,4.17-4.27,8.4-6.22,12.69-4.93,10.82-9.42,22.13-12.41,33.75-.11-.12-.22-.25-.34-.36,.08-.29,0-.6-.31-.86-5.85-4.7-12.3-8.61-19.21-11.55-3.39-1.44-6.87-2.67-10.43-3.64-1.38-.38-3.19-1.08-4.45-.04-1.17,.97-1.37,3.03-1.67,4.4-1.47,6.64-1.48,13.4-.37,20.01-4.9-1.48-9.98-2.35-15.1-2.57-3.04-.13-6.1-.03-9.12,.31-2.41,.27-5.18,.43-7.38,1.57-2.28,1.18-2.71,3.24-1.91,5.57,.86,2.51,1.9,4.97,3.01,7.38,2.3,4.99,5.06,9.76,8.24,14.24,3.45,4.85,7.37,9.34,11.7,13.42-4.91,.57-9.78,1.37-14.62,2.38-2.79,.58-5.57,1.23-8.33,1.92-1.3,.33-2.6,.67-3.9,1.02-1.25,.34-2.63,.57-3.81,1.12-2.14,.99-1.69,3.27-.5,4.85,1.58,2.1,3.51,3.99,5.43,5.78,3.82,3.55,8,6.76,12.28,9.73,8.58,5.95,18.08,10.83,28.29,13.25,10.25,2.42,21.12,2.29,31.05-1.23-.35,.44-.7,.88-1.05,1.31-5.31,6.62-11.71,12.3-18.91,16.79-.53,.33-.69,1.12-.2,1.57,2.7,2.51,6.6,3.26,10.15,3.67,3.73,.42,7.53,.16,11.19-.68,7.54-1.74,13.85-6.12,18.85-11.94,2.67-3.11,5-6.49,7.29-9.88,5.55,15.58,13.43,30.31,23.66,43.32,10.28,13.06,22.97,24.23,37.42,32.46,15.36,8.76,32.26,13.56,49.83,15.22,16.42,1.55,33.16,.93,49.31-2.55,15.48-3.33,30.52-9.44,43.24-18.97,1.57-1.18,3.11-2.4,4.6-3.67,.98-.83-.44-2.24-1.41-1.41-1.02,.87-2.07,1.7-3.13,2.52-.19-.56-.77-.95-1.36-.5-9.68,7.47-21.29,12.33-33.43,13.89-11.97,1.54-24.27-.21-35.38-4.93-5.57-2.37-10.82-5.47-15.57-9.2,3.16-.68,6.36-2.02,8.35-4.58,14.04,.96,28.19-.1,41.92-3.15,12.62-2.81,25.7-7.01,35.57-15.72,4.4-3.89,8.08-8.65,10.34-14.1,.4-.96,.85-2.03,.14-2.96-.82-1.08-2.66-1.01-3.87-1.15ZM162.44,46.6c5.28-2.02,10.72-3.61,16.26-4.74,2.87-.59,5.77-1.05,8.68-1.38,1.31-.15,2.62-.27,3.93-.37,.8-.06,3.66-.67,4.15,.25,.43,.82-.54,2.77-.78,3.56-.38,1.23-.78,2.46-1.21,3.68-.89,2.56-1.87,5.09-2.94,7.57-2.08,4.8-4.48,9.47-7.19,13.94-2.97,4.9-6.31,9.56-9.98,13.96-10.92-.86-22.06,.23-32.4,3.89,9.51-11.84,16.58-25.58,20.63-40.22,.02-.07,.04-.14,.06-.22,.21,.15,.48,.22,.81,.09Zm-37.74-11.86c4.6-6.13,11.35-10.26,18.39-13.05,3.95-1.56,8.03-2.76,12.13-3.85,.97-.26,1.94-.51,2.92-.76,.94-.24,2.17-.79,3.14-.74,1.73,.1,1.68,4.43,1.76,5.6,.52,7.96-1.19,16.19-3.27,23.84-2.02,7.41-4.81,14.6-8.33,21.43-3.94,7.64-8.76,14.8-14.37,21.31-.57,.67-.04,2.09,.97,1.67,11.28-4.71,23.26-6.03,35.17-5.08,.26,.18,.58,.24,.88,.07,9.87,.88,19.69,3.29,29,6.59,1.33,.47,2.65,.96,3.97,1.47,1.14,.44,2.67,.77,3.64,1.54,1.94,1.56-2.35,5.71-3.5,6.83-3.76,3.65-8.16,6.76-12.58,9.55-9.14,5.77-19.16,9.87-29.65,12.42-12.38,3-25.12,4.03-37.8,4.94-.35,.03-.59,.2-.75,.42-3.29-.46-6.58,.2-9.78,.98-.25-1.73-.87-3.33-1.78-4.71,9.39-15.12,12.81-33.19,13.78-50.74,.74-13.33-.28-26.89-3.95-39.72,0,0,0,0,0,0Zm-34.61-4.96c3.46-8.42,7.4-16.64,11.78-24.61,.47-.85,.89-2.04,1.54-2.76,.8-.89,1.77,.61,2.35,1.25,1.39,1.54,2.72,3.15,3.96,4.81,2.38,3.19,4.51,6.57,6.37,10.08,8.2,15.45,11.08,33.1,10.75,50.45-.33,17.06-2.94,34.95-10.88,50.26-.76,1.46-1.58,2.89-2.44,4.3-1.33-1.4-2.98-2.46-4.82-3.06,5.11-20.08,5.72-41.65,.98-61.86-1.28-5.48-3.16-10.84-6.17-15.62-.48-.77-1.53-.56-1.83,.24-3.77,10.12-6.53,20.61-8.2,31.29-1.57,10.04-2.31,20.29-.9,30.4,.78,5.62,2.28,11.09,4.61,16.27,.04,.09,.1,.14,.15,.21,.02,.05,.04,.1,.06,.15,.15,.34,.31,.68,.46,1.02,0,0,0,0,.01,.01-1.19,1.01-2.14,2.25-2.82,3.63-.12-.15-.23-.31-.35-.46-.06-.12-.15-.21-.26-.28-.1-.09-.21-.15-.34-.18-.02,0-.05,0-.07,0-.05-.13-.12-.25-.23-.37-11.06-11.36-15.94-27.4-16.04-43-.11-18.03,5.53-35.64,12.32-52.15Zm16.67,90.25c-1.29-.18-2.63-.15-4,.15-1.18,.26-2.25,.7-3.23,1.26-.03-.06-.06-.13-.09-.19-.02-.11-.05-.22-.11-.32l-.2-.37c-.04-.08-.11-.13-.18-.19-.02-.06-.01-.11-.04-.17-4.11-9.16-5.33-19.29-5.05-29.25,.29-10.15,1.97-20.3,4.44-30.14,1.27-5.05,2.8-10.04,4.56-14.94,4.48,8.08,6.13,17.63,7.15,26.69,1.16,10.23,1.12,20.59-.11,30.81-.68,5.62-1.75,11.18-3.15,16.66ZM15.97,77.65c-1.16-2.2-2.22-4.45-3.18-6.74-.48-1.15-.94-2.32-1.37-3.49-.43-1.18-1.17-2.66-.02-3.65,.69-.59,1.66-.83,2.52-1.03,1.43-.32,2.89-.52,4.34-.69,2.65-.31,5.32-.43,7.98-.38,5.75,.11,11.42,1.1,16.89,2.85,1.56,7.52,4.56,14.78,8.53,21.33,3.74,6.17,8.3,11.8,13.31,16.97-10.07-1.76-20.36-1.91-30.54-.89-.12,.01-.24,.03-.36,.04,.1-.31,.06-.65-.25-.94-7.22-6.73-13.27-14.64-17.86-23.39Zm8.5,52.75c-4.2-2.61-8.23-5.51-12.07-8.62-1.9-1.54-3.76-3.14-5.52-4.83-.85-.82-1.68-1.67-2.48-2.54-.73-.8-2.12-1.95-2.35-3.05-.26-1.25,1.97-1.41,2.87-1.66,1.3-.36,2.59-.7,3.89-1.04,2.61-.67,5.23-1.29,7.86-1.86,5.17-1.12,10.39-2.03,15.65-2.64,11.77-1.37,23.74-1.26,35.36,1.19,.94,.2,1.72-.94,.97-1.67-9.78-9.58-18.22-20.99-22.23-34.22-.47-1.55-.87-3.12-1.22-4.71,.51-.44,.53-1.48-.33-1.77,0,0-.01,0-.02,0-.87-4.71-1.17-9.53-.75-14.32,.16-1.82,.43-3.63,.81-5.42,.18-.87,.39-1.73,.62-2.58,.27-1,.51-1.45,1.67-1.2,3.35,.71,6.67,1.92,9.85,3.18,7.01,2.78,13.61,6.6,19.55,11.25-.02,.14-.02,.27,.02,.41,.08,.25,.23,.46,.46,.6,.14,.08,.27,.17,.4,.27,.15,.13,.3,.26,.44,.4,.03,.03,.05,.07,.08,.1,.19,.25,.38,.49,.57,.74,.09,.1,.2,.17,.32,.21,0,0,.01,0,.02,0-1.42,5.95-2.44,11.98-2.91,18.06-1.25,16.45,2.16,33.83,12.41,47.11,1.03,1.33,2.14,2.6,3.29,3.83,0,.05,.01,.1,.02,.14,.05,.17,.13,.32,.26,.44,.58,.68,1.26,1.28,1.99,1.79,.08,.03,.16,.07,.24,.1,.03,0,.06,0,.09,0-.57,1.94-.66,4.03-.18,6.09-2.82-.84-5.86-.76-8.63,.37-1.87,.77-3.41,1.97-4.79,3.37-.14,0-.29,.02-.45,.09-18.48,8.13-39.39,2.56-55.82-7.63Zm82.59,9.42c-.28-.23-.55-.48-.77-.77,.02,.03,.04,.06,.06,.08-.06-.11-.14-.2-.24-.26-.1-.09-.21-.15-.34-.18-.24-.07-.56-.04-.77,.1-.21,.14-.4,.34-.46,.6-.02,.11-.03,.23-.03,.34-.12,.07-.23,.18-.33,.31-3.97,5.89-8.05,11.98-13.79,16.3-5.57,4.2-12.55,6.37-19.51,6.21-3.36-.07-7.63-.49-10.57-2.49,6.12-3.98,11.7-8.79,16.46-14.33,2.41-2.81,4.48-6.22,7.6-8.31,3.21-2.15,7.39-2.4,10.86-.72,.94,.46,1.78-.45,1.37-1.37-2.49-5.53,.83-11.98,6.7-13.25,5.77-1.25,11.24,3.24,11.45,9.07,.02,.66,.62,1.13,1.27,.96,3.87-.97,8.02-2.02,11.97-.82,3.36,1.03,6.05,3.5,8.26,6.14,2.16,2.58,4.03,5.5,6.9,7.37,1.07,.7,2.26,1.2,3.48,1.48-6,3.02-12.48,5.56-19.23,4.5-7.15-1.12-12.65-6.37-18.91-9.58,0-.18-.04-.36-.12-.52-.25-.49-.74-.77-1.26-.86-.01,0-.02-.01-.03-.02Zm150.08,5.48c.52-.66,1.09-1.29,1.71-1.87,.09-.09,.17-.21,.22-.35,11.17-7.14,24.68-8.27,37.62-9.13,.11,1.56-.9,3.19-1.51,4.55-.71,1.58-1.43,3.16-2.18,4.73-1.52,3.21-3.14,6.37-4.97,9.41-3.24,5.39-7.2,10.42-12.18,14.31-4.62,.57-9.2,1.41-13.68,2.63-7.39,2.01-14.58,5.26-20.71,9.86,3.06-4.61,6.01-9.29,8.52-14.23,3.15-6.22,5.46-12.79,6.65-19.66,.19-.04,.39-.1,.51-.25Zm-44.97,5.04c1.42-12.6,6.34-24.59,13.52-34.98,3.52-5.09,7.59-9.8,12.06-14.08,2.22-2.12,4.54-4.14,6.95-6.05,.52-.41,1.51-1.51,2.25-1.41,.57,.08,.96,.9,1.18,1.35,.73,1.49,1.2,3.17,1.73,4.74,4.43,13.08,6.91,27.07,5.44,40.89-.84,7.88-3.13,15.49-6.64,22.59-3.49,7.06-7.92,13.6-12.34,20.11-.13,.19-.18,.38-.17,.56-2.01,2.03-3.84,4.26-5.43,6.69-.22,.08-.41,.22-.54,.43-.12,.21-.25,.42-.37,.63-.04-.03-.07-.06-.11-.09-.4-.3-.82-.58-1.26-.84,9-14.24,16.41-30.4,15.29-47.63-.32-4.85-1.32-9.64-3.1-14.17-.31-.78-1.34-1.02-1.83-.24-8.81,14.18-17.87,29.03-19.3,46.07-.39,4.69-.13,9.42,.86,14.03,.05,.24,.18,.4,.33,.52-.38,.08-.76,.19-1.14,.33-.02-.12-.05-.24-.12-.35-.1-.22-.21-.45-.31-.67-.02-.04-.06-.06-.09-.1-.02-.05-.02-.09-.04-.14-6.18-11.66-8.29-25.13-6.82-38.2Zm10.13,38.07c-3.51-16.4,3.05-32.65,11.06-46.67,1.95-3.41,4.01-6.76,6.08-10.1,5.26,15.55,1.19,32.39-6.06,46.68-2.04,4.02-4.33,7.9-6.74,11.71-1.46-.56-3.02-.84-4.56-.75,.19-.22,.3-.5,.22-.86Zm-41.75-59.37c11.81,1.58,22.75,7.82,30.23,17.08-2.49,14.71-.53,30.17,6.5,43.43,0,0,0,0,0,0,0,.04-.02,.08-.02,.12,.01,.09,.02,.18,.04,.27,.05,.17,.13,.32,.26,.44,.11,.09,.21,.19,.32,.28,0,0,0,0,0,0-.19,.12-.38,.24-.55,.38-6.07-4.49-12.53-8.67-19.33-12.11,.16-.33,.13-.73-.22-1.05-13.57-12.38-17.11-31.23-17.22-48.84Zm33.04,70.43c.13,1.23,.5,2.4,1.05,3.46-.2,.07-.4,.16-.59,.25-.16-.05-.34-.06-.55,.02-8.95,3.24-18.52,.63-26.62-3.69-8.17-4.34-15.78-9.95-23.1-15.58-4.08-3.14-8.04-6.41-11.92-9.79,1.16-1.22,3.23-1.4,4.82-1.61,2.38-.32,4.78-.47,7.19-.47,4.74-.01,9.47,.56,14.1,1.6,9.13,2.05,17.74,5.89,25.77,10.66,4.19,2.49,8.22,5.24,12.15,8.13-1.63,1.93-2.55,4.51-2.29,7.02Zm17.35,1.01c-1.49,3.73-5.57,5.17-9.21,5.82-.04,0-.06,.03-.09,.04-2.78-.83-5.1-3.06-5.85-5.9-.74-2.81,.37-5.87,2.6-7.69,4.91-4.03,15.24,1.03,12.56,7.73Zm86.75-31.25c-.12,.36-.28,.7-.43,1.05-.27,.61-.55,1.2-.86,1.79-.64,1.24-1.35,2.43-2.13,3.58-1.59,2.35-3.47,4.5-5.53,6.45-9.02,8.56-21.24,12.76-33.09,15.64-14.05,3.41-28.58,4.65-43.01,3.78,.7-1.61,.97-3.42,.51-5.13-.33-1.21-.98-2.27-1.81-3.19,.18-.31,.35-.61,.53-.92,.19-.07,.37-.19,.51-.41,6.02-9.29,15.74-15.53,26.08-19.06,5.57-1.9,11.3-3.06,17.11-3.77,.26,.17,.6,.19,.94-.07,.02-.01,.04-.03,.06-.05,6.92-.79,13.93-.99,20.87-1.09,3.35-.05,6.71-.09,10.06,0,1.64,.04,3.27,.12,4.91,.24,.82,.06,1.63,.14,2.45,.22,.41,.04,.81,.09,1.22,.14,.28,.03,1.2,.01,1.48,.21,.35,.25,.31,.05,.14,.57Z"/></g></g></svg>
