<svg id="Calque_2" xmlns="http://www.w3.org/2000/svg" viewBox="0 0 358.98 254.21">
<g id="Calque_4"><g>

<path class="cls-1" d="M32.55,93.37c.24,.62,.39,1.26,.5,1.91,1.02-1.12,2.08-2.21,3.16-3.27,6.1-5.92,13.08-10.66,20.7-14.18-1.61-1.3-3.22-2.59-4.83-3.89-.42-.34-.35-1.07,0-1.41,.42-.41,.99-.34,1.41,0,1.21,.98,2.42,1.95,3.63,2.93-.48-3.2-.92-6.4-1.27-9.61-.13-1.17,1.65-1.29,1.96-.27,.81,2.69,1.46,5.42,1.97,8.18,1.95-2.6,3.75-5.3,5.39-8.11,.65-1.11,2.38-.1,1.73,1.01-1.98,3.39-4.2,6.63-6.62,9.72,1.77-.72,3.57-1.4,5.41-1.99,4.92-1.59,9.95-2.82,15.05-3.77-.17-.72-.34-1.44-.51-2.16-.34-.05-.65-.26-.75-.7-.4-1.75-.65-3.53-.75-5.33-.06-1.15,1.68-1.33,1.96-.27,.59,2.18,1.14,4.36,1.66,6.56,2.05-1.99,3.87-4.2,5.38-6.63,.68-1.09,2.41-.09,1.73,1.01-1.58,2.54-3.47,4.87-5.61,6.96,5.85-.94,11.76-1.49,17.65-1.69-.08-.81-.07-1.63,.02-2.44,.81-6.59,6.33-10.48,11.62-13.65-2.84-4.13-1.44-9.52,.75-13.77,2.38-4.62,5.9-8.86,9.41-12.66,3.73-4.04,7.97-7.67,12.75-10.41,0,0,0,0,0,0-10.02-1.82-20.32-2.05-30.42-.7-19.51,2.6-38.36,10.98-52.93,24.28-7.45,6.81-13.85,15.01-17.67,24.41-3.79,9.31-5.04,19.7-2.75,29.52,.11,.12,.2,.26,.27,.42Z"/>

<path class="cls-1" d="M111.58,215.12c-1.67,1.24-3.33,2.49-5,3.73-.44,.32-1.12,.07-1.37-.36-.29-.5-.07-1.05,.36-1.37,1.21-.9,2.42-1.8,3.62-2.7-1.4-.12-2.81-.16-4.22-.13-.91,.04-1.82,.08-2.74,.12-1.3,.06-1.27-1.9,0-2,.89-.07,1.79-.11,2.68-.12,.72-.03,1.44-.06,2.15-.1-2.32-1.35-4.76-2.52-7.29-3.45-.51-.19-.85-.67-.7-1.23,.13-.49,.72-.88,1.23-.7,3.5,1.28,6.83,2.96,9.94,5-2.15-5.53-4.01-11.17-5.46-16.93-.52-2.07-.99-4.16-1.4-6.27-2.18,2.06-4.33,4.17-6.41,6.33-.89,.93-2.31-.49-1.41-1.41,1.71-1.78,3.47-3.51,5.25-5.22-3.29,.21-6.58,.42-9.87,.62-1.29,.08-1.27-1.9,0-2,3.02-.24,6.05-.48,9.07-.72-2.85-2.05-5.73-4.06-8.66-5.99-1.07-.71-.07-2.44,1.01-1.73,3.56,2.35,7.06,4.79,10.5,7.31-1.56-9.03-2.05-18.24-1.14-27.35-1.92,1.12-3.8,2.3-5.61,3.59-1.05,.75-2.05-.99-1.01-1.73,1.42-1.01,2.89-1.95,4.38-2.85-.27-.05-.53-.11-.8-.16-1.81-.31-3.61-.66-5.4-1.09-1.26-.3-.72-2.18,.53-1.93,1.49,.3,2.98,.6,4.47,.91-2.07-2.22-4.18-4.4-6.36-6.52-.92-.9,.49-2.31,1.41-1.41,2.86,2.79,5.64,5.66,8.32,8.62,.12,.02,.23,.05,.35,.07,.17-1.28,.35-2.56,.57-3.83,2.04-11.63,6.87-23,14.03-32.49-2.21-.25-4.42-.39-6.64-.41-1.29-.02-1.29-2.02,0-2,1.44,.02,2.87,.08,4.3,.19-3.61-2.42-7.22-4.83-10.83-7.25-1.06-.71-.1-2.4,1.01-1.73,3.45,2.08,6.89,4.17,10.34,6.25-2.45-3.92-4.76-7.93-6.92-12.03-.6-1.14,1.03-2.09,1.73-1.01,2.66,4.16,5.33,8.31,7.99,12.47,.16-2.05,.17-4.1,.05-6.16-.08-1.29,1.92-1.28,2,0,.17,2.77,.05,5.52-.27,8.27,6.5-7.55,14.6-13.63,24.05-17.27,.1-.1,.19-.19,.29-.29,.12-.12,.27-.21,.44-.26,.09-.01,.18-.02,.27-.04,.12,0,.23,.03,.34,.07,.02-.05,.05-.11,.06-.13,0,0,0,0,0,0,0,0,0-.02,.01-.03,0,0,0,0,0-.01,.02-.03,.13-.17,.16-.2,0,0,0,0,0,0,0,0,.01-.01,.02-.02,0,0,0,0,0,0,.02-.02,.05-.04,.08-.06-.43-.57-.87-1.12-1.34-1.65-3.8-4.32-9.54-5.25-13.94-8.68-.38-.3-.75-.63-1.11-.98-1.33,.34-2.67,.67-4,1.01-.09,.05-.18,.09-.31,.11-.12,.02-.23,.04-.35,.05,0,0-.02,0-.02,0,0,0-.02,0-.03,0-2.01,.29-4.02,.59-6.02,.91-17.07,2.72-34.44,6.6-49.48,15.47-13.97,8.23-24.8,20.94-30.57,36.12-5.53,14.56-6.23,30.84-.81,45.54,5.16,14.01,15.45,26.13,28.4,33.54,6.74,3.86,14.19,6.36,21.91,7.26,9.62,1.12,19.31,.13,28.86-1.18-1.63-3.19-3.09-6.47-4.47-9.76-.09-.21-.17-.43-.26-.65Z"/>

<path class="cls-1" d="M29.2,150.14c-1.13,.63-2.13-1.1-1.01-1.73,1.62-.9,3.23-1.81,4.85-2.71-3.66-2.68-7.33-5.35-10.99-8.03-1.02-.75-.07-2.46,1.01-1.73,1.77,1.21,3.54,2.41,5.31,3.62,.91,.62,1.82,1.24,2.74,1.87,.43,.29,.86,.59,1.29,.88,.03,.02,.07,.05,.11,.08-.35-4.24-.62-8.48-.79-12.73-.05-1.29,1.95-1.28,2,0,.19,4.78,.5,9.55,.91,14.31,.94-3.04,2.07-6.02,3.4-8.9,2.33-5.08,5.22-9.79,8.58-14.11-1.66-1.23-3.32-2.45-4.98-3.68-.43-.32-.66-.86-.36-1.37,.26-.43,.93-.68,1.37-.36,1.05,.78,2.1,1.55,3.16,2.33-1.18-3.37-2.36-6.75-3.53-10.12-.43-1.23,1.47-1.71,1.93-.53,.73,1.89,1.46,3.77,2.19,5.66,.36,.92,.71,1.85,1.07,2.77,.1,.26,.2,.53,.31,.79,.81-2.84,1.62-5.69,2.43-8.53,.35-1.24,2.28-.71,1.93,.53-.85,2.98-1.7,5.95-2.55,8.93,5.29-5.98,11.55-11.08,18.53-15.17-1.27-1.07-2.55-2.15-3.82-3.22-.99-.83,.44-2.24,1.41-1.41,.9,.76,1.81,1.52,2.71,2.29-.09-2.45-.22-4.89-.41-7.33-.09-1.12,1.81-1.37,1.96-.27,.27,1.98,.54,3.96,.81,5.93,1.65-2.92,3.28-5.85,4.87-8.8,.61-1.13,2.34-.12,1.73,1.01-1.74,3.24-3.53,6.45-5.35,9.65,.07-.04,.14-.08,.21-.11,15.95-8.11,33.78-11.45,51.33-14.01,1.24-.31,2.48-.62,3.71-.94-1.62-2.22-2.53-4.94-1.84-7.53-3.99,.55-8.02,.58-12.02,.03-3.24-.44-6.76-1.11-9.23-3.41-1.1-1.03-1.85-2.32-2.28-3.72-13.17,.42-26.56,2.56-38.96,7.1-19.91,7.3-36.69,23.95-43.26,44.25-5.94,18.35-2.2,39.83,12.2,53.24,0,0,.02,0,.03,.01,.03,.02,.04,.05,.06,.07,.1,.1,.21,.19,.31,.29-1.53-9.17-.98-18.6,1.31-27.62-1.46,.82-2.92,1.63-4.38,2.45Z"/>

<path class="cls-1" d="M124.31,27.72c-3.2,3.53-6.38,7.4-8.59,11.64-1.96,3.75-3.6,8.97-.37,12.5,.43,.47,.37,1.23-.2,1.57-3.33,1.95-6.8,3.97-9.22,7.05-2.08,2.64-3.19,6.35-2.03,9.61,1.37,3.86,5.71,4.82,9.3,5.36,4.49,.67,9.09,.57,13.55-.22,.82-.15,1.6,.66,1.13,1.47-1.33,2.27-.58,4.85,.83,6.9,1.52,2.21,3.78,3.55,6.14,4.71,2.22,1.09,4.52,2.02,6.6,3.36,1.87,1.21,3.41,2.75,4.78,4.49,2.64,3.36,4.89,7.7,9.1,9.31,4.42,1.69,9.94,.7,14.25-.92,4-1.51,7.74-4.24,9.25-8.37,.21-.58,.89-.97,1.47-.6,5.07,3.23,11.21,1.54,16.42-.45,5.23-2,10.3-4.36,15.61-6.17,5.08-1.73,10.31-2.84,15.42-4.46,3.62-1.15,7.99-2.97,9.29-6.89,1.69-5.08-2.69-9.75-5.95-13.06-.77-.78,.05-1.8,.97-1.67,5,.68,10.55,0,14.11-3.92,2.99-3.27,4.19-8.15,3.34-12.47-.81-4.13-3.22-7.75-6.36-10.49-1.62-1.41-3.43-2.5-5.33-3.46-1.66-.84-3.22-1.76-4.28-3.27-.26-.13-.47-.36-.56-.63-.04-.11-.04-.23-.02-.36-.91-1.8-1.43-3.68-2.76-5.27-1.33-1.59-2.99-2.84-4.76-3.91-3.99-2.41-8.44-4.26-12.75-6.01-8.78-3.57-18.72-6.05-27.99-2.74-2.19,.78-4.16,1.93-6.03,3.3-1.78,1.3-3.51,2.68-5.56,3.51-1.08,.44-2.28,.67-3.47,.66-.13,.34-.41,.63-.86,.68-7.42,.88-13.77,7.27-14.61,14.7-.13,1.12-1.57,1.36-1.96,.27-1.29-3.53-5.64-4.43-8.9-3.5-3.93,1.12-7.26,4.17-10.04,7.04-1.48,1.54-2.86,3.18-4.1,4.92-1.11,1.57-2.79,3.66-1.97,5.69,.69,1.72,2.62,2.65,4.26,3.19,1.96,.65,3.95,1.08,5.74,2.15,.28,.17,.53,.52,.5,.86-.35,3.78-3.84,5.52-5.23,8.77-1.7,3.97,2.78,7.35,5.38,9.58,3.41,2.94,6.72,6.25,10.53,8.66,1.77,1.12,3.77,2.08,5.9,2.12,1.87,.03,3.49-.72,4.97-1.79,2.68-1.95,4.86-4.59,8.19-5.45,.64-.17,1.24,.31,1.27,.96,.06,1.92,.17,3.89,.8,5.72,.7,2.05,2.15,3.54,4.34,3.95,2.21,.41,4.58-.11,6.76-.54,4.72-.93,9.35-2.41,13.71-4.44,2.19-1.02,4.32-2.16,6.38-3.43,1.99-1.23,4.01-2.53,5.6-4.26,1.51-1.64,2.63-3.91,2.27-6.2-.3-1.91-2.18-3.51-1.79-5.54,.35-1.81,2.08-2.46,3.74-2.38,2.26,.11,4.4,.7,6.69,.59,4.24-.21,8.84-2.37,10.32-6.64,1.58-4.54-1.02-9.81-2.89-13.9-1.85-4.06-4.2-8-7.65-10.9-3.17-2.66-7.56-4.3-11.72-3.71-4.12,.59-6.77,4.25-10.77,5.01-2.21,.42-4.11-.41-5.99-1.48-2.11-1.19-4.26-2.32-6.57-3.11-4.28-1.48-9.08-1.88-13.11,.51-1.72,1.02-3.21,2.46-4.14,4.23-.45,.85-.76,1.8-.86,2.75-.12,1.03,.1,2.06-.05,3.09-.25,1.7-1.53,2.83-3.15,3.25-1.94,.5-3.77-.09-5.65-.58-2.55-.67-4.7-.18-6.14,2.15-1.27,2.06-1.37,4.64-1.54,6.99-.33,4.44-.56,10.24,3.7,13.01,2.12,1.38,4.59,.8,6.97,.96,2.25,.15,4.23,1.09,6.12,2.26,4.15,2.58,8.15,5.66,13.01,6.76,4.18,.95,8.67,.11,11.36-3.44,2.22-2.91,2.84-6.83,1.44-10.23-.33-.8,.58-1.32,1.23-1.23,4.67,.65,8.74-2.61,11.24-6.23,1.21-1.75,2.21-3.64,3.14-5.55,.93-1.91,1.73-4.07,.18-5.88-2.45-2.85-7.06-2.57-10.34-1.85-3.4,.75-6.57,2.18-9.65,3.76,1.56,.1,3.11,.21,4.67,.31,1.11,.07,1.37,1.63,.27,1.96-2.33,.7-.81,3.43,.42,4.33,.83,.6,.51,1.76-.5,1.86-2.72,.29-4.92,3.07-4.54,5.79,.09,.65-.43,1.55-1.23,1.23-2.36-.95-4.67-2.03-6.91-3.23l-2.04,7.06c-.11,.39-.53,.78-.96,.73-1.59-.18-2.59-1.3-3.03-2.8-.53-1.79-.11-3.89-2.34-4.51-1.78-.5-3.6,.14-5.35,.46-1.84,.34-3.64,.41-5.34-.51-.72-.39-.57-1.31,0-1.73,3.44-2.53,6.07-6.03,7.56-10.04,.23-.61,.87-.93,1.47-.6,1.21,.67,2.34,1.43,3.42,2.28,.64-2.15,1.09-4.35,1.29-6.6,.08-.88,1.41-1.5,1.86-.5,1.33,2.91,4.49,4.71,7.67,4.14,4.18-2.24,8.48-4.48,13.15-5.42,3.34-.68,6.96-.76,10,.99,3.18,1.83,4.02,5.08,2.61,8.41-2.76,6.53-7.85,14.17-15.58,14.17,.37,1.39,.47,2.84,.3,4.28-.44,3.75-2.55,7.35-5.82,9.31-4.17,2.5-9.44,1.84-13.73,.03-2.47-1.04-4.75-2.43-6.99-3.89-2.18-1.41-4.42-3.21-7.01-3.76-2.67-.57-5.42,.31-8.01-.83-1.89-.83-3.37-2.4-4.33-4.21-1.16-2.17-1.54-4.64-1.57-7.08-.03-2.66,.14-5.43,.6-8.05,.4-2.31,1.35-4.58,3.22-6.08,1.88-1.51,4.08-1.57,6.34-1.01,1.69,.42,4.97,1.72,6.26-.26,.6-.92,.17-2.46,.27-3.52,.1-1.01,.35-1.97,.74-2.91,1.6-3.79,5.35-6.54,9.31-7.44,4.95-1.12,10.08,.4,14.52,2.56,2.21,1.07,4.74,3.27,7.32,2.99,2.24-.25,4.14-1.96,5.99-3.1,3.87-2.4,8.44-2.68,12.7-1.17,4.4,1.56,7.85,4.68,10.47,8.48,2.81,4.06,5.01,8.96,6.38,13.7,1.33,4.61,.78,9.37-2.97,12.67-3.64,3.21-8.63,3.88-13.3,3.22-1.07-.15-2.4-.62-3.48-.32-1.49,.42-.4,2.07,.06,2.93,1.06,2.02,1.33,4.17,.64,6.37-1.48,4.66-6.21,7.47-10.21,9.76-4.58,2.62-9.51,4.67-14.6,6.06-2.48,.68-5.01,1.22-7.56,1.55-2.21,.29-4.54,.32-6.58-.72-3.49-1.78-4.27-5.87-4.49-9.5-3.37,1.45-5.62,4.88-9.07,6.26-4.04,1.62-8.25-.23-11.56-2.6-3.96-2.84-7.62-6.26-11.26-9.49-2.79-2.47-5.85-6.03-4.4-10.02,.56-1.56,1.66-2.83,2.73-4.07,.97-1.12,2.07-2.32,2.41-3.79-3.37-1.7-7.87-1.71-9.94-5.36-1.99-3.51,1.01-7.17,3.09-9.84,2.42-3.1,5.24-5.92,8.42-8.25,2.92-2.13,6.5-3.78,10.19-3.21,2.08,.32,3.98,1.3,5.32,2.83,1.75-6.53,7.01-11.79,13.55-13.53-.9-.48-1.68-1.19-2.24-2.16-.19-.34-.16-.65-.02-.91-4.56-1.65-9.54-1.99-14.33-1.24-10.08,1.58-18.59,7.6-25.32,15.03Z"/>

<path class="cls-1" d="M182.11,41.95c-.12,0-.23-.03-.33-.08-2.85,.25-5.7-.85-7.61-2.93-.33,1.98-.8,3.93-1.45,5.84-.25,.73-1.09,.95-1.67,.44-1.02-.9-2.1-1.69-3.25-2.4-1.46,3.4-3.63,6.37-6.42,8.79,1.39,.14,2.84-.3,4.19-.57,1.45-.29,2.99-.43,4.44-.04,1.37,.37,2.51,1.26,3.05,2.59,.36,.89,.28,3.38,1.14,4.3,.69-2.39,1.38-4.79,2.07-7.18,.18-.63,.9-.92,1.47-.6,2.04,1.15,4.14,2.19,6.29,3.11,.27-2.7,2.02-5.04,4.52-6.06-.69-.84-1.16-1.83-1.15-2.98,0-.66,.18-1.29,.48-1.84-1.93-.13-3.85-.26-5.78-.39Z"/>

<path class="cls-1" d="M198.67,231.77c17.76-19.31,29.17-44.67,27.62-71.24-.77-13.16-4.81-26.01-12.14-37-6.77-10.16-16.1-18.53-26.93-24.18-2.4,.05-4.77-.35-6.96-1.49-.06,.12-.12,.24-.18,.36,.05,.03,.11,.05,.15,.1l.47,.44s.05,.03,.07,.05c.09,.07,.19,.14,.28,.22,.02,.02,.03,.04,.05,.07,.03,.03,.07,.04,.1,.08,6.34,7.38,11.14,15.91,14.45,25.04,1.05,2.9,1.93,5.84,2.69,8.81,.8-1.37,1.69-2.68,2.66-3.94,.03-.05,.06-.09,.09-.14,0,0,0,0,0,0,.05-.07,.1-.14,.15-.21,.71-.89,2.21,.29,1.57,1.21-.84,1.22-1.66,2.45-2.47,3.68,1.05,.27,2.12,.37,3.22,.29,1.29-.1,1.28,1.91,0,2-1.47,.11-2.94-.08-4.34-.53-.08,.13-.16,.26-.24,.39,2.2,9.91,2.85,20.12,2.25,30.27,.72-.87,1.44-1.75,2.16-2.62,.82-.99,2.23,.43,1.41,1.41-1.08,1.31-2.16,2.62-3.24,3.92,2.09,2.2,4.1,4.48,6.01,6.83,.34,.42,.41,1,0,1.41-.35,.35-1.07,.42-1.41,0-1.7-2.1-3.47-4.13-5.31-6.11-.2,2.07-.45,4.13-.75,6.18-1.55,10.64-4.32,21.02-7.81,31.17,3.39-.5,6.78-1.01,10.23-.8,1.28,.08,1.29,2.08,0,2-3.51-.21-6.97,.32-10.44,.83,.69,3.02,1.28,6.07,1.75,9.14,.19,1.26-1.74,1.8-1.93,.53-.36-2.34-.8-4.66-1.29-6.97-2.56,6.96-5.44,13.8-8.47,20.54-.53,1.17-2.25,.15-1.73-1.01,3.23-7.17,6.25-14.45,8.91-21.85-1.65,.21-3.29,.37-4.96,.38-1.29,.01-1.29-1.99,0-2,1.76-.02,3.51-.2,5.25-.42-.66-2.68-1.39-5.35-2.23-7.98-.39-1.23,1.54-1.75,1.93-.53,.61,1.91,1.15,3.84,1.67,5.78,.45-1.36,.9-2.72,1.32-4.09,3.17-10.16,5.51-20.63,6.56-31.21-.32,.06-.65,.11-.96,.17-3.33,.66-6.65,1.31-9.98,1.97-1.26,.25-1.79-1.68-.53-1.93,3.11-.62,6.23-1.23,9.35-1.85,.59-.12,1.3-.17,1.9-.35-1.17-1.19-2.36-2.37-3.59-3.52-.94-.88,.47-2.29,1.41-1.41,.93,.87,1.84,1.75,2.74,2.65,.41-6.38,.33-12.78-.36-19.18-.32-2.99-.79-5.97-1.38-8.93-1.16,1.92-2.28,3.85-3.36,5.82-.62,1.13-2.33,.13-1.73-1.01,1.43-2.68,2.83-5.36,4.24-8.05-2.2-.71-4.34-1.62-6.38-2.72-.99-.54-.3-2.19,.77-1.83,1,.34,2.01,.68,3.01,1.02,.38,.13,.57,.4,.64,.71,.5,.21,1.01,.39,1.52,.57-3.08-11.72-8.42-22.82-16.34-32.07-.03-.03-.07-.03-.1-.07-.04-.04-.09-.08-.13-.12-.13-.02-.26-.05-.38-.12-.07-.05-.13-.1-.2-.16-.04-.04-.07-.08-.1-.13-2.31,3.23-5.87,5.41-9.7,6.69-4.85,1.63-10.95,2.43-15.69,.09-3.06-1.51-5.05-4.22-7-6.92-.02,.02-.04,.03-.06,.05,0,0-.02,.01-.03,.02,0,0,0,0-.01,0-.04,.02-.11,.05-.12,.05-.02,0-.08,.04-.12,.05,0,0-.02,0-.03,0,0,0,0,0-.01,0-.04,0-.12,.02-.14,.02,0,0-.09,.01-.14,.02-.01,0-.02,0-.03,0,0,0,0,0,0,0-.05,0-.22-.03-.27-.04,0,0-.01,0-.02,0,0,0-.02,0-.03,0-.06-.02-.18-.07-.24-.1,0,0,0,0,0,0h-.01s-.02-.02-.02-.02c0,0-.03-.02-.04-.03-.03,.04-.04,.09-.08,.13-.03,.03-.06,.06-.08,.08-.1,.22-.28,.41-.56,.51-2.65,.99-5.21,2.18-7.68,3.58-20.69,11.71-32.15,35.26-33.41,58.41-.76,14.01,1.74,28.01,6.13,41.28,2.18,6.6,4.81,13.07,7.88,19.3,.35,.71,.7,1.41,1.07,2.11,.54,.2,.82,.81,.69,1.29,2.4,4.42,5.18,8.66,8.67,12.29,4.65,4.83,10.45,8.03,16.8,10.07,1.1,.35,2.22,.68,3.35,.99-5.48-3.86-10.12-8.82-13.92-14.37-5.86-8.57-9.93-18.39-12.57-28.54-.33,.75-.66,1.5-1.03,2.23-.58,1.15-2.3,.14-1.73-1.01,.74-1.47,1.38-2.98,1.95-4.52,0-.04-.02-.07-.02-.11-1.07-1.03-2.29-1.85-3.65-2.46-.5-.22-.61-.94-.36-1.37,.29-.5,.88-.58,1.37-.36,.69,.31,1.35,.69,1.98,1.1-.73-3.61-1.29-7.24-1.7-10.85-1.07-9.51-.98-19.14,.24-28.63-.75,.32-1.52,.61-2.3,.86-1.23,.4-1.75-1.53-.53-1.93,.9-.29,1.78-.65,2.64-1.04-1.21-3-2.48-5.98-3.8-8.93-.22-.5-.15-1.07,.36-1.37,.43-.25,1.15-.13,1.37,.36,1.05,2.32,2.04,4.67,3.02,7.02,1.06-6.15,2.59-12.23,4.61-18.14,.41-1.21,2.35-.69,1.93,.53-1.98,5.79-3.5,11.73-4.55,17.75,2.11-1.88,4.21-3.78,6.28-5.71,.94-.88,2.36,.53,1.41,1.41-2.45,2.3-4.95,4.55-7.47,6.77,2.11,3.19,3.98,6.52,5.59,9.98,.23,.49,.14,1.07-.36,1.37-.44,.25-1.14,.13-1.37-.36-1.41-3.02-3.02-5.93-4.8-8.74-.26,1.94-.48,3.89-.64,5.85-.91,11.36-.19,22.86,2.17,34.01,2.23-3.11,4.58-6.13,7.07-9.03,.84-.98,2.25,.44,1.41,1.41-2.55,2.97-4.95,6.07-7.21,9.27,2.63,.71,5.25,1.5,7.82,2.4,1.21,.42,.69,2.35-.53,1.93-2.55-.89-5.14-1.67-7.75-2.38,1.03,4.19,2.29,8.33,3.8,12.37,4.92,13.22,12.9,26.04,25.23,33.41,1.33-8.5,2.01-17.08,2.41-25.67,.18-3.91,.33-7.82,.45-11.74-.04-.04-.08-.09-.12-.14-.23,.18-.44,.37-.59,.59-.35,.51-.55,1.16-.79,1.73-.54,1.28-1.08,2.57-1.62,3.85-.21,.5-.65,.86-1.23,.7-.47-.13-.91-.73-.7-1.23,.6-1.43,1.21-2.87,1.81-4.3,.27-.65,.5-1.35,.91-1.93,.4-.56,.95-.94,1.5-1.35,0,0,0,0,0,0,0,0-.01-.01-.01-.02-.24-.37-.48-.74-.71-1.11-.5-.78-.99-1.55-1.49-2.33-.7-1.09,1.04-2.09,1.73-1.01,.47,.74,.95,1.48,1.43,2.23,.24-8.32,.41-16.65,.6-24.98-1.95,1.2-4.22,1.76-6.21,2.91-1.12,.65-2.12-1.08-1.01-1.73,2.12-1.24,4.61-1.76,6.63-3.18-.18-.38-.41-.75-.62-1.12-.45-.77-.89-1.53-1.34-2.29-.92-1.58-1.84-3.15-2.76-4.73-.65-1.11,1.08-2.12,1.73-1.01,.97,1.66,1.94,3.33,2.92,4.99,.23,.4,.51,.82,.78,1.24,.02-.69,.03-1.38,.05-2.08,.3-12.05,.61-24.1,.91-36.16-.41,.57-.73,1.21-1.07,1.79-.69,1.18-1.37,2.37-2.06,3.55-.65,1.11-2.37,.11-1.73-1.01,.74-1.28,1.48-2.56,2.23-3.84,.56-.97,1.11-1.94,1.94-2.69-.8-.66-1.6-1.32-2.4-1.97-.42-.34-.35-1.06,0-1.41,.41-.41,1-.34,1.41,0,.59,.49,1.18,.97,1.78,1.46,.07-2.84,.14-5.68,.21-8.51,.03-1.29,2.03-1.29,2,0-.07,2.92-.15,5.83-.22,8.75,.37-.18,.75-.36,1.11-.55,1.27-.65,2.54-1.31,3.81-1.96,1.14-.59,2.15,1.14,1.01,1.73-1.24,.64-2.48,1.27-3.71,1.91-.52,.27-1.06,.52-1.6,.79,1.56,1.28,3.11,2.56,4.67,3.83,.42,.34,.35,1.06,0,1.41-.41,.41-1,.34-1.41,0-1.32-1.09-2.65-2.18-3.97-3.27-.12,4.91-.25,9.83-.37,14.74-.2,7.85-.4,15.7-.59,23.56,.61-.88,1.16-1.8,1.7-2.7,.66-1.11,2.39-.1,1.73,1.01-.69,1.16-1.4,2.32-2.22,3.39,2.71-.92,5.42-1.84,8.13-2.77,1.22-.42,1.74,1.52,.53,1.93-3.32,1.13-6.65,2.26-9.97,3.39-.18,7-.35,13.99-.53,20.99-.04,1.55-.08,3.11-.12,4.66,1.56-1.16,3.11-2.33,4.67-3.49,.44-.33,1.12-.07,1.37,.36,.29,.5,.07,1.05-.36,1.37l-5.47,4.09c2.67-.25,5.33-.62,7.97-1.13,1.26-.24,1.79,1.69,.53,1.93-2.92,.56-5.87,.96-8.83,1.23-.36,12.85-.94,25.7-2.98,38.41,3.94,.72,7.95,1.06,11.91,.82,6.97-.42,13.15-3.13,18.72-7.24,5.17-3.82,9.87-8.41,14.21-13.14Z"/>

<path class="cls-1" d="M307.48,28.45c-21.47-10.5-46.96-10.82-68.72-1.03-.13,.26-.35,.47-.63,.56-.8,.28-1.61,.56-2.41,.83,1.44,1.51,3.73,2.22,5.47,3.29,7.08,4.36,12.01,12.42,10.17,20.88-.52,2.37-1.56,4.65-3.07,6.55,1.83-.03,3.66-.02,5.48,.06,8.54,.38,17.04,1.99,25.13,4.78-.32-.45-.63-.91-.95-1.36-.74-1.06,1-2.06,1.73-1.01,.41,.59,.82,1.18,1.23,1.77,.53-1.92,1.06-3.84,1.55-5.76,.28-1.07,2.11-.87,1.96,.27-.01,.09-.03,.18-.04,.27,0,0,0,0,0,0,0,0,0,.02,0,.02-.22,1.68-.53,3.33-.95,4.96,3.15-1.55,6.19-3.33,9.07-5.34,1.06-.74,2.06,.99,1.01,1.73-3.3,2.31-6.8,4.31-10.45,6.01,5.66,2.28,11.06,5.16,16.09,8.64,3.49,2.41,6.77,5.12,9.82,8.05-.4-1.41-.81-2.82-1.21-4.24-.35-1.24,1.58-1.77,1.93-.53,.4,1.42,.81,2.84,1.21,4.25,1.42-2.05,2.72-4.17,3.88-6.38,.61-1.15,2.27-.14,1.73,1.01-1.08,2.28-2.27,4.5-3.52,6.68,2.49-.15,4.97-.44,7.42-.91,1.26-.24,1.79,1.69,.53,1.93-3.01,.58-6.07,.92-9.13,1.04,6.43,6.83,11.65,14.79,15.27,23.46,1.29,3.09,2.35,6.27,3.2,9.5,7.89-9.88,13.03-22.09,13.7-34.77,.61-11.66-2.49-23.52-9.25-33.1-6.76-9.58-16.78-17-27.24-22.11Z"/>

<path class="cls-1" d="M292.92,72.98c-13.67-7.98-29.55-11.81-45.34-11.44-.38,0-.64-.17-.79-.42-.56,.52-1.15,1.01-1.79,1.43-3.18,2.09-6.97,2.66-10.7,2.49,3.36,3.74,6.44,8.47,4.5,13.53-1.58,4.12-5.79,6.24-9.72,7.58-1.25,.43-2.53,.78-3.81,1.11,1.31,.64,2.62,1.29,3.91,1.98,10.56,5.6,20.42,12.75,28.68,21.43,.38-2.01,.65-4.04,.8-6.08,.04-.54,.42-1,1-1,.51,0,1.04,.46,1,1-.16,2.06-.42,4.11-.78,6.14,2.3-.89,4.57-1.84,6.81-2.88,.49-.23,1.07-.14,1.37,.36,.25,.44,.13,1.14-.36,1.37-2.56,1.19-5.17,2.28-7.81,3.29,1.53,1.71,3.01,3.47,4.41,5.3,1.7,2.21,3.28,4.51,4.74,6.88,1.94-1.08,3.88-2.17,5.82-3.25,1.13-.63,2.13,1.1,1.01,1.73-1.24,.69-2.48,1.39-3.72,2.08,2.77,.55,5.52,1.14,8.26,1.82,1.25,.31,.72,2.24-.53,1.93-3.15-.79-6.32-1.46-9.5-2.07,1.89,3.32,3.54,6.78,4.91,10.35,3.19,8.39,4.54,17.3,4.87,26.24,.05,1.31,.08,2.62,.1,3.94,.06-.05,.13-.09,.21-.12,1.11-1.09,2.22-2.18,3.32-3.27,.92-.9,2.33,.51,1.41,1.41-.65,.64-1.29,1.27-1.94,1.91,2.76,.17,5.52,.44,8.26,.8,.54,.07,1,.4,1,1,0,.52-.46,1.03-1,1l-8.03-.49c1.93,2.15,3.89,4.26,5.92,6.31,.91,.92-.51,2.33-1.41,1.41-2.53-2.56-4.98-5.2-7.36-7.91-.14-.01-.26-.06-.37-.12,.03,10.47-.92,21.16-3.58,31.32,1.29-.23,2.58-.46,3.87-.69,.53-.09,1.08,.14,1.23,.7,.13,.49-.17,1.14-.7,1.23-.85,.15-1.7,.3-2.54,.45,1.96,1.89,3.96,3.75,6,5.56,.85,.75-.28,2.21-1.21,1.57-1.78-1.22-3.47-2.57-5.05-4.02,.18,1.93,.56,3.84,1.18,5.7,.41,1.23-1.53,1.75-1.93,.53-.93-2.8-1.39-5.75-1.37-8.7,0-.05,.02-.09,.02-.14-.03-.03-.05-.05-.08-.08-.92,3.2-2.01,6.33-3.3,9.39-1.19,2.81-2.58,5.55-4.15,8.17,1.01-.22,2-.49,2.99-.79,7.57-2.32,14.52-6.61,21.04-11.01,6.2-4.18,12.07-8.88,17.29-14.24,5.17-5.3,9.66-11.27,13.02-17.88,3.83-7.52,6.03-15.8,7.09-24.15,2.07-16.27,.43-33-7.03-47.76-6.7-13.27-17.26-24.42-30.1-31.91Z"/>

<path class="cls-1" d="M277.65,182.55c.74-8.71,.87-17.58-.07-26.27-.89-8.15-3.02-16.11-6.59-23.5-3.19-6.59-7.36-12.68-12.22-18.16-9.86-11.14-22.3-19.81-35.68-26.18-.25-.12-.38-.29-.45-.48-.38,.1-.77,.2-1.15,.3-3.21,.87-6.4,1.85-9.54,2.94-5.78,2.01-11.28,4.79-17.09,6.71-1.35,.45-2.75,.82-4.17,1.08,1.89,1.08,3.74,2.24,5.53,3.48,10.18,7.09,18.6,16.72,24.16,27.82,1.3,2.6,2.43,5.27,3.41,8,1.26-1.96,2.52-3.92,3.78-5.87,.69-1.08,2.43-.08,1.73,1.01l-3.07,4.78c.94-.16,1.87-.32,2.81-.48,1.25-.21,1.8,1.68,.53,1.93-.9,.18-1.8,.36-2.71,.54,2.86,2.21,5.7,4.45,8.5,6.74,1,.82-.43,2.22-1.41,1.41-3.04-2.48-6.11-4.92-9.22-7.31,3,9.5,4.15,19.58,3.56,29.54-.05,.8-.11,1.59-.18,2.39,1.23,.44,2.48,.79,3.76,1.05,0-.01-.02-.02-.03-.03-.3-.35-.72-.71-.72-1.2,0-.39,.22-.84,.4-1.17,.71-1.33,2.15-2.15,3.64-2.18,1.29-.02,1.29,1.98,0,2-.8,.01-1.51,.47-1.88,1.16,.61,.7,1.21,1.41,1.82,2.11,.51,.59,.23,1.8-.71,1.71-1.47-.15-2.92-.41-4.34-.77l4.03,5.68c.31,.44,.08,1.11-.36,1.37-.5,.29-1.06,.08-1.37-.36-1.52-2.14-3.04-4.28-4.55-6.42-.98,8.05-3.05,15.86-6.04,23.32,.78-.39,1.56-.79,2.34-1.18,1.15-.58,2.16,1.15,1.01,1.73-.75,.38-1.51,.76-2.26,1.14,3.23,.97,6.51,1.8,9.82,2.47,1.26,.27,.72,2.18-.53,1.93-2.86-.6-5.72-1.21-8.59-1.81,2.44,3.54,4.87,7.07,7.31,10.61,.73,1.06-1,2.06-1.73,1.01-2.89-4.2-5.79-8.4-8.68-12.6-.02-.03-.02-.05-.04-.08-6.34,14.38-16.04,27.35-27.62,38.05-1.64,1.51-3.33,3-5.08,4.4,1.64,.42,3.29,.81,4.95,1.15,17.14,3.53,35.55,2.77,51.37-5.25,5.16-2.62,9.93-5.95,14.08-9.96,.07-.38,.39-.68,.8-.79,1.22-1.23,2.39-2.5,3.48-3.85,.93-1.14,1.79-2.34,2.63-3.55-.29-.53-.18-1.24,.57-1.35,.13-.02,.26-.04,.38-.06,3.09-4.82,5.47-10.1,7.23-15.54,2.43-7.49,3.78-15.3,4.45-23.14Z"/>

<path d="M358.53,87.98c-3.72-2.52-7.42-5.08-11.09-7.67,1.62-.65,3.22-1.35,4.78-2.15,1.15-.59,.14-2.31-1.01-1.73-1.7,.87-3.44,1.63-5.21,2.31-.3-8.76-2.61-17.45-6.94-25.09-1.14-2.01-2.43-3.94-3.83-5.79,3.13,.66,6.33,.98,9.53,.9,1.28-.03,1.29-2.03,0-2-2.55,.06-5.08-.12-7.58-.54,1.64-1.15,3.21-2.39,4.69-3.74,.83-.75-.28-2.24-1.21-1.57-1.92,1.38-3.93,2.63-6.01,3.74,.43-2.11,.71-4.25,.86-6.41,.09-1.28-1.91-1.28-2,0-.15,2.16-.46,4.3-.91,6.41-5.58-6.35-12.54-11.58-19.8-15.68-3.41-1.92-6.95-3.6-10.58-5.02,3.29-1.52,6.48-3.24,9.54-5.18,1.08-.69,.08-2.42-1.01-1.73-2.85,1.81-5.82,3.44-8.87,4.88,.4-.86,.78-1.74,1.14-2.62,.2-.5-.22-1.1-.7-1.23-.57-.16-1.03,.2-1.23,.7-.56,1.39-1.2,2.74-1.89,4.07-6.83-2.38-13.96-3.87-21.18-4.39-2.16-.16-4.33-.21-6.49-.2,3.05-2.82,5.79-5.95,8.2-9.33,.75-1.05-.99-2.05-1.73-1.01-1.82,2.56-3.86,4.95-6.08,7.18,.07-1.52,.07-3.05-.03-4.58-.08-1.29-1.9-1.28-2,0-.16,1.99-.43,3.97-.8,5.92-1.34-1.46-2.69-2.93-4.04-4.39-.87-.95-2.28,.47-1.41,1.41,1.5,1.63,2.99,3.26,4.49,4.88-10.99,.54-21.85,3.27-31.81,7.99-.14,.07-.24,.15-.32,.24-.13-.02-.27-.01-.4,.04-.35,.14-.7,.28-1.04,.42-.78-1.55-1.26-3.26-2.33-4.7-2.56-3.45-6.47-5.55-10.28-7.34-9.08-4.27-18.8-8.6-29.06-8.2-5.26,.21-10.41,1.67-14.73,4.74-2.06,1.46-4.09,3.33-6.58,4.02-1.52,.42-3.33,.36-4.65-.49,.95,.04,1.6-1.34,.59-1.84-9.03-4.43-19.62-3.5-28.55,.69,0,0,0,0,0,0-5.32-1.11-10.72-1.75-16.13-1.97,3-1.45,5.93-3.02,8.79-4.73,1.1-.66,.1-2.39-1.01-1.73-2.41,1.44-4.89,2.77-7.4,4.02,.64-2.77,1.28-5.55,1.92-8.32,.29-1.28-1.47-1.71-1.93-.53-1.32,3.4-2.64,6.79-3.96,10.19-1.39-1.66-2.9-3.22-4.52-4.66-.96-.85-2.38,.56-1.41,1.41,1.49,1.33,2.89,2.76,4.19,4.27-12,.15-23.96,2.43-35.19,6.73,1.44-2.62,2.73-5.31,3.85-8.08,.2-.5-.22-1.1-.7-1.23-.57-.16-1.03,.2-1.23,.7-.88,2.18-1.89,4.31-2.98,6.38-.41-2.55-.81-5.09-1.22-7.64-.18-1.1-2.06-.86-1.96,.27,.24,2.92,.47,5.85,.71,8.77-1.24-1.18-2.51-2.34-3.84-3.42-.42-.34-1.01-.41-1.41,0-.35,.35-.42,1.07,0,1.41,1.7,1.39,3.32,2.88,4.88,4.43-9.34,4.02-18.38,9.54-26.15,16.42-.3-.31-.6-.63-.9-.94,1.14-.98,1.08-2.82,1.14-4.22,.09-2.24,.19-4.47,.28-6.71,.05-1.29-1.95-1.28-2,0-.08,1.89-.16,3.77-.24,5.66-.04,.86-.04,1.73-.12,2.59-.02,.24-.05,.49-.13,.72-1.67-1.71-3.39-3.38-5.19-4.96-.98-.86-2.23,.43-1.41,1.41,1.86,2.24,3.82,4.4,5.84,6.5-.9,.01-1.8,.1-2.7,.27-.71,0-1.43,.07-2.13,.22-.24,.05-.48,.25-.6,.46-.13,.21-.18,.53-.1,.77,.08,.24,.23,.48,.46,.6,.25,.13,.5,.16,.77,.1,.03,0,.05,0,.08-.01,0,0,.01,.01,.02,.02,.24,.13,.51,.17,.77,.1,.36-.1,.72-.2,1.08-.29,0,0,.02,0,.02-.01,0,0,.02,0,.02,0,.92-.18,1.86-.25,2.79-.23-6.32,6.01-11.67,12.97-15.42,20.81-.09,.18-.17,.37-.25,.56-.08-.07-.17-.13-.27-.18,.11-.23,.15-.5,.1-.74-.57-2.51-1.44-4.93-2.57-7.24-.56-1.16-2.29-.14-1.73,1.01,.85,1.75,1.52,3.56,2.03,5.43-.26-.07-.51-.16-.75-.24-.59-.19-1.18-.37-1.77-.56-1.27-.4-2.53-.8-3.8-1.2-.52-.16-1.09,.19-1.23,.7-.16,.57,.2,1.02,.7,1.23,2.17,.9,4.34,1.8,6.51,2.7-2.18,1.35-4.29,2.82-6.31,4.4-.43,.34-.34,1.06,0,1.41,.42,.42,.99,.33,1.41,0,2.15-1.68,4.41-3.2,6.75-4.59-4.33,10.38-5.65,22.05-2.64,32.98,0,0,0,.01,0,.02,0,.18,.05,.35,.14,.5,.14,.32,.27,.64,.41,.96,.05,.07,.1,.13,.16,.2,.03,.04,.08,.05,.12,.08-.84,.97-1.65,1.97-2.44,2.99,.13-.28,.22-.58,.27-.88,.14-.82,.22-1.67,.3-2.5,.16-1.71,.2-3.42,.16-5.14-.03-1.28-2.03-1.29-2,0,.04,1.55,0,3.09-.11,4.64-.06,.74-.13,1.47-.23,2.21-.02,.12-.03,.24-.05,.36-1.67-1.78-3.35-3.55-5.02-5.33-.89-.93-2.3,.48-1.41,1.41,1.66,1.73,3.23,3.53,4.77,5.36-1.17-.27-2.35-.53-3.52-.8-1.25-.28-1.79,1.64-.53,1.93,1.84,.42,3.68,.83,5.51,1.25-5.17,7.28-9,15.48-10.95,24.1-.31,.04-.61,.09-.92,.13-3.1-3.14-6.24-6.23-9.44-9.26-.93-.89-2.35,.53-1.41,1.41,2.83,2.69,5.62,5.42,8.37,8.19-1.39,.19-2.79,.39-4.18,.58-.3,.02-.61,.02-.91,.04-2.4,.15-4.8,.46-7.12,1.08-1.28,.34-.7,2.1,.53,1.93,2.55-.36,5.1-.71,7.65-1.07,1.24-.05,2.6,.02,3.91-.1-.7,.57-1.41,1.15-2.11,1.72-1,.81,.42,2.22,1.41,1.41,1.2-.98,2.4-1.95,3.59-2.93-1.02,6.01-1.11,12.18-.08,18.35,.44,2.64,1.09,5.24,1.92,7.78-.31-.05-.62-.09-.93-.14-.03-.2-.12-.4-.27-.55l-5.19-5.51c-.88-.94-2.3,.48-1.41,1.41,1.3,1.38,2.6,2.76,3.9,4.15-2.63-.48-5.28-.84-7.94-1.09-1.11-.1-1.38,1.8-.27,1.96,3.09,.45,6.18,.9,9.27,1.35,.09,.02,.18,.03,.27,.05,.05,.01,.1,0,.15,.01,.41,.06,.82,.12,1.23,.18-.99,.94-1.94,1.92-2.8,2.98-.34,.42-.41,1,0,1.41,.35,.36,1.07,.42,1.41,0,1.06-1.3,2.24-2.5,3.49-3.62,2.65,6.84,6.74,13.11,12.16,18.1,.17,.22,.36,.44,.56,.63,.29,.27,.61,.52,.95,.74,.11,.07,.24,.11,.37,.12,.09,.02,.17,0,.26-.01,.17,.78,.35,1.56,.55,2.33-.09-.07-.18-.14-.26-.21-.64-.68-1.49-1.2-2.21-1.72-1.33-.97-2.66-1.95-3.99-2.92-1.06-.75-2.03,.98-1.01,1.73l3.39,2.48c.18,.13,.36,.26,.54,.39,.64,.49,1.27,.99,1.9,1.49,.01,.01,.03,.03,.04,.04-4.47,.6-8.93,1.2-13.4,1.8-.54,.07-.82,.76-.7,1.23,.15,.58,.7,.77,1.23,.7,4.35-.59,8.69-1.17,13.04-1.76,0,.03-.01,.06-.02,.09-.15,.68-.33,1.36-.52,2.03-.38,1.35-.82,2.67-1.32,3.98-.46,1.2,1.48,1.73,1.93,.53,.57-1.49,1.07-3.01,1.48-4.55,.2-.74,.44-1.55,.55-2.35l.17-.02c2.69,8.73,7.27,16.83,13.25,23.73-2.08-.01-4.16-.02-6.24-.05-1.29-.02-1.29,1.98,0,2,1.93,.02,3.86,.04,5.78,.05-1.73,2.7-3.46,5.4-5.19,8.09-.7,1.09,1.03,2.08,1.73,1.01,.91-1.39,1.81-2.78,2.72-4.16,.43-.66,.87-1.33,1.3-1.99,.19-.29,.37-.61,.58-.89,.15,.34,.27,.69,.38,1.04,.24,.77,.47,1.55,.71,2.32,.49,1.62,.99,3.25,1.48,4.87,.37,1.23,2.3,.7,1.93-.53-.54-1.76-1.07-3.52-1.61-5.29-.45-1.49-.81-3.07-1.75-4.34,.01-.02,.03-.04,.04-.06,3.28,3.49,6.94,6.63,10.88,9.34,5.22,3.58,11,6.39,17.07,8.2-1.08,.73-2.14,1.5-3.14,2.34-.41,.35-.36,1.06,0,1.41,.41,.41,1,.35,1.41,0,1-.84,2.06-1.59,3.14-2.3,.07,.59,.14,1.17,.19,1.76-.13,1.76-.05,3.52,.21,5.28,0,0,0,.01,0,.02,0,0,0,0,0,0,.01,.09,.02,.18,.03,.27,.18,1.14,1.95,.83,1.96-.27,.02-1.77-.06-3.54-.21-5.31,0-.07,.01-.14,.02-.2,.23,.11,.44,.28,.64,.42,.52,.38,1.03,.77,1.53,1.18,.99,.8,1.95,1.65,2.87,2.53,.93,.89,2.35-.52,1.41-1.41-1.13-1.08-2.32-2.11-3.55-3.08-.65-.5-1.41-1.18-2.24-1.54,9.68,2.09,19.7,1.63,29.48,.48,2.11-.25,4.21-.53,6.31-.82,1.13,2.1,2.35,4.15,3.68,6.12,3.7,5.49,8.34,10.32,14.15,13.58,6.06,3.41,13.01,5.34,19.84,6.41,7.03,1.11,14.4,1.1,21.1-1.54,3.48-1.37,6.66-3.31,9.64-5.53,17.5,4.64,36.51,5.39,53.58-1.35,7.24-2.86,14-6.96,19.68-12.3,1.28,2.28,2.56,4.55,3.85,6.83,.63,1.12,2.36,.11,1.73-1.01-1.28-2.27-2.56-4.54-3.83-6.81,1.7-.2,3.4-.4,5.1-.59,.54-.06,1-.41,1-1,0-.49-.46-1.06-1-1-1.25,.15-2.51,.29-3.76,.44,1.87-2.08,3.58-4.28,5.12-6.61,7.94-1.35,15.17-5.23,21.95-9.44,6.5-4.04,12.72-8.57,18.37-13.74,1.83-1.68,3.6-3.44,5.29-5.26,.07,.06,.15,.12,.22,.18-.13,.22-.18,.49-.1,.75,.66,2.29,1.53,4.51,2.57,6.65,.24,.49,.93,.62,1.37,.36,.5-.29,.6-.88,.36-1.37-.67-1.38-1.25-2.79-1.75-4.23,1.11,.46,2.19,.97,3.24,1.55,1.14,.59,2.14-1.1,1.01-1.73-1.57-.81-3.08-1.74-4.49-2.79,1.36-.44,2.71-.89,4.07-1.33,1.22-.4,.7-2.33-.53-1.93-1.17,.38-2.35,.77-3.52,1.15,2.51-2.95,4.82-6.07,6.85-9.37,4.38-7.12,7.29-15.03,8.93-23.22,.06-.32,.12-.65,.18-.97,.26,.07,.53,.13,.79,.19,.05,.13,.11,.26,.23,.38,2.56,2.55,5.11,5.09,7.67,7.64,.91,.91,2.33-.5,1.41-1.41-1.99-1.98-3.97-3.96-5.96-5.94,1.57,.24,3.15,.39,4.74,.46,1.11,.05,1.38-1.73,.27-1.96-1.72-.36-3.48-.55-5.23-.56-.54-.09-1.09-.18-1.63-.3,.67-.47,1.34-.94,2.01-1.41,.44-.31,.65-.88,.36-1.37-.26-.44-.92-.67-1.37-.36l-2.82,1.98c1.35-8.28,1.7-16.82,.82-25.2,.03,.02,.05,.05,.08,.07,3.17,1.97,6.48,3.69,9.91,5.15,.5,.21,1.07,.15,1.37-.36,.25-.42,.14-1.16-.36-1.37-2.59-1.1-5.1-2.34-7.54-3.73,1.94-.37,3.86-.89,5.72-1.6,1.2-.46,.74-2.16-.53-1.93-2.56,.47-5.13,.87-7.7,1.22,.58-1.37,1.16-2.74,1.75-4.11,.21-.5,.15-1.07-.36-1.37-.42-.25-1.16-.14-1.37,.36-.51,1.19-1.01,2.38-1.52,3.57-.29-1.85-.63-3.69-1.05-5.51,.02-.02,.04-.03,.06-.05,7.69-9.27,12.99-20.5,14.6-32.47,.29-2.17,.46-4.37,.5-6.56,3.81,2.68,7.64,5.33,11.5,7.95,1.07,.72,2.07-1.01,1.01-1.73ZM149.63,12.69c4.8-.75,9.77-.41,14.33,1.24-.14,.26-.18,.58,.02,.91,.56,.97,1.33,1.67,2.24,2.16-6.54,1.74-11.8,7-13.55,13.53-1.34-1.53-3.24-2.51-5.32-2.83-3.69-.57-7.27,1.08-10.19,3.21-3.18,2.32-6,5.15-8.42,8.25-2.09,2.67-5.08,6.33-3.09,9.84,2.07,3.65,6.57,3.66,9.94,5.36-.34,1.47-1.44,2.67-2.41,3.79-1.07,1.24-2.16,2.51-2.73,4.07-1.44,3.99,1.62,7.55,4.4,10.02,3.65,3.23,7.3,6.65,11.26,9.49,3.31,2.37,7.52,4.22,11.56,2.6,3.46-1.39,5.71-4.81,9.07-6.26,.22,3.63,1,7.72,4.49,9.5,2.04,1.04,4.37,1.01,6.58,.72,2.55-.34,5.08-.88,7.56-1.55,5.09-1.39,10.02-3.43,14.6-6.06,4-2.29,8.73-5.1,10.21-9.76,.7-2.2,.43-4.36-.64-6.37-.46-.86-1.55-2.52-.06-2.93,1.08-.3,2.41,.17,3.48,.32,4.67,.66,9.65-.02,13.3-3.22,3.75-3.3,4.3-8.06,2.97-12.67-1.37-4.75-3.57-9.64-6.38-13.7-2.63-3.79-6.08-6.92-10.47-8.48-4.26-1.51-8.83-1.23-12.7,1.17-1.85,1.15-3.75,2.85-5.99,3.1-2.58,.29-5.11-1.91-7.32-2.99-4.44-2.16-9.57-3.68-14.52-2.56-3.96,.9-7.71,3.64-9.31,7.44-.39,.93-.64,1.9-.74,2.91-.1,1.05,.34,2.6-.27,3.52-1.29,1.98-4.57,.68-6.26,.26-2.26-.56-4.46-.49-6.34,1.01-1.87,1.5-2.82,3.77-3.22,6.08-.46,2.62-.63,5.39-.6,8.05,.03,2.44,.41,4.9,1.57,7.08,.96,1.8,2.45,3.38,4.33,4.21,2.59,1.14,5.34,.26,8.01,.83,2.59,.55,4.83,2.36,7.01,3.76,2.24,1.45,4.52,2.85,6.99,3.89,4.29,1.8,9.56,2.46,13.73-.03,3.27-1.96,5.38-5.56,5.82-9.31,.17-1.44,.07-2.89-.3-4.28,7.73,0,12.82-7.64,15.58-14.17,1.4-3.32,.57-6.57-2.61-8.41-3.05-1.75-6.66-1.67-10-.99-4.68,.95-8.98,3.19-13.15,5.42-3.19,.57-6.35-1.23-7.67-4.14-.45-.99-1.78-.37-1.86,.5-.21,2.25-.66,4.44-1.29,6.6-1.08-.85-2.21-1.61-3.42-2.28-.6-.33-1.24-.01-1.47,.6-1.49,4-4.12,7.51-7.56,10.04-.57,.42-.72,1.34,0,1.73,1.69,.91,3.49,.84,5.34,.51,1.75-.32,3.57-.96,5.35-.46,2.23,.62,1.8,2.72,2.34,4.51,.44,1.49,1.45,2.62,3.03,2.8,.43,.05,.85-.35,.96-.73l2.04-7.06c2.24,1.21,4.54,2.28,6.91,3.23,.8,.32,1.32-.58,1.23-1.23-.38-2.72,1.82-5.5,4.54-5.79,1.01-.11,1.33-1.26,.5-1.86-1.23-.9-2.75-3.62-.42-4.33,1.11-.33,.85-1.89-.27-1.96-1.56-.1-3.11-.21-4.67-.31,3.08-1.58,6.26-3.01,9.65-3.76,3.28-.73,7.89-1,10.34,1.85,1.55,1.8,.75,3.97-.18,5.88-.93,1.91-1.93,3.8-3.14,5.55-2.5,3.62-6.57,6.88-11.24,6.23-.65-.09-1.56,.43-1.23,1.23,1.4,3.39,.78,7.31-1.44,10.23-2.7,3.54-7.18,4.38-11.36,3.44-4.86-1.1-8.86-4.18-13.01-6.76-1.89-1.18-3.87-2.11-6.12-2.26-2.38-.16-4.84,.42-6.97-.96-4.26-2.77-4.03-8.58-3.7-13.01,.17-2.35,.27-4.93,1.54-6.99,1.44-2.33,3.59-2.82,6.14-2.15,1.87,.49,3.7,1.08,5.65,.58,1.62-.42,2.9-1.55,3.15-3.25,.15-1.03-.07-2.06,.05-3.09,.11-.96,.42-1.9,.86-2.75,.94-1.78,2.42-3.21,4.14-4.23,4.03-2.39,8.83-1.99,13.11-.51,2.3,.79,4.45,1.92,6.57,3.11,1.89,1.07,3.79,1.9,5.99,1.48,4-.76,6.64-4.42,10.77-5.01,4.16-.6,8.55,1.05,11.72,3.71,3.45,2.9,5.8,6.85,7.65,10.9,1.86,4.08,4.46,9.36,2.89,13.9-1.48,4.27-6.08,6.43-10.32,6.64-2.29,.11-4.43-.48-6.69-.59-1.66-.08-3.39,.57-3.74,2.38-.39,2.04,1.49,3.63,1.79,5.54,.36,2.29-.75,4.56-2.27,6.2-1.6,1.73-3.61,3.03-5.6,4.26-2.05,1.27-4.19,2.41-6.38,3.43-4.37,2.03-8.99,3.51-13.71,4.44-2.17,.43-4.54,.94-6.76,.54-2.19-.4-3.64-1.89-4.34-3.95-.63-1.83-.74-3.8-.8-5.72-.02-.65-.62-1.13-1.27-.96-3.33,.86-5.51,3.5-8.19,5.45-1.48,1.07-3.1,1.82-4.97,1.79-2.13-.04-4.13-1-5.9-2.12-3.81-2.41-7.12-5.73-10.53-8.66-2.59-2.23-7.08-5.62-5.38-9.58,1.39-3.25,4.88-4.99,5.23-8.77,.03-.34-.21-.7-.5-.86-1.79-1.07-3.78-1.5-5.74-2.15-1.64-.55-3.57-1.47-4.26-3.19-.81-2.03,.86-4.12,1.97-5.69,1.24-1.74,2.61-3.38,4.1-4.92,2.78-2.87,6.11-5.92,10.04-7.04,3.26-.93,7.61-.03,8.9,3.5,.4,1.09,1.84,.86,1.96-.27,.84-7.43,7.18-13.82,14.61-14.7,.45-.05,.73-.34,.86-.68,1.19,.01,2.39-.22,3.47-.66,2.06-.83,3.79-2.22,5.56-3.51,1.87-1.37,3.85-2.51,6.03-3.3,9.26-3.32,19.2-.84,27.99,2.74,4.31,1.75,8.76,3.6,12.75,6.01,1.76,1.07,3.43,2.32,4.76,3.91,1.33,1.59,1.85,3.47,2.76,5.27-.01,.12-.01,.25,.02,.36,.09,.27,.3,.5,.56,.63,1.06,1.5,2.62,2.43,4.28,3.27,1.91,.97,3.72,2.06,5.33,3.46,3.14,2.74,5.55,6.36,6.36,10.49,.85,4.32-.36,9.19-3.34,12.47-3.57,3.91-9.11,4.6-14.11,3.92-.93-.13-1.74,.89-.97,1.67,3.26,3.31,7.64,7.98,5.95,13.06-1.3,3.92-5.67,5.74-9.29,6.89-5.11,1.61-10.34,2.73-15.42,4.46-5.31,1.81-10.38,4.17-15.61,6.17-5.2,1.99-11.35,3.68-16.42,.45-.58-.37-1.26,.02-1.47,.6-1.51,4.13-5.25,6.87-9.25,8.37-4.31,1.62-9.83,2.61-14.25,.92-4.21-1.61-6.46-5.95-9.1-9.31-1.37-1.74-2.91-3.28-4.78-4.49-2.08-1.34-4.39-2.27-6.6-3.36-2.36-1.16-4.62-2.5-6.14-4.71-1.41-2.04-2.16-4.63-.83-6.9,.47-.81-.3-1.62-1.13-1.47-4.46,.79-9.06,.9-13.55,.22-3.6-.54-7.94-1.5-9.3-5.36-1.16-3.27-.05-6.97,2.03-9.61,2.42-3.08,5.89-5.09,9.22-7.05,.58-.34,.63-1.1,.2-1.57-3.23-3.54-1.59-8.76,.37-12.5,2.22-4.23,5.4-8.11,8.59-11.64,6.73-7.42,15.24-13.45,25.32-15.03Zm38.93,34.48c-2.5,1.02-4.25,3.36-4.52,6.06-2.15-.92-4.25-1.96-6.29-3.11-.57-.32-1.29-.03-1.47,.6-.69,2.39-1.38,4.79-2.07,7.18-.86-.92-.77-3.41-1.14-4.3-.54-1.33-1.68-2.22-3.05-2.59-1.44-.39-2.99-.25-4.44,.04-1.35,.27-2.81,.71-4.19,.57,2.78-2.42,4.96-5.39,6.42-8.79,1.15,.71,2.23,1.5,3.25,2.4,.58,.51,1.42,.29,1.67-.44,.65-1.91,1.13-3.86,1.45-5.84,1.91,2.08,4.75,3.18,7.61,2.93,.1,.04,.21,.07,.33,.08,1.93,.13,3.85,.26,5.78,.39-.3,.55-.47,1.18-.48,1.84,0,1.14,.46,2.14,1.15,2.98Zm-42.27,52.41s-.02,.01-.03,.02c.01,0,.02-.02,.03-.02,0,0,0,0,0,0ZM35.04,63.43c3.82-9.4,10.22-17.6,17.67-24.41,14.57-13.3,33.42-21.68,52.93-24.28,10.1-1.35,20.4-1.12,30.42,.7,0,0,0,0,0,0-4.78,2.74-9.02,6.37-12.75,10.41-3.51,3.8-7.03,8.05-9.41,12.66-2.19,4.24-3.59,9.64-.75,13.77-5.3,3.16-10.82,7.06-11.62,13.65-.1,.81-.1,1.63-.02,2.44-5.89,.21-11.81,.75-17.65,1.69,2.14-2.09,4.03-4.42,5.61-6.96,.68-1.1-1.05-2.1-1.73-1.01-1.51,2.43-3.33,4.64-5.38,6.63-.52-2.19-1.06-4.38-1.66-6.56-.29-1.06-2.03-.88-1.96,.27,.1,1.79,.35,3.58,.75,5.33,.1,.44,.41,.65,.75,.7,.17,.72,.35,1.44,.51,2.16-5.1,.95-10.14,2.18-15.05,3.77-1.84,.59-3.63,1.27-5.41,1.99,2.42-3.09,4.64-6.33,6.62-9.72,.65-1.11-1.08-2.12-1.73-1.01-1.64,2.81-3.44,5.51-5.39,8.11-.5-2.76-1.16-5.49-1.97-8.18-.31-1.03-2.09-.9-1.96,.27,.35,3.21,.79,6.41,1.27,9.61-1.21-.98-2.42-1.95-3.63-2.93-.42-.34-1-.41-1.41,0-.35,.35-.42,1.08,0,1.41,1.61,1.3,3.22,2.59,4.83,3.89-7.62,3.53-14.6,8.26-20.7,14.18-1.09,1.05-2.14,2.15-3.16,3.27-.11-.65-.26-1.29-.5-1.91-.06-.17-.15-.3-.27-.42-2.29-9.82-1.03-20.2,2.75-29.52Zm-2.77,111.88c-.1-.1-.21-.19-.31-.29-.02-.02-.04-.05-.06-.07,0,0-.02,0-.03-.01-14.4-13.41-18.13-34.89-12.2-53.24,6.56-20.29,23.35-36.95,43.26-44.25,12.4-4.54,25.79-6.68,38.96-7.1,.43,1.4,1.17,2.7,2.28,3.72,2.48,2.3,6,2.97,9.23,3.41,4,.54,8.03,.51,12.02-.03-.69,2.6,.23,5.32,1.84,7.53-1.24,.31-2.48,.62-3.71,.94-17.55,2.56-35.39,5.9-51.33,14.01-.07,.04-.14,.08-.21,.11,1.82-3.2,3.61-6.41,5.35-9.65,.61-1.13-1.12-2.14-1.73-1.01-1.59,2.95-3.22,5.89-4.87,8.8-.27-1.98-.54-3.96-.81-5.93-.15-1.11-2.05-.86-1.96,.27,.19,2.44,.32,4.89,.41,7.33-.9-.76-1.81-1.52-2.71-2.29-.98-.82-2.4,.58-1.41,1.41,1.27,1.07,2.55,2.15,3.82,3.22-6.98,4.09-13.24,9.19-18.53,15.17,.85-2.98,1.7-5.95,2.55-8.93,.35-1.24-1.58-1.77-1.93-.53-.81,2.84-1.62,5.69-2.43,8.53-.1-.26-.2-.53-.31-.79-.36-.92-.71-1.85-1.07-2.77-.73-1.89-1.46-3.77-2.19-5.66-.46-1.18-2.36-.7-1.93,.53,1.18,3.37,2.36,6.75,3.53,10.12-1.05-.78-2.1-1.55-3.16-2.33-.44-.32-1.11-.07-1.37,.36-.3,.51-.07,1.05,.36,1.37,1.66,1.23,3.32,2.45,4.98,3.68-3.36,4.32-6.25,9.04-8.58,14.11-1.32,2.89-2.45,5.87-3.4,8.9-.41-4.76-.72-9.53-.91-14.31-.05-1.28-2.05-1.29-2,0,.17,4.25,.45,8.49,.79,12.73-.03-.03-.07-.06-.11-.08-.43-.29-.86-.59-1.29-.88-.91-.62-1.82-1.24-2.74-1.87-1.77-1.21-3.54-2.41-5.31-3.62-1.08-.73-2.03,.98-1.01,1.73,3.66,2.68,7.33,5.35,10.99,8.03-1.62,.9-3.23,1.81-4.85,2.71-1.12,.63-.12,2.36,1.01,1.73,1.46-.82,2.92-1.63,4.38-2.45-2.28,9.01-2.83,18.45-1.31,27.62Zm55.18,51.4c-7.72-.9-15.17-3.41-21.91-7.26-12.95-7.41-23.24-19.54-28.4-33.54-5.42-14.7-4.71-30.98,.81-45.54,5.76-15.18,16.6-27.89,30.57-36.12,15.04-8.86,32.41-12.74,49.48-15.47,2-.32,4.01-.62,6.02-.91,0,0,.02,0,.03,0,0,0,.02,0,.02,0,.12-.02,.23-.04,.35-.05,.12-.02,.22-.06,.31-.11,1.33-.34,2.67-.67,4-1.01,.36,.35,.73,.68,1.11,.98,4.4,3.43,10.15,4.36,13.94,8.68,.46,.53,.91,1.08,1.34,1.65-.03,.02-.06,.05-.08,.06,0,0,0,0,0,0,0,0-.01,.01-.02,.02,0,0,0,0,0,0-.03,.03-.13,.17-.16,.2,0,0,0,0,0,.01,0,0-.01,.02-.01,.03,0,0,0,0,0,0-.01,.02-.03,.08-.06,.13-.11-.04-.22-.07-.34-.07-.09,.01-.18,.02-.27,.04-.17,.05-.32,.13-.44,.26-.1,.1-.19,.19-.29,.29-9.45,3.64-17.56,9.71-24.05,17.27,.33-2.75,.44-5.5,.27-8.27-.08-1.28-2.08-1.29-2,0,.12,2.05,.11,4.11-.05,6.16-2.66-4.16-5.33-8.31-7.99-12.47-.69-1.08-2.33-.13-1.73,1.01,2.16,4.09,4.47,8.1,6.92,12.03-3.45-2.08-6.89-4.16-10.34-6.25-1.11-.67-2.07,1.02-1.01,1.73,3.61,2.42,7.22,4.83,10.83,7.25-1.43-.11-2.86-.18-4.3-.19-1.29-.02-1.29,1.98,0,2,2.22,.03,4.44,.16,6.64,.41-7.17,9.49-12,20.86-14.03,32.49-.22,1.27-.41,2.55-.57,3.83-.12-.02-.23-.05-.35-.07-2.68-2.96-5.46-5.83-8.32-8.62-.92-.9-2.34,.51-1.41,1.41,2.18,2.12,4.28,4.3,6.36,6.52-1.49-.3-2.98-.6-4.47-.91-1.25-.25-1.79,1.62-.53,1.93,1.79,.43,3.59,.78,5.4,1.09,.27,.05,.53,.11,.8,.16-1.49,.91-2.96,1.84-4.38,2.85-1.04,.74-.04,2.47,1.01,1.73,1.81-1.29,3.69-2.47,5.61-3.59-.91,9.11-.41,18.32,1.14,27.35-3.44-2.52-6.94-4.96-10.5-7.31-1.08-.71-2.08,1.02-1.01,1.73,2.93,1.93,5.81,3.94,8.66,5.99-3.02,.24-6.05,.48-9.07,.72-1.27,.1-1.29,2.08,0,2,3.29-.21,6.58-.41,9.87-.62-1.78,1.71-3.54,3.44-5.25,5.22-.89,.93,.52,2.34,1.41,1.41,2.08-2.16,4.23-4.27,6.41-6.33,.41,2.1,.88,4.19,1.4,6.27,1.45,5.75,3.3,11.4,5.46,16.93-3.11-2.04-6.44-3.72-9.94-5-.51-.19-1.1,.21-1.23,.7-.15,.56,.19,1.04,.7,1.23,2.53,.93,4.96,2.09,7.29,3.45-.72,.03-1.44,.07-2.15,.1-.89,.01-1.79,.05-2.68,.12-1.27,.1-1.3,2.06,0,2,.91-.04,1.83-.08,2.74-.12,1.41-.02,2.81,.01,4.22,.13-1.21,.9-2.42,1.8-3.62,2.7-.43,.32-.65,.86-.36,1.37,.25,.43,.93,.68,1.37,.36,1.67-1.24,3.33-2.49,5-3.73,.09,.21,.17,.43,.26,.65,1.38,3.29,2.84,6.57,4.47,9.76-9.55,1.31-19.25,2.3-28.86,1.18Zm97,18.21c-5.57,4.11-11.75,6.83-18.72,7.24-3.96,.24-7.97-.11-11.91-.82,2.04-12.71,2.63-25.56,2.98-38.41,2.96-.27,5.91-.67,8.83-1.23,1.26-.24,.73-2.17-.53-1.93-2.64,.5-5.3,.88-7.97,1.13l5.47-4.09c.43-.32,.65-.86,.36-1.37-.25-.43-.93-.68-1.37-.36-1.56,1.16-3.11,2.33-4.67,3.49,.04-1.55,.08-3.11,.12-4.66,.18-7,.35-13.99,.53-20.99,3.32-1.13,6.65-2.26,9.97-3.39,1.21-.41,.69-2.34-.53-1.93-2.71,.92-5.42,1.84-8.13,2.77,.82-1.07,1.53-2.24,2.22-3.39,.66-1.11-1.07-2.11-1.73-1.01-.54,.9-1.09,1.82-1.7,2.7,.2-7.85,.4-15.7,.59-23.56,.12-4.91,.25-9.83,.37-14.74,1.32,1.09,2.65,2.18,3.97,3.27,.42,.34,1.01,.41,1.41,0,.35-.35,.42-1.07,0-1.41-1.55-1.28-3.11-2.56-4.67-3.83,.53-.27,1.07-.52,1.6-.79,1.24-.64,2.48-1.27,3.71-1.91,1.14-.59,.13-2.32-1.01-1.73-1.27,.65-2.54,1.31-3.81,1.96-.36,.19-.74,.37-1.11,.55,.07-2.92,.15-5.83,.22-8.75,.03-1.29-1.97-1.29-2,0-.07,2.84-.14,5.68-.21,8.51-.59-.49-1.18-.97-1.78-1.46-.42-.34-1.01-.41-1.41,0-.35,.35-.42,1.07,0,1.41,.8,.66,1.6,1.32,2.4,1.97-.83,.75-1.38,1.72-1.94,2.69-.74,1.28-1.48,2.56-2.23,3.84-.65,1.12,1.08,2.12,1.73,1.01,.69-1.18,1.37-2.37,2.06-3.55,.34-.58,.66-1.22,1.07-1.79-.3,12.05-.61,24.1-.91,36.16-.02,.69-.03,1.38-.05,2.08-.27-.43-.55-.84-.78-1.24-.97-1.67-1.94-3.33-2.92-4.99-.65-1.11-2.38-.11-1.73,1.01,.92,1.57,1.84,3.15,2.76,4.73,.45,.76,.89,1.53,1.34,2.29,.22,.37,.44,.74,.62,1.12-2.02,1.43-4.51,1.95-6.63,3.18-1.11,.65-.11,2.38,1.01,1.73,1.98-1.15,4.26-1.71,6.21-2.91-.19,8.32-.36,16.65-.6,24.98-.48-.74-.95-1.48-1.43-2.23-.69-1.08-2.42-.08-1.73,1.01,.5,.78,.99,1.55,1.49,2.33,.24,.37,.48,.74,.71,1.11,0,0,.01,.01,.01,.02,0,0,0,0,0,0-.55,.41-1.1,.79-1.5,1.35-.41,.58-.64,1.28-.91,1.93-.6,1.43-1.21,2.87-1.81,4.3-.21,.5,.23,1.1,.7,1.23,.58,.16,1.02-.2,1.23-.7,.54-1.28,1.08-2.57,1.62-3.85,.24-.57,.44-1.22,.79-1.73,.15-.22,.36-.42,.59-.59,.04,.05,.07,.1,.12,.14-.13,3.91-.27,7.83-.45,11.74-.4,8.59-1.07,17.17-2.41,25.67-12.33-7.37-20.32-20.19-25.23-33.41-1.51-4.05-2.77-8.18-3.8-12.37,2.61,.71,5.2,1.49,7.75,2.38,1.22,.43,1.74-1.51,.53-1.93-2.58-.9-5.19-1.69-7.82-2.4,2.26-3.2,4.66-6.29,7.21-9.27,.83-.97-.57-2.39-1.41-1.41-2.49,2.91-4.84,5.92-7.07,9.03-2.36-11.15-3.09-22.65-2.17-34.01,.16-1.96,.38-3.91,.64-5.85,1.78,2.81,3.39,5.72,4.8,8.74,.23,.49,.93,.61,1.37,.36,.5-.29,.59-.88,.36-1.37-1.61-3.46-3.48-6.8-5.59-9.98,2.52-2.22,5.02-4.47,7.47-6.77,.94-.88-.48-2.29-1.41-1.41-2.06,1.93-4.16,3.83-6.28,5.71,1.05-6.02,2.57-11.96,4.55-17.75,.42-1.22-1.51-1.74-1.93-.53-2.02,5.91-3.55,11.98-4.61,18.14-.98-2.35-1.97-4.7-3.02-7.02-.22-.49-.94-.61-1.37-.36-.51,.3-.58,.87-.36,1.37,1.33,2.95,2.59,5.93,3.8,8.93-.86,.39-1.74,.75-2.64,1.04-1.22,.4-.7,2.33,.53,1.93,.78-.25,1.54-.55,2.3-.86-1.22,9.49-1.31,19.12-.24,28.63,.41,3.61,.97,7.24,1.7,10.85-.63-.42-1.29-.79-1.98-1.1-.49-.22-1.08-.14-1.37,.36-.25,.43-.14,1.15,.36,1.37,1.36,.61,2.58,1.43,3.65,2.46,0,.04,.02,.07,.02,.11-.58,1.54-1.22,3.05-1.95,4.52-.58,1.15,1.15,2.16,1.73,1.01,.37-.73,.7-1.48,1.03-2.23,2.65,10.15,6.71,19.96,12.57,28.54,3.79,5.55,8.43,10.51,13.92,14.37-1.13-.31-2.25-.63-3.35-.99-6.35-2.04-12.15-5.24-16.8-10.07-3.5-3.63-6.28-7.86-8.67-12.29,.13-.48-.15-1.09-.69-1.29-.36-.7-.72-1.4-1.07-2.11-3.07-6.23-5.7-12.7-7.88-19.3-4.39-13.27-6.89-27.28-6.13-41.28,1.26-23.16,12.72-46.71,33.41-58.41,2.46-1.39,5.03-2.59,7.68-3.58,.28-.1,.46-.29,.56-.51,.03-.03,.06-.06,.08-.08,.04-.04,.05-.09,.08-.13,.02,.01,.04,.03,.04,.03,0,0,.02,.01,.02,.02h.01s0,0,0,0c.06,.03,.18,.08,.24,.1,0,0,.02,0,.03,0,0,0,.01,0,.02,0,.05,0,.22,.03,.27,.04,0,0,0,0,0,0,.01,0,.02,0,.03,0,.04,0,.13-.02,.14-.02,.02,0,.09-.01,.14-.02,0,0,0,0,.01,0,.01,0,.02,0,.03,0,.04-.02,.1-.04,.12-.05,.01,0,.08-.03,.12-.05,0,0,0,0,.01,0,0,0,.02-.01,.03-.02,.02-.01,.04-.03,.06-.05,1.96,2.71,3.94,5.41,7,6.92,4.74,2.34,10.83,1.54,15.69-.09,3.83-1.29,7.38-3.47,9.7-6.69,.03,.04,.06,.09,.1,.13,.07,.05,.13,.1,.2,.16,.12,.07,.24,.1,.38,.12,.04,.04,.09,.08,.13,.12,.03,.03,.07,.04,.1,.07,7.91,9.25,13.25,20.35,16.34,32.07-.51-.18-1.02-.37-1.52-.57-.07-.3-.27-.58-.64-.71-1-.34-2.01-.68-3.01-1.02-1.08-.36-1.76,1.29-.77,1.83,2.04,1.11,4.17,2.01,6.38,2.72-1.4,2.69-2.81,5.38-4.24,8.05-.6,1.13,1.11,2.14,1.73,1.01,1.07-1.97,2.2-3.9,3.36-5.82,.59,2.96,1.06,5.94,1.38,8.93,.7,6.4,.77,12.8,.36,19.18-.9-.9-1.81-1.78-2.74-2.65-.94-.88-2.36,.53-1.41,1.41,1.22,1.14,2.41,2.32,3.59,3.52-.61,.18-1.31,.23-1.9,.35-3.11,.62-6.23,1.23-9.35,1.85-1.26,.25-.73,2.18,.53,1.93,3.33-.66,6.65-1.31,9.98-1.97,.31-.06,.64-.11,.96-.17-1.04,10.58-3.39,21.05-6.56,31.21-.43,1.37-.87,2.73-1.32,4.09-.52-1.94-1.06-3.87-1.67-5.78-.39-1.22-2.32-.7-1.93,.53,.84,2.64,1.57,5.3,2.23,7.98-1.74,.23-3.49,.4-5.25,.42-1.29,.01-1.29,2.01,0,2,1.66-.02,3.31-.18,4.96-.38-2.66,7.4-5.69,14.68-8.91,21.85-.52,1.16,1.2,2.18,1.73,1.01,3.03-6.74,5.91-13.59,8.47-20.54,.49,2.31,.93,4.64,1.29,6.97,.19,1.27,2.12,.73,1.93-.53-.47-3.07-1.06-6.11-1.75-9.14,3.46-.51,6.92-1.04,10.44-.83,1.29,.08,1.28-1.92,0-2-3.44-.21-6.83,.3-10.23,.8,3.5-10.15,6.26-20.53,7.81-31.17,.3-2.05,.54-4.11,.75-6.18,1.84,1.97,3.61,4.01,5.31,6.11,.34,.42,1.06,.35,1.41,0,.41-.41,.34-.99,0-1.41-1.91-2.36-3.92-4.63-6.01-6.83,1.08-1.31,2.16-2.62,3.24-3.92,.81-.99-.59-2.41-1.41-1.41-.72,.87-1.44,1.75-2.16,2.62,.6-10.15-.05-20.36-2.25-30.27,.08-.13,.16-.26,.24-.39,1.4,.45,2.87,.64,4.34,.53,1.28-.09,1.29-2.1,0-2-1.11,.08-2.18-.02-3.22-.29,.81-1.24,1.63-2.47,2.47-3.68,.64-.92-.86-2.11-1.57-1.21-.05,.07-.1,.14-.15,.21,0,0,0,0,0,0-.03,.05-.06,.09-.09,.14-.97,1.26-1.86,2.57-2.66,3.94-.75-2.97-1.64-5.91-2.69-8.81-3.31-9.13-8.11-17.67-14.45-25.04-.03-.04-.07-.05-.1-.08-.02-.02-.03-.05-.05-.07-.08-.08-.18-.15-.28-.22-.02-.02-.05-.03-.07-.05l-.47-.44s-.1-.06-.15-.1c.06-.12,.12-.24,.18-.36,2.2,1.14,4.56,1.55,6.96,1.49,10.82,5.65,20.15,14.02,26.93,24.18,7.32,10.99,11.37,23.84,12.14,37,1.56,26.57-9.86,51.93-27.62,71.24-4.35,4.73-9.04,9.32-14.21,13.14Zm81.52-23.69c-.13,.02-.26,.04-.38,.06-.75,.11-.86,.82-.57,1.35-.83,1.21-1.7,2.41-2.63,3.55-1.1,1.35-2.27,2.62-3.48,3.85-.41,.11-.72,.41-.8,.79-4.15,4.01-8.92,7.34-14.08,9.96-15.82,8.02-34.23,8.78-51.37,5.25-1.66-.34-3.31-.74-4.95-1.15,1.75-1.41,3.44-2.89,5.08-4.4,11.58-10.7,21.28-23.66,27.62-38.05,.01,.03,.02,.05,.04,.08,2.89,4.2,5.79,8.4,8.68,12.6,.73,1.05,2.46,.05,1.73-1.01-2.44-3.54-4.87-7.07-7.31-10.61,2.86,.6,5.72,1.21,8.59,1.81,1.25,.25,1.79-1.66,.53-1.93-3.31-.67-6.59-1.5-9.82-2.47,.75-.38,1.51-.76,2.26-1.14,1.15-.58,.14-2.31-1.01-1.73-.78,.39-1.56,.79-2.34,1.18,2.98-7.45,5.06-15.26,6.04-23.32,1.52,2.14,3.04,4.28,4.55,6.42,.31,.44,.87,.65,1.37,.36,.43-.25,.67-.93,.36-1.37l-4.03-5.68c1.42,.36,2.87,.63,4.34,.77,.94,.09,1.21-1.12,.71-1.71-.61-.7-1.21-1.41-1.82-2.11,.37-.69,1.08-1.14,1.88-1.16,1.29-.02,1.29-2.02,0-2-1.49,.02-2.93,.85-3.64,2.18-.18,.33-.4,.78-.4,1.17,0,.49,.42,.85,.72,1.2,0,.01,.02,.02,.03,.03-1.28-.26-2.53-.61-3.76-1.05,.07-.79,.13-1.59,.18-2.39,.59-9.96-.55-20.04-3.56-29.54,3.11,2.39,6.19,4.82,9.22,7.31,.99,.81,2.41-.6,1.41-1.41-2.8-2.29-5.64-4.53-8.5-6.74,.9-.18,1.8-.36,2.71-.54,1.27-.25,.72-2.14-.53-1.93-.94,.16-1.87,.32-2.81,.48l3.07-4.78c.7-1.09-1.03-2.09-1.73-1.01-1.26,1.96-2.52,3.92-3.78,5.87-.98-2.72-2.11-5.4-3.41-8-5.56-11.1-13.98-20.73-24.16-27.82-1.79-1.25-3.64-2.4-5.53-3.48,1.41-.26,2.81-.64,4.17-1.08,5.81-1.91,11.3-4.69,17.09-6.71,3.14-1.09,6.33-2.08,9.54-2.94,.38-.1,.77-.2,1.15-.3,.07,.19,.2,.36,.45,.48,13.39,6.37,25.82,15.04,35.68,26.18,4.85,5.48,9.03,11.57,12.22,18.16,3.58,7.39,5.71,15.35,6.59,23.5,.94,8.7,.82,17.57,.07,26.27-.67,7.84-2.02,15.65-4.45,23.14-1.76,5.44-4.14,10.72-7.23,15.54Zm64.08-68.57c-1.06,8.35-3.27,16.63-7.09,24.15-3.36,6.61-7.86,12.58-13.02,17.88-5.22,5.36-11.09,10.06-17.29,14.24-6.53,4.4-13.47,8.7-21.04,11.01-.99,.3-1.99,.56-2.99,.79,1.57-2.62,2.96-5.35,4.15-8.17,1.3-3.05,2.38-6.19,3.3-9.39,.03,.03,.05,.05,.08,.08,0,.05-.02,.09-.02,.14-.02,2.95,.44,5.9,1.37,8.7,.4,1.22,2.33,.7,1.93-.53-.61-1.86-1-3.76-1.18-5.7,1.59,1.46,3.28,2.8,5.05,4.02,.93,.64,2.06-.82,1.21-1.57-2.04-1.81-4.04-3.67-6-5.56,.85-.15,1.7-.3,2.54-.45,.53-.09,.83-.74,.7-1.23-.15-.56-.7-.79-1.23-.7-1.29,.23-2.58,.46-3.87,.69,2.66-10.16,3.61-20.84,3.58-31.32,.11,.06,.24,.1,.37,.12,2.38,2.71,4.82,5.35,7.36,7.91,.91,.92,2.32-.5,1.41-1.41-2.03-2.05-3.99-4.17-5.92-6.31l8.03,.49c.54,.03,1-.48,1-1,0-.6-.46-.93-1-1-2.74-.36-5.5-.62-8.26-.8,.65-.64,1.29-1.27,1.94-1.91,.92-.9-.5-2.32-1.41-1.41-1.11,1.09-2.22,2.18-3.32,3.27-.08,.03-.15,.07-.21,.12-.02-1.32-.05-2.63-.1-3.94-.33-8.94-1.67-17.85-4.87-26.24-1.36-3.58-3.01-7.04-4.91-10.35,3.19,.6,6.36,1.28,9.5,2.07,1.25,.31,1.78-1.62,.53-1.93-2.74-.68-5.49-1.28-8.26-1.82,1.24-.69,2.48-1.39,3.72-2.08,1.12-.63,.12-2.36-1.01-1.73-1.94,1.08-3.88,2.17-5.82,3.25-1.46-2.37-3.04-4.67-4.74-6.88-1.4-1.83-2.88-3.59-4.41-5.3,2.64-1.01,5.25-2.09,7.81-3.29,.49-.23,.61-.93,.36-1.37-.29-.5-.88-.59-1.37-.36-2.24,1.04-4.51,1.99-6.81,2.88,.36-2.03,.63-4.08,.78-6.14,.04-.54-.49-1-1-1-.58,0-.96,.46-1,1-.16,2.04-.43,4.07-.8,6.08-8.26-8.67-18.12-15.82-28.68-21.43-1.29-.68-2.59-1.34-3.91-1.98,1.28-.33,2.56-.69,3.81-1.11,3.94-1.34,8.14-3.46,9.72-7.58,1.94-5.06-1.14-9.79-4.5-13.53,3.73,.17,7.52-.4,10.7-2.49,.64-.42,1.23-.91,1.79-1.43,.16,.24,.41,.42,.79,.42,15.79-.37,31.67,3.46,45.34,11.44,12.83,7.49,23.4,18.64,30.1,31.91,7.46,14.77,9.09,31.49,7.03,47.76Zm13.91-69c-.67,12.68-5.81,24.9-13.7,34.77-.85-3.23-1.91-6.41-3.2-9.5-3.62-8.67-8.84-16.63-15.27-23.46,3.07-.12,6.12-.46,9.13-1.04,1.26-.24,.73-2.17-.53-1.93-2.45,.47-4.93,.77-7.42,.91,1.26-2.18,2.45-4.4,3.52-6.68,.54-1.15-1.12-2.16-1.73-1.01-1.16,2.21-2.46,4.33-3.88,6.38-.4-1.42-.81-2.84-1.21-4.25-.35-1.24-2.28-.71-1.93,.53,.4,1.41,.81,2.82,1.21,4.24-3.05-2.94-6.34-5.64-9.82-8.05-5.02-3.47-10.43-6.36-16.09-8.64,3.65-1.7,7.15-3.7,10.45-6.01,1.05-.73,.05-2.47-1.01-1.73-2.88,2.02-5.92,3.79-9.07,5.34,.41-1.63,.73-3.29,.95-4.96,0,0,0-.02,0-.02,0,0,0,0,0,0,.01-.09,.03-.18,.04-.27,.14-1.13-1.69-1.33-1.96-.27-.5,1.93-1.03,3.84-1.55,5.76-.41-.59-.82-1.18-1.23-1.77-.73-1.05-2.46-.05-1.73,1.01,.32,.45,.63,.91,.95,1.36-8.09-2.79-16.59-4.4-25.13-4.78-1.83-.08-3.65-.09-5.48-.06,1.51-1.9,2.55-4.18,3.07-6.55,1.85-8.46-3.08-16.53-10.17-20.88-1.74-1.07-4.02-1.77-5.47-3.29,.8-.28,1.61-.56,2.41-.83,.28-.1,.5-.31,.63-.56,21.76-9.78,47.25-9.46,68.72,1.03,10.46,5.11,20.47,12.53,27.24,22.11,6.75,9.57,9.86,21.44,9.25,33.1Z"/></g></g></svg>
