<svg id="Paon-2" xmlns="http://www.w3.org/2000/svg" viewBox="0 0 340.05 292.57">
<g id="Calque_4"><g>
<path class="cls-1" d="M115.85,171.77c3.05,3.48,7.9,5.02,12.4,4.15,5.71-6.26,10.5-13.33,14.19-20.93-.06-.13-.1-.29-.09-.47,.33-4.16-1.54-7.96-3.4-11.55-1.72-3.32-3.62-6.54-5.63-9.7-4.11-6.45-8.67-12.6-13.14-18.81-8.06-11.2-15.35-22.85-21.38-35.28-1.48-3.05-2.88-6.13-4.22-9.25-.63-1.46-1.24-2.98-2.2-4.27-1-1.34-2.38-2.16-3.84-2.89-6.3-3.18-12.71-6.14-19.02-9.3-6.21-3.11-12.41-6.38-18.47-9.89-.13,.21-.34,.39-.58,.45-.58,.15-1.16,.29-1.73,.44-.09,.02-.18,.02-.26,.01-.1,.08-.23,.14-.39,.17-5.29,1.09-10.57,3.77-13.54,8.44-5.79,9.09-.19,20.26,6.98,26.62,3.99,3.54,8.63,6.25,13.25,8.86,5.39,3.04,10.79,6.06,16.18,9.08,.69,.39,.6,1.32,0,1.73-3.52,2.39-7.1,4.82-9.83,8.14-2.31,2.81-3.9,6.41-3.72,10.09,.18,3.61,2.36,6.55,5.09,8.75,6.04,4.86,14.08,6.74,21.43,8.61,.61,.15,.95,.93,.6,1.47-2.08,3.23-5.74,5.37-7.33,8.91-1.39,3.09-.5,6.68,1.34,9.38,2.11,3.1,5.54,4.81,9.14,5.51,8.4,1.64,16.68-2.01,24.85-3.35,.65-.11,1.55,.45,1.23,1.23-1.84,4.51-1.15,9.94,2.1,13.65Z"/>
<path class="cls-1" d="M125.72,184.99c-.18-.19-.3-.45-.3-.71,0-.12-.02-.24-.03-.35-.01-.04-.02-.08-.04-.11-.04-.11-.03-.2-.04-.3-.06-.26-.13-.51-.23-.76-.08-.17-.17-.34-.26-.5-2.01,1.88-4.1,3.67-6.27,5.37-4.67,3.67-9.56,7.15-13.59,11.55-4.07,4.44-7.12,9.72-9.57,15.19-5.32,11.9-7.91,24.83-10.13,37.61-1.15,6.61-2.18,13.25-3.09,19.9-.45,3.32-.96,6.65-1.19,9.99-.18,2.67-.12,5.4,.73,7.94,3.05-3,6.04-6.06,8.92-9.23,11.1-12.2,20.81-25.61,28.99-39.92,0-.08,0-.15,.03-.23,5.7-17.72,11.71-36.95,6.06-55.43Z"/>
<path class="cls-1" d="M40.48,34.69c11.75,7.87,24.37,14.31,37.06,20.5,3.19,1.56,6.38,3.1,9.57,4.65,2.88,1.4,5.69,2.66,7.45,5.47,1.75,2.8,2.82,6.1,4.2,9.1,1.45,3.15,2.98,6.26,4.58,9.33,6.47,12.43,14.35,23.84,22.53,35.19,3.94,5.47,7.84,10.98,11.3,16.76,1.77,2.96,3.46,5.98,4.91,9.11,.95,2.04,1.75,4.16,2.1,6.36,2.98-6.98,5.07-14.35,6.12-21.93-.07-.02-.15-.04-.22-.07-.19-.07-.32-.18-.43-.31-12.91-2.82-20.67-14.82-26.55-25.73-6.55-12.15-13-24.36-19.5-36.54-1.56-2.92-3.08-5.86-4.69-8.75-1.47-2.63-3.1-5.21-5.29-7.31-2.24-2.14-5.02-3.58-7.83-4.82-2.94-1.3-5.93-2.47-8.88-3.73-12.18-5.19-24.17-10.89-35.51-17.76C30.74,17.75,18.39,10.6,8.08,3.25c8.54,11.69,20.47,23.45,32.4,31.44Z"/>
<path class="cls-1" d="M206.48,55.85c5.05,2.26,9.53,5.66,12.77,10.25,1.42,2.01,2.48,4.32,3.1,6.74,2.74-1.28,5.31-3.35,6.27-6.3,1.13-3.49-.06-7.27-1.5-10.49-1.42-3.19-3.23-6.22-4.2-9.6-.45-1.58-.72-3.24-.65-4.88,.05-1.22,.34-2.43,.45-3.65-3.96,3.62-7.81,7.62-9.12,12.95-.19,.78-1.47,1.04-1.83,.24-2.46-5.48-3.1-11.59-1.79-17.4-6.28,5.37-7.95,14.65-3.56,21.96,.04,.06,.04,.13,.07,.19Z"/>
<path class="cls-1" d="M216.16,91.28s-.06-.03-.09-.06c-.1-.09-.17-.2-.21-.32-.06-.12-.09-.25-.09-.39,0-.03,0-.05-.01-.08-.25,.16-.56,.21-.85,.15-2.06,.91-4.34,1.3-6.54,1.03,4.76,10.1,9.3,20.29,13.64,30.58l-5.87-30.54c-.03-.14-.02-.26,0-.38Z"/>
<path class="cls-1" d="M104.15,197.12c4.22-4.43,9.27-7.92,14.02-11.72,2.82-2.25,5.47-4.68,7.98-7.25-4.38,.11-8.79-1.63-11.71-4.96-3.33-3.8-4.49-9.22-3.14-14.05-4.85,.95-9.58,2.45-14.48,3.13-7.69,1.07-16.91-.32-20.83-7.91-1.6-3.1-2.03-6.8-.52-10.02,1.47-3.14,4.41-5.15,6.53-7.8-4.33-1.12-8.66-2.3-12.78-4.06-6.86-2.93-14.55-8.17-13.76-16.63,.74-7.91,7-13.01,13.11-17.24-6.03-3.37-12.1-6.68-18.05-10.18-9.29-5.47-18.59-12.89-20.12-24.28-.69-5.13,.61-10.25,4.02-14.19,3.23-3.74,7.89-6.05,12.66-7.12,.11-.1,.24-.18,.38-.22,.47-.12,.95-.23,1.42-.32C32.85,32.76,17.07,19.08,6.03,3.82c-1.72,2.68-2.89,5.68-3.51,8.81C-.43,27.43,9.13,40.95,21.76,47.67c.55,.29,.67,1.15,.2,1.57-6.72,6.15-11.23,14.87-10.76,24.12,.41,8.16,4.64,15.41,11.57,19.72,3.41,2.12,7.17,3.58,10.98,4.82,1.02,.33,2.05,.65,3.08,.96,.7,.21,1.46,.41,2.04,.9,1.51,1.28,.72,3.09-.04,4.55-3.99,7.56-7.23,16.78-4.5,25.31,2.17,6.76,8.37,12.74,15.81,12.31,.68-.04,1.1,.67,.96,1.27-1.87,8.1,.59,17.02,6.48,22.92,5.88,5.9,14.79,8.39,22.9,6.55,.63-.14,1.26,.29,1.27,.96,.13,12.01,7.46,23.33,18.27,28.49,1.26-1.75,2.63-3.43,4.12-5Z"/>
<path class="cls-1" d="M333.43,193.54c-3.13-2.45-6.25-4.92-9.35-7.41-12.02-9.68-23.75-19.71-35.18-30.08-2.78-2.52-5.53-5.08-8.29-7.63-2.57-2.37-5.24-4.73-8.41-6.27-3.44-1.67-7.16-1.75-10.9-1.41-3.88,.36-7.76,.88-11.62,1.44-15.21,2.19-30.25,5.5-44.98,9.86-.11,.1-.24,.18-.37,.23-1.14,.31-2.29,.63-3.43,.94,.24,2.23,.37,4.47,.42,6.72,.08-.11,.18-.19,.3-.25,.95-.42,1.92-.75,2.93-.95,.07-.01,.14,0,.22-.01,10.46-3.45,21.11-6.32,31.9-8.56,4.84-1.01,9.71-1.89,14.59-2.65,2.37-.37,4.74-.73,7.12-1.01,2.39-.29,4.77-.31,7.04,.6,2.04,.81,3.8,2.13,5.56,3.41,2.03,1.48,4.06,2.96,6.08,4.44,4.04,2.97,8.07,5.96,12.09,8.98,15.93,11.96,31.6,24.25,47.03,36.86,.45-.65,.9-1.3,1.33-1.96,.58-.91,.7-1.44-.13-2.2-1.21-1.12-2.63-2.06-3.93-3.07Z"/>
<path class="cls-1" d="M196.11,184.72c3.84-14.38,4.72-29.98,.05-44.28-2.32-7.1-6.12-13.36-10.77-19.16-4.36-5.45-9.18-10.66-12.52-16.83-3.38-6.25-4.7-13.26-2.93-20.21,1.76-6.9,6.2-13.52,12.08-17.58,2.86-1.97,6.33-2.71,9.51-1.02,2.8,1.49,4.72,4.37,5.96,7.21,2.51,5.76,2.8,15.05,10.34,16.65,2.02,.43,4.19,.17,6.13-.63-.31-1.26-.57-2.53-.74-3.82-.17-.08-.32-.17-.49-.3-.14-.11-.25-.26-.35-.41-.01-.02-.02-.04-.03-.05-.02,0-.04,.01-.07,.01-.29,0-.49-.12-.71-.29-.87-.7-1.22-1.85-1.06-2.93,.14-.94,.82-1.85,1.68-2.26-.92-2.11-2.75-3.7-4.81-4.74-1.15-.58-.14-2.3,1.01-1.73,2.64,1.32,4.89,3.48,5.9,6.3,.6,1.69,.62,3.51,.79,5.28,.13,1.34,.37,2.67,.68,3.99,.41-.27,.81-.55,1.17-.87,2.72-2.39,3.99-6.04,4.03-9.6,.09-7.81-5.61-14.16-11.96-17.97-12.04-7.24-28.28-6.64-39.8,1.37-11.23,7.81-16.92,22.58-14.59,35.96,.63,3.63,1.93,6.97,3.45,10.32,1.6,3.53,3.23,7.14,3.44,11.07,.27,5.09-3.81,11.6-9.24,11.4-1.67,11.79-5.69,23.18-11.82,33.4-2.94,4.91-6.35,9.47-10.15,13.68,.03,.42-.16,.86-.69,1-.1,.03-.2,.04-.3,.07-.99,1.06-2,2.1-3.04,3.11,.07,.06,.13,.13,.18,.2,.47,.73,.77,1.57,.9,2.43,6.06,18.47,.55,37.73-5.15,55.58,3.33,.15,6.67,.19,10,.08,14.89-.5,30.46-4.06,41.84-14.24,2.83-2.53,5.32-5.39,7.54-8.44-.7-.61,.11-1.88,1.11-1.59,1.94-2.83,3.68-5.81,5.23-8.86,3.46-6.78,6.22-13.94,8.18-21.3Z"/>
<path class="cls-1" d="M285.6,163.75c-3.95-2.96-7.92-5.89-11.91-8.81-1.9-1.39-3.78-2.81-5.71-4.14-1.92-1.32-3.93-2.39-6.3-2.5-2.5-.11-5.06,.41-7.52,.77-2.37,.35-4.73,.72-7.09,1.13-4.79,.83-9.57,1.77-14.31,2.84-9.49,2.13-18.87,4.75-28.11,7.81-.04,.01-.07,0-.11,.01-1.05,.43-2.11,.82-3.19,1.16-.05,7.79-1.23,15.58-3.26,23.13,.1,.05,.2,.1,.28,.18,.53,.51,1.08,1,1.66,1.46,.05,.02,.11,.05,.17,.09,5.09,3.35,11.53,3.41,17.19,1.59,6.3-2.02,11.67-6.15,16.81-10.18,.77-.6,1.9-.06,1.67,.97-.95,4.35-1.72,8.82,.65,12.86,3.77,6.43,11.67,8.33,18.6,6.97,7.8-1.54,14.3-6.39,20.53-11.05,.88-.66,1.76,.57,1.37,1.37-2.08,4.28-4.24,8.85-4.28,13.71-.03,3.8,1.32,7.94,4.57,10.17,3.6,2.46,8.35,2.06,12.31,.79,4.38-1.41,8.34-3.84,12.65-5.44,.82-.3,1.59,.77,1.13,1.47-1.72,2.63,.41,6.04,3.05,7.05,3.77,1.45,8.12-.46,11.5-2.1,6.41-3.12,12.06-7.57,16.67-12.99-8.35-6.82-16.77-13.56-25.28-20.2-7.85-6.12-15.75-12.17-23.73-18.12Z"/>
<path class="cls-1" d="M319.67,216.42c-3.1,1.57-6.45,3.07-9.98,3.21-2.96,.11-5.76-.95-7.53-3.38-1.04-1.43-1.56-3.2-1.33-4.89-3.64,1.56-7.11,3.52-10.89,4.71-6.7,2.11-14.66,.96-17.81-6.06-2.7-6-1.02-12.23,1.46-17.97-3.08,2.25-6.23,4.39-9.65,6.08-7.16,3.54-16.15,5.13-23.35,.8-2.94-1.77-5.41-4.4-6.71-7.6-1.31-3.2-1.09-6.56-.5-9.87-4.85,3.74-9.95,7.29-15.86,9.09-5.62,1.71-11.98,1.65-17.18-1.21-.17,0-.34-.03-.47-.12-.83-.6-1.62-1.25-2.38-1.94-1.05,3.6-2.28,7.14-3.67,10.59-2.5,6.21-5.52,12.27-9.28,17.76,3.16,1.25,6.43,2.22,9.76,2.87,13.83,2.68,28.58,.03,40.53-7.47,.87-.55,1.84,.52,1.37,1.37-1.94,3.45-4.97,6.29-6.53,9.96-1.1,2.59-1.47,6.24,.67,8.42,2.32,2.37,6.79,2.41,9.89,2.32,6.71-.2,13.25-2.87,18.17-7.44,.69-.65,2-.02,1.67,.97-1.09,3.32-2.25,6.93-1.76,10.47,.45,3.24,2.55,5.8,5.61,6.91,6.6,2.39,12.85-2,16.67-7.1,.26-.35,.67-.61,1.13-.46,7.47,2.45,15.59,1.15,22.56-2.25,6.97-3.4,12.7-8.81,17.72-14.64,2.74-3.18,5.33-6.51,7.84-9.9-.53,.45-1.06,.9-1.61,1.33-2.68,2.09-5.54,3.93-8.57,5.46Z"/>
<path d="M338.24,194.76c-1.56-1.24-3.14-2.44-4.71-3.66-12.89-10.11-25.47-20.62-37.71-31.52-3.03-2.7-6.04-5.42-9.03-8.16-2.82-2.59-5.55-5.32-8.55-7.7-2.66-2.11-5.61-3.95-8.96-4.7-3.96-.88-8.05-.3-12.02,.17-16.24,1.92-32.32,5.08-48.08,9.47-2.01,.56-4.01,1.14-6,1.74-.16,.05-.29,.12-.39,.22-.06,0-.14,.02-.17,.03-.02,0-.03,0-.05,0-.17,.02-.33,.03-.5,.03-.28,0-.54,.14-.73,.33l-.73,.2c-.92-6.69-2.8-13.22-5.82-19.27-3.3-6.61-8.1-12.15-12.73-17.84-4.45-5.46-8.89-11.35-10.43-18.37-1.66-7.57,.75-15.43,5.41-21.48,2.23-2.89,5.38-6.38,9.02-7.36,3.68-.99,6.67,1.64,8.46,4.59,3.51,5.8,3.03,13.91,8.91,18.24,.88,.65,1.83,1.11,2.82,1.44-.07,.23-.08,.48,.05,.75,5.94,12.57,11.55,25.29,16.84,38.15,.1,.25,.28,.42,.47,.53,.25,1.28,.49,2.56,.74,3.84,.24,1.26,2.17,.73,1.93-.53-2.74-14.25-5.47-28.5-8.21-42.76-.05-.25-.17-.41-.32-.52,0-.03,.01-.06,.01-.08-.06-.47-.12-.93-.18-1.4,0-.04-.02-.07-.02-.1,1.04-.78,1.96-1.7,2.71-2.75,2.39-3.38,3.06-7.47,2.48-11.43,2.83-1.27,5.48-3.12,6.99-5.9,1.83-3.35,1.5-7.27,.33-10.78-1.25-3.75-3.42-7.09-4.77-10.8-.67-1.86-1.13-3.8-1.05-5.78,.09-2.08,.68-4.01,.35-6.1-.13-.8-1.17-.89-1.67-.44-4.06,3.64-8.26,7.57-10.38,12.64-1.72-5.24-1.67-10.95,.12-16.2,.28-.83-.75-1.57-1.47-1.13-8.38,5.09-11.51,15.66-7.53,24.41-7.24-2.56-15.35-2.95-22.65-1.26-6.79,1.58-13.14,5-18.01,10.01-4.7,4.84-8.01,10.98-9.67,17.5-1.67,6.58-1.7,13.64,.22,20.17,1.13,3.85,3.11,7.36,4.52,11.11,1.35,3.58,2.17,7.52,.24,11.04-1.32,2.41-3.7,4.47-6.44,4.2-.11-.18-.3-.32-.58-.37-12.25-2.12-19.82-12.91-25.41-23.06-6.62-12.02-12.95-24.22-19.41-36.33-1.58-2.96-3.16-5.92-4.74-8.88-1.34-2.51-2.73-5-4.48-7.26-3.81-4.89-9.23-7.16-14.79-9.47-12.3-5.1-24.46-10.62-36-17.27C33.72,17.54,19.32,9.03,7.43,.33,7.23,.11,6.96-.02,6.69,0c-.01,0-.02,0-.03,0-.03,0-.07,0-.1,.02-.27,.06-.49,.26-.62,.52C1.22,6.49-.69,14.24,.22,21.75c.93,7.64,4.72,14.59,10.12,20,2.74,2.75,5.89,5.07,9.26,6.99-5.63,5.52-9.59,12.81-10.32,20.73-.73,8.02,2.06,16.44,8.02,21.96,3.02,2.8,6.64,4.8,10.41,6.38,1.93,.81,3.9,1.51,5.9,2.15,1.02,.33,2.06,.62,3.08,.95,.55,.18,1.02,.34,1.04,.95,.02,.57-.58,1.35-.84,1.84-4.08,7.77-7.19,17.18-4.65,25.94,2.15,7.41,8.71,14.09,16.68,14.3-1.16,6.48,.12,13.29,3.57,18.91,3.69,6.01,9.8,10.22,16.66,11.76,3.51,.79,7.12,.86,10.65,.23,.59,12.17,8.08,23.64,19.07,28.94-1.77,2.67-3.31,5.49-4.67,8.39-5.43,11.65-8.2,24.29-10.45,36.88-1.35,7.57-2.55,15.17-3.58,22.79-.89,6.58-2.59,13.95,.3,20.26,.28,.6,1.15,.61,1.57,.2,12.22-11.84,23.11-25.05,32.41-39.31,2.54-3.9,4.95-7.89,7.25-11.94,14.86,.71,30.49-.71,43.81-7.81,7.32-3.9,13.12-9.48,17.84-15.96,13.11,5.29,28.05,5.59,41.38,.84,2.55-.91,5.03-2.01,7.42-3.28-1.59,2.15-3.27,4.26-4.32,6.73-1.24,2.93-1.61,6.71,.2,9.5,2.02,3.11,6.01,3.73,9.44,3.96,3.81,.26,7.69-.26,11.31-1.46,3.02-1,5.84-2.47,8.39-4.34-.81,2.95-1.32,6.02-.69,9.03,.75,3.54,3.25,6.24,6.58,7.54,7.3,2.85,14.29-1.66,18.74-7.25,13.94,4.21,27.93-3.42,37.54-13.17,5.29-5.37,9.85-11.46,14.26-17.55,1.16-1.6,2.31-3.22,3.43-4.85,.98-1.41,2.54-3.03,2.92-4.74,.33-1.48-.67-2.61-1.74-3.46Zm-116.22-72.57c-4.34-10.28-8.88-20.48-13.64-30.58,2.2,.26,4.48-.12,6.54-1.03,.29,.06,.6,.02,.85-.15,0,.03,0,.05,.01,.08,0,.14,.02,.27,.09,.39,.04,.12,.11,.23,.21,.32,.02,.03,.06,.03,.09,.06-.02,.12-.03,.24,0,.38l5.87,30.54Zm-12.04-88.48c-1.31,5.82-.67,11.92,1.79,17.4,.36,.8,1.63,.55,1.83-.24,1.32-5.33,5.17-9.33,9.12-12.95-.11,1.22-.4,2.43-.45,3.65-.07,1.64,.2,3.31,.65,4.88,.97,3.38,2.78,6.41,4.2,9.6,1.44,3.22,2.63,7,1.5,10.49-.96,2.96-3.52,5.02-6.27,6.3-.62-2.42-1.68-4.74-3.1-6.74-3.25-4.59-7.72-7.98-12.77-10.25-.02-.06-.03-.12-.07-.19-4.38-7.31-2.72-16.59,3.56-21.96ZM41.41,24.21c11.34,6.87,23.33,12.57,35.51,17.76,2.95,1.26,5.94,2.44,8.88,3.73,2.81,1.24,5.59,2.68,7.83,4.82,2.19,2.1,3.82,4.68,5.29,7.31,1.62,2.89,3.13,5.83,4.69,8.75,6.5,12.18,12.95,24.39,19.5,36.54,5.88,10.9,13.64,22.91,26.55,25.73,.11,.13,.24,.24,.43,.31,.07,.03,.15,.05,.22,.07-1.04,7.58-3.13,14.95-6.12,21.93-.35-2.2-1.15-4.32-2.1-6.36-1.45-3.13-3.14-6.15-4.91-9.11-3.47-5.79-7.36-11.3-11.3-16.76-8.18-11.35-16.06-22.76-22.53-35.19-1.6-3.07-3.13-6.19-4.58-9.33-1.38-2.99-2.45-6.3-4.2-9.1-1.76-2.81-4.57-4.07-7.45-5.47-3.19-1.55-6.38-3.09-9.57-4.65-12.69-6.2-25.32-12.63-37.06-20.5C28.55,26.7,16.63,14.94,8.08,3.25c10.31,7.35,22.66,14.5,33.33,20.96ZM112.52,156.89c-8.17,1.34-16.45,4.99-24.85,3.35-3.6-.71-7.03-2.42-9.14-5.51-1.84-2.7-2.73-6.28-1.34-9.38,1.59-3.54,5.25-5.68,7.33-8.91,.35-.54,0-1.31-.6-1.47-7.34-1.88-15.39-3.75-21.43-8.61-2.73-2.2-4.91-5.14-5.09-8.75-.18-3.68,1.41-7.29,3.72-10.09,2.72-3.31,6.31-5.75,9.83-8.14,.6-.41,.69-1.34,0-1.73-5.39-3.03-10.79-6.04-16.18-9.08-4.62-2.61-9.26-5.32-13.25-8.86-7.16-6.36-12.77-17.54-6.98-26.62,2.98-4.67,8.26-7.35,13.54-8.44,.16-.03,.29-.09,.39-.17,.09,0,.17,0,.26-.01,.58-.15,1.16-.29,1.73-.44,.24-.06,.45-.23,.58-.45,6.06,3.52,12.26,6.78,18.47,9.89,6.31,3.16,12.72,6.12,19.02,9.3,1.46,.74,2.84,1.56,3.84,2.89,.96,1.29,1.57,2.81,2.2,4.27,1.34,3.11,2.74,6.2,4.22,9.25,6.03,12.43,13.32,24.08,21.38,35.28,4.47,6.21,9.03,12.36,13.14,18.81,2.01,3.15,3.91,6.38,5.63,9.7,1.86,3.6,3.72,7.4,3.4,11.55-.01,.19,.03,.34,.09,.47-3.7,7.6-8.48,14.67-14.19,20.93-4.5,.87-9.35-.67-12.4-4.15-3.25-3.71-3.93-9.14-2.1-13.65,.32-.78-.58-1.34-1.23-1.23Zm-30.77,16.74c0-.67-.63-1.11-1.27-.96-8.1,1.84-17.01-.65-22.9-6.55-5.88-5.9-8.34-14.82-6.48-22.92,.14-.6-.29-1.3-.96-1.27-7.44,.42-13.65-5.56-15.81-12.31-2.73-8.53,.5-17.75,4.5-25.31,.77-1.46,1.56-3.27,.04-4.55-.57-.49-1.33-.68-2.04-.9-1.03-.31-2.06-.63-3.08-.96-3.8-1.24-7.57-2.7-10.98-4.82-6.93-4.31-11.16-11.56-11.57-19.72-.47-9.26,4.04-17.98,10.76-24.12,.46-.42,.35-1.28-.2-1.57C9.13,40.95-.43,27.43,2.52,12.63c.62-3.13,1.79-6.13,3.51-8.81,11.04,15.26,26.82,28.94,42.86,38.47-.48,.1-.95,.2-1.42,.32-.15,.04-.27,.12-.38,.22-4.77,1.07-9.43,3.38-12.66,7.12-3.41,3.94-4.71,9.06-4.02,14.19,1.53,11.39,10.83,18.81,20.12,24.28,5.95,3.5,12.02,6.81,18.05,10.18-6.11,4.23-12.37,9.34-13.11,17.24-.79,8.46,6.9,13.7,13.76,16.63,4.12,1.76,8.45,2.95,12.78,4.06-2.12,2.66-5.06,4.66-6.53,7.8-1.51,3.22-1.08,6.92,.52,10.02,3.92,7.59,13.14,8.98,20.83,7.91,4.9-.68,9.64-2.18,14.48-3.13-1.35,4.83-.19,10.25,3.14,14.05,2.92,3.33,7.34,5.07,11.71,4.96-2.51,2.57-5.16,5-7.98,7.25-4.76,3.8-9.81,7.3-14.02,11.72-1.49,1.57-2.86,3.24-4.12,5-10.81-5.16-18.15-16.48-18.27-28.49Zm37.91,66.79c-.03,.08-.02,.15-.03,.23-8.18,14.31-17.9,27.73-28.99,39.92-2.88,3.16-5.87,6.23-8.92,9.23-.85-2.54-.92-5.27-.73-7.94,.23-3.34,.74-6.67,1.19-9.99,.91-6.65,1.94-13.29,3.09-19.9,2.23-12.78,4.81-25.7,10.13-37.61,2.45-5.48,5.5-10.76,9.57-15.19,4.03-4.4,8.92-7.88,13.59-11.55,2.17-1.7,4.26-3.5,6.27-5.37,.1,.16,.19,.33,.26,.5,.1,.25,.17,.5,.23,.76,0,.1,0,.19,.04,.3,.01,.04,.02,.08,.04,.11,.01,.12,.02,.24,.03,.35,0,.26,.12,.52,.3,.71,5.65,18.48-.36,37.71-6.06,55.43Zm63.03-25.54c-1-.29-1.81,.97-1.11,1.59-2.23,3.05-4.71,5.91-7.54,8.44-11.38,10.18-26.95,13.74-41.84,14.24-3.33,.11-6.67,.07-10-.08,5.71-17.84,11.22-37.11,5.15-55.58-.13-.86-.43-1.7-.9-2.43-.05-.08-.12-.14-.18-.2,1.04-1.01,2.05-2.05,3.04-3.11,.1-.02,.2-.04,.3-.07,.53-.14,.72-.57,.69-1,3.8-4.21,7.21-8.77,10.15-13.68,6.13-10.22,10.15-21.61,11.82-33.4,5.43,.2,9.5-6.3,9.24-11.4-.21-3.93-1.84-7.54-3.44-11.07-1.51-3.34-2.81-6.69-3.45-10.32-2.33-13.38,3.36-28.15,14.59-35.96,11.52-8.02,27.76-8.61,39.8-1.37,6.35,3.81,12.05,10.16,11.96,17.97-.04,3.56-1.31,7.21-4.03,9.6-.36,.32-.76,.61-1.17,.87-.31-1.31-.55-2.64-.68-3.99-.17-1.76-.19-3.59-.79-5.28-1.01-2.82-3.26-4.97-5.9-6.3-1.15-.58-2.16,1.15-1.01,1.73,2.06,1.04,3.89,2.62,4.81,4.74-.86,.41-1.54,1.32-1.68,2.26-.16,1.07,.19,2.23,1.06,2.93,.21,.17,.42,.29,.71,.29,.02,0,.04-.01,.07-.01,.01,.02,.02,.04,.03,.05,.1,.15,.21,.29,.35,.41,.16,.14,.32,.22,.49,.3,.17,1.29,.43,2.56,.74,3.82-1.94,.8-4.11,1.06-6.13,.63-7.54-1.6-7.82-10.9-10.34-16.65-1.24-2.84-3.16-5.72-5.96-7.21-3.17-1.69-6.65-.95-9.51,1.02-5.89,4.06-10.33,10.68-12.08,17.58-1.77,6.96-.45,13.97,2.93,20.21,3.34,6.17,8.16,11.38,12.52,16.83,4.65,5.81,8.45,12.06,10.77,19.16,4.67,14.29,3.79,29.9-.05,44.28-1.96,7.36-4.72,14.51-8.18,21.3-1.56,3.05-3.29,6.03-5.23,8.86Zm139.32,4.65c-5.02,5.82-10.75,11.24-17.72,14.64-6.96,3.4-15.08,4.7-22.56,2.25-.46-.15-.87,.11-1.13,.46-3.83,5.1-10.07,9.49-16.67,7.1-3.06-1.11-5.16-3.67-5.61-6.91-.49-3.54,.67-7.15,1.76-10.47,.33-.99-.98-1.62-1.67-.97-4.92,4.56-11.46,7.24-18.17,7.44-3.1,.09-7.56,.05-9.89-2.32-2.14-2.18-1.77-5.83-.67-8.42,1.56-3.66,4.59-6.5,6.53-9.96,.48-.85-.5-1.91-1.37-1.37-11.94,7.49-26.69,10.15-40.53,7.47-3.34-.65-6.61-1.61-9.76-2.87,3.75-5.49,6.77-11.56,9.28-17.76,1.39-3.45,2.62-6.99,3.67-10.59,.76,.69,1.54,1.35,2.38,1.94,.12,.09,.3,.12,.47,.12,5.2,2.87,11.56,2.92,17.18,1.21,5.9-1.8,11.01-5.35,15.86-9.09-.59,3.31-.81,6.67,.5,9.87,1.31,3.2,3.77,5.83,6.71,7.6,7.2,4.33,16.19,2.74,23.35-.8,3.42-1.69,6.57-3.83,9.65-6.08-2.48,5.74-4.16,11.98-1.46,17.97,3.16,7.02,11.11,8.17,17.81,6.06,3.79-1.19,7.25-3.16,10.89-4.71-.23,1.69,.3,3.46,1.33,4.89,1.76,2.44,4.57,3.5,7.53,3.38,3.52-.13,6.88-1.64,9.98-3.21,3.03-1.54,5.89-3.38,8.57-5.46,.55-.43,1.08-.88,1.61-1.33-2.5,3.39-5.09,6.71-7.84,9.9Zm-4.09-4.47c-3.38,1.64-7.73,3.55-11.5,2.1-2.64-1.01-4.76-4.43-3.05-7.05,.46-.7-.31-1.77-1.13-1.47-4.31,1.6-8.27,4.03-12.65,5.44-3.96,1.28-8.71,1.68-12.31-.79-3.25-2.23-4.6-6.38-4.57-10.17,.04-4.86,2.2-9.42,4.28-13.71,.39-.8-.49-2.03-1.37-1.37-6.23,4.66-12.73,9.51-20.53,11.05-6.92,1.37-14.82-.53-18.6-6.97-2.37-4.04-1.6-8.51-.65-12.86,.23-1.04-.9-1.58-1.67-.97-5.14,4.03-10.51,8.16-16.81,10.18-5.66,1.81-12.1,1.76-17.19-1.59-.06-.04-.11-.06-.17-.09-.57-.46-1.13-.94-1.66-1.46-.08-.08-.18-.14-.28-.18,2.02-7.55,3.21-15.34,3.26-23.13,1.08-.34,2.14-.73,3.19-1.16,.04,0,.07,0,.11-.01,9.23-3.07,18.61-5.68,28.11-7.81,4.75-1.07,9.52-2.01,14.31-2.84,2.36-.41,4.72-.78,7.09-1.13,2.47-.36,5.02-.89,7.52-.77,2.37,.11,4.38,1.18,6.3,2.5,1.94,1.33,3.82,2.75,5.71,4.14,3.98,2.92,7.96,5.85,11.91,8.81,7.97,5.96,15.88,12,23.73,18.12,8.5,6.64,16.92,13.37,25.28,20.2-4.61,5.42-10.27,9.87-16.67,12.99Zm19.56-16.24c-.43,.66-.88,1.31-1.33,1.96-15.42-12.6-31.1-24.9-47.03-36.86-4.01-3.01-8.04-6.01-12.09-8.98-2.02-1.49-4.05-2.97-6.08-4.44-1.76-1.28-3.52-2.6-5.56-3.41-2.27-.91-4.65-.88-7.04-.6-2.38,.28-4.75,.65-7.12,1.01-4.89,.76-9.75,1.64-14.59,2.65-10.79,2.24-21.43,5.11-31.9,8.56-.07,0-.14,0-.22,.01-1.02,.2-1.99,.53-2.93,.95-.12,.05-.22,.14-.3,.25-.05-2.24-.18-4.48-.42-6.72,1.14-.31,2.29-.63,3.43-.94,.14-.05,.26-.13,.37-.23,14.73-4.36,29.77-7.67,44.98-9.86,3.86-.56,7.74-1.08,11.62-1.44,3.74-.34,7.46-.27,10.9,1.41,3.17,1.54,5.84,3.9,8.41,6.27,2.76,2.55,5.51,5.1,8.29,7.63,11.43,10.37,23.16,20.4,35.18,30.08,3.1,2.49,6.21,4.97,9.35,7.41,1.3,1.01,2.72,1.95,3.93,3.07,.83,.77,.71,1.3,.13,2.2Z"/></g></g></svg>
