<svg id="Calque_2" xmlns="http://www.w3.org/2000/svg" viewBox="0 0 305.26 321.42">
<g id="Calque_4"><g>
<path class="cls-1" d="M131.58,118.52c2.07-.43,4.24-.82,6.38-.87-6.55-8.91-13.2-17.79-20.78-25.86-3.57-3.8-7.34-7.41-11.37-10.71-4-3.28-8.56-6.98-13.86-7.66-5.1-.66-10.08,2.07-13.8,5.34-3.34,2.93-5.93,6.6-7.85,10.6-8.76,18.26-3.2,39.48,3.8,57.56,.03-2.21,.49-4.4,1.84-6.12,.3-.38,.69-.42,1.01-.26,.04-.11,.08-.22,.12-.33-.01-.02-.03-.04-.04-.06-.89-2.26-1.78-4.53-2.6-6.83-2.89-8.18-5.02-17.51-1.75-25.91,2.5-6.44,7.83-12.25,14.98-13.12,4.43-.54,8.83,1.03,12.73,3.01,4.19,2.12,8,4.93,11.81,7.66,4.19,3.01,8.38,6.01,12.57,9.01,1.85,1.32,3.88,2.55,5.54,4.11,.27,.25,.51,.52,.73,.8,.12-.16,.28-.3,.55-.36Z"/>
<path class="cls-1" d="M94.38,243.26c-3.27,2.17-10.36,4.7-8.11,9.81,.84,1.92,1.49,3.61,.68,5.67-.73,1.86-2.26,3.26-4.03,4.15-2.02,1.01-4.27,1.49-6.44,2.07-2.54,.68-5.08,1.35-7.63,2.03-2.54,.68-5.08,1.35-7.63,2.03-1.05,.28-2.18,.69-3.27,.45-1.14-.26-1.9-1.34-3.14-.78-1.97,.87-3.75,2.75-5.25,4.25-1.61,1.62-3.1,3.36-4.53,5.13-2.81,3.49-5.43,7.13-8.41,10.48-6.09,6.84-13.28,12.67-21.19,17.29-.4,.23-.88,.14-1.21-.16-.91-.82-1.08-1.97-.94-3.14,.19-1.61,.65-3.21,1-4.8,.76-3.47,1.5-6.95,2.27-10.41,1.19-5.31,2.73-10.53,5.98-14.97,3.02-4.12,6.97-7.43,11.2-10.26,4.52-3.02,9.39-5.47,14.11-8.14,2.5-1.41,4.97-2.89,7.32-4.53,1.32-.92,5.73-3.52,5.34-5.7-4.12-.06-8.18,.5-12.13,1.69-.52,.16-1.08-.19-1.23-.7-.71-2.46,.09-4.88,.72-7.26,.32-1.19,.66-2.48,.46-3.72-.2-1.18-1.26-2.05-1.16-3.29,.1-1.12,1.16-1.9,1.94-2.56,.78-.66,1.59-1.28,2.42-1.86,1.86-1.3,3.86-2.38,5.92-3.32,4.1-1.86,8.41-3.14,12.74-4.34,8.67-2.4,17.95-4.49,24.95-10.49,.05-.12,.12-.24,.22-.35,.21-.25,.41-.51,.61-.77,.21-.28,.41-.56,.62-.84-1.24-1.47-2.47-2.96-3.69-4.45-.03,.18-.1,.36-.26,.52-7.92,8.13-20.55,6.93-30.61,10.25-9.65,3.19-18.31,9.46-24.38,17.61-3.26,4.37-5.48,9.22-7.58,14.22-2.17,5.16-4.61,9.92-8.04,14.36-3.08,3.99-6.52,7.71-9.29,11.93-3,4.58-4.55,9.38-4.68,14.88-.07,3.12,.13,6.25-.05,9.37-.16,2.92-.73,5.77-1.52,8.58-1.51,5.38-3.7,10.62-4.4,16.2,2.66-.22,5.24-2.28,7.38-3.64,2.53-1.61,5-3.32,7.4-5.13,4.78-3.6,9.23-7.6,13.42-11.88,7.04-7.2,13.68-15.07,22.48-20.22,8.87-5.19,19.02-7.39,28.6-10.82,9.1-3.26,17.28-8.13,23.96-15.17,6.3-6.64,10.99-14.75,13.53-23.55,.02-.06,.05-.09,.07-.14-2.31-1.91-4.55-3.92-6.71-5.98-4.04,8.22-10.23,15.32-17.87,20.39Z"/>
<path class="cls-1" d="M125.1,121.77c-1.19,.27-2.4,.47-3.62,.6-7.82,.79-15.87-1.35-23.58,.67-7.64,2-12.79,8.65-17.18,14.78-.77,1.08-1.58,2.29-1.97,3.6,3.91,1.46,8.04,2.27,12.23,2.35,14.71,.27,28.31-8.57,34.12-21.99Z"/>
<path class="cls-1" d="M89.54,243.85c1.81-1.05,3.6-2.11,5.31-3.33,6.83-4.89,12.28-11.54,15.91-19.1-1.67-1.64-3.3-3.31-4.89-5.01-2.72-2.91-5.35-5.92-7.94-8.96-.27,.37-.54,.73-.83,1.09-.02,.2-.1,.39-.3,.56-3.69,3.22-8.02,5.45-12.59,7.15-8.22,3.05-17.02,4.38-25.08,7.88-1.97,.86-3.89,1.85-5.7,3.02-.95,.62-1.88,1.29-2.75,2.02-.35,.29-.93,.67-1.19,1.06-.41,.63,.16,1.22,.42,1.81,1.65,3.74-1.41,7.43-1,11.16,3.47-.95,7.05-1.49,10.65-1.5,.71,0,1.8-.21,2.37,.32,.41,.38,.61,1.15,.63,1.68,.07,1.4-.74,2.67-1.65,3.67-2.13,2.35-5.18,4.17-7.85,5.84-2.76,1.72-5.61,3.27-8.46,4.83-5.42,2.97-10.9,6-15.53,10.14-4.83,4.32-7.93,9.51-9.62,15.75-.89,3.3-1.55,6.67-2.28,10.01-.42,1.93-.84,3.85-1.26,5.78-.2,.92-.9,2.72-.62,3.86,8.53-5.11,16.13-11.66,22.42-19.37,2.81-3.45,5.38-7.09,8.33-10.43,1.46-1.65,3.01-3.23,4.71-4.63,1.4-1.16,3.15-2.79,5.11-2.67,1.21,.07,2.02,1.17,3.23,1.02,1.18-.15,2.38-.61,3.52-.91,2.54-.68,5.08-1.35,7.63-2.03,2.54-.68,5.09-1.35,7.63-2.03,2.14-.57,4.54-1.15,6.13-2.82,.78-.82,1.39-1.91,1.38-3.07,0-1.1-.63-2.07-1.04-3.05-.8-1.9-.62-3.87,.45-5.63,1.12-1.84,2.93-3.05,4.76-4.11Z"/>
<path class="cls-1" d="M50.32,104.78c-.05-.07-.09-.14-.14-.21,0,0,0,0-.01,0-.06-.09-.11-.18-.17-.27-.59-.89-.93-1.92-.86-3.01,.01-.23,.1-.42,.22-.59,.1-.52,.27-1.03,.53-1.5,.12-.23,.33-.36,.56-.43-.17-1.71-.33-3.43-.47-5.15-2.33,1.73-3.5,4.88-4,7.63-.34,1.83-.21,3.93,1,5.44,1.1,1.37,2.91,1.84,4.53,2.27,.03,0,.05,.03,.09,.04-.16-1.32-.32-2.64-.47-3.96-.3,.03-.6-.03-.79-.27Z"/>
<path class="cls-1" d="M122.55,67.94c2.61,2,6.44,3.13,9.68,2.31,3.51-.89,5.06-4.59,3.96-7.89-1.14-3.42-4.47-5.46-7.82-6.25-3.04-.72-7.83-.91-9.29,2.6-.09,.21-.22,.36-.38,.47-.41,3.34,1.14,6.7,3.84,8.77Zm1.26-6.84c.05-.21,.19-.37,.35-.5,.08-.11,.17-.2,.28-.27,.07-.11,.15-.22,.25-.3,.35-.28,.77-.46,1.22-.43,.39,.02,.75,.14,1.09,.32,1.07,.58,1.86,1.8,1.91,3.01,.03,.71-.31,1.48-.97,1.8-.69,.33-1.48,.23-2.11-.18-.97-.62-1.49-1.66-1.92-2.68-.09-.16-.14-.32-.14-.5l.04-.27Z"/>
<path class="cls-1" d="M79.14,168.91c0-2.14,.23-4.28-.35-6.37-.54-1.94-1.56-3.7-2.41-5.51-.77-1.64-1.37-3.33-1.75-5.09-.39-.02-.77-.22-.95-.66-4.98-12.27-9.25-25.12-9.74-38.47-.36-9.8,1.46-19.95,6.76-28.33,5.01-7.91,14.61-15.63,24.49-12.34,5.05,1.68,9.36,5.26,13.36,8.65,4.2,3.56,8.11,7.44,11.81,11.52,7.29,8.03,13.75,16.76,20.16,25.49,1.19,.16,2.36,.46,3.49,.97,3.61,1.64,5.73,5.27,9.21,7.1,4.1,2.16,9.01,.76,13.35,.39,3.33-.29,6.78-.06,9.61,1.72-.31-1.63-.56-3.27-.76-4.91-.2-.06-.39-.19-.53-.42-2.4-4.1-4.89-8.15-7.49-12.13-9.23-14.15-19.72-27.46-31.3-39.77-.08-.09-.12-.18-.17-.27-.98,.89-2.21,1.54-3.64,1.81-8.26,1.6-17.42-5.72-15.42-14.36,0,0-.01,0-.02,0-2.03-1.54-4.07-3.08-6.13-4.58-7.97-5.78-16.8-11.32-26.74-12.69-8.29-1.14-17.59,.6-23.67,6.7-3.5,3.52-5.49,8.17-6.71,12.92-1.37,5.36-1.94,10.94-2.14,16.46-.41,11.25,.86,22.51,2.28,33.65,1.39,10.87,3.21,21.73,6.36,32.24,3.07,10.25,7.58,19.88,13.21,28.97,2.71,4.37,5.63,8.59,8.68,12.72-.74-3.12-1.48-6.25-2.15-9.38-.42-1.98-.72-3.97-.72-5.99Z"/>
<path class="cls-1" d="M81.49,148.19c2.79,2.68,5.98,4.93,9.41,6.72,6.87,3.59,15.77,5.97,23.45,3.93,7.35-1.95,12.03-8.65,14.1-15.62,1.25-4.23,1.72-8.63,1.99-13.01,.13-2.08,.33-4.21,.26-6.3-.07-2.33-1.01-3.9-2.86-5.28-3.67-2.75-7.46-5.36-11.19-8.03-3.69-2.65-7.34-5.36-11.1-7.89-6.29-4.23-14.65-8.96-22.19-5.06-5.98,3.09-9.66,9.9-10.22,16.45-.7,8.24,2.15,16.19,5.12,23.76,.86-1.36,1.89-2.64,2.8-3.82,2.49-3.25,5.11-6.44,8.37-8.96,3.25-2.51,6.97-4.03,11.03-4.57,8.64-1.17,17.57,1.49,26.05-1.18,.69-.22,1.5,.52,1.23,1.23-1.49,4.02-3.61,7.74-6.32,11.07-10.22,12.6-27.7,17.32-42.87,11.83,.22,1.91,1.61,3.45,2.94,4.73Z"/>
<path class="cls-1" d="M302.13,119.54c-.97-.32-2.12,.04-3.05,.32-2.48,.74-4.95,1.43-7.51,1.86-9.98,1.7-20.74,.66-29.99-3.59-3.86-1.77-7.56-4.37-9.76-8.09-2.61-4.42-2.4-9.63-1.88-14.56,.58-5.47,.87-10.84,.56-16.35-.31-5.58-.97-11.12-1.38-16.69-.41-5.55-.55-11.12,.11-16.66,.67-5.59,1.98-11.15,1.89-16.81-.08-5.27-1.99-9.86-4.07-14.61-1.66-3.79-3.24-7.69-3.38-11.85-9.19,4.13-16.36,11.63-22.88,19.12-13.13,15.1-24.77,31.97-33.33,50.1-8.74,18.51-13.66,39.64-8.43,59.87,.12,.46-.07,.82-.37,1.03,.16,.38,.36,.75,.56,1.12,.29-.83,.62-1.66,.88-2.45l1.36-4.13c-.19-8.28,.91-16.54,3.04-24.54,3.86-14.48,10.95-27.9,19.48-40.15,4.28-6.13,8.91-12.01,13.73-17.73,2.48-2.95,5.01-5.85,7.57-8.73,1.25-1.41,2.51-2.82,3.78-4.22,1.02-1.13,2.04-2.23,3.66-2.26,.61-.01,1.19,.65,.96,1.27-1.21,3.29-2.23,6.65-3.02,10.07-.6,2.6-1.47,5.55-.84,8.23,.25,1.06,.8,2.08,1.94,2.36,1.09,.27,2.2-.29,3.14-.78,2-1.05,3.94-2.32,6.28-1.79,.53,.12,.83,.73,.7,1.23-1.87,7.2-3.73,14.41-5.6,21.61-1.8,6.93-3.88,13.86-5.27,20.89-1.12,5.69-1.36,11.95,1.53,17.19,1.25,2.27,3.14,3.81,4.87,5.68,1.49,1.61,2.59,3.51,2.2,5.77-.26,1.52-.8,2.78-.38,4.34,.32,1.19,.97,2.25,1.7,3.23,1.58,2.13,3.65,3.84,5.17,6.02,1.38,1.98,2.46,4.43,2,6.89-.43,2.31-2.19,4-4.28,4.93-4.42,1.95-9.54,1-13.6-1.37-4.51-2.63-7.64-6.86-9.68-11.6-4.22-9.81-3.93-21.14-8.96-30.6-2.12,4.35-6.21,7.41-8.31,11.82-1.39,2.94-1.05,6.04,0,9.03,1.19,3.37,2.84,6.6,4.3,9.85,.74,1.63,1.49,3.26,2.21,4.9,.49,1.12,.89,2.31,.27,3.48-1.12,2.1-3.91,2.32-5.99,2.01-3.16-.48-6-1.98-8.98-3.04-3.29-1.16-6.7-1.36-10.13-1.78-.27-.03-.57-.06-.9-.1,2.71,2.22,5.8,4.01,8.76,5.85,4.57,2.85,9.2,5.63,14.06,7.97,9.91,4.78,20.57,6.9,31.56,6.19,10.75-.7,21.19-3.93,30.82-8.67,4.63-2.28,9.09-4.89,13.38-7.74,4.19-2.78,8.32-5.72,12.01-9.14,1.69-1.56,3.29-3.24,4.7-5.06,1.43-1.84,3.04-4.03,3.68-6.3,.3-1.06,.35-2.46-.92-2.88Z"/>
<path class="cls-1" d="M181.98,132.08c-.27,.83-.54,1.66-.81,2.48-.17,.52-.44,1.03-.41,1.47,.2,.25,.41,.5,.63,.74,0,0,.01,0,.02,.01,1.53,.63,3.58,.65,5.2,.82,1.63,.17,3.27,.33,4.89,.6,2.88,.49,5.49,1.6,8.19,2.66,2.21,.87,5.45,2.29,7.8,1.15,1.65-.8,.56-2.35,0-3.59l-1.91-4.23c-1.25-2.78-2.57-5.53-3.71-8.36-1.09-2.7-1.86-5.6-1.38-8.53,.34-2.09,1.31-4.01,2.51-5.73,2.52-3.61,6.18-6.64,7.48-10.98,.25-.83,1.37-.97,1.83-.24,6.55,10.5,5.38,23.62,10.96,34.48,2.31,4.5,5.95,8.4,10.81,10.11,2.26,.8,4.72,1.09,7.07,.56,2.4-.54,4.96-1.97,5.09-4.71,.13-2.61-1.8-5.09-3.48-6.9-1.64-1.77-3.4-3.48-4.56-5.62-1.12-2.08-1.34-4.15-.74-6.43,.38-1.42,.35-2.49-.48-3.74-.61-.93-1.44-1.7-2.23-2.47-1.75-1.69-3.29-3.46-4.34-5.67-1.03-2.16-1.64-4.46-1.94-6.83-.71-5.76,.65-11.52,2.08-17.07,3.03-11.77,6.1-23.53,9.15-35.3-2.16,.17-4.2,2.24-6.29,2.66-2.45,.49-4.53-.9-5.31-3.21-.92-2.73-.21-5.74,.36-8.46,.65-3.06,1.49-6.08,2.48-9.04-.21,.24-.4,.48-.58,.68-.71,.79-1.41,1.57-2.12,2.36-1.31,1.46-2.61,2.93-3.91,4.41-2.69,3.07-5.34,6.17-7.92,9.33-17.77,21.68-33.16,47.62-32.93,76.47,.22,.21,.34,.52,.21,.91-.07,.2-.13,.41-.2,.61,0,0,0,0,0,0,0,.25-.08,.44-.2,.59-.44,1.33-.87,2.66-1.31,3.99Z"/>
<path class="cls-1" d="M178.42,201.29c.05,.09,.1,.18,.12,.31,.97,5.54,5.25,9.57,9.11,13.33,3.46,3.37,7.31,6.9,12.12,8.12,5.26,1.34,10.33-.97,15.02-3.13,4.8-2.21,9.55-3.87,14.82-4.54,5.07-.64,10.2-.57,15.3-.42-.45-.65-1.3-1.09-1.98-1.43-1.15-.57-2.33-1.1-3.5-1.63-2.58-1.17-5.19-2.27-7.83-3.32-8.99-3.57-18.27-6.45-27.74-8.46-4.79-1.01-9.64-1.85-14.51-2.34-3.74-.38-8.95-.24-10.92,3.5Z"/>
<path class="cls-1" d="M184.32,142.01c-1.43-1.06-2.8-2.21-4.01-3.49-.82-.38-1.43-.97-1.57-1.86-1.08-1.45-1.96-3.05-2.5-4.85-.16-.55,.13-.94,.53-1.12-.02-.07-.03-.13-.05-.2-.26,.03-.53-.04-.78-.24-2.99-2.53-7.26-2.28-10.91-1.83-4.01,.49-8.26,1.22-12.1-.48-3.41-1.51-5.49-4.75-8.58-6.71-1.14-.72-2.36-1.15-3.62-1.38-.39,.2-.9,.2-1.26-.15-2.45-.19-4.99,.27-7.37,.76-.04,0-.08,0-.12,0,.38,.87,.6,1.82,.68,2.83,.18,2.28-.09,4.65-.23,6.93-.15,2.33-.35,4.66-.68,6.98-.61,4.31-1.71,8.58-3.76,12.44-1.77,3.33-4.22,6.33-7.33,8.49-3.49,2.42-7.7,3.4-11.9,3.41-8.47,.02-17.08-3.08-23.93-7.98-3.02-2.16-6.86-4.94-8.03-8.63-.13-.4-.2-.8-.25-1.2-.43,1.28-.46,2.74-.43,4.03,.04,1.98,.38,3.94,.99,5.82,1.12,3.44,3.44,6.44,3.93,10.09,.26,1.9,.06,3.81,.09,5.73,.03,2.08,.44,4.11,.9,6.13,.89,3.9,1.81,7.8,2.71,11.7,.06,.25,.01,.46-.07,.64,2.37,3.1,4.79,6.16,7.24,9.19,6.58,8.14,13.3,16.22,20.8,23.54,11.71,11.43,26.11,21.21,42.21,24.49-.05-.08-.1-.15-.13-.26-1.14-4.03-4.33-6.82-7.57-9.25-3.3-2.48-6.88-4.79-9.5-8.04-2.94-3.66-4.37-8.26-7.07-12.09-2.71-3.85-6.12-7.15-9.5-10.4-1.71-1.64-3.44-3.27-5.11-4.96-1.43-1.45-2.89-2.91-2.69-5.11,.11-1.25,.68-2.41,1.09-3.58,.4-1.15,.73-2.32,.99-3.51,.57-2.59,.79-5.24,.68-7.89-.1-2.29-.78-4.71,.2-6.9,.96-2.17,3.02-3.92,4.59-5.65,1.87-2.06,3.73-4.12,5.61-6.17,.61-.67,1.28-1.34,2.23-1.42,1.1-.09,2.13,.61,3.17,.88,4.89,1.29,9.93-1.16,14.11-3.46,4.17-2.29,8.34-4.69,13.18-5.13,.41-.04,.88,.34,.96,.73,.95,4.69,1.9,9.58,4.53,13.66,2.05,3.17,5.14,5.77,8.95,6.38,1.93,.31,3.9,.28,5.69,1.18,1.5,.75,2.62,2.06,3.56,3.41,1.04,1.5,1.89,3.13,3.01,4.58,1.15,1.5,2.48,2.86,3.94,4.06,2.7,2.22,5.86,3.81,9.22,4.73,1.24-14.4-.56-29-5.24-42.69-3.26-1.94-6.49-3.95-9.52-6.18Z"/>
<path class="cls-1" d="M176.77,202.85c-.49-.13-.88-.56-.68-1.18,1.82-5.37,7.84-6.38,12.79-5.93,3.17,.29,6.34,.72,9.49,1.26,.2-1.37,.37-2.74,.51-4.11-4.07-1.06-7.85-3.06-11.02-5.83-1.42-1.25-2.69-2.65-3.82-4.17-1.11-1.5-1.96-3.17-3.06-4.68-1.36-1.87-3-2.78-5.29-3.07-1.98-.25-3.85-.44-5.69-1.27-7.66-3.44-10.01-12.1-11.57-19.64-9.8,1.4-17.9,12.01-28.43,7.94-.73-.28-1.18-.41-1.77,.19-.44,.45-.85,.93-1.27,1.39-.82,.91-1.65,1.81-2.47,2.72-1.77,1.95-3.64,3.84-5.32,5.87-.92,1.11-1.39,2.22-1.35,3.68,.03,1.09,.21,2.17,.28,3.25,.16,2.44,.02,4.9-.37,7.31-.39,2.42-1.14,4.67-1.95,6.97-.45,1.26-.64,2.39,.22,3.51,.64,.83,1.47,1.56,2.21,2.3,3.22,3.19,6.61,6.22,9.69,9.54,3.07,3.3,5.66,6.87,7.67,10.91,1.01,2.03,1.97,4.12,3.34,5.94,1.06,1.41,2.36,2.63,3.7,3.76,5.19,4.35,12.14,7.7,14.12,14.72,.13,.48-.07,.85-.39,1.05,3.45,.62,6.98,.94,10.57,.9,.18,0,.33,.04,.46,.11,.93-8.27-.46-16.71-1.81-24.85-.07-.42,.11-.75,.37-.97,.22-.68,1.05-1.13,1.59-.43,5.73,7.4,10.21,15.69,13.24,24.54,7.39-4.83,12.65-12.5,14.58-21.11,0-.02,.02-.03,.03-.06-4.2-2.15-7.68-5.63-10.97-8.93-3.3-3.31-6.56-7.01-7.62-11.66Z"/>
<path class="cls-1" d="M169.41,235.09c.33,4.14,.36,8.31-.18,12.44-.27,2.06-.68,4.11-1.26,6.1-.29,.97-.81,2.04-.77,3.07,.05,1.06,.8,2.04,1.3,2.93,2.15,3.83,4.3,7.66,6.46,11.49,1.57,2.79,3.17,6.98,6.34,8.36,1.45-1.03,1.84-2.93,1.96-4.64,.17-2.39,.05-4.82-.07-7.2-.81-15.63-6.1-30.87-15.18-43.61,.59,3.67,1.12,7.36,1.42,11.07Z"/><g>
<path d="M125.84,64.55c.64,.4,1.43,.5,2.11,.18,.66-.32,1-1.09,.97-1.8-.05-1.22-.85-2.43-1.91-3.01-.34-.19-.7-.3-1.09-.32-.45-.03-.88,.14-1.22,.43-.11,.09-.18,.2-.25,.3-.11,.07-.21,.16-.28,.27-.16,.13-.3,.29-.35,.5l-.04,.27c0,.18,.05,.35,.14,.5,.43,1.02,.95,2.07,1.92,2.68Z"/>
<path d="M300.74,117.47c-2.39,.22-4.7,1.27-7.04,1.8-5.34,1.2-10.88,1.51-16.33,.97-5.28-.52-10.68-1.83-15.46-4.16-4.25-2.08-8.21-5.23-9.61-9.93-1.55-5.2-.18-10.78,.21-16.05,.42-5.72,.05-11.45-.44-17.15-.51-5.79-1.15-11.58-1.26-17.4-.11-5.86,.71-11.53,1.56-17.31,.8-5.48,1.3-11.06-.25-16.46-1.35-4.71-3.87-8.97-5.37-13.63-.75-2.32-1.18-4.69-1.04-7.13,.03-.6-.67-1.2-1.27-.96-8.85,3.6-15.95,10.1-22.29,17.1-6.85,7.56-13.19,15.61-19.01,24-11.64,16.79-22.2,35.42-26.38,55.61-1.51,7.31-2.16,14.82-1.69,22.25-8.21-13.7-17.52-26.73-27.87-38.9-3.13-3.68-6.35-7.27-9.66-10.79-.12-.13-.25-.2-.38-.25,1.16-1.72,1.65-3.9,1.26-6.1-.78-4.32-4.55-7.34-8.57-8.54-3.88-1.16-9.05-1.24-11.69,2.05-.07-.11-.15-.21-.27-.3-8.41-6.38-17.08-12.9-27.28-16.09-8.3-2.6-17.79-2.55-25.65,1.46-3.96,2.02-7.26,5.1-9.55,8.91-2.63,4.38-3.95,9.43-4.77,14.43-1.43,8.76-1.44,17.64-.84,26.48-3.6,1.86-5.43,6.46-5.9,10.27-.27,2.18,.1,4.48,1.48,6.25,1.37,1.76,3.51,2.46,5.59,3.01,.34,.09,.62,0,.84-.17,2.39,18.61,6.27,37.06,15.16,53.78,5.08,9.56,11.37,18.42,18.01,26.96,2.29,2.95,4.63,5.89,6.99,8.8-.24-.01-.49,.07-.7,.29-7.25,7.43-19,6.52-28.29,9.29-9.56,2.84-18.26,8.55-24.74,16.13-3.44,4.03-6.15,8.52-8.28,13.36-2.36,5.37-4.39,10.82-7.8,15.64-5.7,8.06-14,15.11-15.63,25.35-.56,3.49-.41,7.01-.39,10.53,.02,3.51-.26,6.9-1.12,10.31-1.62,6.43-4.39,12.53-4.99,19.2-.05,.59,.51,.94,1,1,2.67,.35,5.03-1.15,7.22-2.47,2.31-1.4,4.57-2.87,6.78-4.43,4.48-3.16,8.75-6.63,12.75-10.39,7.66-7.2,14.18-15.73,22.87-21.78,8.79-6.13,19.3-8.56,29.3-11.96,9.26-3.15,17.76-7.57,24.87-14.39,7.37-7.06,12.89-16,15.84-25.77,11.24,8.98,24.12,15.79,38.63,17.6,2.54,.32,5.1,.46,7.67,.43,.08,0,.14-.03,.21-.04-.09,.6-.2,1.19-.32,1.79-.21,1.05-.47,2.1-.77,3.13-.31,1.04-.75,2.09-.82,3.19-.14,2.13,1.4,4.08,2.4,5.85,2.43,4.33,4.86,8.66,7.29,12.98,.88,1.56,1.78,3.13,3.04,4.42,.92,.94,2.73,2.52,4.11,1.86,3.25-1.56,3.26-6.15,3.25-9.19-.02-8.71-1.3-17.39-3.92-25.7,.12-.02,.25-.07,.37-.15,7.74-5.06,13.36-13.04,15.44-22.06,4.58,1.75,9.26,1.22,13.84-.57,5.19-2.03,9.96-4.73,15.48-5.84,6.47-1.3,13.14-1.08,19.7-.89,.55,.02,.98-.47,1-1,.08-2.13-1.73-3.42-3.46-4.27-2.48-1.22-5.03-2.32-7.57-3.4-5.03-2.13-10.16-4.06-15.36-5.74-6.69-2.16-13.57-3.97-20.52-5.25,2.31-15.94,1.01-32.27-3.88-47.61,.34,.2,.69,.41,1.03,.61,9.43,5.54,19.36,9.81,30.35,10.85,21.9,2.09,42.96-7.14,60.39-19.68,3.99-2.87,7.88-5.95,11.14-9.65,1.57-1.78,3-3.7,4.19-5.77,1.01-1.75,2.12-3.92,1.55-6-.54-1.97-2.47-2.79-4.37-2.61ZM118.71,59.17c.16-.11,.29-.26,.38-.47,1.45-3.51,6.25-3.31,9.29-2.6,3.35,.79,6.68,2.82,7.82,6.25,1.1,3.31-.45,7.01-3.96,7.89-3.25,.82-7.07-.31-9.68-2.31-2.71-2.07-4.26-5.43-3.84-8.77ZM51.5,108.97c-1.62-.43-3.43-.9-4.53-2.27-1.21-1.51-1.34-3.61-1-5.44,.51-2.75,1.67-5.91,4-7.63,.14,1.72,.3,3.44,.47,5.15-.23,.07-.43,.21-.56,.43-.26,.47-.43,.98-.53,1.5-.12,.16-.21,.36-.22,.59-.06,1.09,.28,2.12,.86,3.01,.06,.09,.11,.19,.17,.27,0,0,0,0,.01,0,.05,.07,.09,.14,.14,.21,.19,.23,.5,.3,.79,.27,.15,1.32,.31,2.64,.47,3.96-.03-.01-.05-.03-.09-.04Zm21.84,62.59c-5.63-9.08-10.15-18.72-13.21-28.97-3.15-10.51-4.97-21.37-6.36-32.24-1.42-11.14-2.69-22.4-2.28-33.65,.2-5.52,.77-11.1,2.14-16.46,1.21-4.75,3.2-9.4,6.71-12.92,6.08-6.1,15.38-7.85,23.67-6.7,9.94,1.37,18.77,6.91,26.74,12.69,2.07,1.5,4.1,3.04,6.13,4.58,0,0,.01,0,.02,0-2,8.64,7.16,15.96,15.42,14.36,1.43-.28,2.65-.92,3.64-1.81,.04,.09,.09,.19,.17,.27,11.57,12.31,22.06,25.61,31.3,39.77,2.6,3.98,5.09,8.03,7.49,12.13,.14,.24,.33,.36,.53,.42,.19,1.64,.44,3.28,.76,4.91-2.83-1.78-6.28-2.01-9.61-1.72-4.34,.37-9.25,1.77-13.35-.39-3.47-1.82-5.59-5.45-9.21-7.1-1.13-.51-2.3-.82-3.49-.97-6.41-8.73-12.87-17.46-20.16-25.49-3.7-4.07-7.61-7.96-11.81-11.52-4-3.39-8.31-6.97-13.36-8.65-9.88-3.28-19.49,4.43-24.49,12.34-5.31,8.38-7.12,18.54-6.76,28.33,.49,13.35,4.76,26.2,9.74,38.47,.18,.44,.57,.65,.95,.66,.38,1.76,.98,3.46,1.75,5.09,.85,1.82,1.87,3.57,2.41,5.51,.58,2.09,.35,4.23,.35,6.37,0,2.02,.3,4.02,.72,5.99,.67,3.14,1.41,6.26,2.15,9.38-3.05-4.13-5.97-8.36-8.68-12.72Zm48.08-39.93c2.7-3.33,4.82-7.05,6.32-11.07,.27-.71-.54-1.45-1.23-1.23-8.47,2.67-17.4,.02-26.05,1.18-4.06,.55-7.78,2.06-11.03,4.57-3.25,2.52-5.88,5.71-8.37,8.96-.9,1.18-1.94,2.46-2.8,3.82-2.97-7.57-5.82-15.53-5.12-23.76,.56-6.56,4.24-13.36,10.22-16.45,7.54-3.9,15.9,.83,22.19,5.06,3.77,2.53,7.42,5.25,11.1,7.89,3.73,2.67,7.52,5.28,11.19,8.03,1.84,1.38,2.79,2.94,2.86,5.28,.06,2.09-.13,4.21-.26,6.3-.27,4.39-.74,8.78-1.99,13.01-2.06,6.98-6.75,13.67-14.1,15.62-7.68,2.04-16.58-.34-23.45-3.93-3.43-1.79-6.62-4.04-9.41-6.72-1.33-1.28-2.72-2.82-2.94-4.73,15.17,5.48,32.65,.76,42.87-11.83Zm-42.66,9.79c.39-1.31,1.19-2.52,1.97-3.6,4.39-6.13,9.55-12.78,17.18-14.78,7.7-2.02,15.76,.13,23.58-.67,1.22-.12,2.43-.32,3.62-.6-5.81,13.42-19.4,22.26-34.12,21.99-4.19-.08-8.31-.89-12.23-2.35Zm51.55-23.34c-1.66-1.56-3.69-2.79-5.54-4.11-4.19-3-8.38-6.01-12.57-9.01-3.81-2.73-7.61-5.53-11.81-7.66-3.9-1.98-8.3-3.55-12.73-3.01-7.15,.87-12.48,6.68-14.98,13.12-3.26,8.4-1.14,17.73,1.75,25.91,.81,2.3,1.7,4.56,2.6,6.83,.01,.03,.03,.04,.04,.06-.04,.11-.09,.22-.12,.33-.32-.16-.71-.13-1.01,.26-1.35,1.72-1.81,3.9-1.84,6.12-7-18.08-12.56-39.3-3.8-57.56,1.92-4,4.51-7.67,7.85-10.6,3.72-3.27,8.7-6,13.8-5.34,5.3,.69,9.87,4.39,13.86,7.66,4.03,3.3,7.81,6.91,11.37,10.71,7.59,8.07,14.23,16.95,20.78,25.86-2.15,.05-4.31,.44-6.38,.87-.26,.05-.43,.19-.55,.36-.22-.28-.46-.55-.73-.8Zm-11.41,110.92c-2.54,8.8-7.23,16.9-13.53,23.55-6.68,7.04-14.86,11.92-23.96,15.17-9.59,3.43-19.74,5.63-28.6,10.82-8.8,5.15-15.44,13.02-22.48,20.22-4.18,4.28-8.64,8.28-13.42,11.88-2.4,1.8-4.87,3.51-7.4,5.13-2.14,1.36-4.71,3.42-7.38,3.64,.7-5.58,2.89-10.81,4.4-16.2,.79-2.81,1.35-5.67,1.52-8.58,.18-3.12-.02-6.25,.05-9.37,.12-5.5,1.67-10.3,4.68-14.88,2.77-4.22,6.21-7.95,9.29-11.93,3.43-4.44,5.87-9.21,8.04-14.36,2.1-5,4.33-9.85,7.58-14.22,6.07-8.15,14.74-14.42,24.38-17.61,10.06-3.33,22.69-2.13,30.61-10.25,.16-.16,.23-.34,.26-.52,1.22,1.49,2.45,2.98,3.69,4.45-.2,.28-.4,.56-.62,.84-.2,.26-.4,.51-.61,.77-.09,.11-.16,.23-.22,.35-7,6-16.28,8.1-24.95,10.49-4.33,1.2-8.64,2.48-12.74,4.34-2.06,.94-4.06,2.02-5.92,3.32-.84,.58-1.65,1.2-2.42,1.86-.79,.67-1.85,1.44-1.94,2.56-.11,1.24,.96,2.11,1.16,3.29,.21,1.24-.14,2.53-.46,3.72-.64,2.38-1.44,4.8-.72,7.26,.15,.51,.71,.86,1.23,.7,3.95-1.19,8.01-1.75,12.13-1.69,.39,2.19-4.02,4.78-5.34,5.7-2.35,1.65-4.82,3.12-7.32,4.53-4.73,2.67-9.59,5.12-14.11,8.14-4.23,2.83-8.18,6.13-11.2,10.26-3.25,4.44-4.79,9.66-5.98,14.97-.78,3.47-1.52,6.94-2.27,10.41-.35,1.58-.81,3.18-1,4.8-.14,1.17,.03,2.32,.94,3.14,.33,.3,.81,.39,1.21,.16,7.91-4.61,15.09-10.45,21.19-17.29,2.98-3.35,5.61-6.99,8.41-10.48,1.43-1.78,2.91-3.52,4.53-5.13,1.5-1.5,3.28-3.38,5.25-4.25,1.24-.55,2,.53,3.14,.78,1.09,.24,2.23-.17,3.27-.45,2.54-.68,5.08-1.35,7.63-2.03,2.54-.68,5.08-1.35,7.63-2.03,2.17-.58,4.42-1.05,6.44-2.07,1.76-.88,3.29-2.28,4.03-4.15,.81-2.06,.16-3.76-.68-5.67-2.25-5.12,4.85-7.65,8.11-9.81,7.64-5.07,13.83-12.17,17.87-20.39,2.17,2.06,4.4,4.07,6.71,5.98-.02,.05-.06,.08-.07,.14Zm-34.57,24.59c.41,.98,1.03,1.95,1.04,3.05,.01,1.16-.6,2.25-1.38,3.07-1.59,1.67-3.98,2.24-6.13,2.82-2.54,.68-5.08,1.35-7.63,2.03-2.54,.68-5.08,1.35-7.63,2.03-1.14,.3-2.34,.76-3.52,.91-1.21,.15-2.02-.95-3.23-1.02-1.96-.12-3.7,1.51-5.11,2.67-1.7,1.41-3.25,2.98-4.71,4.63-2.95,3.34-5.52,6.98-8.33,10.43-6.28,7.72-13.89,14.26-22.42,19.37-.28-1.14,.42-2.94,.62-3.86,.42-1.93,.84-3.85,1.26-5.78,.73-3.34,1.39-6.71,2.28-10.01,1.69-6.25,4.79-11.44,9.62-15.75,4.64-4.14,10.11-7.17,15.53-10.14,2.85-1.56,5.7-3.12,8.46-4.83,2.67-1.66,5.72-3.49,7.85-5.84,.91-1,1.71-2.27,1.65-3.67-.02-.53-.22-1.3-.63-1.68-.57-.53-1.66-.32-2.37-.32-3.6,.02-7.18,.55-10.65,1.5-.42-3.73,2.64-7.42,1-11.16-.26-.58-.83-1.18-.42-1.81,.26-.39,.84-.76,1.19-1.06,.87-.73,1.8-1.4,2.75-2.02,1.81-1.17,3.72-2.17,5.7-3.02,8.06-3.5,16.86-4.83,25.08-7.88,4.57-1.7,8.9-3.93,12.59-7.15,.2-.17,.28-.37,.3-.56,.29-.36,.56-.72,.83-1.09,2.59,3.04,5.22,6.04,7.94,8.96,1.58,1.7,3.22,3.37,4.89,5.01-3.62,7.56-9.08,14.21-15.91,19.1-1.71,1.22-3.49,2.29-5.31,3.33-1.83,1.06-3.65,2.26-4.76,4.11-1.07,1.76-1.25,3.73-.45,5.63Zm98.85,14.05c.12,2.39,.24,4.82,.07,7.2-.12,1.71-.51,3.62-1.96,4.64-3.17-1.38-4.77-5.56-6.34-8.36-2.15-3.83-4.3-7.66-6.46-11.49-.5-.89-1.26-1.88-1.3-2.93-.04-1.03,.48-2.1,.77-3.07,.59-2,.99-4.04,1.26-6.1,.54-4.12,.52-8.3,.18-12.44-.3-3.71-.83-7.39-1.42-11.07,9.08,12.73,14.37,27.98,15.18,43.61Zm12.16-44.13c-1.92,8.61-7.18,16.28-14.58,21.11-3.03-8.85-7.51-17.14-13.24-24.54-.54-.7-1.37-.24-1.59,.43-.26,.22-.44,.55-.37,.97,1.35,8.15,2.74,16.59,1.81,24.85-.13-.07-.28-.11-.46-.11-3.59,.04-7.12-.29-10.57-.9,.32-.21,.53-.57,.39-1.05-1.97-7.01-8.93-10.37-14.12-14.72-1.34-1.13-2.64-2.35-3.7-3.76-1.37-1.82-2.33-3.91-3.34-5.94-2.01-4.04-4.6-7.61-7.67-10.91-3.09-3.32-6.48-6.35-9.69-9.54-.75-.74-1.57-1.47-2.21-2.3-.86-1.12-.67-2.25-.22-3.51,.82-2.29,1.56-4.55,1.95-6.97,.39-2.42,.53-4.87,.37-7.31-.07-1.08-.26-2.16-.28-3.25-.04-1.46,.43-2.57,1.35-3.68,1.68-2.03,3.55-3.92,5.32-5.87,.82-.91,1.65-1.81,2.47-2.72,.42-.46,.84-.94,1.27-1.39,.58-.6,1.03-.47,1.77-.19,10.53,4.06,18.63-6.54,28.43-7.94,1.56,7.54,3.91,16.2,11.57,19.64,1.84,.83,3.71,1.02,5.69,1.27,2.29,.29,3.92,1.2,5.29,3.07,1.1,1.51,1.95,3.18,3.06,4.68,1.13,1.52,2.4,2.92,3.82,4.17,3.17,2.78,6.95,4.77,11.02,5.83-.15,1.37-.31,2.74-.51,4.11-3.15-.53-6.32-.97-9.49-1.26-4.96-.45-10.98,.55-12.79,5.93-.21,.62,.18,1.06,.68,1.18,1.07,4.65,4.33,8.35,7.62,11.66,3.3,3.3,6.77,6.78,10.97,8.93,0,.02-.02,.03-.03,.06Zm8.51-23.38c9.47,2.01,18.75,4.88,27.74,8.46,2.63,1.05,5.24,2.16,7.83,3.32,1.17,.53,2.35,1.05,3.5,1.63,.69,.34,1.53,.78,1.98,1.43-5.1-.15-10.23-.22-15.3,.42-5.27,.67-10.02,2.33-14.82,4.54-4.69,2.16-9.76,4.46-15.02,3.13-4.81-1.22-8.65-4.75-12.12-8.12-3.86-3.75-8.14-7.79-9.11-13.33-.02-.12-.07-.22-.12-.31,1.98-3.73,7.18-3.88,10.92-3.5,4.87,.49,9.72,1.32,14.51,2.34Zm-4.77-9.24c-3.36-.92-6.51-2.51-9.22-4.73-1.46-1.2-2.79-2.56-3.94-4.06-1.12-1.46-1.97-3.08-3.01-4.58-.94-1.36-2.06-2.66-3.56-3.41-1.79-.9-3.75-.87-5.69-1.18-3.81-.61-6.91-3.21-8.95-6.38-2.63-4.08-3.58-8.97-4.53-13.66-.08-.4-.55-.77-.96-.73-4.84,.44-9,2.84-13.18,5.13-4.18,2.3-9.22,4.75-14.11,3.46-1.04-.27-2.06-.98-3.17-.88-.95,.08-1.62,.75-2.23,1.42-1.88,2.05-3.74,4.11-5.61,6.17-1.57,1.73-3.63,3.48-4.59,5.65-.97,2.19-.3,4.61-.2,6.9,.11,2.65-.11,5.3-.68,7.89-.26,1.19-.59,2.36-.99,3.51-.41,1.17-.98,2.33-1.09,3.58-.2,2.2,1.26,3.66,2.69,5.11,1.67,1.69,3.4,3.32,5.11,4.96,3.39,3.24,6.79,6.55,9.5,10.4,2.7,3.83,4.13,8.43,7.07,12.09,2.62,3.25,6.19,5.55,9.5,8.04,3.23,2.43,6.43,5.22,7.57,9.25,.03,.1,.08,.18,.13,.26-16.11-3.27-30.51-13.06-42.21-24.49-7.5-7.32-14.22-15.4-20.8-23.54-2.45-3.03-4.88-6.09-7.24-9.19,.09-.18,.13-.39,.07-.64-.9-3.9-1.82-7.8-2.71-11.7-.46-2.02-.87-4.05-.9-6.13-.03-1.91,.17-3.82-.09-5.73-.49-3.65-2.81-6.65-3.93-10.09-.61-1.88-.95-3.84-.99-5.82-.03-1.3,0-2.75,.43-4.03,.05,.4,.12,.8,.25,1.2,1.17,3.7,5.01,6.48,8.03,8.63,6.85,4.9,15.46,8,23.93,7.98,4.2,0,8.41-.99,11.9-3.41,3.11-2.16,5.56-5.16,7.33-8.49,2.05-3.86,3.16-8.13,3.76-12.44,.33-2.32,.53-4.65,.68-6.98,.14-2.28,.41-4.64,.23-6.93-.08-1.01-.3-1.96-.68-2.83,.04,0,.08,0,.12,0,2.38-.49,4.93-.95,7.37-.76,.37,.36,.88,.36,1.26,.15,1.26,.22,2.48,.65,3.62,1.38,3.09,1.96,5.16,5.2,8.58,6.71,3.84,1.7,8.09,.97,12.1,.48,3.64-.44,7.92-.7,10.91,1.83,.25,.21,.52,.27,.78,.24,.02,.07,.03,.13,.05,.2-.4,.18-.7,.57-.53,1.12,.54,1.8,1.42,3.4,2.5,4.85,.14,.9,.75,1.48,1.57,1.86,1.21,1.28,2.58,2.44,4.01,3.49,3.03,2.24,6.27,4.24,9.52,6.18,4.67,13.7,6.47,28.29,5.24,42.69Zm-15.6-63.39c.07-.2,.13-.41,.2-.61,.13-.39,0-.7-.21-.91-.23-28.85,15.16-54.79,32.93-76.47,2.59-3.16,5.24-6.26,7.92-9.33,1.29-1.48,2.6-2.95,3.91-4.41,.7-.79,1.41-1.57,2.12-2.36,.18-.2,.38-.44,.58-.68-1,2.96-1.83,5.98-2.48,9.04-.58,2.72-1.28,5.73-.36,8.46,.78,2.31,2.86,3.7,5.31,3.21,2.09-.42,4.12-2.5,6.29-2.66-3.05,11.77-6.12,23.53-9.15,35.3-1.43,5.55-2.79,11.31-2.08,17.07,.29,2.37,.91,4.67,1.94,6.83,1.06,2.22,2.59,3.98,4.34,5.67,.79,.77,1.62,1.54,2.23,2.47,.83,1.25,.86,2.32,.48,3.74-.6,2.27-.38,4.34,.74,6.43,1.16,2.14,2.93,3.85,4.56,5.62,1.67,1.81,3.6,4.29,3.48,6.9-.13,2.74-2.69,4.17-5.09,4.71-2.36,.53-4.81,.23-7.07-.56-4.86-1.71-8.5-5.62-10.81-10.11-5.58-10.86-4.41-23.97-10.96-34.48-.46-.73-1.58-.59-1.83,.24-1.3,4.34-4.96,7.36-7.48,10.98-1.2,1.72-2.18,3.64-2.51,5.73-.47,2.93,.3,5.83,1.38,8.53,1.14,2.83,2.46,5.58,3.71,8.36l1.91,4.23c.56,1.24,1.64,2.78,0,3.59-2.35,1.14-5.58-.28-7.8-1.15-2.7-1.06-5.31-2.18-8.19-2.66-1.62-.27-3.26-.43-4.89-.6-1.62-.17-3.68-.18-5.2-.82,0,0-.01,0-.02-.01-.22-.24-.42-.49-.63-.74-.03-.43,.24-.95,.41-1.47,.27-.83,.54-1.66,.81-2.48,.44-1.33,.87-2.66,1.31-3.99,.12-.15,.2-.34,.2-.59,0,0,0,0,0,0Zm119.57-5.07c-.64,2.27-2.25,4.46-3.68,6.3-1.41,1.82-3.02,3.49-4.7,5.06-3.69,3.42-7.82,6.36-12.01,9.14-4.3,2.85-8.76,5.46-13.38,7.74-9.63,4.74-20.08,7.97-30.82,8.67-10.99,.72-21.65-1.41-31.56-6.19-4.86-2.34-9.49-5.12-14.06-7.97-2.95-1.84-6.05-3.63-8.76-5.85,.33,.03,.63,.06,.9,.1,3.43,.42,6.84,.62,10.13,1.78,2.98,1.05,5.82,2.56,8.98,3.04,2.08,.32,4.87,.1,5.99-2.01,.62-1.16,.22-2.36-.27-3.48-.72-1.64-1.47-3.27-2.21-4.9-1.46-3.25-3.12-6.49-4.3-9.85-1.05-2.99-1.4-6.09,0-9.03,2.09-4.4,6.19-7.47,8.31-11.82,5.02,9.46,4.74,20.79,8.96,30.6,2.04,4.74,5.17,8.97,9.68,11.6,4.06,2.37,9.18,3.32,13.6,1.37,2.09-.92,3.85-2.61,4.28-4.93,.46-2.46-.62-4.91-2-6.89-1.52-2.19-3.59-3.89-5.17-6.02-.73-.98-1.38-2.05-1.7-3.23-.42-1.56,.12-2.82,.38-4.34,.39-2.26-.71-4.16-2.2-5.77-1.73-1.87-3.62-3.41-4.87-5.68-2.88-5.24-2.65-11.5-1.53-17.19,1.38-7.03,3.47-13.96,5.27-20.89,1.87-7.2,3.73-14.41,5.6-21.61,.13-.5-.16-1.11-.7-1.23-2.35-.53-4.29,.74-6.28,1.79-.94,.49-2.05,1.05-3.14,.78-1.13-.28-1.68-1.3-1.94-2.36-.64-2.67,.24-5.63,.84-8.23,.79-3.42,1.81-6.78,3.02-10.07,.23-.61-.36-1.28-.96-1.27-1.62,.03-2.64,1.13-3.66,2.26-1.26,1.4-2.52,2.81-3.78,4.22-2.56,2.88-5.09,5.79-7.57,8.73-4.82,5.72-9.45,11.59-13.73,17.73-8.54,12.25-15.62,25.66-19.48,40.15-2.13,7.99-3.23,16.26-3.04,24.54l-1.36,4.13c-.26,.79-.6,1.62-.88,2.45-.2-.36-.39-.73-.56-1.12,.3-.21,.49-.57,.37-1.03-5.23-20.23-.31-41.37,8.43-59.87,8.56-18.12,20.19-35,33.33-50.1,6.52-7.49,13.69-14.99,22.88-19.12,.14,4.15,1.72,8.06,3.38,11.85,2.08,4.75,3.98,9.34,4.07,14.61,.09,5.66-1.22,11.22-1.89,16.81-.66,5.53-.52,11.11-.11,16.66,.41,5.57,1.07,11.12,1.38,16.69,.3,5.5,.02,10.87-.56,16.35-.52,4.92-.74,10.14,1.88,14.56,2.2,3.72,5.89,6.31,9.76,8.09,9.25,4.25,20,5.28,29.99,3.59,2.56-.43,5.02-1.12,7.51-1.86,.93-.28,2.08-.64,3.05-.32,1.27,.42,1.22,1.82,.92,2.88Z"/></g></g></g></svg>
