<svg id="Calque_2" xmlns="http://www.w3.org/2000/svg" viewBox="0 0 341.08 383.46">
<g id="Calque_4"><g>
<path class="cls-1" d="M167.42,146.46c.7,1.53,1.36,3.09,1.95,4.67,.52,1.38,.99,2.78,1.41,4.2,2.2-6.12,5.76-11.59,9.66-16.76,3.84-5.09,7.9-10.01,11.6-15.2,.02-.03,.04-.06,.06-.09-.01-.08-.04-.14-.04-.23,.45-9.07,.48-18.17,.07-27.24-.73-16.15-2.83-32.24-6.28-48.03-1.71-7.85-3.84-15.57-6.08-23.28-1.7-5.83-3.35-11.69-4.53-17.65-1.35,8.9-1.71,17.92-2.52,26.88-1.73,19.23-5.8,38.15-7.99,57.32-2.11,18.4-2.45,37.33,2.68,55.29,.01,.05,0,.09,.01,.14Z"/>
<path class="cls-1" d="M83.94,168.85c-7.81-5.14-15.61-10.28-23.42-15.42-9.84,.78-19.68,1.56-29.51,2.34-5.14,.41-10.29,.82-15.43,1.23-2.49,.2-4.98,.4-7.47,.6-1.38,.11-3.81-.06-5.31,.71,8.59,3.94,17.18,7.87,25.77,11.81,15.33,7.03,30.69,14.25,46.96,18.88,15.48,4.41,31.95,6.35,47.85,3.19,.12-.12,.26-.22,.42-.25l1.72-.3c-1.81-.59-3.61-1.25-5.38-1.96-12.96-5.24-24.58-13.17-36.2-20.82Z"/>
<path class="cls-1" d="M168.71,184.74c4.6-12.47,2.14-26.35-3.4-38.12-5.12-10.86-12.58-20.36-19.86-29.83-7.09-9.22-14.03-18.56-21.18-27.73-13.36-17.12-27.58-33.84-44.51-47.54,4.35,8.55,8.6,17.16,12.72,25.83,8.49,17.85,16.47,35.94,23.95,54.23,6.51,15.91,12.78,32.54,24.62,45.37,10.49,3.82,20.41,9.12,27.66,17.79Z"/>
<path class="cls-1" d="M142.62,192.98c1.54-2.29,3.23-4.41,5.6-6,3.04-2.04,6.76-3.13,10.42-3.06,2.72,.05,5.33,.79,7.96,1.43-5.24-5.97-11.95-10.41-19.15-13.71-2.22-1.01-4.48-1.92-6.76-2.75-.27,.05-.57-.01-.82-.28,0,0-.01-.01-.02-.02-5.46-1.94-11.07-3.48-16.66-4.97-8.79-2.35-17.58-4.68-26.37-7.02-15.58-4.15-31.16-8.3-46.74-12.45,3.66,2.41,7.31,4.81,10.97,7.22,.28-.02,.55-.04,.83-.07,.77-.06,1.06,.62,.91,1.21,1.41,.93,2.81,1.85,4.22,2.78,12.34,8.12,24.51,16.63,37.24,24.13,11.69,6.88,24.41,12.66,38.13,13.49,.09,0,.16,.04,.24,.06Z"/>
<path class="cls-1" d="M133.27,208.36c-.8-.15-.89-1.15-.44-1.67,2.92-3.43,5.58-7.06,7.98-10.88,.21-.33,.41-.65,.62-.98-2.21-.17-4.4-.46-6.58-.85-.06,.33-.26,.63-.66,.76-9.46,3.05-17.88,8.43-26.03,14-14.61,9.97-29.18,20.01-44.47,28.94-10.16,5.93-20.62,11.36-31.43,16,4.9-1.29,9.79-2.6,14.68-3.94,17.56-4.82,35.07-9.93,52.09-16.42,8.48-3.23,16.85-6.79,24.97-10.87,7.01-3.52,13.8-7.61,19.34-13.2-3.38,.06-6.76-.24-10.07-.88Z"/>
<path class="cls-1" d="M175.75,193.18c.22,.16,.38,.4,.4,.75,0,.06,0,.11,0,.17,.42,.89,.89,1.75,1.45,2.54,.93,1.31,2.2,2.45,3.76,2.94,1.74,.55,3.59,.16,5.25-.46,3.39-1.27,6.54-3.46,9.5-5.52,2.61-1.82,5.13-3.76,7.63-5.72-4.57-1.28-9.29-2.41-14.04-2.16-.27,.21-.58,.2-.84,.06-.2,.02-.39,.02-.59,.04-4.84,.55-9.53,3.52-14.36,2.21,.14,.42,.28,.84,.42,1.26,.27,.14,.47,.41,.41,.83-.01,.09-.03,.18-.04,.27,.32,.94,.67,1.88,1.06,2.8Z"/>
<path class="cls-1" d="M148.91,188.94c-3.34,2.37-5.18,6.09-7.37,9.43-1.89,2.89-3.95,5.65-6.13,8.32,7.64,1.19,15.61,.45,22.82-2.37,6.79-2.66,13.29-8.26,13.26-16.04-4.15-.39-8.08-2.1-12.24-2.33-3.66-.2-7.34,.86-10.33,2.98Z"/>
<path class="cls-1" d="M204.85,144.98c-7.97,13.09-17.18,25.67-22.4,40.19,2.07-.63,4.13-1.16,6.29-1.38,7.74-9.9,16.84-18.6,26.21-26.93,16.84-14.97,34.74-29.14,47.71-47.82,12.64-18.2,20.74-39.49,23.36-61.49-6.27,5.21-12.45,10.55-18.39,16.13-11.6,10.9-22.02,22.83-31.28,35.78-9.22,12.89-17.43,26.46-25.64,40.02-.17,.29-.42,.43-.68,.46-.04,.07-.07,.14-.12,.2-1.61,1.7-3.31,3.3-5.07,4.84Z"/>
<path class="cls-1" d="M171.5,158c2.28,9.21,2.39,19.01-1.09,27.93-.03,.08-.08,.13-.12,.19,.4,.06,.79,.11,1.19,.15,.2-.38,.67-.56,1.12-.48,.26-.13,.56-.16,.88-.01,2.11,.97,4.42,.66,6.61,.08,2.79-8.18,6.86-15.82,11.32-23.2,3.6-5.95,7.42-11.77,11.04-17.7-.02-.29,.06-.59,.28-.77,.14-.12,.27-.25,.41-.37,4.48-7.42,8.61-15.02,11.57-23.25,2.83-7.88,4.76-16.1,5.69-24.43,.46-4.1,.69-8.22,.68-12.34,0-2.1-.07-4.2-.2-6.29-.07-1.2-.05-2.65-.5-3.83-2.29,6.28-4.86,12.47-7.73,18.51-5.59,11.78-12.26,23.05-19.92,33.61-7.31,10.08-16.72,19.42-20.55,31.54-.12,.37-.38,.57-.68,.64Z"/>
<path class="cls-1" d="M194.59,197.06c-2.82,1.89-5.88,3.77-9.14,4.5-.19,.04-.37,.06-.56,.09,3.99,10.81,11.08,20.12,19.5,27.88,7.94,7.32,17.01,13.33,26.42,18.59,11.02,6.15,22.57,11.35,34.48,15.51,19.95,6.97,41.55,10.86,59.65,22.16-5.34-7.13-11.99-13.22-19.18-18.47-16.54-12.08-35.64-19.93-52.71-31.17-14.83-9.77-27.27-22.95-42.52-32.06-5.34-2.3-10.65-4.65-15.95-7.04Z"/>
<path class="cls-1" d="M258.43,193.04c-8.81-2.44-17.79-4.53-26.85-5.77-8.25-1.13-16.77-1.61-25.07-.58,.42,.37,.59,1.08,.09,1.47-3.31,2.6-6.62,5.21-10.09,7.58,2.97,1.34,5.95,2.66,8.94,3.97,.28-.24,.69-.34,1.11-.13,1.69,.86,3.33,1.8,4.95,2.78,5.09,2.2,10.2,4.35,15.34,6.44,18.27,7.42,36.98,14.64,56.37,18.56,17.94,3.63,36.91,3.95,54.3-2.24-8.77-4.28-17.57-8.49-26.48-12.49-17.08-7.67-34.56-14.58-52.63-19.58Z"/>
<path class="cls-1" d="M213.2,161.13c-7.77,7.03-15.23,14.37-21.82,22.55,3.14,.04,6.25,.59,9.31,1.33,.02,0,.03-.02,.05-.02,9.03-2,18.04-4.11,26.9-6.79,7.86-2.38,15.6-5.2,22.99-8.77,7.43-3.58,14.44-7.94,21.36-12.42,7.09-4.59,14.14-9.21,21.36-13.6,6.05-3.68,12.14-7.31,18.23-10.93-6.19,.94-12.33,2.2-18.42,3.69-26.89,6.63-52.44,17.59-79.02,25.21-.4,.11-.71-.02-.93-.25Z"/>
<path class="cls-1" d="M238.53,254.46c-4.61-2.31-9.14-4.77-13.56-7.41-14.37-8.58-28.19-19.64-36.83-34.09,2.24,7.48,4.26,15.02,6.03,22.62,.87,3.76,1.65,7.54,2.38,11.33,.07,.05,.13,.12,.19,.19,6.55,8.76,13.96,16.86,21.79,24.49,13.95,13.57,29.16,25.88,44.36,38.01,13.87,11.08,28.12,21.72,43.22,31.06-4.11-4.61-8.06-9.35-11.89-14.19-9.29-11.73-17.93-23.94-26.81-35.97-8.99-12.18-18.26-24.17-28.63-35.21-.25-.27-.3-.57-.25-.85Z"/>
<path class="cls-1" d="M182.65,202.17c-.05-.15-.06-.28-.05-.41-2.44-.21-4.61-1.44-6.25-3.51,.51,12.75,.32,25.52-.59,38.24-.8,11.16-2.13,22.26-3.74,33.32,.17,.11,.32,.28,.39,.55,1.71,7,4.38,13.71,7.48,20.2,5.55,11.62,12.36,22.61,17.51,34.42,4.87,11.16,7.9,23.11,13.5,33.94,.57-10.74-.1-21.5-1.48-32.16-2.77-21.34-8.24-42.2-11.89-63.39-1.81-10.54-3.73-21.01-6.27-31.41-2.45-10.05-5.33-19.99-8.6-29.8Z"/>
<path class="cls-1" d="M158.21,226.61c4.65-10.17,10.74-20.07,13.47-30.99-1.98,3.75-5.37,6.78-9.18,8.89-1.49,11.8-5.07,23.2-10.2,33.91-4.86,10.15-11,19.54-17.98,28.3-3.78,13.04-8.33,25.84-13.6,38.35,6.74-2.15,12.95-5.68,18.24-10.4,.02-.08,.04-.17,.08-.24,.54-.86,1.07-1.72,1.61-2.59,.95-9.58,2.56-19.1,4.83-28.46,3.06-12.63,7.32-24.96,12.72-36.78Z"/>
<path class="cls-1" d="M174.18,194.56c-.06-.12-.12-.24-.17-.36-2.74,12.73-9.96,24.04-15.17,35.86-8.65,19.62-14.09,40.66-16.2,62,0,.11,0,.22-.03,.33-.42,4.35-.72,8.72-.87,13.09-.43,12.95,.35,25.96,2.41,38.76,1.91,11.83,4.89,23.59,10.05,34.44,.76-12.39,2.2-24.73,3.99-37.01,3.55-24.33,8.43-48.44,11.95-72.77,3.57-24.65,5.28-49.43,4.04-74.33Z"/>
<path class="cls-1" d="M132.53,265.69c.1-.34,.32-.54,.58-.63,.63-.79,1.25-1.58,1.87-2.39,12.71-16.7,22.47-36.16,25.36-57.1-.19,.08-.38,.18-.57,.26-4.36,1.85-9.02,2.92-13.74,3.27-.03,.17-.1,.34-.24,.49-5.01,5.38-11.14,9.43-17.58,12.89,0,0,0,.01,.01,.02,.04,.13,.05,.27,.02,.4,0,.13-.05,.26-.12,.37-.12,.23-.23,.47-.35,.7-.09,.15-.21,.27-.36,.36l-.08,.03c-.05,.13-.13,.25-.25,.36-6.81,6.55-13.18,13.55-19.06,20.95-10.43,13.11-19.32,27.46-26.46,42.61-6.08,12.88-10.85,26.36-14.26,40.19,4.87-7.19,12.08-12.66,18.79-18.12,16.6-13.52,32.98-27.71,46.39-44.49,.02-.06,.04-.12,.05-.18Z"/>
<path d="M340.59,224.39c-17.09-8.36-34.31-16.51-52.06-23.38-17.51-6.78-35.69-12.49-54.28-15.36-6.98-1.08-14.11-1.69-21.2-1.45,12.03-2.93,23.93-6.42,35.24-11.49,15.26-6.84,28.74-16.92,42.92-25.65,8.48-5.23,17.07-10.28,25.62-15.39,.78-.47,.53-1.99-.5-1.86-27.78,3.44-53.97,13.6-80.31,22.54-6.7,2.28-13.44,4.46-20.23,6.46,7.82-6.97,15.86-13.72,23.54-20.81,8.38-7.74,16.34-15.96,23.09-25.18,6.8-9.29,12.38-19.43,16.67-30.11,4.82-12,7.91-24.64,9.21-37.51,.1-.95-1.11-1.2-1.71-.71-12.36,10.19-24.39,20.85-35.11,32.78-10.59,11.8-19.74,24.8-28.27,38.13-4.87,7.61-9.55,15.34-14.23,23.07,0,0,0,0,0,0-.18,.04-.35,.1-.49,.25,0,0,0,0,0,0,2.97-5.33,5.62-10.82,7.75-16.56,2.95-7.96,4.94-16.25,5.99-24.68,.59-4.76,.87-9.56,.83-14.35-.02-2.4-.12-4.8-.31-7.19-.15-1.85-.41-3.86-1.97-5.08-.61-.48-1.4-.32-1.67,.44-4.38,12.35-9.91,24.28-16.49,35.62-2.65,4.56-5.48,9.01-8.46,13.36,.61-15.33,.03-30.7-1.81-45.93-1.93-16-5.25-31.75-9.73-47.22-2.52-8.71-5.16-17.42-6.4-26.42-.14-.99-1.74-.92-1.93,0-1.97,9.43-2.47,19.06-3.21,28.65-.76,9.81-2.08,19.55-3.6,29.27-2.94,18.88-6.38,37.82-6.2,57,.07,7.87,.76,15.74,2.32,23.45-3.86-6.68-8.48-12.93-13.16-19.04-14.38-18.79-28.26-38.09-44.1-55.7-8.89-9.89-18.47-19.15-29.03-27.26-.86-.66-1.78,.57-1.37,1.37,9.15,17.79,17.8,35.82,25.93,54.1,4.06,9.13,8,18.32,11.8,27.56,3.33,8.09,6.5,16.27,10.28,24.17,3.63,7.58,7.89,14.9,13.28,21.36-3.07-1.01-6.16-1.92-9.22-2.76-17.72-4.88-35.52-9.48-53.28-14.21-10.03-2.67-20.05-5.34-30.08-8.01-1.12-.3-1.71,1.21-.77,1.83l13.92,9.16c-15.66,1.24-31.31,2.48-46.97,3.73-2.24,.18-4.51,.27-6.74,.57-1.6,.21-3.05,.74-3.96,2.13-.28,.42-.11,1.15,.36,1.37,16.08,7.37,32.06,15.02,48.34,21.96,15.52,6.61,31.62,12.21,48.5,13.88,9.46,.93,19.05,.56,28.34-1.51,.12-.03,.21-.08,.3-.13,1.45-.21,2.89-.42,4.34-.62,.56,.14,1.12,.28,1.69,.4-7.68,2.72-14.73,6.86-21.5,11.36-7.32,4.86-14.49,9.94-21.8,14.82-14.7,9.8-29.76,19.16-45.63,26.96-8.94,4.4-18.13,8.28-27.57,11.45-1.21,.41-.73,2.24,.53,1.93,18.49-4.64,36.95-9.52,55.19-15.08,17.57-5.35,34.95-11.51,51.49-19.53,.66-.32,1.32-.66,1.98-.99-11.78,11.49-22.23,24.33-31.12,38.18-9.06,14.13-16.5,29.32-22.11,45.14-3.2,9.04-5.79,18.28-7.76,27.66-.27,1.28,1.47,1.72,1.93,.53,3.75-9.68,12.33-16.31,20.14-22.64,8.9-7.21,17.7-14.57,26.07-22.4,6.76-6.32,13.25-13,19.23-20.1-3.67,12.04-7.98,23.88-12.93,35.44-.33,.76,.21,1.72,1.13,1.47,7.8-2.14,14.98-6.07,21.02-11.44-1.15,14.71-.74,29.55,1.29,44.18,2.03,14.71,5.58,29.41,12.56,42.61,.49,.92,1.82,.43,1.86-.5,1.23-24.62,5.32-48.96,9.53-73.22,2.02-11.66,4.07-23.34,5.85-35.05,3.26,11.24,8.79,21.66,14.31,31.94,3.07,5.71,6.14,11.42,8.85,17.31,2.81,6.12,5.03,12.47,7.3,18.8,2.54,7.1,5.21,14.18,8.99,20.72,.52,.91,1.79,.44,1.86-.5,1.68-21.34-1.84-42.6-6.04-63.45-2.13-10.56-4.44-21.09-6.39-31.7-.99-5.38-1.91-10.76-2.9-16.13,11.23,14.34,24.54,26.87,38.38,38.67,15.17,12.94,30.68,25.59,46.79,37.32,9.2,6.7,18.66,13.04,28.48,18.8,.99,.58,1.99-.75,1.21-1.57-10.39-11.02-19.66-23.01-28.65-35.19-8.88-12.03-17.52-24.25-26.81-35.98-4.57-5.78-9.32-11.41-14.29-16.85,5.24,2.49,10.57,4.78,15.97,6.85,11.15,4.28,22.67,7.36,34.06,10.9,12.56,3.9,25.03,8.53,35.78,16.26,.82,.59,1.88-.56,1.37-1.37-10.42-16.38-27.07-27.19-43.71-36.43-9.35-5.19-18.89-10.05-27.98-15.7-8.66-5.38-16.53-11.73-24.37-18.21-4.3-3.55-8.63-7.1-13.13-10.4,10.07,4.19,20.22,8.18,30.51,11.82,18.6,6.58,37.99,12.03,57.88,11.85,10.74-.09,21.49-1.83,31.51-5.76,.72-.28,1.09-1.41,.24-1.83Zm-47.44-88.21c6.08-1.5,12.22-2.75,18.42-3.69-6.09,3.63-12.18,7.25-18.23,10.93-7.21,4.39-14.27,9.01-21.36,13.6-6.91,4.48-13.93,8.83-21.36,12.42-7.4,3.57-15.14,6.4-22.99,8.77-8.85,2.68-17.87,4.8-26.9,6.79-.02,0-.03,.02-.05,.02-3.06-.75-6.17-1.29-9.31-1.33,6.59-8.18,14.06-15.51,21.82-22.55,.22,.23,.53,.36,.93,.25,26.59-7.62,52.14-18.58,79.02-25.21Zm-118.83,53.11c-.14-.42-.28-.84-.42-1.26,4.83,1.32,9.53-1.65,14.36-2.21,.2-.02,.39-.02,.59-.04,.26,.14,.57,.15,.84-.06,4.75-.25,9.47,.88,14.04,2.16-2.5,1.96-5.02,3.9-7.63,5.72-2.95,2.06-6.11,4.25-9.5,5.52-1.66,.62-3.51,1.01-5.25,.46-1.55-.49-2.83-1.63-3.76-2.94-.56-.79-1.03-1.65-1.45-2.54,0-.06,0-.11,0-.17-.02-.35-.18-.59-.4-.75-.39-.91-.73-1.85-1.06-2.8,.01-.09,.03-.18,.04-.27,.06-.42-.14-.69-.41-.83Zm35.59-49.14c.05-.06,.08-.13,.12-.2,.26-.04,.5-.17,.68-.46,8.2-13.55,16.42-27.12,25.64-40.02,9.26-12.95,19.68-24.88,31.28-35.78,5.94-5.59,12.12-10.92,18.39-16.13-2.62,22.01-10.72,43.29-23.36,61.49-12.97,18.67-30.87,32.85-47.71,47.82-9.37,8.33-18.48,17.03-26.21,26.93-2.16,.21-4.22,.74-6.29,1.38,5.22-14.52,14.43-27.1,22.4-40.19,1.76-1.54,3.46-3.14,5.07-4.84Zm2.72-47.93c2.87-6.04,5.43-12.23,7.73-18.51,.46,1.18,.43,2.63,.5,3.83,.13,2.09,.2,4.19,.2,6.29,0,4.12-.22,8.24-.68,12.34-.93,8.32-2.86,16.55-5.69,24.43-2.96,8.24-7.09,15.84-11.57,23.25-.14,.12-.27,.25-.41,.37-.22,.18-.3,.48-.28,.77-3.62,5.93-7.44,11.75-11.04,17.7-4.47,7.37-8.53,15.02-11.32,23.2-2.19,.58-4.49,.89-6.61-.08-.32-.15-.63-.11-.88,.01-.45-.08-.92,.1-1.12,.48-.4-.04-.79-.09-1.19-.15,.04-.06,.09-.12,.12-.19,3.48-8.92,3.37-18.72,1.09-27.93,.29-.08,.56-.27,.68-.64,3.83-12.12,13.24-21.47,20.55-31.54,7.66-10.56,14.33-21.83,19.92-33.61Zm-41.16,96.07c.03,7.78-6.47,13.38-13.26,16.04-7.21,2.83-15.18,3.57-22.82,2.37,2.19-2.67,4.24-5.44,6.13-8.32,2.19-3.35,4.02-7.06,7.37-9.43,2.99-2.12,6.67-3.19,10.33-2.98,4.16,.23,8.09,1.93,12.24,2.33Zm-6.75-97.25c2.2-19.17,6.26-38.09,7.99-57.32,.81-8.96,1.16-17.98,2.52-26.88,1.18,5.96,2.83,11.82,4.53,17.65,2.24,7.71,4.37,15.44,6.08,23.28,3.45,15.8,5.55,31.88,6.28,48.03,.41,9.08,.38,18.17-.07,27.24,0,.09,.02,.15,.04,.23-.02,.03-.04,.06-.06,.09-3.7,5.2-7.75,10.11-11.6,15.2-3.91,5.17-7.47,10.65-9.66,16.76-.42-1.42-.89-2.82-1.41-4.2-.59-1.59-1.25-3.14-1.95-4.67,0-.05,0-.09-.01-.14-5.13-17.96-4.79-36.89-2.68-55.29Zm-48.3,30.56c-7.48-18.29-15.47-36.38-23.95-54.23-4.12-8.67-8.37-17.28-12.72-25.83,16.93,13.7,31.15,30.42,44.51,47.54,7.15,9.17,14.09,18.51,21.18,27.73,7.28,9.47,14.74,18.97,19.86,29.83,5.54,11.77,8,25.65,3.4,38.12-7.24-8.67-17.17-13.98-27.66-17.79-11.84-12.83-18.11-29.46-24.62-45.37Zm7.37,70.35c-.17,.03-.3,.13-.42,.25-15.9,3.16-32.37,1.22-47.85-3.19-16.27-4.63-31.62-11.85-46.96-18.88-8.59-3.94-17.18-7.87-25.77-11.81,1.5-.78,3.93-.6,5.31-.71,2.49-.2,4.98-.4,7.47-.6,5.14-.41,10.29-.82,15.43-1.23,9.84-.78,19.68-1.56,29.51-2.34,7.81,5.14,15.61,10.28,23.42,15.42,11.62,7.65,23.24,15.58,36.2,20.82,1.77,.72,3.56,1.37,5.38,1.96l-1.72,.3Zm-19.55-12.5c-12.73-7.5-24.9-16-37.24-24.13-1.41-.93-2.81-1.85-4.22-2.78,.15-.59-.15-1.27-.91-1.21-.28,.02-.55,.04-.83,.07-3.66-2.41-7.31-4.81-10.97-7.22,15.58,4.15,31.16,8.3,46.74,12.45,8.79,2.34,17.58,4.68,26.37,7.02,5.59,1.49,11.2,3.03,16.66,4.97,0,0,.01,.01,.02,.02,.25,.27,.55,.33,.82,.28,2.29,.83,4.55,1.73,6.76,2.75,7.2,3.3,13.91,7.74,19.15,13.71-2.62-.65-5.23-1.38-7.96-1.43-3.66-.07-7.38,1.02-10.42,3.06-2.37,1.59-4.06,3.71-5.6,6-.08-.02-.15-.06-.24-.06-13.73-.82-26.44-6.6-38.13-13.49Zm19.74,43.01c-8.11,4.08-16.49,7.64-24.97,10.87-17.02,6.49-34.53,11.6-52.09,16.42-4.88,1.34-9.78,2.65-14.68,3.94,10.81-4.64,21.27-10.07,31.43-16,15.29-8.93,29.85-18.96,44.47-28.94,8.15-5.56,16.57-10.95,26.03-14,.4-.13,.6-.43,.66-.76,2.17,.4,4.37,.68,6.58,.85-.21,.33-.41,.65-.62,.98-2.4,3.81-5.06,7.44-7.98,10.88-.45,.52-.36,1.52,.44,1.67,3.3,.64,6.69,.94,10.07,.88-5.54,5.59-12.34,9.68-19.34,13.2Zm-37.89,87.92c-6.7,5.46-13.92,10.94-18.79,18.12,3.41-13.82,8.18-27.31,14.26-40.19,7.15-15.15,16.03-29.5,26.46-42.61,5.88-7.39,12.26-14.39,19.06-20.95,.12-.12,.2-.24,.25-.36l.08-.03c.15-.09,.27-.21,.36-.36,.12-.23,.23-.47,.35-.7,.07-.11,.11-.24,.12-.37,.03-.13,.02-.27-.02-.4,0,0,0-.01-.01-.02,6.44-3.46,12.58-7.51,17.58-12.89,.15-.16,.21-.33,.24-.49,4.72-.36,9.38-1.43,13.74-3.27,.19-.08,.38-.17,.57-.26-2.89,20.94-12.65,40.4-25.36,57.1-.61,.8-1.24,1.6-1.87,2.39-.26,.09-.48,.29-.58,.63-.02,.06-.04,.12-.05,.18-13.41,16.78-29.79,30.97-46.39,44.49Zm54.55-18.51c-.54,.86-1.07,1.72-1.61,2.59-.05,.07-.06,.16-.08,.24-5.28,4.72-11.5,8.25-18.24,10.4,5.26-12.51,9.81-25.31,13.6-38.35,6.98-8.76,13.12-18.16,17.98-28.3,5.13-10.72,8.71-22.12,10.2-33.91,3.81-2.11,7.2-5.14,9.18-8.89-2.73,10.92-8.82,20.82-13.47,30.99-5.4,11.82-9.66,24.15-12.72,36.78-2.27,9.36-3.88,18.88-4.83,28.46Zm29.5-22.97c-3.52,24.33-8.41,48.44-11.95,72.77-1.79,12.28-3.23,24.62-3.99,37.01-5.17-10.84-8.15-22.6-10.05-34.44-2.06-12.8-2.84-25.8-2.41-38.76,.15-4.37,.44-8.73,.87-13.09,.03-.11,.04-.22,.03-.33,2.12-21.34,7.56-42.38,16.2-62,5.21-11.83,12.43-23.14,15.17-35.86,.05,.12,.12,.24,.17,.36,1.25,24.89-.47,49.68-4.04,74.33Zm27.38-5.51c3.65,21.19,9.12,42.05,11.89,63.39,1.38,10.66,2.05,21.42,1.48,32.16-5.6-10.83-8.63-22.78-13.5-33.94-5.15-11.81-11.96-22.8-17.51-34.42-3.1-6.5-5.77-13.2-7.48-20.2-.06-.27-.21-.43-.39-.55,1.61-11.06,2.95-22.16,3.74-33.32,.91-12.73,1.09-25.5,.59-38.24,1.64,2.08,3.81,3.3,6.25,3.51-.01,.12,0,.26,.05,.41,3.28,9.81,6.15,19.76,8.6,29.8,2.54,10.39,4.46,20.87,6.27,31.41Zm69.88,27.14c8.88,12.03,17.52,24.25,26.81,35.97,3.83,4.84,7.78,9.58,11.89,14.19-15.1-9.34-29.36-19.98-43.22-31.06-15.19-12.14-30.41-24.44-44.36-38.01-7.84-7.63-15.24-15.73-21.79-24.49-.06-.08-.12-.14-.19-.19-.73-3.79-1.5-7.56-2.38-11.33-1.77-7.6-3.79-15.15-6.03-22.62,8.63,14.45,22.45,25.51,36.83,34.09,4.42,2.64,8.95,5.1,13.56,7.41-.06,.28,0,.58,.25,.85,10.38,11.03,19.65,23.03,28.63,35.21Zm-14.35-54.36c17.07,11.24,36.17,19.09,52.71,31.17,7.19,5.25,13.84,11.34,19.18,18.47-18.1-11.3-39.7-15.19-59.65-22.16-11.92-4.16-23.46-9.36-34.48-15.51-9.42-5.26-18.48-11.26-26.42-18.59-8.43-7.77-15.51-17.08-19.5-27.88,.19-.03,.37-.04,.56-.09,3.26-.73,6.32-2.61,9.14-4.5,5.3,2.39,10.61,4.74,15.95,7.04,15.25,9.11,27.69,22.29,42.52,32.06Zm30.17-8.8c-19.38-3.92-38.1-11.14-56.37-18.56-5.14-2.09-10.25-4.24-15.34-6.44-1.62-.97-3.26-1.91-4.95-2.78-.42-.22-.83-.11-1.11,.13-2.98-1.31-5.97-2.63-8.94-3.97,3.47-2.38,6.78-4.98,10.09-7.58,.49-.39,.33-1.1-.09-1.47,8.3-1.03,16.82-.55,25.07,.58,9.06,1.24,18.04,3.33,26.85,5.77,18.07,5,35.54,11.91,52.63,19.58,8.9,4,17.71,8.21,26.48,12.49-17.39,6.18-36.37,5.86-54.3,2.24Z"/></g></g></svg>
