<svg id="Crabe" xmlns="http://www.w3.org/2000/svg" viewBox="0 0 258.68 246.06">
<g id="Calque_2-2"><g>
<path class="cls-1" d="M106.03,171.34c-3.23-5.14-5.71-10.69-8.15-16.24-2.38-5.42-4.69-10.86-8.19-15.68-2.56-3.52-5.73-6.72-9.56-8.8-1.29-.25-2.54-.78-3.67-1.58-.57-.41-.24-1.43,.5-1.19,1.24,.39,2.44,.89,3.58,1.5,2.58,.43,5.24-.45,7.23-2.5,2.87-2.95,3.33-7.41,.76-10.71-.31-.4-.17-1.16,.46-1.12,6.16,.4,9.78-8.92,5-12.81-.57-.46,.07-1.19,.64-1.09,4.88,.8,9.69-2.19,12.04-6.42-.16,.02-.34-.04-.48-.21-3.77-4.63-9.52-7.37-15.5-7.33-.26,0-.59-.2-.63-.48l-2.07-13.42c-.07-.46,.28-.97,.8-.8,2.42,.79,5.06,.26,7-1.36-2.44-3.65-4.46-7.56-6.06-11.65-5.65-14.46-5.82-30.95-.34-45.47-6.32,5.28-10.15,13.34-10.16,21.6,0,.77-1.05,.85-1.28,.17-3.59-10.37-4.05-21.71-1.35-32.33-3.47,1.39-6.57,3.62-9.05,6.42-4.93,5.55-7.25,13.17-5.74,20.49,1.53,7.39,6.46,13.94,13.27,17.24,.52,.25,.36,1.06-.16,1.19-3.49,.95-6.98,1.89-10.47,2.84,1.82,3.01,3.5,6.11,5.01,9.29,5.44,11.52,8.72,24,9.64,36.7,.89-1.29,1.77-2.59,2.66-3.88,.36-.52,1.21-.35,1.22,.33,.03,4.07,.53,8.11,1.51,12.06,.43,1.73,.95,3.45,1.56,5.13,.63,1.73,1.43,3.36,2.15,5.05,.46,1.07-.14,2.64-.61,3.64-.56,1.2-1.44,2.25-2.48,3.06-2.17,1.67-4.99,2.12-7.55,1.11-1.48-.59-2.76-1.59-3.7-2.85-.12,3.78-.85,7.55-.51,11.34,.02,.27-.22,.58-.48,.63-3.24,.64-6.49,1.29-9.73,1.93-.27,.05-.61-.03-.74-.3-1.16-2.52-2.14-5.12-2.9-7.78-2.66-9.3-2.81-19.27-.42-28.64-3.16-3.28-5.9-6.97-8.12-10.94-4.04-7.23-6.44-15.35-7.09-23.6-.59-7.53,.33-15.17,2.82-22.3-.23,.2-.47,.4-.69,.61-6.14,6-6.83,15.53-5.63,23.57,1.55,10.35,6.8,19.62,9.65,29.6,1.5,5.26,2.33,10.75,1.59,16.21-.37,2.74-1.13,5.41-1.7,8.11-.58,2.69-1.04,5.54-.44,8.27,.81,3.66,3.48,6.26,6.98,7.4,3.36,1.09,6.98,1.13,10.47,1.18,6.75,.1,15.01-.32,20.01,5.11,.13,.15,.18,.31,.17,.46,1.04,1.12,2.08,2.24,3.13,3.37,.37,.4,.12,1.13-.46,1.12-9.61-.16-19.18,1.65-28.07,5.29-.28,.11-.59-.08-.74-.3-1.98-2.86-4.14-5.59-6.47-8.17-8.22-9.07-18.5-16.24-29.89-20.74-.25-.1-.52-.33-.48-.63,.29-2.29,.86-4.51,1.76-6.64,2.53-6.01,7.32-11.02,13.21-13.77-1.74,.5-3.45,1.08-5.13,1.77-8.97,3.67-16.87,9.93-22.47,17.84,4.32,1.92,8.56,4.02,12.68,6.32,15.09,8.41,28.76,19.33,40.31,32.17,2.47-1.59,5.04-3.03,7.69-4.29,4.94-2.34,10.15-4.11,15.51-5.22,.66-.14,1.31-.26,1.97-.38,.5-.09,1.27-.37,1.76-.23,.45,.13,.94,.71,1.24,1.04,.35,.39,.67,.82,.94,1.27,1.11,1.84,1.44,4.06,.95,6.14,.02,.21-.06,.42-.32,.53-.02,.01-.05,.03-.07,.04-9.64,4.1-19.58,7.45-29.21,11.55-.29,.12-.54,.11-.79-.1-5.25-4.49-11.45-7.81-18.06-9.79-5.92-1.77-12.14-2.47-18.3-2.02-3.08,.23-6.05,.86-9.06,1.5-2.86,.61-5.87,1.16-8.78,.55-2.6-.54-4.87-2.18-6.04-4.57-.76-1.55-1.08-3.27-1.05-4.98-1.99,5.77-2.12,12.17,.01,17.93,4.24-2.2,8.8-3.75,13.49-4.62,8.83-1.63,18.06-.95,26.58,1.84,8.23,2.7,15.81,7.38,21.66,13.8,1.36-2.45,3.06-4.71,5.04-6.7,7.76-7.79,19.54-11.48,30.3-8.91,.51,.12,.57,.65,.34,.99,2.93,3.62,3.93,8.61,2.52,13.09-.11,.34-.45,.55-.8,.46-7.91-2.1-15.82-4.21-23.72-6.31-.3,2.18-.73,4.33-1.36,6.44-2.41,8.17-7.21,15.61-13.69,21.13,3.45,3.45,1.97,9.16,1.13,13.42-.46,2.3-.76,4.57-.61,6.91,.15,2.37,.7,4.72,1.56,6.93,1.71,4.41,4.77,8.36,8.74,10.95,7.57,4.95,17.97,4.57,25.36-.5-1.82,.14-3.64,.08-5.46-.19-9.44-1.42-18-8.36-20.76-17.58-.06-.21,0-.48,.17-.64,2.08-1.91,3.93-4.06,5.5-6.42,5.51-8.31,7.58-18.83,5.29-28.57-.11-.49,.31-.93,.8-.8,8.57,2.14,17.57,2.21,26.16,.2,.03-.03,.06-.07,.1-.1,1.06-.74,2.13-1.47,3.19-2.21-3.39-2.72-6.05-6.25-8.39-9.96Z"/>
<path class="cls-1" d="M152.32,80.47c3.32-.71,3.85-5.78,1.09-7.49-.05-.03-.07-.07-.11-.1-.05-.01-.1-.02-.14-.04-1.76-.89-3.96-.06-5.16,1.39-1.09,1.32-1.13,3.12-.09,4.48,.99,1.28,2.79,2.1,4.41,1.76Z"/>
<path class="cls-1" d="M112.86,75.23c-2.28-.14-4.21,1.69-4.77,3.81-.5,1.9,.32,3.74,2.06,4.64,1.56,.8,3.59,.76,5.08-.19,3.36-2.15,1.37-7.93-2.37-8.26Z"/>
<path class="cls-1" d="M161.48,162.15c1.21-2.02,2.32-4.09,3.38-6.19-3.63-1.19-14.2-2.37-17.62-3.56-.79-.27-.45-1.54,.35-1.26,3.47,1.2,14.32,2.41,17.78,3.61,.03,.01,.05,.03,.08,.04,1.2-2.4,2.37-4.81,3.59-7.19,.92-1.79,1.87-3.58,2.86-5.36-5.21,1.29-17.32,4.35-21.57,5.39-.82,.2-1.16-1.06-.35-1.26,4.52-1.11,17.97-4.51,22.5-5.62,.09-.02,.18-.02,.26-.01,3.3-5.78,7.07-11.3,11.93-15.79-2.71,.21-5.46-.86-7.37-2.8-2.07-2.1-2.88-4.99-2.29-7.82-.55-.8-.96-1.68-1.25-2.59-5.83,2.32-16.75,7.43-22.3,9.59-.79,.31-1.12-.96-.35-1.26,5.56-2.17,16.52-7.3,22.34-9.61-.36-2.11-.04-4.32,.99-6.21-1.01,.26-2.06,.34-3.11,.25-.26,.13-.57,.07-.77-.1-2.69-.48-5.09-2.12-6.32-4.5-4.05,4.31-11.78,12.3-15.56,16.34-.58,.62-1.5-.31-.92-.92,3.9-4.17,12.01-12.54,15.94-16.74-.06-.22-.12-.43-.17-.66-.56-2.69,.13-5.53,1.81-7.64-2.86,0-5.57-2.11-6.57-4.78-.36,.53-.77,1.02-1.25,1.45-.79,.72-1.7,1.26-2.66,1.62,0,.11,0,.24-.08,.36-3.38,5.83-6.76,17.75-10.15,23.58-.42,.73-1.55,.07-1.13-.66,3.25-5.6,6.5-16.82,9.75-22.86-1.93,.28-3.93-.2-5.55-1.6-2.09-1.82-3.09-4.78-2.61-7.48-2.59,1.25-6.13,.47-7.74-1.98-4.16,2.68-9.37,3.49-14.16,2.42,.23,.38,.44,.78,.62,1.2,1.87,4.33,.29,9.77-4.49,11.24-3.48,1.07-7.61-.12-9.92-2.88-.06,1.01-.27,2.01-.57,2.97,2.98,4.41,10.79,13.63,13.77,18.03,.47,.7-.66,1.35-1.13,.66-2.81-4.15-9.89-12.58-13.2-17.22-2.13,4.69-6.97,8.22-12.2,8.2,.37,.5,.66,1.04,.88,1.61,6.34,4.19,20.18,11.69,26.48,15.87,.7,.46,.04,1.59-.66,1.13-5.95-3.94-18.63-10.86-25.36-15.14,.56,4.53-2.59,9.78-7.24,10.3,.87,1.43,1.39,3.02,1.38,4.73,0,.08,0,.15-.01,.23,.02,0,.03,0,.04,0,5.83,.93,17.32,1.76,23.15,2.69,.83,.13,.48,1.39-.35,1.26-5.78-.93-17.11-1.74-22.98-2.67-.52,2.86-2.38,5.43-4.87,6.92-1.17,.7-2.44,1.12-3.72,1.26,7.46,4.99,11.59,13.37,15.2,21.51,.06-.04,.11-.07,.19-.09,3.66-.96,14.46-1.93,18.12-2.89,.82-.21,1.16,1.05,.35,1.26-3.66,.96-14.46,1.93-18.12,2.89,0,0,0,0-.01,0,.49,1.11,.97,2.21,1.45,3.29,1.57,3.54,3.21,7.07,5.09,10.47,3.16-3.35,10.74-11.12,13.85-14.42,.58-.61,1.5,.31,.92,.92-3.13,3.32-10.78,11.16-13.91,14.48-.07,.07-.14,.12-.22,.15,.84,1.47,1.73,2.91,2.69,4.31,1.69,2.47,3.56,4.93,5.82,6.9,2.14,1.86,4.63,3.36,7.28,4.36,.23,.09,.47,.17,.71,.25,.57-7.79,1.14-21.24,1.71-28.9,.06-.84,1.37-.84,1.31,0-.58,7.75-1.16,21.43-1.73,29.18,0,.04-.02,.07-.03,.11,1.21,.34,2.43,.57,3.66,.7,0-.07,.03-.13,.08-.2,7.75-10.2,6.44-15.54,5.79-20.38-1.15-8.58-5.83-16.47-13.1-21.23-7.18-4.7-16.27-6.34-24.59-4.18-.35,.09-.6-.09-.73-.34-.17-.23-.21-.56,.02-.83,1.96-2.27,1.69-6.01-.47-8.05-.47-.44-.05-1.07,.45-1.1,.16-.06,.34-.07,.53,.02,4.59,2.2,9.82,2.89,14.85,2.2,9.08-1.24,17.23-6.9,20.79-15.45,3.57-8.59,2.56-18.94-2.98-26.46-.2-.27-.14-.53,.03-.71-.21-.51,.32-1.19,.91-.83,4.06,2.5,9.67,1.64,12.81-1.95,.52-.59,1.33,.17,1,.79,.02,.13,0,.28-.11,.43-2.89,4.04-4.54,8.86-4.85,13.81-.55,8.77,3.06,17.49,10.2,22.76,6.77,5,15.8,6.81,23.9,4.36,.61-.19,.96,.49,.73,.94,.09,.37-.1,.84-.6,.86-.55,.03-1.08,.28-1.49,.68-.44,.43-.73,.97-.9,1.57-.11,.38-.13,.55-.14,.91-.01,.38,0,.57,.09,.89,.09,.36,.15,.49,.35,.8,.11,.17,.38,.44,.57,.57,.65,.44,.12,1.45-.52,1.2-4.4-.3-8.8,.39-12.92,1.97-7.4,2.84-13.54,8.52-16.71,15.81-3.26,7.49-3.39,16.35-.2,23.89,.1,.23,.06,.45-.05,.62,.32,.58-.49,1.3-1.04,.76-1.56-1.51-5.97-2.13-10.04,5.98,2.92,.09,5.85-.4,8.69-1.46,4.17-1.56,8.01-3.9,11.43-6.73-.02-.04-.05-.08-.07-.14-1.25-4.62-4.59-16.13-5.85-20.75-.22-.81,1.04-1.16,1.26-.35,1.21,4.49,4.4,15.46,5.73,20.32,.49-.43,.96-.86,1.43-1.31,3.93-3.76,7.22-8.14,10.02-12.8Z"/>
<path class="cls-1" d="M251.24,137.68c-.07,.25-.35,.52-.63,.48-3.85-.51-7.74-.72-11.62-.62-13.68,.35-27.19,4.53-38.64,12.01-.25,.16-.59,.09-.79-.1-5.19-4.76-11.68-7.92-18.61-9.13-.23-.04-.38-.25-.46-.46-.77-2.15-.15-4.63,1.51-6.17,1.11-1.42,2.23-2.84,3.34-4.25,0-.04,0-.08,.03-.12,.03-.08,.07-.15,.14-.21,.32-.4,.65-.8,.97-1.2,.11-.13,.3-.18,.46-.19,.09,0,.17,.02,.25,.05,.03,0,.06-.02,.1-.02,6.34-.02,12.67-.04,19.01-.06,2.19-3.02,4.64-5.83,7.36-8.39,9.85-9.27,22.75-15.16,36.22-16.41,.24-2.29,.27-4.6,.06-6.9-.67-7.32-3.64-14.37-8.37-19.98,3.61,7.09,4.7,15.38,2.96,23.18-.08,.37-.47,.52-.8,.46-5.91-1.08-11.77,1.1-16.78,4.11-8.53,5.14-15.28,13.36-24.95,16.56-7.22,2.39-16.77,1.24-21.03-5.75-.26-.43,.04-.83,.41-.94,.1-.07,.21-.13,.35-.14,3.48-.21,6.78-1.86,9.98-3.17,2.32-7.09,3.58-14.46,5.24-21.72-.64,.65-1.29,1.3-1.93,1.95-.45,.45-1.3,0-1.09-.64,2.06-6.33,3.74-12.79,5-19.33,2.24-11.62,3.15-23.51,2.58-35.33-.43-8.85-1.72-17.64-3.92-26.21,.55,8.96-.92,18.01-4.37,26.33-.16,.39-.75,.72-1.09,.29-5.34-6.79-8.77-14.94-9.93-23.46-.04,.78-.07,1.55-.09,2.33-.23,12.01,2.62,24.02,8.29,34.61,.32,.6-.31,1.17-.89,.89-3.91-1.85-7.3-4.63-9.93-8.01,.38,1.15,.75,2.3,1.1,3.46,4.15,13.74,6.03,28.03,7.34,42.29,.04,.42-.45,.74-.83,.63-4.5-1.32-8.6-3.79-11.91-7.08,2.05,7.31,1.04,15.47-3,21.92,1.31-.02,2.61-.35,3.74-1.03,.65-.39,1.3,.5,.79,1.03-2.5,2.56-2.89,6.77-1.09,9.83,.43-.08,.94,.24,.77,.78-.03,.11-.06,.22-.09,.33,.04,.21-.01,.42-.13,.58-.59,3.14,.87,6.2,3.71,7.85,2.26,1.31,4.86,1.4,7.06,.34,.78-.62,1.57-1.22,2.4-1.79,.64-.44,1.27,.51,.79,1.03-.77,.84-1.69,1.53-2.7,2.03-.29,.24-.59,.47-.88,.71-8.75,7.51-13.81,18.17-18.98,28.23-1.24,2.4-2.34,4.86-3.66,7.23-1.33,2.39-2.78,4.72-4.36,6.96-2.11,2.99-4.47,5.8-7.1,8.34,.03,.01,.05,.02,.06,.03,.21,.08,.42,.14,.63,.19,.5,.11,1.02,.18,1.53,.24,.97,.13,2.05,.25,2.81,.92,.13,.11,.19,.28,.19,.45,0,0,0,.01,0,.02,.6,5.42,4.52,9.78,9.3,12.07,2.18,1.05,4.59,1.68,7.01,1.81,2.8,.15,5.54-.51,8.33-.55,2.5-.03,5,.58,6.82,2.38,1.45,1.44,2.21,3.4,2.5,5.39,.66,4.64-.9,8.95-2.4,13.25-1.59,4.57-3.4,10.63,.17,14.75,.34,.39,.18,.91-.29,1.09-7.22,2.81-13.64,7.58-18.44,13.66,5.88,1.91,11.99,3.79,18.23,3.3,4.48-.35,9.07-2.12,12.18-5.45,3.81-4.09,3.85-9.71,3.8-14.97-.11-12.11-.22-24.22-.33-36.32-3.44,.34-6.9,.42-10.35,.22-12.95-.75-25.65-5.18-36.19-12.77-.24-.17-.31-.43-.27-.67-.16-.14-.27-.35-.23-.62,.84-5.46,4.69-10.19,9.79-12.26,.55-.22,.87,.34,.75,.8,.33,.32,.65,.64,.98,.95,.06,.06,.1,.12,.13,.2,5.14,3.07,10.71,5.37,16.53,6.8,5.22,1.28,10.6,1.87,15.98,1.72,5.93-.16,11.85-.09,17.77,.13,11.47,.43,22.92,1.44,34.29,2.97-1.91-2.24-3.93-4.37-6.08-6.39-6.44-6.05-13.88-11-21.92-14.64,6.67,4.23,12.51,9.73,17.15,16.13,.3,.41-.1,.99-.56,.98-5.56-.13-11.12-.48-16.65-1.08-19.54-2.09-38.71-7.08-56.8-14.75-.18-.08-.28-.2-.32-.34-.07-.1-.12-.22-.11-.38,.28-4.45,3.72-8.46,8.11-9.35,.08-.22,.27-.38,.58-.34,8.16,.9,16.01,3.84,22.71,8.58,3.72-2.01,7.57-3.77,11.53-5.24,14.34-5.32,30-6.89,45.11-4.54,.58-2.76,.84-5.58,.76-8.4-.22-8.7-3.46-17.26-9.04-23.9,4.09,7.9,5.2,17.28,2.91,25.92Z"/>
<path class="cls-1" d="M109.94,137.8c8.77,1.98,16.51,7.57,20.78,15.52,3.98,7.42,5,16.38,2.59,24.45,1.52-.88,3.45-1.01,5.06-.29-1.53-4.06-2.22-8.39-2-12.74,.43-8.47,4.19-16.58,10.67-22.11,5.92-5.04,13.65-7.88,21.42-7.69-.09-.17-.17-.35-.24-.54-.55-1.51-.15-3.33,.87-4.57-3.89,.7-7.91,.54-11.75-.41-8.73-2.17-16.14-8.33-19.31-16.81-2.86-7.65-2.27-16.55,1.66-23.7-3.03,1.71-6.83,1.99-10.06,.67,2.83,4.25,4.35,9.29,4.54,14.4,.36,9.73-4.19,19.18-12.53,24.36-7.45,4.63-17,5.68-25.19,2.55,1.08,2.08,1.08,4.66,.02,6.75,4.45-.92,9.06-.85,13.5,.15Z"/>
<path d="M245.06,106.59c-.52-.45-1.51,.16-1.03,.79,6.29,8.3,8.57,19.3,6.07,29.41-13.59-1.71-27.57,.43-40.08,5.99-3.45,1.53-6.77,3.34-9.94,5.39-5.19-4.63-11.6-7.79-18.44-9.05-.38-1.42-.06-2.88,.82-4.01,.05-.03,.11-.06,.15-.11,.11-.14,.21-.27,.32-.41,.11-.1,.21-.21,.33-.3,.15-.12,.22-.26,.22-.4,1.14-1.45,2.28-2.91,3.42-4.36,.07-.08,.11-.18,.14-.28,.06-.07,.12-.14,.18-.22,.02,0,.04,.01,.06,.01,5.53-.02,11.06-.04,16.59-.06,.7,0,1.4,0,2.09,0,.59,0,.91,.04,1.28-.43,.69-.89,1.34-1.81,2.05-2.69,1.39-1.7,2.87-3.33,4.44-4.86,6.27-6.13,13.9-10.86,22.17-13.76,4.69-1.65,9.59-2.71,14.54-3.11,.39-.03,.61-.28,.65-.65,1.08-9.01-1.36-18.36-6.58-25.77-1.47-2.09-3.16-4.03-5.04-5.76-.5-.46-1.18,.05-1.11,.56-.13,.18-.17,.42,0,.67,4.92,7.31,6.74,16.47,4.98,25.1-9.91-1.46-18.61,4.94-25.94,10.8-7.04,5.63-14.76,11.81-24.33,10.99-4.05-.35-8.04-2.05-10.47-5.36,2.53-.32,4.94-1.29,7.28-2.25,.67-.28,1.34-.56,2.01-.83,.74-.3,.88-.45,1.13-1.23,.5-1.54,.95-3.1,1.36-4.67,1.67-6.3,2.77-12.73,4.31-19.06,.15-.62-.62-1.11-1.09-.64l-1.68,1.69c3.25-10.56,5.44-21.45,6.42-32.46,1.05-11.8,.71-23.74-1.2-35.44-1.07-6.57-2.66-13.05-4.76-19.37-.27-.8-1.43-.48-1.26,.35,2.33,11.02,1.33,22.58-2.76,33.06-6.36-8.49-9.68-19.09-9.32-29.69,.02-.72-1.16-.91-1.28-.17-2.04,12.12-.93,24.71,3.24,36.27,.94,2.61,2.04,5.16,3.28,7.64-4.92-2.83-8.86-7.21-11.12-12.43-.21-.53-.42-1.07-.64-1.6-.31-.76-1.55-.46-1.26,.35,.21,.6,.45,1.18,.71,1.77,5.02,12.71,7.75,26.18,9.43,39.72,.46,3.7,.84,7.4,1.19,11.11-4.92-1.65-9.26-4.73-12.47-8.75-.94-2.21-2.17-4.26-3.68-6.13,0,0,0,0,0,0,0,0,0,0,0,0-.04-.04-.07-.09-.1-.13-.51-.63-1.29,.17-1.03,.79,.95,2.22,2.2,4.28,3.68,6.16,2.38,5.75,2.64,12.38,.73,18.31-.69,2.15-1.69,4.17-2.94,6.05-1.96-.33-3.8-1.37-4.94-3.04-2.21-3.25-1.25-8.11,1.93-10.36,.69-.49,.1-1.49-.66-1.13-3.18,1.51-7.16-1.52-7.45-4.83,.26-.75,.41-1.55,.41-2.36,0-.6-.95-.95-1.22-.33-.34,.77-.48,1.57-.47,2.35-1.12,2.99-4.57,5.12-7.74,4.15-3.36-1.02-5.14-5.16-3.99-8.37,1.09,1.65,3.12,2.73,5.09,2.65,2.22-.08,3.98-1.66,4.53-3.78,.59-2.28-.16-4.93-2.22-6.21-.05-.03-.09-.04-.14-.05-.04-.03-.07-.07-.12-.09-2.06-1.05-4.53-.46-6.2,1.04-1.39,1.25-2.04,3.09-1.64,4.85-.94,1.14-2.37,1.64-3.78,1.57,8.03-14.23,12.45-30.42,12.82-46.75,.11-4.65-.12-9.3-.68-13.91-.1-.82-1.41-.83-1.31,0,1.95,16.21-.23,32.81-6.22,48-1.69,4.28-3.69,8.42-5.97,12.42-1.12-.37-2.1-1.13-2.64-2.25-.14-.3-.62-.43-.89-.23-3.24,2.27-7.2,3.27-11.07,3.01-.03-.08-.07-.17-.14-.25-10.3-11.79-17.52-26.18-20.92-41.45-.96-4.33-1.61-8.73-1.95-13.15-.06-.83-1.37-.84-1.31,0,1.2,15.88,6.44,31.39,15.11,44.76,2.24,3.45,4.72,6.74,7.38,9.88-.86-.15-1.71-.36-2.54-.63-1.29-1.29-2.96-2.17-4.86-2.38-.04,0-.08,0-.11,0-.97-1.27-2.4-2.17-4.04-2.31-2.59-.15-4.83,1.71-5.78,4.02-.94,2.3-.35,4.9,1.67,6.4,1.85,1.37,4.49,1.55,6.55,.59,2.24-1.04,3.25-3.45,2.85-5.81-.05-.29-.12-.58-.21-.86,1.03,.61,2.12,1.1,3.24,1.49,1.76,1.96,2.57,4.88,1.93,7.41-1.06,4.14-5.55,5.47-9.29,4.2-2.16-.73-3.98-2.34-4.63-4.56-.24-.81-1.44-.47-1.26,.35,.48,2.23,.14,4.49-.76,6.54-.02-.04-.03-.08-.06-.12-3.86-4.74-9.77-7.58-15.87-7.7-.61-3.97-1.23-7.93-1.84-11.9,2.76,.54,5.67-.3,7.71-2.28,.2-.19,.26-.56,.1-.79-8.98-13.2-12.39-29.93-9.61-45.63,.78-4.43,2.05-8.78,3.81-12.92,.22-.53-.29-1.32-.89-.89-6.79,4.76-11.32,12.36-12.37,20.54-2.64-9.6-2.66-19.84,.02-29.46,.13-.46-.32-.97-.8-.8-7.42,2.53-13.34,8.59-15.95,15.95-2.66,7.48-1.32,15.84,3.12,22.37,2.19,3.22,5.06,5.95,8.44,7.89-3.24,.88-6.47,1.75-9.71,2.63-.4,.11-.61,.6-.39,.96,6.94,11.24,11.64,23.79,13.82,36.82,.62,3.7,1.02,7.43,1.22,11.17,.04,.66,.85,.87,1.22,.33,.86-1.26,1.73-2.52,2.59-3.78,.25,5.59,1.38,11.13,3.38,16.35,.25,.66,.51,1.31,.79,1.95,.33,.76,.78,1.52,1.05,2.3,.36,1.03-.37,2.52-.92,3.38-1.33,2.13-3.79,3.54-6.33,3.24-2.84-.33-5.29-2.52-5.94-5.29-.09-.37-.39-.49-.68-.45-.02,0-.04,0-.06,0-.02,0-.03,0-.05,0-.29,.04-.54,.23-.5,.61,.42,4.63-.78,9.23-.48,13.86-2.88,.57-5.77,1.15-8.65,1.72-2.92-6.5-4.5-13.57-4.66-20.69-.08-3.61,.2-7.22,.85-10.77,.16-.84,.33-1.68,.53-2.52,.19-.79,.63-1.54,0-2.2-1.06-1.13-2.1-2.26-3.07-3.46-7.71-9.53-11.87-21.8-12.01-34.02-.08-6.93,1.15-13.84,3.72-20.28,.21-.53-.51-1.04-.96-.74-7.28,4.94-9.53,13.85-9.14,22.22,.21,4.45,1.07,8.87,2.44,13.1,1.77,5.47,4.11,10.74,6.03,16.16,1.89,5.35,3.45,10.92,3.48,16.63,.02,2.93-.47,5.76-1.13,8.6-.63,2.69-1.33,5.4-1.52,8.17-.3,4.3,1.16,8.56,4.8,11.04,2.82,1.92,6.37,2.44,9.7,2.67,3.82,.26,7.65,.1,11.47,.35,3.49,.23,7.16,.8,10.12,2.81,.56,.38,1.06,.82,1.54,1.3,0,.14,.05,.29,.17,.42,.84,.91,1.69,1.82,2.53,2.72-9.07,.04-18.09,1.8-26.51,5.19-7.07-10.09-16.42-18.53-27.19-24.51-2.93-1.63-5.97-3.06-9.08-4.31,1.39-9.69,9.04-18.05,18.54-20.37,.71-.17,.54-1.13-.04-1.26-.11-.09-.24-.15-.4-.16-.46-.03-.93-.06-1.39-.09-.14-.12-.33-.19-.56-.14-9.97,2.27-19.21,7.54-26.29,14.91-1.98,2.06-3.78,4.29-5.4,6.65-.18,.27-.07,.76,.23,.89,15.96,7,30.73,16.67,43.5,28.53,3.57,3.32,6.99,6.8,10.24,10.44,.18,.21,.56,.25,.79,.1,7.97-5.21,16.97-8.68,26.36-10.21,1.89,1.64,2.79,4.18,2.27,6.64-9.44,4-19.15,7.3-28.59,11.29-8.82-7.41-20.11-11.64-31.62-12.01-2.87-.09-5.74,.07-8.58,.46-2.95,.41-5.81,1.23-8.75,1.69-2.85,.45-6,.52-8.46-1.21-2.13-1.49-3.1-4.08-3.15-6.6-.15-6.94,5.84-11.51,10.9-15.21,.67-.49,.1-1.54-.66-1.13C5.12,139.9-.42,150.61,.02,161.07c.13,2.99,.74,5.94,1.87,8.71,.16,.4,.55,.61,.96,.39,7.71-4.16,16.51-5.98,25.25-5.62,8.73,.35,17.39,2.86,24.9,7.35,4.23,2.53,8.05,5.69,11.29,9.4,.27,.31,.84,.23,1.03-.13,4.84-9.42,14.87-15.71,25.38-16.5,2.67-.2,5.34-.04,7.96,.49,.03,.05,.04,.09,.08,.14,2.96,3.17,4.07,7.74,2.99,11.91-7.94-2.11-15.87-4.22-23.81-6.34-.45-.12-.78,.21-.83,.63-1.28,10.84-6.88,20.98-15.3,27.91-.25,.21-.25,.72,0,.92,3.86,3.16,1.99,9.08,1.19,13.2-.93,4.81-.68,9.6,1.15,14.19,1.78,4.47,4.8,8.44,8.77,11.19,4.07,2.82,9.06,4.16,13.99,4.02,5.6-.15,11.07-2.16,15.32-5.82,.54-.46-.05-1.2-.64-1.09-8.9,1.68-18.44-2.52-23.73-9.77-1.43-1.95-2.53-4.1-3.27-6.41,7.43-6.98,11.71-17.07,11.81-27.24,.03-2.59-.24-5.17-.76-7.7,8.7,2.01,17.8,1.95,26.48-.18,.31-.08,.45-.31,.46-.56,.93-.65,1.87-1.29,2.8-1.94,.05-.03,.08-.08,.12-.12,.83,.6,1.69,1.14,2.61,1.64,4.75,2.54,10.28,3.57,15.59,2.61,5.38-.97,10.55-3.87,14.84-7.17,1.06-.81,2.07-1.67,3.05-2.57,.74,.52,1.71,.63,2.58,.75,.51,.07,1.03,.13,1.53,.24,.22,.05,.42,.11,.63,.19,.02,.01,.15,.07,.18,.09,0,0,.01,0,.02,.01,.62,4.59,3.31,8.51,7.07,11.17,4.07,2.89,9.01,4.02,13.95,3.53,2.87-.28,6.07-.98,8.82,.25,2.04,.91,3.33,2.73,3.87,4.86,1.18,4.63-.55,9.28-2.07,13.6-1.72,4.89-3.38,10.97-.15,15.52-7.47,3.09-14,8.12-18.89,14.57-.27,.36,.03,.84,.39,.96,5.78,1.88,11.72,3.79,17.86,3.72,4.69-.06,9.43-1.45,13.12-4.41,1.77-1.42,3.25-3.24,4.18-5.32,1.16-2.59,1.52-5.42,1.6-8.23,.1-3.11,0-6.24-.03-9.35l-.09-9.58c-.07-7.31-.13-14.62-.2-21.93,0-.33-.3-.69-.65-.65-12.77,1.37-25.86-1-37.35-6.75-3.16-1.58-6.18-3.42-9.05-5.48,.76-4.7,3.87-8.91,8.18-10.94,.02,.02,.02,.04,.04,.06,.3,.29,.6,.58,.9,.87,.03,.16,.12,.31,.3,.42,9.16,5.54,19.74,8.62,30.45,8.87,2.83,.06,5.66-.14,8.5-.13,3.02,0,6.03,.06,9.05,.14,6.08,.17,12.16,.51,18.23,.99,6.92,.56,13.83,1.31,20.7,2.27,.65,.09,1.07-.56,.64-1.09-8.01-9.78-18.33-17.65-29.88-22.8-3.27-1.46-6.63-2.7-10.06-3.72-.83-.25-1.1,.95-.35,1.26,10.05,4.1,18.93,10.94,25.5,19.59-19.01-.57-37.92-3.87-55.99-9.8-5.15-1.69-10.22-3.59-15.21-5.7,.4-3.88,3.56-7.2,7.39-7.85,.15-.03,.26-.1,.33-.19,7.91,.94,15.49,3.91,21.96,8.55,.19,.14,.47,.11,.66,0,13.37-7.33,28.62-11.08,43.87-10.87,4.3,.06,8.59,.43,12.84,1.13,.34,.05,.72-.08,.8-.46,2.42-10.78-.05-22.46-6.42-31.46-1.81-2.55-3.91-4.88-6.28-6.92Zm-97.06-32.37c1.19-1.45,3.39-2.29,5.16-1.39,.05,.03,.1,.03,.14,.04,.04,.03,.06,.07,.11,.1,2.76,1.71,2.23,6.78-1.09,7.49-1.61,.34-3.42-.48-4.41-1.76-1.05-1.36-1-3.16,.09-4.48Zm-32.77,9.26c-1.48,.95-3.52,.98-5.08,.19-1.74-.89-2.56-2.74-2.06-4.64,.56-2.12,2.49-3.94,4.77-3.81,3.74,.32,5.73,6.11,2.37,8.26Zm-4,100.03s-.07,.06-.1,.1c-8.6,2.01-17.59,1.94-26.16-.2-.49-.12-.92,.32-.8,.8,2.29,9.73,.22,20.26-5.29,28.57-1.57,2.36-3.41,4.51-5.5,6.42-.17,.15-.23,.42-.17,.64,2.76,9.22,11.31,16.16,20.76,17.58,1.82,.27,3.64,.34,5.46,.19-7.39,5.07-17.8,5.46-25.36,.5-3.97-2.6-7.03-6.55-8.74-10.95-.86-2.22-1.41-4.56-1.56-6.93-.15-2.35,.16-4.62,.61-6.91,.84-4.26,2.32-9.97-1.13-13.42,6.49-5.52,11.29-12.95,13.69-21.13,.62-2.11,1.06-4.26,1.36-6.44,7.91,2.1,15.82,4.21,23.72,6.31,.35,.09,.7-.12,.8-.46,1.41-4.47,.41-9.47-2.52-13.09,.22-.34,.17-.87-.34-.99-10.76-2.58-22.53,1.12-30.3,8.91-1.98,1.99-3.68,4.24-5.04,6.7-5.84-6.42-13.42-11.1-21.66-13.8-8.53-2.79-17.76-3.47-26.58-1.84-4.7,.86-9.25,2.42-13.49,4.62-2.13-5.76-2-12.16-.01-17.93-.03,1.72,.29,3.43,1.05,4.98,1.17,2.4,3.45,4.03,6.04,4.57,2.91,.61,5.92,.06,8.78-.55,3.01-.64,5.98-1.27,9.06-1.5,6.16-.46,12.38,.25,18.3,2.02,6.61,1.98,12.81,5.3,18.06,9.79,.25,.21,.5,.23,.79,.1,9.64-4.1,19.57-7.45,29.21-11.55,.03,0,.05-.02,.07-.04,.26-.12,.34-.32,.32-.53,.5-2.08,.16-4.3-.95-6.14-.27-.45-.59-.88-.94-1.27-.3-.33-.79-.92-1.24-1.04-.49-.14-1.27,.15-1.76,.23-.66,.12-1.32,.24-1.97,.38-5.35,1.11-10.57,2.88-15.51,5.22-2.66,1.26-5.22,2.7-7.69,4.29-11.55-12.84-25.23-23.76-40.31-32.17-4.13-2.3-8.36-4.41-12.68-6.32,5.6-7.91,13.5-14.17,22.47-17.84,1.68-.69,3.39-1.27,5.13-1.77-5.89,2.75-10.68,7.76-13.21,13.77-.9,2.13-1.48,4.35-1.76,6.64-.04,.3,.23,.53,.48,.63,11.38,4.5,21.67,11.67,29.89,20.74,2.34,2.58,4.5,5.31,6.47,8.17,.15,.22,.46,.41,.74,.3,8.9-3.65,18.46-5.46,28.07-5.29,.59,0,.84-.71,.46-1.12-1.04-1.12-2.08-2.24-3.13-3.37,0-.16-.04-.32-.17-.46-5-5.42-13.26-5-20.01-5.11-3.49-.05-7.12-.09-10.47-1.18-3.5-1.14-6.16-3.74-6.98-7.4-.61-2.73-.14-5.58,.44-8.27,.58-2.7,1.33-5.37,1.7-8.11,.74-5.45-.09-10.95-1.59-16.21-2.84-9.99-8.1-19.26-9.65-29.6-1.2-8.03-.52-17.57,5.63-23.57,.22-.21,.46-.41,.69-.61-2.49,7.13-3.41,14.77-2.82,22.3,.65,8.25,3.05,16.37,7.09,23.6,2.22,3.98,4.96,7.66,8.12,10.94-2.39,9.37-2.24,19.34,.42,28.64,.76,2.67,1.74,5.26,2.9,7.78,.13,.27,.47,.35,.74,.3,3.24-.64,6.49-1.29,9.73-1.93,.26-.05,.5-.36,.48-.63-.34-3.79,.4-7.56,.51-11.34,.93,1.26,2.22,2.26,3.7,2.85,2.56,1.02,5.38,.57,7.55-1.11,1.04-.81,1.92-1.86,2.48-3.06,.47-1,1.07-2.57,.61-3.64-.72-1.69-1.52-3.32-2.15-5.05-.61-1.68-1.13-3.39-1.56-5.13-.98-3.95-1.48-8-1.51-12.06,0-.68-.86-.85-1.22-.33-.89,1.29-1.77,2.59-2.66,3.88-.92-12.7-4.2-25.18-9.64-36.7-1.5-3.18-3.18-6.28-5.01-9.29,3.49-.95,6.98-1.89,10.47-2.84,.51-.14,.68-.94,.16-1.19-6.81-3.3-11.75-9.85-13.27-17.24-1.51-7.32,.81-14.94,5.74-20.49,2.49-2.8,5.58-5.03,9.05-6.42-2.7,10.63-2.24,21.96,1.35,32.33,.23,.68,1.28,.59,1.28-.17,.02-8.26,3.84-16.32,10.16-21.6-5.49,14.52-5.31,31.01,.34,45.47,1.6,4.09,3.62,8,6.06,11.65-1.94,1.62-4.58,2.14-7,1.36-.52-.17-.87,.35-.8,.8l2.07,13.42c.04,.28,.37,.48,.63,.48,5.98-.04,11.73,2.7,15.5,7.33,.14,.18,.31,.23,.48,.21-2.35,4.23-7.16,7.22-12.04,6.42-.56-.09-1.2,.63-.64,1.09,4.78,3.88,1.15,13.2-5,12.81-.63-.04-.78,.71-.46,1.12,2.57,3.3,2.11,7.75-.76,10.71-1.99,2.05-4.65,2.93-7.23,2.5-1.15-.6-2.35-1.1-3.58-1.5-.75-.24-1.08,.79-.5,1.19,1.13,.8,2.38,1.33,3.67,1.58,3.83,2.08,7,5.28,9.56,8.8,3.5,4.82,5.81,10.25,8.19,15.68,2.44,5.54,4.91,11.1,8.15,16.24,2.33,3.71,5,7.24,8.39,9.96-1.06,.74-2.13,1.47-3.19,2.21Zm40.24-8.57c-.47,.45-.95,.88-1.43,1.31-1.33-4.86-4.52-15.84-5.73-20.32-.22-.81-1.48-.47-1.26,.35,1.25,4.62,4.59,16.13,5.85,20.75,.01,.06,.04,.09,.07,.14-3.43,2.83-7.26,5.17-11.43,6.73-2.84,1.06-5.77,1.55-8.69,1.46,4.07-8.1,8.48-7.49,10.04-5.98,.55,.53,1.36-.18,1.04-.76,.1-.18,.14-.39,.05-.62-3.2-7.54-3.06-16.4,.2-23.89,3.17-7.29,9.31-12.97,16.71-15.81,4.12-1.58,8.52-2.27,12.92-1.97,.64,.25,1.16-.77,.52-1.2-.18-.12-.46-.4-.57-.57-.2-.31-.26-.45-.35-.8-.08-.32-.1-.51-.09-.89,.01-.36,.04-.53,.14-.91,.17-.6,.46-1.14,.9-1.57,.41-.41,.95-.66,1.49-.68,.5-.02,.69-.49,.6-.86,.22-.45-.12-1.13-.73-.94-8.1,2.45-17.13,.64-23.9-4.36-7.14-5.27-10.75-13.99-10.2-22.76,.31-4.95,1.96-9.77,4.85-13.81,.11-.15,.13-.3,.11-.43,.33-.62-.49-1.38-1-.79-3.13,3.58-8.75,4.45-12.81,1.95-.59-.36-1.12,.33-.91,.83-.17,.18-.23,.44-.03,.71,5.55,7.52,6.55,17.87,2.98,26.46-3.55,8.56-11.71,14.21-20.79,15.45-5.03,.69-10.26,0-14.85-2.2-.19-.09-.37-.09-.53-.02-.5,.03-.92,.66-.45,1.1,2.17,2.04,2.43,5.77,.47,8.05-.24,.28-.19,.6-.02,.83,.12,.25,.38,.43,.73,.34,8.33-2.16,17.41-.52,24.59,4.18,7.27,4.76,11.95,12.65,13.1,21.23,.65,4.84,1.96,10.18-5.79,20.38-.05,.07-.07,.14-.08,.2-1.23-.13-2.45-.36-3.66-.7,0-.04,.03-.07,.03-.11,.58-7.75,1.16-21.43,1.73-29.18,.06-.84-1.24-.84-1.31,0-.57,7.66-1.14,21.1-1.71,28.9-.24-.08-.47-.16-.71-.25-2.65-1.01-5.14-2.5-7.28-4.36-2.27-1.97-4.13-4.43-5.82-6.9-.96-1.4-1.84-2.84-2.69-4.31,.08-.03,.15-.08,.22-.15,3.13-3.32,10.78-11.16,13.91-14.48,.58-.61-.35-1.54-.92-.92-3.11,3.3-10.68,11.07-13.85,14.42-1.88-3.4-3.51-6.93-5.09-10.47-.48-1.08-.96-2.19-1.45-3.29,0,0,0,0,.01,0,3.66-.96,14.46-1.93,18.12-2.89,.81-.21,.47-1.48-.35-1.26-3.66,.96-14.46,1.93-18.12,2.89-.07,.02-.13,.06-.19,.09-3.61-8.13-7.74-16.51-15.2-21.51,1.28-.14,2.55-.56,3.72-1.26,2.49-1.49,4.36-4.06,4.87-6.92,5.88,.92,17.21,1.74,22.98,2.67,.82,.13,1.18-1.13,.35-1.26-5.83-.93-17.32-1.76-23.15-2.69-.02,0-.03,0-.04,0,0-.08,0-.15,.01-.23,.01-1.71-.51-3.3-1.38-4.73,4.66-.52,7.8-5.77,7.24-10.3,6.73,4.28,19.41,11.2,25.36,15.14,.7,.47,1.36-.67,.66-1.13-6.3-4.17-20.15-11.68-26.48-15.87-.22-.57-.51-1.11-.88-1.61,5.23,.02,10.07-3.51,12.2-8.2,3.31,4.65,10.39,13.07,13.2,17.22,.47,.69,1.6,.04,1.13-.66-2.98-4.4-10.78-13.63-13.77-18.03,.3-.96,.51-1.95,.57-2.97,2.31,2.76,6.44,3.95,9.92,2.88,4.78-1.48,6.36-6.91,4.49-11.24-.18-.42-.39-.82-.62-1.2,4.79,1.07,10,.26,14.16-2.42,1.61,2.45,5.15,3.23,7.74,1.98-.49,2.7,.51,5.65,2.61,7.48,1.61,1.41,3.61,1.88,5.55,1.6-3.25,6.04-6.5,17.26-9.75,22.86-.42,.73,.71,1.39,1.13,.66,3.38-5.83,6.76-17.75,10.15-23.58,.07-.13,.09-.25,.08-.36,.96-.36,1.87-.9,2.66-1.62,.48-.43,.89-.92,1.25-1.45,.99,2.68,3.71,4.79,6.57,4.78-1.68,2.11-2.37,4.95-1.81,7.64,.05,.22,.1,.44,.17,.66-3.93,4.2-12.04,12.57-15.94,16.74-.57,.61,.35,1.54,.92,.92,3.78-4.04,11.51-12.02,15.56-16.34,1.23,2.39,3.62,4.03,6.32,4.5,.2,.17,.52,.23,.77,.1,1.05,.1,2.1,.02,3.11-.25-1.03,1.89-1.35,4.1-.99,6.21-5.82,2.31-16.78,7.44-22.34,9.61-.77,.3-.44,1.57,.35,1.26,5.55-2.17,16.47-7.27,22.3-9.59,.28,.91,.7,1.79,1.25,2.59-.59,2.82,.22,5.72,2.29,7.82,1.92,1.94,4.66,3.01,7.37,2.8-4.86,4.49-8.63,10.01-11.93,15.79-.08-.01-.17-.01-.26,.01-4.52,1.11-17.97,4.51-22.5,5.62-.82,.2-.47,1.46,.35,1.26,4.25-1.04,16.35-4.1,21.57-5.39-.98,1.78-1.93,3.57-2.86,5.36-1.23,2.38-2.39,4.79-3.59,7.19-.03-.01-.05-.03-.08-.04-3.47-1.2-14.32-2.41-17.78-3.61-.8-.28-1.14,.99-.35,1.26,3.41,1.19,13.99,2.37,17.62,3.56-1.07,2.1-2.17,4.17-3.38,6.19-2.8,4.65-6.09,9.04-10.02,12.8Zm-55.03-44.04c8.19,3.12,17.75,2.07,25.19-2.55,8.34-5.18,12.89-14.63,12.53-24.36-.19-5.1-1.71-10.14-4.54-14.4,3.23,1.32,7.03,1.03,10.06-.67-3.93,7.15-4.52,16.06-1.66,23.7,3.17,8.48,10.58,14.64,19.31,16.81,3.84,.96,7.87,1.11,11.75,.41-1.01,1.24-1.41,3.05-.87,4.57,.07,.19,.15,.37,.24,.54-7.77-.19-15.5,2.65-21.42,7.69-6.48,5.52-10.24,13.64-10.67,22.11-.22,4.34,.47,8.68,2,12.74-1.61-.72-3.54-.59-5.06,.29,2.41-8.07,1.4-17.04-2.59-24.45-4.27-7.95-12.01-13.54-20.78-15.52-4.43-1-9.05-1.07-13.5-.15,1.07-2.09,1.06-4.68-.02-6.75Zm160.18,13.16c-15.11-2.34-30.77-.77-45.11,4.54-3.96,1.47-7.82,3.22-11.53,5.24-6.71-4.74-14.55-7.68-22.71-8.58-.31-.03-.5,.13-.58,.34-4.39,.89-7.82,4.9-8.11,9.35-.01,.16,.04,.28,.11,.38,.04,.14,.14,.26,.32,.34,18.09,7.67,37.26,12.65,56.8,14.75,5.53,.59,11.09,.95,16.65,1.08,.46,.01,.86-.58,.56-.98-4.65-6.4-10.48-11.89-17.15-16.13,8.04,3.64,15.48,8.59,21.92,14.64,2.15,2.01,4.17,4.15,6.08,6.39-11.38-1.53-22.82-2.54-34.29-2.97-5.93-.22-11.85-.3-17.77-.13-5.37,.15-10.76-.44-15.98-1.72-5.82-1.43-11.39-3.73-16.53-6.8-.03-.07-.07-.14-.13-.2-.33-.32-.65-.64-.98-.95,.12-.46-.2-1.02-.75-.8-5.1,2.07-8.94,6.79-9.79,12.26-.04,.26,.07,.47,.23,.62-.04,.24,.03,.49,.27,.67,10.53,7.59,23.23,12.02,36.19,12.77,3.45,.2,6.91,.11,10.35-.22,.11,12.11,.22,24.22,.33,36.32,.05,5.26,0,10.88-3.8,14.97-3.11,3.33-7.7,5.1-12.18,5.45-6.24,.49-12.35-1.39-18.23-3.3,4.8-6.08,11.22-10.85,18.44-13.66,.47-.18,.63-.7,.29-1.09-3.57-4.12-1.76-10.18-.17-14.75,1.5-4.3,3.06-8.61,2.4-13.25-.28-1.99-1.05-3.95-2.5-5.39-1.82-1.8-4.33-2.42-6.82-2.38-2.79,.04-5.53,.7-8.33,.55-2.42-.13-4.83-.76-7.01-1.81-4.78-2.3-8.7-6.65-9.3-12.07,0,0,0-.01,0-.02,0-.17-.06-.33-.19-.45-.76-.67-1.84-.79-2.81-.92-.51-.07-1.03-.13-1.53-.24-.22-.05-.42-.11-.63-.19,0,0-.03-.02-.06-.03,2.63-2.54,4.99-5.36,7.1-8.34,1.58-2.24,3.03-4.57,4.36-6.96,1.32-2.37,2.42-4.83,3.66-7.23,5.17-10.06,10.23-20.73,18.98-28.23,.29-.25,.59-.48,.88-.71,1.02-.49,1.93-1.19,2.7-2.03,.48-.52-.15-1.46-.79-1.03-.83,.57-1.63,1.17-2.4,1.79-2.19,1.06-4.8,.96-7.06-.34-2.84-1.64-4.3-4.71-3.71-7.85,.12-.16,.18-.37,.13-.58,.03-.11,.05-.22,.09-.33,.17-.54-.34-.86-.77-.78-1.8-3.06-1.41-7.26,1.09-9.83,.51-.52-.15-1.42-.79-1.03-1.13,.68-2.43,1.01-3.74,1.03,4.04-6.44,5.04-14.61,3-21.92,3.3,3.28,7.4,5.76,11.91,7.08,.38,.11,.87-.21,.83-.63-1.31-14.26-3.19-28.55-7.34-42.29-.35-1.16-.72-2.31-1.1-3.46,2.63,3.38,6.03,6.16,9.93,8.01,.58,.28,1.22-.29,.89-.89-5.67-10.59-8.53-22.6-8.29-34.61,.02-.78,.05-1.55,.09-2.33,1.16,8.51,4.59,16.67,9.93,23.46,.34,.43,.93,.11,1.09-.29,3.45-8.32,4.92-17.37,4.37-26.33,2.2,8.57,3.49,17.37,3.92,26.21,.57,11.82-.34,23.71-2.58,35.33-1.26,6.54-2.94,13-5,19.33-.21,.63,.65,1.09,1.09,.64,.64-.65,1.29-1.3,1.93-1.95-1.66,7.26-2.93,14.63-5.24,21.72-3.19,1.31-6.49,2.96-9.98,3.17-.15,0-.26,.07-.35,.14-.38,.11-.68,.51-.41,.94,4.26,6.99,13.82,8.14,21.03,5.75,9.67-3.2,16.41-11.42,24.95-16.56,5.01-3.02,10.86-5.2,16.78-4.11,.33,.06,.72-.09,.8-.46,1.74-7.8,.65-16.09-2.96-23.18,4.73,5.61,7.7,12.66,8.37,19.98,.21,2.3,.18,4.61-.06,6.9-13.47,1.24-26.37,7.13-36.22,16.41-2.71,2.56-5.17,5.37-7.36,8.39-6.34,.02-12.67,.04-19.01,.06-.04,0-.06,.02-.1,.02-.08-.04-.16-.06-.25-.05-.16,0-.35,.06-.46,.19-.32,.4-.65,.8-.97,1.2-.06,.06-.11,.13-.14,.21-.02,.04-.02,.08-.03,.12-1.11,1.42-2.23,2.84-3.34,4.25-1.65,1.55-2.28,4.03-1.51,6.17,.07,.2,.23,.42,.46,.46,6.93,1.21,13.42,4.37,18.61,9.13,.21,.19,.54,.26,.79,.1,11.46-7.48,24.97-11.66,38.64-12.01,3.88-.1,7.77,.11,11.62,.62,.28,.04,.56-.23,.63-.48,2.29-8.64,1.18-18.02-2.91-25.92,5.58,6.64,8.82,15.2,9.04,23.9,.07,2.82-.19,5.64-.76,8.4Z"/></g></g></svg>
