<svg id="Calque_2" xmlns="http://www.w3.org/2000/svg" viewBox="0 0 327.63 331.87">
<g id="Calque_4"><g>
<path class="cls-1" d="M24.76,200.3c-3.86-4.35-9.23-8.55-15.28-7.65,1.36,1.8,2.6,3.73,2.91,6.02,.33,2.48-.59,4.82-1.6,7.03-1.18,2.57-2.3,5.03-2.42,7.91-.1,2.25,.31,4.46,1.17,6.51,1.44-2.24,2.45-5.17,5.48-5.37,1.67-.11,3.09,.93,4.45,1.75,1.21,.74,2.42,1.47,3.63,2.21,.02-.64,.04-1.27,.06-1.91,.02-.84-.07-1.79,.22-2.59,.6-1.66,2.58-1.5,4-1.74,3.03-.51,5.94-1.61,8.55-3.22-4.71-.79-8.07-5.48-11.16-8.96Z"/>
<path class="cls-1" d="M218.5,157.78c-2.74-.29-5.32-1.72-6.93-4.01-1.7-2.4-2.05-5.45-1.27-8.21-2.61,.05-5.09-1.4-6.71-3.47-1.98-2.53-2.55-5.76-2.85-8.92-2.57,1.36-5.84,1.08-8.36-.46-2.95-1.81-4.55-5.03-5.38-8.32-1.93,1.74-4.83,2.26-7.4,1.69-3.22-.72-5.67-3.09-7.73-5.61-3.21,2.3-8.03,1.79-10.76-1-.91,2.84-3.03,5.24-5.9,6.31-2.88,1.07-6.16,.56-8.7-1.09-.19,2.12-1.49,4.12-3.33,5.38-2.81,1.92-6.36,1.59-9.54,.65,.83,2.34,.61,5.02-.92,7.1-1.6,2.18-4.33,3.29-6.97,3.06,.92,2.66,.77,5.66-.63,8.16-1.37,2.44-3.74,4.09-6.41,4.73,1.36,2.04,1.67,4.73,.59,6.99-.85,1.76-2.39,2.97-4.16,3.54,.96,1.07,1.51,2.51,1.42,4.03-.13,2.2-1.47,3.95-3.2,5.17,2.24,1.01,4.03,2.96,4.53,5.46,.55,2.71-.47,5.51-2.45,7.34,3.33,1.22,6.62,2.88,8.66,5.86,1.67,2.45,2.22,5.65,1.17,8.35,2.55-.22,5.18,.65,6.99,2.5,1.88,1.92,2.68,4.69,2.32,7.31,2.79-.9,5.92-.64,8.43,.99,2.34,1.52,3.88,4,4.36,6.7,2.6-1.77,5.89-2.46,8.98-1.62,2.96,.8,5.37,2.87,6.8,5.53,3.13-2.87,7.99-3.28,11.65-1.18,2.56-4.65,8.91-6.41,13.52-3.84,1.5-5.11,6.95-8.58,12.21-7.93,.04-5.21,4.33-9.95,9.43-10.75-1.27-1.89-1.44-4.49-.53-6.63,1.26-2.97,4.2-4.54,7.24-5.24-2.17-2.24-3.35-5.38-2.93-8.54,.43-3.25,2.44-6,5.2-7.61-1.44-1.35-2.28-3.25-2.45-5.25-.22-2.55,.71-5,2.02-7.17Zm-32.37,28.02c-2.76,3.86-6.5,6.97-10.98,8.62-4.89,1.8-10.34,1.53-15.14-.44-9.77-4-17.23-14.45-16.77-25.17,.44-10.08,8.13-17.69,17.53-20.27,9.01-2.47,19.59-.53,25.76,6.9,.01,.01,.01,.03,.02,.04,.02,.03,.05,.05,.07,.07,.75,.94,1.43,1.91,2.01,2.96,4.72,8.51,3.02,19.56-2.51,27.27Z"/>
<path class="cls-1" d="M3.7,152.18c2.61,.59,5.36-.5,7.54-1.96,2.56-1.71,4.52-4.18,6.65-6.37,2.08-2.14,4.38-4.06,7.2-5.13,2.06-.78,4.26-1.07,6.44-.92-3.01-2.69-7.3-3.84-11.26-2.9-.59,.14-1.32-.29-1.27-.96,.19-2.49,.14-4.98-.16-7.45-1.22,.91-2.44,1.83-3.65,2.74-1.28,.96-2.63,2.11-4.31,2.14-1.63,.03-3.02-.99-4.31-1.86-1.25-.85-2.45-1.77-3.62-2.73-3.21,4.08,1.9,9.86,2.94,13.85,1.03,3.98,.15,8.22-2.18,11.54Z"/>
<path class="cls-1" d="M267.9,179.11c-.76-.38-.58-1.65,.24-1.83,4.86-1.05,9.88-.82,14.59,.7,.11-2.04,1.09-3.94,2.64-5.38,1.45-1.35,3.24-2.2,5.08-2.87-1.94-.84-3.9-1.68-5.76-2.66-1.39-.73-2.6-1.9-2.95-3.36-3.78,1.75-7.94,2.51-12.11,2.16-.85-.07-1.34-1.05-.71-1.71,3.61-3.79,2.9-9.68-1.18-12.62-2.09,4.37-6.61,6.63-11.03,8.26-2.55,.94-5.55,1.65-7.59,3.54-1.96,1.8-2.24,4.83-.5,6.89,.45,.53,.34,1.17-.2,1.57-2.32,1.72-1.79,5.18-.14,7.14,1.97,2.36,5.01,3.36,7.86,4.2,2.79,.83,5.71,1.62,8.09,3.37,2.01,1.47,3.28,3.48,4.04,5.77,2.2-1.21,3.79-3.54,3.93-6.07,.16-3.02-1.64-5.78-4.3-7.11Z"/>
<path class="cls-1" d="M85.39,171.22c1.31-3.94-.69-7.94-3.92-10.28-3.28-2.38-7.53-2.59-10.78-4.97-1.58-1.16-2.77-2.64-4.01-4.13-.31-.38-.36-.49-.85-.41-.4,.07-.99,.63-1.32,.86-.77,.55-1.5,1.18-2.14,1.88-1.16,1.29-2.03,2.95-1.8,4.73,.2,1.52,1.06,2.93,2.59,3.36,.95,.26,.95,1.67,0,1.93-4.41,1.21-9.02,.86-13.54,.58,.5,1.42,1.18,2.74,2.06,3.99,.46,.66-.17,1.47-.86,1.5-2.1,.09-4.12,.53-6.04,1.31,.69,.31,1.38,.62,2.07,.93,1.18,.53,2.48,.98,3.59,1.65,.84,.51,1.29,1.25,1.42,2.22,.07,.52,0,1.1,.01,1.65,2.91-1.86,6.98-2.21,9.86-.13,1.77,1.28,.68,2.75,.42,4.46-.33,2.18,.38,4.46,1.91,6.04,.71,.73,1.57,1.31,2.51,1.69,.12,.05,.94,.32,1.16,.45,.01-.05,.03-.11,.03-.21,0-.22,.04-.44,.07-.66,.26-1.89,1.09-3.69,2.56-4.95,2.96-2.55,6.95-2.53,10.54-3.47,1.98-.52,3.93-1.42,4.97-3.27,.96-1.7,1.04-3.81,.2-5.56-.51-.11-.93-.55-.72-1.19Z"/>
<path class="cls-1" d="M185.15,156.9s-.03-.02-.04-.03c-6.34-7.64-17.45-8.97-26.37-5.55-8.62,3.31-14.49,11.43-13.38,20.83,1.15,9.71,8.95,18.72,18.5,20.98,19.01,4.5,32.88-21.63,21.34-36.15-.02-.03-.04-.06-.06-.09Z"/>
<path class="cls-1" d="M142.7,322.6c-1.02-1.57-1.96-3.18-2.82-4.84-3.17-6.1-4.92-12.9-8.52-18.76-3.26,7.07-9.01,12.72-16.16,15.87,3.27,1.19,6.85,1.11,10.12-.2,.8-.32,1.32,.58,1.23,1.23-.64,4.5-1.76,8.9-3.34,13.15,3.81-1.78,7.08-4.59,9.41-8.13,.36-.54,1.09-.66,1.57-.2,2.5,2.38,5.56,5.33,9.21,5.55,.28,.02,.7,.06,.97-.09,.62-.34,.32-.7-.02-1.18-.56-.79-1.12-1.59-1.65-2.41Z"/>
<path class="cls-1" d="M309.3,139.44c3.46,3.42,8.03,5.39,12.82,5.66-.59-.87-.93-1.92-1.01-3.01-.2-2.65,1.27-5.04,2.31-7.36,2.13-4.77,2.69-10.12,1.78-15.24-1.76,3.09-4.13,5.83-6.98,7.97-.82,.61-1.7,1.15-2.75,.84-1.07-.32-1.88-1.53-2.61-2.3-1.31-1.39-2.62-2.78-3.93-4.17,0,1.49-.09,2.99-.36,4.42-.35,1.83-1.68,2.32-3.38,2.47-3.15,.29-7.71,.15-9.96,2.78,2.76,0,5.48,.72,7.84,2.16,2.46,1.5,4.21,3.77,6.24,5.77Z"/>
<path class="cls-1" d="M132.03,34.22c2.41-3.79,4.11-7.97,5.82-12.11,1.97-4.78,3.93-9.57,5.9-14.35-2.05,.48-4.04,1.19-5.92,2.15-1.17,.6-2.3,1.28-3.37,2.05-1.03,.74-1.94,1.68-3.05,2.31-.92,.53-1.97,.8-3,.41-1.09-.41-1.75-1.52-2.49-2.35-1.29-1.44-2.73-2.7-4.29-3.83,.9,3.05,2.05,6.01,3.49,8.86,.4,.8-.26,1.65-1.13,1.47-1.94-.41-3.9-.53-5.84-.41,6.49,3.17,11.61,8.93,13.89,15.81Z"/>
<path class="cls-1" d="M295.05,209c.73,1.86,2.14,3.41,4.04,4.2,2.87,1.2,6.15,.17,9.14,.21,.69,0,1.08,.63,.96,1.27-.46,2.48-.93,4.97-1.39,7.45,1.4-.74,2.74-1.59,3.97-2.6,.86-.7,1.66-1.47,2.41-2.29,.65-.71,1.22-1.59,2.07-2.09,1.88-1.09,3.11,.61,3.92,2.08,.78,1.43,1.47,2.9,2.09,4.4,1.06-1.95,1.61-4.13,1.52-6.4-.11-2.79-1.39-5.32-2.35-7.89-.96-2.54-1.52-5.18-.84-7.86,.5-1.97,1.51-3.74,2.65-5.4-5.53,1.38-10.71,3.83-15.28,7.28-3.99,3.01-7.94,6.68-12.92,7.65Z"/>
<path class="cls-1" d="M209.48,307.8c-1.21-1.48-2.4-2.95-4.02-3.97-3.91,3.32-4.71,8.55-5.78,13.29-.92,4.1-2.45,7.84-4.89,11.17,3.78-.77,6.69-3.83,9.29-6.62,.48-.52,1.2-.29,1.57,.2,2.12,2.83,4.87,5.08,8.01,6.67,0-1.42,.01-2.84,.02-4.26,0-1.18-.24-2.79,.88-3.59,.61-.43,1.37-.38,2.08-.39,.87-.02,1.74-.07,2.6-.17,1.13-.13,2.25-.36,3.35-.65-3.11-1.99-6.04-4.26-8.69-6.84-1.57-1.53-3.03-3.16-4.42-4.86Z"/>
<path class="cls-1" d="M269.83,196.68c7.58,1.52,15.63,.28,22.38-3.51,5.43-3.05,9.86-7.72,12.76-13.22,3-5.69,5.25-13.64,1.67-19.55-3.29-5.44-10.08-8.1-15.69-10.4-3.36-1.38-6.8-2.71-10.31-3.66-3.1-.84-6.54-1.29-9.38,.56-.58,.38-1.26-.03-1.47-.6-1.76-4.82-6.16-8.35-11.12-9.48-1.08-.25-7.3-1.04-7.12,.86,.13,1.32,1.88,1.89,2.86,2.35,1.09,.51,2.03,1.12,2.68,2.16,.37,.59-.1,1.59-.86,1.5-4.4-.49-8.82,.11-12.89,1.87-1.03,.45-1.98-.68-1.21-1.57,1.24-1.45,2.07-3.1,2.57-4.92-.16-.06-.31-.13-.47-.19-.17-.05-.32-.13-.44-.26-.05-.07-.1-.13-.16-.2-5.53-1.61-10.78-4.11-15.52-7.38-8.61-5.93-15.62-14.22-19.89-23.77-1.04-2.33-1.93-4.72-2.64-7.17-.4-1.39-.74-2.79-1.02-4.21-.12-.59-.15-1.23-.35-1.8-.3-.87-.78-1.01-1.63-1.21-5.3-1.28-9.84-4.76-12.34-9.62-.54-1.05,.71-1.91,1.57-1.21,1.56,1.27,3.46,2.87,5.61,2.7,.86-.07,1.77-.41,2.3-1.11,.66-.86,.45-2.02,.25-3-.65-3.29-1.47-7.55-4.98-8.94-1.56-.62-3.18-.4-4.33,.86-1.03,1.13-1.63,2.58-2.62,3.74-3.32,3.91-10.38,2.82-12.48-1.82-.2-.45-.17-1.13,.36-1.37,2.82-1.27,3.77-4.98,1.92-7.46-.35-.46-.04-1.09,.36-1.37,1.45-1.02,2.52-2.36,3.27-3.97,.18-.38,.75-.59,1.13-.46,2.1,.73,3.56,2.33,5.36,3.54,1.92,1.29,3.88,.97,4.67-1.37,.71-2.1,.43-4.58,.04-6.72-.42-2.27-1.14-4.48-2.14-6.55-3.55-7.35-10.35-13.16-18.3-15.16-8.1-2.04-16.63,.55-22.87,5.94-3.04,2.63-5.54,5.86-7.26,9.51-1.6,3.41-3.06,8.13-2.05,11.9,.44,1.63,1.64,2.85,3.4,2.47,1.43-.31,2.7-1.34,3.86-2.18,2.25-1.63,4.99-3.7,7.8-2.06,.64,.37,.66,1.36,0,1.73-3.67,2.03-2.15,7.45,2.03,7.31,.85-.03,1.34,1.12,.71,1.71-2.79,2.58-3.3,6.91-1.21,10.07,.29,.43,.1,1.13-.36,1.37-3.58,1.83-7.25-.79-9.38-3.63-2.14-2.86-4.41-7.46-8.76-6.25-4.46,1.24-6.05,6.41-7.04,10.4-.19,.77-.53,2.03,.17,2.65,.84,.73,2.4,.12,3.3-.15,2.23-.69,4.31-1.71,6.26-3,.6-.4,1.58,.12,1.5,.86-.29,3.09-1.77,5.92-4.18,7.9-1.13,.93-2.4,1.65-3.79,2.1-1.48,.48-3.53,.15-4.83,.99-1.27,.82-1.32,2.84-1.6,4.17-.28,1.3-.61,2.6-.98,3.88-.77,2.64-1.74,5.22-2.87,7.73-2.33,5.16-5.41,9.97-9.07,14.3-6.94,8.21-16.02,14.56-26.18,18.08,.83,1.16,1.65,2.31,2.48,3.47,.52,.73-.34,1.69-1.13,1.47-4.33-1.23-8.79-1.54-13.26-.98-1.04,.13-1.29-1.39-.5-1.86,1.21-.73,2.38-1.5,3.49-2.37,.56-.43,2.65-1.72,2.34-2.55-.29-.78-2.24-.85-2.85-.92-1.28-.14-2.57-.27-3.86-.3-4.45-.13-10.7,1.47-11.15,6.87-.05,.61-.6,1.18-1.27,.96-3.42-1.14-6.98-1.29-10.48-.42-.08,.05-.15,.11-.25,.14-9.14,3.07-17.42,8.56-23.76,15.84-2.9,3.33-5.39,7.28-5.38,11.84,0,4.32,2.03,8.47,4.7,11.78,5.01,6.21,12.64,10.18,20.51,11.22,1.94,.26,3.9,.33,5.85,.23,1.99-.1,3.87-.61,5.83-.84,4.19-.49,4.57,4.62,5.71,7.42,.88,2.17,2.58,2.64,4.76,2.83,2.47,.21,4.94,.35,7.42,.42,.63,.02,1.29,.09,1.92,.04,.2-.02,.97-.01,1.06-.34,.05-.16-.21-.56-.29-.71-.49-.9-1.28-1.73-1.98-2.46-1.52-1.59-3.28-2.86-5.22-3.88-1.07-.56-.28-2.03,.77-1.83,4.83,.93,9.77,.85,14.57-.23,.95-.21,1.7,.94,.97,1.67-2.67,2.67,1.21,5.82,3.41,6.94,3.07,1.56,6.12,3.01,9.02,4.89,5.28,3.43,10.08,7.52,14.81,11.66,.21,.02,.41,.09,.6,.29,.33,.35,.64,.71,.95,1.07,0,0,.02,.02,.03,.03,.02,.01,.02,.03,.04,.05,6.26,7.25,9.83,16.59,9.95,26.19,5.57,1.26,10.13,5.67,11.59,11.19,.27,1.03-.93,1.57-1.67,.97-1.68-1.36-3.62-2.35-5.72-2.89-.48-.12-2.27-.74-2.7-.31-.43,.43,.76,2.77,.97,3.31,.8,2.09,1.68,4.16,2.71,6.14,.93,1.78,2.2,3.67,4.38,3.85,3.94,.33,6.8-3.95,9.17-6.42,2.44-2.54,5.6-4.86,9.3-3.96,.68,.17,.85,.91,.6,1.47-1.99,4.39-1.9,9.53,.21,13.86,.57,1.17-.99,2.06-1.73,1.01-.79-1.12-2.66-.31-3.23,.63-1.05,1.73,.31,4.02,1.42,5.33,.53,.63,.22,1.73-.71,1.71-1.98-.04-3.91-.64-5.52-1.8-1.61-1.15-2.55-2.62-3.43-4.35-.54-1.06-1.19-2.17-2.13-.72-.61,.95-.95,2.05-1.12,3.16-.33,2.23,0,4.59,.58,6.75,1.92,7.19,7.35,12.97,13.41,17,3.45,2.29,7.29,4.36,11.35,5.28,4.04,.92,7.95,.1,11.35-2.23,3.11-2.12,5.57-5.13,7.78-8.15,2.44-3.35,5.05-6.87,6.45-10.8,.74-2.08,1.13-4.31,.7-6.5-.19-.94-.51-2.06-1.41-2.57-.85-.48-1.9-.2-2.73,.18-3.36,1.56-5.4,5.82-9.67,4.89-.5-.11-.87-.74-.7-1.23,1.11-3.19-.44-6.74-3.51-8.13-.61-.28-.61-1.15-.2-1.57,2.03-2.13,2.67-5.14,1.75-7.92-.31-.94,.75-1.46,1.45-1.1,.05-.24,.2-.46,.48-.62,2.9-1.55,5.85,.06,7.97,2.18,2.26,2.27,3.66,5.85,6.81,7.11,3.97,1.59,5.9-4.04,6.92-6.79,1.22-3.29,2-6.71,2.37-10.2-3.56,1.25-6.72,3.33-9.31,6.11-.59,.63-1.72,.14-1.71-.71,.07-3.27,1.38-6.37,3.63-8.74,1.03-1.09,2.27-2.02,3.62-2.68,1.52-.74,3.2-.85,4.73-1.51,1.78-.77,1.95-2.73,2.21-4.42,.2-1.32,.44-2.63,.75-3.92,.69-2.91,1.67-5.74,2.89-8.47,2.34-5.28,5.63-10.14,9.6-14.33,4.05-4.27,8.85-7.87,14.14-10.47,2.62-1.29,5.34-2.17,8.08-3.14,1.45-.51,3.21-1.27,3.75-2.85,.39-1.13,.17-2.43-1-2.93-.77-.32-.58-1.71,.24-1.83,3.92-.55,7.85-1.1,11.77-1.65,.81-.11,1.62,.64,1.13,1.47-1.35,2.26-4.35,3.31-5.28,5.8-1.11,2.97,3.92,4.15,5.99,4.27,5.49,.33,10.41-3.69,11.11-9.17,.09-.67,.57-1.1,1.27-.96Zm-185.44-14.62c-3.67,1.95-8.2,1.33-11.77,3.48-2.11,1.27-2.6,3.16-2.9,5.43-.27,2.05-2.4,1.55-3.81,.99-3.73-1.47-6.16-5.26-5.81-9.28,.05-.55,.13-1.11,.28-1.65,.16-.6,.59-1.08,.03-1.62-.64-.62-2.04-.84-2.89-.9-2.04-.16-4.04,.52-5.54,1.92-.47,.44-1.24,.37-1.57-.2-.44-.75-.53-1.53-.53-2.39,0-.42,.11-.98-.03-1.39-.2-.56-.67-.71-1.18-.94-2.25-1.03-4.51-2.04-6.77-3.06-.69-.31-.62-1.39,0-1.73,2.26-1.22,4.67-1.99,7.19-2.31-.8-1.4-1.41-2.89-1.82-4.47-.16-.6,.3-1.3,.96-1.27,3.96,.22,8.06,.66,12.01,.06-1.56-1.65-2.11-4.25-1.4-6.47,.54-1.69,1.63-3.15,2.93-4.34,1.09-.99,2.77-2.58,4.32-2.63,1.73-.05,2.76,2.14,3.77,3.23,1.57,1.69,3.34,2.78,5.52,3.52,3.65,1.24,7.22,2.52,9.75,5.59,2.15,2.61,3.16,6.06,2.36,9.35,.12,.08,.24,.19,.32,.37,1.9,3.92,.44,8.63-3.43,10.69Zm136.72-10.73c-2.81,1.05-4.99,3.67-5.41,6.66-.44,3.16,1.11,6.38,3.74,8.13,.86,.58,.48,1.77-.5,1.86-2.82,.28-6.15,1.37-7.54,4.07-1.07,2.09-.69,5.05,1.49,6.24,.83,.45,.5,1.96-.5,1.86-5.51-.55-10.47,4.55-9.8,10.04,.08,.66-.7,1.11-1.27,.96-5.14-1.36-10.63,2.44-11.39,7.64-.12,.82-1.17,.86-1.67,.44-3.75-3.12-10.39-1.35-12.09,3.22-.28,.76-1.06,.92-1.67,.44-3.31-2.59-8.39-1.74-10.93,1.48-.51,.65-1.44,.18-1.67-.44-2.23-6.09-10.03-7.77-14.65-3.29-.61,.59-1.72,.17-1.71-.71,.1-6.19-6.51-10.13-11.91-7.05-.7,.4-1.8-.28-1.47-1.13,.97-2.47,.59-5.4-1.31-7.34-1.9-1.94-4.8-2.42-7.3-1.5-1.02,.38-1.56-.99-.97-1.67,2.15-2.51,1.3-6.41-.71-8.74-2.26-2.61-5.63-3.89-8.83-4.94-.78-.26-1.04-1.4-.24-1.83,2.21-1.19,3.63-3.73,3.16-6.26-.47-2.49-2.71-4.46-5.21-4.7-1.15-.11-1.32-1.55-.27-1.96,1.79-.71,3.59-2.11,4-4.1,.36-1.72-.71-3.93-2.61-4.1,0,0,0,0,0-.02-.09-.01-.18,0-.27-.02-1.12-.17-.84-2.07,.27-1.96,.09,0,.17,.04,.26,.05v-.02c2.17,.33,4.53-.88,5.42-2.91,.92-2.08,.18-4.52-1.48-5.97-.69-.61-.09-1.66,.71-1.71,6.02-.34,9.41-6.94,6.36-12.08-.42-.71,.29-1.78,1.13-1.47,2.32,.87,5.08,.29,6.66-1.69,1.65-2.05,1.51-5.2-.15-7.2-.56-.68-.05-2.08,.97-1.67,2.89,1.14,6.51,2.28,9.52,.88,2.2-1.02,4.09-3.81,2.93-6.22-.46-.96,.79-2.13,1.57-1.21,2.06,2.45,5.46,3.58,8.55,2.56,2.96-.98,5.05-3.89,5.24-6.96,.06-.9,1.41-1.47,1.86-.5,1.57,3.35,6.21,4.47,9.18,2.4-.11-.15-.23-.29-.34-.44-.78-1.03,.96-2.02,1.73-1.01,.15,.2,.31,.4,.46,.6,.3,.14,.53,.43,.6,.76,1.73,2.18,3.76,4.33,6.43,5.18,2.58,.82,5.84,.18,7.16-2.38,.37-.73,1.69-.61,1.83,.24,.53,3.2,1.62,6.63,4.27,8.71,2.28,1.79,5.9,2.19,8.11,.09,.66-.63,1.64-.15,1.71,.71,.24,3.02,.49,6.26,2.14,8.89,1.42,2.26,4.14,3.91,6.82,3.11,.89-.26,1.5,.72,1.13,1.47-2.67,5.45,1.72,11.48,7.64,11,.73-.06,1.29,.91,.86,1.5-2.45,3.44-4.64,9.56,.18,12.17,.81,.44,.52,1.54-.24,1.83Zm45.56,22.61c-.91-3.6-3.06-5.96-6.48-7.37-3.16-1.31-6.62-1.81-9.67-3.4-2.52-1.31-4.92-3.51-5.5-6.41-.44-2.18,.1-4.38,1.59-5.95-1.13-1.79-1.49-4-.77-6.04,.9-2.58,3.26-4.11,5.66-5.13,5.31-2.26,12.65-3.56,14.82-9.77,.07-.21,.2-.35,.34-.46,.28-.29,.71-.43,1.17-.18,5.43,2.94,6.95,9.77,3.79,14.72,3.71,0,7.34-.91,10.63-2.71,.76-.41,1.71,.27,1.47,1.13-.61,2.2,2.45,3.2,3.96,3.89,2.01,.91,4.03,1.83,6.04,2.74,.83,.38,.51,1.59-.24,1.83-3.66,1.16-9.63,3.32-8.72,8.3,.12,.67-.45,1.53-1.23,1.23-4.01-1.52-8.28-2.05-12.51-1.53,2.14,1.93,3.42,4.82,3.16,7.74-.33,3.68-2.85,6.78-6.27,8.07-.5,.19-1.11-.21-1.23-.7Z"/>
<path class="cls-1" d="M286.08,228.38c-.6-1.91-.23-4.06-.92-5.92-4.02,2.07-8.39,3.35-12.9,3.7-3.44,.27-7.2-.07-10.2-1.9-2.55-1.56-5.33-5.04-3.08-7.95,2.15-2.79,6.86-3.06,10.05-3.31,3.98-.32,7.99,.01,11.87,.91-.1-2.13,.33-4.19,1.34-6.15,.16-.31,.4-.45,.65-.49,.11-.19,.28-.36,.56-.45,9.82-3.02,19.98-6.11,28.21-12.51,6.69-5.2,11.7-12.47,12.53-21.07,.84-8.71-2.28-17.34-8.17-23.76-2.74-2.99-5.99-5.48-9.57-7.38-3.88-2.06-8.11-3.33-12.29-4.6-4.1-1.25-8.23-2.5-12.07-4.43-1.72-.86-3.87-1.85-5.01-3.47-.35-.5-.57-1.08-.64-1.67-4.54,1.82-9.73,2.22-14.41,.72-3.9-1.25-7.48-4.83-5.1-9.08,2.28-4.08,7.76-5.8,12.12-6.06,5.08-.3,10.09,1.38,14.4,3.99,.61,.37,1.21,.76,1.8,1.17,.7,.49,1.32,1.18,2.11,.36,.58-.61,.84-1.67,.92-2.48,.19-1.96-.65-3.99-2.34-5.05-.65-.41-.64-1.31,0-1.73,3.87-2.51,6.53-6.57,7.36-11.06-2.43,1.73-5.18,2.94-8.06,3.8-6.76,2-13.97,2.26-20.58,4.79-7.5,2.88-12.25,9.4-13.58,17.23-.15,.91-1.18,.88-1.67,.33-.22,.23-.53,.37-.93,.25-7.31-2.19-13.36-7.21-18.46-12.73-4.62-5.02-8.54-10.69-11.56-16.81-.72-1.46-1.39-2.95-2.02-4.45-.56-1.34-1.52-3.02-1.37-4.51,.16-1.54,1.6-2.34,2.77-3.09,1.22-.78,2.43-1.57,3.6-2.42,2.67-1.94,5.19-4.24,6.72-7.2,1.5-2.91,1.72-6.25,2.12-9.45,.38-2.99,.88-6.07,2.56-8.64,1.36-2.1,3.35-3.67,5.65-4.58-1.22-.92-2.7-1.43-4.28-1.44-.98,0-1.97,.17-2.87,.57-.97,.43-1.73,1.19-2.66,1.69-2.26,1.21-3.65-.33-5.46-1.53-1.25-.83-2.56-1.51-3.93-2.07,3.38,4.85,5.89,10.53,5.44,16.51-.45,5.95-3.75,11.65-9.39,13.98-.4,.16-.93-.11-1.13-.46-3.09-5.42-3.17-12.21-.28-17.7-2.22-.27-4.16-1.03-5.49-3.14-1.57-2.49-1.63-5.54-2.93-8.13-.33,.04-.67-.09-.86-.5-2.2-4.73-3.23-9.9-5.73-14.5-2.08-3.83-4.84-7.27-8.09-10.17-6.01-5.38-13.73-8.78-21.81-9.25-8.27-.49-16.65,1.85-23.4,6.67-7.12,5.08-11.84,12.85-14.74,20.97-.71,1.99-1.33,4.02-1.85,6.06-.54,2.08-.88,4.22-1.5,6.28-.95,3.21-3.27,6.41-6.67,6.64,1.23,4.18,2.19,8.77,.32,12.87-.72,1.58-2.01,3.19-3.92,3.15-1.98-.04-3.51-1.77-4.63-3.22-2.21-2.86-3.45-6.38-3.7-9.98-.26-3.71,.62-7.51,2.61-10.67,1.94-3.07,4.68-5.45,7.5-7.67-1.63-.19-3.35,.69-4.82,1.35-2.04,.93-3.91,1.42-6.15,1.01-2.38-.43-4.6-.74-7-.24-1.76,.36-3.39,1.05-4.89,1.98,4.83,5.66,5.39,13.4,6.94,20.43,.84,3.83,2.05,7.77,4.68,10.78,2.44,2.8,6.66,6.6,10.46,6.21,.24-.02,.42,.04,.57,.14,.38,.18,.61,.57,.4,1.08-1.5,3.64-3.3,7.14-5.44,10.45-7.52,11.65-18.66,20.78-31.58,25.79-.71,.28-1.45-.55-1.23-1.23,1.09-3.34,1.15-7.24-.62-10.36-1.88-3.33-5.46-4.33-9.04-4.74-4.22-.48-8.49-.53-12.69-1.22-6.7-1.1-12.93-4.26-17.79-8.96-.33,4.14,1.67,8.33,5.23,10.59,.46,.29,.64,.89,.36,1.37-1.34,2.31-1.95,4.91-1.78,7.53,2.99-2.88,6.81-4.85,10.87-5.71,4.15-.88,8.58-.68,12.56,.85,4.03,1.55,8.06,4.5,8.55,9.1,.23,2.14-.44,4.38-2.07,5.84-1.65,1.48-3.87,2.04-6.02,2.33-5.36,.71-10.72-.29-15.96-1.42-.53,4.37-4.81,7.01-8.76,8.26-2.4,.76-4.84,1.31-7.21,2.17-2.28,.83-4.49,1.85-6.6,3.04-7.66,4.3-14.12,11.01-16.93,19.45-2.83,8.48-1.99,18.07,3.35,25.39,4.91,6.73,12.73,10.72,20.4,13.44,2.01,.71,4.04,1.35,6.09,1.95,2.06,.6,4.18,1.06,6.17,1.89,2.99,1.24,5.96,4.05,5.82,7.37,3.55-.95,7.28-1.21,10.92-.61,3.7,.61,7.28,2.24,9.95,4.92,1.39,1.4,2.65,3.26,2.51,5.32-.11,1.7-1.22,3.07-2.63,3.93-3.62,2.21-8.73,1.81-12.7,1.04-4.35-.84-8.47-2.54-12.51-4.32,.11,1.66,.7,3.23,1.83,4.53,.38,.44,.42,1.28-.2,1.57-6.36,2.95-10.67,9.31-11.16,16.24,2.9-2.05,6-3.78,9.32-5.11,3.65-1.46,7.41-2.25,11.27-2.9,3.74-.63,7.49-1.33,10.79-3.3,5.73-3.41,9.62-9.66,10.06-16.32,.05-.8,.8-1.19,1.5-.86,6.92,3.25,13.32,7.54,18.97,12.68,4.97,4.52,9.36,9.7,13,15.36,.95,1.48,1.85,2.99,2.69,4.53,.66,1.21,1.96,2.94,1.63,4.39-.35,1.56-2.38,2.51-3.56,3.37-1.7,1.25-3.39,2.49-5.09,3.74-2.81,2.07-5.93,4.15-7.61,7.31-1.79,3.37-1.36,7.38-1.43,11.06-.07,3.44-.63,6.83-2.69,9.67-1.38,1.9-3.18,3.4-5.27,4.41,1.92,1.08,4.02,1.86,6.25,1.75,2.49-.12,4.82-1.47,5.83-3.79,.26-.6,1.16-.62,1.57-.2,2.4,2.45,5.31,4.19,8.54,5.16-3.87-5.67-7.64-11.92-7.66-18.93-.02-6.19,2.97-12.58,8.94-14.99,.43-.17,.89,.13,1.13,.46,3.88,5.35,4.04,12.94,.52,18.49,3.08,1.15,5.7,3.23,7.55,5.96,.11,.08,.21,.18,.29,.32,2.74,4.8,5.48,9.6,8.22,14.39,2.17,3.8,4.38,7.6,6.99,11.13,2.29,3.1,4.95,6.02,8.1,8.26,3.45,2.45,7.38,3.94,11.54,4.65,4.31,.73,8.74,.63,13.08,.21,4.32-.42,8.76-1.18,12.5-3.53,7.29-4.57,10.38-13.23,12.79-21.04,2-6.51,4.19-17.65,12.57-18.36-.2-.11-.38-.27-.48-.54-2.67-7.08-2.4-14.92,.58-21.85,.26-.62,1.15-.6,1.57-.2,4.56,4.36,6.52,10.78,6.22,16.99-.28,5.93-2.51,11.51-5.4,16.64,3.12-1.63,6.42-2.78,10.07-2.34,3.96,.47,7.63,2.28,11.53,2.94-4.28-5.45-4.8-12.83-6.3-19.45-1.54-6.79-5.07-12.63-9.84-17.65-1.21-1.28-2.57-2.41-3.79-3.67-.89-.92-1.46-1.99-1.28-3.29,.22-1.59,1.23-3.13,1.99-4.52,.75-1.36,1.54-2.69,2.39-3.99,6.81-10.45,16.69-18.84,28.15-23.78,.83-.36,1.61,.22,1.47,1.13-.64,4.1,1.41,8.1,4.34,10.85,5.8,5.47,14.51,5.99,21.93,7.42,3.95,.76,7.81,1.83,11.36,3.76,2.92,1.58,5.57,3.6,8.16,5.67,.11-4.69-2.46-9.1-5.4-12.63-1.54-1.84-3.66-3.46-4.4-5.82Zm-29.43-19.65c-2.75-.33-7.35-1.78-7.39-5.2-.03-2.89,2.28-4.25,4.15-5.95-2.38,.33-4.75,.67-7.13,1,.83,1.59,.5,3.83-.62,5.23-2.13,2.66-6.16,3.13-9.15,4.35-11.39,4.63-20.68,13.97-25.69,25.15-1.25,2.79-2.21,5.71-2.88,8.69-.6,2.67-.4,6.46-2.7,8.35-1.21,.99-2.75,1.16-4.2,1.57-1.49,.42-2.87,1.2-4.03,2.22-1.62,1.43-2.79,3.29-3.38,5.33,2.75-2.34,5.97-4.06,9.47-5.05,.59-.17,1.31,.31,1.27,.96-.31,4.23-1.18,8.39-2.68,12.36-1.14,3.01-2.6,7.18-6.07,8.14-3.39,.93-6.23-1.82-8.13-4.26-1.75-2.25-4.8-7.28-8.33-5.39-.31,.17-.61,.15-.86,.03,.76,2.88,.16,5.93-1.58,8.3,2.8,1.83,4.3,5.35,3.69,8.64,2.21-.21,3.97-2.62,5.64-3.84,1.74-1.27,4.2-2.28,6.24-1.1,2.01,1.16,2.51,3.79,2.57,5.92,.07,2.59-.71,5.12-1.79,7.45-1.91,4.14-4.75,8-7.58,11.57-2.56,3.22-5.58,6.32-9.38,8.04-8.53,3.86-18.13-1.33-24.88-6.58-6.46-5.03-11.74-12.24-12.26-20.65-.14-2.2,.13-4.49,1.17-6.46,.85-1.61,2.52-3.13,4.33-1.85,1.56,1.1,1.89,3.27,3.13,4.65,.97,1.07,2.2,1.83,3.56,2.23-1.09-2.05-1.55-4.52,.13-6.36,.91-1,2.24-1.52,3.5-1.45-1.28-3.94-1.19-8.16,.24-12.08-3.74-.08-6.51,4.05-8.85,6.46-2.3,2.37-5.62,4.83-9.13,3.95-3.67-.92-5.25-5.06-6.6-8.17-.84-1.93-1.77-3.95-2.3-6-.4-1.56,.39-2.8,2.02-2.98,1.68-.19,3.6,.43,5.15,1.05,.65,.26,1.26,.56,1.86,.89-1.93-3.64-5.46-6.29-9.59-7.07-.55-.1-.74-.53-.7-.95-.14-.16-.24-.36-.24-.63-.07-9.18-3.45-18.14-9.44-25.08-5.98-5.26-12.01-10.56-18.95-14.54-1.67-.96-3.4-1.8-5.14-2.62-1.53-.73-3.1-1.54-4.27-2.8-1.4-1.49-2.12-3.7-1.62-5.62-2.99,.49-6.02,.62-9.03,.4,.95,.77,1.85,1.61,2.66,2.54,1.13,1.3,3.41,4.03,1.46,5.64-.95,.78-2.43,.53-3.56,.51-1.6-.04-3.19-.1-4.79-.2-2.44-.15-5.6,.04-7.73-1.38-1.58-1.05-2.26-2.85-2.77-4.6-.31-1.05-.55-2.15-1.06-3.14-.64-1.26-1.41-1.53-2.76-1.26-4.29,.87-8.62,.98-12.94,.23-8.67-1.51-17.01-6.46-21.88-13.89-2.49-3.8-4.04-8.39-3.41-12.97,.65-4.76,3.6-8.77,6.77-12.21,6.35-6.9,14.44-12.09,23.3-15.14,.11-.1,.24-.19,.42-.24,3.53-.92,7.19-.9,10.69,.06,.6-2.48,2.29-4.5,4.53-5.82,3.07-1.82,6.77-1.95,10.23-1.68,2.08,.17,6.71,.11,6.93,3.1,.12,1.59-1.28,2.63-2.38,3.52-.44,.35-.89,.68-1.34,1.01,2.52-.05,5.04,.19,7.52,.69-.57-.8-1.14-1.6-1.71-2.4-.39-.55,.03-1.29,.6-1.47,5.82-1.85,11.28-4.67,16.21-8.27,8.82-6.44,15.91-15.43,19.99-25.57,1.02-2.53,1.86-5.13,2.5-7.78,.55-2.27,.59-5.45,2.84-6.79,1.31-.78,2.86-.63,4.3-.93,1.18-.24,2.28-.72,3.28-1.39,1.76-1.17,3.12-2.93,3.8-4.93-1.4,.77-2.86,1.42-4.39,1.92-1.68,.55-3.82,1.17-5.37-.01-1.35-1.03-1.4-2.75-1.09-4.28,.38-1.88,1.01-3.79,1.76-5.56,1.4-3.31,3.94-6.38,7.68-6.95,3.57-.54,6.17,1.82,8.13,4.5,1.64,2.24,4.35,6.81,7.71,6.09-1.56-3.19-1.2-7.13,.85-10.01-1.94-.59-3.58-2.13-4.07-4.17-.44-1.83,.1-3.73,1.27-5.14-1.05,.19-2.08,.93-2.93,1.53-1.59,1.12-3.13,2.44-5,3.06-1.85,.61-3.88,.18-5.15-1.35-1.48-1.79-1.63-4.36-1.44-6.57,.77-9.06,6.34-17.25,13.96-22.04,7.82-4.91,17.37-5.7,25.78-1.85,8.17,3.74,14.69,11.4,16.74,20.18,.82,3.52,1.72,9.37-1.72,11.86-3.76,2.71-6.72-1.75-9.85-3.34-.71,1.26-1.64,2.35-2.75,3.27,1.63,2.98,.6,7.08-2.22,8.97,1.76,2.43,5.59,3.24,8.05,1.31,1.35-1.06,2-2.8,3.06-4.11,1.08-1.34,2.58-2.19,4.33-2.2,3.74-.01,6.33,3.03,7.51,6.28,.68,1.88,1.2,3.99,1.38,5.98,.15,1.7-.45,3.3-1.91,4.26-1.8,1.18-3.65,1.07-5.4,.39,.99,1.03,2.1,1.95,3.34,2.7,1.32,.8,2.74,1.42,4.23,1.82,1.32,.36,2.69,.52,3.41,1.85,.61,1.12,.64,2.56,.92,3.79,.26,1.17,.56,2.34,.9,3.49,.73,2.45,1.63,4.85,2.71,7.17,2.21,4.72,5.08,9.13,8.51,13.04,6.8,7.76,15.68,13.62,25.62,16.46,.3,.09,.5,.27,.6,.49l.42,.17c.17,.05,.32,.13,.44,.26,.05,.06,.09,.12,.14,.18,.48,.13,.9,.58,.76,1.21-.3,1.36-.79,2.63-1.44,3.83,2.47-.75,5.02-1.16,7.6-1.18-.63-.27-1.26-.55-1.77-.95-1.04-.84-1.91-2.23-1.63-3.61,.6-3,5.73-2.66,7.97-2.36,5.92,.77,11.22,4.6,13.68,10.02,3.14-1.52,6.81-1.07,10.11-.15,4.35,1.21,8.6,2.91,12.74,4.72,5.98,2.61,12.73,5.86,15.29,12.32,2.66,6.71,.02,14.9-3.46,20.82-7.24,12.34-21.56,18.82-35.58,16.46-1.37,6.25-7.14,10.75-13.71,9.96Z"/>
<path class="cls-1" d="M212.22,14.68c-2.17,.11-4.31,.79-6.38,1.46-.71,.23-1.47-.52-1.23-1.23,1.22-3.64,2.44-7.28,3.67-10.91-3.18,2.82-5.98,6.05-8.75,9.26-.45,.52-1.23,.29-1.57-.2-2.15-3.1-5.51-5.14-9.19-5.73,2.38,8.06,4.98,16.42,10.64,22.8,2.86-6.19,7.25-11.53,12.81-15.44Z"/><g>
<path d="M294.11,149.18c-4.13-1.8-8.39-3.51-12.74-4.72-3.31-.92-6.97-1.37-10.11,.15-2.46-5.41-7.76-9.24-13.68-10.02-2.24-.29-7.37-.63-7.97,2.36-.28,1.38,.59,2.78,1.63,3.61,.51,.41,1.14,.68,1.77,.95-2.58,.03-5.13,.43-7.6,1.18,.65-1.19,1.15-2.47,1.44-3.83,.14-.63-.28-1.08-.76-1.21-.05-.06-.09-.12-.14-.18-.12-.12-.27-.21-.44-.26l-.42-.17c-.11-.22-.3-.4-.6-.49-9.94-2.84-18.82-8.7-25.62-16.46-3.43-3.92-6.31-8.32-8.51-13.04-1.08-2.32-1.99-4.71-2.71-7.17-.34-1.15-.64-2.32-.9-3.49-.27-1.23-.31-2.67-.92-3.79-.72-1.33-2.08-1.49-3.41-1.85-1.49-.4-2.91-1.02-4.23-1.82-1.24-.76-2.35-1.67-3.34-2.7,1.75,.68,3.6,.79,5.4-.39,1.46-.95,2.06-2.55,1.91-4.26-.17-1.99-.69-4.11-1.38-5.98-1.18-3.25-3.77-6.29-7.51-6.28-1.75,0-3.25,.85-4.33,2.2-1.06,1.31-1.71,3.06-3.06,4.11-2.46,1.92-6.29,1.12-8.05-1.31,2.82-1.89,3.85-5.99,2.22-8.97,1.11-.92,2.04-2.01,2.75-3.27,3.13,1.59,6.1,6.06,9.85,3.34,3.45-2.49,2.55-8.34,1.72-11.86-2.05-8.79-8.56-16.45-16.74-20.18-8.42-3.85-17.97-3.06-25.78,1.85-7.62,4.79-13.2,12.97-13.96,22.04-.19,2.21-.04,4.78,1.44,6.57,1.27,1.54,3.3,1.96,5.15,1.35,1.87-.61,3.41-1.94,5-3.06,.85-.6,1.88-1.33,2.93-1.53-1.17,1.41-1.71,3.31-1.27,5.14,.49,2.04,2.13,3.58,4.07,4.17-2.05,2.88-2.4,6.82-.85,10.01-3.35,.72-6.07-3.84-7.71-6.09-1.96-2.68-4.56-5.05-8.13-4.5-3.74,.57-6.29,3.65-7.68,6.95-.75,1.77-1.38,3.68-1.76,5.56-.31,1.53-.26,3.26,1.09,4.28,1.56,1.18,3.69,.56,5.37,.01,1.52-.5,2.99-1.15,4.39-1.92-.68,2-2.04,3.76-3.8,4.93-1,.66-2.1,1.15-3.28,1.39-1.44,.29-2.99,.15-4.3,.93-2.25,1.34-2.29,4.52-2.84,6.79-.64,2.65-1.48,5.25-2.5,7.78-4.08,10.14-11.17,19.13-19.99,25.57-4.93,3.6-10.39,6.41-16.21,8.27-.56,.18-.99,.92-.6,1.47,.57,.8,1.14,1.6,1.71,2.4-2.48-.5-5-.74-7.52-.69,.45-.33,.91-.66,1.34-1.01,1.1-.89,2.5-1.93,2.38-3.52-.22-2.99-4.85-2.94-6.93-3.1-3.46-.28-7.16-.14-10.23,1.68-2.23,1.32-3.92,3.34-4.53,5.82-3.5-.96-7.16-.98-10.69-.06-.18,.05-.31,.13-.42,.24-8.86,3.05-16.95,8.24-23.3,15.14-3.17,3.45-6.12,7.45-6.77,12.21-.62,4.57,.92,9.17,3.41,12.97,4.87,7.43,13.21,12.37,21.88,13.89,4.32,.75,8.64,.64,12.94-.23,1.35-.27,2.12,0,2.76,1.26,.5,.98,.75,2.08,1.06,3.14,.51,1.75,1.19,3.54,2.77,4.6,2.13,1.42,5.29,1.23,7.73,1.38,1.6,.09,3.19,.16,4.79,.2,1.13,.03,2.61,.28,3.56-.51,1.95-1.61-.34-4.33-1.46-5.64-.8-.93-1.7-1.77-2.66-2.54,3.01,.23,6.04,.1,9.03-.4-.5,1.93,.22,4.13,1.62,5.62,1.17,1.26,2.74,2.07,4.27,2.8,1.74,.82,3.46,1.66,5.14,2.62,6.93,3.98,12.97,9.28,18.95,14.54,5.99,6.94,9.37,15.89,9.44,25.08,0,.27,.1,.47,.24,.63-.04,.43,.15,.85,.7,.95,4.13,.78,7.67,3.43,9.59,7.07-.6-.33-1.22-.64-1.86-.89-1.54-.61-3.46-1.23-5.15-1.05-1.63,.18-2.42,1.42-2.02,2.98,.53,2.04,1.46,4.06,2.3,6,1.35,3.11,2.93,7.25,6.6,8.17,3.51,.88,6.82-1.58,9.13-3.95,2.34-2.41,5.1-6.55,8.85-6.46-1.43,3.92-1.52,8.14-.24,12.08-1.26-.07-2.59,.45-3.5,1.45-1.68,1.85-1.22,4.31-.13,6.36-1.35-.4-2.59-1.16-3.56-2.23-1.24-1.38-1.58-3.55-3.13-4.65-1.81-1.27-3.48,.24-4.33,1.85-1.04,1.97-1.31,4.26-1.17,6.46,.53,8.41,5.8,15.61,12.26,20.65,6.74,5.25,16.34,10.45,24.88,6.58,3.8-1.72,6.82-4.82,9.38-8.04,2.83-3.56,5.67-7.42,7.58-11.57,1.07-2.33,1.86-4.86,1.79-7.45-.06-2.13-.57-4.76-2.57-5.92-2.05-1.18-4.51-.17-6.24,1.1-1.67,1.22-3.43,3.63-5.64,3.84,.6-3.29-.89-6.81-3.69-8.64,1.74-2.38,2.34-5.42,1.58-8.3,.25,.11,.55,.13,.86-.03,3.53-1.88,6.58,3.14,8.33,5.39,1.89,2.45,4.74,5.2,8.13,4.26,3.47-.96,4.94-5.13,6.07-8.14,1.5-3.97,2.37-8.13,2.68-12.36,.05-.65-.68-1.13-1.27-.96-3.5,.99-6.72,2.72-9.47,5.05,.59-2.04,1.76-3.9,3.38-5.33,1.16-1.03,2.54-1.8,4.03-2.22,1.45-.41,2.99-.58,4.2-1.57,2.3-1.89,2.1-5.68,2.7-8.35,.67-2.98,1.63-5.9,2.88-8.69,5.01-11.17,14.3-20.52,25.69-25.15,2.99-1.22,7.02-1.69,9.15-4.35,1.12-1.4,1.45-3.63,.62-5.23,2.38-.33,4.75-.67,7.13-1-1.87,1.7-4.19,3.06-4.15,5.95,.04,3.42,4.65,4.87,7.39,5.2,6.56,.8,12.34-3.71,13.71-9.96,14.02,2.36,28.34-4.12,35.58-16.46,3.48-5.93,6.12-14.12,3.46-20.82-2.56-6.45-9.31-9.71-15.29-12.32Zm10.86,30.77c-2.9,5.5-7.33,10.16-12.76,13.22-6.74,3.79-14.8,5.03-22.38,3.51-.7-.14-1.18,.29-1.27,.96-.71,5.48-5.62,9.5-11.11,9.17-2.07-.12-7.1-1.3-5.99-4.27,.93-2.49,3.93-3.54,5.28-5.8,.49-.83-.32-1.58-1.13-1.47-3.92,.55-7.85,1.1-11.77,1.65-.82,.11-1,1.5-.24,1.83,1.17,.49,1.39,1.8,1,2.93-.55,1.57-2.3,2.33-3.75,2.85-2.74,.97-5.46,1.85-8.08,3.14-5.28,2.59-10.09,6.2-14.14,10.47-3.97,4.19-7.26,9.05-9.6,14.33-1.21,2.73-2.2,5.56-2.89,8.47-.31,1.3-.55,2.61-.75,3.92-.26,1.69-.43,3.66-2.21,4.42-1.53,.66-3.21,.76-4.73,1.51-1.35,.66-2.59,1.6-3.62,2.68-2.24,2.37-3.56,5.47-3.63,8.74-.02,.85,1.12,1.34,1.71,.71,2.59-2.78,5.75-4.86,9.31-6.11-.38,3.48-1.15,6.91-2.37,10.2-1.02,2.75-2.95,8.38-6.92,6.79-3.14-1.26-4.54-4.85-6.81-7.11-2.11-2.12-5.06-3.72-7.97-2.18-.29,.15-.43,.38-.48,.62-.69-.36-1.76,.16-1.45,1.1,.92,2.78,.29,5.8-1.75,7.92-.41,.42-.41,1.3,.2,1.57,3.07,1.39,4.62,4.94,3.51,8.13-.17,.49,.2,1.12,.7,1.23,4.27,.93,6.31-3.33,9.67-4.89,.83-.39,1.88-.66,2.73-.18,.9,.51,1.22,1.62,1.41,2.57,.43,2.19,.04,4.43-.7,6.5-1.41,3.93-4.01,7.45-6.45,10.8-2.2,3.02-4.67,6.02-7.78,8.15-3.4,2.32-7.31,3.15-11.35,2.23-4.06-.92-7.91-2.99-11.35-5.28-6.07-4.04-11.49-9.81-13.41-17-.58-2.17-.92-4.52-.58-6.75,.17-1.11,.51-2.21,1.12-3.16,.93-1.46,1.59-.35,2.13,.72,.88,1.73,1.82,3.2,3.43,4.35,1.62,1.16,3.54,1.76,5.52,1.8,.93,.02,1.24-1.08,.71-1.71-1.11-1.31-2.47-3.61-1.42-5.33,.57-.95,2.44-1.76,3.23-.63,.74,1.05,2.3,.16,1.73-1.01-2.12-4.32-2.21-9.47-.21-13.86,.26-.56,.08-1.3-.6-1.47-3.7-.91-6.86,1.42-9.3,3.96-2.38,2.47-5.23,6.75-9.17,6.42-2.19-.18-3.46-2.07-4.38-3.85-1.03-1.98-1.92-4.05-2.71-6.14-.2-.54-1.4-2.87-.97-3.31,.42-.43,2.21,.19,2.7,.31,2.09,.54,4.04,1.52,5.72,2.89,.74,.6,1.94,.06,1.67-.97-1.46-5.53-6.02-9.94-11.59-11.19-.12-9.6-3.69-18.93-9.95-26.19-.02-.02-.02-.03-.04-.05,0,0-.02-.02-.03-.03-.31-.36-.62-.72-.95-1.07-.18-.2-.39-.27-.6-.29-4.73-4.14-9.53-8.24-14.81-11.66-2.9-1.88-5.95-3.33-9.02-4.89-2.2-1.12-6.08-4.27-3.41-6.94,.73-.73-.02-1.89-.97-1.67-4.8,1.08-9.74,1.16-14.57,.23-1.05-.2-1.84,1.27-.77,1.83,1.94,1.01,3.7,2.29,5.22,3.88,.7,.74,1.49,1.56,1.98,2.46,.08,.14,.34,.55,.29,.71-.1,.33-.87,.33-1.06,.34-.63,.05-1.29-.02-1.92-.04-2.48-.07-4.95-.21-7.42-.42-2.18-.19-3.88-.66-4.76-2.83-1.13-2.8-1.51-7.91-5.71-7.42-1.96,.23-3.84,.73-5.83,.84-1.95,.1-3.92,.03-5.85-.23-7.87-1.04-15.49-5.01-20.51-11.22-2.67-3.31-4.69-7.46-4.7-11.78-.01-4.56,2.47-8.51,5.38-11.84,6.34-7.28,14.62-12.77,23.76-15.84,.1-.03,.17-.09,.25-.14,3.49-.87,7.06-.72,10.48,.42,.66,.22,1.21-.36,1.27-.96,.45-5.4,6.7-7,11.15-6.87,1.29,.04,2.58,.16,3.86,.3,.61,.07,2.56,.14,2.85,.92,.31,.83-1.78,2.12-2.34,2.55-1.11,.86-2.29,1.64-3.49,2.37-.78,.47-.53,2,.5,1.86,4.46-.57,8.92-.25,13.26,.98,.79,.22,1.65-.74,1.13-1.47-.83-1.16-1.65-2.31-2.48-3.47,10.16-3.52,19.24-9.87,26.18-18.08,3.65-4.33,6.74-9.13,9.07-14.3,1.13-2.51,2.1-5.09,2.87-7.73,.37-1.28,.7-2.57,.98-3.88,.29-1.33,.33-3.36,1.6-4.17,1.31-.84,3.35-.51,4.83-.99,1.39-.45,2.66-1.17,3.79-2.1,2.4-1.98,3.88-4.81,4.18-7.9,.07-.75-.91-1.26-1.5-.86-1.95,1.28-4.03,2.31-6.26,3-.9,.28-2.47,.88-3.3,.15-.71-.62-.37-1.88-.17-2.65,.99-3.99,2.58-9.16,7.04-10.4,4.35-1.21,6.62,3.39,8.76,6.25,2.13,2.84,5.8,5.46,9.38,3.63,.46-.24,.64-.94,.36-1.37-2.09-3.17-1.58-7.49,1.21-10.07,.63-.58,.15-1.74-.71-1.71-4.18,.14-5.7-5.28-2.03-7.31,.66-.36,.64-1.36,0-1.73-2.81-1.64-5.55,.43-7.8,2.06-1.16,.84-2.43,1.87-3.86,2.18-1.77,.38-2.97-.83-3.4-2.47-1.01-3.77,.44-8.48,2.05-11.9,1.71-3.64,4.21-6.88,7.26-9.51,6.24-5.39,14.77-7.98,22.87-5.94,7.95,2,14.75,7.81,18.3,15.16,1,2.07,1.72,4.28,2.14,6.55,.39,2.14,.68,4.62-.04,6.72-.79,2.35-2.75,2.66-4.67,1.37-1.81-1.21-3.26-2.81-5.36-3.54-.38-.13-.95,.08-1.13,.46-.75,1.6-1.82,2.95-3.27,3.97-.4,.28-.7,.91-.36,1.37,1.85,2.47,.9,6.19-1.92,7.46-.53,.24-.56,.92-.36,1.37,2.1,4.64,9.16,5.73,12.48,1.82,.99-1.16,1.59-2.61,2.62-3.74,1.15-1.27,2.78-1.48,4.33-.86,3.51,1.39,4.33,5.66,4.98,8.94,.19,.98,.41,2.15-.25,3-.54,.7-1.44,1.04-2.3,1.11-2.15,.18-4.05-1.43-5.61-2.7-.86-.7-2.11,.16-1.57,1.21,2.5,4.86,7.04,8.34,12.34,9.62,.85,.2,1.33,.34,1.63,1.21,.19,.56,.23,1.21,.35,1.8,.28,1.42,.62,2.82,1.02,4.21,.71,2.45,1.6,4.84,2.64,7.17,4.27,9.55,11.28,17.84,19.89,23.77,4.74,3.27,9.99,5.77,15.52,7.38,.05,.07,.1,.13,.16,.2,.12,.12,.27,.21,.44,.26,.16,.06,.31,.13,.47,.19-.5,1.82-1.33,3.47-2.57,4.92-.77,.89,.18,2.02,1.21,1.57,4.07-1.76,8.5-2.36,12.89-1.87,.76,.09,1.24-.91,.86-1.5-.65-1.04-1.59-1.65-2.68-2.16-.98-.46-2.74-1.02-2.86-2.35-.19-1.9,6.04-1.1,7.12-.86,4.95,1.13,9.35,4.66,11.12,9.48,.21,.57,.89,.98,1.47,.6,2.83-1.85,6.27-1.4,9.38-.56,3.51,.95,6.95,2.28,10.31,3.66,5.61,2.3,12.4,4.97,15.69,10.4,3.58,5.91,1.33,13.86-1.67,19.55Z"/>
<path d="M221.35,169.5c-4.82-2.61-2.62-8.74-.18-12.17,.43-.6-.14-1.56-.86-1.5-5.92,.48-10.31-5.55-7.64-11,.37-.75-.24-1.73-1.13-1.47-2.69,.79-5.41-.86-6.82-3.11-1.65-2.63-1.91-5.87-2.14-8.89-.07-.85-1.05-1.33-1.71-.71-2.21,2.1-5.83,1.7-8.11-.09-2.65-2.08-3.74-5.51-4.27-8.71-.14-.85-1.45-.97-1.83-.24-1.31,2.56-4.57,3.2-7.16,2.38-2.67-.84-4.7-2.99-6.43-5.18-.07-.33-.3-.62-.6-.76-.15-.2-.31-.4-.46-.6-.77-1.01-2.51-.02-1.73,1.01,.11,.15,.22,.29,.34,.44-2.97,2.07-7.61,.95-9.18-2.4-.45-.97-1.81-.4-1.86,.5-.19,3.07-2.29,5.98-5.24,6.96-3.09,1.02-6.48-.11-8.55-2.56-.78-.92-2.03,.25-1.57,1.21,1.15,2.41-.74,5.2-2.93,6.22-3.01,1.4-6.62,.27-9.52-.88-1.03-.41-1.53,.99-.97,1.67,1.66,2,1.8,5.15,.15,7.2-1.59,1.98-4.34,2.56-6.66,1.69-.84-.31-1.55,.76-1.13,1.47,3.05,5.14-.35,11.74-6.36,12.08-.8,.04-1.4,1.1-.71,1.71,1.66,1.45,2.4,3.89,1.48,5.97-.9,2.03-3.25,3.24-5.42,2.91v.02c-.09-.01-.17-.04-.27-.05-1.11-.1-1.38,1.79-.27,1.96,.09,.01,.18,.01,.27,.02,0,0,0,.01,0,.02,1.9,.17,2.97,2.38,2.61,4.1-.41,1.98-2.21,3.39-4,4.1-1.06,.42-.89,1.85,.27,1.96,2.5,.25,4.74,2.21,5.21,4.7,.47,2.53-.95,5.07-3.16,6.26-.8,.43-.54,1.57,.24,1.83,3.19,1.05,6.56,2.33,8.83,4.94,2.01,2.33,2.87,6.23,.71,8.74-.59,.69-.05,2.05,.97,1.67,2.5-.92,5.4-.44,7.3,1.5,1.9,1.94,2.28,4.87,1.31,7.34-.33,.85,.77,1.53,1.47,1.13,5.39-3.08,12.01,.86,11.91,7.05-.01,.88,1.1,1.3,1.71,.71,4.62-4.48,12.42-2.8,14.65,3.29,.23,.62,1.16,1.09,1.67,.44,2.55-3.22,7.62-4.07,10.93-1.48,.61,.48,1.39,.31,1.67-.44,1.7-4.57,8.34-6.34,12.09-3.22,.5,.42,1.55,.38,1.67-.44,.75-5.2,6.25-9,11.39-7.64,.56,.15,1.35-.3,1.27-.96-.67-5.49,4.29-10.59,9.8-10.04,1,.1,1.34-1.41,.5-1.86-2.18-1.18-2.57-4.15-1.49-6.24,1.39-2.7,4.72-3.8,7.54-4.07,.98-.1,1.37-1.29,.5-1.86-2.63-1.75-4.18-4.97-3.74-8.13,.42-2.99,2.6-5.6,5.41-6.66,.76-.28,1.05-1.39,.24-1.83Zm-7.62,8.31c-.42,3.17,.76,6.3,2.93,8.54-3.03,.7-5.97,2.27-7.24,5.24-.91,2.14-.74,4.74,.53,6.63-5.1,.8-9.39,5.54-9.43,10.75-5.26-.65-10.71,2.82-12.21,7.93-4.61-2.58-10.96-.81-13.52,3.84-3.66-2.1-8.52-1.69-11.65,1.18-1.42-2.66-3.83-4.73-6.8-5.53-3.09-.83-6.38-.15-8.98,1.62-.48-2.71-2.02-5.18-4.36-6.7-2.5-1.63-5.64-1.88-8.43-.99,.36-2.62-.44-5.39-2.32-7.31-1.81-1.86-4.44-2.72-6.99-2.5,1.05-2.71,.5-5.91-1.17-8.35-2.04-2.98-5.33-4.64-8.66-5.86,1.98-1.84,3-4.63,2.45-7.34-.51-2.5-2.29-4.46-4.53-5.46,1.73-1.22,3.07-2.96,3.2-5.17,.09-1.51-.46-2.96-1.42-4.03,1.77-.57,3.31-1.78,4.16-3.54,1.09-2.26,.77-4.95-.59-6.99,2.66-.65,5.04-2.29,6.41-4.73,1.41-2.5,1.56-5.5,.63-8.16,2.65,.23,5.37-.88,6.97-3.06,1.53-2.08,1.75-4.76,.92-7.1,3.18,.94,6.73,1.26,9.54-.65,1.84-1.26,3.14-3.25,3.33-5.38,2.54,1.65,5.82,2.16,8.7,1.09,2.87-1.07,4.99-3.47,5.9-6.31,2.73,2.79,7.55,3.3,10.76,1,2.06,2.52,4.51,4.89,7.73,5.61,2.56,.57,5.46,.05,7.4-1.69,.84,3.29,2.44,6.51,5.38,8.32,2.51,1.54,5.79,1.83,8.36,.46,.3,3.15,.87,6.38,2.85,8.92,1.62,2.08,4.11,3.52,6.71,3.47-.78,2.76-.43,5.81,1.27,8.21,1.61,2.28,4.19,3.71,6.93,4.01-1.31,2.17-2.24,4.62-2.02,7.17,.17,2,1.01,3.91,2.45,5.25-2.77,1.61-4.77,4.36-5.2,7.61Z"/>
<path d="M186.62,155.57s-.05-.05-.07-.07c-.01-.01-.01-.03-.02-.04-6.16-7.43-16.75-9.37-25.76-6.9-9.4,2.58-17.09,10.19-17.53,20.27-.46,10.72,7,21.16,16.77,25.17,4.8,1.97,10.25,2.24,15.14,.44,4.48-1.65,8.22-4.76,10.98-8.62,5.52-7.71,7.22-18.76,2.51-27.27-.58-1.05-1.27-2.02-2.01-2.96Zm-22.76,37.56c-9.55-2.26-17.35-11.27-18.5-20.98-1.11-9.4,4.76-17.52,13.38-20.83,8.92-3.42,20.03-2.09,26.37,5.55,.01,.02,.03,.02,.04,.03,.02,.03,.03,.06,.06,.09,11.54,14.52-2.33,40.64-21.34,36.15Z"/>
<path d="M293.71,169c-2.01-.91-4.03-1.83-6.04-2.74-1.51-.69-4.57-1.69-3.96-3.89,.24-.86-.71-1.54-1.47-1.13-3.29,1.8-6.92,2.7-10.63,2.71,3.15-4.96,1.64-11.78-3.79-14.72-.46-.25-.88-.11-1.17,.18-.14,.11-.27,.25-.34,.46-2.16,6.21-9.51,7.51-14.82,9.77-2.4,1.02-4.76,2.55-5.66,5.13-.71,2.05-.36,4.26,.77,6.04-1.49,1.57-2.03,3.77-1.59,5.95,.58,2.9,2.98,5.09,5.5,6.41,3.06,1.59,6.51,2.09,9.67,3.4,3.42,1.41,5.58,3.77,6.48,7.37,.12,.49,.73,.89,1.23,.7,3.42-1.29,5.94-4.39,6.27-8.07,.26-2.92-1.02-5.81-3.16-7.74,4.23-.52,8.5,.01,12.51,1.53,.78,.3,1.35-.56,1.23-1.23-.91-4.99,5.06-7.14,8.72-8.3,.74-.24,1.07-1.45,.24-1.83Zm-8.34,3.61c-1.54,1.43-2.52,3.34-2.64,5.38-4.72-1.52-9.73-1.76-14.59-.7-.82,.18-1,1.45-.24,1.83,2.66,1.32,4.46,4.09,4.3,7.11-.13,2.53-1.72,4.87-3.93,6.07-.76-2.3-2.04-4.3-4.04-5.77-2.39-1.75-5.3-2.54-8.09-3.37-2.85-.84-5.88-1.84-7.86-4.2-1.64-1.97-2.18-5.42,.14-7.14,.55-.41,.65-1.04,.2-1.57-1.74-2.06-1.46-5.09,.5-6.89,2.05-1.89,5.05-2.6,7.59-3.54,4.42-1.63,8.94-3.89,11.03-8.26,4.08,2.94,4.79,8.84,1.18,12.62-.63,.66-.14,1.64,.71,1.71,4.18,.35,8.33-.42,12.11-2.16,.35,1.45,1.55,2.62,2.95,3.36,1.86,.98,3.81,1.82,5.76,2.66-1.85,.68-3.63,1.53-5.08,2.87Z"/>
<path d="M87.5,171.01c.8-3.29-.21-6.74-2.36-9.35-2.54-3.08-6.1-4.36-9.75-5.59-2.18-.74-3.95-1.83-5.52-3.52-1.01-1.09-2.04-3.29-3.77-3.23-1.55,.05-3.24,1.64-4.32,2.63-1.3,1.19-2.39,2.65-2.93,4.34-.71,2.21-.16,4.82,1.4,6.47-3.95,.59-8.04,.16-12.01-.06-.66-.04-1.12,.67-.96,1.27,.41,1.57,1.02,3.07,1.82,4.47-2.52,.32-4.94,1.09-7.19,2.31-.62,.33-.69,1.42,0,1.73,2.26,1.02,4.52,2.03,6.77,3.06,.5,.23,.98,.39,1.18,.94,.14,.41,.03,.96,.03,1.39,0,.86,.09,1.63,.53,2.39,.33,.57,1.1,.64,1.57,.2,1.49-1.4,3.5-2.07,5.54-1.92,.85,.06,2.25,.28,2.89,.9,.55,.53,.13,1.01-.03,1.62-.15,.54-.23,1.09-.28,1.65-.35,4.02,2.08,7.81,5.81,9.28,1.41,.55,3.54,1.06,3.81-.99,.3-2.27,.79-4.16,2.9-5.43,3.57-2.15,8.09-1.53,11.77-3.48,3.87-2.05,5.33-6.77,3.43-10.69-.08-.17-.2-.28-.32-.37Zm-1.59,6.96c-1.05,1.85-2.99,2.75-4.97,3.27-3.59,.95-7.58,.93-10.54,3.47-1.46,1.26-2.3,3.06-2.56,4.95-.03,.22-.06,.44-.07,.66,0,.1-.02,.17-.03,.21-.22-.12-1.04-.4-1.16-.45-.95-.38-1.8-.96-2.51-1.69-1.54-1.57-2.25-3.86-1.91-6.04,.26-1.71,1.36-3.18-.42-4.46-2.88-2.07-6.95-1.73-9.86,.13-.01-.55,.06-1.13-.01-1.65-.13-.96-.58-1.71-1.42-2.22-1.1-.67-2.41-1.12-3.59-1.65-.69-.31-1.38-.62-2.07-.93,1.92-.78,3.94-1.22,6.04-1.31,.7-.03,1.32-.85,.86-1.5-.88-1.25-1.56-2.57-2.06-3.99,4.52,.28,9.13,.64,13.54-.58,.95-.26,.95-1.66,0-1.93-1.53-.42-2.39-1.84-2.59-3.36-.23-1.78,.63-3.44,1.8-4.73,.64-.71,1.37-1.33,2.14-1.88,.33-.24,.92-.8,1.32-.86,.49-.08,.54,.03,.85,.41,1.24,1.49,2.43,2.98,4.01,4.13,3.25,2.38,7.5,2.59,10.78,4.97,3.23,2.34,5.23,6.33,3.92,10.28-.21,.64,.21,1.08,.72,1.19,.84,1.75,.76,3.87-.2,5.56Z"/>
<path d="M325.31,191.57c-4.31,.79-8.48,2.24-12.36,4.26,5.28-4.01,9.55-9.11,11.83-15.87,2.8-8.3,1.69-17.68-2.55-25.29-1.96-3.51-4.53-6.63-7.54-9.27,3.23,1.36,6.77,1.96,10.29,1.66,1.09-.09,1.4-1.63,.27-1.96-2.55-.76-2.34-3.99-1.63-5.96,.9-2.49,2.24-4.74,2.96-7.3,1.43-5.06,1.39-10.47-.04-15.52-.22-.76-1.46-1.06-1.83-.24-1.53,3.43-3.75,6.48-6.6,8.93-.38,.33-.78,.7-1.21,.97-.58,.36-.76,.36-1.29,.02-.86-.56-1.62-1.72-2.34-2.48-1.56-1.65-3.12-3.3-4.67-4.95-.59-.62-1.74-.15-1.71,.71,.04,1.14,.04,2.29-.01,3.43-.04,.91,.1,2.51-.32,3.36-.46,.96-2.33,.73-3.26,.79-1.03,.07-2.05,.14-3.07,.29-3.32,.48-6.52,2.02-7.82,5.29-.44,1.09,1.13,1.6,1.77,.78,.16,.17,.39,.29,.7,.28,3.07-.06,6.1,.88,8.5,2.82,1.52,1.23,2.79,2.72,4.14,4.12-.98-.53-1.99-1.02-3.01-1.46-4.55-1.96-9.36-3.18-14.06-4.72-2.38-.77-4.73-1.63-6.98-2.72-1.11-.54-6.6-2.98-4.71-4.73,.86-.79-.23-2.08-1.21-1.57-4.49,2.36-9.93,3.04-14.81,1.54-1.97-.6-4.52-1.95-4.59-4.3-.07-2.34,2.25-4.09,4.09-5.08,4.49-2.43,9.89-2.37,14.64-.79,2.5,.83,4.84,2.08,7.01,3.55,.81,.55,1.63,1.35,2.65,1.45,1.02,.1,1.79-.57,2.37-1.32,2.22-2.87,1.68-7.13-.81-9.6,4.46-3.39,7.23-8.63,7.47-14.27,.04-.91-1.1-1.26-1.71-.71-5.4,4.96-13.03,5.87-19.95,7.15-7.11,1.32-14.42,3.23-19.27,9-2.76,3.28-4.54,7.27-5.35,11.46-.08-.06-.17-.12-.28-.15-6.18-1.85-11.35-5.87-15.83-10.39-4.49-4.53-8.33-9.67-11.43-15.25-1.53-2.75-2.87-5.59-4.01-8.52-.29-.74-.96-1.84-.49-2.62,.31-.51,1.11-.84,1.6-1.15,1.33-.85,2.65-1.72,3.92-2.66,2.22-1.64,4.3-3.48,5.92-5.73,1.67-2.33,2.55-5,3-7.8,.52-3.23,.58-6.58,1.65-9.7,1.16-3.4,3.81-5.89,7.31-6.74,.79-.19,.9-1.12,.44-1.67-2.6-3.12-7.32-4.05-10.95-2.23-.95,.48-1.86,1.58-2.91,1.79-1,.2-2.39-1.32-3.18-1.84-2.23-1.45-4.68-2.51-7.24-3.21-1.04-.28-1.57,.94-.97,1.67,3.88,4.81,7.15,10.76,6.93,17.12-.17,4.94-2.71,10.14-7.25,12.41-2.56-5.15-2.21-11.41,.93-16.26,.43-.66-.14-1.48-.86-1.5-1.28-.04-2.7-.04-3.84-.7-1.14-.66-1.84-1.84-2.31-3.03-.92-2.36-1.14-4.91-2.43-7.14-.2-.35-.51-.47-.82-.47-1.86-4.16-2.84-8.66-4.86-12.76-.35-.71-.74-1.4-1.13-2.08,.19-.13,.36-.32,.45-.55,2.98-7.26,8.35-13.39,15.09-17.38,.71-.42,.62-1.64-.24-1.83-2.85-.63-5.62-.11-8.35,.69,1.38-4.12,2.77-8.24,4.15-12.36,.26-.78-.77-1.66-1.47-1.13-4.13,3.12-7.59,6.93-10.96,10.82-3-3.64-7.47-5.83-12.24-5.85-1.29,0-1.29,1.99,0,2,.02,0,.03,0,.05,0,0,.07,0,.14,.02,.22,1.56,5.28,3.21,10.69,5.66,15.65-5.12-4.62-11.45-7.95-18.23-9.28-8.06-1.58-16.55-.46-23.97,3.05-4.43,2.1-8.28,5.07-11.52,8.64,.32-.77,.64-1.54,.96-2.31,2.25-5.47,4.5-10.95,6.75-16.42,.32-.78-.58-1.34-1.23-1.23-4.77,.79-9.25,2.8-13.02,5.82-.8,.64-2.16,2.13-3.25,1.37-.9-.63-1.61-1.88-2.39-2.67-1.78-1.8-3.8-3.34-5.97-4.63-.77-.46-1.67,.3-1.47,1.13,.84,3.49,2.05,6.86,3.55,10.11-2.72-.34-5.45-.23-8.13,.36-.09-.03-.17-.06-.26-.09-.53-.16-.92,.11-1.1,.5-.73,.58-.19,2.03,.9,1.75,.12-.03,.24-.05,.36-.08,8.07,2.67,14.39,9.54,16.38,17.81,.05,.19,.14,.34,.26,.45-1.56,3.41-2.79,6.97-3.75,10.59-.64,2.41-.99,4.92-1.79,7.28-.8,2.36-2.8,5.1-5.65,4.54-.71-.14-1.47,.45-1.23,1.23,1.27,4.12,2.99,9.54,.47,13.55-2.77,4.41-6.95-4.58-7.54-6.83-.98-3.7-.71-7.81,.99-11.27,1.99-4.04,5.64-6.92,9.13-9.61,.6-.46,.68-1.28,0-1.73-1.83-1.2-4.08-.97-6.04-.22-1.17,.44-2.26,1.07-3.44,1.5-1.51,.55-2.84,.47-4.39,.16-4.74-.97-9.61-.07-13.55,2.79-.52,.38-.69,1.07-.2,1.57,6.05,6.19,5.71,15.57,7.97,23.39,1.86,6.45,7.44,15.14,14.78,15.56-5.18,11.73-14.03,21.77-24.95,28.49-2.68,1.65-5.47,3.08-8.36,4.3,1.1-5.67-.71-12.08-6.45-14.44-3.85-1.58-8.35-1.49-12.44-1.81-4.27-.33-8.48-.94-12.47-2.59-4.25-1.75-8.05-4.47-11.16-7.85-.51-.55-1.49-.27-1.67,.44-1.34,5.26,.74,10.93,5.06,14.14-1.59,3.16-2.04,6.7-1.31,10.19,.15,.71,1.19,1,1.67,.44,4.78-5.61,12.63-8.25,19.85-6.74,3.57,.75,7.69,2.55,9.46,5.95,.92,1.77,1.07,4.14-.15,5.82-1.22,1.68-3.45,2.21-5.4,2.48-5.54,.78-11.11-.45-16.5-1.62-.61-.13-1.29,.28-1.27,.96,.2,5.08-5.41,7.05-9.4,8.14-2.25,.62-4.47,1.33-6.62,2.18-3.21-4.1-8.42-6.21-13.55-5.49,.13-2.79-.04-5.56-.49-8.32-.1-.6-.98-.96-1.47-.6-1.26,.95-2.52,1.89-3.78,2.84-1.17,.88-2.5,2.23-3.93,2.63-1.44,.4-2.89-.86-4-1.62-1.38-.95-2.7-1.97-3.98-3.06-.66-.56-1.51-.1-1.69,.52-3.42,3.82-1,8.83,.92,12.72,1.15,2.34,1.87,4.72,1.63,7.35-.23,2.5-1.26,4.88-2.91,6.77-.38,.43-.43,1.29,.2,1.57,5.81,2.53,11.36-1.52,15.22-5.59,2.17-2.28,4.25-4.77,6.99-6.39,2.23-1.31,4.77-1.89,7.31-1.78-.65,.32-1.29,.64-1.92,1-7.4,4.11-13.75,10.38-17.07,18.25-3.34,7.91-3.63,17.18,.01,25.04,1.46,3.14,3.52,5.87,5.95,8.24-3.3-1.65-6.99-2.35-10.71-1.24-.98,.29-.84,1.55-.12,1.88,.02,.03,.03,.06,.05,.08,1.7,2.18,3.49,4.59,3.15,7.52-.31,2.65-1.87,5.01-2.85,7.44-1.9,4.73-1.52,10.09,.89,14.56,.3,.55,1.14,.67,1.57,.2,.92-1,1.52-2.16,2.18-3.33,.65-1.15,1.65-2.73,3.17-2.67,1.33,.05,2.79,1.32,3.88,1.99,1.42,.87,2.85,1.73,4.27,2.6,.67,.41,1.48-.12,1.5-.86,.03-1.07,.06-2.13,.09-3.2,.02-.7-.28-2.15,.46-2.55,.57-.31,1.87-.24,2.51-.35,.88-.16,1.76-.37,2.62-.62,3.37-1,6.45-2.68,9.18-4.9,.82-.67-.08-1.89-.97-1.67-3.36,.82-6.42-1.22-8.65-3.54-1.88-1.96-3.52-4.12-5.39-6.09,1.47,.9,3,1.72,4.54,2.45,4.21,2,8.64,3.52,13.12,4.81,2.38,.68,4.92,1.16,7.09,2.39,2,1.14,3.63,3.28,3.11,5.59-.83,.5-.5,1.86,.4,1.86,.37,.1,.81,.02,1.1-.29,5.82-1.82,12.6-1.81,17.83,1.61,2.55,1.67,6.39,5.73,2.41,8.04-3.19,1.85-7.79,1.41-11.24,.72-4.63-.93-8.99-2.82-13.28-4.72-.73-.33-1.42,.07-1.5,.86-.26,2.3,.34,4.52,1.59,6.4-6.99,3.73-11.49,11.49-11.2,19.43,.03,.94,1.04,1.23,1.71,.71,3.27-2.54,6.92-4.63,10.79-6.1,3.83-1.46,7.77-2.16,11.79-2.85,3.78-.65,7.5-1.59,10.76-3.69,2.8-1.81,5.18-4.24,6.97-7.05,1.75-2.76,2.87-5.86,3.3-9.09,11.08,5.48,20.76,13.67,27.93,23.75,1.89,2.65,3.6,5.43,5.13,8.3,.25,.47,.9,1.36,.92,1.89,.03,.73-1.49,1.46-2.01,1.85-1.7,1.25-3.39,2.49-5.09,3.74-2.57,1.88-5.32,3.71-7.36,6.18-2.15,2.61-3.01,5.66-3.19,9-.21,3.79,.38,7.81-1.04,11.43-1.29,3.28-4.11,5.81-7.46,6.85-.85,.27-.95,1.35-.24,1.83,2.81,1.91,6.18,3.43,9.66,3.02,2.47-.29,4.86-1.55,6.24-3.61,3.09,2.8,6.9,4.69,11.03,5.39,.77,.13,1.68-.68,1.13-1.47-3.91-5.63-8.39-11.89-8.79-18.98-.3-5.27,1.82-11.36,6.81-13.78,3.23,5.11,2.98,11.9-.7,16.76-.4,.53,.04,1.31,.6,1.47,3.37,.94,6.22,3.07,8.07,6.05,.03,.04,.06,.06,.09,.1,1.51,2.64,3.02,5.28,4.53,7.93-.09,.1-.16,.21-.22,.35-2.89,7.46-8.88,13.59-16.28,16.64-.4,.16-.6,.49-.65,.84-.97-.09-1.65,1.31-.63,1.83,3.63,1.85,7.81,2.28,11.69,1.17-.79,4.63-2.08,9.14-3.87,13.49-.29,.7,.56,1.47,1.23,1.23,4.81-1.7,8.93-4.79,11.93-8.9,2.66,2.47,5.67,4.88,9.37,5.3,1.43,.16,3.41-.22,3.81-1.86,.24-.99-.34-1.79-.87-2.55-.65-.92-1.28-1.84-1.88-2.79-2.14-3.38-3.8-6.96-5.32-10.64,.27,.41,.53,.82,.81,1.23,4.47,6.53,10.14,12.24,17.84,14.7,4.11,1.31,8.48,1.71,12.78,1.64,4.4-.08,8.99-.46,13.23-1.71,7.4-2.18,12.36-7.95,15.53-14.7-.29,1.07-.54,2.16-.77,3.23-.56,2.57-1.1,5.16-2.15,7.57-1.02,2.35-2.43,4.51-4.13,6.43-.58,.66-.18,1.67,.71,1.71,5.05,.22,8.88-3.13,12.15-6.58,2.54,3.07,5.72,5.51,9.42,7.07,.67,.29,1.5-.03,1.5-.86,0-1.45,.01-2.91,.02-4.36,0-.81,0-1.62,0-2.42,0-.18-.09-.77,.02-.91,.16-.21,.95-.1,1.17-.1,2.86-.07,5.68-.6,8.39-1.52,.8-.27,1.01-1.38,.24-1.83-3.94-2.3-7.58-5.08-10.8-8.32-1.54-1.54-2.93-3.2-4.31-4.87-1.31-1.59-2.71-3.08-4.56-4.03-.58-.3-1.12,0-1.37,.44-.12,.04-.24,.1-.36,.19-1.22,1.02-2.17,2.22-2.94,3.54,1.26-3.65,2.28-7.38,3.5-11.05,1.48-4.43,3.97-10.25,9.51-10.19,1.25,.01,1.28-1.85,.1-1.98,.34-.19,.56-.56,.37-1.05-2.3-6.1-2.39-12.88-.14-18.99,3.51,4.04,4.9,9.53,4.56,14.84-.42,6.71-3.53,12.94-7.07,18.52-.54,.85,.53,1.88,1.37,1.37,4.16-2.52,8.34-4.77,13.35-3.82,4.41,.84,8.5,2.95,13.06,3.02,.85,.01,1.34-1.12,.71-1.71-5.03-4.68-5.84-11.81-7.08-18.2-1.26-6.51-3.74-12.23-7.86-17.44-1.97-2.48-4.21-4.64-6.49-6.82-.6-.57-1.12-1.09-.98-1.99,.12-.79,.63-1.58,1-2.28,.71-1.38,1.47-2.73,2.29-4.05,3.08-5,6.88-9.53,11.24-13.46,4.59-4.15,9.8-7.57,15.41-10.17-.09,6.74,5.13,12.26,11.15,14.88,7.76,3.38,16.5,3.03,24.36,6.07,4.66,1.8,8.61,4.96,12.47,8.06,.52,.42,1.54,.38,1.67-.44,.89-5.4-1.34-10.46-4.55-14.71-.78-1.02-1.6-2.01-2.47-2.96-.99-1.08-2.16-2.08-2.63-3.51-.8-2.41-.14-4.99-1.53-7.26-.29-.47-.89-.63-1.37-.36-4.02,2.23-8.48,3.62-13.08,3.95-3.6,.25-7.87-.14-10.52-2.89-.7-.73-1.54-1.81-1.36-2.89,.14-.84,.83-1.39,1.53-1.79,1.74-1,4.01-1.25,5.97-1.48,4.73-.56,9.51-.19,14.11,1.04,.79,.21,1.35-.5,1.23-1.23-.36-2.13-.01-4.26,.98-6.18,0,0,0,0,0-.01,0,0,0,0,.01,0,7.35-2.26,15.38-4.87,22.46-8.74-3.66,2.84-7.38,6.29-11.99,7.05-.36-.62-1.31-.44-1.67,.18-1.24,.07-1.24,2.02,.04,1.99,.05,0,.11,0,.16-.01,.77,2.37,2.48,4.42,4.72,5.53,2.98,1.49,6.15,.81,9.32,.67l-1.53,8.18c-.17,.91,.66,1.48,1.47,1.13,3.13-1.35,6-3.31,8.35-5.79,.52-.55,.98-1.34,1.59-1.79,.54-.4,.71-.19,1.1,.29,.27,.33,.45,.79,.65,1.17,.94,1.76,1.75,3.58,2.43,5.45,.31,.86,1.3,.94,1.83,.24,1.61-2.13,2.56-4.64,2.81-7.29,.27-2.77-.46-5.37-1.46-7.93-.99-2.51-2.24-5.14-1.96-7.92,.31-3.08,2.35-5.73,4.14-8.14,.58-.77-.37-1.61-1.13-1.47Zm-22.25-57.91c-2.36-1.44-5.09-2.16-7.84-2.16,2.25-2.63,6.81-2.49,9.96-2.78,1.69-.16,3.02-.64,3.38-2.47,.28-1.43,.35-2.93,.36-4.42,1.31,1.39,2.62,2.78,3.93,4.17,.73,.78,1.54,1.98,2.61,2.3,1.05,.31,1.93-.22,2.75-.84,2.85-2.14,5.21-4.88,6.98-7.97,.91,5.12,.35,10.47-1.78,15.24-1.04,2.32-2.51,4.71-2.31,7.36,.08,1.09,.43,2.14,1.01,3.01-4.79-.27-9.37-2.24-12.82-5.66-2.02-2-3.78-4.27-6.24-5.77Zm-277.98,5.06c-2.82,1.07-5.12,2.99-7.2,5.13-2.13,2.19-4.09,4.66-6.65,6.37-2.18,1.46-4.93,2.55-7.54,1.96,2.33-3.32,3.22-7.56,2.18-11.54-1.03-3.99-6.15-9.78-2.94-13.85,1.17,.96,2.37,1.89,3.62,2.73,1.29,.87,2.68,1.89,4.31,1.86,1.68-.03,3.04-1.19,4.31-2.14,1.22-.91,2.44-1.83,3.65-2.74,.3,2.47,.35,4.96,.16,7.45-.05,.67,.68,1.1,1.27,.96,3.97-.95,8.26,.21,11.26,2.9-2.18-.15-4.38,.14-6.44,.92Zm180.38,165.11c1.61,1.01,2.81,2.49,4.02,3.97,1.39,1.7,2.85,3.33,4.42,4.86,2.65,2.57,5.57,4.85,8.69,6.84-1.1,.29-2.22,.51-3.35,.65-.86,.1-1.73,.15-2.6,.17-.71,.02-1.47-.04-2.08,.39-1.11,.79-.87,2.41-.88,3.59l-.02,4.26c-3.14-1.59-5.89-3.83-8.01-6.67-.37-.49-1.09-.72-1.57-.2-2.59,2.78-5.5,5.85-9.29,6.62,2.44-3.33,3.96-7.08,4.89-11.17,1.07-4.74,1.86-9.97,5.78-13.29ZM197.96,13.06c.34,.49,1.12,.73,1.57,.2,2.77-3.21,5.57-6.44,8.75-9.26-1.22,3.64-2.44,7.28-3.67,10.91-.24,.71,.52,1.46,1.23,1.23,2.07-.67,4.21-1.35,6.38-1.46-5.56,3.91-9.96,9.26-12.81,15.44-5.66-6.38-8.26-14.75-10.64-22.8,3.68,.6,7.04,2.63,9.19,5.73Zm-79.81,5.35c1.95-.13,3.9,0,5.84,.41,.87,.18,1.53-.67,1.13-1.47-1.44-2.85-2.59-5.81-3.49-8.86,1.55,1.12,3,2.39,4.29,3.83,.75,.83,1.4,1.94,2.49,2.35,1.03,.39,2.08,.12,3-.41,1.1-.63,2.02-1.57,3.05-2.31,1.07-.77,2.2-1.45,3.37-2.05,1.88-.97,3.87-1.67,5.92-2.15-1.97,4.78-3.93,9.57-5.9,14.35-1.71,4.15-3.41,8.33-5.82,12.12-2.28-6.88-7.39-12.65-13.89-15.81ZM35.92,209.26c-2.61,1.6-5.52,2.7-8.55,3.22-1.43,.24-3.41,.09-4,1.74-.29,.8-.2,1.75-.22,2.59-.02,.64-.04,1.27-.06,1.91-1.21-.74-2.42-1.47-3.63-2.21-1.36-.83-2.78-1.86-4.45-1.75-3.03,.2-4.04,3.13-5.48,5.37-.86-2.06-1.26-4.27-1.17-6.51,.12-2.88,1.25-5.34,2.42-7.91,1.01-2.21,1.93-4.55,1.6-7.03-.3-2.29-1.54-4.21-2.91-6.02,6.05-.9,11.42,3.3,15.28,7.65,3.09,3.48,6.46,8.17,11.16,8.96Zm106.78,113.35c.53,.82,1.08,1.61,1.65,2.41,.34,.48,.64,.83,.02,1.18-.26,.15-.68,.1-.97,.09-3.65-.23-6.71-3.18-9.21-5.55-.49-.46-1.21-.34-1.57,.2-2.33,3.54-5.6,6.35-9.41,8.13,1.58-4.25,2.7-8.65,3.34-13.15,.09-.65-.43-1.55-1.23-1.23-3.27,1.31-6.85,1.4-10.12,.2,7.15-3.15,12.89-8.8,16.16-15.87,3.6,5.86,5.35,12.66,8.52,18.76,.86,1.66,1.8,3.27,2.82,4.84Zm140.75-115.78c-.27,.08-.45,.25-.56,.45-.25,.04-.49,.18-.65,.49-1,1.95-1.44,4.02-1.34,6.15-3.89-.9-7.89-1.23-11.87-.91-3.19,.26-7.9,.53-10.05,3.31-2.25,2.91,.53,6.4,3.08,7.95,3.01,1.84,6.76,2.17,10.2,1.9,4.52-.35,8.89-1.63,12.9-3.7,.69,1.86,.32,4.01,.92,5.92,.74,2.36,2.86,3.98,4.4,5.82,2.94,3.52,5.51,7.94,5.4,12.63-2.59-2.07-5.24-4.08-8.16-5.67-3.55-1.93-7.42-3-11.36-3.76-7.42-1.43-16.13-1.96-21.93-7.42-2.92-2.76-4.98-6.76-4.34-10.85,.14-.91-.64-1.49-1.47-1.13-11.46,4.94-21.34,13.32-28.15,23.78-.85,1.3-1.65,2.63-2.39,3.99-.76,1.38-1.77,2.93-1.99,4.52-.18,1.3,.39,2.38,1.28,3.29,1.23,1.26,2.58,2.4,3.79,3.67,4.77,5.02,8.3,10.86,9.84,17.65,1.5,6.62,2.02,14,6.3,19.45-3.9-.66-7.57-2.47-11.53-2.94-3.66-.43-6.95,.71-10.07,2.34,2.9-5.13,5.12-10.72,5.4-16.64,.3-6.2-1.66-12.63-6.22-16.99-.42-.4-1.31-.41-1.57,.2-2.97,6.93-3.24,14.77-.58,21.85,.1,.26,.27,.43,.48,.54-8.38,.71-10.57,11.86-12.57,18.36-2.41,7.81-5.5,16.46-12.79,21.04-3.74,2.35-8.17,3.11-12.5,3.53-4.33,.42-8.77,.52-13.08-.21-4.16-.71-8.09-2.2-11.54-4.65-3.15-2.24-5.81-5.16-8.1-8.26-2.61-3.53-4.81-7.33-6.99-11.13-2.74-4.8-5.48-9.6-8.22-14.39-.08-.14-.18-.25-.29-.32-1.86-2.73-4.48-4.8-7.55-5.96,3.52-5.55,3.36-13.14-.52-18.49-.24-.33-.7-.63-1.13-.46-5.97,2.41-8.95,8.8-8.94,14.99,.02,7,3.79,13.26,7.66,18.93-3.23-.97-6.14-2.71-8.54-5.16-.41-.42-1.31-.4-1.57,.2-1,2.32-3.34,3.67-5.83,3.79-2.23,.11-4.33-.67-6.25-1.75,2.09-1.01,3.9-2.51,5.27-4.41,2.05-2.84,2.61-6.24,2.69-9.67,.08-3.68-.36-7.69,1.43-11.06,1.68-3.16,4.8-5.25,7.61-7.31,1.7-1.25,3.39-2.49,5.09-3.74,1.18-.86,3.2-1.81,3.56-3.37,.33-1.45-.97-3.18-1.63-4.39-.84-1.54-1.74-3.05-2.69-4.53-3.64-5.65-8.02-10.84-13-15.36-5.66-5.14-12.06-9.43-18.97-12.68-.7-.33-1.45,.07-1.5,.86-.43,6.66-4.33,12.91-10.06,16.32-3.3,1.97-7.05,2.67-10.79,3.3-3.86,.65-7.63,1.44-11.27,2.9-3.32,1.33-6.41,3.06-9.32,5.11,.49-6.93,4.8-13.29,11.16-16.24,.63-.29,.58-1.13,.2-1.57-1.13-1.31-1.72-2.88-1.83-4.53,4.04,1.78,8.16,3.48,12.51,4.32,3.97,.77,9.08,1.16,12.7-1.04,1.41-.86,2.52-2.23,2.63-3.93,.13-2.06-1.12-3.92-2.51-5.32-2.67-2.68-6.25-4.31-9.95-4.92-3.64-.6-7.37-.34-10.92,.61,.14-3.32-2.83-6.13-5.82-7.37-1.99-.82-4.11-1.29-6.17-1.89-2.05-.59-4.08-1.23-6.09-1.95-7.67-2.73-15.5-6.71-20.4-13.44-5.34-7.32-6.18-16.91-3.35-25.39,2.81-8.44,9.27-15.15,16.93-19.45,2.11-1.19,4.32-2.2,6.6-3.04,2.36-.86,4.81-1.42,7.21-2.17,3.95-1.25,8.24-3.88,8.76-8.26,5.24,1.13,10.6,2.13,15.96,1.42,2.15-.29,4.37-.84,6.02-2.33,1.63-1.46,2.3-3.7,2.07-5.84-.49-4.61-4.52-7.56-8.55-9.1-3.98-1.53-8.41-1.73-12.56-.85-4.07,.86-7.88,2.84-10.87,5.71-.16-2.62,.44-5.22,1.78-7.53,.28-.48,.1-1.08-.36-1.37-3.56-2.25-5.56-6.45-5.23-10.59,4.87,4.71,11.09,7.86,17.79,8.96,4.2,.69,8.47,.74,12.69,1.22,3.58,.41,7.15,1.4,9.04,4.74,1.77,3.13,1.71,7.03,.62,10.36-.22,.68,.52,1.51,1.23,1.23,12.92-5.02,24.06-14.14,31.58-25.79,2.14-3.31,3.94-6.81,5.44-10.45,.21-.51-.03-.89-.4-1.08-.15-.1-.33-.17-.57-.14-3.8,.39-8.02-3.41-10.46-6.21-2.63-3.01-3.84-6.95-4.68-10.78-1.54-7.03-2.1-14.76-6.94-20.43,1.51-.93,3.14-1.62,4.89-1.98,2.41-.5,4.62-.19,7,.24,2.24,.41,4.11-.09,6.15-1.01,1.47-.67,3.19-1.55,4.82-1.35-2.83,2.23-5.57,4.61-7.5,7.67-1.99,3.15-2.87,6.96-2.61,10.67,.25,3.6,1.49,7.12,3.7,9.98,1.12,1.45,2.64,3.17,4.63,3.22,1.9,.04,3.2-1.57,3.92-3.15,1.86-4.1,.91-8.69-.32-12.87,3.4-.24,5.72-3.44,6.67-6.64,.61-2.06,.96-4.2,1.5-6.28,.53-2.05,1.14-4.07,1.85-6.06,2.9-8.12,7.63-15.9,14.74-20.97,6.75-4.82,15.13-7.15,23.4-6.67,8.08,.48,15.79,3.87,21.81,9.25,3.25,2.91,6,6.34,8.09,10.17,2.5,4.6,3.54,9.77,5.73,14.5,.19,.41,.53,.54,.86,.5,1.3,2.58,1.36,5.64,2.93,8.13,1.33,2.11,3.27,2.87,5.49,3.14-2.89,5.49-2.81,12.28,.28,17.7,.2,.35,.73,.62,1.13,.46,5.65-2.33,8.94-8.02,9.39-13.98,.46-5.98-2.06-11.66-5.44-16.51,1.37,.57,2.68,1.25,3.93,2.07,1.81,1.2,3.2,2.74,5.46,1.53,.93-.5,1.69-1.26,2.66-1.69,.9-.4,1.88-.58,2.87-.57,1.57,.01,3.06,.52,4.28,1.44-2.29,.91-4.28,2.49-5.65,4.58-1.67,2.58-2.18,5.65-2.56,8.64-.4,3.19-.62,6.54-2.12,9.45-1.53,2.97-4.06,5.27-6.72,7.2-1.17,.85-2.38,1.64-3.6,2.42-1.17,.75-2.61,1.55-2.77,3.09-.15,1.49,.82,3.17,1.37,4.51,.63,1.51,1.29,2.99,2.02,4.45,3.03,6.11,6.94,11.79,11.56,16.81,5.09,5.53,11.14,10.54,18.46,12.73,.4,.12,.72-.01,.93-.25,.49,.55,1.52,.58,1.67-.33,1.33-7.83,6.07-14.36,13.58-17.23,6.62-2.54,13.82-2.79,20.58-4.79,2.88-.85,5.63-2.06,8.06-3.8-.83,4.49-3.49,8.55-7.36,11.06-.64,.41-.65,1.32,0,1.73,1.69,1.07,2.53,3.09,2.34,5.05-.08,.81-.33,1.87-.92,2.48-.79,.83-1.41,.13-2.11-.36-.59-.41-1.19-.8-1.8-1.17-4.31-2.61-9.32-4.29-14.4-3.99-4.36,.26-9.85,1.99-12.12,6.06-2.37,4.25,1.2,7.83,5.1,9.08,4.68,1.5,9.87,1.1,14.41-.72,.07,.59,.28,1.17,.64,1.67,1.14,1.62,3.28,2.61,5.01,3.47,3.84,1.92,7.97,3.18,12.07,4.43,4.18,1.27,8.41,2.54,12.29,4.6,3.58,1.9,6.83,4.39,9.57,7.38,5.89,6.42,9.01,15.04,8.17,23.76-.83,8.6-5.83,15.86-12.53,21.07-8.23,6.4-18.39,9.49-28.21,12.51Zm37.14-7.35c-.68,2.69-.12,5.32,.84,7.86,.96,2.57,2.24,5.1,2.35,7.89,.09,2.27-.46,4.45-1.52,6.4-.62-1.5-1.31-2.98-2.09-4.4-.81-1.47-2.04-3.17-3.92-2.08-.85,.49-1.42,1.38-2.07,2.09-.75,.82-1.56,1.58-2.41,2.29-1.23,1.01-2.57,1.87-3.97,2.6,.46-2.48,.93-4.97,1.39-7.45,.12-.64-.27-1.26-.96-1.27-2.99-.03-6.27,.99-9.14-.21-1.9-.79-3.31-2.34-4.04-4.2,4.98-.96,8.93-4.64,12.92-7.65,4.57-3.45,9.75-5.91,15.28-7.28-1.15,1.67-2.16,3.43-2.65,5.4Z"/></g></g></g></svg>
