<svg id="Flamenco-7" xmlns="http://www.w3.org/2000/svg" viewBox="0 0 202.3 321.82">
<g id="Calque_4"><g>
<path class="cls-1" d="M81.1,207.11c4.8-2.11,9.56-4.34,14.52-6.08,7.68-2.69,16.65-3.86,22.8-9.57-2.72-1.3-4.76-3.6-6.55-6.05-2.61-3.57-5.06-7.26-7.58-10.89,0,0,0,0-.01,0-3.65-2.3-7.65-3.99-11.26-6.36-5.28-3.48-9.91-9.17-8.55-15.87,1.24-6.14,6.66-10.75,11.13-14.93-4.46-1.7-7.28-6.19-7.87-10.89-.84-6.6,2.11-12.78,4.96-18.52-.03-.04-.07-.08-.1-.13-.2-.31-.36-.62-.51-.94-2.42,1.9-5.14,3.33-7.78,4.92-3.05,1.84-6,3.87-8.71,6.19-5.19,4.46-9.49,10.01-11.52,16.61-.34,1.11-1.89,.84-1.96-.27-.62-9.22,2.82-18.5,9.17-25.15-5.83,3.7-10.81,8.69-14.41,14.61-2,3.29-4.41,7.42-4.09,11.4,.31,3.81,3.25,6.86,5.07,10.02,4.02,6.98,3.91,15.32,2.73,23.04-.69,4.49-1.73,8.92-2.47,13.41-.68,4.15-.95,8.34-1.46,12.51-.49,4.02-1.19,8.03-2.74,11.79-1.33,3.21-3.59,6.01-4.81,9.25,5.6-.34,11.15-1.2,16.59-2.61,5.3-1.37,10.4-3.31,15.4-5.5Z"/>
<path class="cls-1" d="M88.62,91.09c.31-3.82-2.53-5.73-5.48-7.41-2.51-1.42-4.99-3.07-5.94-5.94-.05-.16-.06-.31-.04-.45-1.34,.22-2.71,.35-4,.68-.71,.18-1.43,.38-2.16,.54-1.1,6.61,.43,13.57,4.25,19.08,.39-.5,.83-.96,1.31-1.43,1.03-1.01,1.78-2.12,2.19-3.51,.93-3.12,.22-6.39-.44-9.49-.25-1.14,1.18-1.69,1.83-.77,2.57,3.64,5.37,8.2,3.38,12.77-.85,1.95-2.42,3.42-3.88,4.92-1.15,1.17-2.4,2.59-2.83,4.2,2.01-1.83,4.32-3.32,6.44-5.03,2.56-2.06,5.1-4.7,5.38-8.16Z"/>
<path class="cls-1" d="M73.61,75.8c2.12-.46,4.67-.29,6.5-1.64,1.77-1.31,1.54-4.07,1.56-6.03,.02-2.07,.06-4.39-.72-6.35-.8-2-2.63-2.52-4.45-3.29-.98-.42-1.81-.97-2.68-1.58-.64-.46-1.4-1.05-2.23-1.04-2.04,1.83-4.09,3.65-6.13,5.48-1.68,1.5-4.48,3.19-4.44,5.71,.03,2.04,1.17,4.11,2.12,5.87,.85,1.57,1.96,3.21,3.75,3.76,.79,.24,1.6,.25,2.41,.15,.22-.81,1.15-.81,1.63-.32,.92-.23,1.82-.52,2.69-.71Z"/>
<path class="cls-1" d="M107.94,122.09s-.06-.09-.07-.14c-3.25,4.7-6.49,9.4-9.74,14.1,.49,.33,.58,1.12,.14,1.54-5.14,4.96-13.98,11.55-11.68,19.79,2.24,8.03,11.25,11,17.79,14.86,.95-2.04,1.88-4.19,1.85-6.47-.02-2.28-1.07-4.37-1.64-6.53-1-3.8-.14-7.53,1.31-11.09,1.49-3.64,3.48-7.17,4.17-11.08,.88-5.05-.69-10.15-2.13-14.93,0-.01,0-.02,0-.03Z"/>
<path class="cls-1" d="M94.5,108.78c-2.54,5.1-5.2,10.48-4.89,16.34,.22,4.32,2.51,8.62,6.53,10.28,7.29-10.55,14.58-21.1,21.87-31.66,3.25-4.71,6.5-9.41,9.75-14.12,1.56-2.25,3.22-4.47,4.66-6.79,1.48-2.38,1.51-4.77,1.32-7.48-.79-11.35-1.61-22.71-2.42-34.06l-1.22-17.15c-.2-2.79-.37-5.58-.59-8.36-.11-1.35-.28-2.76-1.19-3.83-.74-.87-1.77-1.45-2.72-2.06-2.4-1.53-4.79-3.07-7.19-4.59-2.06-1.3-4.21-2.61-6.62-3.1-2.73-.56-5.31,.45-7.97,.91-1.18,.2-2.33,.24-3.52,.25-.86,.01-2.33,.1-2.82,.97,3.51,1.81,7.68,1.68,11.29,3.26,2.03,.89,3.37,2.41,5.02,3.83,1.71,1.47,3.84,2.33,5.64,3.68,6.27,4.74,5.04,13.55,4.86,20.43-.25,9.61,.17,19.24,1.26,28.79,.25,2.16,.77,4.43,.39,6.6-.34,1.91-1.47,3.49-2.69,4.94-3.05,3.62-6.27,7.12-9.43,10.65-6.4,7.14-12.88,14.21-19.43,21.21,.21,.28,.3,.66,.1,1.06Z"/>
<path class="cls-1" d="M83.08,61.89c.02,.06,.03,.13,.05,.19,.03,0,.06-.02,.09-.02,1.48,.01,2.97,.03,4.45,.04,1.07,0,2.33-.15,3.34,.29,2.13,.94,1.58,3.86,1.41,5.69-.37,3.88-1.11,9.26,1.88,12.22-.14-3.41,1.02-6.76,3.35-9.36,.51-.58,1.47-.25,1.67,.44,.91,3.14,3.18,5.64,3.41,9.01,.22,3.21-1.15,6.36-2.84,9.02-2.87,4.51-8.6,10.4-6.23,16.14,4.1-4.39,8.16-8.81,12.21-13.25,.01-.12,.04-.24,.1-.36,2.28-4.42,4.95-8.74,6.3-13.56,1.08-3.85,1.31-8.22-.46-11.91-1.85-3.84-5.56-6.46-9.16-8.52-3.6-2.06-7.65-4.36-11.88-4.6-4.03-.23-8,1.29-11.02,3.91-.18,.16-.37,.21-.57,.23,1.86,.92,3.23,2.16,3.89,4.39Z"/>
<path class="cls-1" d="M73.53,117.14c2.68-2.38,5.61-4.49,8.65-6.39,3.08-1.93,6.43-3.52,9.21-5.89-1.09-4.94,2.25-10.01,5.08-13.96,2-2.79,4.12-5.89,4.29-9.45,.14-2.9-1.54-5.23-2.68-7.76-1.61,2.48-2.2,5.52-1.55,8.45,.2,.89-.68,1.51-1.47,1.13-3.86-1.86-5.1-6.38-5.02-10.35,.03-1.37,.18-2.74,.32-4.11,.12-1.17,.47-2.68,.23-3.85-.26-1.27-2.35-.86-3.38-.87-1.23-.01-2.46-.02-3.68-.03,.25,1.91,.19,3.9,.09,5.76-.12,2.48-.5,4.87-2.79,6.26-.59,.36-1.23,.62-1.88,.81,.07,.09,.14,.19,.18,.31,1.13,3.41,5.18,4.53,7.82,6.47,2.65,1.95,4.06,4.74,3.6,8.06-1.06,7.72-9.52,10.42-14.04,15.69-.2,.23-.47,.31-.75,.29-.05,.06-.08,.13-.15,.18-6.42,5.24-10.49,12.9-11.37,21.06,2.27-4.49,5.52-8.46,9.29-11.82Z"/>
<path class="cls-1" d="M43.89,242.41s.07,.04,.1,.05c2.72-.1,5.43-.42,8.13-.83,4.11-.61,8.22-1.24,12.29-2.08,7.25-1.5,13.91-4,20.11-8.08,6.11-4.03,11.8-8.66,17.87-12.75,6.33-4.26,12.81-8.29,19.12-12.59,1.64-1.12,3.31-2.22,4.85-3.47,.66-.53,1.29-1.1,1.89-1.71,.21-.21,.64-.54,.74-.82,.19-.5,.21-.12-.12-.52-.29-.35-1.36-.6-1.79-.79l-1.34-.59c-.89-.4-1.79-.79-2.68-1.19-1.79-.79-3.58-1.59-5.37-2.38-.01,0-.02-.01-.03-.02-2.83,2.04-6.09,3.46-9.43,4.59-4.44,1.5-9.01,2.57-13.4,4.2-5.24,1.94-10.27,4.39-15.42,6.57-8.73,3.69-17.87,6.08-27.26,6.98-.03,.12-.08,.23-.15,.33-.06,.12-.12,.25-.19,.37,.09,.18,.15,.39,.11,.63-1.45,9.19-9.13,15.55-12.1,24.11,1.14,.07,2.27,.09,3.4,.07,.21-.09,.44-.13,.67-.07Z"/>
<path class="cls-1" d="M177.65,232.85c-1.75,3.05-3.69,5.99-5.81,8.8-8.27,10.97-19.1,19.98-31.44,26.04-6.36,3.13-13.07,5.38-19.98,6.96-7.42,1.7-14.96,2.75-22.45,4.06-7.3,1.28-14.61,2.81-21.55,5.49-3.5,1.35-6.88,3.02-10.04,5.03-3.29,2.09-6.35,4.52-9.58,6.7-3.29,2.23-6.77,4.08-10.57,5.28-3.82,1.21-7.79,1.83-11.75,2.31-7.49,.91-15.03,1.57-22.56,2.11,.25,.35,.29,.82-.12,1.2-3.49,3.14-6.52,6.71-9.04,10.66,15.74,.51,31.44,1.81,47.18,2.21,13.71,.35,27.5,0,41.06-2.24,13.39-2.2,26.16-6.4,38.17-12.72,11.8-6.21,22.89-13.68,34.58-20.1,11.68-6.42,23.75-12.1,36.11-17.08-6.83-11.98-14.18-23.66-22.03-35-.06,.09-.12,.19-.17,.28Z"/>
<path class="cls-1" d="M34.27,273.69c1.88-.11,3.75-.34,5.6-.67,13.13-2.39,24.63-9.46,36.63-14.89,5.94-2.68,12-4.77,18.34-6.28,6.37-1.52,12.89-2.74,18.93-5.36,10.52-4.57,18.59-13.08,25.26-22.18,3.35-4.58,6.48-9.34,9.47-14.17,.37-.6,.41-.71-.12-1.11-.32-.25-1.02-.37-1.4-.51l-2.34-.84c-1.56-.56-3.12-1.12-4.68-1.69-3.41-1.23-6.81-2.46-10.22-3.69-.13,.13-.26,.26-.38,.37-1.48,1.45-3.18,2.66-4.88,3.84-6.79,4.72-13.82,9.07-20.69,13.67-6.58,4.41-12.7,9.5-19.39,13.74-6.67,4.22-13.99,6.56-21.71,8-3.97,.74-7.96,1.37-11.96,1.92-2.11,.29-4.22,.51-6.34,.61-.09,.41-.19,.82-.28,1.23-.02,.1-.08,.18-.13,.26-.01,.06-.03,.12-.04,.17-.02,.06-.05,.11-.08,.16,0,.01,0,.02,0,.03-2.11,6.78-5.18,13.26-9.17,19.14-.98,1.44-2.04,2.83-3.07,4.23-.51,.7-1.01,1.4-1.48,2.13-.23,.36-.45,.73-.66,1.11-.03,.06-.25,.64-.45,.8,.62,.1,2.31,.04,2.5,.04,.91,0,1.82-.01,2.73-.07Z"/>
<path class="cls-1" d="M39.59,300.77c3.95-.72,7.85-1.8,11.42-3.66,3.33-1.73,6.35-3.97,9.38-6.16,5.89-4.26,12.05-7.63,18.97-9.91,6.89-2.27,14.04-3.59,21.18-4.79,7.15-1.2,14.34-2.28,21.38-4.01,6.66-1.64,13.1-3.98,19.18-7.14,11.93-6.2,22.42-15.22,30.26-26.16,1.94-2.7,3.71-5.52,5.31-8.44,.3-.55,.75-1.13,.5-1.73-.15-.37-.53-.6-.83-.84-.75-.6-1.51-1.18-2.28-1.75-1.61-1.21-3.25-2.37-4.91-3.5-6.1-4.14-12.57-7.73-19.29-10.76-.48,.73-1.04,1.42-1.44,2.05-.93,1.45-1.86,2.89-2.81,4.32-1.9,2.87-3.86,5.71-5.93,8.46-7.29,9.67-16.13,18.3-27.68,22.58-6.54,2.43-13.45,3.55-20.18,5.33-6.87,1.82-13.34,4.64-19.72,7.74-12.2,5.93-24.72,12.78-38.57,13.31-2.11,6.19-7.01,10.61-11.87,14.73-4.55,3.87-9.56,7.84-12.12,13.36,1.64-.11,3.28-.23,4.91-.35,8.35-.65,16.85-1.17,25.1-2.68Z"/>
<path d="M178.91,230.63c.33-.74,.52-1.5,.32-2.25-.4-1.51-2.29-2.51-3.45-3.38-6.4-4.87-13.26-9.13-20.46-12.71-1.5-.75-3.02-1.45-4.55-2.14,.05-.17,.09-.34,.12-.51,.22-1.61-1.17-2.24-2.45-2.71-2.02-.74-4.05-1.46-6.08-2.19-3.78-1.36-7.55-2.72-11.33-4.09,.32-.65,.39-1.35-.13-2.02-.51-.65-1.41-.91-2.14-1.23-1.12-.5-2.24-.99-3.36-1.49-2-.89-4-1.77-5.99-2.66,.52-.46,1.02-.93,1.49-1.45,.52-.56,.29-1.45-.44-1.67-3.36-1.03-5.6-3.91-7.54-6.68-2.33-3.31-4.62-6.66-6.93-9.99,.92-1.96,1.81-3.97,2.11-6.12,.32-2.28-.23-4.38-.93-6.54-.71-2.16-1.24-4.24-.97-6.53,.25-2.06,.98-4.06,1.78-5.97,1.63-3.89,3.69-7.67,4.19-11.93,.59-5.04-.87-10.02-2.31-14.79-.02-.07-.07-.12-.1-.18,0-.01,0-.03,0-.04-.12-.39-.2-.78-.26-1.18-.02-.16-.04-.32-.05-.49,0-.02-.01-.04-.01-.06,3.1-4.49,6.2-8.97,9.3-13.46l10.46-15.14c1.73-2.5,3.64-4.95,5.17-7.58,1.37-2.34,1.58-4.8,1.41-7.46-.78-12.24-1.74-24.47-2.6-36.7-.44-6.13-.87-12.27-1.31-18.4-.19-2.64-.02-5.68-.89-8.21-.83-2.41-2.96-3.64-5-4.94-2.73-1.74-5.42-3.56-8.21-5.2C115.34,1.12,112.64-.07,109.75,0c-3.13,.08-6.07,1.3-9.23,1.34-2.36,.03-4.91,.75-5.2,3.47-.04,.34,.22,.7,.5,.86,3.03,1.84,6.56,2.07,9.91,2.96,1.82,.48,3.46,1.21,4.86,2.49,1.39,1.27,2.66,2.5,4.28,3.48,1.61,.97,3.33,1.81,4.62,3.21,1.17,1.25,1.9,2.84,2.34,4.48,.93,3.5,.68,7.2,.54,10.77-.35,9.2-.08,18.41,.8,27.58,.22,2.26,.49,4.52,.76,6.77,.26,2.21,.09,4.06-1.22,5.92-1.26,1.79-2.85,3.38-4.29,5.01-1.51,1.71-3.02,3.41-4.54,5.11-.95,1.06-1.91,2.11-2.86,3.17,3.16-6.3,5.71-13.14,3.05-19.98-1.68-4.31-5.36-7.36-9.21-9.71-3.93-2.4-8.45-4.92-13.08-5.48-4.45-.54-8.87,.93-12.4,3.6-.14,.02-.27,.05-.39,.12l-.97,.69c-.12,.06-.21,.15-.28,.26-.09,.1-.15,.21-.18,.34-.03,.1-.03,.21-.01,.31-2.23-1.04-4.14-3.25-6.75-2.81-.37,.06-.57,.27-.66,.53-2.25,2.01-4.51,4.02-6.76,6.04-1.87,1.67-4.14,3.27-4.35,5.98-.2,2.49,1.1,5,2.22,7.14,1,1.91,2.33,3.8,4.37,4.7,1.09,.47,2.2,.57,3.31,.49-1.05,7.52,.99,15.19,5.67,21.24,.52,.67,1.42,.15,1.67-.44,.55-1.31,1.93-2.14,2.78-3.24,.91-1.17,1.51-2.55,1.83-3.99,.33-1.48,.36-2.97,.24-4.46,1.26,2.82,1.55,5.78-.86,8.59-2.24,2.61-5.51,5.13-5.62,8.7-.2-.04-.42-.04-.66,.08-6.59,3.36-12.3,8.27-16.67,14.24-2.23,3.05-4.14,6.4-5.49,9.93-1.46,3.81-1.27,7.42,.69,10.99,1.95,3.56,4.49,6.57,5.66,10.54,1.16,3.94,1.34,8.11,1.03,12.19-.35,4.62-1.35,9.16-2.23,13.71-.82,4.22-1.39,8.44-1.81,12.71-.47,4.72-.94,9.5-2.48,14.02-1.49,4.37-4.74,7.93-5.93,12.4-.16,.6,.31,1.3,.96,1.27,.71-.03,1.41-.1,2.11-.14-.02,.04-.04,.08-.05,.12-.07,.23-.11,.47-.13,.7-.02,.17-.02,.34,0,.5,0,.14,.02,.27,.09,.39,0,.02,.02,.03,.03,.05-1.95,8.94-9.72,15.35-12.25,24.14-.2,.68,.34,1.2,.96,1.27,1.28,.13,2.56,.18,3.84,.19-.09,.36-.19,.73-.28,1.09,0,.01,0,.03,0,.04-.03,.05-.06,.09-.08,.15-2.06,6.63-5.07,12.92-8.97,18.67-1.85,2.72-4.22,5.23-5.6,8.24-.41,.9-.57,2.05,.39,2.68,.54,.36,1.35,.31,1.96,.34,.49,.03,.98,.02,1.47,.03-.89,1.4-1.77,2.79-2.66,4.19-.23,.36-.18,.71,0,.97-2.57,3.41-6.01,6.24-9.24,8.98-4.92,4.17-9.92,8.56-12.22,14.78-.22,.59,.35,1.31,.96,1.27,.66-.04,1.32-.09,1.98-.14-3.87,3.55-7.19,7.64-9.87,12.16-.4,.67,.12,1.48,.86,1.5,28.39,.8,56.93,4.47,85.26,.74,13.22-1.74,26.13-5.14,38.2-10.84,12.15-5.74,23.32-13.28,34.95-19.96,13.54-7.77,27.64-14.58,42.15-20.35,.6-.24,.94-.86,.6-1.47-7.18-12.66-14.94-24.98-23.25-36.93Zm-68.84-93.57c-.68,3.92-2.68,7.44-4.17,11.08-1.45,3.56-2.31,7.29-1.31,11.09,.57,2.16,1.61,4.26,1.64,6.53,.02,2.27-.9,4.43-1.85,6.47-6.54-3.86-15.54-6.83-17.79-14.86-2.3-8.24,6.54-14.83,11.68-19.79,.44-.42,.35-1.21-.14-1.54,3.25-4.7,6.49-9.4,9.74-14.1,.02,.05,.05,.1,.07,.14,0,.01,0,.02,0,.03,1.44,4.79,3.01,9.89,2.13,14.93Zm3.76-50.55c3.16-3.53,6.37-7.03,9.43-10.65,1.22-1.45,2.35-3.04,2.69-4.94,.38-2.17-.14-4.44-.39-6.6-1.09-9.55-1.51-19.18-1.26-28.79,.18-6.88,1.4-15.7-4.86-20.43-1.8-1.36-3.93-2.21-5.64-3.68-1.64-1.42-2.98-2.94-5.02-3.83-3.61-1.58-7.79-1.45-11.29-3.26,.49-.87,1.97-.96,2.82-.97,1.19-.02,2.34-.05,3.52-.25,2.66-.46,5.24-1.47,7.97-.91,2.42,.49,4.56,1.8,6.62,3.1,2.4,1.52,4.8,3.06,7.19,4.59,.95,.61,1.98,1.19,2.72,2.06,.9,1.07,1.08,2.49,1.19,3.83,.23,2.79,.4,5.58,.59,8.36l1.22,17.15c.81,11.35,1.63,22.71,2.42,34.06,.19,2.71,.15,5.1-1.32,7.48-1.44,2.33-3.1,4.54-4.66,6.79-3.25,4.71-6.5,9.41-9.75,14.12-7.29,10.55-14.58,21.1-21.87,31.66-4.02-1.65-6.31-5.95-6.53-10.28-.3-5.85,2.36-11.24,4.89-16.34,.2-.4,.11-.78-.1-1.06,6.55-7,13.03-14.07,19.43-21.21Zm-34.07-29.24c3.03-2.63,6.99-4.14,11.02-3.91,4.23,.24,8.28,2.55,11.88,4.6,3.6,2.06,7.32,4.67,9.16,8.52,1.77,3.69,1.54,8.06,.46,11.91-1.35,4.83-4.02,9.14-6.3,13.56-.06,.12-.09,.24-.1,.36-4.04,4.44-8.1,8.86-12.21,13.25-2.38-5.74,3.36-11.63,6.23-16.14,1.68-2.65,3.06-5.81,2.84-9.02-.23-3.37-2.5-5.87-3.41-9.01-.2-.69-1.16-1.02-1.67-.44-2.33,2.61-3.49,5.95-3.35,9.36-3-2.96-2.25-8.34-1.88-12.22,.17-1.83,.72-4.75-1.41-5.69-1.01-.45-2.27-.29-3.34-.29-1.48-.01-2.97-.03-4.45-.04-.03,0-.06,.01-.09,.02-.02-.06-.03-.13-.05-.19-.65-2.23-2.03-3.47-3.89-4.39,.19-.02,.39-.08,.57-.23Zm-10.48,19.57c-.81,.1-1.62,.09-2.41-.15-1.79-.55-2.9-2.19-3.75-3.76-.95-1.75-2.09-3.83-2.12-5.87-.04-2.52,2.76-4.21,4.44-5.71,2.04-1.83,4.09-3.65,6.13-5.48,.83,0,1.59,.59,2.23,1.04,.87,.61,1.7,1.17,2.68,1.58,1.82,.77,3.65,1.29,4.45,3.29,.79,1.96,.74,4.27,.72,6.35-.02,1.96,.21,4.72-1.56,6.03-1.82,1.35-4.37,1.18-6.5,1.64-.87,.19-1.77,.47-2.69,.71-.48-.48-1.42-.49-1.63,.32Zm10.34,23.24c1.46-1.49,3.03-2.97,3.88-4.92,1.99-4.56-.81-9.12-3.38-12.77-.65-.92-2.07-.37-1.83,.77,.67,3.1,1.38,6.37,.44,9.49-.42,1.39-1.17,2.5-2.19,3.51-.48,.47-.92,.93-1.31,1.43-3.82-5.51-5.35-12.47-4.25-19.08,.73-.16,1.45-.36,2.16-.54,1.29-.33,2.66-.45,4-.68-.02,.14-.01,.28,.04,.45,.95,2.87,3.43,4.51,5.94,5.94,2.96,1.68,5.8,3.59,5.48,7.41-.28,3.46-2.82,6.09-5.38,8.16-2.13,1.71-4.43,3.2-6.44,5.03,.43-1.61,1.68-3.03,2.83-4.2Zm-4.02,7.82c.07-.06,.1-.12,.15-.18,.27,.02,.55-.06,.75-.29,4.52-5.26,12.98-7.97,14.04-15.69,.46-3.32-.95-6.11-3.6-8.06-2.64-1.94-6.69-3.06-7.82-6.47-.04-.13-.11-.22-.18-.31,.66-.19,1.29-.45,1.88-.81,2.29-1.4,2.67-3.78,2.79-6.26,.09-1.86,.15-3.85-.09-5.76,1.23,.01,2.46,.02,3.68,.03,1.03,0,3.12-.4,3.38,.87,.24,1.17-.11,2.68-.23,3.85-.14,1.37-.29,2.73-.32,4.11-.08,3.97,1.16,8.49,5.02,10.35,.79,.38,1.66-.24,1.47-1.13-.65-2.93-.06-5.97,1.55-8.45,1.14,2.53,2.82,4.86,2.68,7.76-.17,3.55-2.29,6.65-4.29,9.45-2.83,3.96-6.17,9.02-5.08,13.96-2.78,2.37-6.13,3.96-9.21,5.89-3.04,1.9-5.97,4-8.65,6.39-3.78,3.36-7.02,7.33-9.29,11.82,.88-8.15,4.95-15.82,11.37-21.06Zm-26.49,107.31c1.22-3.24,3.49-6.04,4.81-9.25,1.55-3.76,2.26-7.77,2.74-11.79,.51-4.17,.78-8.36,1.46-12.51,.74-4.48,1.78-8.91,2.47-13.41,1.18-7.72,1.29-16.06-2.73-23.04-1.82-3.17-4.76-6.22-5.07-10.02-.32-3.98,2.09-8.11,4.09-11.4,3.6-5.92,8.57-10.91,14.41-14.61-6.35,6.65-9.79,15.93-9.17,25.15,.07,1.11,1.62,1.38,1.96,.27,2.03-6.6,6.33-12.16,11.52-16.61,2.71-2.32,5.66-4.35,8.71-6.19,2.63-1.59,5.36-3.02,7.78-4.92,.15,.31,.32,.63,.51,.94,.03,.05,.07,.09,.1,.13-2.86,5.74-5.8,11.93-4.96,18.52,.6,4.69,3.42,9.19,7.87,10.89-4.48,4.18-9.89,8.79-11.13,14.93-1.36,6.71,3.27,12.4,8.55,15.87,3.61,2.37,7.61,4.06,11.26,6.36,0,0,0,0,.01,0,2.51,3.64,4.97,7.33,7.58,10.89,1.79,2.44,3.82,4.75,6.55,6.05-6.15,5.72-15.12,6.88-22.8,9.57-4.95,1.74-9.71,3.97-14.52,6.08-5.01,2.2-10.1,4.13-15.4,5.5-5.44,1.41-10.99,2.27-16.59,2.61Zm-9.3,27.2c2.97-8.56,10.65-14.91,12.1-24.11,.04-.24-.02-.45-.11-.63,.06-.12,.12-.25,.19-.37,.07-.1,.12-.21,.15-.33,9.4-.9,18.53-3.29,27.26-6.98,5.15-2.17,10.18-4.63,15.42-6.57,4.4-1.63,8.97-2.7,13.4-4.2,3.33-1.13,6.59-2.55,9.43-4.59,.01,0,.02,.01,.03,.02,1.79,.79,3.58,1.59,5.37,2.38,.89,.4,1.79,.79,2.68,1.19l1.34,.59c.43,.19,1.49,.44,1.79,.79,.33,.4,.32,.02,.12,.52-.11,.28-.54,.61-.74,.82-.59,.61-1.23,1.17-1.89,1.71-1.54,1.25-3.21,2.35-4.85,3.47-6.31,4.29-12.79,8.33-19.12,12.59-6.07,4.09-11.76,8.72-17.87,12.75-6.19,4.08-12.86,6.58-20.11,8.08-4.07,.84-8.18,1.47-12.29,2.08-2.7,.4-5.41,.73-8.13,.83-.04-.01-.07-.04-.1-.05-.23-.05-.47-.02-.67,.07-1.13,.02-2.27,0-3.4-.07Zm-10.77,31.31c.21-.16,.42-.74,.45-.8,.21-.38,.43-.75,.66-1.11,.46-.73,.96-1.43,1.48-2.13,1.03-1.41,2.09-2.79,3.07-4.23,3.99-5.88,7.06-12.36,9.17-19.14,0-.01,0-.02,0-.03,.03-.05,.06-.1,.08-.16,.01-.06,.03-.12,.04-.17,.05-.08,.11-.16,.13-.26,.09-.41,.19-.82,.28-1.23,2.12-.1,4.23-.32,6.34-.61,4-.54,8-1.17,11.96-1.92,7.72-1.44,15.04-3.78,21.71-8,6.69-4.24,12.81-9.33,19.39-13.74,6.86-4.6,13.9-8.95,20.69-13.67,1.7-1.18,3.4-2.39,4.88-3.84,.12-.12,.25-.24,.38-.37,3.41,1.23,6.81,2.46,10.22,3.69,1.56,.56,3.12,1.12,4.68,1.69l2.34,.84c.39,.14,1.08,.26,1.4,.51,.53,.41,.5,.51,.12,1.11-2.99,4.82-6.11,9.59-9.47,14.17-6.67,9.1-14.75,17.61-25.26,22.18-6.04,2.62-12.56,3.85-18.93,5.36-6.34,1.51-12.4,3.6-18.34,6.28-12,5.43-23.5,12.5-36.63,14.89-1.85,.34-3.72,.57-5.6,.67-.91,.05-1.82,.07-2.73,.07-.19,0-1.88,.06-2.5-.04Zm-19.47,30.08c2.56-5.53,7.57-9.5,12.12-13.36,4.85-4.12,9.75-8.54,11.87-14.73,13.85-.53,26.37-7.39,38.57-13.31,6.38-3.1,12.85-5.92,19.72-7.74,6.72-1.78,13.64-2.91,20.18-5.33,11.54-4.29,20.38-12.91,27.68-22.58,2.07-2.75,4.03-5.58,5.93-8.46,.95-1.43,1.88-2.87,2.81-4.32,.4-.62,.95-1.32,1.44-2.05,6.72,3.03,13.18,6.62,19.29,10.76,1.66,1.13,3.3,2.3,4.91,3.5,.77,.57,1.53,1.15,2.28,1.75,.3,.24,.68,.47,.83,.84,.24,.6-.2,1.19-.5,1.73-1.6,2.92-3.38,5.73-5.31,8.44-7.83,10.94-18.32,19.96-30.26,26.16-6.09,3.16-12.53,5.5-19.18,7.14-7.05,1.74-14.23,2.81-21.38,4.01-7.14,1.2-14.29,2.52-21.18,4.79-6.92,2.28-13.08,5.65-18.97,9.91-3.03,2.19-6.05,4.43-9.38,6.16-3.57,1.86-7.47,2.94-11.42,3.66-8.25,1.5-16.75,2.03-25.1,2.68-1.64,.13-3.28,.24-4.91,.35Zm154.17-19.16c-11.69,6.42-22.78,13.89-34.58,20.1-12.01,6.32-24.78,10.52-38.17,12.72-13.55,2.23-27.35,2.59-41.06,2.24-15.74-.4-31.44-1.71-47.18-2.21,2.52-3.95,5.55-7.52,9.04-10.66,.42-.38,.37-.85,.12-1.2,7.53-.54,15.07-1.19,22.56-2.11,3.97-.48,7.94-1.11,11.75-2.31,3.8-1.2,7.28-3.05,10.57-5.28,3.23-2.18,6.29-4.61,9.58-6.7,3.17-2.01,6.55-3.68,10.04-5.03,6.93-2.68,14.24-4.21,21.55-5.49,7.49-1.32,15.03-2.37,22.45-4.06,6.91-1.58,13.61-3.83,19.98-6.96,12.33-6.06,23.17-15.08,31.44-26.04,2.12-2.81,4.06-5.75,5.81-8.8,.05-.09,.11-.19,.17-.28,7.85,11.34,15.2,23.02,22.03,35-12.36,4.97-24.43,10.66-36.11,17.08Z"/></g></g></svg>
