<svg id="Phare" xmlns="http://www.w3.org/2000/svg" viewBox="0 0 202.23 385.38">
<g id="Calque_4"><g>
<path class="cls-1" d="M83.07,108.82c0-.06,.03-.11,.05-.16-.03,0-.05-.02-.08-.02,0,.2-.01,.4-.02,.6,0,0,.01-.02,.02-.02,.01-.13,.02-.26,.03-.39Z"/>
<path class="cls-1" d="M85.13,202.57c-.06,0-.13,.02-.19,.02,.01,0,.03,.01,.04,.02,.05-.02,.1-.03,.15-.04Z"/>
<path class="cls-1" d="M94.26,200.91s-.03,0-.04,0c.01,.02,.03,.04,.04,.06,0-.02,0-.04,0-.07Z"/>
<path class="cls-1" d="M94.33,228.96c-.03-7.04-.07-14.08-.1-21.13l-.02-4.59c-2.93,.53-5.87,.96-8.83,1.27-.13,.01-.25-.01-.37-.06-.02,0-.04,.02-.06,.03-.17,.03-.34,.07-.52,.1,.09,8.3,.25,16.6,.49,24.9,3.14-.13,6.28-.3,9.42-.51Z"/>
<path class="cls-1" d="M80.47,211.03c0-.23,0-.45,0-.68-.02,0-.04,.01-.07,.01,.02,.23,.03,.45,.05,.68,0,0,0,0,0,0Z"/>
<path class="cls-1" d="M82.03,16.52c2.23-.2,4.46-.4,6.69-.59,8.76-.77,17.51-1.56,26.27-2.3,1.07-.09,2.22-.15,3.28,.12,.69-.1,1.38-.26,2.04-.5-2.77-2.5-4.39-6.11-7.75-8.02-3.62-2.06-8.19-2.78-12.29-3.1-4.39-.35-8.84-.03-13.07,1.23-3.79,1.13-8.13,2.99-9.91,6.77-1.16,2.47-1.54,5.33-3.06,7.57,.08,.03,.14,.05,.21,.1,.25-.33,.61-.58,1.19-.7,2.06-.42,4.31-.4,6.4-.59Z"/>
<path class="cls-1" d="M91.88,45.84c4,3.03,9.88,2.94,14.13,.49,4.32-2.48,6.86-7.58,6.14-12.53-.66-4.48-4.05-8.2-8.35-9.43-.04,0-.07,0-.11,0-5.71-1.06-11.6,1.78-14.21,6.98-2.31,4.61-1.95,11.17,2.41,14.48Z"/>
<path class="cls-1" d="M85.18,293.32c.15,.18,.25,.4,.25,.64,0,.87,0,1.73,0,2.6,0,.05-.02,.09-.03,.14,.92-.04,1.83-.1,2.75-.16,3.4-.24,6.79-.63,10.16-1.15,.62-3.87,.26-7.88,.12-11.78l-.43-12.41c-.06-1.65-.11-3.31-.17-4.96-3.09,.45-6.17,.9-9.26,1.34-.8,.12-1.6,.23-2.41,.35-.27,.04-.81-.01-1.03,.16-.42,.32-.3,.94-.31,1.4-.03,1.66-.06,3.32-.07,4.98-.04,6.29,.11,12.57,.42,18.85Z"/>
<path class="cls-1" d="M86.28,128.92c.95-.06,1.9-.13,2.85-.18,1.67-.09,3.34-.18,5-.28,.4-.02,.79,.04,1.1-.24,.34-.32,.26-.65,.27-1.12,.03-.81,.05-1.63,.07-2.45,.14-5.38,.16-10.77,.06-16.16-2.3,.02-4.6,.15-6.88,.42-.48,.06-1.31,0-1.74,.23-.11,.06-.17,.08-.21,.09,.01,.03,0,.09-.04,.21-.08,.22-.04,.59-.05,.82-.07,1.16-.14,2.33-.18,3.49-.2,4.8-.16,9.6,.09,14.4,.02,.36-.13,.6-.34,.76Z"/>
<path class="cls-1" d="M60.46,78.44c.17,0,.31,.06,.45,.13,5.44-.13,10.88-.22,16.32-.26,18.82-.14,37.65,.26,56.45,1.18,.14-.3,.42-.53,.86-.51,.96,.04,1.92,.04,2.88-.04,.55-.05,1.09-.15,1.64-.23,.07-.01,.68-.07,.7-.1,.22-.25-.15-2.14-.17-2.46-.07-.88-.13-1.76-.2-2.64-.04-.48-.07-.96-.11-1.44-.01-.2,.01-.84-.07-.96-.38-.56-1.7-.34-2.3-.37-1.79-.09-3.57-.17-5.36-.24-.32,.16-.72,.14-1.02-.04-24.43-.98-48.91-.59-73.3,1.14l.15,6.41c0,.1-.03,.18-.05,.26,.44,.02,.87,.05,1.31,.07,.17-.03,.35-.07,.52-.11,.32-.09,.62,0,.86,.19,.15,0,.3,.02,.44,.02Z"/>
<path class="cls-1" d="M62.5,68.09c.11,.16,.18,.35,.18,.54v.63c5.76-.36,11.51-.67,17.27-.89,13.86-.51,27.74-.58,41.61-.21,2.85,.08,5.7,.18,8.55,.29,.03-2.54-.05-5.08-.28-7.61-.05-.56,.07-1.68-.45-2-.4-.24-1.47-.05-1.92-.06-1.48-.03-2.96-.05-4.43-.06-20.48-.16-40.93,1.35-61.25,3.8,.26,1.68,.53,3.36,.79,5.03,.03,.2,0,.37-.06,.53Z"/>
<path class="cls-1" d="M76.27,307.04c.06-.05,.11-.11,.18-.15,0-.02-.01-.04-.02-.06h-.08c-.03,.07-.05,.14-.08,.21Z"/>
<path class="cls-1" d="M76.65,323.36c-.02,.93-.05,1.87-.07,2.8,.04,.08,.05,.18,.07,.28,0-1.03,0-2.05,0-3.08Z"/>
<path class="cls-1" d="M86.61,306.83c.13,0,.25,0,.38-.01,0,0-.01-.02-.02-.03-.12,.01-.24,.02-.37,.04Z"/>
<path class="cls-1" d="M83.87,266.46s-.02-.02-.03-.03c0,.02,0,.03,0,.05,.01,0,.02-.01,.03-.02Z"/>
<path class="cls-1" d="M78.46,304.72s.02,.06,.03,.08c.02,0,.04,0,.06,0,.04-.03,.07-.07,.11-.09-.07,0-.13,0-.2,.01Z"/>
<path class="cls-1" d="M202.15,373.6c-.13,2.46,.12,6.25-2.34,7.7-1.1,.65-2.41,.74-3.66,.81-1.82,.09-3.64,.15-5.46,.23-7.12,.3-14.24,.6-21.36,.88-28.66,1.15-57.36,2.29-86.04,2.16-27.73-.13-55.67-1.96-82.58-9.06-.96-.25-.86-1.44-.2-1.83-.04-.41-.07-.82-.1-1.23-.43-.38-.47-1.1-.1-1.49-.3-5.63,.18-11.27,1.4-16.78,.07-.32,.25-.52,.46-.63,.06-.21,.25-.47,.45-.56,.22-.11,.45-.21,.67-.32,.16-.09,.32-.14,.5-.14l.27,.04s.05,.03,.08,.04c.06-.02,.11-.04,.17-.05,.08-.1,.2-.18,.35-.24,2.87-1.23,5.83-2.18,8.89-2.83,6.3-1.35,12.76-1.6,19.18-1.67,6.94-.08,13.86-.11,20.8-.49,.56-.03,1.11-.07,1.67-.1-.04-.11-.07-.22-.07-.36-.06-19.09-.04-38.19,.05-57.28,.16-33.85,.55-67.69,1.17-101.53,.62-34.01,1.48-68.03,2.57-102.03,.02-.53,.36-.83,.76-.92-.04-.1-.07-.2-.07-.33-.01-1.73-.03-3.46-.04-5.19-.29-.02-.58-.03-.87-.05-.76,.08-1.53,.04-2.28-.14-.49-.12-.78-.62-.72-1.1,.02-.11,.05-.22,.11-.33-.23-.16-.4-.41-.4-.77-.06-2.45-.12-4.9-.17-7.35-.01-.57,.47-.96,1-1,1.49-.11,2.98-.19,4.47-.28-.03-.11-.05-.23-.09-.34-.05-.11-.11-.22-.17-.32-.09-.16-.14-.32-.14-.5,.01-.09,.02-.18,.04-.27,.04-.16,.13-.29,.24-.4-.3-1.88-.59-3.75-.89-5.63-.11-.7,.27-1.18,.96-1.27,4.98-.61,9.98-1.15,14.97-1.63,0,0,0,0,0,0-.06-.12-.11-.24-.15-.36-.02-.05-.03-.1-.04-.15-.03-.13-.04-.27-.05-.4-.01-.18,.02-.36,.05-.53-.05-.11-.09-.23-.1-.37-.49-9.96-.88-19.92-1.16-29.88-.06-2.24-.12-4.48-.17-6.73,0-.32-.02-.65-.01-.97-.01,0-.02,0-.03,0-.6-.02-1.2-.05-1.81-.07-.8-.03-1.41-1.12-.71-1.71,1.69-1.42,2.3-3.48,2.94-5.5,.64-2.01,1.34-3.97,2.74-5.59,2.78-3.2,7.42-4.89,11.43-5.83,4.4-1.03,8.99-1.16,13.47-.63,4.15,.49,8.68,1.3,12.25,3.62,3.5,2.28,5.02,6.48,8.48,8.71,.6,.39,.7,1.36,0,1.73-.72,.38-1.47,.68-2.23,.91,.51,.8,.69,1.78,.79,2.76,.46,4.41,.7,8.85,.85,13.28,.28,8.47,.03,16.95-.7,25.39,2.6,0,5.25-.1,7.84,.12,2.48,.21,2.42,2.53,2.58,4.5,.2,2.39,.27,4.79,.23,7.19,1.76,.07,3.53,.16,5.29,.25,1.18,.06,2.72-.12,3.45,1.02,.69,1.08,.48,2.98,.57,4.2,.11,1.5,.5,3.27,.32,4.76-.16,1.37-1.17,1.71-2.39,1.93-.64,.11-1.27,.19-1.91,.24,1.64,19.54,1.61,39.17,1.25,58.77-.32,17.59-.9,35.18-.72,52.78,.18,17.52,1.44,34.96,3.24,52.38,3.51,33.95,8.37,68.11,5.49,102.29,12.04,.87,24.08,1.82,36.12,2.73,3.54,.27,7.07,.53,10.61,.8,2.74,.21,5.38,.11,6.48,3.08,1.11,3,1.54,6.4,1.91,9.56,.4,3.41,.51,6.86,.33,10.29Z"/>
<path class="cls-1" d="M170.95,366.78c-1.29,.02-1.29-1.98,0-2,9.66-.16,19.31-.32,28.97-.47,0-.02,0-.05,0-.07-.15-1.46-.34-2.98-.59-4.48-12.2-.07-24.41-.13-36.61-.2-1.29,0-1.29-2.01,0-2,12.07,.07,24.14,.13,36.22,.2-.23-1.07-.5-2.13-.85-3.15-.65-1.89-2.2-1.76-3.93-1.89-1.65-.12-3.29-.25-4.94-.37l-20.73-1.57c-7.32-.55-14.65-1.13-21.97-1.66-.01,.14-.02,.27-.03,.41-.12,1.27-2.12,1.28-2,0,.02-.18,.03-.37,.05-.55-8.66-.61-17.33-1.12-26-1.4-.37,.29-.97,.28-1.35-.05-10.74-.32-21.49-.28-32.25,.39-13.75,.86-27.48,2.27-41.26,2.58-12.5,.28-25.66-.76-37.48,4.11-.03,.05-.06,.1-.1,.14l-.52,.5c-.34,.32-.81,.35-1.19,.14-.25,.06-.51,.11-.77,.16-.15,.69-.29,1.38-.42,2.08,4.69-.15,9.37-.29,14.05-.44,1.29-.04,1.28,1.96,0,2-4.8,.15-9.59,.3-14.39,.45-.59,3.94-.78,7.93-.58,11.92,11.41,.68,22.84,.92,34.27,.7,1.29-.03,1.29,1.97,0,2-11.38,.23-22.77-.01-34.13-.69,.03,.35,.05,.7,.08,1.04,0,.03,0,.05,0,.08,2.81,.72,5.63,1.41,8.46,2.02,26.31,5.72,53.37,6.78,80.22,6.64,27.71-.15,55.42-1.23,83.11-2.35,7.04-.29,14.07-.58,21.11-.88,1.37-.06,3.42,.08,4.11-1.4,.58-1.26,.53-3.04,.6-4.44-14.28,.04-28.56,.09-42.83,.13-1.29,0-1.29-2,0-2,14.28-.04,28.57-.09,42.85-.13,.02,0,.04,.01,.06,.01,.06-2,.03-4-.11-6-9.71,.16-19.42,.32-29.13,.48Z"/>
<path class="cls-1" d="M74.3,308.83s-.06-.1-.08-.15c0,.07,0,.14-.02,.21,.04-.02,.07-.05,.11-.06Z"/>
<path class="cls-1" d="M116.83,345.43c-.47-12.47-.46-24.95-.02-37.43-5.92,.16-11.83,.32-17.75,.48,.25,.16,.43,.41,.43,.79-.06,12.02-.39,24.04-.99,36.05,6.11-.14,12.22-.09,18.33,.1Z"/>
<path class="cls-1" d="M81.66,296.58s-.04-.03-.05-.05c0,0,0,0-.01,0,.04,.08,.09,.14,.15,.18-.03-.04-.06-.08-.09-.13Z"/>
<path class="cls-1" d="M96.25,345.38c.08,0,.17,0,.25,0,.6-12.02,.93-24.06,.99-36.1,0-.35,.16-.6,.38-.76-6.42,.18-12.84,.35-19.26,.53,0,.01,.01,.02,.02,.03,.01,.03,.02,.05,.03,.08,0,.03,.02,.06,.02,.09,0,.06,.02,.11,.02,.17,0,.06,.02,.12,.02,.17,0,.06,0,.12,0,.17,0,.18-.05,.35-.14,.5l-.02,.02c.06,.13,.11,.27,.11,.45-.02,11.87-.04,23.75-.05,35.62,5.87-.42,11.75-.8,17.64-.98Z"/><g>
<path d="M84.6,131c2.22-.1,4.45-.25,6.67-.38,1.11-.06,2.23-.1,3.33-.19,.71-.06,1.4-.13,1.98-.59,1.37-1.08,.95-3.67,.99-5.2,.06-2.28,.1-4.57,.12-6.85,.04-4.57-.02-9.14-.15-13.7-.02-.53-.45-1.02-1-1-4.16,.15-8.32,.3-12.47,.46-.23,0-.4,.09-.54,.2-.16,.03-.31,.05-.47,.08-.13,.03-.24,.09-.34,.18-.11,.07-.19,.16-.26,.28-.07,.11-.11,.24-.12,.37-.03,.13-.02,.27,.02,.4,0,.01,.01,.03,.02,.04-.56-.12-1.25,.18-1.27,.93-.18,6.73-.37,13.45-.55,20.18-.47,1.02-.39,2.24,.2,3.22,.84,1.41,2.33,1.64,3.85,1.57Zm1.93-17.23c.05-1.17,.11-2.33,.18-3.49,.02-.23-.03-.6,.05-.82,.05-.12,.05-.18,.04-.21,.04-.01,.1-.03,.21-.09,.43-.23,1.26-.18,1.74-.23,2.29-.27,4.58-.4,6.88-.42,.09,5.38,.08,10.77-.06,16.16-.02,.82-.04,1.63-.07,2.45-.02,.48,.07,.81-.27,1.12-.31,.29-.71,.22-1.1,.24-1.67,.1-3.33,.19-5,.28-.95,.05-1.9,.12-2.85,.18,.21-.16,.36-.41,.34-.76-.25-4.8-.29-9.6-.09-14.4Zm-3.49-5.13s.05,.02,.08,.02c-.01,.06-.04,.1-.05,.16-.01,.13-.02,.26-.03,.39,0,0-.01,.02-.02,.02,0-.2,.01-.4,.02-.6Z"/>
<path d="M78.9,221.44c-.21,3.2-1,6.3-.47,9.51,.07,.42,.56,.75,.96,.73,5.32-.14,10.63-.4,15.94-.78,.54-.04,1-.43,1-1-.04-8.26-.08-16.53-.12-24.79,0-1.89,.17-3.87-.04-5.74-.19-1.73-1.62-1.71-3.02-1.6-3.99,.32-7.97,.71-11.94,1.18-.58-.21-1.2-.15-1.76,.28-.97,.76-1,2.18-1.11,3.31-.31,3.18-.05,6.38,.21,9.56,.26,3.11,.55,6.23,.35,9.35Zm15.36-20.52s0,.04,0,.07c-.01-.02-.03-.04-.04-.06,.01,0,.03,0,.04,0Zm-9.13,1.66c-.05,.01-.11,.02-.15,.04-.01,0-.03-.01-.04-.02,.06,0,.13-.02,.19-.02Zm-.19,1.91s.04-.02,.06-.03c.11,.05,.24,.07,.37,.06,2.96-.31,5.91-.74,8.83-1.27l.02,4.59c.03,7.04,.07,14.08,.1,21.13-3.14,.21-6.28,.38-9.42,.51-.24-8.3-.4-16.6-.49-24.9,.17-.03,.34-.07,.52-.1Zm-4.46,5.88c0,.23,0,.45,0,.68,0,0,0,0,0,0-.02-.23-.04-.45-.05-.68,.02,0,.04,0,.07-.01Z"/>
<path d="M80.3,298.3c.6,.45,1.35,.5,2.07,.51,1.2,.02,2.42-.07,3.62-.13,4.51-.23,9.01-.73,13.47-1.44,.31-.05,.64-.39,.7-.7,.84-4.49,.42-9.12,.26-13.66-.16-4.72-.33-9.43-.49-14.15-.04-1.24-.09-2.48-.13-3.72-.03-.83,.14-1.95-.38-2.66-.39-.54-.97-.66-1.6-.67-1.12-.03-2.28,.11-3.39,.19-4.61,.32-9.19,.89-13.74,1.66-.57,.1-.79,.74-.7,1.23,.07,.38,.14,.75,.2,1.13,0,.04,.03,.06,.04,.09-.05,.11-.09,.23-.1,.38-.55,8.92-.62,17.86-.25,26.79-.01,.05-.04,.09-.05,.14-.17,1.49-.97,3.93,.48,5.02Zm4.85-30.2c.22-.17,.77-.12,1.03-.16,.8-.12,1.6-.23,2.41-.35,3.09-.45,6.17-.9,9.26-1.34,.06,1.65,.11,3.31,.17,4.96l.43,12.41c.13,3.9,.49,7.9-.12,11.78-3.37,.52-6.76,.91-10.16,1.15-.92,.06-1.83,.12-2.75,.16,0-.05,.03-.09,.03-.14,0-.87,0-1.73,0-2.6,0-.23-.1-.46-.25-.64-.31-6.28-.46-12.56-.42-18.85,.01-1.66,.03-3.32,.07-4.98,0-.46-.11-1.07,.31-1.4Zm-1.28-1.64s-.02,.01-.03,.02c0-.02,0-.03,0-.05,.01,0,.02,.02,.03,.03Zm-2.26,30.07s.04,.03,.05,.05c.03,.05,.06,.09,.09,.13-.06-.04-.11-.1-.15-.18,0,0,0,0,.01,0Z"/>
<path d="M104.86,49.09c5.46-2.12,9.2-7.28,9.4-13.16,.22-6.38-4.34-12.25-10.55-13.65-.19-.04-.35-.02-.5,.02-5.58-.67-11.24,1.68-14.47,6.38-3.34,4.86-3.78,12.04-.03,16.81,3.71,4.73,10.78,5.69,16.15,3.6Zm-15.39-17.73c2.61-5.2,8.5-8.05,14.21-6.98,.04,0,.08,0,.11,0,4.3,1.24,7.69,4.95,8.35,9.43,.73,4.95-1.82,10.05-6.14,12.53-4.25,2.44-10.13,2.54-14.13-.49-4.36-3.31-4.73-9.87-2.41-14.48Z"/>
<path d="M199.91,353.74c-1.1-2.97-3.75-2.87-6.48-3.08-3.54-.27-7.07-.53-10.61-.8-12.04-.91-24.08-1.86-36.12-2.73,2.88-34.18-1.98-68.33-5.49-102.29-1.8-17.42-3.05-34.86-3.24-52.38-.18-17.6,.39-35.19,.72-52.78,.36-19.59,.4-39.22-1.25-58.77,.64-.05,1.28-.13,1.91-.24,1.22-.21,2.23-.56,2.39-1.93,.18-1.49-.21-3.26-.32-4.76-.09-1.22,.12-3.12-.57-4.2-.73-1.15-2.27-.97-3.45-1.02-1.76-.09-3.53-.17-5.29-.25,.03-2.4-.03-4.8-.23-7.19-.17-1.97-.1-4.28-2.58-4.5-2.58-.22-5.24-.12-7.84-.12,.72-8.44,.97-16.92,.7-25.39-.14-4.43-.38-8.87-.85-13.28-.1-.98-.29-1.96-.79-2.76,.76-.24,1.51-.54,2.23-.91,.7-.36,.6-1.34,0-1.73-3.47-2.23-4.98-6.43-8.48-8.71-3.57-2.32-8.1-3.13-12.25-3.62-4.48-.53-9.07-.39-13.47,.63-4.01,.94-8.66,2.63-11.43,5.83-1.4,1.61-2.11,3.58-2.74,5.59-.65,2.03-1.26,4.09-2.94,5.5-.7,.59-.09,1.68,.71,1.71,.6,.02,1.2,.05,1.81,.07,.01,0,.02,0,.03,0,0,.32,0,.65,.01,.97,.05,2.24,.11,4.48,.17,6.73,.28,9.96,.67,19.93,1.16,29.88,0,.14,.05,.26,.1,.37-.04,.17-.06,.35-.05,.53,0,.13,.03,.27,.05,.4,0,.05,.02,.1,.04,.15,.04,.12,.09,.25,.15,.36,0,0,0,0,0,0-5,.49-9.99,1.02-14.97,1.63-.69,.08-1.07,.57-.96,1.27,.3,1.88,.59,3.75,.89,5.63-.11,.11-.2,.24-.24,.4-.01,.09-.02,.18-.04,.27,0,.18,.05,.35,.14,.5,.07,.1,.12,.21,.17,.32,.04,.11,.07,.22,.09,.34-1.49,.1-2.98,.18-4.47,.28-.53,.04-1.01,.43-1,1,.06,2.45,.12,4.9,.17,7.35,0,.36,.18,.61,.4,.77-.05,.1-.09,.21-.11,.33-.06,.48,.23,.98,.72,1.1,.75,.18,1.52,.23,2.28,.14,.29,.02,.58,.03,.87,.05,.01,1.73,.03,3.46,.04,5.19,0,.13,.03,.23,.07,.33-.4,.1-.75,.4-.76,.92-1.09,34-1.94,68.01-2.57,102.03-.62,33.84-1.01,67.69-1.17,101.53-.09,19.09-.11,38.19-.05,57.28,0,.14,.03,.25,.07,.36-.56,.03-1.11,.07-1.67,.1-6.93,.37-13.86,.41-20.8,.49-6.42,.07-12.89,.32-19.18,1.67-3.06,.65-6.02,1.6-8.89,2.83-.15,.06-.26,.15-.35,.24-.06,.02-.11,.04-.17,.05-.03-.01-.05-.03-.08-.04l-.27-.04c-.18,0-.35,.05-.5,.14-.22,.11-.45,.21-.67,.32-.2,.09-.39,.35-.45,.56-.22,.11-.39,.31-.46,.63-1.23,5.51-1.7,11.16-1.4,16.78-.37,.39-.33,1.1,.1,1.49,.03,.41,.06,.82,.1,1.23-.66,.39-.76,1.58,.2,1.83,26.91,7.1,54.85,8.93,82.58,9.06,28.68,.14,57.39-1.01,86.04-2.16,7.12-.28,14.24-.58,21.36-.88,1.82-.08,3.64-.14,5.46-.23,1.24-.06,2.56-.16,3.66-.81,2.46-1.45,2.21-5.24,2.34-7.7,.18-3.43,.07-6.88-.33-10.29-.37-3.16-.8-6.57-1.91-9.56ZM74.43,17.8c-.06-.04-.13-.07-.21-.1,1.52-2.24,1.9-5.1,3.06-7.57,1.77-3.79,6.12-5.64,9.91-6.77,4.23-1.27,8.68-1.58,13.07-1.23,4.1,.32,8.67,1.04,12.29,3.1,3.35,1.91,4.98,5.52,7.75,8.02-.67,.24-1.35,.4-2.04,.5-1.06-.27-2.21-.21-3.28-.12-8.76,.74-17.51,1.53-26.27,2.3-2.23,.2-4.46,.39-6.69,.59-2.1,.19-4.34,.17-6.4,.59-.57,.12-.94,.37-1.19,.7Zm2.98,40.36c.02-.21,.04-.42,.06-.62-.01-.09-.02-.18-.04-.27-.02-.1-.08-.18-.14-.26-.4-8.07-.73-16.13-.99-24.21-.13-3.99-.24-7.97-.33-11.96,0-.29-.18-1.25-.03-1.49,.27-.47,.58-.34,1.13-.39,.99-.09,1.98-.18,2.97-.26,2.15-.19,4.3-.38,6.44-.57,7.93-.7,15.86-1.4,23.79-2.09,1.49-.13,2.99-.3,4.49-.41,.12,.07,.26,.12,.41,.14,.99,.13,1.97,.13,2.94,.03,1.11,.49,1.14,1.68,1.24,2.74,.37,3.93,.62,7.86,.77,11.8,.33,8.8,.09,17.62-.66,26.4-2.26,0-4.51,.01-6.77,.06-11.08,.21-22.15,.86-33.19,1.86-.66,.06-1.31,.13-1.97,.19,0-.06,.02-.12,.02-.18,0-.18-.05-.34-.13-.49Zm45.61,.56c1.48,.01,2.96,.03,4.43,.06,.45,0,1.52-.18,1.92,.06,.52,.31,.4,1.44,.45,2,.23,2.53,.31,5.07,.28,7.61-2.85-.11-5.7-.22-8.55-.29-13.87-.37-27.75-.29-41.61,.21-5.75,.21-11.5,.52-17.25,.89v-.63c-.02-.19-.09-.38-.2-.54,.06-.16,.09-.33,.06-.53-.26-1.68-.53-3.36-.79-5.03,20.32-2.45,40.78-3.96,61.25-3.8Zm-63.86,19.51c-.17,.05-.35,.08-.52,.11-.44-.02-.87-.05-1.31-.07,.02-.08,.05-.16,.05-.26l-.15-6.41c24.39-1.73,48.87-2.12,73.3-1.14,.3,.18,.69,.19,1.02,.04,1.79,.07,3.57,.16,5.36,.24,.6,.03,1.92-.19,2.3,.37,.08,.12,.06,.76,.07,.96,.04,.48,.07,.96,.11,1.44,.07,.88,.13,1.76,.2,2.64,.02,.32,.39,2.2,.17,2.46-.03,.03-.63,.09-.7,.1-.55,.08-1.09,.18-1.64,.23-.96,.09-1.92,.09-2.88,.04-.44-.02-.72,.21-.86,.51-18.8-.91-37.63-1.32-56.45-1.18-5.44,.04-10.88,.13-16.32,.26-.13-.07-.28-.12-.45-.13-.15,0-.3-.02-.44-.02-.24-.18-.54-.28-.86-.19Zm.12,65.85c.46-19.09,1-38.17,1.61-57.26,0-.12-.03-.22-.06-.32,.4-.09,.75-.39,.75-.93-.01-1.67-.03-3.35-.04-5.02,19.39-.45,38.8-.35,58.19,.33,5.25,.18,10.5,.41,15.74,.68,1.95,23.8,1.43,47.64,.91,71.49-19.58-1.99-39.31-2.52-58.97-1.55-5.29,.26-10.58,.64-15.85,1.11-.06-.03-.11-.07-.18-.09-.4-.11-.83-.16-1.24-.12-.24,.02-.49,.06-.72,.12-.12,.03-.22,.09-.34,.14,.07-2.86,.12-5.72,.19-8.58Zm-1.78,101.52c.33-30.32,.85-60.65,1.54-90.97,.18,.03,.36,0,.53-.05,.05,.02,.1,.04,.16,.07,.18,.05,.35,.05,.53,0,.03,0,.06-.01,.09-.02,.11,.03,.23,.05,.37,.04,19.78-1.82,39.7-2.15,59.53-.95,5.38,.32,10.74,.77,16.1,1.31-.23,10.52-.44,21.04-.43,31.55,.03,17.54,.98,35,2.69,52.45,.31,3.21,.65,6.42,.99,9.62-21.45,.12-43.04-.24-64.38,2.26-5.97,.7-11.91,1.63-17.79,2.86,.03-2.73,.04-5.46,.07-8.19Zm-.09,10.12c.14,.04,.3,.05,.47,.01,20.99-4.41,42.52-4.81,63.89-4.96,6.01-.04,12.02-.07,18.04-.11,1.44,13.49,3.02,26.97,4.16,40.5,1.57,18.56,2.29,37.24,.74,55.82-1.79-.13-3.58-.26-5.37-.38-6.83-.47-13.67-.87-20.51-1.12-.51-13.53-.49-27.08,.08-40.61,0-.11-.02-.19-.05-.28,.02-.14,.04-.28,.07-.43,.04-.28,.05-.52-.1-.77-.03-.05-.07-.08-.11-.12v-.41c.44-.59,.19-1.64-.75-1.62-15.06,.35-30.11,.93-45.14,1.76-.5,.03-1.05,.44-1,1,.13,1.51,.27,3.02,.4,4.53,0,.08,.04,.15,.07,.22-.09,.14-.15,.3-.14,.51,.28,12.5,.56,25,.84,37.5-5.31,.4-10.62,.81-15.93,1.14,.02-.08,.05-.15,.05-.24-.09-30.65,.02-61.29,.3-91.94Zm41.65,52.75c5.92-.16,11.83-.32,17.75-.48-.45,12.47-.45,24.95,.02,37.43-6.11-.19-12.22-.24-18.33-.1,.6-12.01,.93-24.03,.99-36.05,0-.38-.18-.64-.43-.79Zm-20.5,1.8l.02-.02c.09-.16,.14-.32,.14-.5,0-.06,0-.11,0-.17,0-.06-.01-.12-.02-.17,0-.05-.01-.11-.02-.17,0-.03-.01-.06-.02-.09,0-.03-.02-.05-.03-.08,0-.01-.01-.02-.02-.03,6.42-.18,12.84-.35,19.26-.53-.22,.16-.37,.41-.38,.76-.06,12.04-.39,24.07-.99,36.1-.08,0-.17,0-.25,0-5.89,.19-11.76,.56-17.64,.98,.02-11.87,.04-23.75,.05-35.62,0-.18-.04-.32-.11-.45Zm0-5.49s-.04,0-.06,0c-.01-.03-.02-.06-.03-.08,.07,0,.13,0,.2-.01-.04,.02-.07,.06-.11,.09Zm8.06,2.02c.12-.01,.24-.02,.37-.04,0,0,.01,.02,.02,.03-.13,0-.25,0-.38,.01Zm-9.96,16.53c0,1.03,0,2.05,0,3.08-.01-.1-.03-.19-.07-.28,.02-.93,.05-1.87,.07-2.8Zm-.19-16.47c-.06,.04-.12,.1-.18,.15,.03-.07,.05-.14,.08-.2h.08s.01,.04,.02,.06Zm-2.15,1.94s-.07,.04-.11,.06c.02-.06,.02-.13,.02-.21,.03,.05,.05,.1,.08,.15Zm125.9,63.48s-.04-.01-.06-.01c-14.28,.04-28.57,.09-42.85,.13-1.29,0-1.29,2,0,2,14.28-.04,28.56-.09,42.83-.13-.07,1.4-.02,3.18-.6,4.44-.68,1.48-2.74,1.35-4.11,1.4-7.04,.3-14.07,.59-21.11,.88-27.69,1.13-55.4,2.2-83.11,2.35-26.85,.14-53.9-.92-80.22-6.64-2.83-.62-5.65-1.3-8.46-2.02,0-.03,.01-.05,0-.08-.03-.35-.05-.69-.08-1.04,11.36,.68,22.75,.91,34.13,.69,1.29-.03,1.29-2.03,0-2-11.43,.23-22.86-.01-34.27-.7-.2-3.99,0-7.98,.58-11.92,4.8-.15,9.59-.3,14.39-.45,1.28-.04,1.29-2.04,0-2-4.68,.15-9.37,.29-14.05,.44,.13-.69,.27-1.39,.42-2.08,.26-.04,.52-.09,.77-.16,.38,.21,.85,.18,1.19-.14l.52-.5s.07-.1,.1-.14c11.81-4.88,24.98-3.84,37.48-4.11,13.78-.31,27.51-1.72,41.26-2.58,10.77-.68,21.52-.72,32.25-.39,.37,.33,.98,.34,1.35,.05,8.67,.28,17.33,.8,26,1.4-.02,.18-.03,.37-.05,.55-.12,1.28,1.88,1.27,2,0,.01-.14,.02-.27,.03-.41,7.32,.52,14.65,1.1,21.97,1.66l20.73,1.57c1.65,.12,3.29,.25,4.94,.37,1.73,.13,3.28,0,3.93,1.89,.35,1.01,.61,2.07,.85,3.15-12.07-.07-24.14-.13-36.22-.2-1.29,0-1.29,1.99,0,2,12.2,.07,24.41,.13,36.61,.2,.25,1.5,.44,3.01,.59,4.48,0,.02,0,.05,0,.07-9.66,.16-19.31,.32-28.97,.47-1.29,.02-1.29,2.02,0,2,9.71-.16,19.42-.32,29.13-.48,.13,2,.17,4,.11,6Z"/></g></g></g></svg>
