<svg id="Libellule" xmlns="http://www.w3.org/2000/svg" viewBox="0 0 357.76 248.17">
<g id="Calque_4"><g>
<path class="cls-1" d="M201.36,84.36c.27-.04,.56,.01,.82,.23,1.2,1,2.81,.82,3.83-.06-.05-.49,.21-1.02,.79-1.13,.13-.33,.2-.69,.2-1.08-.02-1.27-.91-2.44-1.6-3.45-.71-1.04-1.48-2.03-2.3-2.98-1.67-1.92-3.55-3.67-5.61-5.17-.52-.38-1.06-.75-1.6-1.1-.29-.19-.59-.37-.89-.55-.09-.05-.17-.1-.26-.15-.16-.13-.19-.12-.1,.01-.2,.06-.63,.56-.79,.7-.26,.23-.53,.47-.79,.7-.6,.53-1.2,1.06-1.8,1.59,1.06,.54,2.02,1.27,2.89,2.11,3.02,2.9,5.42,6.56,7.2,10.35Z"/>
<path class="cls-1" d="M163.8,86.61c.96-1.52,2.03-2.97,3.2-4.34-.24-.12-.49-.25-.73-.37-.03-.02-.07-.02-.1-.04-2.14-1.35-4.28-2.71-6.4-4.09-16.78-10.82-33.17-22.32-48.5-35.13-7.7-6.43-15.13-13.19-22.17-20.34-3.31-3.36-6.45-6.88-9.74-10.26-3.1-3.18-6.45-6.23-10.48-8.19-3.96-1.93-9.56-3.11-13.1,.27-3.46,3.3-4.3,8.59-3.99,13.15,.33,4.78,1.86,9.41,3.54,13.86,1.55,4.11,3.29,8.14,5.3,12.05,3.97,7.71,9,15,15.64,20.65,3.43,2.92,7.27,5.29,11.39,7.09,4.79,2.09,9.87,3.44,14.88,4.86,10.31,2.92,20.47,6.34,30.43,10.3,4.79,1.9,9.55,3.88,14.21,6.07,4,1.88,7.86,4.02,11.32,6.75,1.19-4.32,2.92-8.5,5.31-12.29Z"/>
<path class="cls-1" d="M160.03,100.74c-.04,.22-.17,.42-.35,.57v.19s0,.05,0,.07c.2,.08,.4,.18,.61,.31,1.73,1.06,3.4,2.43,4.93,3.76,1.53,1.32,2.94,2.81,4.03,4.52,.37,.58,.83,1.32,1.13,2.08,1.03-.77,2.07-1.53,3.12-2.27,1.01-.7,2.1-1.12,3.27-.5,1.43,.76,2.66,2.19,3.88,3.25,1.1,.96,2.2,1.92,3.3,2.88,.31-.51,.62-1.01,.79-1.56,.34-1.12-2.15-2.11-2.97-2.61-2.59-1.6-5.17-3.19-7.76-4.79-.35-.22-.62-.71-.46-1.13,1.32-3.44,2.74-6.85,4.27-10.2,.75-1.64,1.52-3.26,2.32-4.88,.67-1.35,1.3-2.78,2.35-3.88,4.55-4.74,11.35-.7,16.89-1.73-1.78-3.67-4.15-7.31-7.24-9.94-3.38-2.88-7.6-1.82-11.37-.33-3.47,1.38-6.66,3.48-9.4,6.01-5.77,5.33-9.38,12.53-11.28,20.07-.01,.05-.04,.07-.06,.12Z"/>
<path class="cls-1" d="M199.09,57.8c2.17-.56,4.39-.94,6.62-1.17,.19-.02,.39-.04,.6-.07-.46-1.27-1.15-2.49-2.23-3.32-1.44-1.1-3.25-1.09-4.92-.58-2.8,.87-6.31,3.85-4.58,7.08,1.15-1.15,3-1.56,4.51-1.94Z"/>
<path class="cls-1" d="M198,60.17c-.8,.24-1.78,.52-2.25,1.27-.49,.78-.27,1.86-.2,2.72,.09,.98,.11,1.9-.16,2.85,.73,.26,1.42,.81,2.01,1.2,2.22,1.48,4.28,3.21,6.11,5.15,1.77,1.86,3.54,3.98,4.73,6.26,.58,1.11,.82,2.36,.65,3.53,.56-.09,1.12-.21,1.67-.36,.52-.14,2.66-.62,2.89-1.13,.24-.54-.65-1.99-.86-2.57-.4-1.13-.75-2.29-1.04-3.45-1.05-4.16-1.45-8.51-1.15-12.8,.07-.99,.19-1.97,.32-2.96,.09-.72,.26-1.23-.58-1.45-.47-.12-1.1-.01-1.58,0-2.3,.09-4.59,.35-6.85,.81-1.25,.25-2.49,.56-3.71,.93Z"/>
<path class="cls-1" d="M213.37,74.67c.51,2.12,1.34,4.08,2.03,6.15,.05,.14,.06,.26,.08,.39,6.53-1.87,12.41-7.06,11.96-14.39-.41-6.64-7.62-11.13-13.76-8.39-.06,.03-.11,.02-.17,.04-.08,.08-.16,.16-.24,.24-.12,.12-.27,.21-.44,.26-.01,0-.03,0-.04,0,.01,.75-.15,1.56-.23,2.3-.25,2.17-.31,4.36-.19,6.53,.13,2.32,.47,4.61,1.01,6.87Z"/>
<path class="cls-1" d="M183.01,117.43c-2.07-1.81-4.13-3.63-6.21-5.43-.62-.53-1.02-1.04-1.84-.61-.56,.29-1.08,.77-1.59,1.14l-2.93,2.14c-.07,.14-.16,.29-.28,.42-.55,.64-1.33,.86-2.06,1.2-.96,.45-1.5,1.14-1.74,2.18-.53,2.27,.36,4.87,.38,7.18,0,.95,.05,2.16-.12,3.28,.02,.06,.04,.11,.05,.17,.25,2.98,0,5.95-.52,8.89-1.09,6.08-3.32,11.87-4.53,17.92-1.26,6.31-.87,12.69,.94,18.86,3.59,12.25,11.99,22.22,20.92,31.02,9.01,8.88,18.75,17.14,30.36,22.42,11.83,5.39,24.77,8.15,37.38,11.09,6.78,1.58,13.62,3.02,20.55,3.76,6.41,.68,13.19,1.06,19.39-1.02,5.25-1.76,11.14-6.19,11.54-12.19,.21-3.11-1.62-5.87-3.55-8.14-1.91-2.24-4.15-4.19-6.53-5.91-4.79-3.46-10.07-6.2-15.18-9.15-5.38-3.11-10.72-6.28-15.99-9.56-10.21-6.38-20.15-13.21-29.46-20.85-9.54-7.83-18.31-16.54-25.93-26.26-8.06-10.28-15.03-21.34-22.89-31.77-.21-.28-.23-.55-.15-.78Z"/>
<path class="cls-1" d="M349.56,103.08c-21.58-12.35-47.56-5.13-70.83-4.29-25.73,.93-51.1-4.71-76.06-10.27-.42-.09-.63-.38-.69-.7-.1-.02-.2-.05-.3-.07-.26-.06-.46-.24-.6-.46-.15-.23-.16-.51-.1-.77,0-.02,.02-.04,.03-.06-3.18,1.06-6.39,.28-9.62-.12-2.49-.31-5.64-.36-7.51,1.62-1.06,1.13-1.68,2.73-2.35,4.11-.72,1.48-1.42,2.96-2.1,4.46-1.32,2.91-2.54,5.86-3.7,8.83,3.04,1.88,6.09,3.74,9.12,5.64,.27,.17,.53,.34,.77,.53,.1,.03,.2,.07,.3,.13,1.92,1.28,3.74,2.68,5.49,4.17,7.23,6.18,13.02,13.8,19.89,20.35,3.39,3.23,7.07,6.19,11.22,8.38,5.1,2.69,10.75,3.91,16.48,4.24,5.93,.35,11.88-.1,17.8-.51,5.96-.41,11.91-.89,17.84-1.53,11.81-1.27,23.59-3.15,35.06-6.3,10.98-3.02,22.08-7.08,31.66-13.33,4.47-2.92,8.63-6.49,11.7-10.89,1.55-2.22,3.45-5.06,2.33-7.86-.99-2.48-3.66-4.04-5.86-5.3Z"/>
<path class="cls-1" d="M166.66,114.76c.49-.28,1.22-.37,1.65-.73,1.04-.88-1.36-3.74-2.02-4.51-1.06-1.24-2.28-2.33-3.55-3.35-.7-.56-1.43-1.1-2.16-1.63-.63-.46-1.63-1.52-2.47-1.03-.7,.41-1.3,1.59-1.77,2.24-.53,.72-1.05,1.45-1.55,2.19-2.14,3.15-3.98,6.48-5.56,9.95-.05,.11-.12,.18-.18,.25,4.5,1.43,8.98,3.91,11.25,8.21,.66,1.25,1.11,2.61,1.32,3.99,.75,.1,1.67,.18,2.3-.21,.83-.51,.72-1.98,.77-2.84,.13-2.24-.22-4.39-.41-6.62-.13-1.53,.02-3.14,.87-4.46,.38-.59,.89-1.09,1.5-1.44Z"/>
<path class="cls-1" d="M147.01,117.85c.15-.12,.31-.18,.46-.21-.08-.23-.09-.5,.04-.77,1.43-3.15,3.12-6.17,5.01-9.06-.15,0-.3,.02-.44,.03-.12,0-.23,.01-.35,.02-.14,.08-.31,.14-.52,.13-.25-.01-.49-.04-.74-.05-.25,.02-.5,.03-.75,.05-.18,.01-.33-.05-.47-.13-1.98-.13-3.95-.29-5.92-.49-21.07-2.13-41.62-7.94-61.15-16.04-9.75-4.04-19.27-8.63-28.56-13.63-4.74-2.55-9.42-5.22-14.05-7.97-4.61-2.74-9.04-5.87-13.75-8.43-2.37-1.29-5.17-2.24-7.77-1.04-2.16,.99-3.71,2.99-4.83,5.03-2.45,4.47-3.04,9.77-2.41,14.78,.69,5.46,2.85,10.64,5.43,15.46,2.51,4.68,5.38,9.22,8.71,13.36,6.66,8.26,15.23,14.06,24.87,18.34,5.04,2.23,10.24,4.14,15.5,5.78,5.51,1.72,11.16,3.1,16.92,3.63,5.47,.51,10.95,.21,16.29-1.07,4.85-1.16,9.52-2.96,14.16-4.77,8.95-3.51,18.17-7.27,27.95-6.73,1.89-2.25,3.99-4.33,6.38-6.2Z"/>
<path class="cls-1" d="M147.75,119.83c-1.96,1.6-3.81,3.35-5.48,5.25,.04,.49-.24,.97-.82,.99-.38,.46-.77,.92-1.13,1.4-1.19,1.58-2.24,3.24-3.22,4.95-.86,1.5-1.76,2.94-3.23,3.92-1.48,.98-3.24,1.4-4.83,2.17-1.63,.79-3.14,1.81-4.48,3.03-1.24,1.14-2.34,2.42-3.24,3.85-.87,1.37-1.38,2.98-2.35,4.28-.92,1.23-2.11,1.73-3.62,1.83-1.4,.1-2.59,.15-3.81,.93-2.31,1.47-3.77,4.03-5.55,6.04-1.88,2.12-4.26,3.63-6.65,5.1-2.41,1.48-5,3.01-6.61,5.41-1.36,2.03-1.99,4.77-4.11,6.22-1.13,.77-2.31,.79-3.61,.6-1.78-.25-3.04,.19-4.36,1.43-1.14,1.07-2.05,2.35-3.04,3.55-1.15,1.41-2.37,2.76-3.64,4.07-2.49,2.56-5.16,4.95-7.83,7.31-2.9,2.56-5.81,5.12-8.72,7.69-1.62,1.43-3.24,2.86-4.87,4.29-1.1,.97-2.21,2.13-3.52,2.83-.7,.37-1.46,.6-2.26,.59-.82-.02-1.59-.44-2.41-.42-1.21,.03-2.09,1-2.82,1.86-.97,1.15-1.77,2.45-2.86,3.49-1.08,1.04-2.36,1.86-3.63,2.65-6.45,4.01-12.98,7.9-19.4,11.96-5.27,3.34-10.48,7.14-13.61,12.66,.53,2.48,2.32,4.38,4.62,5.45,3.07,1.43,6.64,1.05,9.83,.24,5.96-1.52,11.89-4.25,16.72-8.09,4.29-3.41,7.15-7.86,10.42-12.17,1.52-2,3.14-3.94,5.1-5.53,1.8-1.46,3.8-2.62,5.87-3.65,3.98-1.99,8.43-3.53,11.77-6.59,1.74-1.59,2.55-3.6,3.93-5.44,1.66-2.22,4.17-2.14,6.56-3.02,2.51-.92,4.53-2.61,6.13-4.73,.8-1.06,1.58-2.09,2.8-2.69,1.1-.53,2.3-.66,3.46-.98,2.62-.73,4.72-2.58,6.66-4.41,2.38-2.24,4.74-4.5,7.1-6.76,2.21-2.1,4.34-4.36,6.7-6.3,2.2-1.8,4.91-2.34,7.36-3.66,4.36-2.35,7.71-6.34,9.29-11.04,.16-.47,.71-.9,1.23-.7,4.69,1.84,9.38-2.4,12.47-5.44,3-2.95,5.62-6.25,8.6-9.21,1.42-1.41,2.92-2.72,4.53-3.9,1.61-1.19,3.33-2.29,4.66-3.81,2.79-3.18,2.34-7.78,.07-11.12-2.32-3.41-6.3-5.27-10.15-6.39Z"/>
<path d="M353.29,103.07c-2.28-1.66-4.87-2.96-7.46-4.07-5.19-2.23-10.7-3.57-16.29-4.3-12.62-1.64-25.3,0-37.88,1.18-13.26,1.25-26.42,1.25-39.67-.23-13.21-1.48-26.25-4.11-39.23-6.94-2.45-.53-4.9-1.08-7.34-1.62,.66-.18,1.3-.48,1.86-.96,.31-.26,.55-.55,.77-.86,1.75-.18,3.46-.57,5.1-1.26,.51-.21,1.02-.46,1.43-.76,.19,.1,.42,.16,.69,.09,6.23-1.53,12.12-5.75,13.75-12.24,1.51-6.02-1.12-12.25-7.01-14.59-2.98-1.18-6.27-1.13-9.21,.13-.05,0-.1,.01-.15,.02-.17,.05-.32,.13-.44,.26-.07,.07-.13,.13-.2,.2-.14-.12-.29-.24-.49-.34-.89-.46-2.04-.51-3.19-.43-.61-1.88-1.64-3.65-3.26-4.83-1.95-1.41-4.47-1.45-6.69-.7-2.06,.69-4.01,1.93-5.2,3.78-1.21,1.87-1.41,4.34-.29,6.29,.18,.32,.46,.45,.74,.47-.44,1.67,.3,3.45-.19,5.14-.09,.3-.04,.56,.09,.76-.59,.4-1.11,.95-1.63,1.42-.7,.62-1.4,1.24-2.11,1.86-.24,.22-.33,.47-.32,.71-.19-.05-.38-.09-.58-.12-2.09-.34-4.22,.07-6.24,.66-5.5,1.61-10.37,4.82-14.29,8.95-.22-.12-.44-.24-.65-.35-.07-.04-.15-.05-.23-.07-.11-.05-.21-.11-.32-.16-.01,0-.03,0-.05-.02-17.55-11.09-34.74-22.8-50.85-35.9-8.07-6.57-15.87-13.47-23.27-20.79-3.59-3.55-7.03-7.24-10.48-10.92-3.05-3.25-6.24-6.45-10-8.87C68.87,1.29,64.37-.45,59.97,.1c-4.67,.58-7.66,4.15-9.16,8.39-3.2,9.02,.8,19.17,4.28,27.5,3.42,8.2,7.69,16.12,13.46,22.93,6.09,7.18,13.67,12.35,22.54,15.49,4.98,1.76,10.12,3.04,15.19,4.55,5.26,1.56,10.48,3.27,15.65,5.11,5.24,1.87,10.44,3.87,15.57,6.02,4.94,2.06,9.92,4.16,14.55,6.85,1.99,1.15,3.88,2.45,5.66,3.9,0,.05-.02,.09-.02,.14v.53s0,.02,0,.03c-.72,.31-1.36,.96-1.98,1.75-.65,.84-1.27,1.7-1.88,2.56-.12-.03-.24-.06-.36-.07-.27-.03-.54,0-.81,.03-.32,.02-.64,.04-.96,.06-.41,.03-.83,.05-1.24,.08-21.75-1.34-43.04-6.76-63.28-14.72-10.34-4.07-20.41-8.8-30.23-13.99-9.72-5.14-19.06-10.86-28.41-16.63-2.18-1.34-4.54-2.62-7.13-2.85-2.39-.22-4.63,.64-6.46,2.15-3.73,3.1-5.56,8.24-6.16,12.91-1.38,10.77,3.73,21.11,9.34,29.95,5.78,9.11,13.15,16.73,22.54,22.12,4.66,2.67,9.59,4.83,14.6,6.74,5.41,2.07,10.91,3.93,16.55,5.27,5.53,1.32,11.22,2.13,16.91,1.98,5.44-.14,10.73-1.27,15.88-2.97,9.69-3.19,18.96-8.19,29.18-9.58,1.75-.24,3.52-.34,5.28-.31-1.48,1.94-2.84,3.99-4.12,6.15-.9,1.51-1.92,2.53-3.55,3.24-1.35,.59-2.74,1.04-4.04,1.74-2.52,1.35-4.75,3.25-6.52,5.5-.76,.96-1.43,1.98-2.01,3.06-.65,1.22-1.14,3.12-2.57,3.66-1.26,.47-2.76,.1-4.08,.55-1.08,.37-2.03,.99-2.89,1.72-2.01,1.71-3.38,4.03-5.18,5.93-1.84,1.93-4.15,3.27-6.4,4.66-2.14,1.33-4.32,2.74-5.94,4.71-1.55,1.89-2.12,4.69-3.93,6.33-1.03,.94-2.14,.57-3.4,.45-1.39-.13-2.72,.25-3.88,1.03-2.4,1.61-3.97,4.23-5.85,6.36-4.64,5.25-10.11,9.74-15.35,14.36-2.75,2.42-5.49,4.84-8.24,7.26-1.06,.93-2.42,2.57-3.9,2.81-.76,.12-1.55-.25-2.3-.34-.63-.08-1.25-.03-1.86,.16-2.32,.74-3.54,3.14-5.02,4.88-2.13,2.51-5.39,4.04-8.15,5.74-5.88,3.62-11.87,7.09-17.61,10.94-4.63,3.1-9.33,6.82-12,11.83-1.13,2.11,1.24,5.2,2.78,6.53,2.04,1.75,4.56,2.67,7.23,2.87,3.33,.25,6.66-.62,9.79-1.67,2.93-.99,5.8-2.21,8.52-3.69,5.27-2.88,9.56-6.78,13.12-11.59,1.89-2.55,3.63-5.22,5.77-7.58,1.89-2.08,4.07-3.71,6.53-5.04,4.46-2.42,9.46-4.02,13.36-7.38,.86-.75,1.64-1.58,2.32-2.49,.88-1.18,1.4-2.66,2.37-3.76,1.07-1.22,2.7-1.27,4.17-1.67,1.34-.36,2.64-.92,3.82-1.63,1.18-.71,2.28-1.6,3.22-2.62,1.05-1.13,1.79-2.75,3.14-3.54,1.23-.72,2.78-.72,4.1-1.2,1.5-.54,2.83-1.37,4.08-2.34,2.59-2.01,4.88-4.42,7.25-6.68,2.64-2.51,5.26-5.04,7.91-7.53,1.33-1.24,2.65-2.2,4.35-2.85,1.45-.56,2.89-1.08,4.25-1.85,2.32-1.31,4.42-3.08,6.1-5.15,1.45-1.79,2.58-3.78,3.41-5.92,4.12,1.08,8.24-1.56,11.29-4.15,3.68-3.12,6.66-6.95,10-10.41,1.74-1.81,3.59-3.46,5.63-4.94,1.76-1.27,3.57-2.53,4.92-4.25,1.34-1.72,1.98-3.75,2.03-5.82,1.02,.09,2.09,.06,2.99-.39-.11,5.51-1.73,10.86-3.23,16.16-1.75,6.21-3.13,12.43-2.5,18.92,1.24,12.82,8.19,24.04,16.6,33.45,4.32,4.85,9.02,9.39,13.87,13.7,4.8,4.26,9.88,8.25,15.38,11.57,11.27,6.8,24.08,10.23,36.76,13.31,6.88,1.67,13.76,3.37,20.73,4.63,6.69,1.21,13.6,2.15,20.42,1.82,5.89-.29,11.81-1.82,16.38-5.7,4.43-3.77,7.07-9.72,4.34-15.25-2.61-5.29-7.79-9.24-12.63-12.37-5.12-3.3-10.53-6.16-15.79-9.23-10.96-6.41-21.76-13.14-32-20.65-10.1-7.41-19.66-15.61-28.11-24.88-9.07-9.95-16.46-21.22-24.21-32.19-1.83-2.59-3.69-5.15-5.59-7.69,.02-.04,.04-.08,.06-.12,.33-1.01,1.11-1.85,1.45-2.85,15.38,11.22,24.55,30.88,44.47,35.17,5.97,1.29,12.13,1.29,18.2,1,6.12-.3,12.24-.77,18.34-1.31,12.11-1.08,24.2-2.65,36.05-5.4,11.66-2.72,23.27-6.56,33.81-12.3,4.66-2.53,9.12-5.54,12.89-9.29,1.94-1.93,3.7-4.06,5.17-6.37,1.42-2.23,2.65-4.85,1.97-7.55-.59-2.34-2.39-4.1-4.28-5.47ZM212.55,61.26c.08-.73,.24-1.54,.23-2.3,.01,0,.03,0,.04,0,.17-.05,.32-.13,.44-.26,.08-.08,.16-.16,.24-.24,.06-.02,.11-.01,.17-.04,6.14-2.73,13.35,1.76,13.76,8.39,.45,7.32-5.43,12.52-11.96,14.39-.02-.13-.04-.25-.08-.39-.68-2.06-1.51-4.02-2.03-6.15-.54-2.25-.88-4.55-1.01-6.87-.12-2.18-.06-4.37,.19-6.53Zm-3.98-2.83c.48-.02,1.11-.13,1.58,0,.84,.22,.68,.74,.58,1.45-.13,.98-.25,1.97-.32,2.96-.31,4.29,.09,8.64,1.15,12.8,.29,1.17,.64,2.32,1.04,3.45,.21,.59,1.1,2.04,.86,2.57-.23,.51-2.37,.99-2.89,1.13-.55,.15-1.11,.27-1.67,.36,.16-1.17-.07-2.41-.65-3.53-1.19-2.29-2.96-4.4-4.73-6.26-1.84-1.94-3.9-3.66-6.11-5.15-.59-.39-1.28-.94-2.01-1.2,.27-.95,.25-1.87,.16-2.85-.08-.86-.3-1.94,.2-2.72,.48-.75,1.45-1.02,2.25-1.27,1.22-.37,2.46-.67,3.71-.93,2.26-.46,4.55-.73,6.85-.81Zm-9.41-5.76c1.67-.52,3.48-.52,4.92,.58,1.08,.82,1.77,2.05,2.23,3.32-.21,.03-.41,.05-.6,.07-2.23,.23-4.44,.61-6.62,1.17-1.51,.39-3.35,.79-4.51,1.94-1.73-3.23,1.78-6.21,4.58-7.08Zm-6.09,17.65c.26-.23,.53-.47,.79-.7,.16-.14,.59-.64,.79-.7-.09-.13-.06-.14,.1-.01,.09,.05,.17,.1,.26,.15,.3,.18,.59,.36,.89,.55,.54,.35,1.08,.72,1.6,1.1,2.06,1.5,3.94,3.25,5.61,5.17,.83,.95,1.59,1.94,2.3,2.98,.69,1.01,1.58,2.17,1.6,3.45,0,.39-.07,.75-.2,1.08-.58,.11-.85,.64-.79,1.13-1.02,.89-2.63,1.06-3.83,.06-.26-.22-.55-.27-.82-.23-1.78-3.79-4.18-7.45-7.2-10.35-.87-.83-1.83-1.57-2.89-2.11,.6-.53,1.2-1.06,1.8-1.59Zm-21.7,10.23c2.74-2.53,5.93-4.63,9.4-6.01,3.77-1.49,7.99-2.55,11.37,.33,3.09,2.63,5.46,6.28,7.24,9.94-5.53,1.02-12.34-3.01-16.89,1.73-1.05,1.1-1.69,2.53-2.35,3.88-.8,1.61-1.57,3.24-2.32,4.88-1.53,3.36-2.95,6.76-4.27,10.2-.16,.42,.11,.91,.46,1.13,2.59,1.6,5.17,3.19,7.76,4.79,.82,.51,3.31,1.49,2.97,2.61-.17,.55-.48,1.05-.79,1.56-1.1-.96-2.2-1.92-3.3-2.88-1.21-1.06-2.45-2.48-3.88-3.25-1.17-.62-2.27-.2-3.27,.5-1.05,.74-2.09,1.5-3.12,2.27-.3-.76-.76-1.5-1.13-2.08-1.09-1.71-2.5-3.19-4.03-4.52-1.53-1.33-3.2-2.69-4.93-3.76-.21-.13-.42-.22-.61-.31,0-.02,0-.05,0-.07v-.19c.18-.15,.31-.35,.35-.57,.02-.04,.04-.07,.06-.12,1.9-7.55,5.51-14.74,11.28-20.07Zm-24.21,11.6c-4.66-2.19-9.43-4.17-14.21-6.07-9.96-3.96-20.12-7.38-30.43-10.3-5.02-1.42-10.09-2.77-14.88-4.86-4.12-1.8-7.97-4.17-11.39-7.09-6.64-5.65-11.67-12.94-15.64-20.65-2.01-3.91-3.75-7.94-5.3-12.05-1.68-4.45-3.21-9.09-3.54-13.86-.31-4.56,.53-9.85,3.99-13.15,3.55-3.38,9.14-2.19,13.1-.27,4.03,1.96,7.38,5.01,10.48,8.19,3.29,3.38,6.43,6.9,9.74,10.26,7.04,7.15,14.47,13.91,22.17,20.34,15.34,12.81,31.72,24.31,48.5,35.13,2.13,1.37,4.26,2.73,6.4,4.09,.04,.02,.07,.02,.1,.04,.24,.12,.49,.25,.73,.37-1.17,1.37-2.24,2.82-3.2,4.34-2.39,3.79-4.12,7.97-5.31,12.29-3.47-2.73-7.33-4.87-11.32-6.75Zm-34.48,38.64c-4.64,1.82-9.31,3.61-14.16,4.77-5.34,1.28-10.82,1.58-16.29,1.07-5.76-.53-11.41-1.91-16.92-3.63-5.26-1.64-10.46-3.55-15.5-5.78-9.64-4.27-18.22-10.07-24.87-18.34-3.33-4.14-6.2-8.68-8.71-13.36-2.58-4.82-4.75-10-5.43-15.46-.63-5-.04-10.31,2.41-14.78,1.12-2.04,2.67-4.04,4.83-5.03,2.6-1.19,5.4-.24,7.77,1.04,4.71,2.56,9.14,5.69,13.75,8.43,4.63,2.75,9.31,5.42,14.05,7.97,9.29,5.01,18.81,9.59,28.56,13.63,19.53,8.09,40.08,13.9,61.15,16.04,1.97,.2,3.95,.35,5.92,.49,.14,.08,.3,.14,.47,.13,.25-.02,.5-.03,.75-.05,.25,.02,.49,.04,.74,.05,.21,.01,.38-.05,.52-.13,.12,0,.23-.01,.35-.02,.15,0,.3-.02,.44-.03-1.89,2.89-3.58,5.91-5.01,9.06-.12,.28-.12,.54-.04,.77-.16,.03-.32,.09-.46,.21-2.39,1.88-4.48,3.96-6.38,6.2-9.78-.54-19.01,3.23-27.95,6.73Zm45.15,6.55c-1.33,1.52-3.05,2.62-4.66,3.81-1.61,1.19-3.11,2.5-4.53,3.9-2.98,2.96-5.61,6.26-8.6,9.21-3.09,3.04-7.78,7.28-12.47,5.44-.52-.2-1.07,.23-1.23,.7-1.58,4.69-4.93,8.68-9.29,11.04-2.45,1.33-5.17,1.86-7.36,3.66-2.36,1.93-4.49,4.2-6.7,6.3-2.37,2.25-4.72,4.52-7.1,6.76-1.94,1.83-4.03,3.67-6.66,4.41-1.16,.32-2.36,.45-3.46,.98-1.22,.59-2,1.63-2.8,2.69-1.6,2.12-3.61,3.81-6.13,4.73-2.39,.88-4.9,.8-6.56,3.02-1.38,1.85-2.19,3.85-3.93,5.44-3.33,3.06-7.78,4.6-11.77,6.59-2.07,1.03-4.07,2.19-5.87,3.65-1.95,1.59-3.58,3.53-5.1,5.53-3.27,4.31-6.13,8.76-10.42,12.17-4.83,3.83-10.76,6.57-16.72,8.09-3.19,.81-6.76,1.19-9.83-.24-2.3-1.07-4.09-2.97-4.62-5.45,3.14-5.52,8.34-9.32,13.61-12.66,6.42-4.07,12.95-7.95,19.4-11.96,1.27-.79,2.54-1.61,3.63-2.65,1.09-1.05,1.89-2.34,2.86-3.49,.73-.86,1.61-1.83,2.82-1.86,.82-.02,1.59,.4,2.41,.42,.79,.02,1.56-.22,2.26-.59,1.32-.7,2.42-1.86,3.52-2.83,1.62-1.43,3.24-2.86,4.87-4.29,2.91-2.56,5.81-5.12,8.72-7.69,2.68-2.36,5.34-4.75,7.83-7.31,1.27-1.31,2.49-2.66,3.64-4.07,.98-1.21,1.9-2.48,3.04-3.55,1.32-1.23,2.57-1.68,4.36-1.43,1.3,.18,2.49,.16,3.61-.6,2.12-1.45,2.74-4.19,4.11-6.22,1.61-2.4,4.2-3.93,6.61-5.41,2.39-1.47,4.77-2.98,6.65-5.1,1.79-2.01,3.24-4.57,5.55-6.04,1.22-.77,2.4-.83,3.81-.93,1.51-.1,2.7-.6,3.62-1.83,.97-1.3,1.48-2.9,2.35-4.28,.9-1.42,2-2.71,3.24-3.85,1.34-1.22,2.85-2.24,4.48-3.03,1.58-.77,3.35-1.19,4.83-2.17,1.47-.98,2.37-2.42,3.23-3.92,.98-1.71,2.04-3.37,3.22-4.95,.36-.48,.75-.93,1.13-1.4,.58-.03,.86-.5,.82-.99,1.67-1.91,3.51-3.65,5.48-5.25,3.85,1.13,7.82,2.98,10.15,6.39,2.27,3.34,2.72,7.94-.07,11.12Zm6.46-16.68c.19,2.22,.54,4.37,.41,6.62-.05,.86,.06,2.33-.77,2.84-.63,.39-1.55,.31-2.3,.21-.21-1.38-.66-2.74-1.32-3.99-2.27-4.3-6.75-6.78-11.25-8.21,.07-.07,.13-.14,.18-.25,1.57-3.47,3.42-6.8,5.56-9.95,.5-.74,1.02-1.47,1.55-2.19,.48-.65,1.07-1.83,1.77-2.24,.84-.48,1.84,.57,2.47,1.03,.73,.53,1.45,1.07,2.16,1.63,1.27,1.02,2.49,2.11,3.55,3.35,.66,.77,3.06,3.63,2.02,4.51-.43,.36-1.16,.45-1.65,.73-.61,.35-1.12,.86-1.5,1.44-.86,1.31-1,2.93-.87,4.46Zm41.77,29.32c7.62,9.72,16.39,18.43,25.93,26.26,9.31,7.64,19.25,14.48,29.46,20.85,5.27,3.29,10.61,6.46,15.99,9.56,5.11,2.95,10.39,5.69,15.18,9.15,2.38,1.72,4.62,3.67,6.53,5.91,1.94,2.27,3.76,5.02,3.55,8.14-.4,6-6.29,10.43-11.54,12.19-6.2,2.08-12.98,1.7-19.39,1.02-6.93-.74-13.77-2.18-20.55-3.76-12.61-2.94-25.54-5.7-37.38-11.09-11.6-5.28-21.34-13.54-30.36-22.42-8.93-8.8-17.33-18.78-20.92-31.02-1.81-6.17-2.2-12.55-.94-18.86,1.21-6.05,3.44-11.85,4.53-17.92,.53-2.94,.77-5.91,.52-8.89,0-.07-.04-.11-.05-.17,.17-1.13,.13-2.34,.12-3.28-.02-2.31-.9-4.91-.38-7.18,.24-1.04,.78-1.73,1.74-2.18,.74-.34,1.52-.56,2.06-1.2,.12-.13,.2-.28,.28-.42l2.93-2.14c.51-.37,1.03-.85,1.59-1.14,.82-.43,1.23,.08,1.84,.61,2.08,1.8,4.14,3.62,6.21,5.43-.09,.23-.06,.51,.15,.78,7.86,10.43,14.83,21.49,22.89,31.77Zm147.04-33.74c-3.08,4.4-7.23,7.97-11.7,10.89-9.58,6.25-20.68,10.32-31.66,13.33-11.47,3.15-23.25,5.04-35.06,6.3-5.94,.64-11.89,1.12-17.84,1.53-5.92,.41-11.87,.85-17.8,.51-5.72-.34-11.38-1.55-16.48-4.24-4.16-2.19-7.83-5.15-11.22-8.38-6.87-6.55-12.66-14.17-19.89-20.35-1.75-1.5-3.58-2.9-5.49-4.17-.1-.07-.2-.11-.3-.13-.24-.19-.5-.37-.77-.53-3.03-1.89-6.08-3.76-9.12-5.64,1.16-2.98,2.38-5.93,3.7-8.83,.68-1.5,1.38-2.98,2.1-4.46,.68-1.38,1.29-2.97,2.35-4.11,1.86-1.99,5.01-1.93,7.51-1.62,3.22,.4,6.43,1.19,9.62,.12,0,.02-.03,.04-.03,.06-.06,.26-.05,.54,.1,.77,.14,.22,.34,.4,.6,.46,.1,.02,.2,.05,.3,.07,.06,.32,.26,.61,.69,.7,24.96,5.56,50.33,11.2,76.06,10.27,23.27-.84,49.25-8.06,70.83,4.29,2.2,1.26,4.87,2.82,5.86,5.3,1.12,2.8-.78,5.64-2.33,7.86Z"/></g></g></svg>
