<svg id="Calque_2" xmlns="http://www.w3.org/2000/svg" viewBox="0 0 335.93 373.39">
<g id="Calque_4"><g>

<path class="cls-1" d="M119.45,191.87c4.68,1.58,9.71,1.8,14.52,.71,.71-.16,1.48,.47,1.23,1.23-1.33,4.06-3.52,7.77-6.42,10.91-3.41,3.69-7.72,6.46-12.44,8.02,2.96,2.26,5.9,4.54,8.82,6.86,12.75,10.11,25.08,20.74,36.99,31.83,.3,.28,.34,.61,.26,.91,0,0,.02,.02,.03,.03,.16-.03,.32-.04,.47,0,.18,.05,.31,.15,.43,.28-.91-8.69-2.82-17.3-5.28-25.61-2.74-9.26-6.15-18.3-9.61-27.31-1.74-4.51-3.49-9.01-5.18-13.54-1.67-4.47-3.42-8.96-4.36-13.65-.4-2.01-.61-4.01-.64-6.02-.58-.25-1.38-.19-1.96-.3-.93-.17-1.74-.66-2.15-1.54-.47-1-.37-2.23-.59-3.3-.23-1.12-.58-2.23-1.08-3.27-2.08-4.37-6.39-7.37-11.3-7.23-.21,0-.37-.05-.51-.14-.05,.04-.08,.1-.14,.13-.15,.08-.31,.15-.46,.23-.04,.02-.07,.03-.11,.05-.99,12.95-2.8,25.84-5.41,38.57,1.58,.83,3.2,1.58,4.9,2.15Z"/>
<path class="cls-1" d="M112.73,188.71c2.05-10.06,3.61-20.22,4.63-30.45,1.92-19.24,2.02-38.67,.28-57.92-1.45-15.98-3.34-33.79-13.27-47.03-.07,1.72,.77,3.64,1.19,5.15,.64,2.3,1.24,4.61,1.8,6.93,1.14,4.71,2.12,9.47,2.95,14.25,2.91,16.86,3.87,34.05,2.87,51.13-1.01,17.08-3.98,34.03-8.88,50.43-.09,.29-.26,.48-.47,.58-.04,.18-.07,.35-.11,.53-.04,.2-.18,.36-.34,.49,0,.03-.02,.06-.03,.09,1.4,.82,2.76,1.67,4.06,2.5,1.75,1.12,3.52,2.26,5.32,3.31Z"/>
<path class="cls-1" d="M222.47,256.01c-2.1-5.77-6.46-10.47-11.44-13.92-.67-.46-.66-1.62,.24-1.83,4.1-.97,8.09-2.53,11.57-4.95,2.86-1.99,5.38-4.69,6.61-7.99,1.46-3.91,.96-8.19-.82-11.91-3.87-8.06-12.27-12.14-20.15-15.36-.75-.3-1.06-1.37-.24-1.83,4.38-2.44,8.82-4.9,12.59-8.24,5.78-5.12,10.36-13.46,6.67-21.11-1.7-3.52-4.84-6.07-8.81-6.42-4.52-.4-8.94,1.31-13.35,1.99-.98,.15-1.67-.88-.97-1.67,4.42-4.99,8.23-10.55,10.93-16.66,2.42-5.47,3.87-11.39,4.01-17.38,.14-5.94-.91-12.35-3.87-17.58-1.2-2.12-2.98-4.33-5.53-4.76-2.8-.47-5.22,1.47-7.02,3.38-2.14,2.28-3.94,4.95-5.68,7.54-1.81,2.7-3.49,5.48-5.05,8.33-.46,.84-1.94,.5-1.86-.5,.38-4.88,.76-9.76,.89-14.65,.11-4.31,.03-8.62-.43-12.91-.35-3.3-.56-8.65-4.12-10.24-4.13-1.84-5.74,4.63-6.75,7.36-1.41,3.8-2.52,7.71-3.34,11.69-.2,.98-1.69,.93-1.93,0-.86-3.4-2.11-6.66-3.71-9.77-2.34,8.21-5.02,16.33-7.84,24.38-3.21,9.14-7.11,18.18-9.48,27.59-1.21,4.81-1.87,9.74-1.47,14.7,.39,4.82,1.69,9.52,3.24,14.07,3.11,9.09,6.84,17.93,9.75,27.1,2.9,9.14,5.32,18.46,6.98,27.91,3.19,18.18,3.49,36.95-1.11,54.92,3.55-1.16,7.09-2.32,10.64-3.46-.27-.98,1.21-1.75,1.82-.74,.03,.05,.06,.09,.09,.14,2.78-.88,5.56-1.75,8.36-2.56,9.45-2.77,19.08-4.91,28.8-6.38-.08-.23-.07-.51,.12-.79,3.41-5.17,3.75-11.77,1.66-17.52Z"/>
<path class="cls-1" d="M119.85,102.74c.81,9.84,1.14,19.71,1,29.58-.08,5.57-.33,11.15-.72,16.71,.06,0,.11,.02,.17,.02,.09,.02,.17,.06,.25,.11,.16-.15,.36-.26,.64-.27,5.04-.14,9.74,2.64,12.32,6.92,1.31,2.17,2.01,4.58,2.28,7.08,.05,.45,.03,1.02,.48,1.27,.35,.19,.83,.18,1.21,.22,.28,.03,.56,.07,.83,.12,.09-1.84,.33-3.67,.73-5.5,1.02-4.69,2.81-9.17,4.45-13.67,3.37-9.24,6.66-18.5,9.7-27.85,2.66-8.2,5.09-16.46,7.22-24.8-2.22-4.13-5.48-7.62-9.45-10.12-3.72-2.35-7.99-3.88-12.38-4.26-1.16-.1-2.32-.12-3.48-.07-1.06,.05-2.15,.24-3.18-.15-1.92-.73-2.33-2.92-2.89-4.65-2.54-7.86-11.64-13.99-19.81-16.31,3.31,5.83,5.49,12.27,6.96,18.83,1.97,8.79,2.93,17.84,3.67,26.8Z"/>
<path class="cls-1" d="M177.98,63.84c-1.37,10.16-3.57,20.15-6.29,30.02,0,.01,.02,.02,.03,.04,1.52,2.67,2.76,5.47,3.74,8.37,1-3.92,2.29-7.77,3.87-11.51,.72-1.71,1.44-3.61,2.98-4.77,1.43-1.08,3.26-1.18,4.89-.54,4,1.58,4.77,6.19,5.29,9.95,1.15,8.45,.76,16.97,.14,25.45,1.4-2.33,2.87-4.61,4.44-6.82,2.01-2.83,4.08-5.85,6.93-7.9,2.22-1.59,5.01-2.32,7.63-1.31,2.47,.95,4.26,3.09,5.53,5.34,3.2,5.66,4.34,12.6,4.13,19.03-.41,12.24-5.97,23.47-13.63,32.79,4.57-1,9.28-2.39,13.84-.99,8.28,2.55,10.93,12.5,8.17,19.96-3.18,8.6-11,13.68-18.66,18.02,4.32,1.83,8.56,3.9,12.26,6.83,6.84,5.42,11.47,14.71,7.61,23.24-3.04,6.72-10.18,10.64-17.08,12.62,4.66,3.6,8.56,8.22,10.59,13.81,2.19,6.01,1.83,13.02-1.53,18.52,14.25-2,28.69-2.52,43.07-1.34,1.64,.14,3.27,.3,4.91,.48-3.47-9.03-10.46-16.42-19.25-20.46-.86-.4-.47-1.55,.24-1.83,4.68-1.82,9.33-4.02,13.31-7.13,3.39-2.66,6.37-6.11,7.8-10.23,1.21-3.51,1.19-7.33,.21-10.89-1.99-7.25-7.8-13.44-15.35-14.77-.72-.13-.99-1.21-.44-1.67,6.33-5.4,13.8-11.98,12.95-21.17-.37-4.05-2.75-7.54-6.58-9.03-3.73-1.46-7.96-1.07-11.7,.13-.67,.22-1.52-.52-1.23-1.23,2.34-5.63,4.65-11.28,6.59-17.06,3.36-10.02,5.69-20.78,4.17-31.38-.34-2.38-.93-4.93-2.64-6.73-1.37-1.45-3.26-2.14-5.23-2.22-4.17-.17-8.29,1.72-11.88,3.65-.77,.41-1.69-.27-1.47-1.13,1.44-5.56,2.37-11.23,2.72-16.96,.28-4.6,.34-9.34-.36-13.92-.58-3.86-1.79-7.86-4.55-10.75-2.26-2.37-5.45-3.4-8.69-2.87-2.91,.47-5.49,2.2-6.03,5.24-.2,1.12-2.01,.84-1.96-.27,.39-9.51,.95-20.58-4.89-28.73-4.46-6.22-13.55-10.59-20.73-6.35-.68,.4-1.47-.12-1.5-.86-.43-9.48-1.48-19.37-6.09-27.85-3.25-5.98-8.3-11.13-14.64-13.62,.53,1.62,1.04,3.25,1.5,4.89,5.04,18.14,5.36,37.33,2.86,55.91Z"/>
<path class="cls-1" d="M143.32,180.55c6.45,18.18,14.47,35.82,19.02,54.63,4.32,17.88,5.44,37.1-.77,54.68-.03,.08-.08,.14-.12,.21,.03,.09,.07,.18,.06,.28,0,0,0,0,0,.01,2.49-.78,4.98-1.57,7.46-2.38-.07-.17-.1-.37-.04-.6,.6-2.27,1.12-4.56,1.57-6.87,3.62-18.65,2.06-37.94-2.08-56.36-2.09-9.29-4.83-18.42-7.99-27.4-3.11-8.86-7.19-17.51-9.25-26.7-1.02-4.56-1.43-9.22-.96-13.88,.47-4.69,1.65-9.27,3.1-13.74,3.01-9.29,6.66-18.37,9.79-27.62,6.28-18.5,11.63-37.5,13.59-57,1.86-18.51,.68-37.44-5.29-55.14,.1,1.84,.2,3.68,.27,5.53,.72,19.67-.55,39.41-3.75,58.83-1.41,8.54-3.24,16.99-5.38,25.36,0,0,0,0,0,0,.26,.52,.04,1-.33,1.28-2.67,10.32-5.79,20.53-9.21,30.64-3.13,9.28-6.6,18.44-9.84,27.68-1.53,4.38-2.86,8.91-2.94,13.58,.2,.34,.18,.71,0,1.01,.1,4.8,1.5,9.47,3.1,13.96Z"/>
<path class="cls-1" d="M88.33,204.36c.03,.09,.05,.19,.08,.29,.06,.04,.12,.06,.18,.11,3.08,2.87,6.79,4.99,10.82,6.2,4.4,1.32,9.05,1.55,13.48,.65,.2-.55,.77-.93,1.36-.48,.05,.04,.1,.08,.16,.12,2.03-.54,4.01-1.32,5.88-2.36,5.6-3.1,10.05-8.09,12.42-14.03-4.45,.73-9.04,.46-13.36-.92-1.84-.59-3.58-1.36-5.27-2.24-.53,.76-2,.21-1.77-.9,0-.02,0-.04,.01-.06-5.36-3.05-10.29-6.96-16.07-9.22-4.16-1.63-8.73-2.36-13.05-.91-3.77,1.27-6.9,4.01-9.06,7.32-.11,.21-.23,.41-.34,.62,0,.18-.04,.37-.13,.5-.07,.1-.15,.2-.22,.31,1.82,.52,3.57,1.28,5.18,2.26,4.76,2.89,8.08,7.44,9.71,12.73Z"/>
<path class="cls-1" d="M182.69,285.62c-12.94,4.14-25.78,8.69-39.03,11.75-6.4,1.48-13.06,2.81-19.63,1.73-5.35-.88-10.19-3.6-14.18-7.21-8.59-7.77-13.7-19.17-17.21-29.99-4.03-12.42-5.4-25.24-4.93-38.24,.22-6.17,.56-12.56-1.24-18.55-1.66-5.52-5.3-10.11-10.5-12.66-4.94-2.43-10.79-2.51-15.57,.31-4.38,2.58-7.52,7.17-7.78,12.29,.1,.14,.17,.31,.18,.52,.08,2.33,.61,4.63,1.58,6.75,1.98,4.33,5.52,7.76,9.95,9.52,2.08,.82,4.3,1.44,6.16,2.72,1.91,1.31,3.16,3.17,3.9,5.35,.75,2.22,.95,4.59,1.15,6.91,.23,2.65,.49,5.29,.77,7.93,.58,5.43,1.27,10.84,2.1,16.24,3.25,21.11,8.62,42.11,18,61.38,4.62,9.49,10.13,18.76,16.95,26.84,3.35,3.97,7.08,7.66,11.32,10.68,4.5,3.21,9.52,5.59,14.76,7.3,11.03,3.6,23,4.74,34.55,4,10.48-.67,20.83-3.11,30.47-7.28,17.12-7.4,31.95-19.88,41.98-35.62-3.67-.65-7.31-1.49-10.9-2.6-21.59-6.66-40.69-21-52.84-40.07Zm-110.66-73.39c-1.72-1.88-3.61-3.62-5.62-5.18-.96,1.71-2.68,3.09-4.74,2.33-.93-.34-1.69-1.16-1.9-2.15-.22-1.05,.23-2.06,1.02-2.75,.38-.34,.84-.6,1.32-.76-.07-.76-.44-1.43-1.13-1.79-.25-.16-.38-.38-.44-.6-.53-.64,0-1.88,1.02-1.61,5.68,1.49,10.35,5.95,12.14,11.54,.3,.94-1,1.7-1.67,.97Z"/>
<path class="cls-1" d="M256.71,274.13c-12.27-.4-24.58,.38-36.72,2.26-12.02,1.87-23.74,4.96-35.33,8.6,6.51,10.1,15,18.87,24.84,25.75,11.52,8.05,24.7,13.46,38.42,15.75,.23-.04,.48,.01,.69,.12,8.46,1.35,17.11,1.52,25.72,.39,22.69-2.99,44.12-14.42,59.05-31.78-2.24-1.3-4.5-2.56-6.8-3.74-21.57-11.07-45.71-16.57-69.87-17.36Z"/>
<path class="cls-1" d="M7.5,183.01c14.38,9.01,28.96,17.7,43.73,26.06-.2-.93-.32-1.89-.39-2.85-.15-.16-.26-.37-.25-.66,.03-2.42,.6-4.75,1.66-6.92,.13-.26,.28-.5,.42-.75-14.96-5.24-30.02-10.19-45.17-14.89Z"/>
<path class="cls-1" d="M63.53,206s-.02-.03-.03-.04c-.01,.03,.02,.06,.03,.04Z"/><g>
<path d="M335.45,294.11c-19.05-11.29-40.45-18.01-62.36-20.7-3.28-9.19-9.95-16.95-18.56-21.51,8.04-3.36,16.18-8.19,19.78-16.45,3.32-7.63,1.06-16.67-4.29-22.79-2.61-2.98-6-5.24-9.8-6.33,5.31-4.6,10.74-9.86,11.91-17.06,1.12-6.87-2-13.65-9-15.63-3.13-.89-6.49-.76-9.65-.02,4.32-10.44,8.49-21.08,9.99-32.34,.74-5.52,.89-11.3-.2-16.78-.89-4.48-3.6-8.26-8.35-8.93-4.15-.58-8.37,.94-12.13,2.79,1.14-4.87,1.92-9.81,2.25-14.8,.35-5.25,.39-10.65-.53-15.84-.75-4.24-2.39-8.56-5.67-11.5-2.61-2.33-6.13-3.22-9.57-2.71-2.12,.32-4.16,1.24-5.63,2.7,.19-7.22-.08-14.59-2.99-21.28-2.76-6.33-8.44-11.53-15.32-12.9-3.08-.62-6.21-.35-9.04,.91-.51-9.49-1.8-19.25-6.49-27.65C185.67,7.96,178.93,1.82,170.57,.02c-.6-.13-1.31,.28-1.27,.96,1.19,19.75,.43,39.61-2.35,59.2-1.42,10.02-3.42,19.91-5.85,29.71-4.24-6.67-11.27-11.49-19.02-13.11-2.18-.45-4.41-.67-6.63-.6-1.12,.04-2.67,.5-3.45-.52-.66-.87-.83-2.13-1.17-3.15-1.4-4.12-3.83-7.87-6.97-10.88-3.58-3.44-10.88-5.8-15.73-6.89-.12-.03-.23-.02-.34,0,.49,.77,.96,1.55,1.41,2.34,8.18,2.31,17.28,8.44,19.81,16.31,.56,1.73,.97,3.92,2.89,4.65,1.02,.39,2.11,.2,3.18,.15,1.16-.05,2.32-.03,3.48,.07,4.39,.38,8.66,1.91,12.38,4.26,3.97,2.51,7.23,5.99,9.45,10.12-2.14,8.34-4.56,16.6-7.22,24.8-3.04,9.35-6.33,18.61-9.7,27.85-1.64,4.5-3.43,8.98-4.45,13.67-.4,1.83-.64,3.67-.73,5.5-.27-.05-.55-.09-.83-.12-.38-.04-.86-.03-1.21-.22-.45-.25-.43-.81-.48-1.27-.27-2.5-.97-4.91-2.28-7.08-2.59-4.28-7.29-7.06-12.32-6.92-.28,0-.48,.12-.64,.27-.08-.05-.16-.08-.25-.11-.06,0-.11-.02-.17-.02,.39-5.56,.64-11.13,.72-16.71,.14-9.87-.19-19.74-1-29.58-.74-8.97-1.7-18.01-3.67-26.8-1.47-6.57-3.65-13.01-6.96-18.83-.54-.15-1.07-.29-1.6-.41-1.13-.25-.8-1.83,.19-1.94-.96-1.5-2.01-2.95-3.15-4.34-.41-.5-1.28-.32-1.57,.2-.89,1.57-.8,3.27-.4,4.98,.47,2.04,1.13,4.05,1.67,6.07,1.1,4.17,2.07,8.37,2.92,12.6,1.73,8.59,2.93,17.29,3.61,26.03,1.34,17.26,.69,34.68-2.02,51.78-1.46,9.25-3.53,18.39-6.16,27.38-.27,.11-.5,.32-.59,.64-.19,.6-.37,1.19-.56,1.79-5.92-3.21-12.49-5.45-19.08-3.13-3.9,1.37-7.15,4.05-9.53,7.39-.11,.08-.21,.18-.28,.31-.09,.16-.17,.32-.26,.48-.03,.05-.07,.09-.1,.14-.05,.08-.09,.17-.11,.25-.27,.5-.54,.99-.81,1.49-.01,.02-.01,.05-.03,.08-2.63-.45-5.34-.36-7.93,.39-3.84,1.13-7.3,3.63-9.66,6.89-17.39-6.1-34.9-11.83-52.53-17.19-1.23-.38-1.76,1.55-.53,1.93,.66,.2,1.32,.41,1.97,.61-.11,.39-.02,.83,.42,1.11,15.99,10.09,32.23,19.79,48.7,29.07,.08,.05,.16,.05,.24,.08,.85,2.31,2.1,4.48,3.73,6.38,1.52,1.77,3.37,3.3,5.41,4.42,2.12,1.17,4.49,1.74,6.66,2.78,2.38,1.14,3.96,2.91,4.73,5.44,.75,2.43,.87,5,1.1,7.51,.5,5.44,1.09,10.88,1.82,16.3,2.88,21.62,7.77,43.12,16.59,63.15,4.4,9.99,9.77,19.64,16.32,28.39,6.38,8.53,14.11,15.98,23.91,20.42,10.55,4.78,22.46,6.65,33.97,6.82,11.03,.16,22.09-1.51,32.52-5.13,18.4-6.39,34.73-18.45,46.18-34.21,1.27-1.74,2.46-3.54,3.6-5.36,18.9,2.87,38.43-.25,55.75-8.65,12-5.81,22.78-14.11,31.34-24.34,.41-.49,.39-1.22-.2-1.57ZM188.25,16.67c4.61,8.48,5.66,18.37,6.09,27.85,.03,.74,.83,1.26,1.5,.86,7.18-4.24,16.27,.13,20.73,6.35,5.84,8.14,5.28,19.22,4.89,28.73-.05,1.11,1.76,1.39,1.96,.27,.54-3.04,3.12-4.77,6.03-5.24,3.23-.53,6.43,.5,8.69,2.87,2.76,2.89,3.97,6.89,4.55,10.75,.69,4.57,.63,9.31,.36,13.92-.34,5.73-1.27,11.41-2.72,16.96-.22,.86,.7,1.54,1.47,1.13,3.59-1.93,7.71-3.82,11.88-3.65,1.97,.08,3.86,.77,5.23,2.22,1.71,1.8,2.3,4.35,2.64,6.73,1.52,10.6-.81,21.36-4.17,31.38-1.94,5.78-4.25,11.43-6.59,17.06-.29,.71,.56,1.45,1.23,1.23,3.74-1.21,7.97-1.59,11.7-.13,3.84,1.5,6.21,4.98,6.58,9.03,.85,9.18-6.63,15.77-12.95,21.17-.55,.47-.28,1.55,.44,1.67,7.55,1.32,13.36,7.52,15.35,14.77,.98,3.57,1,7.38-.21,10.89-1.42,4.13-4.4,7.57-7.8,10.23-3.97,3.11-8.63,5.31-13.31,7.13-.71,.28-1.1,1.43-.24,1.83,8.8,4.04,15.78,11.44,19.25,20.46-1.63-.18-3.27-.34-4.91-.48-14.38-1.19-28.82-.66-43.07,1.34,3.36-5.5,3.71-12.51,1.53-18.52-2.04-5.6-5.93-10.21-10.59-13.81,6.91-1.98,14.04-5.9,17.08-12.62,3.86-8.53-.78-17.82-7.61-23.24-3.7-2.93-7.93-5-12.26-6.83,7.65-4.33,15.48-9.42,18.66-18.02,2.76-7.46,.1-17.41-8.17-19.96-4.56-1.4-9.27-.01-13.84,.99,7.66-9.32,13.22-20.55,13.63-32.79,.22-6.43-.93-13.37-4.13-19.03-1.27-2.25-3.07-4.39-5.53-5.34-2.62-1.01-5.41-.28-7.63,1.31-2.85,2.05-4.93,5.07-6.93,7.9-1.57,2.21-3.05,4.49-4.44,6.82,.62-8.48,1.01-17-.14-25.45-.51-3.77-1.29-8.37-5.29-9.95-1.64-.65-3.47-.54-4.89,.54-1.53,1.16-2.25,3.06-2.98,4.77-1.58,3.74-2.87,7.58-3.87,11.51-.98-2.9-2.23-5.7-3.74-8.37,0-.02-.02-.02-.03-.04,2.71-9.87,4.92-19.86,6.29-30.02,2.5-18.58,2.18-37.77-2.86-55.91-.46-1.64-.97-3.27-1.5-4.89,6.34,2.49,11.38,7.64,14.64,13.62Zm32.45,257.65c-9.73,1.47-19.35,3.61-28.8,6.38-2.8,.82-5.58,1.68-8.36,2.56-.03-.05-.06-.09-.09-.14-.61-1.01-2.1-.24-1.82,.74-3.55,1.14-7.1,2.31-10.64,3.46,4.6-17.97,4.3-36.73,1.11-54.92-1.66-9.45-4.08-18.76-6.98-27.91-2.91-9.17-6.64-18.01-9.75-27.1-1.56-4.56-2.86-9.26-3.24-14.07-.4-4.96,.25-9.89,1.47-14.7,2.38-9.41,6.28-18.45,9.48-27.59,2.82-8.05,5.5-16.17,7.84-24.38,1.6,3.11,2.85,6.37,3.71,9.77,.23,.93,1.73,.98,1.93,0,.82-3.97,1.93-7.88,3.34-11.69,1.01-2.73,2.61-9.19,6.75-7.36,3.56,1.58,3.77,6.94,4.12,10.24,.46,4.28,.54,8.6,.43,12.91-.13,4.89-.51,9.77-.89,14.65-.08,1,1.4,1.34,1.86,.5,1.56-2.85,3.24-5.63,5.05-8.33,1.74-2.59,3.54-5.26,5.68-7.54,1.79-1.91,4.22-3.85,7.02-3.38,2.55,.42,4.33,2.64,5.53,4.76,2.96,5.23,4.01,11.64,3.87,17.58-.14,5.99-1.59,11.9-4.01,17.38-2.7,6.11-6.51,11.67-10.93,16.66-.7,.79,0,1.82,.97,1.67,4.41-.69,8.83-2.39,13.35-1.99,3.97,.35,7.11,2.89,8.81,6.42,3.69,7.65-.89,15.99-6.67,21.11-3.77,3.34-8.21,5.8-12.59,8.24-.82,.46-.51,1.52,.24,1.83,7.88,3.22,16.28,7.29,20.15,15.36,1.78,3.72,2.28,8,.82,11.91-1.23,3.3-3.75,6-6.61,7.99-3.47,2.42-7.47,3.97-11.57,4.95-.9,.21-.91,1.37-.24,1.83,4.98,3.45,9.34,8.15,11.44,13.92,2.09,5.75,1.75,12.35-1.66,17.52-.18,.28-.2,.55-.12,.79Zm-80.48-108.73c.08-4.67,1.41-9.2,2.94-13.58,3.23-9.24,6.71-18.4,9.84-27.68,3.41-10.11,6.54-20.32,9.21-30.64,.36-.28,.59-.76,.33-1.28,0,0,0,0,0,0,2.13-8.37,3.97-16.82,5.38-25.36,3.19-19.42,4.47-39.16,3.75-58.83-.07-1.84-.17-3.69-.27-5.53,5.98,17.7,7.15,36.63,5.29,55.14-1.96,19.5-7.31,38.49-13.59,57-3.14,9.25-6.78,18.33-9.79,27.62-1.45,4.47-2.63,9.05-3.1,13.74-.47,4.66-.06,9.32,.96,13.88,2.06,9.19,6.14,17.84,9.25,26.7,3.15,8.98,5.9,18.11,7.99,27.4,4.14,18.43,5.7,37.71,2.08,56.36-.45,2.31-.98,4.59-1.57,6.87-.06,.23-.03,.42,.04,.6-2.48,.81-4.97,1.6-7.46,2.38,0,0,0,0,0-.01,0-.1-.03-.19-.06-.28,.04-.07,.09-.12,.12-.21,6.21-17.58,5.09-36.8,.77-54.68-4.54-18.81-12.57-36.45-19.02-54.63-1.59-4.5-2.99-9.16-3.1-13.96,.18-.3,.2-.66,0-1.01Zm19.39,124.27c-.27,.31-.54,.61-.8,.92-.1,.09-.17,.2-.21,.32-.03,.05-.02,.11-.04,.17-2.2,.66-4.4,1.32-6.61,1.93-6.74,1.87-13.74,3.83-20.75,4.25-6.32,.38-12.24-1.14-17.38-4.87-9.7-7.03-15.24-19.2-18.93-30.23-2.15-6.41-3.68-13.04-4.53-19.75-.84-6.63-.86-13.25-.62-19.92,.18-4.92,.32-9.96-.58-14.83,5.56,4.32,12.62,6.61,19.68,6.28,1.74-.08,3.45-.33,5.12-.73,12.57,9.57,24.78,19.61,36.58,30.12,3.04,2.71,6.05,5.46,9.04,8.23-.01,.27,.07,.54,.27,.77,1.07,1.27,2.36,2.36,3.78,3.22,.68,9.06,.2,18.17-2.02,27.05-.55,2.2-1.22,4.37-1.97,6.51-.07,.2-.06,.37-.02,.52Zm-39.64-138.71s.08-.03,.11-.05c.15-.08,.31-.15,.46-.23,.06-.03,.09-.08,.14-.13,.14,.08,.3,.14,.51,.14,4.91-.14,9.22,2.86,11.3,7.23,.49,1.04,.84,2.15,1.08,3.27,.22,1.07,.13,2.3,.59,3.3,.41,.88,1.22,1.36,2.15,1.54,.58,.11,1.38,.04,1.96,.3,.03,2,.23,4.01,.64,6.02,.94,4.69,2.69,9.18,4.36,13.65,1.7,4.52,3.45,9.03,5.18,13.54,3.47,9.01,6.87,18.05,9.61,27.31,2.46,8.31,4.38,16.92,5.28,25.61-.12-.12-.25-.23-.43-.28-.14-.04-.31-.03-.47,0-.01,0-.02-.02-.03-.03,.09-.3,.04-.63-.26-.91-11.9-11.09-24.24-21.72-36.99-31.83-2.92-2.31-5.86-4.59-8.82-6.86,4.72-1.56,9.03-4.33,12.44-8.02,2.9-3.14,5.09-6.85,6.42-10.91,.25-.76-.53-1.39-1.23-1.23-4.81,1.09-9.84,.87-14.52-.71-1.7-.57-3.32-1.32-4.9-2.15,2.62-12.73,4.42-25.62,5.41-38.57Zm-16.59,31.65c.16-.13,.3-.29,.34-.49,.04-.18,.07-.35,.11-.53,.21-.11,.39-.29,.47-.58,4.9-16.39,7.87-33.35,8.88-50.43,1.01-17.08,.04-34.27-2.87-51.13-.82-4.78-1.81-9.53-2.95-14.25-.56-2.32-1.16-4.63-1.8-6.93-.42-1.51-1.26-3.44-1.19-5.15,9.93,13.24,11.82,31.05,13.27,47.03,1.74,19.26,1.65,38.68-.28,57.92-1.02,10.22-2.58,20.38-4.63,30.45-1.81-1.05-3.57-2.19-5.32-3.31-1.3-.84-2.66-1.69-4.06-2.5,0-.03,.02-.06,.03-.09Zm-29.71,6.25c.09-.13,.13-.32,.13-.5,.11-.21,.23-.41,.34-.62,2.16-3.3,5.29-6.04,9.06-7.32,4.32-1.46,8.89-.72,13.05,.91,5.78,2.26,10.71,6.17,16.07,9.22,0,.02,0,.04-.01,.06-.23,1.11,1.24,1.65,1.77,.9,1.69,.88,3.43,1.65,5.27,2.24,4.31,1.38,8.9,1.65,13.36,.92-2.37,5.93-6.82,10.93-12.42,14.03-1.87,1.04-3.85,1.82-5.88,2.36-.05-.04-.1-.08-.16-.12-.59-.44-1.16-.07-1.36,.48-4.44,.9-9.08,.68-13.48-.65-4.03-1.21-7.74-3.33-10.82-6.2-.06-.05-.12-.07-.18-.11-.03-.1-.05-.19-.08-.29-1.63-5.29-4.95-9.84-9.71-12.73-1.61-.98-3.36-1.74-5.18-2.26,.07-.1,.15-.2,.22-.31Zm-23.08,16.51c0,.29,.1,.5,.25,.66,.07,.96,.19,1.91,.39,2.85-14.77-8.36-29.35-17.05-43.73-26.06,15.14,4.69,30.2,9.65,45.17,14.89-.14,.25-.29,.49-.42,.75-1.06,2.17-1.63,4.5-1.66,6.92Zm153.86,158.35c-9.64,4.17-19.99,6.61-30.47,7.28-11.55,.74-23.51-.41-34.55-4-5.25-1.71-10.26-4.09-14.76-7.3-4.24-3.02-7.97-6.71-11.32-10.68-6.82-8.08-12.34-17.35-16.95-26.84-9.37-19.27-14.74-40.27-18-61.38-.83-5.4-1.52-10.81-2.1-16.24-.28-2.64-.54-5.29-.77-7.93-.2-2.32-.4-4.69-1.15-6.91-.74-2.18-2-4.04-3.9-5.35-1.86-1.28-4.08-1.89-6.16-2.72-4.43-1.76-7.96-5.19-9.95-9.52-.97-2.12-1.5-4.42-1.58-6.75,0-.21-.08-.38-.18-.52,.26-5.12,3.4-9.71,7.78-12.29,4.78-2.82,10.63-2.74,15.57-.31,5.2,2.56,8.85,7.14,10.5,12.66,1.8,5.99,1.46,12.38,1.24,18.55-.47,13,.9,25.83,4.93,38.24,3.51,10.82,8.62,22.22,17.21,29.99,3.99,3.61,8.83,6.33,14.18,7.21,6.57,1.08,13.23-.25,19.63-1.73,13.25-3.06,26.09-7.61,39.03-11.75,12.15,19.08,31.25,33.41,52.84,40.07,3.59,1.11,7.24,1.96,10.9,2.6-10.02,15.74-24.86,28.22-41.98,35.62Zm69.88-36.9c-8.6,1.13-17.26,.96-25.72-.39-.21-.11-.45-.17-.69-.12-13.72-2.3-26.9-7.7-38.42-15.75-9.85-6.88-18.34-15.65-24.84-25.75,11.59-3.65,23.31-6.74,35.33-8.6,12.13-1.89,24.44-2.66,36.72-2.26,24.16,.79,48.3,6.29,69.87,17.36,2.3,1.18,4.56,2.44,6.8,3.74-14.93,17.35-36.36,28.79-59.05,31.78Z"/>
<path d="M61.55,199.72c-1.02-.27-1.55,.97-1.02,1.61,.06,.22,.19,.44,.44,.6,.69,.36,1.06,1.03,1.13,1.79-.48,.16-.94,.42-1.32,.76-.79,.69-1.24,1.7-1.02,2.75,.2,.99,.96,1.81,1.9,2.15,2.06,.76,3.79-.62,4.74-2.33,2.02,1.57,3.9,3.3,5.62,5.18,.67,.73,1.97-.03,1.67-.97-1.79-5.59-6.46-10.05-12.14-11.54Zm.14,6.97c.03,.09,.05,.18,.1,.27,.09,.17,.21,.3,.34,.42-.27-.13-.46-.36-.45-.7Zm1.81-.74s.02,.02,.03,.04c-.01,.02-.04,0-.03-.04Z"/></g></g></g></svg>
