<svg id="Calque_2" xmlns="http://www.w3.org/2000/svg" viewBox="0 0 349.91 282.13">
<g id="Calque_4"><g>
<path class="cls-1" d="M210.22,177.77s0,0,0,0c0,.02,.01,.03,.01,.05,.02,.04,.03,.05-.01-.05Z"/>
<path class="cls-1" d="M210.46,179.46s0,.03,0,.04c.01-.06,0-.07,0-.04Z"/>
<path class="cls-1" d="M210.21,177.74s0,.01,0,.02h0s0-.01,0-.02Z"/>
<path class="cls-1" d="M164.98,117.78c.73,.13,1.91,.21,2.57,.57,.01,0,.21,.02,.34,.07-.09-.26-.26-.66-.3-.75l-1.46-4.08c-1.04-2.9-2.11-5.8-3.1-8.72-1.74-5.16-3.02-10.82-1.4-16.19,1.42-4.71,5.09-8.17,9.6-9.95,4.83-1.9,10.21-1.53,15.13-.13,1.1-6.79,4.73-12.98,9.91-17.52,5.87-5.14,13.36-8.05,21.02-9.16,.07-.04,.14-.07,.21-.09,.79-.17,1.6-.28,2.41-.36,4.79-13.14,12.13-25.34,20.73-36.38,.12-.15,.25-.24,.38-.29-9.7,1.09-18.95,6.3-24.49,14.46-.24,.36-.69,.6-1.13,.46-7.76-2.45-16.51,.33-21.93,6.28-1.22,1.34-2.24,2.84-3.04,4.46-.78,1.57-1.08,3.73-2.75,4.66-1.59,.88-3.65,.33-5.38,.38-1.89,.05-3.76,.4-5.56,.98-7.09,2.28-13.04,8.32-14.8,15.61-.43,1.77-.22,4.07-1.56,5.46-1.28,1.33-3.23,1.28-4.92,1.55-4.07,.66-8.04,2.31-11.25,4.92-6.49,5.28-9.35,14.65-5.46,22.34,.34,.68-.08,1.49-.86,1.5-3.58,.08-6.84,2.03-8.63,5.13-.22,.37-.55,.49-.88,.47,6.81,6.15,13.66,12.25,20.54,18.31,4.47-3.95,10.22-5.05,16.05-4Z"/>
<path class="cls-1" d="M241.9,15.01c.06-.02,.1-.06,.13-.11,.03-.06,.06-.12,.1-.18-.24,.02-.48,.02-.71,.05,.18,.03,.34,.12,.48,.24Z"/>
<path class="cls-1" d="M164.92,119.79c-5.22-1.02-10.43-.17-14.48,3.32,2.15,1.89,4.29,3.79,6.45,5.68,8.99,7.85,18.04,15.63,27.15,23.34,.51,.43,1.02,.85,1.52,1.28,3.78-10.05,8.42-19.76,13.92-28.98,2.52-4.22,5.21-8.34,8.07-12.35,1.37-1.92,2.78-3.81,4.23-5.68,1.53-1.97,3.93-4.01,3.73-6.7-.2-2.62-.86-5.23-1.12-7.85-.26-2.62-.39-5.25-.4-7.88-.01-5.05,.44-10.1,1.28-15.08,.87-5.19,2.19-10.25,3.86-15.18-.3,.02-.6,.05-.9,.07-.04,.01-.06,.03-.11,.04-7.28,1.01-14.49,3.61-20.14,8.44-5.23,4.47-9.02,10.75-9.8,17.65-.07,.61-.59,1.18-1.27,.96-5.7-1.83-12.15-2.25-17.46,.95-4.6,2.77-6.72,7.57-6.57,12.84,.16,5.67,2.55,11.11,4.43,16.37,.51,1.43,1.03,2.87,1.54,4.3,.36,.99,1.07,2.27,1.07,3.35-.02,2.7-3.6,1.4-5.02,1.12Z"/>
<path class="cls-1" d="M296.73,112.63c3.27-2.9,7.75-4.92,12.02-4.6,1.46-3.72-1.76-7.6-5.14-8.79-3.88-1.37-8.24-.67-12.16,.12-4.21,.85-8.34,2.13-12.28,3.85-6.67,2.91-13.17,7.68-20.58,8.06,6.71,4.66,14.95,6.88,23.13,6.24,.8-.06,1.19,.88,.86,1.5-2.68,5.17-6.61,9.59-11.37,12.9,7.15-.85,13.89-4.13,18.95-9.34,1.53-3.73,3.49-7.21,6.57-9.95Z"/>
<path class="cls-1" d="M210.46,179.56s0-.04,0-.06c0,0,0,0,0,.02,0,.01,0,.03,0,.04Z"/>
<path class="cls-1" d="M241.9,15.01c.39,.34,.58,.98,.17,1.51-6.83,8.76-12.81,18.23-17.35,28.38-4.19,9.36-7.1,19.35-8.21,29.56-.55,5.08-.67,10.21-.29,15.31,.19,2.62,.53,5.21,.99,7.8,.44,2.52,.45,4.53-1.14,6.64-2.91,3.86-5.93,7.6-8.67,11.59-2.78,4.05-5.4,8.22-7.84,12.49-4.84,8.47-8.98,17.33-12.37,26.48,2.4,2.01,4.8,4.03,7.2,6.04,2.36-10.38,6.15-20.41,11.24-29.76,4.93-9.05,11.11-17.06,18.03-24.66,1.11-1.22,1.74-2.4,1.63-4.1-.09-1.34-.44-2.68-.66-4.01-.44-2.69-.77-5.41-.96-8.13-.4-5.57-.27-11.17,.37-16.71,1.28-11,4.6-21.58,9.67-31.43,4.88-9.48,11.08-18.19,17.31-26.81-2.93-.57-5.92-.71-8.88-.47-.04,.06-.07,.12-.1,.18-.03,.05-.07,.09-.13,.11Z"/>
<path class="cls-1" d="M315.17,113.82c-2.29,1.01-5.13,1.16-7.13,2.74,1.84,.15,2.69,2.17,1.93,3.75-.38,.79-1.16,1.34-2.02,1.49-.5,.09-1.01,.07-1.5-.07-.17-.05-.34-.13-.5-.2-.02,.07-.04,.14-.06,.2-.1,.35-.18,.71-.24,1.07-.13,.74-.16,1.49-.15,2.24,.03,1.11-1.8,1.39-1.96,.27-.01-.09-.02-.18-.03-.27,0,0,0,0,0,0,0-.02,0-.04,0-.06-.4-3.21,.08-6.53,2.28-9.04,1.04-1.19,2.4-1.94,3.88-2.45,1.37-.47,2.82-.73,4.17-1.26-.06-.05-.1-.11-.16-.16-2.78-2.4-6.59-2.58-9.93-1.4-8.27,2.92-11.43,11.32-13.97,18.94-1.3,3.9-2.61,7.81-4.6,11.42-1.93,3.49-4.38,6.67-7.09,9.59-5.67,6.1-12.46,11.31-19.34,15.97-13.65,9.24-29.71,16.21-46.51,14.85-2.89,4.85-7.03,8.71-11.48,12.13-5.28,4.05-10.83,7.76-16.27,11.59-10.04,7.07-20.15,14.08-30.84,20.14-6.74,3.82-13.72,7.21-20.88,10.18-.09,.44-.18,.88-.27,1.32-.05,.25-.25,.46-.46,.6,0,0-.01,0-.02,0,.01,.16,0,.32-.08,.49-1.76,4.14-4.4,7.82-7.47,11.09-5.7,6.07-12.7,11.08-19.79,15.4-6.25,3.81-12.86,7.01-19.71,9.61,3.3,.72,6.5,1.82,9.72,2.89,4.46,1.48,8.96,2.63,13.65,3.05,9.56,.86,19.16-.61,28.48-2.66,17.06-3.75,34.35-8.99,48.54-19.55,13.57-10.1,23.53-24.21,32.21-38.53,4.33-7.13,8.47-14.61,14.67-20.33,6.29-5.81,14.21-9.24,21.61-13.34,14.13-7.83,26.05-19.35,34.28-33.26,1-1.69,1.95-3.42,2.84-5.18,.88-1.73,1.6-3.56,2.67-5.19,2.24-3.44,5.62-4.14,9.28-5.36,6.93-2.31,14.16-7.61,14.31-15.59,.05-2.49-.59-5.08-2.02-7.13-.01,0-.02,.02-.03,.03Z"/>
<path class="cls-1" d="M115.27,254.56c6.1-4.83,11.83-10.42,14.93-17.69,.08-.2,.21-.31,.34-.4,0-.04,0-.07,0-.11-3.1,1.24-6.23,2.41-9.4,3.48-5.57,1.89-11.22,3.51-16.94,4.87-5.47,1.3-11.19,2.73-16.83,2.94-4.67,.18-9.59-.97-12.4-4.98-1.79-2.56-2.45-5.88-1.26-8.68-4.33,.11-8.19-2.71-12.43-3.31-.22,.67-1.03,1.12-1.59,.44-.14-.17-.26-.35-.39-.53-.11,0-.21,0-.32,0-3.17,.26-5.92,2.34-8.42,4.12-2.48,1.77-4.9,3.62-7.25,5.55-4.51,3.71-8.78,7.71-12.78,11.96-7.67,8.17-14.29,17.27-19.74,27.06,4.23-.47,8.47-.95,12.7-1.42,9.67-1.08,19.33-2.21,29.01-3.22,9.32-.98,19.09-2.42,28.47-1.33,.02,0,.03-.02,.04-.03,4.53-1.57,8.96-3.4,13.27-5.51,7.44-3.65,14.51-8.08,21-13.22Z"/>
<path class="cls-1" d="M317.2,113.15c1.06,1.69,1.69,3.63,1.92,5.63,7.25-5.72,14.51-11.43,21.76-17.15-7.75,3.8-15.49,7.6-23.24,11.41-.15,.07-.3,.11-.44,.11Z"/>
<path class="cls-1" d="M75.41,231.75c1.01-.28,1.61,.95,.97,1.67-3.54,3.99,.39,9.87,4.53,11.39,5.46,2.01,11.83,.31,17.3-.81,21.72-4.47,42.35-12.87,61.23-24.47-1.89-.33-3.81-.08-5.73,.27-2.55,.46-5.1,.96-7.64,1.44-5.14,.97-10.28,1.98-15.44,2.9-8.34,1.48-17.36,2.59-25.51-.45-6.21-2.32-11.68-7.48-13.66-13.9-.95-3.1-.97-6.49,.17-9.54,1.34-3.63,3.95-6.57,6.76-9.15,5.28-4.85,11.22-8.98,17.55-12.35-11.39-.72-22.83,.26-34.22-.59-8.7-.65-17.48-2.52-25.21-6.68-3.74-2.02-7.21-4.61-10.06-7.77-2.92-3.22-5.13-6.94-4.52-11.42,.54-3.98,2.93-7.6,6.03-10.08,3.64-2.91,8.27-4.26,12.8-5.03,5.15-.87,10.39-1.28,15.59-1.84,3.93-.43,7.86-.86,11.79-1.29-6.22-1.9-12.4-3.89-18.43-6.33-6.51-2.63-12.86-5.75-18.63-9.78-5.39-3.76-11.44-8.5-13.62-14.96-1.02-3.02-.82-6.32,.72-9.13,1.48-2.69,3.99-4.71,6.63-6.19,5.74-3.22,12.6-4.73,19.21-5.07-2.73-2.29-5.66-4.33-8.59-6.35-5.88-4.06-11.83-8.32-15.48-14.62-3.26-5.62-4.61-12.51-1.54-18.5,.27-.53,.78-.59,1.2-.39,.42-.59,.84-1.18,1.26-1.77C30.96,32,21.06,23.04,11.16,14.09c-.2-.18-.27-.38-.29-.58-.98,2.58-1.9,5.19-2.75,7.78-3.42,10.39-5.42,21.77-1.78,32.39,3,8.76,9.56,16.09,17.84,20.18,.69,.34,.61,1.36,0,1.73-4.43,2.68-8.84,5.46-12.67,8.97-6.37,5.85-11.34,14.64-8.9,23.5,2.18,7.91,9.28,13.36,15.53,18.07,.71,.54,.6,1.49-.24,1.83-3.85,1.53-6.96,4.57-8.82,8.25-3.58,7.09-1.22,15.04,3.84,20.74,5.69,6.41,13.88,9.65,21.66,12.72,.68,.27,1.01,1.09,.44,1.67-3.08,3.14-6.34,6.47-8,10.63-2.92,7.32,1.23,14.75,7.45,18.79,7.26,4.72,16.48,4.7,24.83,4.74,.72,0,1.3,.86,.86,1.5-4.31,6.4-4.27,15.28,.12,21.61,5.16,.33,9.92,4.57,15.13,3.14Z"/>
<path class="cls-1" d="M12.58,12.67l5.19,4.69c13.71,12.4,27.43,24.81,41.14,37.21,13.78,12.46,27.55,24.92,41.33,37.38,13.71,12.4,27.43,24.81,41.14,37.21,13.67,12.36,27.41,24.64,41,37.09,5.24,4.8,10.8,10.38,12.3,17.59,.97,4.67,.27,9.79-2.57,13.55,6.82-4.66,13.85-9.58,18.17-16.6-.06-.18-.09-.37-.02-.54,.08-.2,.14-.4,.18-.6,0-.04,.02-.09,.03-.13,0,0,0,0,0,0,0-.02,0-.04,0-.06,0-.07,.01-.13,.02-.2,0-.2,0-.4-.02-.59,0-.04-.01-.09-.02-.1-.02-.09-.03-.17-.06-.26-.04-.16-.12-.33-.16-.49,0-.01-.01-.03-.02-.05-.02-.04-.04-.08-.06-.12-.04-.09-.09-.18-.14-.26-.05-.08-.1-.17-.16-.25-.13-.11-.05-.07,0,0,0,0,0,0,0,0,0,0,0,0,.02,.01-.03-.03-.06-.07-.08-.1-.13-.15-.27-.29-.42-.42-.13-.11-.2-.26-.24-.42-1.87-1.71-3.75-3.4-5.65-5.06-2.65-2.31-5.32-4.59-8.01-6.86-.61,.52-1.84,0-1.63-1.03,.02-.1,.04-.19,.06-.29-5.57-4.69-11.18-9.35-16.72-14.07-8.85-7.53-17.63-15.13-26.36-22.8-17.28-15.17-34.33-30.61-51.16-46.28-16.83-15.68-33.43-31.59-49.81-47.73-8.22-8.1-16.38-16.25-24.49-24.46-1.04-1.06-2.07-2.13-3.13-3.17-.9-.89-1.9-1.85-3.13-2.27-2.52-.86-4.04,1.58-4.94,3.53-1.06,2.28-2.04,4.62-2.96,6.99,.36-.33,.93-.46,1.39-.04Z"/>
<path class="cls-1" d="M40.13,44.13c-3.85,7.52,.33,16.46,5.75,22.02,6.34,6.51,14.77,10.48,21.42,16.65,.65,.6,.13,1.7-.71,1.71-4.3,.03-8.56,.59-12.71,1.74-3.43,.94-6.86,2.19-9.81,4.22-2.43,1.67-4.53,4.01-5.12,6.98-.66,3.3,.76,6.54,2.64,9.18,3.72,5.24,9.51,9.24,14.96,12.49,11.39,6.79,24.2,10.65,36.81,14.43,1.15,.34,.81,1.85-.27,1.96-5.92,.65-11.84,1.29-17.75,1.94-5.46,.6-11.03,.93-16.4,2.11-4.24,.93-8.47,2.56-11.47,5.81-2.63,2.85-4.41,6.93-3.39,10.83,1.04,3.99,4.65,7.37,7.77,9.86,3.18,2.54,6.84,4.52,10.63,5.99,18.24,7.11,38.07,3.13,57.06,4.99,.89,.09,1.49,1.39,.5,1.86-7.95,3.83-15.66,8.86-21.88,15.18-2.54,2.58-4.76,5.66-5.3,9.32-.47,3.16,.38,6.38,1.94,9.12,3.59,6.34,10.19,9.9,17.26,10.79,8.38,1.06,16.83-.86,25.02-2.41,4.34-.82,8.68-1.64,13.02-2.45,3.77-.71,7.88-1.84,11.61-.36,0,0,0,0,.01,0,8.88-5.58,17.44-11.65,26-17.69,.16-.11,.33-.23,.49-.34-.43-.4-.56-1.22,.08-1.67,1.25-.89,2.27-2.03,3.03-3.36,3.41-5.94,1.51-13.19-2.16-18.49-2.14-3.1-4.86-5.76-7.61-8.31-3.15-2.92-6.36-5.77-9.55-8.65-13.4-12.12-26.81-24.25-40.21-36.37-13.4-12.12-26.81-24.25-40.21-36.37-13.4-12.12-26.81-24.25-40.21-36.37-3.51-3.17-7.01-6.34-10.52-9.51-.42,.59-.84,1.18-1.26,1.77,.49,.22,.84,.79,.53,1.4Z"/>
<path d="M348.36,95.74c-10.58,5.19-21.16,10.39-31.73,15.58-.24,.12-.37,.29-.44,.47-.34-.4-.7-.78-1.11-1.14-1.35-1.17-2.82-1.91-4.36-2.31,.87-2.91-.12-5.98-2.19-8.24-2.79-3.04-7.13-3.79-11.08-3.59-9.31,.49-18.02,4.13-26.17,8.38-4.91,2.56-10.13,4.96-15.8,4.26-.84-.1-1.34,1.18-.71,1.71,7.03,5.85,16.05,9.01,25.17,8.73-3.13,5.33-7.63,9.71-13.09,12.68-.89,.48-.46,1.86,.5,1.86,7.73,.04,15.3-2.66,21.28-7.48-.91,2.66-1.74,5.36-2.72,7.91-3.1,8.15-8.69,14.65-15.19,20.31-12.98,11.3-28.76,21.44-46.05,24.12-4.04,.63-8.14,.76-12.21,.44,.08-1.13-.22-2.29-.85-3.24,.01-.24-.07-.49-.31-.71-4.94-4.56-10.05-8.93-15.2-13.25,4.29-19.56,13.73-37.91,27.29-52.66,1.58-1.72,3.52-3.36,3.85-5.81,.35-2.61-.63-5.46-1-8.04-.78-5.59-.99-11.26-.68-16.89,.62-11.12,3.37-22.1,8.07-32.19,5.29-11.34,12.64-21.53,19.94-31.63,.38-.52-.02-1.33-.6-1.47-13.97-3.42-29.35,2.39-37.69,14.06-6.96-1.94-14.59-.12-20.27,4.27-2.89,2.23-5.27,5.13-6.73,8.49-.36,.83-.57,2.1-1.23,2.73-.87,.84-2.43,.43-3.52,.4-1.89-.06-3.8,.15-5.64,.58-7.43,1.75-13.92,7.28-16.84,14.33-.76,1.82-1.22,3.7-1.48,5.66-.18,1.31-.38,2.3-1.78,2.68-.99,.27-2.05,.29-3.05,.46-4.1,.7-8.06,2.39-11.35,4.94-7.19,5.55-10.44,15.39-6.98,23.86-3.69,.53-6.99,2.71-8.88,5.99-.12,.21-.14,.41-.12,.6-7.96-7.19-15.88-14.43-23.74-21.74-17.49-16.25-34.74-32.75-51.75-49.5-8.51-8.37-16.95-16.81-25.34-25.3-2.82-2.86-7.22-8.46-11.63-4.91-1.76,1.41-2.59,3.61-3.43,5.63-1.14,2.73-2.26,5.47-3.3,8.24C4.26,25.49,1.14,36.79,2.9,48.07c1.48,9.47,6.74,18.07,14.36,23.86,1.39,1.06,2.86,2.01,4.38,2.85-7.7,4.73-15.43,10.25-19.32,18.66-1.91,4.14-2.82,8.73-2.06,13.27,.72,4.26,2.94,8.07,5.71,11.32,2.84,3.33,6.27,6.1,9.74,8.74-6.47,3.35-10.84,10.41-10.39,17.79,.52,8.69,6.8,15.73,13.9,20.13,4.19,2.6,8.76,4.49,13.33,6.3-5.29,5.56-10.38,12.32-7.89,20.41,2.51,8.15,10.31,13.1,18.28,14.83,4.78,1.04,9.69,1.2,14.57,1.24-3.62,6.57-3.34,14.86,.5,21.25-2.39,.4-4.58,1.6-6.59,2.95-2.46,1.65-4.84,3.44-7.17,5.28-9.46,7.43-17.89,16.11-25.1,25.73-4.11,5.49-7.8,11.28-11.05,17.32-.32,.6,.07,1.59,.86,1.5,10.08-1.13,20.17-2.26,30.25-3.39,10.03-1.12,20.07-2.34,30.15-2.94,5.01-.3,10.1-.35,15.04,.7,4.44,.94,8.66,2.66,12.99,3.95,9.19,2.74,18.8,2.76,28.23,1.48,9.16-1.24,18.27-3.43,27.13-6.05,8.35-2.47,16.57-5.57,24.21-9.79,15.18-8.38,26.7-21.42,36.24-35.67,4.77-7.12,8.77-14.76,13.74-21.75,2.6-3.66,5.57-7.05,9.11-9.84,3.51-2.76,7.43-4.94,11.36-7.02,7.43-3.94,14.66-7.92,21.21-13.26,6.17-5.03,11.67-10.86,16.37-17.29,2.42-3.31,4.62-6.78,6.57-10.39,1.88-3.48,3.17-8.38,7-10.19,1.83-.87,3.87-1.23,5.77-1.92,1.82-.66,3.59-1.47,5.25-2.46,3.13-1.87,5.93-4.41,7.73-7.61,1.14-2.03,1.79-4.42,1.91-6.83,10.13-7.98,20.25-15.96,30.38-23.94,.94-.74-.26-2.04-1.21-1.57Zm-77.15,36.17c4.76-3.31,8.69-7.73,11.37-12.9,.32-.62-.06-1.57-.86-1.5-8.18,.64-16.42-1.58-23.13-6.24,7.42-.37,13.91-5.14,20.58-8.06,3.94-1.72,8.07-3,12.28-3.85,3.93-.8,8.28-1.49,12.16-.12,3.38,1.19,6.6,5.08,5.14,8.79-4.27-.32-8.75,1.7-12.02,4.6-3.08,2.73-5.04,6.22-6.57,9.95-5.06,5.2-11.8,8.49-18.95,9.34ZM242.56,14.52c-.13-.16-.3,0-.43,.2,2.96-.24,5.95-.1,8.88,.47-6.23,8.63-12.43,17.33-17.31,26.81-5.06,9.84-8.38,20.42-9.67,31.43-.65,5.54-.77,11.15-.37,16.71,.2,2.72,.52,5.43,.96,8.13,.22,1.33,.57,2.67,.66,4.01,.11,1.69-.52,2.88-1.63,4.1-6.92,7.6-13.1,15.61-18.03,24.66-5.09,9.35-8.88,19.38-11.24,29.76-2.4-2.01-4.8-4.03-7.2-6.04,3.39-9.15,7.53-18.01,12.37-26.48,2.44-4.27,5.06-8.44,7.84-12.49,2.74-3.99,5.76-7.73,8.67-11.59,1.59-2.11,1.59-4.12,1.14-6.64-.46-2.58-.79-5.18-.99-7.8-.38-5.1-.26-10.23,.29-15.31,1.11-10.2,4.02-20.2,8.21-29.56,4.54-10.15,10.53-19.62,17.35-28.38,.41-.53,.22-1.16-.17-1.51-.19,.08-.46,0-.3-.14-.16,.13,.12,.21,.3,.14-.14-.13-.31-.22-.48-.24,.24-.02,.48-.03,.71-.05,.13-.19,.3-.36,.43-.2Zm-73.68,100.8c-.51-1.43-1.03-2.87-1.54-4.3-1.88-5.27-4.27-10.7-4.43-16.37-.15-5.27,1.97-10.07,6.57-12.84,5.31-3.19,11.75-2.78,17.46-.95,.68,.22,1.2-.35,1.27-.96,.78-6.9,4.57-13.18,9.8-17.65,5.64-4.82,12.85-7.43,20.14-8.44,.04,0,.07-.03,.11-.04,.3-.03,.6-.05,.9-.07-1.67,4.94-2.99,10-3.86,15.18-.84,4.98-1.29,10.03-1.28,15.08,0,2.63,.14,5.26,.4,7.88,.26,2.62,.93,5.23,1.12,7.85,.2,2.69-2.2,4.73-3.73,6.7-1.45,1.87-2.86,3.76-4.23,5.68-2.86,4-5.55,8.12-8.07,12.35-5.5,9.22-10.14,18.94-13.92,28.98-.51-.43-1.02-.85-1.52-1.28-9.11-7.71-18.16-15.49-27.15-23.34-2.16-1.88-4.3-3.79-6.45-5.68,4.05-3.48,9.26-4.34,14.48-3.32,1.42,.28,5,1.58,5.02-1.12,0-1.08-.71-2.35-1.07-3.35Zm-39.6-12.33c1.79-3.1,5.05-5.04,8.63-5.13,.79-.02,1.21-.83,.86-1.5-3.89-7.69-1.03-17.06,5.46-22.34,3.21-2.61,7.18-4.27,11.25-4.92,1.69-.27,3.64-.22,4.92-1.55,1.34-1.39,1.14-3.7,1.56-5.46,1.76-7.29,7.71-13.32,14.8-15.61,1.8-.58,3.67-.93,5.56-.98,1.73-.05,3.78,.51,5.38-.38,1.67-.93,1.97-3.08,2.75-4.66,.8-1.62,1.82-3.12,3.04-4.46,5.42-5.96,14.17-8.73,21.93-6.28,.44,.14,.89-.1,1.13-.46,5.54-8.15,14.78-13.36,24.49-14.46-.13,.05-.26,.14-.38,.29-8.6,11.03-15.95,23.23-20.73,36.38-.81,.08-1.61,.2-2.41,.36-.07,.01-.14,.05-.21,.09-7.66,1.11-15.16,4.01-21.02,9.16-5.18,4.54-8.81,10.72-9.91,17.52-4.92-1.41-10.3-1.77-15.13,.13-4.52,1.78-8.18,5.24-9.6,9.95-1.62,5.37-.34,11.03,1.4,16.19,.98,2.92,2.06,5.82,3.1,8.72l1.46,4.08c.03,.09,.21,.49,.3,.75-.13-.05-.32-.06-.34-.07-.66-.36-1.84-.44-2.57-.57-5.83-1.05-11.58,.06-16.05,4-6.88-6.07-13.73-12.17-20.54-18.31,.33,.03,.67-.09,.88-.47ZM14.15,5.72c.91-1.95,2.42-4.38,4.94-3.53,1.23,.42,2.23,1.38,3.13,2.27,1.06,1.04,2.09,2.12,3.13,3.17,8.11,8.21,16.27,16.36,24.49,24.46,16.38,16.14,32.98,32.06,49.81,47.73,16.83,15.67,33.88,31.11,51.16,46.28,8.73,7.67,17.52,15.26,26.36,22.8,5.55,4.72,11.15,9.37,16.72,14.07-.02,.1-.04,.19-.06,.29-.21,1.03,1.02,1.55,1.63,1.03,2.68,2.27,5.36,4.55,8.01,6.86,1.91,1.66,3.79,3.36,5.65,5.06,.04,.16,.11,.31,.24,.42,.15,.13,.29,.27,.42,.42,.03,.03,.05,.07,.08,.1,0,0,0,0-.02-.01,.06,.08,.11,.16,.16,.25,.05,.09,.1,.17,.14,.26,.02,.04,.04,.08,.06,.12,0,0,0-.01,0-.02,0,0,0,.02,0,.03,0,0,0,0,0,0,.04,.09,.03,.09,.01,.05,.04,.16,.12,.33,.16,.49,.02,.09,.04,.17,.06,.26,0,0,0,.06,.02,.1,.02,.2,.02,.4,.02,.59,0,.07-.01,.13-.02,.2,0-.03,0-.02,0,.04,0,.02,0,.04,0,.06,0-.01,0-.03,0-.04,0,0,0,0,0,0,0,.04-.02,.09-.03,.13-.04,.21-.11,.41-.18,.6-.07,.18-.04,.36,.02,.54-4.32,7.03-11.35,11.94-18.17,16.6,2.84-3.75,3.55-8.88,2.57-13.55-1.5-7.22-7.07-12.8-12.3-17.59-13.59-12.45-27.33-24.73-41-37.09-13.71-12.4-27.43-24.81-41.14-37.21-13.78-12.46-27.55-24.92-41.33-37.38-13.71-12.4-27.43-24.81-41.14-37.21l-5.19-4.69c-.46-.42-1.04-.3-1.39,.04,.92-2.37,1.9-4.71,2.96-6.99ZM60.16,207c.43-.64-.14-1.5-.86-1.5-8.35-.04-17.56-.02-24.83-4.74-6.22-4.04-10.36-11.47-7.45-18.79,1.66-4.16,4.92-7.49,8-10.63,.57-.58,.24-1.4-.44-1.67-7.78-3.07-15.97-6.32-21.66-12.72-5.06-5.7-7.41-13.65-3.84-20.74,1.86-3.68,4.96-6.72,8.82-8.25,.84-.33,.95-1.29,.24-1.83-6.26-4.71-13.35-10.16-15.53-18.07-2.44-8.86,2.53-17.65,8.9-23.5,3.83-3.51,8.24-6.29,12.67-8.97,.61-.37,.69-1.38,0-1.73-8.28-4.09-14.84-11.42-17.84-20.18-3.64-10.62-1.64-22,1.78-32.39,.85-2.59,1.77-5.2,2.75-7.78,.02,.2,.1,.4,.29,.58,9.9,8.95,19.8,17.91,29.7,26.86,.11-.15,.21-.3,.32-.45-.11,.15-.21,.3-.32,.45,3.51,3.17,7.01,6.34,10.52,9.51,13.4,12.12,26.81,24.25,40.21,36.37,13.4,12.12,26.81,24.25,40.21,36.37,13.4,12.12,26.81,24.25,40.21,36.37,3.19,2.88,6.4,5.74,9.55,8.65,2.75,2.55,5.47,5.21,7.61,8.31,3.67,5.3,5.57,12.55,2.16,18.49-.76,1.33-1.78,2.47-3.03,3.36-.64,.45-.51,1.27-.08,1.67-.16,.11-.33,.23-.49,.34-8.57,6.04-17.13,12.11-26,17.69,0,0,0,0-.01,0-3.73-1.48-7.83-.35-11.61,.36-4.34,.82-8.68,1.64-13.02,2.45-8.2,1.55-16.64,3.47-25.02,2.41-7.08-.9-13.68-4.45-17.26-10.79-1.55-2.75-2.4-5.97-1.94-9.12,.54-3.66,2.77-6.74,5.3-9.32,6.22-6.31,13.92-11.34,21.88-15.18,.98-.47,.38-1.78-.5-1.86-18.98-1.86-38.82,2.13-57.06-4.99-3.79-1.48-7.44-3.45-10.63-5.99-3.12-2.49-6.73-5.87-7.77-9.86-1.02-3.9,.75-7.98,3.39-10.83,3.01-3.25,7.23-4.88,11.47-5.81,5.37-1.18,10.94-1.52,16.4-2.11,5.92-.65,11.84-1.29,17.75-1.94,1.08-.12,1.41-1.62,.27-1.96-12.62-3.78-25.43-7.65-36.81-14.43-5.45-3.25-11.24-7.25-14.96-12.49-1.88-2.64-3.29-5.88-2.64-9.18,.59-2.96,2.69-5.31,5.12-6.98,2.95-2.03,6.38-3.28,9.81-4.22,4.15-1.14,8.41-1.71,12.71-1.74,.84,0,1.35-1.11,.71-1.71-6.65-6.17-15.08-10.14-21.42-16.65-5.41-5.55-9.6-14.5-5.75-22.02,.32-.62-.04-1.18-.53-1.4l-.57,.8,.57-.8c-.42-.19-.93-.14-1.2,.39-3.07,5.99-1.72,12.88,1.54,18.5,3.65,6.3,9.6,10.55,15.48,14.62,2.93,2.03,5.86,4.06,8.59,6.35-6.61,.34-13.46,1.85-19.21,5.07-2.64,1.48-5.15,3.5-6.63,6.19-1.54,2.81-1.74,6.1-.72,9.13,2.17,6.46,8.23,11.2,13.62,14.96,5.77,4.03,12.12,7.15,18.63,9.78,6.03,2.43,12.22,4.43,18.43,6.33-3.93,.43-7.86,.86-11.79,1.29-5.19,.57-10.43,.97-15.59,1.84-4.53,.77-9.16,2.12-12.8,5.03-3.1,2.48-5.49,6.1-6.03,10.08-.61,4.49,1.61,8.2,4.52,11.42,2.86,3.16,6.32,5.75,10.06,7.77,7.73,4.17,16.51,6.03,25.21,6.68,11.39,.86,22.83-.12,34.22,.59-6.33,3.36-12.27,7.5-17.55,12.35-2.81,2.58-5.41,5.52-6.76,9.15-1.13,3.06-1.12,6.44-.17,9.54,1.97,6.41,7.45,11.58,13.66,13.9,8.14,3.04,17.16,1.92,25.51,.45,5.16-.91,10.29-1.93,15.44-2.9,2.55-.48,5.09-.98,7.64-1.44,1.92-.35,3.84-.6,5.73-.27-18.88,11.59-39.51,20-61.23,24.47-5.47,1.13-11.84,2.82-17.3,.81-4.14-1.53-8.07-7.4-4.53-11.39,.64-.72,.03-1.95-.97-1.67-5.2,1.43-9.97-2.81-15.13-3.14-4.39-6.34-4.43-15.21-.12-21.61Zm20.84,66.3s-.03,.02-.04,.03c-9.38-1.08-19.14,.36-28.47,1.33-9.68,1.01-19.34,2.14-29.01,3.22-4.23,.47-8.47,.95-12.7,1.42,5.45-9.79,12.06-18.89,19.74-27.06,4-4.25,8.27-8.26,12.78-11.96,2.35-1.93,4.77-3.79,7.25-5.55,2.5-1.78,5.25-3.86,8.42-4.12,.11,0,.22,0,.32,0,.13,.18,.26,.36,.39,.53,.56,.68,1.37,.23,1.59-.44,4.24,.6,8.11,3.42,12.43,3.31-1.19,2.8-.53,6.12,1.26,8.68,2.81,4.02,7.74,5.16,12.4,4.98,5.65-.21,11.36-1.65,16.83-2.94,5.72-1.36,11.37-2.98,16.94-4.87,3.16-1.07,6.3-2.24,9.4-3.48,0,.04,0,.07,0,.11-.14,.08-.26,.2-.34,.4-3.09,7.27-8.83,12.86-14.93,17.69-6.49,5.15-13.56,9.57-21,13.22-4.3,2.11-8.74,3.94-13.27,5.51Zm221.9-136.78c-3.66,1.22-7.04,1.92-9.28,5.36-1.06,1.63-1.79,3.46-2.67,5.19-.89,1.76-1.84,3.48-2.84,5.18-8.23,13.91-20.15,25.43-34.28,33.26-7.4,4.1-15.32,7.53-21.61,13.34-6.2,5.72-10.34,13.2-14.67,20.33-8.68,14.32-18.64,28.42-32.21,38.53-14.19,10.56-31.48,15.8-48.54,19.55-9.32,2.05-18.92,3.52-28.48,2.66-4.7-.42-9.19-1.57-13.65-3.05-3.22-1.07-6.42-2.16-9.72-2.89,6.84-2.6,13.45-5.8,19.71-9.61,7.09-4.32,14.09-9.33,19.79-15.4,3.07-3.27,5.71-6.94,7.47-11.09,.07-.17,.09-.33,.08-.49,0,0,.01,0,.02,0,.21-.14,.41-.34,.46-.6,.09-.44,.18-.88,.27-1.32,7.16-2.96,14.14-6.36,20.88-10.18,10.69-6.06,20.8-13.07,30.84-20.14,5.44-3.83,10.99-7.55,16.27-11.59,4.46-3.42,8.6-7.28,11.48-12.13,16.8,1.37,32.86-5.6,46.51-14.85,6.88-4.66,13.66-9.87,19.34-15.97,2.71-2.91,5.16-6.1,7.09-9.59,2-3.61,3.3-7.52,4.6-11.42,2.54-7.62,5.71-16.02,13.97-18.94,3.35-1.18,7.15-1,9.93,1.4,.06,.05,.1,.11,.16,.16-1.35,.54-2.8,.79-4.17,1.26-1.48,.51-2.84,1.26-3.88,2.45-2.2,2.51-2.68,5.83-2.28,9.04,0,.02,0,.04,0,.06,0,0,0,0,0,0,.01,.09,.02,.18,.03,.27,.16,1.12,1.99,.84,1.96-.27-.02-.75,.01-1.5,.15-2.24,.06-.36,.15-.71,.24-1.07,.02-.07,.04-.14,.06-.2,.16,.08,.33,.15,.5,.2,.49,.14,1,.16,1.5,.07,.86-.15,1.64-.7,2.02-1.49,.76-1.59-.08-3.61-1.93-3.75,2-1.58,4.85-1.73,7.13-2.74,.01,0,.02-.02,.03-.03,1.43,2.05,2.06,4.64,2.02,7.13-.15,7.99-7.38,13.28-14.31,15.59Zm16.21-17.74c-.22-2.01-.85-3.95-1.92-5.63,.14,0,.29-.03,.44-.11,7.75-3.8,15.49-7.6,23.24-11.41-7.25,5.72-14.51,11.43-21.76,17.15Z"/></g></g></svg>
