<svg id="Calque_2" xmlns="http://www.w3.org/2000/svg" viewBox="0 0 298.66 342.33">
<g id="Calque_4"><g>
<path class="cls-1" d="M124.75,257.83c-4.74-2.63-9.46-5.27-14.18-7.93-16.47-9.29-32.82-18.78-49.06-28.47-.09-.06-.15-.13-.21-.19-4.36,2.47-8.71,4.95-13.05,7.45-15.16,8.72-30.22,17.62-45.19,26.68,.05,.12,.08,.24,.08,.37,0,.02,0,.04,0,.06l31.77,18.43c18.88,10.95,37.75,21.9,56.63,32.85l33.36,19.35c0-4.62-.02-9.24-.03-13.86-.04-18.25-.08-36.5-.11-54.75Z"/>
<path class="cls-1" d="M62.13,202.33s-.05-.06-.06-.09c-.06-.12-.09-.25-.09-.39v-.85c0-.14,.04-.28,.1-.41,0,0,0-.01,0-.02-.07-4.97-.12-9.94-.16-14.91-.13-17.34-.07-34.69,.17-52.03-4.24-2.27-8.48-4.56-12.7-6.87-15.96-8.74-31.74-17.79-47.36-27.13,.02,7.53,.04,15.07,.06,22.6,.06,22.07,.11,44.14,.17,66.2,.04,17.09,.09,34.18,.13,51.27,4.05-2.85,8.12-5.65,12.23-8.41,15.41-10.33,31.27-19.99,47.51-28.96Z"/>
<path class="cls-1" d="M282.39,247.13c-15.42-8.9-30.92-17.66-46.5-26.29-4.52,2.4-9.03,4.82-13.52,7.26-16.06,8.74-31.97,17.77-47.71,27.07-.09,.05-.17,.07-.26,.09,.03,5.13,.05,10.25,.08,15.38,.1,18.33,.19,36.66,.29,54.99,2.3-1.34,4.59-2.68,6.89-4.02,18.96-11.07,37.92-22.14,56.88-33.21l57.32-33.47s.04-.01,.06-.02c-.11-.02-.22-.05-.34-.12-4.39-2.56-8.79-5.12-13.19-7.66Z"/>
<path class="cls-1" d="M151.59,155.61c-7.01-1.54-13.9,1.52-17.17,7.96-2.99,5.88-2.75,13.55,.85,19.11,8.3,12.81,29.99,5.37,31.21-9,.01-.17,.07-.32,.14-.45,.02-.23,.03-.45,.05-.68-.08-.14-.14-.29-.15-.49-.19-8.23-7.23-14.76-14.94-16.46Z"/>
<path class="cls-1" d="M235.82,135.49c.12,.15,.21,.34,.21,.6-.05,5.14-.1,10.29-.14,15.43-.15,18.12-.26,36.23-.31,54.35,.1,.03,.19,.06,.29,.1,.17,.05,.32,.13,.44,.26l.05,.06c.13,0,.26,.03,.4,.1,4.7,2.19,9.29,4.59,13.82,7.12,15.52,8.66,30.22,18.74,46,26.94-.05-7.84-.1-15.69-.14-23.53-.13-21.94-.27-43.89-.4-65.83-.11-17.35-.21-34.7-.32-52.05-4.3,2.8-8.61,5.58-12.95,8.33-15.41,9.76-31.07,19.13-46.94,28.13Z"/>
<path class="cls-1" d="M174.12,84.51c.08,.05,.13,.13,.19,.19,.07,.05,.14,.11,.2,.16,0,0,0,0,0,0,.08,.02,.16,.02,.25,.06,4.7,2.13,9.29,4.47,13.81,6.95,15.95,8.72,31.03,18.97,47.36,27,4.3-2.33,8.59-4.7,12.86-7.1,15.67-8.83,31.06-18.14,46.15-27.92,.21-.14,.42-.18,.61-.16-10.44-5.84-20.88-11.68-31.32-17.53-19.05-10.66-38.09-21.32-57.14-31.97-10.91-6.1-21.81-12.21-32.72-18.31-.1,4.78-.2,9.56-.27,14.33-.27,18.07-.3,36.14-.11,54.21,.04,.03,.08,.05,.11,.08Z"/>
<path class="cls-1" d="M3.51,85.29c.15,0,.32,.03,.48,.12,4.5,2.52,9,5.04,13.5,7.57,15.82,8.86,31.64,17.73,47.46,26.59,.09-.13,.19-.25,.33-.34,.59-.4,1.19-.79,1.78-1.19,.22-.15,.52-.16,.77-.1,.03,0,.06,.03,.09,.04,3.62-2.42,7.25-4.81,10.91-7.16,14.46-9.27,29.29-17.95,44.43-26.05,.02,0,.03,0,.04-.01,.18-5.09,.34-10.19,.48-15.28,.47-17.66,.63-35.33,.51-52.99l-6.65,3.74c-19.15,10.78-38.29,21.56-57.44,32.34-19.05,10.72-38.09,21.45-57.14,32.17l.23,.23c.09,.09,.16,.2,.21,.31Z"/>
<path class="cls-1" d="M298.43,254.44c-.05,.18-.09,.36-.14,.55-.06,.26-.24,.46-.46,.6-.16,.09-.32,.14-.5,.14,.05,.35-.07,.71-.46,.94-10.77,6.29-21.55,12.58-32.32,18.87-18.96,11.07-37.92,22.14-56.88,33.21-19.11,11.16-38.21,22.31-57.32,33.47-.06,.03-.11,.03-.16,.06-.05,.02-.09,.04-.14,.05-.07,.02-.14,.02-.2,.02-.07,0-.13,0-.2-.02-.05-.01-.09-.03-.14-.05-.06-.02-.11-.02-.17-.06-7.2-4.18-16.59-8.9-23.79-13.08-.12-.04-.24-.11-.33-.19-3.35-1.94-6.69-3.88-10.04-5.82-18.88-10.95-37.75-21.9-56.63-32.85s-37.75-21.9-56.63-32.85c-.02-.01-.03-.04-.06-.05-.07-.02-.15-.04-.22-.07-.23-.14-.37-.35-.46-.6l-.68-1.87c-.03-.09-.04-.19-.03-.28,0-.05-.03-.09-.03-.15-.03-12.41-.06-24.82-.09-37.22l-.17-66.2C.11,128.98,.06,106.99,0,85.01c0-.4,.2-.66,.47-.81,.05-.15,.13-.29,.23-.41,.09-.1,.2-.17,.32-.21,.05-.03,.11-.02,.17-.04,.05-.04,.07-.08,.13-.11l32.64-18.37c19.15-10.78,38.29-21.56,57.44-32.34C110.7,21.86,129.99,11,149.28,.13c.49-.27,.94-.1,1.22,.23,.15,0,.31,.03,.47,.12,10.76,6.02,21.52,12.04,32.28,18.06,19.05,10.66,38.09,21.32,57.14,31.97,19.05,10.66,38.09,21.32,57.14,31.97,.52,.29,.57,.81,.38,1.23,0,.03,0,.06,0,.08-.01,.13-.02,.25-.03,.38,.01,.03,.04,.05,.05,.08,.06,.12,.09,.25,.09,.39v.74c0,.18-.05,.35-.14,.5-.05,.07-.1,.13-.16,.2,0,0-.02,.01-.02,.02,0,0,0,.01,0,.02-.01,.11-.04,.21-.07,.31,.07,11.9,.15,23.8,.22,35.7,.13,21.94,.27,43.89,.4,65.83,.13,21.94,.27,43.89,.4,65.83,0,.27-.09,.46-.23,.62Z"/><g>
<path d="M154.88,154.5c-7.47-2.78-15.93-.93-20.71,5.65-4.41,6.06-4.93,14.72-1.78,21.44,3.41,7.27,11.11,10.75,18.89,9.43,8.28-1.4,15.81-7.84,17.07-16.3,.03-.03,.05-.07,.08-.1,.09-.16,.14-.32,.14-.5,.04-.53,.08-1.06,.12-1.59,.01-.17-.05-.36-.15-.52-.22-8.11-6.28-14.77-13.65-17.51Zm11.75,18.74c-.07,.13-.13,.27-.14,.45-1.22,14.37-22.91,21.8-31.21,9-3.6-5.56-3.84-13.23-.85-19.11,3.26-6.43,10.16-9.5,17.17-7.96,7.71,1.7,14.75,8.23,14.94,16.46,0,.2,.06,.35,.15,.49-.02,.23-.03,.45-.05,.68Z"/>
<path d="M167.82,128.28c-8.64-4.08-18.3-5.24-27.65-3.19-9.28,2.04-17.86,7.03-24.51,13.78-6.64,6.74-11.47,15.4-13.05,24.77-1.59,9.46,.24,19.17,4.58,27.68,8.67,16.98,27.2,28.87,46.56,26.42,18.78-2.37,35.75-16.72,40.79-35.04,.56-2.04,.95-4.12,1.2-6.21,.06-.13,.1-.26,.1-.41v-1.35c.06-.12,.11-.26,.12-.42,1.26-19.19-10.96-37.92-28.14-46.02Zm26.15,45.75c-.08,.14-.13,.29-.13,.46v1.32s-.02,.04-.02,.07c-2,18.29-16.69,33.83-34.16,38.66-8.83,2.44-18.18,1.93-26.64-1.58-8.43-3.5-15.72-9.67-20.85-17.18-5.12-7.49-8.21-16.42-8.14-25.53,.07-9.09,3.42-17.85,8.84-25.08,10.93-14.59,30.31-22.76,48.14-17.38,17.36,5.24,31.15,21.73,32.86,39.84,.2,2.13,.23,4.27,.1,6.41Z"/>
<path d="M220.17,130.5c.09-.38-.01-.79-.45-1.04-17.83-10.46-35.65-20.93-53.48-31.39-5.08-2.98-10.17-5.97-15.25-8.95-.36-.21-.7-.16-.96,0-.28-.23-.67-.32-1.08-.08l-53.49,31.18-15.25,8.89c-.51,.3-.56,.82-.37,1.24-.44,.07-.83,.37-.83,.94,.08,20.43,.15,40.86,.23,61.28,.02,5.81,.04,11.63,.07,17.44,0,.54,.36,.84,.78,.93,0,.3,.13,.59,.47,.79,17.48,10.17,34.97,20.35,52.45,30.52,5.02,2.92,10.03,5.84,15.05,8.76,.43,.25,.84,.15,1.12-.11,.28,.22,.67,.31,1.07,.07,18.08-10.47,36.15-20.93,54.23-31.4,5.11-2.96,10.23-5.92,15.34-8.88,.18-.1,.29-.24,.37-.39,.33-.13,.59-.42,.58-.88-.15-20.54-.31-41.08-.46-61.62l-.13-17.3Zm-55.6,109.86c-5.11,2.96-10.23,5.92-15.34,8.88-.05,.03-.07,.06-.11,.1-.03-.02-.04-.04-.06-.06-17.48-10.17-34.97-20.35-52.45-30.52-5.02-2.92-10.03-5.84-15.05-8.76-.09-.05-.17-.06-.25-.09-.08-20.39-.15-40.79-.23-61.18-.02-5.81-.04-11.63-.07-17.44,0-.14-.03-.25-.07-.36,.09-.02,.19-.04,.28-.1l53.49-31.18c5.07-2.96,10.15-5.92,15.22-8.87,.02,.02,.03,.04,.06,.05,17.83,10.46,35.65,20.93,53.48,31.39,4.9,2.88,9.81,5.76,14.71,8.63,.15,20.39,.3,40.78,.46,61.17,.04,5.65,.08,11.31,.13,16.96-18.06,10.46-36.12,20.91-54.19,31.37Z"/>
<path d="M297.85,122.15c-.07-11.9-.15-23.8-.22-35.7,.03-.1,.06-.2,.07-.31,0,0,0-.01,0-.02,0,0,.02-.01,.02-.02,.05-.07,.1-.14,.16-.2,.09-.16,.14-.32,.14-.5v-.74c0-.14-.02-.27-.09-.39-.01-.03-.04-.05-.05-.08,.01-.13,.02-.25,.03-.38,0-.03,0-.06,0-.08,.19-.42,.14-.94-.38-1.23-19.05-10.66-38.09-21.32-57.14-31.97-19.05-10.66-38.09-21.32-57.14-31.97-10.76-6.02-21.52-12.04-32.28-18.06-.16-.09-.32-.12-.47-.12-.28-.33-.73-.51-1.22-.23-19.29,10.86-38.58,21.72-57.88,32.58-19.15,10.78-38.29,21.56-57.44,32.34L1.32,83.43c-.06,.03-.08,.08-.13,.11-.06,.01-.12,.01-.17,.04-.12,.04-.23,.11-.32,.21-.11,.12-.18,.26-.23,.41C.2,84.35,0,84.61,0,85.01c.06,21.98,.11,43.97,.17,65.95l.17,66.2c.03,12.41,.06,24.82,.09,37.22,0,.06,.02,.1,.03,.15,0,.1,0,.19,.03,.28l.68,1.87c.09,.25,.22,.46,.46,.6,.06,.04,.14,.05,.22,.07,.02,.02,.03,.04,.06,.05,18.88,10.95,37.75,21.9,56.63,32.85s37.75,21.9,56.63,32.85c3.35,1.94,6.69,3.88,10.04,5.82,.1,.09,.21,.15,.33,.19,7.2,4.18,16.59,8.9,23.79,13.08,.06,.03,.11,.04,.17,.06,.05,.02,.09,.03,.14,.05,.07,.02,.14,.02,.2,.02,.07,0,.13,0,.2-.02,.05-.01,.1-.03,.14-.05,.05-.02,.11-.02,.16-.06,19.11-11.16,38.21-22.31,57.32-33.47,18.96-11.07,37.92-22.14,56.88-33.21,10.77-6.29,21.55-12.58,32.32-18.87,.39-.23,.51-.59,.46-.94,.18,0,.35-.05,.5-.14,.22-.14,.4-.34,.46-.6,.05-.18,.09-.36,.14-.55,.13-.16,.23-.35,.23-.62-.13-21.94-.27-43.89-.4-65.83-.13-21.94-.27-43.89-.4-65.83Zm-1.82,28.93c.13,21.94,.27,43.89,.4,65.83,.05,7.84,.1,15.69,.14,23.53-15.78-8.2-30.48-18.27-46-26.94-4.53-2.53-9.12-4.92-13.82-7.12-.14-.06-.27-.09-.4-.1l-.05-.06c-.12-.12-.27-.21-.44-.26-.1-.03-.19-.06-.29-.1,.06-18.12,.16-36.23,.31-54.35,.04-5.14,.09-10.29,.14-15.43,0-.25-.09-.44-.21-.6,15.87-9,31.53-18.37,46.94-28.13,4.34-2.75,8.65-5.52,12.95-8.33,.11,17.35,.21,34.7,.32,52.05ZM174.12,30.22c.07-4.78,.16-9.56,.27-14.33,10.91,6.1,21.81,12.21,32.72,18.31,19.05,10.66,38.09,21.32,57.14,31.97,10.44,5.84,20.88,11.68,31.32,17.53-.19-.02-.4,.02-.61,.16-15.09,9.78-30.49,19.09-46.15,27.92-4.27,2.4-8.55,4.77-12.86,7.1-16.33-8.03-31.41-18.28-47.36-27-4.52-2.47-9.12-4.81-13.81-6.95-.09-.04-.17-.04-.25-.06,0,0,0,0,0,0-.07-.05-.14-.11-.2-.16-.06-.06-.11-.14-.19-.19-.04-.03-.08-.05-.11-.08-.19-18.07-.16-36.14,.11-54.21ZM60.21,52.57c19.15-10.78,38.29-21.56,57.44-32.34l6.65-3.74c.12,17.66-.05,35.33-.51,52.99-.13,5.09-.29,10.19-.48,15.28-.02,0-.03,0-.04,.01-15.15,8.09-29.97,16.78-44.43,26.05-3.66,2.35-7.3,4.74-10.91,7.16-.03-.01-.06-.04-.09-.04-.25-.06-.55-.05-.77,.1-.59,.4-1.19,.79-1.78,1.19-.14,.09-.24,.21-.33,.34-15.82-8.86-31.64-17.73-47.46-26.59-4.5-2.52-9-5.04-13.5-7.57-.17-.09-.33-.12-.48-.12-.05-.11-.11-.22-.21-.31l-.23-.23c19.05-10.72,38.09-21.45,57.14-32.17ZM2.26,188.44c-.06-22.07-.11-44.14-.17-66.2-.02-7.53-.04-15.07-.06-22.6,15.62,9.33,31.41,18.38,47.36,27.13,4.22,2.31,8.45,4.6,12.7,6.87-.24,17.34-.3,34.69-.17,52.03,.04,4.97,.09,9.94,.16,14.91,0,0,0,.01,0,.02-.06,.13-.1,.26-.1,.41v.85c0,.14,.02,.27,.09,.39,.01,.03,.04,.06,.06,.09-16.24,8.97-32.1,18.63-47.51,28.96-4.11,2.75-8.18,5.56-12.23,8.41-.04-17.09-.09-34.18-.13-51.27Zm89.27,118.66c-18.88-10.95-37.75-21.9-56.63-32.85L3.13,255.82s0-.04,0-.06c0-.13-.03-.26-.08-.37,14.96-9.06,30.02-17.96,45.19-26.68,4.34-2.5,8.69-4.98,13.05-7.45,.06,.07,.12,.14,.21,.19,16.24,9.68,32.59,19.18,49.06,28.47,4.72,2.66,9.44,5.3,14.18,7.93,.04,18.25,.08,36.5,.11,54.75,0,4.62,.02,9.24,.03,13.86l-33.36-19.35Zm204.33-52.17l-57.32,33.47c-18.96,11.07-37.92,22.14-56.88,33.21-2.3,1.34-4.59,2.68-6.89,4.02-.1-18.33-.19-36.66-.29-54.99-.03-5.13-.05-10.25-.08-15.38,.09-.02,.17-.04,.26-.09,15.74-9.3,31.65-18.33,47.71-27.07,4.49-2.44,9-4.86,13.52-7.26,15.57,8.63,31.08,17.39,46.5,26.29,4.4,2.54,8.8,5.09,13.19,7.66,.12,.07,.23,.1,.34,.12-.02,.01-.04,0-.06,.02Zm.73-1.86c-15.58-9.1-31.24-18.06-46.99-26.87-4.44-2.48-8.88-4.96-13.33-7.42-.5-.28-.97-.08-1.24,.27-16.11,8.55-32.06,17.39-47.85,26.51-4.52,2.61-9.03,5.25-13.53,7.91-.25,.15-.38,.35-.44,.57-.43,.07-.82,.37-.81,.94,.1,18.35,.19,36.69,.29,55.04,.03,5.23,.05,10.46,.08,15.69,0,.41,.22,.68,.5,.83l-23.44,13.69c-7.02-4.04-16.01-8.57-22.93-12.58-.04-18.08-.08-36.17-.11-54.25-.01-5.21-.02-10.43-.03-15.64,0-.41-.21-.68-.49-.82,0-.29-.14-.58-.47-.77-16.53-9.18-32.95-18.55-49.26-28.12-4.68-2.75-9.35-5.51-14.01-8.29-.38-.22-.73-.16-1.01,.03-.28-.33-.73-.5-1.22-.23-15.37,8.71-30.64,17.6-45.81,26.66-4.03,2.41-8.05,4.83-12.06,7.26,0-3.77-.02-7.54-.03-11.31,.05-.02,.09-.05,.14-.08,15.31-10.81,31.07-20.96,47.26-30.4,4.57-2.67,9.18-5.28,13.82-7.84,.56-.31,.59-.9,.34-1.33,.03-.04,.08-.06,.1-.1,.03-.08,.07-.16,.1-.24,.05-.18,.05-.35,0-.53-.06-.18-.12-.35-.18-.53v-.04c.06-.12,.09-.27,.09-.44-.24-17.4-.29-34.8-.15-52.2,.04-4.72,.09-9.43,.16-14.15,.63-.33,.91-1.3,.1-1.73-16.27-8.69-32.38-17.69-48.3-26.99-4.51-2.63-9.01-5.29-13.49-7.98-.12-.07-.25-.11-.37-.13,0-3.64-.02-7.29-.03-10.93,.17,.12,.37,.21,.57,.21,.07,.18,.19,.34,.4,.46,15.97,8.95,31.94,17.9,47.91,26.85,4.5,2.52,9,5.04,13.5,7.57,.6,.33,1.15,0,1.38-.48,.18,0,.37-.02,.52-.12,.1-.07,.2-.14,.31-.2,.25,.13,.57,.14,.89-.08,14.24-9.59,28.86-18.62,43.82-27.06,4.29-2.42,8.62-4.79,12.96-7.11,.33-.18,.46-.45,.48-.73,.3-.14,.53-.42,.55-.84,.65-17.94,.99-35.89,1.03-53.84,.01-5.15,0-10.3-.04-15.46,0-.09-.03-.16-.05-.24,7.87-4.43,15.73-8.86,23.6-13.28,.04,.03,.07,.07,.12,.1,7.48,4.19,14.96,8.37,22.44,12.56-.4,18.12-.57,36.24-.51,54.36,.02,5.09,.06,10.18,.11,15.27,0,.02-.03,.04-.04,.06-.06,.12-.09,.25-.09,.39l.04,.27c.05,.17,.13,.32,.26,.44,.31,.24,.62,.48,.92,.72,.09,.1,.2,.17,.32,.21,.05,.02,.1,.02,.15,.03,.06,.04,.1,.1,.18,.13,16.75,7.61,32.05,17.9,48.02,26.96,4.36,2.48,8.78,4.85,13.29,7.06,.28,.35,.75,.55,1.25,.28,15.82-8.55,31.38-17.59,46.64-27.1,4.25-2.65,8.47-5.33,12.67-8.05,.02,3.72,.05,7.43,.07,11.15-.2-.04-.43,0-.66,.15-15.4,10.05-31.05,19.74-46.93,29.02-4.55,2.66-9.11,5.28-13.7,7.88-.65,.37-.57,1.09-.18,1.52-.12,.15-.2,.33-.21,.57-.18,18.25-.31,36.51-.4,54.76-.02,5.14-.04,10.29-.06,15.43,0,.45,.25,.73,.56,.87,.02,.03,.02,.07,.04,.1,.05,.07,.1,.13,.16,.2,.12,.12,.27,.21,.44,.26,.19,.06,.37,.12,.56,.19,.04,.01,.09,0,.13,0,.08,.08,.16,.16,.28,.21,16.62,7.77,31.82,18.09,47.62,27.32,4.35,2.54,8.74,4.98,13.22,7.28,.02,3.47,.04,6.94,.06,10.41-.03-.02-.04-.04-.07-.06Z"/></g></g></g></svg>
