<svg id="Calque_2" xmlns="http://www.w3.org/2000/svg" viewBox="0 0 289.62 288.32">
<g id="Calque_4"><g>
<path class="" d="M70.27,70.25c.18,22.51,.37,45.03,.49,67.54,4.07-3.19,8.16-6.38,12.59-9.05,7.77-4.68,17.14-7.8,26.23-5.65,4.5,1.06,8.58,3.44,12.33,6.07,3.65,2.56,7.06,5.45,10.21,8.61,.18-.34,.38-.68,.58-1.01-.01-.17,.01-.36,.12-.55,1.54-2.67,4.01-4.29,6.81-5.08,0,0-.02-.01-.03-.02-.2,.04-.41,.03-.63-.07-4.77-2.28-8.77-5.87-11.76-10.21-5.43-7.87-7.22-17.75-5.28-27.07,2.01-9.66,7.71-18.34,15.18-24.69-7.53,.04-15.06,.1-22.59,.2-14.76,.19-29.51,.51-44.26,.97Z"/>
<path class="" d="M146.32,69.04c3.92,3.65,7.07,8.04,9.88,12.59,2.85,4.62,5.77,9.42,7.23,14.69,1.22,4.38,1.23,9,.24,13.42-1.94,8.69-7.59,16.38-14.91,21.37,.75,.19,1.49,.41,2.18,.68,2.71,1.05,4.81,2.87,5.86,5.62,.49,1.29,.8,2.71,.97,4.16,.03,0,.06,0,.09,.01,0,0,0,0,.01,0,.03-.18,.11-.37,.29-.53,3.94-3.45,7.9-6.89,12.15-9.96,3.75-2.7,7.74-5.07,12.04-6.81,4.3-1.74,9.08-2.92,13.72-2.01,4.33,.85,7.85,3.71,11.01,6.63,3.56,3.29,7.08,6.63,10.6,9.96,0-8.9,0-17.79,.02-26.69,.04-14.24,.11-28.48,.19-42.72-23.86-.31-47.73-.5-71.59-.44Z"/>
<path class="" d="M158,147.57c.12,.04,.23,.11,.32,.21,.04,.04,.06,.09,.09,.14,.26,.04,.5,.18,.68,.45,2.66,4.2,6.09,7.91,10.11,10.84,7.27,5.31,17.52,9.28,26.54,6.84,9.8-2.65,16.07-11.41,21.62-19.27,.1-.14,.21-.24,.34-.31,0-1.67,0-3.34,0-5.01-.15-.04-.31-.1-.45-.24-4-3.76-7.96-7.59-12.02-11.28-3.24-2.95-6.87-5.63-11.39-5.92-4.49-.29-9.02,1.26-13.04,3.15-7.95,3.75-14.65,9.59-21.21,15.33-.32,.28-.7,.3-1.02,.18,0,.05,0,.1,0,.16-.03,.13-.09,.24-.18,.34-.07,.11-.16,.19-.28,.26-.07,.03-.13,.07-.2,.1,.02,1.31-.09,2.6-.32,3.81,0,.05-.02,.1-.04,.15,.02,0,.04,0,.06,0,.14,0,.27,.02,.39,.09Z"/>
<path class="" d="M47.29,24.71c-7.71,.41-15.44,.18-23.11-.69-.04,0-.07-.03-.1-.03-.41,7.75-.62,15.51-.64,23.28,7.75,.23,15.5,.32,23.25,.29,.2-7.61,.4-15.22,.6-22.83Z"/>
<path class="" d="M217.83,217.71c-.1-22.65-.13-45.31-.13-67.96-3.13,4.39-6.4,8.75-10.53,12.24-3.69,3.12-8.07,5.61-12.88,6.43-5.14,.87-10.47-.07-15.34-1.8-8.53-3.03-15.93-8.8-20.96-16.3-.1-.02-.2-.04-.29-.09-.05-.02-.09-.05-.13-.07-.11-.07-.21-.15-.31-.24-.04-.03-.07-.07-.1-.1-.08-.09-.15-.19-.22-.29-1.5,3.8-4.8,6.88-8.69,8.12,3.65,2.91,6.78,6.41,9.21,10.41,4.63,7.61,6.62,16.67,5.41,25.51-1.16,8.48-5.09,16.49-11.1,22.57,.03,.29-.05,.59-.27,.79-.22,.2-.46,.39-.7,.56,8.62-.02,17.23-.03,25.85-.02,13.73,.02,27.46,.11,41.19,.23Z"/>
<path class="" d="M218.13,36.98c-.12,.06-.25,.09-.39,.09h-.78s-.02,0-.02,0c-.09,.03-.18,.06-.29,.07-10.73,.28-21.46,.47-32.19,.57-19.14,.18-38.27,.06-57.41-.34-9.48-.2-18.96-.47-28.44-.82-9.45-.34-19.03-1.22-28.46-.1-.05,0-.09-.01-.14-.01,.07,9.41,.15,18.81,.22,28.22,0,1.2,.02,2.41,.03,3.61,35.04-1.1,70.11-1.36,105.17-1.18,14.17,.07,28.34,.23,42.5,.41,.06-10.17,.13-20.34,.21-30.51,0,0,0,0,0,0Z"/>
<path class="" d="M70.51,252.1c10.8-.03,21.6-.07,32.4-.1l57.57-.18c19.18-.06,38.35-.12,57.53-.18-.07-10.04-.13-20.07-.17-30.11,0-.61,0-1.23,0-1.84-34.18-.29-68.35-.31-102.53-.01-14.92,.13-29.83,.33-44.74,.57-.14,10.68-.34,21.36-.62,32.04,.15-.11,.33-.19,.57-.2Z"/>
<path class="" d="M286.23,2.24c0-.05,.02-.09,.03-.13-20.49-.05-40.99-.09-61.48-.1-1.47,0-2.95,0-4.42,0,.03,.09,.06,.18,.06,.29-.2,20.56-.36,41.12-.48,61.68,0,1.18,0,2.36-.01,3.54,21.55,.29,43.1,.66,64.64,1.05,.16-22.11,.65-44.23,1.67-66.32Zm-19.5,44.82c0,.29-.12,.51-.28,.67,.27,.59,0,1.45-.86,1.45-7.59-.07-15.19-.07-22.78,0-.45,0-.73-.24-.87-.55-.57,.15-1.29-.15-1.3-.92-.17-8.07-.18-16.14-.05-24.21,.01-.7,.61-1.01,1.15-.94,.12-.35,.42-.63,.91-.6,7.34,.41,14.68,.61,22.03,.6,.13-1.12,1.94-1.08,1.97,.15,.2,8.12,.22,16.25,.08,24.38Z"/>
<path class="" d="M128.52,82.34c-4.68,8.03-6.69,17.64-4.4,26.76,2.16,8.63,7.77,16.35,15.88,20.22,.01,0,.01,.01,.02,.02,.06-.01,.12-.03,.17-.03,.14,0,.27,.02,.39,.09,.12,.04,.23,.11,.32,.21,.43,.35,.86,.7,1.3,1.05,1.39-.15,2.81-.13,4.2,.04,.04-.25,.18-.5,.45-.67,4.24-2.72,7.88-6.34,10.6-10.59,4.86-7.6,6.43-16.78,3.16-25.31-1.85-4.81-4.69-9.33-7.5-13.63-2.75-4.22-5.89-8.18-9.78-11.42,0,0,0,0,0,0-1.39,0-2.77,.01-4.16,.02,.19,.33,.18,.75-.21,1.07-4.15,3.44-7.71,7.54-10.43,12.2Z"/>
<path class="" d="M131.21,139.67c-3.53-3.6-7.4-6.86-11.59-9.66-3.68-2.46-7.66-4.55-12.07-5.29-4.31-.72-8.76-.18-12.92,1.07-8.62,2.58-15.85,8.25-22.83,13.72-.33,.26-.71,.28-1.03,.16,.01,2.26,.03,4.51,.04,6.77,.25,.04,.5,.17,.68,.43,3.07,4.3,6.9,8.07,11.31,10.99,7.57,5.02,16.86,7.51,25.86,5.65,8.58-1.77,16.4-7.03,20.38-14.95,.09-.19,.23-.3,.37-.38,.08-.25,.17-.5,.25-.75,.05-.17,.13-.32,.26-.44,.07-.05,.13-.1,.2-.16,.16-.09,.32-.14,.5-.14,.02,0,.03,0,.05,0-.35-2.32-.14-4.73,.63-6.95-.03-.02-.06-.03-.08-.06Z"/>
<path class="" d="M141.84,217.54c-4.01-2.82-7.47-6.35-10.2-10.44-5.2-7.79-7.55-17.31-6.33-26.61,1.2-9.12,5.61-17.73,12.36-23.98-1.9-1.04-3.58-2.49-4.84-4.29-.7-1-1.23-2.09-1.61-3.23-.05,.13-.12,.25-.22,.35-.07,.05-.13,.1-.2,.16,0,0-.02,0-.03,.01,0,.01,0,.03-.01,.04-2.34,4.65-5.99,8.51-10.36,11.31-8.01,5.15-18,6.5-27.14,3.98-8.99-2.48-16.79-8.23-22.45-15.56,.03,8.3,.05,16.6,.05,24.9,0,14.69-.09,29.38-.27,44.07,23.75-.38,47.5-.62,71.25-.71Z"/>
<path class="" d="M147.75,155.71c4.55-1.48,7.8-5.72,8.11-10.47,.17-2.58-.08-5.64-1.28-7.98-1.18-2.3-3.52-3.48-5.93-4.1-4.61-1.18-10.45-.85-13.48,3.17,.03,.2,0,.42-.18,.65-3.29,4.43-3.43,10.93,.32,15.15,3.06,3.45,8.03,5.01,12.45,3.58Z"/>
<path class="" d="M143.96,217.1c.12-.01,.24-.01,.36,.01,.09,.02,.17,.03,.26,.05,.01,0,.09,.02,.13,.02,.04,0,.12,.01,.13,.01,.07,0,.14,.01,.21,.02,.28,.02,.56,.02,.84,.01,.14,0,.28-.01,.42-.03,.01,0,.09,0,.13-.01,.04,0,.12-.02,.13-.02,.28-.04,.55-.1,.82-.18,.61-.17,.93-.29,1.46-.59,.04-.02,.08-.04,.12-.07,.03-.18,.11-.35,.27-.51,3.54-3.3,6.39-7.24,8.45-11.62,3.62-7.72,4.53-16.59,2.4-24.85-2.09-8.09-6.89-15.47-13.55-20.54-.24-.19-.37-.43-.41-.68-2.2,.3-4.42,.02-6.48-.73,0,0,0,.01-.02,.02-3.77,3.35-6.81,7.41-8.98,11.96-3.86,8.08-4.74,17.41-2.27,26.02,2.43,8.45,7.82,15.97,15.12,20.87,.32,.21,.45,.52,.45,.82Z"/>
<path class="" d="M286.69,220.68c-20.55-.41-41.1-.72-61.65-.92-1.73-.02-3.46-.02-5.19-.04,.1,21.17,.22,42.34,.41,63.5,0,.1-.03,.18-.05,.27,.15,.12,.27,.28,.33,.48,.06,.23,.12,.47,.18,.7,.1,.37-.03,.72-.28,.96,0,.08-.02,.17-.02,.25,21.63-.05,43.27-.1,64.9-.15,.21,0,.37,.07,.52,.15,.19-.04,.37-.08,.55-.15,.18-.09,.35-.19,.52-.3,.09-.08,.18-.16,.27-.25,.12-.13,.29-.2,.46-.24-.12-20.55-.46-41.11-.87-61.66-.02-.87-.04-1.74-.05-2.61Zm-19.7,44.06s0,.04,0,.06c.28,.6,0,1.47-.85,1.44-8.13-.23-16.27-.03-24.38,.61-.48,.04-.78-.22-.9-.57-.51,.01-1.03-.3-1.02-.96,.11-8.17,.22-16.34,.33-24.51,.01-.82,.82-1.11,1.4-.89,.09-.03,.18-.07,.3-.07,8.14-.34,16.28-.12,24.39,.68,.92,.09,1.17,1.16,.75,1.7-.3,7.5-.3,15.01-.01,22.52Z"/>
<path class="" d="M284.54,70.56c-10.1-.18-20.19-.36-30.29-.53,.08,10.75,.14,21.51,.18,32.27,.07,19.22,.06,38.43-.02,57.65-.08,19.3-.24,38.6-.47,57.89,0,.11-.03,.2-.06,.29,10.92,.16,21.85,.34,32.77,.56-.73-35.31-1.65-70.63-2-105.95-.14-14.06-.19-28.12-.1-42.17Z"/>
<path class="" d="M251.94,217.83c.13-10.9,.24-21.79,.32-32.69,.15-19.21,.22-38.43,.22-57.65,0-19.17-.08-38.33-.23-57.5-9.41-.16-18.81-.31-28.22-.44-1.37-.02-2.75-.04-4.12-.05-.19,34.6-.27,69.21-.21,103.82,.02,14.8,.08,29.6,.15,44.41,10.72,.1,21.43,.22,32.15,.37-.02-.09-.05-.16-.05-.27Z"/>
<path class="" d="M218.03,253.65c-10.79,.03-21.58,.07-32.37,.1l-57.57,.18-57.57,.18c-.26,0-.45-.09-.6-.22-.27,10.08-.59,20.15-1,30.22,0,.01,0,.02,0,.03,.06,.59,.12,1.17,.18,1.76,.01,.11-.01,.23-.06,.34,35.48,.02,70.95-.15,106.43-.24,14.32-.03,28.63-.07,42.95-.1,.05-.55,.11-1.11,.16-1.66,0-.1,.04-.18,.06-.26-.21-.16-.37-.41-.37-.75-.09-9.86-.16-19.71-.23-29.57Z"/>
<path class="" d="M69.99,34.49c.05-.01,.1-.04,.16-.05,10.55-1.26,21.36-.14,31.95,.22,19.13,.66,38.26,1.02,57.4,1.1,19.05,.08,38.11-.14,57.15-.63,0,0,0,0,.02,0,.1-.04,.19-.07,.3-.07h.78c.14,0,.28,.04,.41,.09,.08-10.96,.16-21.91,.27-32.87,0-.11,.03-.2,.06-.29-34.69-.01-69.39,.02-104.08,.13-14.93,.04-29.86,.11-44.79,.17,.08,.14,.14,.29,.14,.49l.25,31.7Z"/>
<path class="" d="M4.68,219.42c.42-.05,.85,0,1.26,.1,.08,.02,.14,.07,.21,.11,9.45-.25,18.9-.48,28.35-.69-.04-.07-.07-.14-.08-.21l-.1-.6c-.15-.16-.25-.36-.26-.63-.25-10.73-.46-21.46-.63-32.19-.29-19.13-.45-38.27-.46-57.4,0-18.82,.12-37.64,.39-56.46-9.42,.1-18.83-.19-28.19-1.44-.03,0-.05-.02-.08-.03-.03,0-.05,.02-.08,.02-.13,.03-.27,.02-.4-.02-.2-.08-.41-.13-.63-.17-.21-.02-.43-.03-.64,0-.04,0-.08,.01-.12,0-.06,0-.12,.01-.17,.02-.25,.03-.5-.11-.68-.27-.64,35.18-.35,70.36,.17,105.54,.22,14.91,.47,29.81,.72,44.72,.23-.11,.46-.21,.7-.28,.24-.07,.48-.1,.72-.13Z"/>
<path class="" d="M68.27,70.32c-2.82,.09-5.65,.18-8.47,.28-8.13,.29-16.29,.69-24.44,.82-.15,10.51-.25,21.02-.32,31.53-.11,19.13-.09,38.27,.08,57.4,.17,18.66,.47,37.32,.91,55.98,.1,.62,.21,1.25,.31,1.87,.05,.18,.05,.35,0,.53-.02,.06-.05,.11-.07,.17,10.21-.22,20.42-.42,30.64-.59,.56,0,1.12-.01,1.68-.02,.44-35.1,.27-70.2,0-105.3-.11-14.22-.22-28.44-.33-42.66Z"/>
<path class="" d="M46.81,264.92c-.05-7.3-.1-14.6-.16-21.9-7.6-.01-15.18-.37-22.75-1.09-.31,7.69-.38,15.39-.2,23.09,7.7-.21,15.4-.24,23.1-.1Z"/>
<path class="" d="M3.05,67.84l1.63-.2c.26-.03,.53,.13,.71,.29,.03,.03,.04,.07,.06,.1,20.05,2.63,40.37,1.02,60.49,.35,.77-.03,1.54-.04,2.31-.07-.17-21.84-.34-43.68-.51-65.52,0-.19,.05-.35,.12-.48-2.98,.01-5.97,.02-8.95,.03-18.07,.09-36.19-.04-54.2,1.7,.04,.12,.07,.25,.06,.41-1.19,20.42-1.93,40.86-2.34,61.31-.02,.78-.02,1.56-.04,2.34,.08-.07,.17-.14,.27-.17,.12-.06,.25-.09,.39-.09ZM22.14,22.75c.05-.97,1.21-1.21,1.74-.71,.1-.02,.19-.04,.31-.03,7.71,.88,15.48,1.11,23.23,.69,.09,0,.15,.02,.23,.03,.57-.51,1.71-.28,1.69,.7-.22,8.2-.43,16.39-.65,24.59,0,.21-.07,.37-.16,.51,0,.5-.32,1.01-.96,1.01-8.15,.05-16.31-.05-24.46-.3-.36-.01-.61-.18-.77-.42-.46-.05-.88-.35-.88-.95,0-8.38,.24-16.77,.7-25.14Z"/>
<path class="" d="M4.5,221.5c-.09,.03-.19,.04-.28,.08-.14,.07-.29,.11-.45,.12-.09-.01-.18-.02-.27-.04-.08-.02-.14-.07-.21-.1,.35,21.06,.72,42.12,1.07,63.18,0,.02,0,.03,0,.05,.07,0,.13-.03,.2-.03,20.37,1.21,40.78,1.46,61.19,1.48,.39,0,.79,0,1.18,0-.13-.22-.17-.52-.1-.77,.04-.15,.07-.3,.1-.45,.02-.22,.02-.44,0-.67,0-.05-.03-.1-.03-.16,.84-20.57,1.36-41.15,1.65-61.73,.01-.73,.02-1.45,.03-2.18-21.18,.35-42.36,.79-63.54,1.37-.22,0-.39-.06-.53-.15Zm17.42,20c.02-.39,.22-.64,.48-.8,.03-.47,.34-.88,.94-.82,7.79,.75,15.61,1.13,23.43,1.13,.43-.77,1.86-.61,1.87,.48,.06,8.4,.12,16.79,.18,25.19,0,1.2-1.71,1.27-1.95,.23-7.74-.14-15.49-.11-23.23,.1-.31,0-.55-.11-.71-.28-.55,.09-1.19-.21-1.21-.94-.2-8.1-.14-16.21,.2-24.3Z"/>
<path class="" d="M242.15,241.83c-.1,7.67-.21,15.34-.31,23.01,7.7-.61,15.42-.81,23.14-.63-.27-7.27-.26-14.54,.02-21.8-7.6-.69-15.22-.9-22.85-.59Z"/>
<path class="" d="M264.69,24.53c-7.35,.01-14.7-.18-22.04-.6-.02,0-.04-.01-.06-.01-.12,7.76-.11,15.52,.04,23.28,.06-.01,.11-.04,.18-.04,7.31-.07,14.63-.06,21.94,0,0-.04-.02-.07-.02-.11,.13-7.51,.11-15.02-.04-22.52Z"/><g>
<path d="M287.7,174.78c-.79-36.84-1.45-73.69-1.11-110.54,.19-20.67,.69-41.35,1.64-62,.02-.33-.11-.57-.29-.73,.22-.59-.07-1.4-.89-1.4C250.06,.01,213.08-.02,176.09,.01c-36.79,.04-73.59,.14-110.38,.31C45.08,.42,24.35,.08,3.79,2.13c-.93,.09-1.18,1.18-.75,1.71-.14,.16-.25,.35-.27,.61C.65,40.84-.02,77.29,0,113.73c.02,36.47,.71,72.94,1.32,109.41l1.03,61.6c.01,.74,.68,1.04,1.24,.93-.01,.51,.3,1.05,.96,1.09,36.36,2.17,72.86,1.47,109.26,1.38,36.61-.09,73.23-.17,109.84-.26,20.38-.05,40.75-.1,61.13-.14,.15,.1,.33,.17,.53,.18,1.2,.07,2.43-.44,3.25-1.32,.09-.1,.16-.21,.21-.32,.44-.06,.84-.36,.84-.94-.21-36.86-1.13-73.71-1.92-110.56Zm-1.05,43.9c-10.92-.22-21.85-.4-32.77-.56,.03-.09,.06-.18,.06-.29,.23-19.3,.39-38.59,.47-57.89,.08-19.21,.09-38.43,.02-57.65-.04-10.76-.1-21.51-.18-32.27,10.1,.17,20.19,.35,30.29,.53-.09,14.06-.04,28.12,.1,42.17,.35,35.32,1.27,70.63,2,105.95ZM219.93,63.97c.12-20.56,.28-41.12,.48-61.68,0-.11-.03-.2-.06-.29,1.47,0,2.95,0,4.42,0,20.49,.01,40.99,.05,61.48,.1,0,.05-.03,.08-.03,.13-1.02,22.09-1.51,44.21-1.67,66.32-21.55-.39-43.09-.76-64.64-1.05,0-1.18,0-2.36,.01-3.54ZM114.39,2.14c34.69-.1,69.39-.14,104.08-.13-.03,.09-.06,.18-.06,.29-.11,10.96-.18,21.91-.27,32.87-.13-.06-.26-.09-.41-.09h-.78c-.11,0-.2,.03-.3,.07,0,0,0,0-.02,0-19.05,.5-38.1,.71-57.15,.63-19.14-.08-38.27-.44-57.4-1.1-10.58-.36-21.39-1.48-31.95-.22-.06,0-.1,.04-.16,.05l-.25-31.7c0-.2-.06-.35-.14-.49,14.93-.07,29.86-.13,44.79-.17Zm24.77,66.93c1.39,0,2.77-.01,4.16-.02,0,0,0,0,0,0,3.89,3.23,7.02,7.2,9.78,11.42,2.8,4.3,5.65,8.83,7.5,13.63,3.27,8.53,1.7,17.71-3.16,25.31-2.71,4.25-6.35,7.88-10.6,10.59-.28,.18-.41,.42-.45,.67-1.39-.17-2.81-.19-4.2-.04-.43-.35-.86-.7-1.3-1.05-.09-.1-.2-.17-.32-.21-.12-.06-.25-.09-.39-.09-.05,0-.11,.02-.17,.03-.01,0-.01-.01-.02-.02-8.11-3.87-13.72-11.59-15.88-20.22-2.29-9.12-.28-18.72,4.4-26.76,2.72-4.66,6.28-8.76,10.43-12.2,.39-.33,.4-.74,.21-1.07Zm-8.49,77.61s-.03,0-.05,0c-.18,0-.35,.05-.5,.14-.07,.05-.13,.1-.2,.16-.12,.12-.21,.27-.26,.44-.08,.25-.17,.5-.25,.75-.14,.08-.27,.19-.37,.38-3.98,7.92-11.81,13.18-20.38,14.95-9,1.86-18.29-.63-25.86-5.65-4.41-2.92-8.24-6.69-11.31-10.99-.18-.26-.43-.39-.68-.43,0-2.26-.03-4.51-.04-6.77,.32,.12,.7,.11,1.03-.16,6.98-5.47,14.21-11.14,22.83-13.72,4.16-1.24,8.61-1.79,12.92-1.07,4.41,.74,8.39,2.83,12.07,5.29,4.19,2.8,8.06,6.06,11.59,9.66,.03,.03,.06,.03,.08,.06-.76,2.22-.98,4.63-.63,6.95Zm-59.8,27.5c0-8.3-.02-16.6-.05-24.9,5.66,7.33,13.46,13.08,22.45,15.56,9.15,2.52,19.13,1.17,27.14-3.98,4.37-2.81,8.02-6.66,10.36-11.31,0-.01,0-.03,.01-.04,0,0,.02,0,.03-.01,.07-.05,.13-.1,.2-.16,.1-.1,.17-.22,.22-.35,.38,1.14,.91,2.23,1.61,3.23,1.25,1.8,2.93,3.25,4.84,4.29-6.76,6.25-11.16,14.86-12.36,23.98-1.22,9.3,1.12,18.82,6.33,26.61,2.73,4.09,6.18,7.61,10.2,10.44-23.75,.1-47.5,.33-71.25,.71,.19-14.69,.27-29.38,.27-44.07Zm64.12-37.2c.17-.22,.21-.45,.18-.65,3.04-4.02,8.88-4.35,13.48-3.17,2.41,.62,4.75,1.8,5.93,4.1,1.2,2.34,1.45,5.39,1.28,7.98-.31,4.75-3.56,8.99-8.11,10.47-4.42,1.44-9.39-.13-12.45-3.58-3.75-4.22-3.6-10.72-.32-15.15Zm-6.6,58.42c-2.48-8.62-1.59-17.94,2.27-26.02,2.17-4.55,5.21-8.61,8.98-11.96,0,0,0-.01,.02-.02,2.06,.75,4.28,1.02,6.48,.73,.04,.25,.16,.49,.41,.68,6.66,5.08,11.46,12.45,13.55,20.54,2.14,8.26,1.22,17.13-2.4,24.85-2.06,4.38-4.91,8.32-8.45,11.62-.17,.16-.24,.33-.27,.51-.04,.02-.07,.04-.12,.07-.53,.29-.85,.42-1.46,.59-.27,.07-.55,.13-.82,.18-.01,0-.09,.01-.13,.02-.03,0-.12,.01-.13,.01-.14,.01-.28,.02-.42,.03-.28,.01-.56,0-.84-.01-.07,0-.14-.01-.21-.02-.01,0-.09-.01-.13-.01-.03,0-.12-.02-.13-.02-.09-.01-.17-.03-.26-.05-.12-.02-.24-.02-.36-.01,0-.3-.13-.61-.45-.82-7.3-4.91-12.69-12.43-15.12-20.87Zm23.12,21.53c.22-.2,.3-.5,.27-.79,6.01-6.08,9.94-14.09,11.1-22.57,1.21-8.84-.79-17.89-5.41-25.51-2.43-4-5.56-7.5-9.21-10.41,3.9-1.23,7.19-4.32,8.69-8.12,.07,.1,.14,.19,.22,.29,.03,.04,.06,.07,.1,.1,.1,.09,.2,.16,.31,.24,.04,.03,.09,.05,.13,.07,.09,.06,.19,.08,.29,.09,5.04,7.5,12.44,13.27,20.96,16.3,4.87,1.73,10.2,2.67,15.34,1.8,4.81-.81,9.19-3.31,12.88-6.43,4.13-3.49,7.41-7.84,10.53-12.24,0,22.65,.03,45.31,.13,67.96-13.73-.12-27.46-.2-41.19-.23-8.62-.01-17.23,0-25.85,.02,.24-.18,.48-.36,.7-.56Zm6.05-69.45s.03-.1,.04-.15c.24-1.21,.34-2.51,.32-3.81,.07-.03,.13-.07,.2-.1,.12-.06,.21-.15,.28-.26,.09-.1,.15-.21,.18-.34,.02-.05,0-.1,0-.16,.32,.12,.69,.1,1.02-.18,6.56-5.74,13.26-11.58,21.21-15.33,4.01-1.89,8.54-3.44,13.04-3.15,4.52,.29,8.15,2.97,11.39,5.92,4.07,3.7,8.02,7.52,12.02,11.28,.14,.13,.29,.2,.45,.24,0,1.67,0,3.34,0,5.01-.13,.07-.24,.17-.34,.31-5.55,7.86-11.82,16.62-21.62,19.27-9.02,2.44-19.27-1.53-26.54-6.84-4.02-2.94-7.45-6.64-10.11-10.84-.18-.28-.42-.42-.68-.45-.03-.05-.05-.1-.09-.14-.09-.1-.2-.17-.32-.21-.12-.06-.25-.09-.39-.09-.02,0-.04,0-.06,0Zm60.17-35.29c-.02,8.9-.01,17.79-.02,26.69-3.53-3.33-7.04-6.67-10.6-9.96-3.16-2.92-6.69-5.77-11.01-6.63-4.64-.92-9.42,.27-13.72,2.01-4.3,1.74-8.28,4.11-12.04,6.81-4.25,3.06-8.21,6.51-12.15,9.96-.18,.16-.26,.34-.29,.53,0,0,0,0-.01,0-.03,0-.06,0-.09-.01-.16-1.45-.48-2.87-.97-4.16-1.04-2.75-3.15-4.57-5.86-5.62-.7-.27-1.43-.5-2.18-.68,7.32-4.99,12.96-12.68,14.91-21.37,.99-4.42,.97-9.05-.24-13.42-1.46-5.27-4.38-10.07-7.23-14.69-2.81-4.55-5.96-8.95-9.88-12.59,23.86-.06,47.73,.12,71.59,.44-.08,14.24-.15,28.48-.19,42.72Zm-95.78-18.43c-1.94,9.32-.15,19.2,5.28,27.07,2.99,4.34,6.99,7.93,11.76,10.21,.22,.11,.43,.11,.63,.07,0,0,.02,.01,.03,.02-2.8,.8-5.27,2.42-6.81,5.08-.11,.19-.13,.37-.12,.55-.21,.33-.4,.66-.58,1.01-3.15-3.16-6.56-6.05-10.21-8.61-3.75-2.63-7.83-5.01-12.33-6.07-9.09-2.15-18.46,.97-26.23,5.65-4.44,2.67-8.53,5.86-12.59,9.05-.12-22.51-.31-45.03-.49-67.54,14.75-.46,29.5-.78,44.26-.97,7.53-.1,15.06-.16,22.59-.2-7.47,6.34-13.17,15.03-15.18,24.69Zm-51.38,126.49c14.91-.24,29.83-.44,44.74-.57,34.18-.29,68.35-.28,102.53,.01,0,.61,0,1.23,0,1.84,.05,10.04,.1,20.07,.17,30.11-19.18,.06-38.35,.12-57.53,.18l-57.57,.18c-10.8,.03-21.6,.07-32.4,.1-.24,0-.42,.08-.57,.2,.27-10.68,.48-21.36,.62-32.04ZM217.92,67.49c-14.17-.19-28.33-.34-42.5-.41-35.06-.18-70.12,.08-105.17,1.18,0-1.2-.02-2.41-.03-3.61-.07-9.41-.15-18.81-.22-28.22,.05,0,.09,.02,.14,.01,9.42-1.13,19.01-.25,28.46,.1,9.48,.34,18.96,.62,28.44,.82,19.13,.41,38.27,.52,57.41,.34,10.73-.1,21.46-.29,32.19-.57,.11,0,.2-.04,.29-.07,0,0,.01,0,.02,0h.78c.14,0,.27-.02,.39-.09,0,0,0,0,0,0-.08,10.17-.15,20.34-.21,30.51ZM2.44,65.76c.41-20.45,1.15-40.89,2.34-61.31,0-.16-.01-.29-.06-.41,18.01-1.73,36.13-1.61,54.2-1.7,2.98-.01,5.97-.02,8.95-.03-.07,.13-.13,.29-.12,.48,.17,21.84,.34,43.68,.51,65.52-.77,.02-1.54,.04-2.31,.07-20.12,.67-40.44,2.28-60.49-.35-.02-.03-.03-.07-.06-.1-.18-.17-.45-.32-.71-.29l-1.63,.2c-.14,0-.27,.02-.39,.09-.1,.03-.19,.1-.27,.17,.01-.78,.02-1.56,.04-2.34Zm.1,109.35c-.52-35.18-.8-70.36-.17-105.54,.18,.16,.43,.3,.68,.27,.06,0,.12-.01,.17-.02,.04,0,.08,0,.12,0,.21-.03,.43-.02,.64,0,.21,.04,.43,.09,.63,.17,.13,.04,.27,.05,.4,.02,.03,0,.05-.02,.08-.02,.03,0,.05,.02,.08,.03,9.36,1.25,18.77,1.54,28.19,1.44-.26,18.82-.4,37.64-.39,56.46,0,19.13,.16,38.27,.46,57.4,.16,10.73,.37,21.46,.63,32.19,0,.27,.11,.48,.26,.63l.1,.6c.01,.07,.04,.14,.08,.21-9.45,.21-18.9,.44-28.35,.69-.07-.04-.13-.09-.21-.11-.41-.1-.84-.15-1.26-.1-.24,.03-.49,.06-.72,.13-.24,.07-.48,.17-.7,.28-.25-14.91-.5-29.81-.72-44.72Zm66,47.36c-.29,20.58-.8,41.16-1.65,61.73,0,.06,.02,.1,.03,.16,.02,.22,.02,.44,0,.67-.03,.15-.05,.3-.1,.45-.07,.25-.03,.55,.1,.77-.39,0-.79,0-1.18,0-20.4-.02-40.82-.26-61.19-1.48-.08,0-.14,.02-.2,.03,0-.02,0-.03,0-.05-.35-21.06-.72-42.12-1.07-63.18,.07,.04,.13,.09,.21,.1,.09,.01,.18,.02,.27,.04,.16,0,.31-.04,.45-.12,.09-.04,.19-.05,.28-.08,.14,.09,.31,.16,.53,.15,21.18-.57,42.36-1.02,63.54-1.37,0,.73-.02,1.45-.03,2.18Zm.05-4.19c-.56,0-1.12,.01-1.68,.02-10.21,.17-20.42,.37-30.64,.59,.02-.06,.05-.11,.07-.17,.05-.18,.05-.35,0-.53-.1-.62-.21-1.25-.31-1.87-.44-18.66-.74-37.32-.91-55.98-.17-19.13-.2-38.27-.08-57.4,.06-10.51,.17-21.02,.32-31.53,8.15-.13,16.31-.52,24.44-.82,2.82-.1,5.65-.19,8.47-.28,.11,14.22,.22,28.44,.33,42.66,.26,35.1,.44,70.2,0,105.3Zm149.98,65.96c-.05,.55-.11,1.11-.16,1.66-14.32,.03-28.63,.07-42.95,.1-35.48,.08-70.95,.26-106.43,.24,.04-.11,.07-.22,.06-.34-.06-.59-.12-1.17-.18-1.76,0-.01,0-.02,0-.03,.41-10.07,.74-20.15,1-30.22,.15,.13,.35,.22,.6,.22l57.57-.18,57.57-.18c10.79-.03,21.58-.07,32.37-.1,.07,9.86,.14,19.71,.23,29.57,0,.35,.16,.59,.37,.75-.02,.08-.05,.17-.06,.26Zm1.13-110.92c-.05-34.61,.03-69.21,.21-103.82,1.37,.02,2.75,.03,4.12,.05,9.41,.13,18.81,.28,28.22,.44,.15,19.17,.22,38.33,.23,57.5,0,19.22-.07,38.43-.22,57.65-.08,10.9-.19,21.79-.32,32.69,0,.1,.03,.18,.05,.27-10.72-.15-21.43-.27-32.15-.37-.07-14.8-.13-29.6-.15-44.41Zm67.46,111.87c-.08,.09-.18,.17-.27,.25-.16,.12-.34,.22-.52,.3-.18,.07-.36,.11-.55,.15-.14-.09-.3-.15-.52-.15-21.63,.05-43.27,.1-64.9,.15,0-.08,.02-.17,.02-.25,.25-.24,.38-.59,.28-.96-.06-.23-.12-.47-.18-.7-.05-.2-.18-.36-.33-.48,.02-.09,.05-.16,.05-.27-.19-21.17-.31-42.34-.41-63.5,1.73,.02,3.46,.02,5.19,.04,20.55,.2,41.1,.51,61.65,.92,.02,.87,.04,1.74,.05,2.61,.41,20.55,.75,41.1,.87,61.66-.17,.04-.34,.11-.46,.24Z"/>
<path d="M264.68,22.53c-7.35,.01-14.69-.18-22.03-.6-.49-.03-.79,.25-.91,.6-.54-.06-1.14,.24-1.15,.94-.14,8.07-.12,16.14,.05,24.21,.02,.77,.73,1.07,1.3,.92,.14,.31,.42,.56,.87,.55,7.59-.07,15.19-.07,22.78,0,.85,0,1.13-.85,.86-1.45,.16-.16,.28-.38,.28-.67,.14-8.12,.12-16.25-.08-24.38-.03-1.23-1.84-1.27-1.97-.15Zm.07,24.63c-7.31-.06-14.63-.06-21.94,0-.07,0-.12,.03-.18,.04-.15-7.76-.17-15.52-.04-23.28,.02,0,.04,.01,.06,.01,7.34,.41,14.69,.61,22.04,.6,.16,7.51,.18,15.02,.04,22.52,0,.04,.02,.07,.02,.11Z"/>
<path d="M22.32,48.84c.16,.23,.41,.41,.77,.42,8.15,.25,16.3,.35,24.46,.3,.65,0,.97-.51,.96-1.01,.09-.14,.16-.3,.16-.51,.22-8.2,.43-16.39,.65-24.59,.03-.98-1.12-1.21-1.69-.7-.08-.01-.14-.04-.23-.03-7.75,.42-15.51,.19-23.23-.69-.12-.01-.21,0-.31,.03-.53-.5-1.68-.26-1.74,.71-.46,8.37-.7,16.75-.7,25.14,0,.59,.43,.9,.88,.95Zm1.76-24.85s.06,.03,.1,.03c7.67,.87,15.4,1.1,23.11,.69-.2,7.61-.4,15.22-.6,22.83-7.75,.04-15.5-.05-23.25-.29,.01-7.76,.23-15.52,.64-23.28Z"/>
<path d="M22.92,266.74c.16,.18,.4,.29,.71,.28,7.74-.21,15.49-.25,23.23-.1,.25,1.03,1.96,.97,1.95-.23-.06-8.4-.12-16.79-.18-25.19,0-1.09-1.44-1.25-1.87-.48-7.82,0-15.64-.38-23.43-1.13-.6-.06-.91,.36-.94,.82-.26,.15-.46,.41-.48,.8-.34,8.1-.41,16.2-.2,24.3,.02,.72,.66,1.03,1.21,.94Zm.98-24.81c7.56,.71,15.15,1.07,22.75,1.09,.05,7.3,.1,14.6,.16,21.9-7.7-.14-15.4-.11-23.1,.1-.18-7.7-.11-15.4,.2-23.09Z"/>
<path d="M266.25,240.52c-8.11-.8-16.25-1.02-24.39-.68-.11,0-.2,.04-.3,.07-.59-.22-1.39,.08-1.4,.89-.11,8.17-.22,16.34-.33,24.51,0,.66,.51,.98,1.02,.96,.12,.35,.42,.61,.9,.57,8.11-.64,16.25-.85,24.38-.61,.85,.02,1.13-.84,.85-1.44,0-.02,.01-.04,0-.06-.29-7.5-.28-15.01,.01-22.52,.42-.54,.17-1.61-.75-1.7Zm-1.27,23.7c-7.72-.18-15.44,.02-23.14,.63,.1-7.67,.21-15.34,.31-23.01,7.62-.31,15.25-.11,22.85,.59-.28,7.26-.29,14.54-.02,21.8Z"/></g></g></g></svg>
