<svg id="Calque_2" xmlns="http://www.w3.org/2000/svg" viewBox="0 0 324.77 395.01">
<g id="Calque_4"><g>
<path class="cls-1" d="M164.83,132.92c1.18-1.57,2.57-3.23,4.63-3.51,2.03-.27,3.95,.71,5.5,1.93,3.6,2.81,5.76,7.02,7.58,11.11,3.72,8.34,5.96,17.21,7.53,26.18,.02-.3,.02-.56,.04-.74,.1-1.15,.17-2.3,.2-3.45,.07-2.3,0-4.61-.19-6.9-.38-4.43-1.3-8.79-2.67-13.02-.23,.1-.45,.2-.67,.29-.57,.23-1.33-.36-1.27-.96,.3-3.08-.58-5.84-2.41-8.31-1.63-2.19-3.34-4.18-4.16-6.84-1.33-4.35-.55-9.01,.72-13.33-2.13,2.21-4.52,4.17-7.11,5.83-1.26,.8-2.69,1.59-4.22,1.49-.41,1.68-1.62,3.05-3.25,3.75-2.19,.94-4.71,.39-6.65-.88-2.22-1.44-3.68-3.68-4.94-5.95-1.49-2.67-2.93-5.37-4.39-8.06-2.57-4.73-5.21-9.42-7.64-14.22-2.28-4.5-4.5-9.22-5.75-14.13-.6-2.36-.66-4.68,.34-6.94,1-2.27,2.65-4.27,4.11-6.25,3.08-4.2,6.3-8.31,9.63-12.31,3.38-4.06,6.89-8.01,10.51-11.85,3.26-3.45,7.12-6.96,7.86-11.9,.39-2.62,.16-5.38,.02-8.01-.14-2.7-.38-5.4-.7-8.09-.61-5.08-1.6-10.12-2.87-15.08-2.96,4.54-4.25,10.13-3.3,15.5,.54,3.1,2.07,6.12,1.8,9.34-.26,3.05-2.24,5.45-4.09,7.74-3.83,4.76-8.1,9.17-12.11,13.77-3.95,4.52-7.77,9.15-11.47,13.87-3.74,4.78-7.67,9.62-10.86,14.79-1.61,2.61-2.32,5.27-1.97,8.34,.3,2.67,1.13,5.33,2.02,7.86,6.59,18.76,22.21,32.57,29.91,50.8,.06-.04,.11-.09,.19-.11,5.18-1.82,7.08-7.7,10.11-11.74Z"/>
<path class="cls-1" d="M113.38,236.98c.7,2.09,1.21,4.26,2.15,6.26,.77,1.62,1.79,3.11,2.97,4.46,2.3,2.63,5.1,4.85,7.93,6.88,2.88,2.06,5.95,3.92,9.27,5.17,7.12,2.67,14.94,2.46,22.29,.96,7.74-1.58,15.18-4.43,22.63-7.01,7.44-2.58,14.87-5.16,22.31-7.74-6.57-4.86-12.52-11.24-15.91-18.7-1.58-3.48-2.57-7.25-2.46-11.1,.12-4.01,1.33-7.88,2.92-11.54,3.1-7.1,7.82-13.3,11.76-19.92,4.18-7.01,7.25-14.72,7.12-23.01-.04-2.2-.65-3.96-2.09-5.63-1.34-1.56-2.74-3.04-4-4.66-2.51-3.22-4.65-6.69-6.43-10.37-.05-.09-.05-.19-.07-.28-1.39,1.13-2.9,2.11-4.5,2.94,1.67,5.08,2.68,10.37,2.97,15.71,.16,2.83,.11,5.68-.14,8.51-.16,1.77-.25,4.06-2.27,4.67-.47,.14-1.15-.17-1.23-.7-.85-5.29-1.9-10.54-3.32-15.71-1.26-4.55-2.8-9.03-4.75-13.32-1.73-3.81-3.83-7.99-7.42-10.38-.9-.6-1.98-1.14-3.1-1.09-1.14,.05-1.95,.79-2.67,1.6-1.47,1.65-2.55,3.61-3.69,5.49-2.07,3.42-4.49,6.75-8.41,8.13-.06,.02-.1,.01-.16,.02,.2,.16,.35,.4,.38,.71,.84,8.56,4.55,16.45,7.27,24.51,1.15,3.41,2.42,7.09,2.7,10.7,.28,3.6-3.1,5.03-5.82,6.35-6.65,3.23-13.27,6.54-19.6,10.37-6.32,3.82-12.35,8.17-17.6,13.38-5.19,5.15-9.3,11.26-14.47,16.42,2.84,1.76,4.38,4.83,5.42,7.93Z"/>
<path class="cls-1" d="M162.77,82.61c-.06,2.05-.2,4.2,.21,6.23,.14,.69,.35,1.47,.83,2.02,.51,.59,1.19,.7,1.91,.84,1.2,.24,2.38,.74,2.74,2.03,.37,1.3-.27,2.64-1.17,3.55-1.13,1.15-2.57,1.89-2.91,3.62-.34,1.76,.77,2.87,2.22,3.64,.98,.52,2.07,1.01,3.03,1.61-.69-.95-1.59-1.83-2.22-2.76-.51-.75-.44-1.51,.18-2.18,.81-.88,1.75-1.55,2.42-2.57,.73-1.1,1.12-2.37,.78-3.68-.31-1.19-1.09-2.23-1.77-3.24-1.27-1.89-2.35-4.07-1.6-6.38,.27-.83,1.35-.97,1.83-.24,2.09,3.16,4.65,6.61,8.72,7.03,1.54,.16,3.15,.05,4.59,.73,1.43,.67,2.3,1.99,2.66,3.5,.69,2.87-.01,6.62-3.25,7.5-2.22,.6-4.18-.34-5.52-1.92-.23,3.95,1.88,7.67,5.61,9.51,.63,.31,.6,.95,.28,1.39,.08,.18,.11,.39,.02,.64-1.67,4.96-3.27,10.88-1.03,15.93,1.14,2.58,3.33,4.47,4.68,6.92,1.01,1.84,1.52,3.89,1.56,5.97,3.94-1.83,7.56-4.79,9.74-8.55,1.16-2.01,2.01-4.49,1.46-6.82-.55-2.35-2.61-3.72-4.02-5.53-3-3.83-1.35-8.34,.25-12.38,1.78-4.5,2.46-9.23,2.27-14.05-.33-8.69-2.84-17.7-10.73-22.4-6.32-3.76-14.44-4.16-20.78-.23-5.92,3.68-9.7,10.39-9.8,17.32,1.65-2.52,3.3-5.04,4.95-7.56,.52-.79,1.9-.53,1.86,.5Z"/>
<path class="cls-1" d="M195.11,139.56c.18,.07,.35,.2,.46,.44,1.89,3.91,4.22,7.6,6.95,10.98,.59-5.72,.81-12.06-3.22-16.59-.02-.02-.02-.05-.04-.07-.47,.87-1.02,1.7-1.6,2.45-.78,1-1.64,1.93-2.56,2.79Z"/>
<path class="cls-1" d="M168.11,120.64c1.08,.28,2.2-.42,3.07-.95,3.21-1.96,6.05-4.48,8.51-7.32-4.37-2.93-6.34-8.45-4.68-13.58,.31-.95,1.62-.95,1.93,0,.43,1.34,1.3,2.62,2.69,3.08,1.41,.46,2.93-.09,3.51-1.48,.49-1.17,.43-2.68,.06-3.88-.5-1.6-1.74-2.1-3.3-2.24-2.65-.24-4.9-.49-7.13-2.11-1.09-.79-2.02-1.74-2.87-2.76,.72,1.32,1.8,2.57,2.37,3.83,.93,2.03,.81,4.16-.32,6.09-.58,.99-1.37,1.88-2.21,2.65-.16,.15-.54,.47-.54,.52,0,0,.42,.42,.47,.48,.42,.48,.83,.95,1.22,1.45,1.33,1.72,2.23,3.91,1.37,6.05-.41,1.01-1.93,.92-1.96-.27-.05-1.79-1.99-2.66-3.39-3.31-1.26-.58-2.55-1.19-3.47-2.27-1.86-2.19-1.19-5.42,.77-7.3,.68-.66,3.78-2.79,1.64-3.56-1.3-.47-2.44-.38-3.45-1.49-1.42-1.56-1.72-3.89-1.73-6.15-1.19,1.81-2.37,3.62-3.56,5.43,0,0,0,0,0,0,.06,.12,.1,.27,.1,.44,.12,7.56,1.53,15.29,5.29,21.93,.94,1.66,2.01,3.24,3.25,4.7,.63,.75,1.37,1.76,2.36,2.02Z"/>
<path class="cls-1" d="M99.06,244.41c2.42,5.65,6.23,10.68,10.68,14.89,8.41,7.95,19.25,12.52,30.69,13.83,12.45,1.42,24.93-.57,37.06-3.31,6.21-1.4,12.38-2.98,18.58-4.42,5.95-1.38,11.94-2.68,17.66-4.84,9.52-3.58,17.68-10.73,27.77-12.67-12.06-9.75-28.75-13.16-43.68-8.97,2.31,2.31,4.83,4.42,7.46,6.26,.8,.56,.41,1.7-.29,1.88-.11,.2-.28,.38-.56,.48-8.94,3.1-17.87,6.2-26.81,9.3-14.14,4.91-29.91,10.5-44.51,3.99-3.32-1.48-6.39-3.49-9.28-5.69-2.67-2.02-5.29-4.17-7.4-6.79-2.31-2.87-3.49-6.05-4.57-9.52-1-3.22-2.26-6.68-5.41-8.36-.02,0-.02-.02-.04-.03,0,0,0,.02-.01,.02-.07,.11-.16,.19-.28,.26-.15,.08-.31,.15-.46,.23-.16,.09-.32,.14-.5,.14l-.27-.04s0,0,0,0c-1.81,.37-3.61,.73-5.42,1.1-.72,.15-1.71,.17-2.37,.51-.84,.43-.51,1.84-.44,2.6,.28,3.15,1.15,6.26,2.39,9.16Z"/>
<path class="cls-1" d="M96.39,342.62c9.36,2.67,18.76,5.23,28.29,7.26,18.94,4.04,38.75,5.99,57.83,1.66,15.76-3.58,30.28-11.2,43.08-20.95,11.38-8.66,21.45-18.98,30.46-30.09-3.85,2.05-7.76,3.93-11.63,5.7-10.05,4.6-20.04,9.24-29.95,14.13-9.95,4.91-19.96,9.77-30.42,13.52-18.83,6.76-40.46,9.81-59.55,2.23-9.68-3.84-17.27-10.63-25.22-17.15-4.07-3.34-8.3-6.47-12.97-8.93-4.82-2.54-9.95-4.42-15.14-6.07-13.77-4.37-29.49-7.65-41.15-16.53-5.87,6.36-14.63,14.05-21.81,18.68,1.76,.87,3.52,1.74,5.28,2.61,17.92,8.88,35.68,18.26,54.54,25.01,9.33,3.34,18.83,6.19,28.37,8.9Z"/>
<path class="cls-1" d="M283.68,279.99c-.26-.09-.51-.19-.77-.25-.12-.03-.22-.09-.31-.16-5.83,7.58-13.63,13.48-22.03,18.39-.85,1.09-1.69,2.19-2.56,3.26-10.39,12.89-22.22,24.75-35.79,34.29-13.56,9.52-28.98,16.54-45.41,19.14-19.49,3.09-39.31,.34-58.37-4.14-9.73-2.29-19.37-5-28.96-7.82-9.66-2.84-19.27-5.9-28.66-9.55-9.35-3.64-18.42-7.93-27.42-12.36-4.97-2.45-9.93-4.9-14.9-7.37-.03,.04-.05,.09-.09,.13-4.22,4.05-9.25,7.1-14.77,8.96,2.24,1.15,4.48,2.29,6.71,3.44,23.94,12.26,47.87,24.52,71.81,36.78,11.6,5.94,23.12,12.11,34.95,17.62,11.45,5.33,23.39,9.84,35.92,11.73,12.02,1.82,24.35,1.02,35.72-3.45,9.43-3.71,17.83-9.61,25.58-16.06,7.83-6.52,15.1-13.65,22.69-20.44,8.06-7.21,16.51-13.79,25.88-19.23,10.6-6.16,21.8-11.28,32.17-17.85,9.81-6.22,18.82-13.63,26.89-21.98-12.59-4.23-25.18-8.47-37.77-12.7-.23-.08-.38-.22-.49-.38Z"/>
<path class="cls-1" d="M93.52,312.05c4.13,2.85,7.95,6.12,11.8,9.34,3.95,3.3,7.96,6.55,12.4,9.18,4.24,2.51,8.82,4.39,13.57,5.68,19.87,5.38,40.76,.56,59.34-7.05,10.21-4.18,20.03-9.22,29.92-14.08,9.65-4.74,19.57-8.93,29.24-13.63,3.15-1.53,6.33-3.2,9.45-5.02,.23-.29,.47-.58,.69-.88,.35-.45,.89-.5,1.31-.32,12.62-7.72,23.87-18.11,27.71-32.73-7.3,.3-14.6-.17-21.81-1.36-.11-.02-.18-.06-.26-.1-.08,.02-.15,.03-.23,.03-.58-.05-1.16-.11-1.74-.16-.15,0-.28-.04-.41-.1-7.43,9.51-18.28,15.95-29.61,19.8-15.43,5.23-31.94,5.85-48.05,7.01-16.37,1.18-32.96,3.13-49.27,.3-15.66-2.72-29.77-10.42-43.38-18.28-6.83-3.95-13.57-8.08-19.77-12.99-3.46-2.74-7.2-5.9-9.47-9.8-.06,.05-.11,.1-.19,.14-3.61,1.67-6.92,3.89-10.01,6.4-10.24,8.32-18.76,19.89-31.71,24.09,1.1,1.53,2.3,2.98,3.63,4.33,14.09,14.33,35.5,16.02,53.3,23.12,4.75,1.9,9.32,4.19,13.53,7.1Z"/>
<path class="cls-1" d="M72.85,252.76c2.94,2.55,6.06,4.88,9.28,7.07,6.37,4.34,13.08,8.17,19.81,11.91,6.64,3.7,13.43,7.2,20.55,9.91,7.3,2.77,14.87,4.56,22.65,5.27,15.93,1.46,32-.63,47.89-1.72,15.22-1.05,30.81-2.2,45.13-7.9,11.19-4.45,21.59-11.77,27.85-22.19-9.25,2.22-19.24,.62-27.31-4.46,0,0-.01-.01-.02-.02-4.52,1.42-8.72,3.85-12.84,6.18-2.86,1.62-5.74,3.23-8.76,4.54-3.27,1.41-6.66,2.52-10.09,3.46-6.38,1.74-12.87,3.09-19.29,4.65-6.43,1.56-12.87,3.11-19.38,4.26-12.49,2.21-25.56,2.95-37.89-.52-10.99-3.09-20.79-9.69-27.73-18.76-3.52-4.6-6.3-9.92-7.49-15.62-.13-.63-.24-1.26-.33-1.9-8.75,3.96-20.48,5.46-29.87,4.39,.2,1.31,.62,2.57,1.24,3.76,1.58,3.03,4.05,5.48,6.61,7.69Z"/>
<path d="M324.04,291.67l-38.23-12.86c-.07-.08-.14-.16-.23-.21-.56-.29-1.15-.51-1.76-.68,2.05-2.9,3.83-6.04,5.24-9.45,.91-2.19,1.62-4.44,2.15-6.74,.14-.6-.29-1.3-.96-1.27-7.55,.4-15.11,0-22.57-1.24-.17-.03-.32-.01-.46,.03-.02-.01-.03-.03-.05-.04-.16-.09-.32-.14-.5-.14-.27-.02-.54-.05-.8-.07,.18-.25,.36-.49,.54-.75,.92-1.36,1.76-2.78,2.53-4.23,.39-.74-.26-1.74-1.13-1.47-8.76,2.76-18.38,1.77-26.39-2.63,.8-.17,1.62-.3,2.44-.38,.78-.08,1.42-1.08,.71-1.71-10.11-8.97-23.83-13.53-37.3-12.59-3.74,.26-7.44,.95-11.02,2.04-2.7-2.94-5.04-6.2-6.84-9.72-1.76-3.46-2.91-7.29-2.84-11.2,.08-4.2,1.48-8.3,3.25-12.07,3.24-6.88,7.88-12.95,11.69-19.5,3.95-6.8,6.66-14.14,6.86-22.08,.05-2.07-.11-4.17-1.14-6.01-.77-1.37-1.87-2.54-2.95-3.7,.02-.06,.05-.11,.05-.17,.76-6.8,1.28-14.38-3.6-19.87-.21-.23-.44-.32-.67-.31,1-2.5,1.28-5.24,.11-7.74-.98-2.09-2.98-3.35-4.22-5.25-1.5-2.3-.9-5.11-.04-7.53,.88-2.46,1.95-4.81,2.52-7.38,.57-2.53,.84-5.14,.86-7.73,.09-9.26-2.19-19.31-10.03-25.05-6.35-4.66-15.14-5.86-22.35-2.54-8.28,3.81-13.69,13.07-12.91,22.14,.06,.69,.68,1,1.21,.94,.16,6.51,1.26,13.03,3.87,19.03,1.33,3.06,3.08,5.93,5.24,8.49,.62,.73,1.29,1.48,2.09,1.99-.34,1.98-2.47,3.11-4.4,2.83-2.43-.36-4.28-2.26-5.57-4.21-1.36-2.06-2.45-4.3-3.63-6.47l-3.74-6.89c-2.35-4.33-4.76-8.63-6.91-13.07-1.1-2.27-2.13-4.58-3.01-6.95-.84-2.25-1.85-4.71-1.91-7.14-.07-2.5,1.34-4.55,2.73-6.5,1.44-2.02,2.92-4.02,4.42-6,3.05-4.01,6.23-7.93,9.52-11.75,3.15-3.66,6.44-7.2,9.76-10.71,2.96-3.12,5.81-6.54,6.44-10.94,.37-2.59,.21-5.25,.08-7.85-.14-2.86-.38-5.72-.73-8.57-.68-5.63-1.75-11.2-3.2-16.68-.11-.4-.38-.6-.69-.67-.35-.51-1.27-.72-1.78-.05-3.1,4.09-4.79,9.17-4.79,14.31,0,2.82,.65,5.44,1.4,8.13,.39,1.39,.77,2.81,.71,4.27-.06,1.6-.75,2.99-1.64,4.29-3.47,5.11-8.04,9.52-12.13,14.13-4.09,4.61-8.05,9.32-11.88,14.15-3.79,4.76-7.45,9.63-10.98,14.59-1.6,2.25-3.2,4.62-3.75,7.37-.56,2.8-.11,5.67,.59,8.4,2.48,9.75,7.85,18.42,13.51,26.61,6.51,9.43,13.69,18.62,18.05,29.32,.15,.38,.46,.58,.79,.64-.15,.16-.25,.38-.22,.69,.72,7.31,3.39,14.12,5.9,20.95,1.26,3.45,2.48,6.93,3.34,10.51,.37,1.53,1.3,3.99,.44,5.45-.82,1.4-2.78,2.06-4.15,2.73-12.83,6.22-25.79,12.83-36.31,22.64-6.23,5.81-10.87,13.05-17.02,18.92,0,0,0,0,0,0-.05,0-.1-.01-.16-.02-.18,0-.35,.05-.5,.14-.12,.08-.23,.15-.35,.23-.11,.06-.19,.14-.25,.23-1.58,.32-3.15,.64-4.73,.96-1.28,.26-3.09,.32-4.15,1.2-.95,.79-.99,2.01-.92,3.15,0,.14,.03,.28,.04,.41-8.72,4.17-20.95,5.72-30.51,4.38-.6-.08-1.3,.25-1.27,.96,.1,1.8,.54,3.46,1.23,5.02-.11,.01-.22,.03-.33,.08-12.75,5.91-20.77,18.09-32.22,25.81-3.19,2.15-6.63,3.87-10.34,4.9-.59,.17-.96,.92-.6,1.47,2.25,3.39,4.9,6.25,7.85,8.71-6.16,6.65-15.19,14.48-22.77,19.18-.6,.37-.7,1.38,0,1.73,3.65,1.81,7.29,3.62,10.93,5.42-4.51,4.21-9.93,7.22-15.89,8.82-.8,.21-1.02,1.43-.24,1.83,24.32,12.46,48.63,24.91,72.95,37.37,11.86,6.08,23.68,12.27,35.62,18.18,11.36,5.62,23.08,10.82,35.46,13.77,12.12,2.88,24.95,3.65,37.11,.58,9.83-2.48,18.82-7.43,26.95-13.41,16.76-12.32,30.26-28.58,47.59-40.19,10.38-6.95,21.77-12.18,32.62-18.31,10.54-5.95,20.38-13.04,29.22-21.32,2.23-2.09,4.39-4.25,6.49-6.47,.54-.57,.28-1.43-.44-1.67Zm-124.73-157.29c4.03,4.53,3.8,10.87,3.22,16.59-2.73-3.38-5.06-7.07-6.95-10.98-.11-.24-.28-.36-.46-.44,.92-.86,1.78-1.79,2.56-2.79,.58-.75,1.13-1.58,1.6-2.45,.02,.02,.02,.05,.04,.07Zm-33.56-62.04c6.33-3.93,14.46-3.54,20.78,.23,7.89,4.7,10.4,13.71,10.73,22.4,.19,4.83-.49,9.55-2.27,14.05-1.6,4.03-3.25,8.55-.25,12.38,1.41,1.8,3.47,3.18,4.02,5.53,.55,2.34-.3,4.81-1.46,6.82-2.17,3.76-5.79,6.72-9.74,8.55-.04-2.08-.55-4.13-1.56-5.97-1.34-2.46-3.53-4.34-4.68-6.92-2.23-5.05-.64-10.96,1.03-15.93,.08-.25,.05-.46-.02-.64,.33-.44,.35-1.08-.28-1.39-3.73-1.84-5.84-5.56-5.61-9.51,1.33,1.58,3.3,2.52,5.52,1.92,3.24-.88,3.94-4.63,3.25-7.5-.36-1.51-1.23-2.83-2.66-3.5-1.44-.67-3.05-.57-4.59-.73-4.07-.42-6.63-3.87-8.72-7.03-.48-.73-1.55-.6-1.83,.24-.75,2.3,.33,4.48,1.6,6.38,.68,1.01,1.46,2.04,1.77,3.24,.34,1.31-.06,2.58-.78,3.68-.67,1.02-1.61,1.69-2.42,2.57-.62,.67-.68,1.42-.18,2.18,.63,.93,1.53,1.81,2.22,2.76-.96-.6-2.05-1.09-3.03-1.61-1.45-.77-2.56-1.88-2.22-3.64,.34-1.73,1.78-2.47,2.91-3.62,.9-.92,1.54-2.25,1.17-3.55-.36-1.29-1.54-1.79-2.74-2.03-.72-.14-1.4-.25-1.91-.84-.47-.54-.68-1.33-.83-2.02-.42-2.02-.28-4.18-.21-6.23,.03-1.04-1.34-1.3-1.86-.5-1.65,2.52-3.3,5.04-4.95,7.56,.1-6.93,3.87-13.65,9.8-17.32Zm0,46.28c-1.23-1.45-2.31-3.04-3.25-4.7-3.76-6.64-5.17-14.37-5.29-21.93,0-.17-.04-.31-.1-.44,0,0,0,0,0,0,1.19-1.81,2.37-3.62,3.56-5.43,.01,2.26,.31,4.59,1.73,6.15,1.01,1.11,2.15,1.03,3.45,1.49,2.13,.76-.96,2.9-1.64,3.56-1.96,1.89-2.63,5.11-.77,7.3,.92,1.08,2.21,1.69,3.47,2.27,1.4,.65,3.35,1.53,3.39,3.31,.03,1.19,1.56,1.28,1.96,.27,.85-2.13-.04-4.33-1.37-6.05-.39-.5-.8-.98-1.22-1.45-.05-.06-.47-.48-.47-.48,0-.06,.38-.38,.54-.52,.84-.78,1.63-1.66,2.21-2.65,1.13-1.93,1.25-4.06,.32-6.09-.57-1.25-1.65-2.5-2.37-3.83,.85,1.03,1.78,1.97,2.87,2.76,2.22,1.62,4.48,1.86,7.13,2.11,1.56,.14,2.79,.65,3.3,2.24,.38,1.19,.43,2.71-.06,3.88-.58,1.4-2.1,1.95-3.51,1.48-1.39-.46-2.26-1.74-2.69-3.08-.31-.95-1.62-.95-1.93,0-1.66,5.13,.31,10.65,4.68,13.58-2.46,2.84-5.3,5.36-8.51,7.32-.87,.53-1.99,1.23-3.07,.95-.99-.26-1.73-1.27-2.36-2.02Zm-11.22,26.14c-7.69-18.23-23.32-32.04-29.91-50.8-.89-2.53-1.72-5.19-2.02-7.86-.34-3.07,.36-5.73,1.97-8.34,3.19-5.17,7.12-10.01,10.86-14.79,3.7-4.72,7.53-9.35,11.47-13.87,4.02-4.6,8.28-9.01,12.11-13.77,1.85-2.29,3.83-4.69,4.09-7.74,.27-3.21-1.25-6.23-1.8-9.34-.94-5.38,.35-10.96,3.3-15.5,1.27,4.96,2.25,9.99,2.87,15.08,.33,2.69,.56,5.39,.7,8.09,.14,2.63,.37,5.39-.02,8.01-.73,4.94-4.6,8.45-7.86,11.9-3.63,3.84-7.13,7.79-10.51,11.85-3.33,4-6.55,8.11-9.63,12.31-1.46,1.99-3.1,3.98-4.11,6.25-1,2.26-.94,4.58-.34,6.94,1.25,4.91,3.48,9.63,5.75,14.13,2.43,4.8,5.07,9.5,7.64,14.22,1.46,2.69,2.9,5.39,4.39,8.06,1.26,2.27,2.72,4.51,4.94,5.95,1.94,1.27,4.46,1.82,6.65,.88,1.63-.7,2.85-2.07,3.25-3.75,1.54,.1,2.96-.69,4.22-1.49,2.6-1.65,4.98-3.62,7.11-5.83-1.28,4.32-2.06,8.98-.72,13.33,.82,2.66,2.53,4.65,4.16,6.84,1.83,2.47,2.71,5.23,2.41,8.31-.06,.61,.69,1.19,1.27,.96,.23-.09,.45-.19,.67-.29,1.36,4.23,2.28,8.59,2.67,13.02,.2,2.29,.26,4.6,.19,6.9-.03,1.15-.1,2.3-.2,3.45-.02,.18-.02,.44-.04,.74-1.58-8.97-3.82-17.84-7.53-26.18-1.82-4.09-3.98-8.3-7.58-11.11-1.55-1.21-3.47-2.2-5.5-1.93-2.07,.28-3.45,1.93-4.63,3.51-3.03,4.04-4.93,9.92-10.11,11.74-.08,.03-.13,.07-.19,.11Zm-32.1,67.87c5.25-5.22,11.28-9.56,17.6-13.38,6.33-3.83,12.95-7.14,19.6-10.37,2.73-1.32,6.1-2.75,5.82-6.35-.28-3.61-1.55-7.29-2.7-10.7-2.72-8.06-6.43-15.95-7.27-24.51-.03-.32-.18-.56-.38-.71,.05-.01,.1,0,.16-.02,3.91-1.37,6.34-4.71,8.41-8.13,1.14-1.88,2.22-3.84,3.69-5.49,.72-.81,1.53-1.55,2.67-1.6,1.11-.05,2.19,.49,3.1,1.09,3.59,2.39,5.68,6.58,7.42,10.38,1.96,4.3,3.5,8.78,4.75,13.32,1.42,5.16,2.47,10.42,3.32,15.71,.08,.53,.76,.84,1.23,.7,2.03-.61,2.12-2.9,2.27-4.67,.25-2.83,.3-5.67,.14-8.51-.3-5.34-1.31-10.63-2.97-15.71,1.6-.83,3.11-1.8,4.5-2.94,.02,.09,.03,.18,.07,.28,1.78,3.67,3.93,7.15,6.43,10.37,1.26,1.62,2.66,3.11,4,4.66,1.44,1.68,2.05,3.43,2.09,5.63,.13,8.29-2.94,16-7.12,23.01-3.95,6.62-8.66,12.83-11.76,19.92-1.59,3.65-2.81,7.52-2.92,11.54-.11,3.85,.88,7.62,2.46,11.1,3.39,7.46,9.34,13.84,15.91,18.7-7.44,2.58-14.87,5.16-22.31,7.74-7.45,2.58-14.89,5.44-22.63,7.01-7.35,1.5-15.17,1.71-22.29-.96-3.32-1.24-6.39-3.11-9.27-5.17-2.84-2.03-5.63-4.24-7.93-6.88-1.18-1.35-2.2-2.84-2.97-4.46-.94-2-1.46-4.17-2.15-6.26-1.03-3.1-2.58-6.17-5.42-7.93,5.16-5.17,9.28-11.27,14.47-16.42Zm-25.32,20.03c.66-.34,1.65-.36,2.37-.51,1.81-.37,3.61-.73,5.42-1.1,0,0,0,0,0,0l.27,.04c.18,0,.35-.05,.5-.14,.15-.08,.31-.15,.46-.23,.12-.06,.21-.15,.28-.26,0,0,0-.02,.01-.02,.02,0,.02,.02,.04,.03,3.15,1.68,4.41,5.14,5.41,8.36,1.08,3.48,2.27,6.65,4.57,9.52,2.11,2.62,4.74,4.77,7.4,6.79,2.89,2.2,5.95,4.21,9.28,5.69,14.6,6.51,30.37,.92,44.51-3.99,8.94-3.1,17.87-6.2,26.81-9.3,.27-.09,.45-.27,.56-.48,.7-.18,1.09-1.32,.29-1.88-2.63-1.84-5.15-3.95-7.46-6.26,14.93-4.19,31.62-.78,43.68,8.97-10.09,1.94-18.25,9.09-27.77,12.67-5.72,2.15-11.72,3.46-17.66,4.84-6.2,1.44-12.37,3.02-18.58,4.42-12.13,2.73-24.61,4.73-37.06,3.31-11.44-1.3-22.28-5.88-30.69-13.83-4.45-4.21-8.26-9.24-10.68-14.89-1.24-2.9-2.11-6.01-2.39-9.16-.07-.76-.4-2.17,.44-2.6Zm-2.24,4.27c.09,.64,.2,1.27,.33,1.9,1.19,5.7,3.97,11.02,7.49,15.62,6.94,9.07,16.74,15.67,27.73,18.76,12.34,3.47,25.41,2.73,37.89,.52,6.52-1.15,12.95-2.7,19.38-4.26,6.42-1.56,12.92-2.91,19.29-4.65,3.43-.94,6.82-2.04,10.09-3.46,3.02-1.31,5.9-2.92,8.76-4.54,4.11-2.33,8.31-4.76,12.84-6.18,0,0,.01,.01,.02,.02,8.07,5.08,18.07,6.68,27.31,4.46-6.26,10.42-16.66,17.74-27.85,22.19-14.32,5.69-29.91,6.85-45.13,7.9-15.89,1.1-31.96,3.18-47.89,1.72-7.78-.71-15.35-2.5-22.65-5.27-7.12-2.71-13.9-6.21-20.55-9.91-6.73-3.75-13.44-7.58-19.81-11.91-3.21-2.19-6.33-4.52-9.28-7.07-2.56-2.21-5.04-4.66-6.61-7.69-.62-1.19-1.04-2.45-1.24-3.76,9.4,1.07,21.12-.44,29.87-4.39Zm-68.18,44.9c-1.33-1.35-2.53-2.8-3.63-4.33,12.95-4.2,21.47-15.77,31.71-24.09,3.08-2.51,6.4-4.72,10.01-6.4,.08-.04,.13-.09,.19-.14,2.27,3.89,6.01,7.06,9.47,9.8,6.19,4.9,12.93,9.04,19.77,12.99,13.61,7.86,27.71,15.56,43.38,18.28,16.31,2.83,32.9,.88,49.27-.3,16.11-1.16,32.62-1.77,48.05-7.01,11.33-3.84,22.18-10.29,29.61-19.8,.13,.06,.26,.1,.41,.1,.58,.05,1.16,.11,1.74,.16,.07,0,.15,0,.23-.03,.08,.04,.16,.08,.26,.1,7.21,1.2,14.51,1.66,21.81,1.36-3.84,14.62-15.09,25.01-27.71,32.73-.42-.18-.96-.13-1.31,.32-.23,.3-.46,.58-.69,.88-3.12,1.82-6.3,3.49-9.45,5.02-9.67,4.7-19.58,8.89-29.24,13.63-9.89,4.86-19.71,9.9-29.92,14.08-18.59,7.61-39.47,12.43-59.34,7.05-4.75-1.29-9.33-3.17-13.57-5.68-4.44-2.63-8.45-5.88-12.4-9.18-3.85-3.21-7.67-6.49-11.8-9.34-4.22-2.91-8.78-5.2-13.53-7.1-17.8-7.1-39.21-8.79-53.3-23.12Zm-13.2,26.89c-1.76-.87-3.52-1.74-5.28-2.61,7.19-4.63,15.95-12.31,21.81-18.68,11.66,8.88,27.37,12.16,41.15,16.53,5.19,1.65,10.32,3.53,15.14,6.07,4.67,2.46,8.9,5.59,12.97,8.93,7.94,6.52,15.54,13.3,25.22,17.15,19.09,7.58,40.71,4.53,59.55-2.23,10.46-3.75,20.47-8.61,30.42-13.52,9.91-4.89,19.9-9.54,29.95-14.13,3.86-1.77,7.78-3.65,11.63-5.7-9,11.1-19.08,21.42-30.46,30.09-12.8,9.75-27.33,17.37-43.08,20.95-19.08,4.33-38.89,2.38-57.83-1.66-9.52-2.03-18.93-4.59-28.29-7.26-9.53-2.71-19.03-5.56-28.37-8.9-18.86-6.75-36.62-16.13-54.54-25.01Zm281.58,6.35c-10.37,6.57-21.57,11.68-32.17,17.85-9.37,5.44-17.82,12.02-25.88,19.23-7.58,6.79-14.86,13.92-22.69,20.44-7.74,6.45-16.15,12.35-25.58,16.06-11.36,4.47-23.7,5.27-35.72,3.45-12.54-1.9-24.48-6.41-35.92-11.73-11.82-5.5-23.34-11.67-34.95-17.62-23.94-12.26-47.87-24.52-71.81-36.78-2.24-1.15-4.48-2.29-6.71-3.44,5.52-1.86,10.54-4.91,14.77-8.96,.04-.04,.06-.09,.09-.13,4.96,2.46,9.93,4.92,14.9,7.37,9,4.43,18.07,8.72,27.42,12.36,9.39,3.65,19,6.71,28.66,9.55,9.59,2.82,19.23,5.53,28.96,7.82,19.05,4.48,38.87,7.23,58.37,4.14,16.44-2.61,31.85-9.62,45.41-19.14,13.58-9.53,25.41-21.4,35.79-34.29,.87-1.08,1.71-2.17,2.56-3.26,8.4-4.91,16.2-10.81,22.03-18.39,.09,.07,.2,.13,.31,.16,.26,.06,.51,.16,.77,.25,.11,.16,.26,.3,.49,.38,12.59,4.23,25.18,8.47,37.77,12.7-8.07,8.35-17.07,15.76-26.89,21.98Z"/></g></g></svg>
