<svg id="Calque_2" xmlns="http://www.w3.org/2000/svg" viewBox="0 0 160.56 132.89">
<defs>
  <style>.cls-1{fill:none;}.cls-2{fill:#fff;}</style>
</defs>
<g id="Calque_1-2"><g>
<path class="cls-1" d="M50.04,128.28c-.13,.22-.25,.45-.38,.66,0,0,0,0,0,0,.13-.22,.25-.44,.38-.66Z"/>
<path class="cls-1" d="M103.29,81.83c-1.09,1.17-2.19,2.34-3.28,3.51,1.09-1.17,2.19-2.33,3.28-3.51h0Z"/>
<path class="cls-1" d="M119.9,103.15h0c-.09,.02-.19,.05-.29,.08,.09-.03,.19-.06,.29-.08Z"/>
<path d="M159.82,.04c-2.98-.15-5.87,.12-8.66,1.38-8.83,3.99-17.68,7.93-26.55,11.83-.99,.43-2.14,.67-3.22,.67-2.22,0-4.43-.22-6.65-.37-2.49-.16-4.97-.55-7.47-.13-1.33,.23-2.74,.23-3.96,.71-4.09,1.61-7.08,4.5-8.59,8.62-.84,2.3-1.14,4.8-.61,7.31,.17,.8,.06,1.67,.07,2.51,0,.64-.3,.76-.84,.49-1-.5-1.98-1.05-3.02-1.46-2.03-.79-4.08-1.56-6.15-2.22-1.85-.59-3.9-.72-5.59-1.58-5.2-2.64-10.74-4.26-16.28-5.9-4.27-1.26-8.61-2.28-12.96-3.26-2.28-.51-4.62-.81-6.95-1.01-1.46-.13-1.96,.9-1.3,2.2,.78,1.55,2.22,2.17,3.64,2.95,.6,.33,.86,1.27,1.28,1.94-.53,.03-1.05,.07-1.58,.09-.16,0-.32-.04-.47-.07-6.51-1.24-12.96-2.92-19.64-3.03-2.66-.04-5.34,0-8,.21-2.32,.18-4.64,.55-6.94,.99-3.19,.61-6.49,.9-9.4,2.58v1.2c1.58,1.24,3.43,2.27,4.68,3.79,1.88,2.3,4.24,3.66,6.88,4.74,.38,.16,.83,.42,1.01,.76,1.59,3.15,4.37,4.47,7.63,5.15,.59,.12,1.29,.67,1.56,1.21,1.18,2.37,3.07,3.7,5.61,4.23,1.37,.29,2.67,.7,3.64,1.86,1.39,1.67,3.34,2.21,5.42,2.47,.53,.06,1.14,.35,1.51,.73,1.91,2.03,4.01,3.64,6.9,3.94,.86,.09,1.42,.5,1.96,1.29,1.24,1.8,2.93,2.99,5.31,2.94,.62-.01,1.38,.35,1.85,.79,1.64,1.54,3.43,2.44,5.74,1.99,.25-.05,.67,.15,.84,.37,1.68,2.17,3.96,2.85,6.57,2.63,1.13-.09,2.21-.37,3.02,.81,.26,.38,.86,.58,1.35,.72,1.68,.47,3.23,.94,4.61,2.25,.96,.91,2.15,1.65,3.16,2.6,.65,.61,1.6,.9,2.42,1.34,.27,.15,.56,.28,.79,.47,.64,.52,1.29,1.04,1.88,1.62,.2,.2,.41,.62,.33,.84-.4,1.08-.84,2.14-1.36,3.17-2.39,4.74-4.67,9.54-7.26,14.16-2,3.57-4.19,7.08-6.69,10.32-3.01,3.9-6.45,7.47-9.67,11.21-2.92,3.38-5.85,6.75-8.66,10.21-1.35,1.66-2.49,3.5-3.6,5.33-.5,.83,.15,2.19,1.05,2.24,.6,.03,1.32-.28,1.83-.65,2.52-1.81,5.05-3.62,7.47-5.57,3.17-2.54,6.3-5.14,9.32-7.85,1.54-1.38,3.11-2.59,5.05-3.32,1.12-.42,2.24-.86,3.29-1.43,4.71-2.52,9.42-5.05,14.08-7.66,2.87-1.61,5.65-3.39,8.5-5.06,.17-.1,.6,.01,.75,.17,2.26,2.28,4.09,4.84,5.49,7.76,.59,1.24,1.69,2.27,2.72,3.24,.36,.34,1.18,.18,1.8,.25-.05-.54,.08-1.18-.17-1.61-1.24-2.15-.61-4.43-.54-6.66,0-.25,.18-.54,.36-.73,1.01-1.13,2.04-2.25,3.09-3.34,.18-.18,.67-.38,.74-.31,.88,.98,1.25,.25,1.69-.43,.09-.14,.54-.24,.59-.18,.82,1.07,1.62,2.16,2.38,3.27,1.52,2.23,3.35,2.4,5.2,.43,.24-.25,.3-.67,.44-1-.32-.08-.65-.11-.95-.24-.64-.29-1.76-.55-1.81-.95-.21-1.45-.51-3.02,.72-4.31,1.23-1.29,2.37-2.66,3.59-3.96,.11-.12,.49-.05,.72,.01,.29,.08,.64,.43,.83,.35,1.58-.67,1.96-3.06,.74-4.3-.25-.25-.52-.51-.69-.81-.48-.86-1.11-.84-1.78-.33-.47,.36-.89,.79-1.3,1.23-1.57,1.69-3.11,3.41-4.69,5.09-.14,.15-.65,.22-.74,.11-.64-.73-1.15-1.44-.51-2.55,.67-1.16,1.4-2.44,1.5-3.72,.1-1.33,.8-2.21,1.37-3.21,.35-.61,1.02-1.04,1.37-1.65,1.65-2.86,3.5-5.64,4.77-8.67,1.2-2.87,2.24-5.98,2.48-9.05,.34-4.34-.1-8.75-.23-13.13-.02-.75-.02-1.54-.25-2.25-1.34-4.16-2.71-8.32-4.15-12.45-1.33-3.79-2.32-7.66-1.53-11.66,.7-3.56,2.58-6.64,5.79-8.44,6.44-3.6,12.99-7.01,19.54-10.4,3.29-1.7,6.68-3.18,10.04-4.74,.87-.4,1.79-.67,2.66-1.07,.24-.11,.37-.46,.55-.69-.24-.14-.48-.4-.73-.41ZM43.14,20.63c-.38-.22-.52-.83-.78-1.26,.46-.27,.96-.81,1.37-.75,1.97,.3,3.91,.75,5.85,1.19,8.38,1.88,16.63,4.19,24.64,7.32,1.48,.58,2.84,1.47,4.33,2.01,1.67,.6,3.44,.93,5.16,1.42,1.21,.35,2.44,.69,3.6,1.18,1.68,.7,3.26,1.67,4.98,2.26,1.36,.47,2.14,1.12,2.1,2.6-.02,.88,0,1.75,0,2.63,.06,0,.12,0,.19,.01-.12,1-.23,2.01-.35,3.01-.87-.46-1.75-.9-2.62-1.37-3.43-1.87-6.74-4-10.3-5.56-3.19-1.4-6.59-2.76-10-3.06-3.13-.28-5.82-1.38-8.67-2.29-4.48-1.42-9-2.7-13.51-4.01-1.34-.39-2.01-1.23-2.18-2.63-.06-.48-.47-1.06-.9-1.31-.92-.54-1.99-.83-2.91-1.37Zm41.12,53.12c-1.57-.99-3.24-1.86-4.64-3.05-1.14-.96-2.16-2.03-3.52-2.71-.33-.17-.5-.63-.81-.85-.5-.35-1.05-.81-1.61-.87-1.52-.15-2.91-.43-3.83-1.82-.42-.63-.98-.79-1.76-.6-2.79,.69-5.25,.24-7.24-2.07-.31-.36-1.1-.49-1.64-.43-1.82,.19-3.2-.63-4.6-1.63-.76-.55-1.68-1.07-2.58-1.2-2.19-.31-3.98-1-4.88-3.23-.15-.37-.76-.74-1.19-.79-3.24-.4-5.9-1.78-8.05-4.26-.41-.47-1.23-.72-1.9-.82-2.21-.32-3.91-1.33-5.36-3.05-.56-.66-1.73-.95-2.67-1.11-2.6-.44-4.49-1.57-5.49-4.17-.24-.64-1.28-1.08-2.04-1.4-1.53-.65-3.2-1-4.65-1.79-.92-.5-1.74-1.45-2.24-2.39-.57-1.08-1.32-1.64-2.41-2.08-1.47-.6-2.84-1.43-4.24-2.19-.2-.11-.49-.3-.51-.47-.17-1.6-1.44-2.06-2.63-2.62-.11-.05-.22-.11-.3-.2-.49-.5-.96-1.01-1.44-1.52,.57-.26,1.13-.54,1.7-.77,3.85-1.61,8.04-1.48,12.05-2.29,2.25-.46,4.58-.53,6.88-.78,6.45,.29,12.7,1.65,18.94,2.94,4.37,.9,8.75,1.83,13.04,3.05,4.05,1.16,7.98,2.77,11.99,4.1,1.02,.34,2.16,.32,3.22,.55,2.29,.5,4.63,.86,6.83,1.61,7.82,2.66,14.74,7.04,21.53,11.62,1.05,.71,1.28,2.06,.68,3.43-1.56,3.58-3.02,7.22-4.73,10.73-.85,1.76-2.15,3.31-3.24,4.96-1.72,2.59-3.45,5.17-5.17,7.76-.39,.58-.86,.85-1.51,.44Zm-34.65,55.24l.05-.05c.13-.22,.25-.44,.38-.66,.14-.24,.29-.47,.47-.68,3.82-4.4,7.6-8.83,11.51-13.15,7.62-8.43,14.29-17.47,18.88-27.95,1.76-4.01,3.64-7.99,5.69-11.86,1.24-2.35,2.85-4.52,4.42-6.68,3.6-4.95,5.93-10.54,8.3-16.11,.56-1.32,.69-2.85,.87-4.3,.05-.4-.31-.99-.66-1.29-1.06-.91-2.23-1.68-3.29-2.59-.29-.25-.49-.75-.51-1.14-.17-4.46-.17-8.93-.48-13.39-.47-6.78,2.87-12.57,9.83-14.29,3.33-.83,6.8-.52,10.23-.13,2.17,.25,4.38,.13,6.57,.2,.29,0,.58,.14,.86,.22-.21,.22-.39,.48-.63,.66-.86,.61-1.68,1.38-2.64,1.71-.71,.24-1.71,.1-2.43-.21-4.88-2.12-9.38-1.01-13.67,1.57-.9,.54-1.66,1.5-2.19,2.44-1.54,2.72-1.96,5.7-1.01,8.66,1.18,3.69,5.59,6,9.47,5.24,.85-.17,1.87-.68,2.5-.38,.53,.26,.55,1.49,.9,2.24,1.41,2.99,3.07,5.89,4.27,8.96,2.25,5.74,2.62,11.73,1.43,17.76-.4,2.05-1,4.12-1.89,6-1.39,2.96-4.01,4.79-6.77,6.4-2.26,1.33-4.52,2.66-6.74,4.07-.58,.37-.96,1.05-1.46,1.56-1.63,1.69-3.32,3.34-4.91,5.08-1.22,1.34-2.64,2.57-2.84,4.58-.03,.3-.44,.66-.77,.83-5.2,2.72-9.76,6.33-14.25,10.06-1.27,1.05-2.98,1.58-4.19,2.68-4.9,4.46-9.7,9.03-14.51,13.58-3.6,3.41-7.17,6.86-10.75,10.29-.01,.02-.02,.04-.04,.06-.03,.06-.05,.12-.08,.17,.02-.06,.04-.12,.06-.19ZM120.55,21.85c-2.29,3.4-4.55,6.81-6.95,10.13-.95,1.32-2.99,1.83-5.48,1.83-3.97,.38-8.02-3.92-6.65-8.44,.41-1.36,.69-2.79,1.29-4.06,1.09-2.29,3.49-2.72,5.59-3.48,3.2-1.17,6.27-.23,9.34,.7,.97,.3,1.87,.37,2.61,1.39,.56,.77,.71,1.25,.25,1.93Zm-23.66,78.99c-1.39,.93-2.78,1.87-4.24,2.67-5.17,2.84-10.35,5.67-15.57,8.42-2.01,1.06-4.08,2.04-6.21,2.79-2,.7-3.14,2.31-4.66,3.55-5.19,4.24-10.46,8.37-15.71,12.53-.26,.2-.6,.29-.91,.43,.15-.3,.23-.67,.45-.9,1.73-1.82,3.44-3.66,5.25-5.4,4.41-4.27,8.84-8.53,13.32-12.74,2.58-2.42,5.05-5.1,8-6.98,3.07-1.96,5.85-4.26,8.79-6.37,2.78-2,5.73-3.76,8.6-5.63,.48-.31,.8-.3,.9,.38,.04,.3,.11,.7,.32,.87,1.63,1.33,1.26,3.54,2.32,5.12,.04,.06,.04,.15,.11,.39-.2,.25-.41,.66-.75,.88Zm19.91-11.99c-.39,.83-.73,1.7-1.25,2.44-.63,.89-.66,1.66,.05,2.48,.13,.15,.22,.34,.35,.48,1.91,2.16,1.54,1.88,3.15,.04,1.56-1.8,3.11-3.6,4.71-5.36,.23-.25,.98-.44,1.03-.36,.48,.72,.85,1.52,1.26,2.29-.17-.04-.34-.13-.5-.12-.44,.03-1.07-.07-1.3,.19-1.52,1.68-2.92,3.46-4.42,5.15-1.43,1.61-1.24,3.56-1.18,5.45,.01,.4,.62,.77,.94,1.16,.11,.14,.19,.31,.28,.46h0c-.09,.02-.19,.05-.29,.08-.09,.03-.19,.04-.27,.02-.3-.08-.67-.16-.86-.38-1.14-1.31-2.83-2.24-3.03-4.25-.02-.23-.37-.62-.51-.6-.47,.07-1.02,.2-1.35,.51-.43,.41-.63,.99-1.41,.52-.2-.12-.78,.13-1.01,.37-1.22,1.26-2.38,2.57-3.56,3.87-.1,.12-.23,.26-.24,.4-.16,2.3-1.34,4.56-.35,6.92,.06,.13,.04,.29,.06,.44-.14-.05-.32-.06-.4-.16-.43-.52-.96-1.01-1.22-1.61-1.4-3.26-3.38-6.08-5.76-8.72-1.06-1.17-1.43-2.95-2.13-4.44-.27-.57-.51-1.17-.88-1.67-1.62-2.18-1.7-3.54,.06-5.55,1.06-1.21,2.15-2.4,3.25-3.58,1.09-1.17,2.19-2.33,3.28-3.51,0-.01,0-.02,.01-.03,.08-.08,.17-.17,.25-.25h.01s-.01,0-.01,0c0,0,.01,.01,.01,.01h0s-.08,.08-.12,.12c-.04,.04-.08,.08-.12,.12,0,0-.01,.02-.02,.02-.43,1.31-.93,2.6-1.39,3.9-.46,1.31-.88,2.63-1.16,3.98-.66,3.24-.76,6.59,.56,9.77,.5,1.2,1.24,2.2,2.56,2.69,1.68,.62,2.87,.24,3.61-1.4,.44-.97,.76-1.83,2.01-2.19,1.16-.33,1.92-1.51,3.36-1.57,.82-.04,.68-.92,.24-1.51q-1.59-2.13,.28-3.98c.99-.98,1.97-1.98,2.96-2.96,.12-.12,.33-.17,.49-.25,0,.19,.06,.4-.02,.55Zm-12.91,10.4c1.97-1.4,3.87-2.88,5.78-4.36,.48-.37,.79-.86,1.41-.08,.55,.68,.5,.98-.24,1.39-.43,.24-.73,.72-1.12,1.06-.24,.21-.52,.38-.79,.56-.12-.14-.24-.28-.35-.42-.46,.41-1.01,.76-1.35,1.25-.45,.65-.69,1.43-1.09,2.11-.41,.71-.93,1.13-1.67,.31-.15-.17-.4-.25-.6-.37-.97-.59-.9-.81,.01-1.46ZM123.08,20.53c-2.45,3.67-3.45,7.65-2.16,11.94,1.16,3.88,2.57,7.68,3.86,11.53,1.09,3.26,1.87,6.57,1.86,10.06,0,2.31,.2,4.62,.38,6.92,.55,6.91-1.77,13.05-5.22,18.81-3.01,5.03-7,9.29-11.42,13.11-2.23,1.93-4.61,3.67-6.92,5.5-.82,.65-1.2,.35-1.32-.58-.2-1.57-.4-3.15-.66-5.25,.65-2.71,1.23-5.89,2.21-8.93,.65-2.01,2.1-3.65,4-4.77,1.92-1.14,3.89-2.21,5.71-3.5,3.69-2.61,5.72-6.34,6.31-10.73,.45-3.38,.71-6.82,.6-10.22-.19-5.58-2.42-10.59-5.11-15.4-2.26-4.03-2.13-4.31,.66-7.99,1.94-2.57,3.64-5.33,5.36-8.06,.45-.71,.54-1.64,.81-2.47,.08-.23,.16-.56,.33-.65,.41-.19,.88-.26,1.33-.38-.2,.36-.37,.74-.6,1.08ZM156.34,1.47c-6.84,3.36-13.71,6.65-20.5,10.09-3.91,1.98-7.68,4.22-11.53,6.32-.83,.45-1.74,.78-2.75,1.22-.23-.28-.59-.53-.58-.77,.01-.36,.2-.82,.47-1.05,5.19-4.42,11.65-6.4,17.73-9.1,4.04-1.8,8.06-3.65,12.13-5.4,1.57-.67,3.23-1.13,4.86-1.66,.17-.06,.39,0,.59,.01-.13,.11-.25,.26-.4,.33Z"/>
<path d="M103.3,81.79s.01,.01,.01,.01h0s-.01-.01-.01-.01c.08-.08,.17-.17,.25-.25-.08,.08-.17,.17-.25,.25,0,.01,0,.02-.01,.03,0,0,0,0,0,0,0-.01,0-.02,.01-.03Z"/>
<polygon points="103.29 81.83 103.29 81.83 103.29 81.83 103.29 81.83 103.29 81.83"/>
<path d="M103.56,81.56h0s-.08,.08-.12,.12c.04-.04,.08-.08,.12-.12Z"/>
<path class="cls-2" d="M85.77,73.31c1.72-2.59,3.45-5.17,5.17-7.76,1.1-1.64,2.39-3.19,3.24-4.96,1.7-3.51,3.17-7.15,4.73-10.73,.6-1.37,.37-2.72-.68-3.43-6.79-4.58-13.71-8.96-21.53-11.62-2.21-.75-4.55-1.11-6.83-1.61-1.06-.23-2.2-.21-3.22-.55-4.01-1.33-7.93-2.94-11.99-4.1-4.29-1.23-8.67-2.15-13.04-3.05-6.25-1.29-12.49-2.65-18.94-2.94-2.3,.25-4.63,.32-6.88,.78-4.01,.81-8.2,.68-12.05,2.29-.57,.24-1.13,.52-1.7,.77,.48,.51,.96,1.02,1.44,1.52,.08,.08,.19,.15,.3,.2,1.18,.56,2.46,1.02,2.63,2.62,.02,.18,.31,.37,.51,.47,1.4,.75,2.78,1.58,4.24,2.19,1.09,.45,1.84,1,2.41,2.08,.5,.94,1.32,1.89,2.24,2.39,1.44,.79,3.12,1.14,4.65,1.79,.76,.32,1.79,.76,2.04,1.4,.99,2.6,2.89,3.73,5.49,4.17,.94,.16,2.11,.45,2.67,1.11,1.45,1.72,3.16,2.73,5.36,3.05,.67,.1,1.49,.34,1.9,.82,2.15,2.48,4.81,3.86,8.05,4.26,.44,.05,1.04,.42,1.19,.79,.9,2.23,2.69,2.93,4.88,3.23,.9,.13,1.82,.65,2.58,1.2,1.39,1,2.77,1.82,4.6,1.63,.54-.06,1.33,.07,1.64,.43,1.98,2.31,4.44,2.77,7.24,2.07,.78-.19,1.34-.03,1.76,.6,.92,1.39,2.31,1.66,3.83,1.82,.56,.06,1.11,.52,1.61,.87,.32,.22,.48,.68,.81,.85,1.36,.68,2.38,1.75,3.52,2.71,1.4,1.19,3.08,2.06,4.64,3.05,.65,.41,1.12,.14,1.51-.44Z"/>
<path class="cls-2" d="M60.41,118.66c4.81-4.55,9.61-9.12,14.51-13.58,1.21-1.1,2.92-1.63,4.19-2.68,4.49-3.73,9.05-7.34,14.25-10.06,.32-.17,.74-.53,.77-.83,.2-2.01,1.61-3.25,2.84-4.58,1.59-1.73,3.27-3.38,4.91-5.08,.5-.51,.88-1.19,1.46-1.56,2.21-1.41,4.47-2.74,6.74-4.07,2.76-1.62,5.38-3.44,6.77-6.4,.88-1.88,1.48-3.95,1.89-6,1.19-6.03,.83-12.02-1.43-17.76-1.21-3.07-2.86-5.97-4.27-8.96-.35-.75-.37-1.98-.9-2.24-.62-.3-1.65,.21-2.5,.38-3.88,.77-8.29-1.55-9.47-5.24-.95-2.97-.52-5.95,1.01-8.66,.53-.93,1.29-1.89,2.19-2.44,4.29-2.59,8.79-3.69,13.67-1.57,.72,.31,1.72,.46,2.43,.21,.96-.33,1.78-1.1,2.64-1.71,.24-.17,.42-.43,.63-.66-.29-.08-.57-.21-.86-.22-2.19-.07-4.4,.05-6.57-.2-3.43-.4-6.9-.7-10.23,.13-6.95,1.72-10.3,7.52-9.83,14.29,.31,4.45,.3,8.92,.48,13.39,.02,.39,.22,.9,.51,1.14,1.06,.9,2.23,1.68,3.29,2.59,.35,.3,.71,.88,.66,1.29-.18,1.45-.31,2.97-.87,4.3-2.36,5.57-4.7,11.16-8.3,16.11-1.57,2.16-3.18,4.33-4.42,6.68-2.05,3.87-3.93,7.84-5.69,11.86-4.59,10.48-11.26,19.52-18.88,27.95-3.91,4.32-7.69,8.75-11.51,13.15-.18,.21-.33,.44-.47,.68-.13,.22-.25,.45-.38,.66,3.58-3.43,7.15-6.88,10.75-10.29Z"/>
<path class="cls-2" d="M49.63,129.01h0s.02-.04,.04-.06c0,0,0,0,0,0-.01,.02-.02,.04-.03,.06h0Z"/>
<path class="cls-2" d="M49.63,129.01s.02-.04,.03-.06l-.05,.05s.02,.01,.02,.01h0Z"/>
<path class="cls-2" d="M122.01,20.47c-.27,.83-.36,1.76-.81,2.47-1.72,2.73-3.41,5.49-5.36,8.06-2.79,3.68-2.92,3.96-.66,7.99,2.69,4.81,4.92,9.82,5.11,15.4,.12,3.4-.14,6.85-.6,10.22-.59,4.39-2.62,8.12-6.31,10.73-1.82,1.29-3.79,2.36-5.71,3.5-1.9,1.13-3.35,2.76-4,4.77-.99,3.05-1.56,6.23-2.21,8.93,.27,2.11,.46,3.68,.66,5.25,.12,.93,.5,1.23,1.32,.58,2.31-1.83,4.69-3.57,6.92-5.5,4.42-3.82,8.42-8.08,11.42-13.11,3.45-5.76,5.77-11.9,5.22-18.81-.18-2.3-.39-4.61-.38-6.92,0-3.48-.77-6.79-1.86-10.06-1.29-3.84-2.7-7.65-3.86-11.53-1.29-4.29-.29-8.27,2.16-11.94,.23-.34,.4-.72,.6-1.08-.45,.12-.92,.19-1.33,.38-.17,.08-.25,.41-.33,.65Z"/>
<path class="cls-2" d="M46.95,23.32c.17,1.4,.84,2.25,2.18,2.63,4.51,1.31,9.03,2.58,13.51,4.01,2.86,.91,5.55,2.01,8.67,2.29,3.4,.31,6.81,1.66,10,3.06,3.56,1.56,6.88,3.69,10.3,5.56,.86,.47,1.74,.92,2.62,1.37,.12-1,.23-2.01,.35-3.01-.06,0-.12,0-.19-.01,0-.88-.02-1.75,0-2.63,.04-1.48-.75-2.13-2.1-2.6-1.71-.59-3.3-1.56-4.98-2.26-1.16-.48-2.38-.83-3.6-1.18-1.71-.49-3.48-.82-5.16-1.42-1.49-.53-2.85-1.43-4.33-2.01-8.01-3.13-16.26-5.44-24.64-7.32-1.94-.43-3.89-.88-5.85-1.19-.41-.06-.91,.48-1.37,.75,.25,.43,.4,1.04,.78,1.26,.92,.54,1.99,.83,2.91,1.37,.42,.25,.84,.83,.9,1.31Z"/>
<path class="cls-2" d="M95.21,94.46c-.21-.17-.28-.57-.32-.87-.09-.67-.41-.69-.9-.38-2.87,1.87-5.82,3.63-8.6,5.63-2.94,2.11-5.72,4.4-8.79,6.37-2.95,1.88-5.41,4.56-8,6.98-4.48,4.2-8.91,8.46-13.32,12.74-1.8,1.75-3.52,3.59-5.25,5.4-.22,.23-.3,.59-.45,.9,.3-.14,.65-.23,.91-.43,5.25-4.16,10.52-8.29,15.71-12.53,1.52-1.24,2.66-2.85,4.66-3.55,2.14-.75,4.21-1.73,6.21-2.79,5.22-2.75,10.4-5.57,15.57-8.42,1.46-.8,2.85-1.75,4.24-2.67,.33-.22,.54-.63,.75-.88-.07-.24-.07-.33-.11-.39-1.06-1.57-.69-3.79-2.32-5.12Z"/>
<path class="cls-2" d="M117.69,18.53c-3.07-.94-6.14-1.87-9.34-.7-2.1,.76-4.5,1.2-5.59,3.48-.61,1.27-.88,2.7-1.29,4.06-1.38,4.52,2.68,8.82,6.65,8.44,2.49,0,4.53-.51,5.48-1.83,2.4-3.32,4.66-6.74,6.95-10.13,.46-.68,.31-1.15-.25-1.93-.74-1.02-1.64-1.1-2.61-1.39Z"/>
<path class="cls-2" d="M116.33,88.55c-.99,.98-1.97,1.98-2.96,2.96q-1.88,1.86-.28,3.98c.44,.59,.58,1.47-.24,1.51-1.43,.06-2.2,1.24-3.36,1.57-1.24,.36-1.57,1.22-2.01,2.19-.74,1.64-1.93,2.02-3.61,1.4-1.32-.49-2.06-1.49-2.56-2.69-1.33-3.18-1.22-6.53-.56-9.77,.27-1.35,.7-2.67,1.16-3.98,.46-1.3,.95-2.59,1.39-3.9-1.09,1.17-2.19,2.34-3.28,3.51-1.1,1.18-2.19,2.36-3.25,3.58-1.75,2.01-1.68,3.37-.06,5.55,.37,.5,.61,1.1,.88,1.67,.7,1.49,1.08,3.27,2.13,4.44,2.38,2.64,4.36,5.46,5.76,8.72,.26,.6,.79,1.09,1.22,1.61,.08,.1,.26,.11,.4,.16-.02-.15,0-.31-.06-.44-.99-2.36,.19-4.62,.35-6.92,0-.14,.14-.29,.24-.4,1.18-1.3,2.34-2.61,3.56-3.87,.23-.24,.81-.49,1.01-.37,.78,.47,.98-.11,1.41-.52,.32-.31,.88-.43,1.35-.51,.14-.02,.49,.37,.51,.6,.19,2.01,1.88,2.93,3.03,4.25,.19,.22,.56,.3,.86,.38,.08,.02,.18,0,.27-.02,.09-.03,.19-.06,.29-.08-.09-.15-.17-.32-.28-.46-.32-.39-.92-.76-.94-1.16-.06-1.9-.25-3.84,1.18-5.45,1.5-1.69,2.9-3.47,4.42-5.15,.23-.25,.85-.16,1.3-.19,.16-.01,.33,.08,.5,.12-.41-.77-.78-1.56-1.26-2.29-.05-.08-.8,.11-1.03,.36-1.6,1.76-3.15,3.56-4.71,5.36-1.6,1.85-1.24,2.12-3.15-.04-.13-.15-.22-.33-.35-.48-.7-.82-.68-1.59-.05-2.48,.52-.74,.86-1.61,1.25-2.44,.07-.15,.01-.37,.02-.55-.17,.08-.37,.13-.49,.25Z"/>
<path class="cls-2" d="M103.31,81.8s-.01,.02-.02,.02c0,0,0,0,0,0,0,0,.01-.02,.02-.02h0s0,0,0,0Z"/>
<path class="cls-2" d="M119.9,103.15c-.09-.15-.17-.32-.28-.46,.11,.14,.19,.31,.28,.46h0Z"/>
<path class="cls-2" d="M101.9,85.73c.46-1.3,.95-2.59,1.39-3.9,0,0,0,0,0,0-.43,1.31-.93,2.6-1.39,3.9Z"/>
<path class="cls-2" d="M103.31,81.8s-.01-.01-.01-.01c0,.01,0,.02-.01,.03,0,0,.01-.02,.02-.02h0Z"/>
<path class="cls-2" d="M156.15,1.13c-1.63,.54-3.29,.99-4.86,1.66-4.07,1.75-8.08,3.61-12.13,5.4-6.08,2.7-12.54,4.68-17.73,9.1-.27,.23-.45,.69-.47,1.05,0,.24,.36,.49,.58,.77,1.01-.45,1.92-.77,2.75-1.22,3.85-2.09,7.62-4.34,11.53-6.32,6.79-3.44,13.66-6.73,20.5-10.09,.15-.07,.27-.22,.4-.33-.2,0-.41-.07-.59-.01Z"/>
<path class="cls-2" d="M49.61,128.99c-.02,.06-.04,.12-.06,.19l.08-.17s-.02-.01-.02-.01Z"/>
<path class="cls-2" d="M49.63,129.01l-.08,.17c.03-.06,.05-.12,.08-.17h0Z"/>
<path class="cls-2" d="M103.31,81.8s.08-.08,.12-.12c.04-.04,.08-.08,.12-.12,0,0-.01-.01-.01-.01-.08,.08-.17,.17-.25,.25,0,0,.01,.01,.01,.01Z"/>
<polygon class="cls-2" points="103.56 81.56 103.55 81.55 103.56 81.56 103.56 81.56"/>
<path class="cls-2" d="M103.31,81.8s.08-.08,.12-.12c-.04,.04-.08,.08-.12,.12h0Z"/>
</g>
</g>
</svg>
