<svg id="Calque_2" xmlns="http://www.w3.org/2000/svg" viewBox="0 0 395.76 376.46">
<g id="Calque_2-2"><g>
<path class="cls-1" d="M162.22,262.14c-4.95-7.86-8.73-16.36-12.46-24.84-3.65-8.3-7.18-16.61-12.53-23.98-3.91-5.38-8.77-10.29-14.62-13.46-1.97-.38-3.89-1.19-5.62-2.41-.88-.62-.37-2.19,.77-1.83,1.89,.6,3.73,1.36,5.48,2.29,3.95,.65,8.02-.69,11.06-3.83,4.39-4.52,5.1-11.33,1.16-16.38-.48-.61-.26-1.77,.71-1.71,9.42,.61,14.96-13.65,7.65-19.59-.86-.7,.11-1.81,.97-1.67,7.46,1.22,14.83-3.35,18.42-9.82-.25,.03-.51-.06-.73-.33-5.77-7.09-14.57-11.28-23.71-11.22-.4,0-.9-.31-.96-.73l-3.17-20.53c-.11-.7,.43-1.49,1.23-1.23,3.7,1.2,7.75,.4,10.71-2.07-3.73-5.59-6.83-11.57-9.27-17.83-8.65-22.13-8.91-47.35-.52-69.56-9.67,8.08-15.52,20.41-15.55,33.04,0,1.17-1.61,1.3-1.96,.27-5.5-15.86-6.19-33.21-2.07-49.47-5.31,2.13-10.05,5.54-13.85,9.83-7.55,8.49-11.09,20.14-8.78,31.34,2.34,11.3,9.89,21.33,20.3,26.38,.79,.38,.55,1.62-.24,1.83-5.34,1.45-10.68,2.89-16.02,4.34,2.79,4.61,5.36,9.34,7.66,14.22,8.32,17.62,13.34,36.72,14.75,56.14,1.35-1.98,2.71-3.96,4.06-5.93,.54-.79,1.86-.53,1.86,.5,.05,6.22,.81,12.41,2.32,18.46,.66,2.65,1.46,5.27,2.39,7.84,.96,2.65,2.18,5.15,3.29,7.72,.7,1.64-.22,4.04-.94,5.57-.86,1.83-2.2,3.44-3.8,4.68-3.31,2.56-7.64,3.25-11.55,1.69-2.26-.9-4.23-2.43-5.66-4.36-.18,5.79-1.3,11.55-.78,17.35,.04,.41-.34,.89-.73,.96-4.96,.99-9.93,1.97-14.89,2.96-.41,.08-.94-.04-1.13-.46-1.77-3.85-3.27-7.83-4.44-11.91-4.08-14.23-4.3-29.48-.65-43.82-4.84-5.02-9.02-10.66-12.42-16.74-6.19-11.06-9.86-23.48-10.85-36.1-.9-11.51,.5-23.21,4.31-34.12-.35,.31-.71,.61-1.05,.94-9.4,9.18-10.45,23.76-8.61,36.05,2.37,15.83,10.41,30.01,14.76,45.29,2.29,8.04,3.57,16.45,2.43,24.8-.57,4.19-1.72,8.27-2.61,12.4-.88,4.11-1.59,8.48-.67,12.65,1.24,5.6,5.32,9.58,10.67,11.32,5.14,1.67,10.67,1.73,16.02,1.81,10.33,.15,22.96-.48,30.61,7.81,.21,.22,.28,.47,.26,.71,1.59,1.72,3.19,3.43,4.78,5.15,.57,.62,.19,1.72-.71,1.71-14.71-.25-29.34,2.52-42.95,8.1-.42,.17-.9-.13-1.13-.46-3.02-4.38-6.33-8.56-9.9-12.5-12.57-13.87-28.31-24.84-45.72-31.72-.38-.15-.79-.5-.73-.96,.44-3.51,1.32-6.9,2.7-10.16,3.87-9.19,11.2-16.85,20.21-21.07-2.66,.77-5.28,1.66-7.85,2.71-13.73,5.61-25.81,15.19-34.38,27.3,6.61,2.93,13.09,6.15,19.41,9.67,23.08,12.87,44,29.57,61.67,49.21,3.78-2.43,7.71-4.63,11.77-6.56,7.56-3.58,15.54-6.29,23.73-7.99,1-.21,2.01-.4,3.02-.58,.76-.13,1.95-.57,2.7-.36,.7,.19,1.44,1.08,1.9,1.6,.54,.6,1.03,1.25,1.44,1.94,1.7,2.81,2.21,6.21,1.45,9.4,.04,.32-.09,.64-.49,.82-.04,.02-.07,.04-.11,.05-14.75,6.27-29.95,11.4-44.7,17.67-.44,.19-.83,.17-1.21-.16-8.03-6.87-17.51-11.94-27.62-14.97-9.05-2.71-18.57-3.79-28-3.08-4.71,.35-9.25,1.32-13.86,2.3-4.37,.93-8.99,1.77-13.43,.84-3.97-.83-7.44-3.33-9.24-7-1.16-2.37-1.64-5-1.61-7.62-3.04,8.83-3.24,18.62,.02,27.43,6.49-3.36,13.46-5.74,20.64-7.07,13.51-2.49,27.63-1.45,40.67,2.82,12.6,4.13,24.19,11.3,33.13,21.11,2.08-3.76,4.68-7.21,7.71-10.25,11.88-11.92,29.89-17.57,46.35-13.63,.78,.19,.86,1,.52,1.52,4.49,5.54,6.02,13.18,3.86,20.02-.16,.52-.69,.84-1.23,.7-12.1-3.22-24.2-6.44-36.3-9.66-.45,3.33-1.12,6.63-2.07,9.86-3.68,12.5-11.02,23.88-20.95,32.32,5.28,5.28,3.02,14.01,1.72,20.53-.7,3.52-1.16,6.99-.94,10.58,.23,3.63,1.07,7.22,2.38,10.61,2.61,6.75,7.3,12.79,13.37,16.76,11.58,7.57,27.5,6.99,38.8-.77-2.78,.22-5.57,.12-8.36-.3-14.45-2.17-27.53-12.79-31.76-26.9-.1-.33,0-.74,.26-.97,3.19-2.93,6.02-6.22,8.41-9.83,8.44-12.71,11.6-28.81,8.1-43.7-.18-.75,.47-1.42,1.23-1.23,13.11,3.28,26.88,3.38,40.03,.31,.05-.05,.09-.11,.15-.15,1.63-1.13,3.26-2.26,4.89-3.38-5.18-4.16-9.26-9.56-12.83-15.23Z"/>
<path class="cls-1" d="M233.03,123.11c5.08-1.08,5.89-8.84,1.66-11.46-.07-.04-.11-.1-.17-.16-.07-.02-.15-.02-.22-.06-2.7-1.37-6.06-.09-7.89,2.13-1.66,2.02-1.73,4.78-.13,6.86,1.51,1.96,4.28,3.22,6.75,2.69Z"/>
<path class="cls-1" d="M172.66,115.1c-3.48-.21-6.44,2.58-7.3,5.83-.76,2.9,.49,5.73,3.16,7.09,2.38,1.22,5.5,1.16,7.77-.29,5.14-3.29,2.1-12.14-3.63-12.63Z"/>
<path class="cls-1" d="M247.06,248.07c1.85-3.08,3.54-6.26,5.17-9.47-5.55-1.81-21.73-3.63-26.95-5.44-1.21-.42-.69-2.35,.53-1.93,5.3,1.84,21.9,3.68,27.2,5.52,.05,.02,.07,.05,.12,.07,1.84-3.67,3.62-7.36,5.5-11,1.41-2.74,2.87-5.48,4.37-8.2-7.98,1.97-26.5,6.66-32.99,8.25-1.25,.31-1.78-1.62-.53-1.93,6.92-1.69,27.5-6.9,34.42-8.6,.14-.04,.27-.03,.4-.02,5.05-8.84,10.82-17.28,18.25-24.16-4.15,.32-8.35-1.32-11.28-4.29-3.16-3.21-4.41-7.64-3.5-11.96-.84-1.22-1.48-2.56-1.91-3.96-8.92,3.55-25.62,11.36-34.11,14.68-1.2,.47-1.72-1.47-.53-1.93,8.51-3.32,25.28-11.17,34.17-14.7-.55-3.23-.06-6.61,1.51-9.5-1.54,.4-3.15,.52-4.76,.38-.39,.2-.87,.1-1.18-.16-4.12-.73-7.78-3.24-9.66-6.89-6.2,6.59-18.02,18.81-23.81,24.99-.88,.94-2.29-.48-1.41-1.41,5.97-6.38,18.38-19.19,24.39-25.61-.1-.33-.19-.66-.26-1.01-.86-4.12,.2-8.46,2.77-11.69-4.37,.01-8.53-3.22-10.05-7.32-.54,.81-1.18,1.56-1.91,2.22-1.21,1.1-2.61,1.93-4.07,2.48,.01,.18,0,.36-.12,.55-5.17,8.92-10.35,27.16-15.52,36.07-.65,1.11-2.37,.11-1.73-1.01,4.97-8.57,9.95-25.74,14.92-34.98-2.96,.43-6.02-.3-8.48-2.45-3.2-2.79-4.73-7.31-3.99-11.44-3.96,1.92-9.38,.72-11.84-3.02-6.37,4.1-14.33,5.34-21.67,3.71,.36,.59,.68,1.2,.95,1.84,2.86,6.63,.45,14.94-6.87,17.2-5.32,1.64-11.64-.18-15.18-4.4-.09,1.55-.41,3.07-.87,4.54,4.57,6.74,16.5,20.86,21.06,27.59,.72,1.07-1.01,2.07-1.73,1.01-4.3-6.35-15.14-19.24-20.2-26.35-3.26,7.18-10.66,12.58-18.66,12.54,.57,.76,1.01,1.59,1.34,2.46,9.7,6.41,30.87,17.89,40.52,24.28,1.07,.71,.07,2.44-1.01,1.73-9.11-6.03-28.5-16.61-38.8-23.16,.85,6.93-3.96,14.97-11.08,15.76,1.33,2.18,2.13,4.62,2.11,7.23,0,.12-.01,.23-.02,.35,.02,0,.04,0,.07,0,8.92,1.43,26.5,2.69,35.42,4.12,1.27,.2,.73,2.13-.53,1.93-8.84-1.42-26.17-2.66-35.16-4.08-.79,4.38-3.64,8.31-7.46,10.59-1.8,1.08-3.73,1.71-5.69,1.93,11.42,7.64,17.73,20.46,23.26,32.91,.09-.05,.17-.11,.28-.14,5.6-1.47,22.12-2.95,27.72-4.42,1.25-.33,1.78,1.6,.53,1.93-5.6,1.47-22.13,2.95-27.72,4.42,0,0-.01,0-.02,0,.75,1.7,1.48,3.38,2.22,5.04,2.41,5.42,4.91,10.82,7.78,16.01,4.84-5.13,16.43-17.01,21.18-22.06,.88-.94,2.3,.48,1.41,1.41-4.79,5.08-16.49,17.08-21.28,22.16-.11,.11-.22,.19-.33,.24,1.29,2.24,2.65,4.45,4.11,6.59,2.59,3.78,5.44,7.55,8.91,10.56,3.28,2.84,7.08,5.14,11.14,6.67,.36,.14,.72,.26,1.08,.38,.87-11.93,1.75-32.5,2.62-44.21,.1-1.28,2.1-1.28,2,0-.88,11.86-1.77,32.79-2.65,44.65,0,.06-.03,.11-.05,.17,1.85,.52,3.72,.87,5.59,1.07,0-.1,.04-.21,.12-.31,11.86-15.61,9.85-23.78,8.86-31.18-1.75-13.12-8.91-25.2-20.04-32.48-10.98-7.18-24.89-9.7-37.63-6.39-.53,.14-.92-.14-1.11-.52-.25-.36-.33-.86,.04-1.28,3-3.48,2.59-9.2-.72-12.31-.71-.67-.07-1.64,.69-1.69,.24-.09,.52-.1,.81,.04,7.03,3.36,15.03,4.42,22.72,3.36,13.89-1.9,26.36-10.55,31.8-23.64,5.45-13.13,3.92-28.98-4.56-40.48-.3-.41-.21-.81,.05-1.08-.33-.77,.49-1.83,1.39-1.27,6.21,3.83,14.8,2.5,19.59-2.98,.79-.9,2.04,.26,1.54,1.2,.04,.2,0,.43-.17,.66-4.43,6.18-6.95,13.55-7.42,21.13-.84,13.42,4.69,26.76,15.61,34.82,10.36,7.65,24.18,10.42,36.57,6.67,.94-.28,1.46,.76,1.12,1.44,.14,.57-.16,1.28-.92,1.32-.83,.04-1.65,.42-2.28,1.05-.67,.66-1.12,1.49-1.38,2.41-.16,.58-.2,.84-.22,1.39-.02,.59,.01,.88,.14,1.36,.14,.55,.23,.75,.53,1.23,.17,.26,.59,.68,.87,.87,.99,.67,.19,2.22-.79,1.84-6.73-.46-13.47,.6-19.77,3.02-11.32,4.35-20.72,13.04-25.56,24.19-4.98,11.47-5.19,25.02-.3,36.55,.15,.35,.09,.68-.07,.95,.49,.88-.74,1.98-1.59,1.16-2.38-2.31-9.13-3.26-15.36,9.14,4.47,.14,8.96-.6,13.29-2.23,6.38-2.39,12.25-5.97,17.49-10.3-.04-.07-.08-.12-.1-.21-1.91-7.07-7.03-24.67-8.94-31.74-.34-1.25,1.59-1.77,1.93-.53,1.86,6.86,6.73,23.65,8.77,31.09,.74-.65,1.47-1.32,2.19-2,6.02-5.75,11.05-12.46,15.34-19.58Z"/>
<path class="cls-1" d="M384.38,210.64c-.1,.38-.54,.79-.96,.73-5.89-.78-11.84-1.11-17.78-.95-20.92,.54-41.59,6.94-59.12,18.38-.38,.25-.9,.13-1.21-.16-7.94-7.28-17.87-12.11-28.47-13.97-.35-.06-.59-.39-.7-.7-1.18-3.28-.22-7.08,2.31-9.45,1.7-2.17,3.41-4.34,5.11-6.51,.01-.06,.01-.13,.04-.18,.04-.12,.11-.23,.21-.32,.5-.61,.99-1.22,1.49-1.83,.16-.2,.46-.28,.71-.29,.13,0,.27,.03,.39,.08,.05,0,.09-.03,.15-.03,9.7-.03,19.39-.07,29.09-.1,3.35-4.62,7.1-8.93,11.26-12.84,15.06-14.19,34.8-23.2,55.41-25.1,.36-3.51,.41-7.04,.09-10.55-1.02-11.2-5.57-21.99-12.8-30.57,5.53,10.85,7.19,23.53,4.53,35.47-.13,.56-.72,.79-1.23,.7-9.05-1.66-18.01,1.68-25.67,6.3-13.05,7.86-23.37,20.44-38.16,25.33-11.04,3.65-25.66,1.9-32.18-8.8-.4-.66,.06-1.27,.63-1.43,.15-.11,.32-.2,.54-.21,5.33-.32,10.38-2.85,15.26-4.85,3.54-10.85,5.48-22.12,8.02-33.24-.99,.99-1.97,1.99-2.96,2.98-.68,.69-1.99,0-1.67-.97,3.15-9.69,5.72-19.57,7.65-29.57,3.42-17.78,4.83-35.97,3.95-54.05-.66-13.53-2.62-26.99-5.99-40.11,.85,13.7-1.4,27.55-6.68,40.28-.25,.6-1.15,1.11-1.67,.44-8.17-10.38-13.41-22.86-15.19-35.89-.06,1.19-.11,2.37-.14,3.56-.36,18.37,4.02,36.75,12.69,52.95,.49,.92-.48,1.79-1.37,1.37-5.98-2.83-11.17-7.09-15.2-12.26,.59,1.76,1.15,3.52,1.69,5.29,6.35,21.02,9.23,42.89,11.23,64.7,.06,.65-.69,1.13-1.27,.96-6.89-2.02-13.16-5.81-18.21-10.83,3.13,11.18,1.59,23.68-4.59,33.53,2-.03,4-.54,5.72-1.58,.99-.6,1.99,.77,1.21,1.57-3.83,3.92-4.43,10.36-1.67,15.04,.66-.13,1.44,.37,1.18,1.19-.05,.17-.09,.33-.13,.5,.07,.32-.02,.64-.2,.88-.9,4.81,1.34,9.49,5.68,12.01,3.46,2,7.44,2.15,10.8,.53,1.19-.95,2.41-1.87,3.68-2.74,.98-.67,1.95,.77,1.21,1.57-1.18,1.28-2.58,2.35-4.14,3.1-.45,.36-.91,.71-1.35,1.09-13.39,11.48-21.12,27.8-29.04,43.2-1.89,3.68-3.58,7.44-5.59,11.06-2.04,3.66-4.25,7.23-6.67,10.65-3.23,4.57-6.84,8.88-10.86,12.77,.04,.02,.08,.04,.09,.04,.32,.11,.64,.21,.97,.28,.77,.17,1.56,.27,2.34,.37,1.48,.2,3.14,.38,4.3,1.41,.2,.17,.28,.43,.28,.68,0,0,0,.02,0,.03,.92,8.29,6.91,14.96,14.23,18.47,3.34,1.6,7.03,2.57,10.73,2.77,4.28,.23,8.48-.78,12.74-.84,3.82-.05,7.66,.89,10.44,3.65,2.22,2.2,3.39,5.2,3.82,8.25,1.01,7.09-1.38,13.7-3.67,20.27-2.43,6.99-5.2,16.26,.26,22.57,.52,.6,.28,1.39-.44,1.67-11.05,4.3-20.88,11.59-28.22,20.9,8.99,2.92,18.34,5.8,27.89,5.05,6.85-.54,13.88-3.24,18.63-8.34,5.83-6.26,5.89-14.85,5.82-22.91-.17-18.52-.33-37.05-.5-55.57-5.26,.51-10.55,.64-15.83,.34-19.82-1.14-39.25-7.92-55.36-19.53-.37-.27-.48-.66-.42-1.02-.25-.22-.42-.54-.35-.94,1.29-8.36,7.17-15.59,14.97-18.75,.84-.34,1.33,.52,1.14,1.22,.5,.49,1,.97,1.5,1.46,.09,.09,.15,.19,.2,.3,7.87,4.7,16.39,8.22,25.29,10.4,7.99,1.96,16.22,2.86,24.44,2.63,9.07-.25,18.12-.14,27.19,.2,17.55,.66,35.06,2.2,52.47,4.55-2.92-3.42-6.02-6.69-9.3-9.77-9.85-9.25-21.23-16.83-33.53-22.39,10.21,6.48,19.14,14.88,26.24,24.67,.45,.62-.16,1.52-.86,1.5-8.51-.2-17.01-.74-25.47-1.65-29.89-3.2-59.23-10.83-86.9-22.56-.28-.12-.43-.31-.49-.52-.11-.15-.19-.34-.17-.58,.43-6.81,5.69-12.95,12.4-14.31,.12-.33,.42-.58,.89-.52,12.49,1.38,24.49,5.88,34.75,13.13,5.68-3.08,11.58-5.77,17.64-8.01,21.94-8.13,45.89-10.54,69.01-6.95,.88-4.23,1.28-8.53,1.17-12.85-.34-13.31-5.3-26.41-13.84-36.57,6.26,12.08,7.95,26.44,4.45,39.65Z"/>
<path class="cls-1" d="M168.21,210.83c13.41,3.04,25.25,11.58,31.79,23.74,6.09,11.35,7.64,25.06,3.96,37.41,2.33-1.35,5.28-1.55,7.74-.44-2.34-6.21-3.4-12.84-3.06-19.49,.66-12.95,6.41-25.37,16.33-33.82,9.05-7.71,20.88-12.05,32.77-11.76-.14-.26-.27-.54-.37-.83-.84-2.32-.22-5.09,1.32-6.99-5.95,1.07-12.1,.83-17.98-.63-13.36-3.32-24.69-12.75-29.55-25.72-4.38-11.7-3.48-25.32,2.54-36.26-4.63,2.61-10.45,3.05-15.39,1.03,4.33,6.51,6.66,14.22,6.95,22.02,.54,14.88-6.41,29.34-19.17,37.27-11.39,7.08-26.01,8.68-38.54,3.91,1.65,3.18,1.66,7.14,.02,10.33,6.8-1.41,13.87-1.31,20.65,.23Z"/>
<path d="M374.92,163.08c-.8-.68-2.3,.25-1.57,1.21,9.63,12.7,13.11,29.53,9.29,44.99-20.79-2.62-42.18,.66-61.32,9.17-5.28,2.35-10.36,5.11-15.21,8.24-7.95-7.08-17.74-11.91-28.21-13.84-.58-2.17-.1-4.41,1.25-6.13,.08-.05,.17-.09,.23-.17,.16-.21,.33-.42,.49-.63,.16-.16,.32-.32,.5-.46,.23-.18,.33-.4,.34-.61,1.74-2.22,3.49-4.44,5.23-6.67,.1-.13,.17-.27,.22-.42,.09-.11,.18-.22,.27-.33,.03,0,.06,.02,.09,.02,8.46-.03,16.93-.06,25.39-.09,1.07,0,2.14,0,3.2-.01,.9,0,1.4,.07,1.96-.66,1.06-1.36,2.05-2.77,3.14-4.12,2.12-2.61,4.4-5.09,6.8-7.44,9.59-9.38,21.27-16.62,33.92-21.06,7.18-2.52,14.67-4.14,22.25-4.76,.59-.05,.93-.42,1-1,1.66-13.79-2.08-28.09-10.07-39.42-2.26-3.2-4.83-6.16-7.71-8.82-.76-.7-1.8,.07-1.7,.86-.21,.27-.26,.64,0,1.02,7.52,11.18,10.32,25.2,7.62,38.4-15.16-2.23-28.47,7.55-39.69,16.52-10.77,8.61-22.58,18.07-37.22,16.82-6.2-.53-12.3-3.13-16.02-8.2,3.86-.49,7.56-1.97,11.14-3.44,1.03-.42,2.05-.85,3.08-1.27,1.14-.46,1.34-.69,1.73-1.88,.77-2.36,1.45-4.75,2.09-7.15,2.55-9.64,4.24-19.47,6.6-29.15,.23-.95-.95-1.7-1.67-.97l-2.57,2.59c4.97-16.16,8.32-32.82,9.82-49.67,1.61-18.06,1.09-36.31-1.83-54.21-1.64-10.05-4.07-19.97-7.29-29.63-.41-1.22-2.2-.73-1.93,.53,3.56,16.85,2.03,34.55-4.22,50.58-9.73-12.98-14.8-29.21-14.27-45.43,.04-1.1-1.77-1.39-1.96-.27-3.13,18.54-1.43,37.8,4.95,55.49,1.44,3.99,3.12,7.89,5.01,11.69-7.53-4.33-13.56-11.03-17.02-19.01-.32-.81-.64-1.63-.97-2.44-.48-1.16-2.37-.71-1.93,.53,.33,.92,.69,1.81,1.08,2.7,7.68,19.45,11.86,40.06,14.43,60.77,.7,5.65,1.29,11.32,1.82,17-7.53-2.52-14.17-7.23-19.08-13.39-1.44-3.39-3.32-6.52-5.63-9.38,0,0,0,0,0,0,0,0,0,0,0,0-.05-.07-.1-.14-.15-.2-.78-.96-1.98,.27-1.57,1.21,1.45,3.39,3.36,6.55,5.63,9.42,3.64,8.79,4.03,18.94,1.11,28.01-1.06,3.29-2.59,6.39-4.5,9.26-3-.51-5.81-2.09-7.56-4.66-3.39-4.97-1.91-12.4,2.95-15.86,1.05-.75,.16-2.28-1.01-1.73-4.86,2.31-10.96-2.33-11.41-7.39,.4-1.15,.62-2.37,.62-3.61,0-.92-1.45-1.46-1.86-.5-.51,1.18-.73,2.4-.72,3.59-1.71,4.57-6.98,7.83-11.84,6.35-5.14-1.56-7.86-7.89-6.1-12.81,1.67,2.52,4.77,4.17,7.79,4.06,3.4-.13,6.1-2.54,6.93-5.79,.9-3.49-.24-7.54-3.4-9.5-.07-.04-.14-.05-.21-.08-.06-.05-.1-.1-.18-.14-3.16-1.6-6.92-.7-9.49,1.6-2.13,1.91-3.12,4.73-2.51,7.42-1.44,1.74-3.63,2.51-5.79,2.41,12.28-21.77,19.04-46.54,19.61-71.53,.16-7.11-.19-14.22-1.04-21.28-.15-1.26-2.15-1.28-2,0,2.98,24.8-.35,50.2-9.52,73.43-2.58,6.54-5.65,12.89-9.13,19-1.71-.57-3.22-1.73-4.04-3.45-.22-.46-.95-.65-1.37-.36-4.96,3.47-11.01,5-16.93,4.61-.04-.13-.11-.26-.21-.38-15.75-18.04-26.8-40.05-32-63.42-1.48-6.63-2.47-13.35-2.98-20.12-.1-1.28-2.1-1.29-2,0,1.83,24.3,9.86,48.03,23.12,68.48,3.42,5.28,7.22,10.32,11.3,15.11-1.31-.22-2.61-.55-3.88-.96-1.98-1.98-4.53-3.33-7.43-3.64-.06,0-.11,0-.17,.01-1.49-1.94-3.66-3.32-6.18-3.53-3.96-.24-7.4,2.62-8.84,6.15-1.44,3.52-.53,7.5,2.56,9.8,2.83,2.1,6.87,2.36,10.03,.9,3.43-1.59,4.98-5.27,4.37-8.9-.08-.44-.19-.88-.32-1.31,1.58,.93,3.24,1.69,4.96,2.29,2.69,3,3.94,7.46,2.95,11.34-1.62,6.33-8.49,8.38-14.21,6.43-3.3-1.12-6.08-3.58-7.08-6.98-.36-1.24-2.2-.72-1.93,.53,.73,3.42,.21,6.88-1.16,10-.03-.06-.05-.12-.09-.18-5.9-7.25-14.95-11.59-24.28-11.79-.94-6.07-1.88-12.14-2.81-18.21,4.22,.83,8.67-.46,11.79-3.48,.3-.29,.4-.85,.16-1.21-13.74-20.2-18.95-45.79-14.7-69.81,1.2-6.78,3.14-13.43,5.84-19.76,.34-.81-.45-2.01-1.37-1.37-10.39,7.28-17.32,18.91-18.93,31.43-4.05-14.69-4.07-30.35,.02-45.07,.2-.7-.5-1.48-1.23-1.23-11.35,3.87-20.41,13.14-24.41,24.4-4.07,11.44-2.01,24.23,4.77,34.22,3.35,4.93,7.75,9.11,12.91,12.06-4.95,1.34-9.9,2.68-14.85,4.02-.61,.17-.94,.92-.6,1.47,10.61,17.19,17.81,36.4,21.14,56.33,.94,5.66,1.56,11.36,1.87,17.09,.05,1.02,1.3,1.33,1.86,.5,1.32-1.93,2.64-3.86,3.96-5.78,.39,8.55,2.11,17.02,5.16,25.02,.38,1,.79,2,1.21,2.99,.5,1.17,1.19,2.33,1.61,3.53,.54,1.58-.57,3.85-1.4,5.17-2.03,3.25-5.8,5.41-9.68,4.96-4.34-.5-8.09-3.86-9.08-8.09-.13-.56-.59-.75-1.04-.69-.03,0-.06,0-.09,0-.02,0-.05,0-.07,.01-.44,.06-.82,.36-.77,.93,.64,7.09-1.19,14.13-.73,21.21-4.41,.88-8.83,1.75-13.24,2.63-4.47-9.94-6.89-20.76-7.12-31.66-.12-5.52,.3-11.05,1.3-16.48,.24-1.29,.51-2.57,.81-3.85,.29-1.21,.96-2.36,.01-3.36-1.62-1.72-3.21-3.46-4.7-5.3-11.8-14.58-18.16-33.36-18.38-52.05-.12-10.6,1.76-21.17,5.69-31.03,.32-.81-.78-1.6-1.47-1.13-11.14,7.55-14.58,21.19-13.98,33.99,.32,6.8,1.64,13.57,3.74,20.04,2.71,8.37,6.29,16.43,9.23,24.72,2.89,8.18,5.28,16.71,5.33,25.45,.02,4.48-.72,8.81-1.73,13.15-.96,4.12-2.03,8.26-2.33,12.49-.46,6.57,1.77,13.09,7.35,16.9,4.31,2.94,9.74,3.74,14.84,4.08,5.84,.4,11.71,.15,17.55,.53,5.35,.35,10.95,1.22,15.48,4.3,.85,.58,1.62,1.26,2.35,1.98,0,.22,.07,.44,.26,.64,1.29,1.39,2.58,2.78,3.87,4.17-13.87,.06-27.68,2.75-40.55,7.93-10.82-15.44-25.12-28.35-41.61-37.5-4.48-2.49-9.13-4.67-13.88-6.59,2.12-14.83,13.83-27.62,28.36-31.16,1.08-.26,.83-1.73-.06-1.93-.17-.13-.37-.23-.61-.24-.71-.05-1.42-.09-2.13-.14-.22-.19-.5-.3-.86-.21-15.26,3.47-29.39,11.53-40.22,22.81-3.03,3.16-5.78,6.57-8.26,10.17-.28,.41-.11,1.16,.36,1.37,24.42,10.71,47.01,25.5,66.56,43.65,5.47,5.07,10.69,10.41,15.66,15.97,.28,.31,.86,.39,1.21,.16,12.2-7.96,25.96-13.28,40.33-15.62,2.89,2.51,4.27,6.4,3.47,10.16-14.44,6.12-29.3,11.17-43.75,17.28-13.49-11.33-30.77-17.81-48.37-18.37-4.39-.14-8.78,.1-13.13,.71-4.51,.63-8.89,1.88-13.38,2.58-4.36,.68-9.18,.79-12.95-1.84-3.26-2.28-4.74-6.24-4.82-10.1-.23-10.62,8.94-17.61,16.67-23.27,1.02-.75,.15-2.36-1.01-1.73C7.84,214.04-.64,230.43,.04,246.43c.19,4.57,1.13,9.09,2.86,13.33,.25,.6,.85,.93,1.47,.6,11.8-6.36,25.27-9.14,38.63-8.6,13.35,.54,26.61,4.38,38.09,11.25,6.47,3.87,12.31,8.7,17.28,14.38,.41,.47,1.29,.35,1.57-.2,7.4-14.42,22.76-24.04,38.83-25.24,4.08-.3,8.17-.06,12.17,.75,.04,.07,.07,.14,.13,.21,4.53,4.85,6.23,11.84,4.57,18.23-12.14-3.23-24.28-6.46-36.42-9.69-.69-.18-1.19,.33-1.27,.96-1.96,16.58-10.53,32.09-23.4,42.7-.39,.32-.39,1.1,0,1.41,5.9,4.83,3.04,13.89,1.82,20.2-1.42,7.36-1.04,14.69,1.75,21.7,2.73,6.84,7.34,12.91,13.41,17.12,6.22,4.31,13.86,6.36,21.4,6.15,8.56-.24,16.94-3.3,23.44-8.91,.82-.71-.08-1.84-.97-1.67-13.62,2.57-28.21-3.86-36.31-14.94-2.18-2.98-3.88-6.28-5-9.8,11.37-10.68,17.91-26.11,18.07-41.68,.04-3.96-.37-7.91-1.16-11.78,13.31,3.07,27.23,2.98,40.51-.28,.48-.12,.69-.47,.71-.85,1.43-.99,2.86-1.98,4.29-2.97,.07-.05,.12-.12,.18-.18,1.27,.91,2.59,1.75,3.99,2.5,7.26,3.89,15.72,5.46,23.86,3.99,8.23-1.49,16.14-5.92,22.7-10.97,1.62-1.24,3.17-2.56,4.67-3.93,1.13,.8,2.62,.97,3.95,1.15,.78,.11,1.57,.2,2.34,.37,.33,.07,.65,.17,.97,.28,.03,.02,.24,.11,.28,.13,0,0,.02,.01,.03,.02,.95,7.03,5.07,13.02,10.82,17.09,6.23,4.42,13.79,6.15,21.34,5.4,4.39-.44,9.29-1.5,13.5,.38,3.13,1.39,5.09,4.17,5.92,7.43,1.8,7.09-.84,14.2-3.16,20.8-2.63,7.48-5.17,16.79-.22,23.74-11.43,4.73-21.42,12.42-28.89,22.3-.41,.54,.05,1.29,.6,1.47,8.84,2.88,17.93,5.8,27.33,5.69,7.17-.09,14.43-2.22,20.07-6.75,2.71-2.18,4.97-4.96,6.39-8.14,1.77-3.96,2.32-8.3,2.45-12.6,.15-4.76,0-9.54-.05-14.31l-.13-14.66c-.1-11.18-.2-22.36-.3-33.55,0-.5-.46-1.06-1-1-19.54,2.1-39.57-1.53-57.14-10.33-4.83-2.42-9.46-5.23-13.85-8.38,1.17-7.19,5.92-13.63,12.52-16.73,.02,.03,.03,.07,.06,.09,.46,.45,.91,.89,1.37,1.34,.04,.24,.19,.48,.46,.64,14.01,8.48,30.21,13.19,46.58,13.57,4.34,.1,8.66-.21,13-.2,4.61,.01,9.23,.09,13.84,.22,9.31,.27,18.61,.77,27.89,1.52,10.59,.85,21.15,2.01,31.68,3.48,1,.14,1.64-.86,.97-1.67-12.25-14.97-28.05-27.01-45.72-34.88-5-2.23-10.14-4.13-15.39-5.68-1.27-.38-1.69,1.46-.53,1.93,15.38,6.28,28.97,16.74,39.01,29.97-29.09-.87-58.01-5.92-85.66-15-7.87-2.58-15.64-5.49-23.27-8.72,.6-5.93,5.45-11.01,11.31-12,.24-.04,.39-.15,.51-.29,12.1,1.43,23.7,5.98,33.59,13.08,.29,.21,.72,.16,1.01,0,20.46-11.21,43.79-16.95,67.12-16.63,6.58,.09,13.14,.66,19.64,1.72,.51,.08,1.1-.13,1.23-.7,3.71-16.5-.08-34.36-9.83-48.14-2.76-3.91-5.98-7.47-9.62-10.58Zm-148.5-49.52c1.83-2.22,5.19-3.5,7.89-2.13,.08,.04,.15,.04,.22,.06,.05,.05,.09,.11,.17,.16,4.23,2.62,3.42,10.38-1.66,11.46-2.47,.53-5.23-.73-6.75-2.69-1.6-2.08-1.53-4.84,.13-6.86Zm-50.13,14.17c-2.27,1.45-5.38,1.51-7.77,.29-2.67-1.36-3.92-4.19-3.16-7.09,.85-3.24,3.81-6.03,7.3-5.83,5.72,.49,8.77,9.35,3.63,12.63Zm-6.13,153.03c-.06,.04-.1,.1-.15,.15-13.15,3.07-26.92,2.97-40.03-.31-.76-.19-1.41,.48-1.23,1.23,3.5,14.89,.34,30.99-8.1,43.7-2.39,3.61-5.22,6.9-8.41,9.83-.26,.23-.36,.64-.26,.97,4.22,14.11,17.31,24.73,31.76,26.9,2.78,.42,5.57,.52,8.36,.3-11.31,7.76-27.23,8.35-38.8,.77-6.07-3.97-10.76-10.01-13.37-16.76-1.31-3.39-2.15-6.98-2.38-10.61-.23-3.59,.24-7.06,.94-10.58,1.29-6.52,3.55-15.25-1.72-20.53,9.93-8.45,17.27-19.82,20.95-32.32,.95-3.23,1.62-6.52,2.07-9.86,12.1,3.22,24.2,6.44,36.3,9.66,.54,.14,1.07-.18,1.23-.7,2.16-6.85,.63-14.48-3.86-20.02,.34-.52,.25-1.33-.52-1.52-16.46-3.94-34.47,1.72-46.35,13.63-3.03,3.04-5.63,6.49-7.71,10.25-8.94-9.82-20.54-16.98-33.13-21.11-13.04-4.27-27.16-5.31-40.67-2.82-7.19,1.32-14.16,3.71-20.64,7.07-3.25-8.81-3.06-18.6-.02-27.43-.04,2.63,.44,5.25,1.61,7.62,1.8,3.67,5.27,6.17,9.24,7,4.45,.93,9.06,.09,13.43-.84,4.6-.98,9.15-1.95,13.86-2.3,9.43-.7,18.95,.38,28,3.08,10.11,3.03,19.6,8.1,27.62,14.97,.38,.32,.77,.34,1.21,.16,14.75-6.27,29.95-11.41,44.7-17.67,.04-.02,.08-.03,.11-.05,.39-.18,.52-.5,.49-.82,.76-3.19,.25-6.58-1.45-9.4-.41-.69-.9-1.34-1.44-1.94-.46-.51-1.21-1.4-1.9-1.6-.75-.21-1.94,.22-2.7,.36-1.01,.18-2.02,.37-3.02,.58-8.19,1.7-16.17,4.4-23.73,7.99-4.06,1.93-7.99,4.13-11.77,6.56-17.67-19.65-38.59-36.35-61.67-49.21-6.32-3.52-12.8-6.74-19.41-9.67,8.57-12.11,20.65-21.68,34.38-27.3,2.56-1.05,5.19-1.94,7.85-2.71-9.01,4.21-16.34,11.87-20.21,21.07-1.37,3.26-2.26,6.66-2.7,10.16-.06,.46,.36,.82,.73,.96,17.42,6.89,33.15,17.85,45.72,31.72,3.57,3.94,6.88,8.12,9.9,12.5,.23,.33,.71,.63,1.13,.46,13.61-5.58,28.24-8.35,42.95-8.1,.9,.02,1.28-1.09,.71-1.71-1.59-1.72-3.19-3.43-4.78-5.15,.01-.24-.06-.49-.26-.71-7.65-8.29-20.28-7.66-30.61-7.81-5.35-.08-10.89-.14-16.02-1.81-5.36-1.74-9.43-5.72-10.67-11.32-.93-4.17-.21-8.54,.67-12.65,.88-4.13,2.04-8.21,2.61-12.4,1.13-8.34-.14-16.76-2.43-24.8-4.35-15.28-12.39-29.46-14.76-45.29-1.84-12.29-.79-26.88,8.61-36.05,.34-.33,.7-.63,1.05-.94-3.81,10.9-5.22,22.6-4.31,34.12,.99,12.63,4.66,25.04,10.85,36.1,3.4,6.08,7.58,11.72,12.42,16.74-3.66,14.34-3.43,29.59,.65,43.82,1.17,4.08,2.67,8.05,4.44,11.91,.19,.42,.72,.54,1.13,.46,4.96-.99,9.93-1.97,14.89-2.96,.4-.08,.77-.55,.73-.96-.52-5.8,.6-11.57,.78-17.35,1.43,1.93,3.4,3.46,5.66,4.36,3.91,1.56,8.24,.87,11.55-1.69,1.6-1.23,2.93-2.85,3.8-4.68,.72-1.52,1.64-3.93,.94-5.57-1.11-2.58-2.33-5.08-3.29-7.72-.93-2.57-1.73-5.19-2.39-7.84-1.51-6.04-2.27-12.23-2.32-18.46,0-1.04-1.32-1.3-1.86-.5-1.35,1.98-2.71,3.96-4.06,5.93-1.41-19.43-6.43-38.53-14.75-56.14-2.3-4.87-4.87-9.61-7.66-14.22,5.34-1.45,10.68-2.89,16.02-4.34,.78-.21,1.03-1.44,.24-1.83-10.42-5.04-17.97-15.07-20.3-26.38-2.31-11.2,1.23-22.85,8.78-31.34,3.81-4.28,8.54-7.69,13.85-9.83-4.13,16.26-3.43,33.6,2.07,49.47,.36,1.03,1.96,.91,1.96-.27,.03-12.63,5.88-24.97,15.55-33.04-8.39,22.22-8.13,47.44,.52,69.56,2.45,6.26,5.54,12.24,9.27,17.83-2.96,2.48-7.01,3.28-10.71,2.07-.8-.26-1.34,.53-1.23,1.23l3.17,20.53c.07,.42,.56,.74,.96,.73,9.15-.06,17.94,4.14,23.71,11.22,.22,.27,.48,.35,.73,.33-3.6,6.47-10.96,11.05-18.42,9.82-.86-.14-1.84,.97-.97,1.67,7.31,5.94,1.77,20.2-7.65,19.59-.96-.06-1.19,1.09-.71,1.71,3.94,5.05,3.23,11.86-1.16,16.38-3.04,3.14-7.12,4.48-11.06,3.83-1.76-.92-3.59-1.69-5.48-2.29-1.14-.36-1.65,1.21-.77,1.83,1.73,1.23,3.65,2.04,5.62,2.41,5.86,3.17,10.71,8.08,14.62,13.46,5.36,7.37,8.89,15.69,12.53,23.98,3.73,8.48,7.52,16.98,12.46,24.84,3.57,5.67,7.65,11.07,12.83,15.23-1.63,1.13-3.26,2.26-4.89,3.38Zm61.56-13.11c-.71,.68-1.45,1.35-2.19,2-2.03-7.44-6.91-24.23-8.77-31.09-.34-1.24-2.27-.71-1.93,.53,1.91,7.07,7.03,24.67,8.94,31.74,.02,.08,.07,.14,.1,.21-5.24,4.33-11.11,7.91-17.49,10.3-4.34,1.63-8.82,2.37-13.29,2.23,6.23-12.4,12.98-11.45,15.36-9.14,.84,.82,2.07-.28,1.59-1.16,.16-.27,.22-.6,.07-.95-4.89-11.53-4.68-25.08,.3-36.55,4.84-11.15,14.24-19.84,25.56-24.19,6.3-2.42,13.04-3.48,19.77-3.02,.98,.38,1.78-1.17,.79-1.84-.28-.19-.7-.61-.87-.87-.3-.47-.4-.68-.53-1.23-.12-.48-.15-.78-.14-1.36,.02-.55,.06-.81,.22-1.39,.26-.92,.7-1.75,1.38-2.41,.63-.62,1.45-1,2.28-1.05,.76-.04,1.06-.75,.92-1.32,.34-.68-.19-1.72-1.12-1.44-12.39,3.75-26.21,.98-36.57-6.67-10.92-8.06-16.44-21.4-15.61-34.82,.47-7.58,2.99-14.95,7.42-21.13,.16-.23,.2-.45,.17-.66,.5-.94-.75-2.11-1.54-1.2-4.79,5.48-13.39,6.81-19.59,2.98-.9-.56-1.72,.5-1.39,1.27-.26,.28-.35,.68-.05,1.08,8.48,11.5,10.02,27.34,4.56,40.48-5.44,13.09-17.91,21.75-31.8,23.64-7.7,1.05-15.7,0-22.72-3.36-.29-.14-.57-.13-.81-.04-.76,.05-1.4,1.02-.69,1.69,3.32,3.11,3.72,8.83,.72,12.31-.36,.42-.29,.92-.04,1.28,.19,.38,.58,.66,1.11,.52,12.74-3.31,26.64-.79,37.63,6.39,11.13,7.28,18.29,19.36,20.04,32.48,.99,7.4,2.99,15.57-8.86,31.18-.08,.1-.11,.21-.12,.31-1.88-.2-3.74-.55-5.59-1.07,.01-.06,.04-.1,.05-.17,.88-11.86,1.77-32.79,2.65-44.65,.1-1.28-1.9-1.28-2,0-.87,11.72-1.75,32.29-2.62,44.21-.36-.12-.72-.25-1.08-.38-4.06-1.54-7.86-3.83-11.14-6.67-3.47-3.01-6.32-6.78-8.91-10.56-1.46-2.14-2.82-4.34-4.11-6.59,.12-.05,.23-.12,.33-.24,4.79-5.08,16.49-17.08,21.28-22.16,.88-.94-.53-2.35-1.41-1.41-4.76,5.05-16.35,16.93-21.18,22.06-2.87-5.19-5.37-10.6-7.78-16.01-.74-1.66-1.47-3.34-2.22-5.04,0,0,.01,0,.02,0,5.6-1.47,22.12-2.95,27.72-4.42,1.24-.33,.72-2.26-.53-1.93-5.6,1.47-22.13,2.95-27.72,4.42-.11,.03-.2,.09-.28,.14-5.53-12.44-11.84-25.27-23.26-32.91,1.96-.22,3.9-.86,5.69-1.93,3.81-2.28,6.67-6.22,7.46-10.59,8.99,1.41,26.32,2.66,35.16,4.08,1.26,.2,1.8-1.73,.53-1.93-8.92-1.43-26.5-2.69-35.42-4.12-.02,0-.04,0-.07,0,0-.12,.01-.23,.02-.35,.02-2.61-.78-5.05-2.11-7.23,7.12-.8,11.93-8.83,11.08-15.76,10.3,6.55,29.69,17.13,38.8,23.16,1.08,.71,2.08-1.02,1.01-1.73-9.65-6.39-30.82-17.87-40.52-24.28-.34-.87-.78-1.69-1.34-2.46,8.01,.03,15.4-5.37,18.66-12.54,5.06,7.11,15.9,20,20.2,26.35,.72,1.06,2.45,.06,1.73-1.01-4.56-6.74-16.49-20.85-21.06-27.59,.47-1.47,.78-2.99,.87-4.54,3.54,4.22,9.86,6.04,15.18,4.4,7.32-2.26,9.72-10.57,6.87-17.2-.27-.64-.6-1.25-.95-1.84,7.33,1.64,15.3,.4,21.67-3.71,2.46,3.75,7.88,4.94,11.84,3.02-.74,4.13,.79,8.65,3.99,11.44,2.47,2.15,5.53,2.88,8.48,2.45-4.97,9.24-9.95,26.4-14.92,34.98-.65,1.12,1.08,2.12,1.73,1.01,5.17-8.92,10.35-27.16,15.52-36.07,.11-.19,.13-.38,.12-.55,1.47-.55,2.86-1.38,4.07-2.48,.73-.66,1.36-1.41,1.91-2.22,1.52,4.1,5.67,7.33,10.05,7.32-2.57,3.23-3.63,7.57-2.77,11.69,.07,.34,.16,.68,.26,1.01-6.02,6.42-18.42,19.24-24.39,25.61-.88,.94,.53,2.36,1.41,1.41,5.79-6.18,17.61-18.4,23.81-24.99,1.88,3.65,5.55,6.16,9.66,6.89,.31,.26,.79,.36,1.18,.16,1.61,.15,3.21,.03,4.76-.38-1.57,2.89-2.06,6.27-1.51,9.5-8.9,3.54-25.67,11.38-34.17,14.7-1.19,.46-.67,2.4,.53,1.93,8.49-3.32,25.2-11.13,34.11-14.68,.43,1.4,1.07,2.74,1.91,3.96-.91,4.32,.34,8.75,3.5,11.96,2.93,2.97,7.13,4.61,11.28,4.29-7.43,6.87-13.2,15.32-18.25,24.16-.12-.02-.25-.02-.4,.02-6.92,1.69-27.5,6.9-34.42,8.6-1.25,.31-.72,2.23,.53,1.93,6.5-1.59,25.02-6.27,32.99-8.25-1.51,2.72-2.96,5.46-4.37,8.2-1.88,3.64-3.66,7.33-5.5,11-.04-.02-.07-.05-.12-.07-5.3-1.84-21.9-3.68-27.2-5.52-1.22-.42-1.74,1.51-.53,1.93,5.22,1.81,21.4,3.63,26.95,5.44-1.63,3.21-3.32,6.38-5.17,9.47-4.28,7.12-9.32,13.83-15.34,19.58Zm-84.19-67.38c12.53,4.78,27.15,3.17,38.54-3.91,12.76-7.92,19.72-22.38,19.17-37.27-.29-7.81-2.62-15.51-6.95-22.02,4.94,2.02,10.76,1.58,15.39-1.03-6.02,10.94-6.92,24.56-2.54,36.26,4.86,12.97,16.19,22.4,29.55,25.72,5.88,1.46,12.03,1.7,17.98,.63-1.55,1.9-2.16,4.67-1.32,6.99,.1,.29,.23,.57,.37,.83-11.89-.29-23.72,4.05-32.77,11.76-9.91,8.45-15.66,20.87-16.33,33.82-.34,6.64,.71,13.28,3.06,19.49-2.46-1.11-5.41-.9-7.74,.44,3.69-12.35,2.14-26.07-3.96-37.41-6.53-12.17-18.38-20.71-31.79-23.74-6.78-1.54-13.85-1.64-20.65-.23,1.63-3.2,1.62-7.15-.02-10.33Zm245.07,20.14c-23.12-3.58-47.07-1.18-69.01,6.95-6.06,2.25-11.96,4.93-17.64,8.01-10.26-7.25-22.26-11.75-34.75-13.13-.47-.05-.77,.19-.89,.52-6.71,1.36-11.97,7.49-12.4,14.31-.02,.25,.06,.43,.17,.58,.06,.21,.21,.4,.49,.52,27.68,11.73,57.01,19.36,86.9,22.56,8.46,.91,16.96,1.45,25.47,1.65,.71,.02,1.32-.88,.86-1.5-7.11-9.79-16.04-18.2-26.24-24.67,12.3,5.57,23.68,13.14,33.53,22.39,3.28,3.08,6.38,6.35,9.3,9.77-17.41-2.34-34.92-3.88-52.47-4.55-9.07-.34-18.13-.45-27.19-.2-8.22,.23-16.46-.67-24.44-2.63-8.9-2.19-17.43-5.7-25.29-10.4-.05-.11-.11-.21-.2-.3-.5-.49-1-.97-1.5-1.46,.19-.71-.3-1.56-1.14-1.22-7.8,3.17-13.68,10.39-14.97,18.75-.06,.4,.1,.72,.35,.94-.06,.36,.05,.75,.42,1.02,16.11,11.61,35.54,18.39,55.36,19.53,5.28,.3,10.57,.17,15.83-.34,.17,18.52,.33,37.05,.5,55.57,.07,8.05,0,16.65-5.82,22.91-4.75,5.1-11.78,7.8-18.63,8.34-9.55,.75-18.9-2.13-27.89-5.05,7.34-9.31,17.17-16.6,28.22-20.9,.72-.28,.96-1.07,.44-1.67-5.46-6.3-2.7-15.58-.26-22.57,2.29-6.57,4.68-13.18,3.67-20.27-.44-3.05-1.6-6.05-3.82-8.25-2.78-2.75-6.62-3.7-10.44-3.65-4.26,.05-8.46,1.07-12.74,.84-3.7-.2-7.39-1.17-10.73-2.77-7.32-3.51-13.32-10.18-14.23-18.47,0,0,0-.02,0-.03,0-.25-.09-.51-.28-.68-1.16-1.03-2.82-1.21-4.3-1.41-.78-.11-1.57-.2-2.34-.37-.33-.07-.65-.17-.97-.28-.01,0-.05-.02-.09-.04,4.02-3.89,7.63-8.2,10.86-12.77,2.42-3.42,4.63-6.98,6.67-10.65,2.01-3.62,3.7-7.38,5.59-11.06,7.91-15.39,15.65-31.71,29.04-43.2,.44-.38,.9-.73,1.35-1.09,1.56-.75,2.96-1.82,4.14-3.1,.74-.8-.23-2.24-1.21-1.57-1.27,.87-2.49,1.79-3.68,2.74-3.36,1.62-7.34,1.47-10.8-.53-4.34-2.51-6.58-7.2-5.68-12.01,.18-.25,.27-.57,.2-.88,.04-.17,.08-.33,.13-.5,.26-.83-.52-1.32-1.18-1.19-2.76-4.68-2.16-11.11,1.67-15.04,.78-.8-.22-2.17-1.21-1.57-1.73,1.04-3.72,1.55-5.72,1.58,6.18-9.86,7.72-22.36,4.59-33.53,5.05,5.02,11.33,8.81,18.21,10.83,.58,.17,1.33-.31,1.27-.96-2-21.81-4.88-43.68-11.23-64.7-.54-1.77-1.1-3.54-1.69-5.29,4.03,5.17,9.22,9.42,15.2,12.26,.89,.42,1.86-.44,1.37-1.37-8.67-16.2-13.05-34.58-12.69-52.95,.02-1.19,.07-2.38,.14-3.56,1.78,13.02,7.02,25.5,15.19,35.89,.52,.66,1.42,.16,1.67-.44,5.28-12.73,7.53-26.58,6.68-40.28,3.37,13.11,5.34,26.57,5.99,40.11,.88,18.09-.53,36.28-3.95,54.05-1.93,10.01-4.49,19.88-7.65,29.57-.31,.97,.99,1.66,1.67,.97,.99-.99,1.97-1.99,2.96-2.98-2.54,11.11-4.48,22.38-8.02,33.24-4.88,2-9.94,4.53-15.26,4.85-.22,.01-.4,.1-.54,.21-.58,.16-1.03,.77-.63,1.43,6.52,10.7,21.14,12.45,32.18,8.8,14.79-4.89,25.11-17.47,38.16-25.33,7.66-4.61,16.62-7.95,25.67-6.3,.51,.09,1.1-.13,1.23-.7,2.66-11.93,1-24.62-4.53-35.47,7.23,8.58,11.78,19.37,12.8,30.57,.32,3.51,.28,7.05-.09,10.55-20.61,1.9-40.35,10.91-55.41,25.1-4.15,3.91-7.91,8.22-11.26,12.84-9.7,.03-19.39,.07-29.09,.1-.06,0-.1,.02-.15,.03-.12-.05-.25-.09-.39-.08-.25,.01-.54,.09-.71,.29-.5,.61-.99,1.22-1.49,1.83-.1,.09-.17,.2-.21,.32-.03,.06-.03,.12-.04,.18-1.7,2.17-3.41,4.34-5.11,6.51-2.53,2.37-3.49,6.16-2.31,9.45,.11,.31,.35,.64,.7,.7,10.61,1.85,20.53,6.69,28.47,13.97,.32,.29,.83,.4,1.21,.16,17.53-11.44,38.2-17.84,59.12-18.38,5.94-.15,11.89,.17,17.78,.95,.42,.06,.86-.35,.96-.73,3.5-13.21,1.81-27.57-4.45-39.65,8.54,10.16,13.49,23.26,13.84,36.57,.11,4.32-.29,8.63-1.17,12.85Z"/>
</g></g>
</svg>