<svg id="Calque_2" xmlns="http://www.w3.org/2000/svg" viewBox="0 0 594.76 402.69">
<g id="Calque_5"><g>
<path class="cls-1" d="M160.75,135.55c5.96-5.7,11.16-12.14,15.49-19.15,7.7-12.47,12.69-26.62,14.61-41.16,1.91-14.47,.77-29.3-3.65-43.22-1.79,.74-3.75,1.14-5.83,1.09-2.23-.05-4.46-.57-6.55-1.45-.03,.02-.05,.05-.09,.07-7.3,4.73-13.69,10.87-18.73,17.96-9.13,12.83-13.89,28.44-12.99,44.19,.89,15.53,7.06,30.68,17.32,42.37,.06-.24,.19-.48,.41-.69Z"/>
<path class="cls-1" d="M315.58,80.41c.91,0,1.83,0,2.74,.02,4.06-.96,7.98-2.4,11.7-4.31,15.19-7.84,26.47-22.8,29.12-39.77,.07-.44,.28-.73,.55-.9,.03-.07,.07-.14,.1-.21,.01-.04,.02-.08,.03-.12,.05-.2,.15-.38,.28-.53,.03-.06,.06-.13,.09-.19,0,0,0-.02,0-.02,.04-.16,.12-.3,.21-.43,.11-.23,.21-.45,.32-.68,0,0,0-.01,.01-.02-.54-1.32-.9-2.66-1.07-4-12.92-.31-25.87-.57-38.78,.36-21.1,1.52-42.56,6.54-59.5,19.83-14.14,11.09-24.95,27.4-25.17,45.79,11.93-4.19,24.17-7.53,36.56-10.08,14.14-2.91,28.36-4.73,42.81-4.74Z"/>
<path class="cls-1" d="M183.45,30.01c10.95-1.61,14.21-18,5.71-24.5-.39-.3-.58-.69-.62-1.09-.36,.14-.79,.14-1.22-.09-5.65-2.99-12.75-.74-16.93,3.73-3.93,4.2-4.59,10.17-1.44,15.02,3.01,4.63,8.95,7.74,14.5,6.93Z"/>
<path class="cls-1" d="M100.51,134.11c1.1-.19,2.18-.5,3.21-.98,10.02-4.68,8.66-21.34-1.31-25.31-.27-.11-.47-.27-.63-.46-.23,.06-.48,.07-.77,0-6.88-1.82-14.15,2.94-16.72,9.29-2.21,5.47-.15,11.2,4.54,14.7,5.44,4.06,11.46,2.52,11.68,2.77Z"/>
<path class="cls-1" d="M99.31,137.25c-2.61,.18-5.27-.24-7.74-1.14-.02,.02-.03,.04-.05,.05-5.67,4.73-10.08,10.89-12.76,17.77-4.74,12.14-4.22,25.88,2.23,37.3,5.79,10.26,15.59,18.07,26.91,21.27,.03-.1,.07-.2,.12-.3,2.86-5.37,4.9-11.14,6.11-17.1,4.11-20.17-1.25-42.27-14.81-57.84Z"/>
<path class="cls-1" d="M170.46,381.02c-1.91,6.64,.95,13.18,6.98,16.45,5.35,2.9,12.46,3.11,17.71-.14,11.75-7.28,5.78-26.97-6.94-29.13,0,0-.02,0-.02,0-8.12-1-15.54,5.23-17.73,12.82Z"/>
<path class="cls-1" d="M350.87,375.37c5.49,1.93,12.09,.65,16.57-3.04,5.19-4.27,6.36-11.2,3.23-17.1-3.18-6-10.06-10.52-17-9.03-.26,.06-.49,.04-.71,0-.16,.15-.35,.28-.61,.36-5.98,1.94-9.59,7.99-10.12,14.04,.12,.37,.12,.77-.06,1.13,0,.03,0,.07,0,.1-.1,5.87,2.96,11.53,8.69,13.54Z"/>
<path class="cls-1" d="M159.66,312.94c-2.06-.49-4.09-1.09-6.09-1.79-.06,.04-.12,.08-.19,.12-6.23,3.07-11.35,7.99-14.87,13.97-6.26,10.64-7.07,23.93-.98,34.83,5.97,10.69,17.42,18.3,29.74,18.89,.26,.01,.48,.08,.67,.18,.19-.56,.4-1.12,.64-1.67,.29-.65,.62-1.29,.98-1.91-.07-.27-.1-.54-.03-.81,.2-.75,.39-1.5,.59-2.26,.1-.37,.35-.66,.66-.87,.03-.15,.08-.3,.17-.46,2.38-4.11,4.02-8.58,4.92-13.24,3.16-16.34-2.9-34.7-16.2-45Z"/>
<path class="cls-1" d="M24.19,233.62s-.02-.01-.04-.02c-.02,0-.05-.01-.07-.02-7.32-2.77-15.61,1.4-19.32,7.96-3.3,5.82-1.92,12.59,3.06,16.94,4.45,3.89,11.26,5.58,16.87,3.39,11.86-4.64,10.41-23.45-.49-28.24Z"/>
<path class="cls-1" d="M381.54,42.5c13.23-1.99,15.81-22.02,5.07-28.79,0,0,0,0-.02-.01,0,0-.01,0-.02,0-6.33-3.79-14.62-1.62-19.66,3.37-4.78,4.73-5.87,11.69-2.19,17.43,3.46,5.4,10.38,8.98,16.81,8.02Z"/>
<path class="cls-1" d="M525.89,63.67c13.58,.75,20.66-18.36,11.61-27.67-.07-.07-.13-.15-.18-.22-.08-.05-.15-.1-.23-.17-5.23-4.85-13.43-4.71-19.43-1.39-5.91,3.27-9.31,9.65-7.45,16.35,1.89,6.83,8.47,12.71,15.67,13.11Z"/>
<path class="cls-1" d="M484.31,315.91c1.02,3.23,3.1,6.15,6.08,8.27,5.46,3.89,13.25,5.38,19.45,2.39,12.91-6.22,10.83-27.7-2.2-32.56-.18-.07-.33-.16-.46-.27-.16,0-.33,0-.52-.06-8.82-2.58-18.23,3.35-21.75,11.43-1.34,3.09-1.62,6.32-.99,9.34,.34,.39,.51,.94,.38,1.45Z"/>
<path class="cls-1" d="M386.29,99.1c.14-.04,.28-.07,.43-.08,.46-.02,.92-.05,1.38-.07,.21-.12,.47-.19,.78-.17,11.43,.72,22.87,1.42,34.32,1.33,18.37-.15,37.06-2.45,53.87-10.26,14.22-6.61,26.9-16.88,34.3-30.88-.03-.04-.06-.07-.09-.11,0,0-.02,.01-.02,.02-.33,.19-.79,.26-1.16,.15-.32-.1-.65-.19-.97-.29-.31,.25-.74,.35-1.26,.16-13.35-5.06-26.77-10.1-40.64-13.58-12.19-3.06-24.74-4.87-37.33-4.17-9.73,.54-19.32,2.89-28.15,7.05-16.64,7.84-31.26,22.41-33.68,41.33-.01,.09-.03,.17-.06,.24,3.51,1.41,6.95,2.99,10.3,4.73,2.72,1.42,5.38,2.95,7.97,4.59Z"/>
<path class="cls-1" d="M107.73,249.24c-4.41-2.9-9.17-5.25-14.18-6.93-19.05-6.42-40.91-3.9-57.62,7.41-.02,.28-.03,.57-.06,.85-.16,1.45-.5,2.87-.97,4.22,.29,.1,.54,.32,.72,.69,2.86,6.09,6.91,11.52,11.91,16.03,8.91,8.05,20.56,12.83,32.59,12.96,12.36,.14,24.68-4.3,33.98-12.45-3.08-7.11-5.2-14.61-6.28-22.1-.03-.22-.06-.45-.09-.67Z"/>
<path class="cls-1" d="M549.68,284.73c5.06,6.02,13.69,9.58,21.48,7.64,16.08-4,17.29-28.77,3.48-36.3-.06-.03-.1-.07-.15-.1-.06-.02-.11-.04-.17-.06-8.5-4.26-19.05-.26-24.72,6.81-5.24,6.54-5.36,15.54,.07,22.01Z"/>
<path class="cls-1" d="M401.13,117.79c-.99-1.44-2.05-2.83-3.18-4.17-1.04-1.23-2.2-2.2-3.36-3.3-1.17-1.12-2.08-2.46-3.15-3.67-1.12-1.26-2.45-2.19-3.84-3.12-3.05-2.05-6.19-3.95-9.43-5.69-12.47-6.72-26.15-10.89-40.14-12.91-6.44-.93-12.91-1.4-19.39-1.51-.46,.1-.92,.23-1.38,.32-.54,.11-.99-.06-1.31-.35-20.84-.02-41.69,3.77-61.73,9.32-26.6,7.38-51.94,18.87-74.6,34.67-2.89,2.02-5.74,4.1-8.55,6.25-2.87,2.2-5.49,4.57-8.19,6.96-2.7,2.39-5.55,4.6-8.37,6.84-3.22,2.56-6,5.73-8.91,8.64-.63,.63-1.4,1.21-1.79,2.03-.3,.64-.44,1.36-.74,2.01-.61,1.32-1.77,2.29-2.74,3.34-2.37,2.57-4.63,5.22-6.78,7.97-4.19,5.35-7.94,11.07-11.17,17.05-9.78,18.1-14.34,38.91-11.8,59.15,.39,.47,.41,1.07,.21,1.57,.8,5.51,2.12,10.97,4.02,16.32,3.94,11.06,10.16,21.43,18.63,29.61,7.59,7.32,16.88,12.5,27.08,14.93,.09,0,.17,.03,.25,.06,1.09,.25,2.19,.49,3.3,.68,.47,.08,.78,.32,.94,.63,2.7,.47,5.4,.95,8.11,1.42,.15,.03,.29,.09,.41,.17,5.89,.53,11.79,.87,17.7,.99-6.96-.99-13.77-2.84-20.2-5.69-8.26-3.66-15.75-8.9-21.57-15.61-6.45-7.43-10.58-16.54-12.53-26.03-4.16-20.18,1.55-40.96,11.9-58.82,10.5-18.13,25.54-33.93,41.74-47.58,17.14-14.44,36.41-26.21,56.99-35.54,10.53-4.78,21.47-8.92,32.83-11.38,10.23-2.21,21.15-3.18,31.43-1.12,8.59,1.73,16.63,5.47,23.22,10.98,6.95,5.81,12.1,13.24,15.52,21.43,4.1,9.85,5.8,20.57,5.26,31.21-.53,10.43-3.4,20.64-7.61,30.3-8.45,19.38-22,36.25-35.75,52.48-.03,.21-.11,.41-.25,.58-1.86,2.06-3.73,4.12-5.59,6.18-.05,.27-.2,.54-.48,.77-4.23,3.48-8.48,6.94-12.79,10.33-17.73,13.93-37.03,27.06-59.05,33.76-2.19,.67-4.41,1.25-6.66,1.78,17.61-2.27,34.96-6.46,51.67-12.57,25.95-9.49,50.23-23.71,71.52-41.3,19.07-15.76,35.61-34.75,46.64-57.02,5.72-11.54,9.99-24,12.52-36.64,2.55-12.75,1.39-26.43-4.08-38.29-1.36-2.94-2.96-5.77-4.79-8.44Z"/>
<path class="cls-1" d="M395.91,210.46c-1.09,1.92-2.21,3.82-3.38,5.68-1.34,2.13-2.74,4.22-4.18,6.28,.37-.03,.75,.09,1.1,.41,8.99,8.43,18.75,16,29.14,22.63,18.49,11.8,38.85,20.6,60.09,26.06,20.96,5.39,42.72,7.47,64.31,6-1.05-5.55,.42-11.28,3.8-15.95-5.48-10.57-12.59-20.23-21.04-28.62-15.81-15.7-36.02-26.72-57.89-31.12-23.94-4.82-49.44-1.85-71.57,8.52-.12,.06-.25,.09-.37,.12Z"/>
<path class="cls-1" d="M458.66,114.69c-18.65,10.02-34.15,25.63-43.81,44.49-.29,.57-.76,.78-1.24,.75-.43,3.51-1.09,6.99-1.91,10.46,.07,.01,.13,.02,.2,.04,11.15,3.11,22.65,4.83,34.22,5.16,20.57,.59,41.19-3.1,60.35-10.6,19.2-7.51,36.86-18.98,51.28-33.73,0,0,0,0,0,0-1.45-4.59-.89-9.73,1.64-14.21,.06-.1,.12-.2,.18-.3-11.01-6.41-23.16-10.71-35.73-12.76-22.22-3.63-45.34,.05-65.19,10.71Z"/>
<path class="cls-1" d="M208.65,318.64c-.22,.04-.46,.04-.64-.03-.96-.38-1.92-.77-2.89-1.15-.25-.07-.47-.2-.66-.39-.04-.05-.08-.1-.11-.15-2.34,.08-4.69,.11-7.03,.12,4.64,10.22,11,19.6,18.78,27.69,15.1,15.69,35.09,26.28,56.68,29.39,22.24,3.2,45.49-1.42,64.82-12.86-2.14-8.31-7.23-15.31-13.96-20.61-13.79-10.85-31.83-14.36-48.95-14.96-21.96-.76-44.93,1.63-65.76-6.9-.1-.04-.19-.09-.28-.15Z"/>
<path class="cls-1" d="M581.69,110.09c-.39-.14-.65-.39-.81-.68-.29,.16-.64,.22-1.04,.13-8.1-1.82-16.43,4.15-19.06,11.68-2.28,6.54,.27,13.25,6.05,16.93,5.05,3.22,12,4.2,17.45,1.36,11.42-5.96,9.14-25.13-2.58-29.43Z"/>
<path class="cls-1" d="M171.33,247.1c19.12-3.62,37.57-10.81,54.03-20.95,16.11-9.92,30.3-22.67,41.44-37.6-5.73-3.52-11.83-6.44-18.23-8.72-12.07-4.3-25.01-6.33-37.95-6.08-12.92,.26-25.83,2.9-37.74,7.87-.32,.13-.61,.15-.88,.09-11.05,11.88-20.68,25.07-26.93,39.8-3.78,8.92-6.14,18.57-6.58,28.21,.04,0,.08,0,.12,0,10.95,.33,21.93-.57,32.72-2.62Z"/>
<path class="cls-1" d="M246.11,232.16c12.13-14.39,27.25-26.45,44.45-34.87,.73-.36,1.51,.03,1.87,.64,3.08,5.31,5.44,10.96,7.1,16.84,5.52,19.49,2.99,41.05-7.12,59,3.84-3.03,7.63-6.12,11.4-9.22,.04-.12,.1-.23,.19-.33,1.7-1.88,3.4-3.76,5.11-5.64,.04-.18,.13-.37,.29-.55,3.65-4.3,7.27-8.62,10.78-13.01,2.45-3.06,4.86-6.17,7.2-9.33,0-.05,0-.1,0-.15,.05-.78,.09-1.56,.14-2.34,.02-.28,.17-.54,.36-.76,1.61-11.25,.93-22.67-1.88-33.63-4.93-19.26-16.51-36.58-32.92-48.58-15.43-11.29-34.48-17.86-54.04-18.4-.02,0-.03,0-.05,0-1.79,.9-3.57,1.81-5.33,2.74-19.34,10.2-37.07,23.09-52.68,38.07-1.67,1.6-3.32,3.24-4.95,4.89,5.59-2.04,11.36-3.62,17.23-4.69,13.15-2.4,26.78-2.36,39.85,.08,13.03,2.43,25.49,7.18,36.52,14.18,.64,.41,.74,1.29,.32,1.88-6.42,8.81-13.91,16.91-22.21,24.14-14.8,12.89-32.23,23.05-50.9,29.8-18.67,6.75-38.57,10.11-58.42,9.53-.07,9.32,1.7,18.57,5.77,27.1,7.63,15.96,23.21,26.46,40.8,30.59,9.76,2.29,19.78,2.65,29.68,1.51,.32-10.34,2.04-20.63,4.98-30.62,5.22-17.72,14.35-34.45,26.46-48.82Z"/>
<path class="cls-1" d="M333,275.16c-3.15,2.12-6.34,4.17-9.58,6.15,.53-.07,1.09,.1,1.47,.65,7.14,10.23,15.98,19.29,26,26.71,18.14,13.45,39.98,21.66,62.56,22.93,23.51,1.32,47.27-4.5,67.43-16.66-.06-.31-.13-.62-.17-.94-.24-1.75-.21-3.51,.06-5.23-.09-.06-.17-.14-.25-.23-7.82-8.62-16.85-16.08-26.75-22.21-17.68-10.94-37.95-17.69-58.63-19.7-20.71-2.01-41.82,.69-61.14,8.52-.39,.16-.73,.14-1.01,0Z"/>
<path class="cls-1" d="M350.24,192.35c5.46-19.14,3.43-41.31-8.39-57.75-4.77-6.64-11.17-12.2-18.73-15.79-8.16-3.87-17.14-5.27-26.25-4.91-11.23,.44-22.3,3.24-32.82,7.03-6.83,2.46-13.53,5.32-20.08,8.45,9.71,.73,19.27,2.9,28.27,6.38,18.96,7.33,35.16,20.3,45.67,37.08,10.76,17.18,15.43,37.85,13.02,57.92,8.32-11.89,15.37-24.58,19.32-38.4Z"/>
<path class="cls-1" d="M287.42,277.65c-.14-.36-.14-.78,.14-1.2,3.34-5.11,5.99-10.59,7.95-16.3,6.74-19.66,5.07-41.71-4.96-59.81-9.05,4.54-17.51,10.11-25.23,16.54-14.28,11.9-26,26.65-34.25,42.94-8.15,16.09-12.92,33.64-13.57,51.42,11.1-1.6,21.98-5.06,32.07-9.78,13.62-6.37,26.02-14.75,37.85-23.81Z"/>
<path d="M582.49,107.2c-.39-.14-.72-.11-1,.01-.17-.26-.45-.47-.85-.56-7.36-1.65-14.8,1.85-19.35,7.61-20.36-11.91-44.7-16.8-68.09-13.75-22.13,2.89-42.85,12.94-59.09,28.2-7.9,7.43-14.68,16.06-19.99,25.52,.2-4.11,.05-8.26-.55-12.45-.95-6.58-2.96-13-5.96-18.94-1.5-2.97-3.26-5.81-5.26-8.47-.97-1.3-1.99-2.56-3.06-3.77-1.18-1.34-2.63-2.34-3.79-3.71-.95-1.12-1.8-2.33-2.87-3.34-.64-.61-1.35-1.15-2.08-1.66,20.11,1.25,40.43,2.35,60.4-1.03,16.72-2.83,33.02-9.18,46.2-20.02,6.62-5.44,12.26-12.07,16.38-19.59,2.54,2.32,5.6,4.06,8.9,4.89,7.9,1.99,15.6-1.97,19.41-9,3.96-7.31,3.78-17.1-2.22-23.27-.07-.07-.14-.13-.22-.18-.06-.07-.11-.14-.19-.21-11.35-10.53-33.93-1.76-32.47,14.6,.24,2.64,1.06,5.19,2.32,7.51-.27-.08-.53-.16-.8-.24-.33-.1-.73-.05-1.05,.1-23.7-8.98-48.34-18.01-74.05-17.44-20.12,.45-40.53,8.08-54.41,23.03-7.16,7.72-12.05,17.2-13.57,27.64-2.29-.85-4.6-1.64-6.93-2.36-10.15-3.1-20.67-4.84-31.25-5.55,13.37-5.47,24.57-16.22,30.63-29.33,1.76-3.81,3.09-7.79,3.94-11.9,.17-.18,.31-.38,.37-.63l.29-1.17c.12-.15,.22-.33,.27-.52,.04-.16,.09-.33,.13-.49,3.71,5.31,10.17,8.81,16.61,8.89,7.81,.1,14.12-5.3,16.22-12.66,2.26-7.91-.16-17.32-7.35-21.86,0,0-.01,0-.02,0,0,0,0,0-.02-.01-6.73-4.03-15.34-2.49-21.35,2.15-4.21,3.25-6.87,7.99-7.18,13-23.49-.56-47.58-1.02-70.32,5.79-18.97,5.68-36.51,17.17-47.17,34.15-5.61,8.94-8.92,19.25-8.87,29.84,0,.1,.01,.19,.03,.27-13.72,5.01-27.02,11.15-39.65,18.56-6.15,3.61-12.13,7.5-17.93,11.65-2.47,1.77-4.89,3.6-7.3,5.46,8.25-9.28,14.7-20.09,19.18-31.69,5.41-14.03,7.89-29.27,7.06-44.3-.46-8.48-1.98-16.91-4.57-25-.05-.16-.12-.29-.2-.41,2.81-1.93,4.96-4.82,6.12-8.22,2.34-6.86,.6-14.96-5.27-19.45-.39-.3-.78-.35-1.12-.24-.07-.36-.29-.71-.73-.94-6.14-3.24-13.54-1.69-18.79,2.55-5.43,4.4-7.72,11.65-4.84,18.16,1.38,3.11,3.76,5.75,6.64,7.63-12.95,8.83-22.82,21.83-28,36.63-5.54,15.84-5.11,33.39,.82,49.07,3.33,8.82,8.3,16.95,14.7,23.87-.29,.25-.57,.5-.86,.75-2.88,2.4-6.03,4.55-8.68,7.2l-4.5,4.5c-1.28,1.28-3.02,2.57-3.93,4.15-.67,1.15-.76,2.47-1.68,3.48-1.26,1.38-2.55,2.73-3.78,4.14-2.27,2.6-4.44,5.28-6.51,8.05-4.45,5.95-8.35,12.31-11.6,18.95,1.87-14.26-.6-29.12-7.12-42-2.2-4.35-4.88-8.44-7.97-12.19,0,0,0,0,.01,0,6.51-1.85,10.48-7.78,10.82-14.37,.37-7.25-3.48-14.62-10.37-17.36-.27-.11-.51-.13-.73-.09-.17-.16-.38-.3-.66-.37-7.42-1.96-15.12,2.17-19,8.51-3.76,6.15-3.11,13.92,2.1,19.01,1.1,1.07,2.35,2,3.7,2.76-10.17,8.92-16.05,22.38-16.05,35.88,0,13.73,6.52,26.79,17.04,35.52,5.66,4.69,12.32,8.11,19.49,9.75-2.07,9.64-2.75,19.56-1.8,29.52-17.08-10.34-38.85-12.35-57.69-5.86-4.81,1.66-9.43,3.86-13.72,6.59-.67-6.34-4.21-12.5-10.17-15.11-.14-.06-.29-.1-.43-.12-.12-.09-.25-.17-.4-.23-7.6-2.88-16.24,.73-21.06,6.9-4.9,6.28-5.24,14.71-.12,20.95,4.52,5.51,12.35,8.29,19.33,6.91,4.63-.92,8.23-3.78,10.44-7.58,5.39,10.9,14.67,19.82,25.72,24.86,11.92,5.44,25.53,6.14,38,2.14,6.66-2.13,12.85-5.55,18.19-10.05,6.73,14.11,17.33,26.37,31.28,33.39,1.07,.54,2.16,1.03,3.26,1.51-10.86,6.23-18.08,17.95-19.41,30.35-1.45,13.53,5.13,26.48,15.97,34.42,6.03,4.42,13.26,7.09,20.73,7.46-1.09,6.17,.98,12.46,6.26,16.5,5.77,4.41,14.1,5.5,20.79,2.67,7.13-3.01,10.93-10.36,10.07-17.94-.95-8.28-6.74-16.43-15.33-17.88-.14-.02-.28-.02-.41-.01-.12-.04-.24-.08-.38-.1-4.61-.58-9.07,.94-12.7,3.64,6.83-15.07,5.02-33.57-4.04-47.38-1.61-2.45-3.44-4.71-5.46-6.79,1.19,.2,2.38,.41,3.58,.61,.24,.25,.56,.43,.97,.47,7.8,.79,15.64,1.22,23.48,1.28,8.65,19.96,23.98,36.85,42.79,47.72,20.27,11.72,44.18,15.71,67.23,11.87,12.4-2.07,24.41-6.42,35.21-12.85,.41,5.46,3.05,10.61,8.37,13.43,6.21,3.29,14.21,2.46,20.01-1.34,6.51-4.27,9.48-12.1,6.77-19.53-3.13-8.59-12.28-15.02-21.54-13.03-.26,.06-.46,.16-.62,.29-.21-.03-.44-.02-.69,.06-6.33,2.05-10.5,7.81-11.86,14.11-4.96-14.71-18.6-24.34-32.89-29.52-8.22-2.98-16.89-4.64-25.61-5.24-11.44-.79-22.91-.37-34.36-.68-12-.32-24.06-1.5-35.35-5.76,16.69-1.01,33.28-3.69,49.44-8.1,21.63-5.9,42.18-14.91,61.3-26.45-.26,.4-.3,.91,.07,1.44,13.05,18.7,31.42,33.39,52.43,42.2,22.26,9.34,47.06,11.45,70.65,6.45,12.79-2.71,25.12-7.53,36.36-14.21,.97,2.48,2.48,4.74,4.4,6.62,5.66,5.53,14.54,8.02,22.2,5.79,7.99-2.33,12.82-9.65,13.17-17.77,.38-8.96-4.45-18.21-13.09-21.43-.18-.07-.35-.09-.51-.09-.13-.1-.29-.18-.47-.23-9.1-2.66-18.73,2.36-23.65,10.06-.9,1.4-1.63,2.91-2.17,4.48-14.15-15.22-32.05-26.67-51.54-33.8-19.82-7.25-41.37-10.05-62.37-7.82-8.96,.95-17.8,2.79-26.36,5.57,17.28-12.64,33.08-27.48,45.58-44.88,.07,.19,.2,.37,.37,.53,16.23,15.22,34.98,27.7,55.22,36.94,20.2,9.22,41.78,15.25,63.84,17.78,12.41,1.42,24.94,1.7,37.4,.8,.4,1.09,.9,2.16,1.51,3.21,4.58,7.8,14.06,12.84,23.1,12.15,9.3-.71,16.35-7.61,18.24-16.6,2.02-9.64-1.47-20.84-10.47-25.74-.06-.03-.11-.05-.16-.07-.05-.03-.09-.07-.15-.1-8.78-4.4-19.4-1.54-26.28,5.03-.25,.23-.47,.48-.71,.73-10.15-19.11-25.69-35.26-44.3-46.3-20.76-12.32-45.14-17.77-69.19-15.8-12.79,1.05-25.34,4.15-37.12,9.2,4.25-8.04,7.79-16.45,10.5-25.12,.81-2.59,1.56-5.18,2.24-7.79,.04,.01,.07,.03,.12,.05,20.28,5.66,41.67,6.69,62.47,3.57,20.77-3.12,40.95-10.46,58.81-21.52,9.66-5.99,18.64-13.09,26.65-21.15,.88,1.6,2.03,3.09,3.47,4.4,5.39,4.88,13.6,6.93,20.57,4.62,7.23-2.39,11.51-9.17,11.67-16.64,.17-8.19-4.37-16.51-12.27-19.41ZM366.92,17.06c5.04-4.98,13.33-7.16,19.66-3.37,0,0,.01,0,.02,0,0,0,0,0,.02,.01,10.74,6.77,8.16,26.8-5.07,28.79-6.43,.97-13.36-2.62-16.81-8.02-3.67-5.74-2.58-12.7,2.19-17.43ZM24.69,261.86c-5.61,2.19-12.41,.51-16.87-3.39-4.97-4.35-6.36-11.11-3.06-16.94,3.72-6.56,12-10.73,19.32-7.96,.03,0,.05,.01,.07,.02,.01,0,.02,.01,.04,.02,10.9,4.79,12.35,23.6,.49,28.24Zm317.5,99.86c.17-.36,.18-.76,.06-1.13,.53-6.06,4.15-12.11,10.12-14.04,.25-.08,.45-.21,.61-.36,.21,.05,.45,.06,.71,0,6.94-1.49,13.82,3.03,17,9.03,3.13,5.9,1.95,12.83-3.23,17.1-4.49,3.69-11.08,4.97-16.57,3.04-5.73-2.02-8.79-7.67-8.69-13.54,0-.03,0-.07,0-.1Zm142.73-56.6c3.52-8.08,12.93-14.01,21.75-11.43,.19,.05,.36,.07,.52,.06,.13,.11,.28,.2,.46,.27,13.03,4.86,15.11,26.34,2.2,32.56-6.21,2.99-14,1.5-19.45-2.39-2.98-2.12-5.06-5.04-6.08-8.27,.13-.51-.04-1.06-.38-1.45-.63-3.02-.35-6.26,.99-9.34Zm32.76-270.91c5.99-3.32,14.2-3.46,19.43,1.39,.07,.07,.15,.12,.23,.17,.05,.08,.11,.15,.18,.22,9.04,9.3,1.96,28.42-11.61,27.67-7.2-.4-13.78-6.27-15.67-13.11-1.85-6.7,1.54-13.08,7.45-16.35Zm-149.6,55.32c2.42-18.92,17.04-33.5,33.68-41.33,8.83-4.16,18.42-6.51,28.15-7.05,12.59-.7,25.14,1.11,37.33,4.17,13.87,3.49,27.29,8.52,40.64,13.58,.52,.2,.94,.09,1.26-.16,.32,.1,.65,.19,.97,.29,.37,.11,.83,.04,1.16-.15,0,0,.02-.01,.02-.02,.03,.04,.06,.07,.09,.11-7.4,14-20.08,24.28-34.3,30.88-16.81,7.81-35.51,10.1-53.87,10.26-11.45,.09-22.9-.61-34.32-1.33-.31-.02-.57,.05-.78,.17-.46,.02-.92,.05-1.38,.07-.15,0-.29,.04-.43,.08-2.6-1.64-5.25-3.17-7.97-4.59-3.35-1.75-6.79-3.32-10.3-4.73,.02-.08,.04-.16,.06-.24Zm-106.69-40.09c16.94-13.29,38.4-18.31,59.5-19.83,12.9-.93,25.85-.67,38.78-.36,.17,1.34,.53,2.67,1.07,4,0,0-.01,.01-.01,.02-.11,.23-.21,.45-.32,.68-.09,.13-.16,.27-.21,.43,0,0,0,.02,0,.02-.03,.06-.06,.13-.09,.19-.13,.15-.23,.33-.28,.53-.01,.04-.02,.08-.03,.12-.03,.07-.07,.14-.1,.21-.27,.17-.48,.46-.55,.9-2.65,16.96-13.92,31.92-29.12,39.77-3.71,1.92-7.64,3.35-11.7,4.31-.91-.01-1.83-.02-2.74-.02-14.45,.01-28.67,1.83-42.81,4.74-12.39,2.55-24.63,5.89-36.56,10.08,.22-18.39,11.03-34.7,25.17-45.79Zm-92.43-26.36c-3.15-4.85-2.49-10.82,1.44-15.02,4.18-4.48,11.28-6.72,16.93-3.73,.44,.23,.86,.23,1.22,.09,.04,.4,.23,.79,.62,1.09,8.5,6.5,5.24,22.89-5.71,24.5-5.55,.82-11.5-2.3-14.5-6.93Zm-25.93,70.8c-.9-15.76,3.85-31.36,12.99-44.19,5.05-7.09,11.43-13.23,18.73-17.96,.03-.02,.06-.05,.09-.07,2.08,.89,4.31,1.4,6.55,1.45,2.08,.05,4.04-.35,5.83-1.09,4.42,13.92,5.56,28.75,3.65,43.22-1.92,14.53-6.91,28.68-14.61,41.16-4.33,7.02-9.52,13.46-15.49,19.15-.23,.22-.35,.45-.41,.69-10.26-11.68-16.43-26.84-17.32-42.37Zm-58.73,22.77c2.57-6.35,9.84-11.11,16.72-9.29,.28,.07,.54,.07,.77,0,.16,.19,.36,.35,.63,.46,9.97,3.97,11.34,20.63,1.31,25.31-1.03,.48-2.1,.8-3.21,.98-.23-.25-6.25,1.3-11.68-2.77-4.68-3.5-6.75-9.23-4.54-14.7Zm23.72,95.55c-.05,.1-.09,.2-.12,.3-11.32-3.2-21.11-11.01-26.91-21.27-6.45-11.42-6.97-25.15-2.23-37.3,2.69-6.88,7.09-13.03,12.76-17.77,.02-.02,.03-.04,.05-.05,2.47,.91,5.13,1.32,7.74,1.14,13.56,15.57,18.93,37.67,14.81,57.84-1.22,5.96-3.25,11.73-6.11,17.1Zm-27.89,72.27c-12.03-.13-23.69-4.92-32.59-12.96-4.99-4.51-9.04-9.94-11.91-16.03-.17-.37-.43-.59-.72-.69,.47-1.35,.81-2.76,.97-4.22,.03-.28,.04-.56,.06-.85,16.71-11.3,38.57-13.83,57.62-7.41,5.01,1.69,9.77,4.03,14.18,6.93,.03,.22,.06,.45,.09,.67,1.08,7.49,3.2,14.99,6.28,22.1-9.3,8.15-21.63,12.59-33.98,12.45Zm108.07,83.73s.02,0,.02,0c12.71,2.16,18.69,21.84,6.94,29.13-5.25,3.25-12.35,3.05-17.71,.14-6.03-3.27-8.89-9.82-6.98-16.45,2.18-7.59,9.6-13.82,17.73-12.82Zm-12.32-10.26c-.9,4.66-2.53,9.13-4.92,13.24-.09,.15-.14,.31-.17,.46-.31,.21-.56,.5-.66,.87-.2,.75-.39,1.5-.59,2.26-.07,.26-.04,.54,.03,.81-.36,.62-.69,1.26-.98,1.91-.24,.55-.45,1.11-.64,1.67-.19-.1-.41-.17-.67-.18-12.32-.6-23.76-8.2-29.74-18.89-6.09-10.9-5.28-24.19,.98-34.83,3.52-5.98,8.63-10.9,14.87-13.97,.07-.04,.13-.08,.19-.12,2,.7,4.03,1.3,6.09,1.79,13.3,10.3,19.36,28.66,16.2,45Zm98.83-32.25c17.12,.6,35.16,4.11,48.95,14.96,6.73,5.3,11.83,12.3,13.96,20.61-19.33,11.44-42.58,16.06-64.82,12.86-21.59-3.11-41.58-13.69-56.68-29.39-7.78-8.09-14.15-17.47-18.78-27.69,2.34-.01,4.69-.04,7.03-.12,.04,.05,.08,.1,.11,.15,.19,.19,.41,.31,.66,.39,.96,.38,1.92,.77,2.89,1.15,.18,.07,.41,.07,.64,.03,.08,.05,.18,.11,.28,.15,20.83,8.53,43.8,6.14,65.76,6.9Zm-89.7-15.59c-17.59-4.12-33.17-14.62-40.8-30.59-4.08-8.53-5.85-17.78-5.77-27.1,19.85,.59,39.75-2.78,58.42-9.53,18.67-6.75,36.1-16.91,50.9-29.8,8.3-7.23,15.79-15.33,22.21-24.14,.43-.59,.32-1.48-.32-1.88-11.03-7-23.49-11.75-36.52-14.18-13.07-2.43-26.7-2.48-39.85-.08-5.86,1.07-11.64,2.65-17.23,4.69,1.63-1.66,3.28-3.29,4.95-4.89,15.6-14.98,33.34-27.87,52.68-38.07,1.76-.93,3.54-1.84,5.33-2.74,.02,0,.03,0,.05,0,19.56,.54,38.61,7.11,54.04,18.4,16.41,12.01,27.99,29.33,32.92,48.58,2.81,10.96,3.48,22.39,1.88,33.63-.2,.21-.35,.47-.36,.76-.05,.78-.09,1.56-.14,2.34,0,.05,0,.1,0,.15-2.34,3.16-4.75,6.27-7.2,9.33-3.52,4.39-7.14,8.72-10.78,13.01-.16,.18-.24,.37-.29,.55-1.7,1.88-3.4,3.76-5.11,5.64-.09,.1-.15,.21-.19,.33-3.76,3.1-7.56,6.18-11.4,9.22,10.12-17.94,12.64-39.51,7.12-59-1.66-5.87-4.02-11.53-7.1-16.84-.36-.62-1.14-1-1.87-.64-17.19,8.42-32.32,20.47-44.45,34.87-12.11,14.37-21.25,31.1-26.46,48.82-2.94,9.99-4.66,20.28-4.98,30.62-9.9,1.14-19.92,.78-29.68-1.51Zm-46.5-60.37c.44-9.64,2.8-19.29,6.58-28.21,6.24-14.73,15.88-27.92,26.93-39.8,.26,.06,.56,.04,.88-.09,11.91-4.97,24.82-7.62,37.74-7.87,12.94-.26,25.88,1.77,37.95,6.08,6.39,2.28,12.5,5.2,18.23,8.72-11.14,14.93-25.33,27.68-41.44,37.6-16.45,10.14-34.91,17.32-54.03,20.95-10.78,2.04-21.76,2.95-32.72,2.62-.04,0-.08,0-.12,0Zm179.41-76.9c-10.51-16.78-26.72-29.76-45.67-37.08-8.99-3.48-18.56-5.65-28.27-6.38,6.56-3.13,13.25-5.99,20.08-8.45,10.52-3.79,21.59-6.58,32.82-7.03,9.11-.36,18.09,1.04,26.25,4.91,7.57,3.59,13.97,9.16,18.73,15.79,11.81,16.44,13.85,38.61,8.39,57.75-3.95,13.82-11,26.51-19.32,38.4,2.41-20.07-2.26-40.73-13.02-57.92Zm-86.83,86.99c8.25-16.29,19.97-31.03,34.25-42.94,7.72-6.43,16.18-12,25.23-16.54,10.03,18.11,11.69,40.16,4.96,59.81-1.96,5.71-4.61,11.2-7.95,16.3-.27,.42-.28,.84-.14,1.2-11.83,9.06-24.22,17.44-37.85,23.81-10.1,4.72-20.98,8.18-32.07,9.78,.65-17.78,5.42-35.33,13.57-51.42Zm164.07,6.81c20.68,2.01,40.95,8.76,58.63,19.7,9.9,6.13,18.93,13.59,26.75,22.21,.08,.09,.17,.16,.25,.23-.27,1.72-.3,3.48-.06,5.23,.04,.32,.11,.63,.17,.94-20.17,12.16-43.92,17.98-67.43,16.66-22.59-1.27-44.42-9.48-62.56-22.93-10.02-7.43-18.86-16.49-26-26.71-.38-.55-.95-.72-1.47-.65,3.24-1.98,6.43-4.03,9.58-6.15,.28,.13,.62,.15,1.01,0,19.32-7.83,40.42-10.54,61.14-8.52Zm154.46-3.91c5.67-7.07,16.22-11.08,24.72-6.81,.06,.03,.11,.04,.17,.06,.05,.03,.09,.07,.15,.1,13.81,7.52,12.6,32.3-3.48,36.3-7.79,1.94-16.42-1.62-21.48-7.64-5.43-6.47-5.31-15.47-.07-22.01Zm-81.77-60.9c21.87,4.4,42.08,15.42,57.89,31.12,8.45,8.39,15.56,18.05,21.04,28.62-3.38,4.67-4.85,10.4-3.8,15.95-21.6,1.47-43.35-.61-64.31-6-21.24-5.46-41.6-14.26-60.09-26.06-10.39-6.63-20.15-14.2-29.14-22.63-.34-.32-.73-.44-1.1-.41,1.44-2.06,2.84-4.15,4.18-6.28,1.17-1.87,2.29-3.77,3.38-5.68,.12-.03,.24-.06,.37-.12,22.13-10.37,47.62-13.33,71.57-8.52Zm-57.84-37.31c-2.53,12.64-6.8,25.09-12.52,36.64-11.03,22.27-27.57,41.26-46.64,57.02-21.29,17.59-45.58,31.81-71.52,41.3-16.7,6.11-34.06,10.29-51.67,12.57,2.24-.53,4.47-1.12,6.66-1.78,22.02-6.7,41.32-19.82,59.05-33.76,4.31-3.39,8.56-6.85,12.79-10.33,.28-.23,.42-.5,.48-.77,1.86-2.06,3.73-4.12,5.59-6.18,.15-.16,.22-.36,.25-.58,13.75-16.23,27.3-33.11,35.75-52.48,4.21-9.65,7.08-19.87,7.61-30.3,.54-10.64-1.15-21.36-5.26-31.21-3.42-8.2-8.57-15.62-15.52-21.43-6.59-5.51-14.63-9.25-23.22-10.98-10.28-2.07-21.21-1.1-31.43,1.12-11.36,2.46-22.3,6.61-32.83,11.38-20.58,9.33-39.85,21.1-56.99,35.54-16.2,13.65-31.24,29.45-41.74,47.58-10.34,17.85-16.05,38.64-11.9,58.82,1.95,9.49,6.09,18.6,12.53,26.03,5.82,6.71,13.31,11.95,21.57,15.61,6.43,2.85,13.24,4.7,20.2,5.69-5.91-.12-11.82-.46-17.7-.99-.12-.08-.26-.14-.41-.17-2.7-.47-5.4-.95-8.11-1.42-.16-.31-.47-.55-.94-.63-1.11-.19-2.21-.42-3.3-.68-.08-.03-.17-.05-.25-.06-10.2-2.43-19.5-7.61-27.08-14.93-8.47-8.18-14.7-18.55-18.63-29.61-1.9-5.35-3.23-10.81-4.02-16.32,.2-.5,.17-1.1-.21-1.57-2.55-20.24,2.02-41.06,11.8-59.15,3.23-5.98,6.98-11.7,11.17-17.05,2.15-2.75,4.42-5.4,6.78-7.97,.97-1.05,2.13-2.03,2.74-3.34,.3-.65,.44-1.37,.74-2.01,.39-.82,1.16-1.4,1.79-2.03,2.9-2.9,5.69-6.08,8.91-8.64,2.82-2.24,5.67-4.45,8.37-6.84,2.7-2.39,5.32-4.76,8.19-6.96,2.8-2.15,5.65-4.23,8.55-6.25,22.66-15.81,48-27.3,74.6-34.67,20.04-5.56,40.88-9.35,61.73-9.32,.32,.29,.77,.46,1.31,.35,.47-.09,.92-.22,1.38-.32,6.47,.11,12.95,.58,19.39,1.51,13.99,2.02,27.67,6.19,40.14,12.91,3.23,1.74,6.38,3.64,9.43,5.69,1.39,.94,2.73,1.86,3.84,3.12,1.07,1.21,1.98,2.56,3.15,3.67,1.16,1.1,2.31,2.07,3.36,3.3,1.13,1.33,2.19,2.73,3.18,4.17,1.84,2.67,3.44,5.5,4.79,8.44,5.47,11.86,6.63,25.54,4.08,38.29Zm149.4-47.47c-2.52,4.48-3.09,9.62-1.64,14.21,0,0,0,0,0,0-14.42,14.75-32.08,26.22-51.28,33.73-19.16,7.49-39.78,11.19-60.35,10.6-11.57-.33-23.07-2.05-34.22-5.16-.07-.02-.14-.03-.2-.04,.82-3.47,1.47-6.95,1.91-10.46,.47,.03,.95-.18,1.24-.75,9.66-18.86,25.16-34.47,43.81-44.49,19.85-10.66,42.97-14.34,65.19-10.71,12.58,2.05,24.72,6.36,35.73,12.76-.06,.1-.13,.2-.18,.3Zm24.86,22.47c-5.44,2.84-12.4,1.86-17.45-1.36-5.78-3.68-8.33-10.39-6.05-16.93,2.63-7.53,10.97-13.5,19.06-11.68,.4,.09,.75,.02,1.04-.13,.16,.29,.43,.54,.81,.68,11.72,4.29,13.99,23.47,2.58,29.43Z"/>
</g>
</g>
</svg>

