<svg id="Calque_2" xmlns="http://www.w3.org/2000/svg" viewBox="0 0 393.84 395.97">
<g id="Calque_1-2"><g>
<path d="M196.94,395.97c-1.93-1.41-3.64-2.36-4.97-3.68-25.75-25.68-51.52-51.34-77.15-77.15C77.72,277.79,40.73,240.34,3.68,202.93c-4.88-4.92-4.89-5.04-.15-9.81C66.13,130.05,128.73,66.99,191.34,3.93c5.2-5.23,6.09-5.23,11.24-.05,30,30.13,60.03,60.22,89.98,90.4,32.76,33.01,65.44,66.09,98.15,99.14,4.21,4.25,4.2,4.83-.16,9.22-30.65,30.88-61.3,61.78-91.97,92.64-32.18,32.39-64.38,64.76-96.62,97.1-1.32,1.32-3.07,2.22-5.02,3.59Zm-4.9-379.29c-1.41,1.2-2.29,1.85-3.05,2.62-37.78,38.07-75.57,76.12-113.22,114.3-1.5,1.52-2.36,4.33-2.37,6.54-.15,35.23-.11,70.45-.09,105.68,0,1.38,.21,2.76,.35,4.54,1.04-.7,1.62-1,2.09-1.42,20.28-18.3,40.64-36.51,60.78-54.95,17.39-15.91,34.49-32.13,51.82-48.11,2.6-2.4,3.88-4.77,3.87-8.5-.1-38.38,.02-76.77,.07-115.15,0-1.59-.14-3.17-.25-5.54Zm11.29-.23c-.52,.37-1.04,.74-1.56,1.12-.08,.96-.23,1.92-.23,2.88-.13,39.54-.29,79.07-.23,118.61,0,2.11,1.45,4.71,3.03,6.24,20.35,19.67,40.92,39.1,61.28,58.75,14.81,14.3,29.37,28.84,44.07,43.25,.84,.82,1.88,1.44,3.25,2.49,.16-1.78,.32-2.76,.32-3.74,.01-38.04,.06-76.08-.11-114.12,0-2.15-1.31-4.79-2.86-6.36-30.97-31.47-62.09-62.8-93.11-94.22-4.76-4.82-9.23-9.92-13.84-14.89Zm-5.29,133.33c-.51,.43-1.02,.86-1.53,1.29-.77,.6-1.59,1.14-2.32,1.79-17.74,15.92-35.49,31.82-53.18,47.79-5.67,5.12-11.35,10.26-16.68,15.72-1.62,1.67-2.92,4.46-2.94,6.75-.21,23.93-.13,47.87-.12,71.8,0,1.37,.2,2.73,.35,4.59,23.8-22.3,47.05-44.1,70.32-65.87,4.52-4.23,5.84-4.17,10.26,.34,14.3,14.59,28.45,29.33,42.91,43.76,7.82,7.8,16.14,15.09,23.85,22.25,.02-.36,.15-1.95,.15-3.53,.01-23.77-.08-47.54,.1-71.3,.03-3.71-1.19-6.23-3.79-8.63-12.51-11.56-25.17-22.97-37.29-34.94-10.38-10.26-20.1-21.19-30.11-31.83Zm-74.43,160.63c24.67,24.56,49.09,48.88,73.24,72.92,23.17-23.03,46.55-46.26,70.21-69.78-23.26-23.87-46.6-47.83-70.21-72.06-24.71,23.26-48.99,46.11-73.23,68.93Zm199.29-54.09c19.82-19.42,39.58-38.78,59.63-58.42-20.04-19.71-39.76-39.11-59.63-58.65v117.07Zm-259.17-6.94v-102.69c-17.49,17.09-34.8,34.01-52.41,51.23,17.6,17.28,34.87,34.24,52.41,51.46Zm250.34,17.97c-12.1-12.79-23.44-24.78-35.33-37.34v71.1c12.15-11.61,24.24-23.16,35.33-33.76Zm-202.06,30.24v-69.91c-12.63,11.77-24.56,22.89-36.94,34.43,12.6,12.1,24.89,23.9,36.94,35.48Z"/>
<path class="cls-1" d="M192.03,16.68c.11,2.37,.26,3.95,.25,5.54-.05,38.38-.17,76.77-.07,115.15,.01,3.73-1.27,6.1-3.87,8.5-17.33,15.98-34.43,32.2-51.82,48.11-20.15,18.44-40.51,36.65-60.78,54.95-.47,.42-1.05,.72-2.09,1.42-.14-1.78-.35-3.16-.35-4.54-.02-35.23-.06-70.45,.09-105.68,0-2.21,.88-5.02,2.37-6.54,37.65-38.19,75.45-76.24,113.22-114.3,.76-.77,1.64-1.41,3.05-2.62Z"/>
<path class="cls-1" d="M203.32,16.46c4.6,4.97,9.08,10.07,13.84,14.89,31.03,31.41,62.14,62.74,93.11,94.22,1.55,1.58,2.85,4.21,2.86,6.36,.17,38.04,.12,76.08,.11,114.12,0,.98-.16,1.96-.32,3.74-1.37-1.04-2.41-1.66-3.25-2.49-14.69-14.41-29.26-28.96-44.07-43.25-20.36-19.66-40.93-39.09-61.28-58.75-1.58-1.53-3.03-4.13-3.03-6.24-.06-39.54,.1-79.07,.23-118.61,0-.96,.15-1.92,.23-2.88,.52-.37,1.04-.74,1.56-1.12Z"/>
<path class="cls-1" d="M198.03,149.79c10.01,10.64,19.72,21.57,30.11,31.83,12.11,11.97,24.78,23.37,37.29,34.94,2.6,2.4,3.82,4.92,3.79,8.63-.18,23.77-.09,47.53-.1,71.3,0,1.58-.14,3.17-.15,3.53-7.71-7.16-16.03-14.45-23.85-22.25-14.46-14.43-28.61-29.17-42.91-43.76-4.42-4.51-5.74-4.57-10.26-.34-23.27,21.77-46.52,43.57-70.32,65.87-.15-1.86-.35-3.23-.35-4.59-.02-23.93-.09-47.87,.12-71.8,.02-2.29,1.32-5.08,2.94-6.75,5.33-5.47,11-10.6,16.68-15.72,17.69-15.97,35.44-31.87,53.18-47.79,.72-.65,1.54-1.2,2.32-1.79,.51-.43,1.02-.86,1.53-1.29Z"/>
<path class="cls-1" d="M123.61,310.42c24.24-22.82,48.52-45.67,73.23-68.93,23.61,24.23,46.95,48.19,70.21,72.06-23.67,23.52-47.04,46.75-70.21,69.78-24.14-24.04-48.57-48.36-73.24-72.92Z"/><path class="cls-1" d="M322.89,256.33v-117.07c19.87,19.54,39.59,38.94,59.63,58.65-20.04,19.64-39.81,39-59.63,58.42Z"/><path class="cls-1" d="M63.73,249.39c-17.54-17.22-34.81-34.19-52.41-51.46,17.61-17.21,34.92-34.14,52.41-51.23v102.69Z"/><path class="cls-1" d="M314.07,267.35c-11.09,10.6-23.18,22.15-35.33,33.76v-71.1c11.89,12.57,23.23,24.55,35.33,37.34Z"/>
<path class="cls-1" d="M112.01,297.6c-12.06-11.58-24.35-23.38-36.94-35.48,12.38-11.54,24.32-22.66,36.94-34.43v69.91Z"/>
</g>
</g>
</svg>
