<?xml version="1.0" encoding="UTF-8"?><svg id="Calque_2" xmlns="http://www.w3.org/2000/svg" viewBox="0 0 351.1 233.16"><defs><style>.cls-1{fill:#fff;}</style></defs><g id="Calque_4"><g><path class="cls-1" d="M210.61,57.28c4.41,4.93,11.91,5.91,17.78,8.34,3.24,1.34,6.23,3.17,8.34,6.03,1.88,2.54,2.85,5.68,2.24,8.78,4.17-1.67,8.41-3.17,12.72-4.47,1.56-.47,3.13-.91,4.71-1.33,0-.02,.01-.03,.02-.05,1.31-1.94,1.63-4.35,.88-6.58-.77-2.27-2.62-3.64-4.71-4.64-1.82-.87-3.77-1.49-5.53-2.5-1.77-1.02-3.24-2.42-4.47-4.04-1.25-1.65-2.19-3.49-3-5.39-.81-1.91-1.39-3.95-2.43-5.76-1.22-2.11-3.04-3.13-5.49-3.16-2.21-.03-4.46,.37-6.63,.77-4.22,.77-8.48,1.89-12.35,3.77-.27,3.44-1.05,6.87-2.02,10.1-.01,.05-.05,.08-.06,.12Z"/><path class="cls-1" d="M155.02,23.67c-.4,1.26-.78,2.53-1.1,3.81-2.16,8.51-2.63,17.43-1.36,26.12,.06,.43-.13,.76-.4,.98,.03,.09,.07,.18,.06,.28-.03,.34-.07,.68-.1,1.02,0,.18-.05,.35-.14,.5l-.03,.04c-.04,.44-.09,.88-.13,1.33,0,.12-.03,.24-.07,.35,.03,.1,.05,.2,.08,.3,.38,1.12,.95,2.18,1.64,3.15,2.62,3.65,6.9,5.9,10.99,7.5,.62,.24,1.24,.47,1.86,.7-.02-.18,0-.37,.11-.57,3.28-5.95,11.6-5.83,17.42-6.9,8.32-1.54,16.46-3.98,24.27-7.23,.35-.14,.76,.05,1.01,.32,.95-3.39,1.61-6.87,1.65-10.4,.05-3.41-.49-6.89-2.07-9.95-1.64-3.17-4.3-5.54-7.14-7.62-4.8-3.52-10.49-6.97-12.6-12.78-8.45,8.33-20.88,12.1-32.56,9.86-.2-.04-.34-.13-.46-.24-.12-.04-.24-.08-.36-.12-.17-.05-.32-.13-.44-.26l-.13-.17Z"/><path class="cls-1" d="M120.1,84.81c5.43,17.94,19.55,32.63,36.68,39.93-4.59-7.26-5.74-16.21-5.24-24.69,.14-2.35,.4-4.68,.75-7.01,.4-2.7,1.06-5.37,1.29-8.09,.21-2.6,.01-5.31-1.52-7.5-1.35-1.93-3.28-3-5.64-2.77-2.38,.23-2.68-1.58-2.82-3.51-.15-2.13-1-4.17-2.23-5.9-2.53-3.57-6.78-5.78-11.17-5.47-.9,.06-1.27-1.12-.71-1.71,3.72-3.9,9.02-6.15,14.41-6.09,2.25,.03,5.12,.28,6.53,2.24,.02-.03,.05-.06,.07-.09,.03-.03,.07-.06,.11-.08-.67-4.58-.91-9.2-.66-13.82,.22-4.03,.79-8.04,1.71-11.97,.93-4.01,2.33-7.79,3.83-11.62,.73-1.86,1.32-3.8,.89-5.81-.38-1.79-1.37-3.39-2.66-4.67-2.24-2.22-5.27-3.28-8.33-3.89,1.79,4.31,.98,9.3-1.05,13.46-2.61,5.36-7.33,9.32-11.38,13.54-13.92,14.49-18.65,36.36-12.85,55.51Z"/><path class="cls-1" d="M233.9,71.4c-2.6-2.65-6.18-4.02-9.63-5.16-5.91-1.96-12.5-3.71-16.27-9.02-7.18,2.94-14.63,5.2-22.24,6.7-3.43,.68-6.94,1-10.35,1.78-2.87,.66-5.77,1.76-7.26,4.47-.04,.07-.09,.1-.13,.15,4.17,1.39,8.46,2.48,12.72,3.49,6,1.44,12.06,2.58,18.17,3.41,4.86,.67,9.9,.86,14.61,2.35,4.15,1.32,7.85,3.83,9.49,8.01,.05,.14,.1,.28,.15,.42,.08-.15,.19-.29,.38-.39,4.36-2.33,8.83-4.45,13.39-6.35-.07-.18-.11-.38-.04-.61,.96-3.4-.6-6.82-2.98-9.25Z"/><path class="cls-1" d="M93.72,126.65c-1.31,2.39-2.55,4.82-3.58,7.35-2.36,5.78-3.25,11.91-1.55,17.99,1.58,5.67,5,10.7,9.31,14.65,10.21,9.37,24.65,11.23,37.92,9.31,14.65-2.12,28.14-8.5,41.78-13.89,3.46-1.37,6.94-2.67,10.47-3.85,3.33-1.11,6.72-2.15,9.87-3.71,5.24-2.6,10.25-7.34,10.23-13.48-2.23,.32-4.65,.2-6.26,.23-6.51,.12-13.05,.03-19.48-1.1-9.02-1.59-18.05-5.58-23.86-12.89-.2,.14-.47,.19-.79,.07-7.72-3.06-14.85-7.49-20.99-13.06-.16,0-.33-.02-.5-.11-10.84-5.72-20.62-13.33-28.86-22.4-1.85,7.45-3.82,14.89-6.88,21.95-1.7,3.92-3.86,7.61-5.94,11.34,.02,.03,.04,.07,.06,.1,.41,.78-.27,1.49-.94,1.49Z"/><path class="cls-1" d="M223.53,89.28c1.07,4.43-.2,9.14-1.97,13.24-1.16,2.69-2.55,5.26-3.73,7.94-.38,.86-.72,1.73-1.05,2.6,12.2-.39,24.43-.24,36.58,1.1,10.87,1.19,21.7,3.36,32.07,6.83,6.45-6.47,12.68-13.84,14.44-23.07,.78-4.06,.59-8.32-.91-12.21-1.39-3.6-3.58-6.81-4.31-10.65-.18-.93-.29-2.13-1.02-2.82-.67-.64-1.66-.72-2.54-.73-2.04-.03-4.1,.15-6.12,.3-4.27,.31-8.52,.8-12.74,1.47-16.65,2.66-32.81,8.1-47.68,16.05-.38,.2-.73,.13-1.01-.06Z"/><path class="cls-1" d="M216.2,109.25c1.25-2.8,2.74-5.48,3.89-8.32,1.88-4.64,2.99-10.4-.1-14.79-2.52-3.58-7.06-4.9-11.16-5.63-5.11-.91-10.31-1.27-15.43-2.11-5.77-.95-11.49-2.17-17.15-3.65-4.86-1.28-9.78-2.61-14.38-4.64-3.77-1.66-7.44-3.93-9.92-7.29-1.2-1.62-2.01-3.46-2.45-5.43-.33-1.47-.68-2.56-2.28-2.99-1.07-.29-2.2-.38-3.3-.39-4.07-.05-8.02,1.36-11.17,3.87,3.66,.45,7.09,2.4,9.47,5.23,1.45,1.72,2.55,3.74,3.07,5.93,.13,.53,.22,1.08,.28,1.63,.05,.46-.07,1.25,.12,1.67,.25,.57,.83,.32,1.37,.3,.54-.03,1.08,.03,1.61,.14,4.32,.87,6.67,5.36,6.96,9.4,.19,2.68-.34,5.38-.82,8.01-.43,2.36-.8,4.72-1.03,7.11-.91,9.2-.2,19.12,5.07,27.01,5.3,7.94,14.52,12.17,23.65,13.86,5.68,1.05,11.48,1.21,17.25,1.15,2.56-.03,5.2,.07,7.74-.21,.27-.03,.56-.07,.86-.13,.21-.19,.52-.24,.83-.19,1-.28,1.93-.76,2.36-1.66-.14-.16-.25-.35-.27-.61-.37-6.17,.24-12.39,1.82-18.37,.8-3.03,1.86-5.99,3.13-8.85Z"/><path class="cls-1" d="M327.72,149.7c-12.72-13.84-29.7-23.04-47.6-28.3-20.63-6.07-42.35-7.01-63.72-6.31-.12,0-.22-.03-.31-.05-.42,1.26-.81,2.53-1.14,3.82-1.45,5.57-2,11.32-1.71,17.07,.3,.22,.5,.57,.43,1.02-.07,.45-.22,.84-.4,1.2,5.28-.51,10.56-1.03,15.84-1.5,2.67-.24,5.46-.36,8.04,.52,2.16,.73,4.01,2.09,5.59,3.72,3.25,3.37,5.69,7.62,8.32,11.47,2.93,4.29,5.74,8.69,8.84,12.85,1.36,1.83,2.89,3.61,4.72,4.97,2,1.49,4.3,2.32,6.7,2.9,5.22,1.27,10.56,2.14,15.85,3.1,5.3,.96,10.6,1.87,15.92,2.68,5.47,.84,11.01,1.49,16.55,1.23,10.01-.47,19.43-4.28,28.55-8.18-7.86-6.39-13.65-14.78-20.47-22.2Z"/><path class="cls-1" d="M78.51,115.14c5.11,2.1,11.3,3.59,14.86,8.04,2.05-3.67,4.13-7.33,5.76-11.22,3.04-7.25,4.93-14.91,6.81-22.51,.17-.7,1.17-1.01,1.67-.44,7.01,7.99,15.21,14.83,24.28,20.33-.16-.17-.32-.33-.48-.51-6.32-7.19-11.15-15.73-13.67-24.98-2.61-9.56-2.72-19.77-.49-29.41,.61-2.63,1.4-5.21,2.36-7.72-4.79,.93-9.69,.62-14.4-.6-8.72-2.27-16.25-7.39-23.43-12.64-1.77-1.29-3.51-2.62-5.31-3.88-.92-.64-1.97-1.34-3.13-1.39-1.18-.05-2.29,.54-3.32,1.03-3.89,1.85-7.77,3.7-11.65,5.56,5.47,3.79,5.3,12.36,4.6,18.29-1.01,8.6-3.59,16.94-4.62,25.53-.91,7.61-.66,15.84,3.1,22.71,3.63,6.63,10.21,10.99,17.06,13.8Z"/><path class="cls-1" d="M268.04,174.9c-.31-.23-.44-.56-.43-.88-3.75-1.49-6.62-4.09-9.08-7.33-3.17-4.16-5.98-8.61-8.93-12.93-2.72-3.98-5.22-8.48-8.68-11.88-1.69-1.65-3.68-2.83-6.02-3.23-2.53-.43-5.14-.07-7.67,.17-5.53,.53-11.06,1.05-16.59,1.58-.16,.06-.32,.12-.48,.17,.06,1.22-.06,2.44-.35,3.63-1.65,6.59-7.51,10.73-13.45,13.19-3.38,1.4-6.9,2.42-10.35,3.63-.62,.22-1.23,.46-1.85,.68,6.45,2.01,10.82,7.72,14.27,13.31,3.67,5.95,7,12.02,11.14,17.67,4.25,5.8,9,11.24,14.22,16.18,10.06,9.52,21.94,17.14,35.1,21.56-.14-4.22,1.22-8.31,2.72-12.23,3.09-8.04,5.84-16.16,7.93-24.52,1.38-5.52,4.1-14.62-1.49-18.77Z"/><path class="cls-1" d="M196.4,175.55c-3.4-5.44-7.72-10.96-14.34-12.33-.34-.07-.54-.27-.64-.51-2.19,.83-4.38,1.69-6.56,2.57-14.2,5.75-28.45,12.07-43.93,13.19-13.55,.98-27.57-2.53-36.91-12.9-.23-.26-.45-.53-.67-.8l-1.1,.8c-.11,.08-.25,.12-.38,.13-.07,.05-.15,.1-.22,.14-.07,.18-.18,.34-.38,.47-6.29,3.94-11.8,9.02-16.25,14.95,3.38,1.95,5.68,5.56,5.93,9.48,.24,3.84-1.6,7.57-4.57,9.93,3.6,3.24,4.2,8.47,4.2,13.14,0,3.36-.34,7.21,1.16,10.33,1.43,2.98,5.18,3.01,8.04,3.47,12.38,2,24.9,3.13,37.43,3.42,12.02,.28,24.31,.13,36.1-2.46,10.16-2.23,20-6.47,27.69-13.61,3.61-3.35,6.66-7.27,8.83-11.7,1.18-2.39,2.06-5.03,3.98-6.96,1.21-1.22,2.69-2.01,4.32-2.21-.18-.24-.36-.48-.54-.72-4.15-5.71-7.47-11.86-11.2-17.82Z"/><path class="cls-1" d="M77.47,174.02s0-.02,.01-.02c.07-.11,.16-.19,.28-.26,.3-.15,.6-.3,.91-.45,.16-.09,.32-.14,.5-.14,.09,.01,.18,.02,.27,.04,0,0,0,0,0,0,3.03-3,6.36-5.7,9.96-8.04,.09-.19,.21-.37,.39-.48,.76-.49,1.52-.99,2.28-1.48-3-3.95-5.22-8.54-6.04-13.45-1.09-6.54,.51-12.86,3.26-18.78,.92-1.98,1.94-3.91,2.99-5.83-1.89-2.76-4.93-4.38-8-5.63-3.52-1.44-7.13-2.61-10.53-4.35-6.39-3.27-12.08-8.12-15.03-14.8-3.03-6.85-3.26-14.59-2.37-21.93,.14-1.13,.31-2.25,.49-3.37-.19-.1-.38-.2-.58-.28-.04-.02-.08-.04-.12-.05,.04,.02,.08,.03,.12,.05-.03-.04-.2-.08-.25-.1-.14-.06-.29-.11-.43-.16-.61-.21-1.23-.36-1.86-.47-.15-.03-.28-.1-.39-.2-7.6-3.2-16.17-1.42-23.03,2.74-14.77,8.96-18.92,26.54-20.21,42.63-1.35,16.75-.32,34.32-7.39,49.94,4.78-.91,9.67-1.12,14.53-.82,19.88,1.19,39.71,10.23,59.74,5.67,.18-.04,.33-.03,.48,0Z"/><path d="M350.61,171.29c-7.81-5.91-13.51-14.01-19.93-21.28-6.21-7.03-13.42-13.05-21.4-17.98-6.88-4.24-14.2-7.63-21.77-10.31,5.73-5.83,11.16-12.35,13.55-20.3,1.22-4.04,1.61-8.35,.86-12.51-.77-4.28-3.27-7.76-4.68-11.8-.62-1.77-.6-3.87-1.59-5.5-.94-1.54-2.67-2.04-4.37-2.1-4.39-.15-8.93,.44-13.28,.96-6.4,.76-12.74,1.92-19,3.47,1.3-3.23,.71-7.16-1.71-9.75-3.2-3.44-8.43-3.67-11.75-6.99-1.68-1.68-2.89-3.78-3.86-5.94-.96-2.12-1.57-4.4-2.71-6.44-1.05-1.88-2.6-3.4-4.72-3.98-2.34-.64-4.86-.24-7.21,.09-4.85,.69-9.76,1.86-14.25,3.87,.03-2.77-.32-5.52-1.22-8.15-1.11-3.25-3.07-6.04-5.61-8.33-2.66-2.39-5.73-4.24-8.55-6.43-3.16-2.46-6.1-5.47-7.01-9.49-.16-.72-1.17-.98-1.67-.44-7.9,8.58-20.12,12.71-31.61,10.57-.1-.07-.2-.13-.31-.16-.23-.08-.46-.15-.69-.23-.13-.04-.27-.05-.4-.02-.08,0-.15,.04-.22,.07,.12-.35,.23-.71,.35-1.06,.73-2.03,1.72-3.99,2.28-6.08,.97-3.61-.1-7.17-2.6-9.9-2.99-3.27-7.44-4.57-11.69-5.18-.79-.11-1.64,.65-1.13,1.47,2.84,4.52,1.71,10.26-.84,14.64-2.79,4.79-7.17,8.38-10.92,12.38-4.59,4.89-8.21,10.61-10.76,16.78-.21-.34-.58-.59-1.08-.49-9.16,1.79-18.33-1.5-26.13-6.14-3.92-2.33-7.62-5.01-11.3-7.71-1.77-1.3-3.52-2.82-5.46-3.87-1.83-.98-3.66-1.06-5.59-.3-2.48,.98-4.86,2.28-7.26,3.42-2.56,1.22-5.11,2.44-7.67,3.66-.64,.3-.67,1.44,0,1.73,6.47,2.8,5.94,11.74,5.26,17.51-.79,6.72-2.53,13.27-3.74,19.91-.88-.39-1.81-.68-2.76-.85-14.08-6.01-30.08,2.8-37.58,15.01-9.6,15.61-8.73,34.72-9.88,52.32-.68,10.46-2.13,21.08-6.88,30.56-.39,.78,.25,1.67,1.13,1.47,20-4.68,39.86,4.34,59.72,5.59,5.26,.33,10.53,.08,15.69-.99-1.41,1.59-2.75,3.25-4,4.98-.29,.41-.1,1.16,.36,1.37,3.27,1.48,5.7,4.64,5.95,8.27,.24,3.62-1.67,7.13-4.73,9.02-.66,.41-.63,1.31,0,1.73,4.59,3.06,4.36,9.38,4.35,14.23,0,4.9,.2,11.37,5.87,12.95,2.8,.78,5.81,1.06,8.67,1.48,3.07,.45,6.15,.85,9.23,1.2,6.23,.71,12.49,1.2,18.76,1.49,12.08,.54,24.37,.59,36.36-1.17,10.6-1.56,21.08-4.87,29.86-11.15,4.38-3.13,8.28-6.9,11.35-11.33,1.62-2.33,2.85-4.82,4.04-7.39,1.2-2.59,3.22-6.26,6.66-5.74,.08,.01,.15,0,.22-.01,7.94,10.35,17.46,19.53,28.47,26.58,6.74,4.31,14.01,7.77,21.64,10.19,.57,.18,1.34-.32,1.27-.96-.53-4.57,.94-8.91,2.56-13.12,1.61-4.19,3.18-8.39,4.55-12.66,1.4-4.37,2.64-8.78,3.72-13.24,.83-3.42,1.63-6.91,1.51-10.45-.09-2.69-.77-5.27-2.35-7.32,1.84,.45,3.72,.78,5.57,1.14,2.72,.53,5.44,1.05,8.17,1.55,5.37,.99,10.76,1.91,16.15,2.77,5.32,.84,10.69,1.61,16.09,1.62,11.91,.03,22.9-4.51,33.66-9.12,.77-.33,.52-1.33,0-1.73Zm-78.39-98c4.22-.68,8.47-1.16,12.74-1.47,2.03-.15,4.09-.33,6.12-.3,.87,.01,1.87,.1,2.54,.73,.72,.69,.84,1.89,1.02,2.82,.73,3.85,2.93,7.05,4.31,10.65,1.49,3.88,1.68,8.14,.91,12.21-1.77,9.23-8,16.6-14.44,23.07-10.37-3.47-21.2-5.64-32.07-6.83-12.14-1.33-24.38-1.48-36.58-1.1,.33-.88,.68-1.75,1.05-2.6,1.18-2.68,2.58-5.25,3.73-7.94,1.77-4.1,3.03-8.82,1.97-13.24,.28,.19,.63,.26,1.01,.06,14.87-7.95,31.03-13.39,47.68-16.05Zm-60.98,63.18c.02,.26,.13,.46,.27,.61-.43,.9-1.36,1.38-2.36,1.66-.31-.05-.62,0-.83,.19-.29,.05-.58,.1-.86,.13-2.55,.29-5.18,.19-7.74,.21-5.76,.06-11.57-.1-17.25-1.15-9.13-1.69-18.36-5.92-23.65-13.86-5.26-7.89-5.98-17.81-5.07-27.01,.24-2.39,.6-4.75,1.03-7.11,.48-2.63,1.01-5.32,.82-8.01-.29-4.04-2.64-8.53-6.96-9.4-.53-.11-1.07-.16-1.61-.14-.55,.03-1.13,.27-1.37-.3-.18-.42-.06-1.2-.12-1.67-.06-.55-.15-1.09-.28-1.63-.52-2.19-1.63-4.21-3.07-5.93-2.38-2.83-5.81-4.78-9.47-5.23,3.16-2.5,7.11-3.91,11.17-3.87,1.1,.01,2.23,.1,3.3,.39,1.59,.43,1.94,1.52,2.28,2.99,.45,1.97,1.25,3.8,2.45,5.43,2.49,3.36,6.16,5.62,9.92,7.29,4.61,2.03,9.52,3.37,14.38,4.64,5.65,1.48,11.38,2.7,17.15,3.65,5.12,.84,10.32,1.2,15.43,2.11,4.1,.73,8.64,2.04,11.16,5.63,3.09,4.39,1.98,10.16,.1,14.79-1.15,2.84-2.64,5.53-3.89,8.32-1.28,2.86-2.33,5.82-3.13,8.85-1.58,5.98-2.18,12.2-1.82,18.37Zm-116.59-11.31s-.04-.07-.06-.1c2.08-3.73,4.23-7.43,5.94-11.34,3.07-7.06,5.03-14.5,6.88-21.95,8.24,9.07,18.02,16.68,28.86,22.4,.17,.09,.34,.12,.5,.11,6.14,5.56,13.28,10,20.99,13.06,.32,.13,.58,.08,.79-.07,5.81,7.3,14.84,11.29,23.86,12.89,6.43,1.13,12.97,1.22,19.48,1.1,1.61-.03,4.02,.09,6.26-.23,.02,6.14-5,10.88-10.23,13.48-3.16,1.56-6.54,2.6-9.87,3.71-3.53,1.18-7.01,2.48-10.47,3.85-13.64,5.39-27.13,11.77-41.78,13.89-13.27,1.92-27.71,.06-37.92-9.31-4.31-3.95-7.73-8.99-9.31-14.65-1.7-6.08-.81-12.21,1.55-17.99,1.03-2.53,2.28-4.95,3.58-7.35,.66,0,1.35-.71,.94-1.49Zm142.26-43.89c-4.56,1.9-9.03,4.02-13.39,6.35-.19,.1-.3,.24-.38,.39-.05-.14-.09-.28-.15-.42-1.64-4.18-5.34-6.69-9.49-8.01-4.71-1.5-9.74-1.69-14.61-2.35-6.11-.84-12.18-1.98-18.17-3.41-4.25-1.02-8.55-2.1-12.72-3.49,.04-.05,.09-.09,.13-.15,1.49-2.7,4.39-3.81,7.26-4.47,3.41-.78,6.92-1.1,10.35-1.78,7.62-1.5,15.06-3.76,22.24-6.7,3.77,5.32,10.36,7.07,16.27,9.02,3.45,1.14,7.03,2.52,9.63,5.16,2.38,2.43,3.93,5.84,2.98,9.25-.07,.24-.03,.44,.04,.61Zm-24.22-34.2c3.87-1.88,8.13-2.99,12.35-3.77,2.17-.4,4.42-.79,6.63-.77,2.45,.03,4.27,1.04,5.49,3.16,1.04,1.81,1.62,3.85,2.43,5.76,.81,1.9,1.76,3.74,3,5.39,1.22,1.62,2.7,3.02,4.47,4.04,1.76,1.01,3.7,1.63,5.53,2.5,2.08,1,3.93,2.37,4.71,4.64,.76,2.23,.44,4.63-.88,6.58-.01,.02-.02,.03-.02,.05-1.57,.42-3.15,.86-4.71,1.33-4.3,1.3-8.54,2.8-12.72,4.47,.61-3.11-.36-6.24-2.24-8.78-2.11-2.86-5.1-4.69-8.34-6.03-5.87-2.43-13.37-3.41-17.78-8.34,.02-.04,.05-.07,.06-.12,.97-3.22,1.76-6.65,2.02-10.1Zm-57.11-22.96c.12,.04,.24,.08,.36,.12,.11,.11,.26,.2,.46,.24,11.68,2.24,24.1-1.53,32.56-9.86,2.11,5.8,7.8,9.26,12.6,12.78,2.84,2.08,5.5,4.45,7.14,7.62,1.58,3.06,2.12,6.54,2.07,9.95-.05,3.53-.71,7.01-1.65,10.4-.25-.27-.66-.46-1.01-.32-7.81,3.25-15.95,5.69-24.27,7.23-5.82,1.08-14.14,.95-17.42,6.9-.11,.2-.13,.39-.11,.57-.62-.22-1.24-.45-1.86-.7-4.09-1.6-8.37-3.85-10.99-7.5-.69-.96-1.26-2.02-1.64-3.15-.03-.1-.05-.2-.08-.3,.04-.11,.07-.23,.07-.35,.04-.44,.09-.88,.13-1.33l.03-.04c.09-.16,.14-.32,.14-.5,.03-.34,.07-.68,.1-1.02,0-.1-.03-.19-.06-.28,.27-.22,.46-.55,.4-.98-1.27-8.69-.8-17.61,1.36-26.12,.33-1.28,.7-2.55,1.1-3.81l.13,.17c.12,.12,.27,.21,.44,.26Zm-22.64,5.2c4.06-4.22,8.77-8.18,11.38-13.54,2.03-4.16,2.84-9.15,1.05-13.46,3.06,.61,6.09,1.67,8.33,3.89,1.29,1.28,2.28,2.88,2.66,4.67,.43,2.01-.16,3.95-.89,5.81-1.49,3.82-2.89,7.61-3.83,11.62-.92,3.93-1.48,7.94-1.71,11.97-.25,4.62,0,9.24,.66,13.82-.04,.03-.08,.05-.11,.08-.02,.03-.05,.06-.07,.09-1.41-1.96-4.28-2.21-6.53-2.24-5.39-.06-10.7,2.19-14.41,6.09-.56,.59-.19,1.77,.71,1.71,4.39-.31,8.64,1.91,11.17,5.47,1.23,1.73,2.07,3.77,2.23,5.9,.14,1.93,.44,3.75,2.82,3.51,2.35-.23,4.29,.84,5.64,2.77,1.53,2.2,1.73,4.91,1.52,7.5-.22,2.72-.88,5.39-1.29,8.09-.35,2.32-.61,4.66-.75,7.01-.5,8.48,.65,17.42,5.24,24.69-17.13-7.3-31.25-22-36.68-39.93-5.8-19.15-1.06-41.01,12.85-55.51ZM58.35,78.63c1.03-8.6,3.6-16.93,4.62-25.53,.7-5.93,.88-14.5-4.6-18.29,3.88-1.85,7.77-3.71,11.65-5.56,1.03-.49,2.15-1.07,3.32-1.03,1.16,.05,2.21,.75,3.13,1.39,1.8,1.25,3.54,2.58,5.31,3.88,7.18,5.25,14.71,10.38,23.43,12.64,4.72,1.23,9.61,1.53,14.4,.6-.96,2.51-1.76,5.09-2.36,7.72-2.23,9.64-2.12,19.85,.49,29.41,2.52,9.25,7.35,17.8,13.67,24.98,.15,.17,.32,.34,.48,.51-9.07-5.5-17.27-12.34-24.28-20.33-.5-.57-1.5-.26-1.67,.44-1.88,7.61-3.77,15.27-6.81,22.51-1.63,3.89-3.71,7.54-5.76,11.22-3.56-4.45-9.75-5.94-14.86-8.04-6.85-2.81-13.43-7.17-17.06-13.8-3.76-6.88-4.01-15.1-3.1-22.71ZM17.25,168.34c-4.86-.29-9.75-.09-14.53,.82,7.07-15.62,6.04-33.2,7.39-49.94,1.3-16.09,5.44-33.68,20.21-42.63,6.86-4.16,15.43-5.94,23.03-2.74,.11,.1,.23,.17,.39,.2,.63,.1,1.25,.26,1.86,.47,.15,.05,.29,.1,.43,.16,.05,.02,.22,.05,.25,.1-.04-.02-.08-.03-.12-.05,.04,.02,.08,.03,.12,.05,.2,.09,.39,.19,.58,.28-.18,1.12-.35,2.25-.49,3.37-.9,7.34-.66,15.07,2.37,21.93,2.95,6.67,8.63,11.53,15.03,14.8,3.4,1.74,7.01,2.91,10.53,4.35,3.07,1.25,6.11,2.88,8,5.63-1.05,1.91-2.07,3.84-2.99,5.83-2.75,5.93-4.35,12.25-3.26,18.78,.82,4.91,3.03,9.49,6.04,13.45-.76,.49-1.52,.99-2.28,1.48-.18,.12-.31,.29-.39,.48-3.6,2.34-6.93,5.03-9.96,8.04,0,0,0,0,0,0-.09-.01-.18-.02-.27-.04-.18,0-.35,.05-.5,.14-.3,.15-.6,.3-.91,.45-.12,.06-.21,.15-.28,.26,0,0,0,.02-.01,.02-.14-.04-.3-.05-.48,0-20.03,4.56-39.85-4.48-59.74-5.67Zm186.57,27.96c-1.92,1.93-2.8,4.57-3.98,6.96-2.18,4.42-5.23,8.35-8.83,11.7-7.69,7.14-17.53,11.38-27.69,13.61-11.8,2.59-24.08,2.74-36.1,2.46-12.54-.29-25.05-1.42-37.43-3.42-2.86-.46-6.61-.5-8.04-3.47-1.5-3.12-1.16-6.98-1.16-10.33,0-4.68-.6-9.9-4.2-13.14,2.97-2.36,4.81-6.09,4.57-9.93-.25-3.92-2.56-7.53-5.93-9.48,4.45-5.93,9.96-11.01,16.25-14.95,.2-.13,.31-.29,.38-.47,.07-.05,.15-.1,.22-.14,.14-.01,.27-.05,.38-.13l1.1-.8c.23,.26,.44,.54,.67,.8,9.34,10.37,23.36,13.88,36.91,12.9,15.47-1.12,29.73-7.44,43.93-13.19,2.18-.88,4.36-1.74,6.56-2.57,.1,.24,.3,.44,.64,.51,6.62,1.37,10.94,6.89,14.34,12.33,3.73,5.97,7.05,12.12,11.2,17.82,.18,.24,.36,.48,.54,.72-1.63,.19-3.11,.99-4.32,2.21Zm65.71-2.63c-2.09,8.36-4.85,16.48-7.93,24.52-1.51,3.92-2.86,8.01-2.72,12.23-13.16-4.42-25.04-12.03-35.1-21.56-5.22-4.95-9.98-10.38-14.22-16.18-4.14-5.65-7.47-11.72-11.14-17.67-3.45-5.59-7.82-11.3-14.27-13.31,.62-.22,1.23-.47,1.85-.68,3.45-1.21,6.97-2.23,10.35-3.63,5.94-2.46,11.8-6.6,13.45-13.19,.3-1.19,.41-2.41,.35-3.63,.16-.05,.32-.11,.48-.17,5.53-.52,11.06-1.05,16.59-1.58,2.53-.24,5.14-.59,7.67-.17,2.35,.4,4.34,1.58,6.02,3.23,3.46,3.39,5.97,7.9,8.68,11.88,2.95,4.32,5.76,8.77,8.93,12.93,2.47,3.24,5.34,5.84,9.08,7.33-.01,.32,.11,.64,.43,.88,5.6,4.16,2.88,13.25,1.49,18.77Zm50.1-13.59c-5.54,.26-11.08-.39-16.55-1.23-5.32-.81-10.63-1.72-15.92-2.68-5.28-.95-10.63-1.83-15.85-3.1-2.4-.58-4.71-1.42-6.7-2.9-1.84-1.37-3.36-3.15-4.72-4.97-3.1-4.16-5.92-8.56-8.84-12.85-2.63-3.85-5.06-8.1-8.32-11.47-1.57-1.63-3.43-2.99-5.59-3.72-2.58-.88-5.37-.75-8.04-.52-5.28,.47-10.56,.99-15.84,1.5,.18-.36,.32-.75,.4-1.2,.07-.45-.13-.8-.43-1.02-.29-5.75,.26-11.5,1.71-17.07,.33-1.29,.72-2.56,1.14-3.82,.1,.03,.19,.06,.31,.05,21.37-.7,43.09,.25,63.72,6.31,17.91,5.27,34.88,14.47,47.6,28.3,6.82,7.42,12.61,15.81,20.47,22.2-9.12,3.9-18.53,7.71-28.55,8.18Z"/></g></g></svg>