<?xml version="1.0" encoding="UTF-8"?><svg id="Calque_2" xmlns="http://www.w3.org/2000/svg" viewBox="0 0 260.1 264.85"><defs><style>.cls-1{fill:#fff;}</style></defs><g id="Calque_4"><g><path class="cls-1" d="M179.59,212.34s0-.07,0-.1c-3.81-3.35-7.45-6.87-10.97-10.52-13.27-13.78-24.89-29.12-38.92-42.18-3.82,3.49-7.62,7-11.4,10.53-14.03,13.11-27.79,26.5-41.28,40.15-.02,.37-.22,.62-.48,.75,.99,.91,1.98,1.82,2.97,2.73,17.33,15.83,34.85,31.49,50.89,48.64,.03,.03,.04,.07,.07,.11,.17-.16,.33-.33,.5-.49,.04-.14,.12-.28,.25-.41,9.56-9.27,19.07-18.58,28.53-27.95,6.83-6.76,13.62-13.56,20.39-20.38-.32-.13-.56-.42-.54-.88Z"/><path class="cls-1" d="M40.64,91.81c-.06-.08-.11-.16-.14-.26-12.65,13.18-25.24,26.4-37.75,39.72,.18,.03,.36,.13,.52,.33,8.56,10.75,17.12,21.51,26.1,31.91,3.92,4.54,7.95,8.97,12.06,13.32,.03-.07,.09-.14,.14-.21,0-6.08,0-12.16-.02-18.25-.09-22.19-.39-44.37-.9-66.56Z"/><path class="cls-1" d="M74,147.33c-10.29,9.88-20.44,19.9-30.45,30.07-.02,.5-.35,.78-.73,.88,10.33,10.83,21.17,21.16,32.19,31.31-.65-20.64-1.01-41.29-1.08-61.94,0-.12,.03-.22,.06-.31Z"/><path class="cls-1" d="M175.7,143.57c-10.48-11.12-21.1-22.1-31.87-32.94-2.72-2.74-5.45-5.47-8.19-8.19-1.45-1.44-2.87-2.94-4.37-4.33-.19-.18-.39-.36-.59-.51-.05,0-.1,0-.14,0-.19-.05-.4-.19-.53-.36-.25-.08-.52-.1-.82-.03-.84,.2-1.51,.98-2.14,1.53-5.8,5.06-11.56,10.17-17.28,15.31-11.33,10.2-22.51,20.58-33.53,31.12,.05,.18,.08,.36,.02,.54-.02,.05-.02,.11-.04,.16,.02,.05,.04,.09,.05,.14,.1,.25,.02,.55-.1,.77-.03,.07-.09,.11-.15,.16,0,.4,0,.8,.01,1.21,0,.16-.04,.3-.1,.42,.07,19.63,.41,39.26,1.01,58.89,3.39-3.42,6.78-6.83,10.2-10.21,13.68-13.54,27.63-26.8,41.84-39.78,.41-.38,1-.38,1.41,0,4.09,3.76,7.99,7.72,11.77,11.79,12.51,13.47,23.83,28.1,37.53,40.42,.95-20.27,1.82-40.58,.9-60.87-1.63-1.75-3.26-3.5-4.9-5.24Z"/><path class="cls-1" d="M43.56,174.55c11.75-11.91,23.7-23.63,35.84-35.14,11.4-10.81,22.97-21.45,34.7-31.9,2.99-2.67,6-5.32,9.01-7.96,1.42-1.25,2.82-2.74,4.42-3.76,.2-.13,.4-.23,.61-.32l.2-1.1c.03-.11,.09-.21,.15-.31-.35-6.65-.7-13.31-1.01-19.96-1.1-23.76-1.62-47.6,.31-71.33-9.16,9.09-18.28,18.2-27.37,27.36-16.69,16.81-33.27,33.74-49.72,50.78-2.67,2.76-5.31,5.55-7.97,8.32,0,.5-.05,1.01-.15,1.51,.01,.07,.04,.12,.05,.2,.15,6.33,.28,12.65,.39,18.98,.39,21.55,.56,43.09,.55,64.64Z"/><path class="cls-1" d="M228.6,104.69c-5.74-5.72-11.43-11.47-17.14-17.21,.22,6.2,.42,12.39,.58,18.59,.66,24.59,.91,49.19,.78,73.79,14.98-15.48,29.82-31.1,44.52-46.85-.06-.04-.12-.06-.18-.12-9.56-9.36-19.08-18.76-28.55-28.2Z"/><path class="cls-1" d="M181.63,211.38c.06,.05,.11,.1,.17,.15,9.25-9.33,18.46-18.71,27.61-28.14,.46-.48,.92-.96,1.39-1.44-9.25-10.42-18.62-20.72-28.11-30.92,.79,20.12-.1,40.25-1.05,60.34Z"/><path class="cls-1" d="M178.39,53.85c-16.34-16.81-32.54-33.76-48.62-50.83-.53,6.49-.88,12.99-1.07,19.49-.71,23.65,.51,47.3,1.75,70.92,.01,.03,.03,.05,.04,.08,.12,.33,.24,.67,.35,1,.2,.4,.41,.8,.61,1.21,1.35,.81,2.46,2.19,3.55,3.27,1.37,1.36,2.74,2.72,4.11,4.08,2.73,2.73,5.46,5.46,8.17,8.2,21.78,22,42.96,44.59,63.54,67.72,.03-6.52,.05-13.03,.02-19.55-.08-24.68-.57-49.36-1.45-74.03-10.38-10.47-20.73-20.98-31.01-31.55Z"/><path d="M258.69,131.66c-.04-.06-.07-.13-.12-.18-17.02-16.66-33.91-33.45-50.66-50.38s-33.37-33.99-49.85-51.19c-9.26-9.66-18.47-19.36-27.63-29.1-.43-.45-.98-.35-1.33-.02-.2-.64-1.03-1.1-1.65-.48-16.82,16.68-33.53,33.48-50.12,50.39-11.94,12.17-23.8,24.43-35.61,36.72,0,0-.02,0-.02,0-.26,.01-.53,.1-.71,.29-.17,.18-.32,.45-.29,.71,0,.02,0,.04,0,.07-4.26,4.43-8.54,8.85-12.78,13.3-9.25,9.69-18.46,19.43-27.63,29.19-.86,.91,.45,2.26,1.34,1.47,.01,.2,.08,.4,.23,.58,15.09,18.96,30.34,37.75,47.49,54.91,16.6,16.61,34.32,32.04,51.5,48.04,9.65,8.99,19.14,18.16,28.15,27.8,.16,.17,.34,.25,.52,.28,.01,.07,.01,.14,.04,.2,.04,.12,.11,.23,.21,.32,.19,.18,.44,.3,.71,.29,.27-.01,.51-.1,.71-.29,.46-.45,.92-.9,1.37-1.35,.1-.1,.18-.24,.23-.38,16.97-16.45,33.78-33.07,50.43-49.85,16.58-16.72,32.99-33.6,49.23-50.64,9.19-9.64,18.32-19.33,27.39-29.06,.79-.85-.27-2.06-1.13-1.62ZM41.43,176.82c-4.11-4.35-8.14-8.78-12.06-13.32-8.98-10.4-17.55-21.16-26.1-31.91-.16-.2-.34-.3-.52-.33,12.51-13.31,25.1-26.54,37.75-39.72,.04,.09,.08,.18,.14,.26,.51,22.18,.82,44.37,.9,66.56,.02,6.08,.03,12.17,.02,18.25-.05,.07-.11,.14-.14,.21Zm1.15-86.1c.1-.49,.15-1,.15-1.51,2.66-2.77,5.31-5.55,7.97-8.32,16.46-17.04,33.03-33.97,49.72-50.78,9.09-9.15,18.21-18.27,27.37-27.36-1.94,23.73-1.41,47.57-.31,71.33,.31,6.66,.66,13.31,1.01,19.96-.07,.09-.12,.19-.15,.31l-.2,1.1c-.21,.09-.41,.19-.61,.32-1.6,1.02-3,2.51-4.42,3.76-3.01,2.64-6.02,5.3-9.01,7.96-11.73,10.45-23.3,21.09-34.7,31.9-12.14,11.51-24.08,23.24-35.84,35.14,.02-21.55-.16-43.1-.55-64.64-.11-6.33-.25-12.65-.39-18.98,0-.08-.03-.13-.05-.2Zm.25,87.55c.38-.09,.71-.38,.73-.88,10.01-10.17,20.16-20.19,30.45-30.07-.03,.1-.06,.19-.06,.31,.06,20.65,.42,41.3,1.08,61.94-11.02-10.15-21.86-20.48-32.19-31.31Zm116.92,55.33c-9.46,9.37-18.97,18.69-28.53,27.95-.13,.13-.21,.27-.25,.41-.17,.16-.33,.33-.5,.49-.03-.03-.03-.07-.07-.11-16.04-17.16-33.57-32.82-50.89-48.64-.99-.91-1.98-1.82-2.97-2.73,.27-.13,.46-.38,.48-.75,13.49-13.66,27.25-27.05,41.28-40.15,3.78-3.53,7.59-7.04,11.4-10.53,14.03,13.06,25.65,28.39,38.92,42.18,3.52,3.65,7.16,7.18,10.97,10.52,0,.03,0,.07,0,.1-.02,.46,.22,.74,.54,.88-6.77,6.82-13.56,13.62-20.39,20.38Zm19.97-23.92c-13.69-12.32-25.02-26.95-37.53-40.42-3.78-4.07-7.68-8.03-11.77-11.79-.41-.38-1-.38-1.41,0-14.21,12.98-28.16,26.24-41.84,39.78-3.42,3.38-6.81,6.79-10.2,10.21-.6-19.62-.94-39.25-1.01-58.89,.06-.13,.1-.27,.1-.42,0-.4,0-.8-.01-1.21,.05-.05,.11-.1,.15-.16,.12-.22,.2-.52,.1-.77-.02-.05-.04-.09-.05-.14,.01-.05,.02-.11,.04-.16,.06-.18,.03-.36-.02-.54,11.02-10.54,22.2-20.91,33.53-31.12,5.72-5.15,11.48-10.25,17.28-15.31,.63-.55,1.3-1.33,2.14-1.53,.3-.07,.57-.05,.82,.03,.13,.17,.34,.3,.53,.36,.04,.01,.1,0,.14,0,.2,.15,.4,.33,.59,.51,1.51,1.39,2.92,2.88,4.37,4.33,2.74,2.72,5.47,5.45,8.19,8.19,10.77,10.84,21.39,21.82,31.87,32.94,1.64,1.74,3.27,3.5,4.9,5.24,.92,20.29,.06,40.59-.9,60.87Zm29.7-26.29c-9.15,9.43-18.35,18.81-27.61,28.14-.06-.05-.11-.1-.17-.15,.95-20.1,1.84-40.23,1.05-60.34,9.49,10.2,18.87,20.5,28.11,30.92-.46,.48-.92,.96-1.39,1.44Zm1.41-4.41c-20.58-23.13-41.76-45.72-63.54-67.72-2.72-2.74-5.44-5.48-8.17-8.2-1.37-1.36-2.74-2.72-4.11-4.08-1.09-1.08-2.19-2.46-3.55-3.27-.2-.4-.41-.8-.61-1.21-.12-.33-.24-.67-.35-1-.01-.03-.03-.05-.04-.08-1.25-23.61-2.47-47.26-1.75-70.92,.2-6.5,.55-13,1.07-19.49,16.07,17.07,32.28,34.02,48.62,50.83,10.28,10.57,20.62,21.08,31.01,31.55,.88,24.67,1.36,49.35,1.45,74.03,.02,6.52,0,13.03-.02,19.55Zm2,.87c.13-24.6-.12-49.2-.78-73.79-.17-6.2-.37-12.4-.58-18.59,5.7,5.75,11.4,11.5,17.14,17.21,9.48,9.44,18.99,18.84,28.55,28.2,.06,.06,.12,.08,.18,.12-14.7,15.75-29.54,31.37-44.52,46.85Z"/></g></g></svg>