<?xml version="1.0" encoding="UTF-8"?><svg id="Calque_2" xmlns="http://www.w3.org/2000/svg" viewBox="0 0 378.37 256.9"><defs><style>.cls-1{fill:#fff;}</style></defs><g id="Calque_4"><g><path class="cls-1" d="M214.85,25.88c1.51,.92,3.51-.04,4.78-.97,1.36-1.01,1.95-2.63,1.32-4.24-.49-1.24-1.69-2.1-2.98-2.38-.15,.12-.33,.2-.58,.2-1.69,0-3.11,1.37-3.65,2.91-.52,1.51-.41,3.57,1.1,4.49Z"/><path class="cls-1" d="M188.14,178.74s-.08,0-.13,.02c.59,1.84,1.2,3.68,1.84,5.51,5.49,15.56,12.8,30.38,19.08,45.61,1.36,3.29,3.06,7.01,1.5,10.54-.32,.72-.76,1.4-1.34,1.94-.59,.55-1.51,.82-1.84,1.54-.4,.91-.21,2.2-.27,3.18-.06,.89-.14,1.78-.3,2.66-.17,.95-.47,1.9-.89,2.79,4.82-3.7,7.25-9.8,8.65-15.6,3.35-13.88,1.13-28.3,.9-42.38-.19-11.59,1.51-22.95,5.42-33.76-8.45,9.67-20.76,14.01-32.63,17.95Z"/><path class="cls-1" d="M240.59,17.19c-9.97,4.52-19.3,10.37-27.66,17.44-.69,.58-1.62,.18-1.71-.71-.14-1.39-.59-2.71-1.3-3.89-4.17,5.73-6.23,12.68-7.58,19.56-2.58,13.08-4.62,28.27,2.83,40.18,3.32,5.3,8.3,9.22,14.46,10.59,6.84,1.53,13.99,.17,20.75-1.12,.04,0,.07,0,.1,0,.49-6.99-1.87-13.94-3-20.78-3.59-21.74-1.84-45.48,11.54-63.62-2.69,1.01-5.42,1.88-8.27,2.35-.06,0-.11,0-.16,0Z"/><path class="cls-1" d="M242.4,100.25c-.02,.18-.08,.32-.16,.45-.58,7.68-1.84,15.3-3.79,22.75-.54,2.05-1.15,4.09-1.79,6.11,.05,.01,.09,.02,.14,.04,2.33,.97,4.66,1.93,6.99,2.9,.09-1.7-.12-3.38-.6-5.02-.31-1.05,.95-1.55,1.67-.97,3.48,2.76,7.73,4.33,12.13,4.59-2.3-2.73-4.59-5.45-6.89-8.18-.57-.68-.05-2.06,.97-1.67,3.05,1.17,6.11,2.34,9.16,3.51,2.14,.82,5.13,2.5,7.65,2.22-2.29-2.8-3.84-6.13-4.46-9.72-.12-.69,.44-1.5,1.23-1.23,8.33,2.89,17.32,5.91,26.19,4.51-5.91-2.59-11.81-5.18-17.72-7.77-1.08-.47-.28-2.09,.77-1.83,9.2,2.31,19.06,4.66,28.42,2.32-8.22-2.64-16.6-4.75-25.09-6.3-1.11-.2-.85-2.06,.27-1.96,6.71,.57,13.45,.67,20.17,.28,3.32-.2,6.63-.51,9.92-.95,1.84-.25,4.7-.47,6-2.07-13.14-3.49-26.96-3.13-40.1-6.68-1.06-.29-.87-2.1,.27-1.96,9.39,1.14,18.87,1.41,28.3,.78,4.62-.31,9.26-.78,13.81-1.61,3.17-.58,6.28-1.41,9.15-2.84-6.07-.91-12.04-2.29-17.88-4.18-.85-.27-1.05-1.78,0-1.93,5.49-.78,10.97-1.57,16.42-2.56,9.59-1.73,19.17-4.05,28.09-8.03,7.91-3.53,14.77-8.54,21.42-13.94-8.45,2.35-16.99,4.36-25.59,6.03-17.93,3.48-36.11,5.61-54.32,6.96-9.16,.67-18.33,1.15-27.5,1.5-8.76,.33-17.87,.07-26.14,3.39-.07,.03-.13,.02-.2,.04,.24,1.52,.51,3.05,.8,4.56,1.17,6.1,3,12.24,2.3,18.52Z"/><path class="cls-1" d="M255.46,10.12c4.44-1.79,8.96-3.27,13.77-3.63,4.74-.36,9.57,.26,14.12,1.62,6.34,1.9,12.1,5.24,17.21,9.41-1.86-2.3-3.95-4.41-6.26-6.28-8.28-6.71-19.09-9.94-29.69-9.06-4.99,.42-9.99,1.77-14.28,4.4-1.29,.79-2.47,1.71-3.56,2.73-.07,.26-.26,.48-.6,.57-.52,.52-1.03,1.06-1.51,1.63-.95,1.13-1.85,2.31-2.81,3.43,4.72-1.03,9.15-3.02,13.62-4.82Z"/><path class="cls-1" d="M2.4,52.39c4.79,4.06,10.16,7.39,15.89,9.97,.81,.36,.53,1.62-.24,1.83-1.81,.48-5.17,1.49-5.27,3.82-.1,2.48,3.39,3.18,5.22,3.5,6.8,1.18,13.63,2.19,20.44,3.29,1.13,.18,.83,1.99-.27,1.96-1.88-.05-2.68,2.15-2.43,3.75,.34,2.14,2.65,3.27,4.53,3.78,2.6,.7,5.4,.71,8.07,.68,3.03-.03,6.05-.28,9.07-.55,1.19-.1,1.26,1.62,.27,1.96-1.49,.52-3.35,1.11-4.16,2.6-.96,1.78,.26,2.83,1.88,3.4,3.34,1.16,6.84,1.82,10.36,2.11,7.09,.59,14.2-.16,21.25-.92,1.14-.12,1.33,1.7,.27,1.96-6.41,1.56-12.42,4.33-17.79,8.15,6.98,3.39,15.27,1.81,22.59,.29,1.26-.26,1.76,1.53,.53,1.93-2.49,.81-4.83,2.06-6.84,3.75-.35,.3-1.23,.88-1.27,1.4-.04,.55,.59,.68,1,.77,1.17,.24,2.5,.15,3.69,.14,5.45-.05,10.83-.98,15.99-2.69,.91-.3,1.76,1.04,.97,1.67-2.37,1.9-3.77,4.62-3.92,7.6,4.99-.29,9.99-.59,14.98-.88,.93-.05,1.23,1.1,.71,1.71-.78,.9-.21,2.24,.54,2.97,1.17,1.14,3.04,.98,4.52,.67,3.01-.63,5.94-2.06,9.03-.98,.86,.3,.94,1.31,.24,1.83-.96,.72-.05,2.19,.7,2.62,1.05,.6,2.36,.56,3.53,.52,2.98-.11,5.93-.56,8.83-1.27,.79-.19,1.65,.72,1.13,1.47-1.11,1.59,.15,3.65,1.73,4.39,2.4,1.12,5.37-.27,7.57-1.25,.74-.33,1.75,.22,1.47,1.13-.42,1.38,.94,2.5,2.21,2.64,1.65,.18,3.26-.76,4.65-1.52,.69-.38,1.83,.27,1.47,1.13-.7,1.65,2.51,1.33,3.24,1.19,1.2-.23,2.31-.36,3.43-.02,.17-.41,.34-.81,.52-1.21,.08-.18,.2-.3,.33-.38,3.11-8.68,6.05-17.41,8.8-26.21,2.58-8.26,6-18.76-.17-26.34-.2-.25-.26-.52-.23-.78-.15-.13-.26-.29-.31-.47-.11,.03-.23,.05-.37,.04-15.25-1.43-30.47-3.12-45.65-5.11-26.74-3.49-53.37-7.84-79.83-13.05-13.35-2.63-26.65-5.47-39.9-8.53-3.25-.75-6.5-1.52-9.75-2.29-1.24-.3-2.5-.68-3.77-.29-.27,.08-.77,.22-.87,.54-.15,.47,1.12,1.34,1.4,1.58Z"/><path class="cls-1" d="M182.23,112.49c-2.52,7.86-5.2,15.68-8,23.45-.11,.3-.3,.48-.53,.59-2.85,7.51-2.86,15.78-1.79,23.67,1.07,7.87,3.1,15.6,5.08,23.28,2.04,7.92,4.16,15.81,5.84,23.81,1.7,8.08,2.73,16.19,3.27,24.43,.26,4.03,.37,8.19,1.23,12.14,.7,3.2,2.96,7.41,6.92,6.62,.42-.08,.92,.05,1.13,.46,.78,1.51,1.76,3.37,3.53,3.86,1.86,.51,3.74-.83,4.71-2.33,1.14-1.77,1.32-4.01,1.42-6.05,.08-1.7-.14-3.57,1.42-4.66,.7-.49,1.37-.82,1.85-1.57,.42-.64,.64-1.4,.73-2.16,.22-1.91-.48-3.81-1.18-5.55-1.41-3.55-2.93-7.06-4.45-10.56-3.04-6.99-6.17-13.93-9.13-20.95-5.85-13.86-11.05-28.11-13.25-43.05-.19-1.26,1.74-1.8,1.93-.53,.97,6.62,2.54,13.13,4.49,19.52,.06-.03,.1-.08,.17-.1,6.62-2.2,13.29-4.43,19.44-7.77,5.59-3.03,10.49-7.02,14.31-12.12,3.88-5.18,6.8-11.07,9.34-17.01,5.22-12.24,8.4-25.34,9.47-38.61-7.77,1.48-16.11,2.89-23.76,.22-5.97-2.08-10.67-6.57-13.73-12.04-3.45-6.16-4.68-13.23-4.64-20.23,.04-7.64,1.25-15.43,2.94-22.87,1.53-6.74,3.95-13.29,8.27-18.75,.31-.39,1.1-.39,1.41,0,1.08,1.36,1.82,2.84,2.24,4.46,7.66-6.29,16.05-11.62,25.01-15.85,.05-.14,.13-.27,.27-.39,1.91-1.65,3.35-3.71,4.96-5.64-3.49,.15-6.97-.37-10.47-.65-4.24-.33-8.5-.06-12.63,.95-6.88,1.68-13.18,5.43-17.59,11.02-4.64,5.89-5.96,13.01-6.19,20.34-.23,7.39,.26,14.96-2.1,22.08-2.03,6.14-5.83,11.62-10.84,15.7,2.27,2.93,3.44,6.43,3.74,10.12,.62,7.73-2.51,15.49-4.83,22.71ZM216.7,16.61c.19-.22,.45-.38,.74-.35,2.64,.21,5.15,1.96,5.68,4.67,.24,1.23,.1,2.48-.46,3.6-.55,1.09-1.53,1.92-2.55,2.54-2.14,1.3-4.99,1.86-6.99,0-3.54-3.28-.9-9.82,3.59-10.47Z"/><path d="M377.09,56.05c-17.64,5.2-35.72,8.77-53.95,11.17-18.2,2.4-36.53,3.68-54.87,4.42-9.72,.39-20.06-.13-29.26,3.55-.57-3.94-.98-7.9-1.14-11.89-.48-11.52,.97-23.15,5.3-33.89,2.33-5.78,5.51-11.23,9.5-16.01,0,0,0,0,0,0,4.55-1.86,9.08-3.81,13.96-4.6,9.19-1.49,18.63,1.12,26.49,5.88,4.32,2.61,8.19,5.86,11.71,9.48,.4,.41,.88,.35,1.24,.09,.48-.23,.81-.78,.49-1.39-5.04-9.2-13.32-16.44-23.17-20.09-10.15-3.76-22.36-3.94-32.15,1.02-2.19,1.11-4.24,2.54-6.03,4.24-4.01,.62-8.06-.08-12.06-.43-3.77-.32-7.56-.19-11.28,.48-6.88,1.23-13.42,4.38-18.4,9.32-4.95,4.92-7.81,11.16-8.72,18.04-1.02,7.74,.03,15.63-1.34,23.34-1.38,7.76-5.56,14.72-11.7,19.64-.08-.43-.38-.83-.92-.88-28.46-2.66-56.82-6.29-85.03-10.9-27.97-4.57-55.79-10.09-83.39-16.55-1.9-.45-3.81-.9-5.71-1.35-1.39-.33-2.75-.75-4.19-.6-.89,.09-1.79,.43-2.45,.95v3.87c.96,1.06,2.31,1.94,3.4,2.78,1.35,1.05,2.74,2.05,4.17,2.99,2.42,1.6,4.94,3.03,7.54,4.31-1.71,.71-3.31,1.76-4.01,3.45-1.13,2.71,.82,5.05,3.22,6.06,1.45,.61,2.97,.85,4.51,1.09,2.09,.34,4.18,.67,6.28,1.01,3.29,.53,6.59,1.06,9.88,1.59-.57,.68-.98,1.53-1.16,2.44-.5,2.53,.68,4.75,2.77,6.16,2.48,1.66,5.67,1.93,8.56,2.06,2.56,.12,5.11,.02,7.67-.14-1.28,1.13-2.07,2.62-1.52,4.58,.45,1.6,1.89,2.35,3.34,2.88,2.06,.74,4.2,1.27,6.35,1.65,5.76,1.02,11.59,.94,17.4,.51-4.01,1.71-7.81,3.9-11.3,6.55-.58,.44-.7,1.31,0,1.73,5.66,3.39,12.21,3.4,18.59,2.49-.64,.46-1.25,.96-1.83,1.5-.91,.86-1.72,2.03-1.25,3.33,.38,1.06,1.47,1.58,2.51,1.78,1.54,.29,3.21,.21,4.76,.17,1.79-.04,3.57-.17,5.35-.39,2.4-.3,4.76-.76,7.09-1.37-1.46,2.16-2.22,4.76-2.09,7.42,.03,.52,.44,1.03,1,1,4.81-.28,9.61-.56,14.42-.85-.36,2.06,1.03,4.3,3.09,5.07,3.84,1.44,7.57-1.53,11.34-1.16-.72,1.98,.82,4.36,2.99,5.03,1.85,.58,3.94,.33,5.83,.15,1.72-.16,3.43-.42,5.13-.77-.18,1.89,.99,3.85,2.6,4.93,2.62,1.74,5.84,.86,8.6-.27,.3,1.34,1.33,2.48,2.65,3.04,1.93,.82,3.97,.17,5.79-.71,.37,.77,1.12,1.4,1.95,1.73,.82,.34,1.64,.39,2.51,.26,1.07-.16,2.3-.61,3.37-.31-5.01,14.41-.73,30.43,2.9,44.72,2.15,8.46,4.46,16.89,6.29,25.42,1.87,8.71,2.89,17.41,3.49,26.28,.17,2.51,.35,5.02,.64,7.53,.25,2.14,.54,4.3,1.36,6.3,1.32,3.19,4.23,5.78,7.75,5.51,1.4,2.51,3.49,4.83,6.66,4.31,1.23-.2,2.27-.75,3.14-1.51,.28,.31,.72,.46,1.19,.19,5.17-2.93,8.3-8.2,10.19-13.69,2.24-6.53,2.99-13.52,3.11-20.39,.26-14.49-2.13-28.99,.11-43.42,1.23-7.88,3.53-15.58,6.86-22.84,.07-.15,.1-.3,.1-.45,2.31-3.59,4.26-7.42,6.03-11.3,1.78-3.92,3.34-7.95,4.71-12.03,.07,.05,.14,.09,.23,.13,2.71,1.12,5.42,2.25,8.12,3.37,.46,.19,1.16-.21,1.23-.7,.22-1.6,.21-3.19,0-4.76,4.03,2.54,8.71,3.86,13.53,3.68,.91-.04,1.26-1.05,.71-1.71-1.94-2.3-3.87-4.6-5.81-6.9,2.34,.9,4.68,1.79,7.02,2.69,2.93,1.12,6.02,2.57,9.1,1.16,.61-.28,.61-1.14,.2-1.57-2.24-2.36-3.8-5.18-4.63-8.28,9.16,3.13,18.97,5.98,28.59,3.32,.76-.21,1.06-1.47,.24-1.83-3.68-1.61-7.36-3.23-11.04-4.84,7.48,1.37,15.12,1.78,22.35-.91,.93-.34,.97-1.6,0-1.93-5.46-1.85-11-3.46-16.6-4.83,3.6,0,7.2-.12,10.78-.4,3.44-.26,6.96-.52,10.35-1.21,2.39-.49,4.75-1.56,5.59-4.02,.18-.51-.2-1.09-.7-1.23-7.74-2.21-15.74-2.98-23.71-3.94,3.81,.01,7.62-.12,11.42-.4,4.61-.34,9.25-.83,13.79-1.69,4.13-.78,8.2-2.05,11.71-4.41,.87-.59,.47-1.74-.5-1.86-5.42-.67-10.78-1.75-16.03-3.23,18.19-2.67,36.7-6.09,52.19-16.55,4.87-3.29,9.39-7.06,13.89-10.82,.78-.65-.06-1.94-.97-1.67Zm-139.6,22.41c1.13,6.84,3.49,13.79,3,20.78-.04,0-.07,0-.1,0-6.76,1.29-13.91,2.65-20.75,1.12-6.15-1.37-11.14-5.29-14.46-10.59-7.46-11.91-5.41-27.1-2.83-40.18,1.36-6.89,3.42-13.83,7.58-19.56,.71,1.18,1.16,2.5,1.3,3.89,.09,.88,1.02,1.29,1.71,.71,8.36-7.07,17.69-12.93,27.66-17.44,.06,0,.1,.02,.16,0,2.85-.47,5.59-1.34,8.27-2.35-13.38,18.13-15.13,41.88-11.54,63.62Zm-17.84-53.49c-1.27,.94-3.27,1.89-4.78,.97-1.51-.92-1.63-2.97-1.1-4.49,.53-1.54,1.95-2.91,3.65-2.91,.24,0,.43-.09,.58-.2,1.29,.28,2.49,1.14,2.98,2.38,.63,1.61,.04,3.24-1.32,4.24Zm26.52-15.08c.34-.09,.53-.3,.6-.57,1.1-1.02,2.28-1.94,3.56-2.73,4.29-2.63,9.29-3.98,14.28-4.4,10.6-.88,21.41,2.34,29.69,9.06,2.31,1.87,4.4,3.98,6.26,6.28-5.1-4.16-10.87-7.51-17.21-9.41-4.55-1.36-9.38-1.98-14.12-1.62-4.81,.36-9.32,1.84-13.77,3.63-4.47,1.8-8.9,3.79-13.62,4.82,.96-1.12,1.86-2.3,2.81-3.43,.48-.57,.99-1.11,1.51-1.63Zm-77.39,125.03c-.73,.14-3.93,.47-3.24-1.19,.36-.86-.78-1.5-1.47-1.13-1.4,.76-3,1.7-4.65,1.52-1.27-.14-2.63-1.26-2.21-2.64,.28-.91-.73-1.46-1.47-1.13-2.2,.98-5.17,2.36-7.57,1.25-1.58-.74-2.84-2.79-1.73-4.39,.52-.75-.34-1.66-1.13-1.47-2.9,.71-5.85,1.16-8.83,1.27-1.17,.04-2.48,.08-3.53-.52-.75-.43-1.66-1.91-.7-2.62,.7-.52,.62-1.53-.24-1.83-3.09-1.09-6.02,.34-9.03,.98-1.47,.31-3.34,.46-4.52-.67-.75-.73-1.33-2.07-.54-2.97,.53-.6,.22-1.76-.71-1.71-4.99,.29-9.99,.59-14.98,.88,.15-2.99,1.54-5.7,3.92-7.6,.79-.63-.06-1.97-.97-1.67-5.17,1.71-10.55,2.64-15.99,2.69-1.19,.01-2.52,.1-3.69-.14-.42-.09-1.05-.22-1-.77,.04-.51,.92-1.1,1.27-1.4,2.01-1.69,4.35-2.94,6.84-3.75,1.23-.4,.73-2.19-.53-1.93-7.32,1.52-15.61,3.1-22.59-.29,5.37-3.81,11.38-6.58,17.79-8.15,1.07-.26,.87-2.09-.27-1.96-7.05,.76-14.16,1.51-21.25,.92-3.52-.29-7.02-.95-10.36-2.11-1.62-.56-2.84-1.61-1.88-3.4,.81-1.49,2.66-2.08,4.16-2.6,1-.35,.93-2.07-.27-1.96-3.02,.26-6.04,.51-9.07,.55-2.67,.03-5.48,.02-8.07-.68-1.88-.51-4.18-1.64-4.53-3.78-.25-1.59,.55-3.8,2.43-3.75,1.1,.03,1.4-1.78,.27-1.96-6.81-1.09-13.64-2.1-20.44-3.29-1.84-.32-5.33-1.03-5.22-3.5,.1-2.33,3.45-3.34,5.27-3.82,.77-.2,1.05-1.46,.24-1.83-5.72-2.58-11.1-5.91-15.89-9.97-.28-.24-1.55-1.1-1.4-1.58,.1-.32,.6-.46,.87-.54,1.27-.38,2.53,0,3.77,.29,3.25,.78,6.5,1.54,9.75,2.29,13.25,3.06,26.55,5.91,39.9,8.53,26.46,5.21,53.09,9.56,79.83,13.05,15.18,1.98,30.4,3.68,45.65,5.11,.14,.01,.26,0,.37-.04,.05,.18,.16,.34,.31,.47-.03,.26,.03,.53,.23,.78,6.17,7.58,2.75,18.08,.17,26.34-2.75,8.8-5.69,17.53-8.8,26.21-.13,.08-.25,.2-.33,.38-.18,.4-.35,.81-.52,1.21-1.12-.34-2.22-.21-3.43,.02Zm46.57,59.63c.23,14.08,2.45,28.5-.9,42.38-1.4,5.79-3.83,11.89-8.65,15.6,.42-.89,.72-1.84,.89-2.79,.16-.88,.24-1.77,.3-2.66,.06-.99-.14-2.28,.27-3.18,.32-.73,1.25-1,1.84-1.54,.58-.54,1.02-1.22,1.34-1.94,1.57-3.53-.14-7.24-1.5-10.54-6.28-15.24-13.59-30.06-19.08-45.61-.64-1.83-1.26-3.66-1.84-5.51,.04,0,.08,0,.13-.02,11.87-3.94,24.18-8.28,32.63-17.95-3.91,10.81-5.61,22.17-5.42,33.76Zm15.35-54.63c-2.53,5.94-5.45,11.82-9.34,17.01-3.83,5.1-8.72,9.09-14.31,12.12-6.15,3.34-12.82,5.57-19.44,7.77-.07,.02-.11,.07-.17,.1-1.95-6.39-3.52-12.9-4.49-19.52-.19-1.27-2.11-.73-1.93,.53,2.2,14.95,7.4,29.19,13.25,43.05,2.96,7.02,6.1,13.96,9.13,20.95,1.52,3.5,3.04,7.01,4.45,10.56,.69,1.75,1.4,3.64,1.18,5.55-.09,.76-.32,1.51-.73,2.16-.48,.75-1.15,1.07-1.85,1.57-1.56,1.1-1.34,2.96-1.42,4.66-.1,2.05-.28,4.28-1.42,6.05-.97,1.5-2.85,2.84-4.71,2.33-1.77-.49-2.75-2.35-3.53-3.86-.21-.41-.71-.54-1.13-.46-3.96,.79-6.22-3.42-6.92-6.62-.86-3.95-.96-8.11-1.23-12.14-.54-8.24-1.57-16.34-3.27-24.43-1.68-8-3.8-15.9-5.84-23.81-1.97-7.68-4.01-15.41-5.08-23.28-1.07-7.89-1.06-16.16,1.79-23.67,.23-.1,.43-.29,.53-.59,2.81-7.77,5.48-15.58,8-23.45,2.32-7.23,5.45-14.98,4.83-22.71-.3-3.69-1.47-7.19-3.74-10.12,5.01-4.08,8.8-9.56,10.84-15.7,2.36-7.12,1.87-14.69,2.1-22.08,.22-7.33,1.55-14.44,6.19-20.34,4.41-5.59,10.71-9.34,17.59-11.02,4.13-1.01,8.4-1.28,12.63-.95,3.51,.27,6.98,.8,10.47,.65-1.61,1.92-3.05,3.98-4.96,5.64-.14,.12-.22,.25-.27,.39-5.44,2.57-10.67,5.55-15.66,8.89,.14-.19,.27-.39,.38-.6,.57-1.12,.7-2.38,.46-3.6-.52-2.71-3.04-4.46-5.68-4.67-.29-.02-.56,.13-.74,.35-4.49,.65-7.13,7.19-3.59,10.47,1.49,1.38,3.44,1.42,5.22,.82-1.84,1.34-3.65,2.74-5.41,4.18-.41-1.62-1.15-3.09-2.24-4.46-.31-.39-1.11-.39-1.41,0-4.32,5.47-6.74,12.02-8.27,18.75-1.69,7.44-2.9,15.24-2.94,22.87-.04,7,1.19,14.07,4.64,20.23,3.06,5.46,7.76,9.95,13.73,12.04,7.65,2.67,16,1.26,23.76-.22-1.07,13.26-4.25,26.36-9.47,38.61Zm120.93-66.71c-8.92,3.98-18.51,6.3-28.09,8.03-5.45,.98-10.94,1.78-16.42,2.56-1.05,.15-.85,1.66,0,1.93,5.84,1.89,11.82,3.28,17.88,4.18-2.86,1.43-5.98,2.26-9.15,2.84-4.56,.83-9.2,1.3-13.81,1.61-9.43,.64-18.91,.36-28.3-.78-1.14-.14-1.33,1.68-.27,1.96,13.13,3.55,26.96,3.2,40.1,6.68-1.3,1.6-4.16,1.83-6,2.07-3.29,.44-6.61,.75-9.92,.95-6.72,.4-13.46,.3-20.17-.28-1.11-.09-1.38,1.76-.27,1.96,8.49,1.55,16.87,3.66,25.09,6.3-9.36,2.34-19.22-.01-28.42-2.32-1.05-.26-1.85,1.36-.77,1.83,5.91,2.59,11.81,5.18,17.72,7.77-8.87,1.4-17.85-1.62-26.19-4.51-.79-.27-1.35,.54-1.23,1.23,.62,3.6,2.17,6.92,4.46,9.72-2.52,.28-5.5-1.4-7.65-2.22-3.05-1.17-6.11-2.34-9.16-3.51-1.02-.39-1.55,.99-.97,1.67,2.3,2.73,4.59,5.45,6.89,8.18-4.4-.26-8.65-1.82-12.13-4.59-.73-.58-1.98-.07-1.67,.97,.48,1.64,.69,3.33,.6,5.02-2.33-.97-4.66-1.93-6.99-2.9-.05-.02-.1-.03-.14-.04,.64-2.02,1.25-4.06,1.79-6.11,1.96-7.45,3.21-15.07,3.79-22.75,.08-.13,.14-.27,.16-.45,.7-6.27-1.13-12.42-2.3-18.52-.29-1.52-.56-3.04-.8-4.56,.07-.01,.13,0,.2-.04,8.28-3.32,17.39-3.06,26.14-3.39,9.17-.35,18.34-.82,27.5-1.5,18.21-1.34,36.39-3.48,54.32-6.96,8.61-1.67,17.15-3.68,25.59-6.03-6.65,5.4-13.52,10.42-21.42,13.94Z"/></g></g></svg>